<?xml version="1.0" standalone="no"?>
 <!DOCTYPE svg PUBLIC "-//W3C//DTD SVG 1.1//EN" 
 "http://www.w3.org/Graphics/SVG/1.1/DTD/svg11.dtd"> 
<svg xmlns="http://www.w3.org/2000/svg" version="1.1" 
    width="41.9989cm" height="29.7002cm" viewBox="0 0 165350 116930 ">
<title>SVG Picture created as LEDSensor-F_Cu.svg date 2015/10/27 00:10:52 </title>
  <desc>Picture generated by PCBNEW </desc>
<g style="fill:#000000; fill-opacity:1;stroke:#000000; stroke-opacity:1;
stroke-linecap:round; stroke-linejoin:round; "
 transform="translate(0 0) scale(1 1)">
</g>
<g style="fill:#000000; fill-opacity:0.0; 
stroke:#000000; stroke-width:39.3701; stroke-opacity:1; 
stroke-linecap:round; stroke-linejoin:round;">
</g>
<g style="fill:#000000; fill-opacity:1.0; 
stroke:#000000; stroke-width:39.3701; stroke-opacity:1; 
stroke-linecap:round; stroke-linejoin:round;">
<circle cx="16060.2" cy="10145.3" r="590.551" /> 
<circle cx="7005.12" cy="10145.3" r="590.551" /> 
<polyline style="fill-rule:evenodd;"
points="11379,10393
11379,9882
11689,9882
11689,10393
11379,10393
" /> 
<polyline style="fill-rule:evenodd;"
points="12129,10393
12129,9882
12439,9882
12439,10393
12129,10393
" /> 
<polyline style="fill-rule:evenodd;"
points="11968,8641
11968,7893
12637,7893
12637,8641
11968,8641
" /> 
<polyline style="fill-rule:evenodd;"
points="10393,8641
10393,7893
11062,7893
11062,8641
10393,8641
" /> 
<circle cx="9547.24" cy="10137.8" r="275.591" /> 
<circle cx="11515.7" cy="9055.12" r="275.591" /> 
</g>
<g style="fill:#000000; fill-opacity:1.0; 
stroke:#000000; stroke-width:196.85; stroke-opacity:1; 
stroke-linecap:round; stroke-linejoin:round;">
<path d="M11534 10137
L9547 10137
" />
<path d="M12303 8267
L12303 10119
" />
<path d="M12303 10119
L12284 10137
" />
<path d="M10728 8267
L11515 9055
" />
</g>
<g style="fill:#000000; fill-opacity:1.0; 
stroke:#000000; stroke-width:39.3701; stroke-opacity:1; 
stroke-linecap:round; stroke-linejoin:round;">
<polyline style="fill-rule:evenodd;"
points="15243,13855
13248,13855
13248,8544
13248,7757
13158,7539
12992,7373
12775,7283
12540,7283
11831,7283
11614,7373
11515,7471
11417,7373
11200,7283
10965,7283
10257,7283
10039,7373
9873,7539
9783,7756
9783,7990
9783,8778
9873,8995
10039,9161
10256,9251
10490,9252
10638,9252
10719,9448
10111,9448
10049,9387
9724,9252
9371,9251
9046,9386
8796,9635
8661,9960
8661,10313
8795,10638
9044,10888
9370,11023
9722,11023
10048,10889
10110,10826
10938,10826
11024,10913
11241,11003
11476,11003
11826,11003
11909,10969
11991,11003
12226,11003
12576,11003
12793,10913
12959,10747
13049,10530
13050,10295
13050,9745
12992,9605
12992,9161
13157,8996
13247,8779
13248,8544
13248,13855
7822,13855
7822,11772
8579,11014
8579,9276
7822,8518
7822,6434
13834,6434
15243,7843
15243,8518
14485,9276
14485,11014
15243,11772
15243,13855
" /> 
</g>
<g style="fill:#000000; fill-opacity:0.0; 
stroke:#000000; stroke-width:393.701; stroke-opacity:1; 
stroke-linecap:round; stroke-linejoin:round;">
<polyline fill="none;"
points="15243,13855
13248,13855
13248,8544
13248,7757
13158,7539
12992,7373
12775,7283
12540,7283
11831,7283
11614,7373
11515,7471
11417,7373
11200,7283
10965,7283
10257,7283
10039,7373
9873,7539
9783,7756
9783,7990
9783,8778
9873,8995
10039,9161
10256,9251
10490,9252
10638,9252
10719,9448
10111,9448
10049,9387
9724,9252
9371,9251
9046,9386
8796,9635
8661,9960
8661,10313
8795,10638
9044,10888
9370,11023
9722,11023
10048,10889
10110,10826
10938,10826
11024,10913
11241,11003
11476,11003
11826,11003
11909,10969
11991,11003
12226,11003
12576,11003
12793,10913
12959,10747
13049,10530
13050,10295
13050,9745
12992,9605
12992,9161
13157,8996
13247,8779
13248,8544
13248,13855
7822,13855
7822,11772
8579,11014
8579,9276
7822,8518
7822,6434
13834,6434
15243,7843
15243,8518
14485,9276
14485,11014
15243,11772
15243,13855
" /> 
</g> 
</svg>
