<?xml version="1.0" standalone="no"?>
 <!DOCTYPE svg PUBLIC "-//W3C//DTD SVG 1.1//EN" 
 "http://www.w3.org/Graphics/SVG/1.1/DTD/svg11.dtd"> 
<svg xmlns="http://www.w3.org/2000/svg" version="1.1" 
    width="41.9989cm" height="29.7002cm" viewBox="0 0 165350 116930 ">
<title>SVG Picture created as LEDSensor-F_SilkS.svg date 2015/10/27 00:10:52 </title>
  <desc>Picture generated by PCBNEW </desc>
<g style="fill:#000000; fill-opacity:1;stroke:#000000; stroke-opacity:1;
stroke-linecap:round; stroke-linejoin:round; "
 transform="translate(0 0) scale(1 1)">
</g>
<g style="fill:#000000; fill-opacity:0.0; 
stroke:#000000; stroke-width:118.11; stroke-opacity:1; 
stroke-linecap:round; stroke-linejoin:round;">
<path d="M8717 11431
L8802 11459
L8942 11459
L8998 11431
L9026 11403
L9055 11347
L9055 11290
L9026 11234
L8998 11206
L8942 11178
L8830 11150
L8773 11122
L8745 11093
L8717 11037
L8717 10981
L8745 10925
L8773 10897
L8830 10868
L8970 10868
L9055 10897
" />
<path d="M9561 11431
L9505 11459
L9392 11459
L9336 11431
L9308 11403
L9280 11347
L9280 11178
L9308 11122
L9336 11093
L9392 11065
L9505 11065
L9561 11093
" />
<path d="M9814 11459
L9814 11065
" />
<path d="M9814 11178
L9842 11122
L9870 11093
L9926 11065
L9983 11065
" />
<path d="M10433 11459
L10433 11150
L10404 11093
L10348 11065
L10236 11065
L10179 11093
" />
<path d="M10433 11431
L10376 11459
L10236 11459
L10179 11431
L10151 11375
L10151 11318
L10179 11262
L10236 11234
L10376 11234
L10433 11206
" />
<path d="M10629 11065
L10854 11065
" />
<path d="M10714 10868
L10714 11375
L10742 11431
L10798 11459
L10854 11459
" />
<path d="M11304 11431
L11248 11459
L11136 11459
L11079 11431
L11051 11403
L11023 11347
L11023 11178
L11051 11122
L11079 11093
L11136 11065
L11248 11065
L11304 11093
" />
<path d="M11557 11459
L11557 10868
" />
<path d="M11811 11459
L11811 11150
L11782 11093
L11726 11065
L11642 11065
L11586 11093
L11557 11122
" />
<path d="M12092 11459
L12092 10868
L12232 10868
L12317 10897
L12373 10953
L12401 11009
L12429 11122
L12429 11206
L12401 11318
L12373 11375
L12317 11431
L12232 11459
L12092 11459
" />
<path d="M12935 11065
L12935 11459
" />
<path d="M12682 11065
L12682 11375
L12710 11431
L12767 11459
L12851 11459
L12907 11431
L12935 11403
" />
<path d="M13217 11459
L13217 11065
" />
<path d="M13217 10868
L13188 10897
L13217 10925
L13245 10897
L13217 10868
L13217 10925
" />
<path d="M13498 11065
L13498 11459
" />
<path d="M13498 11122
L13526 11093
L13582 11065
L13667 11065
L13723 11093
L13751 11150
L13751 11459
" />
<path d="M14116 11459
L14060 11431
L14032 11403
L14004 11347
L14004 11178
L14032 11122
L14060 11093
L14116 11065
L14201 11065
L14257 11093
L14285 11122
L14313 11178
L14313 11347
L14285 11403
L14257 11431
L14201 11459
L14116 11459
" />
<path d="M10208 12542
L9926 12542
L9926 11951
" />
<path d="M10404 12232
L10601 12232
" />
<path d="M10686 12542
L10404 12542
L10404 11951
L10686 11951
" />
<path d="M10939 12542
L10939 11951
L11079 11951
L11164 11979
L11220 12035
L11248 12092
L11276 12204
L11276 12289
L11248 12401
L11220 12457
L11164 12514
L11079 12542
L10939 12542
" />
<path d="M12092 11951
L12148 11951
L12204 11979
L12232 12007
L12260 12064
L12289 12176
L12289 12317
L12260 12429
L12232 12485
L12204 12514
L12148 12542
L12092 12542
L12035 12514
L12007 12485
L11979 12429
L11951 12317
L11951 12176
L11979 12064
L12007 12007
L12035 11979
L12092 11951
" />
<path d="M12542 12485
L12570 12514
L12542 12542
L12514 12514
L12542 12485
L12542 12542
" />
<path d="M13076 12148
L13076 12542
" />
<path d="M12935 11923
L12795 12345
L13160 12345
" />
</g>
<g style="fill:#000000; fill-opacity:0.0; 
stroke:#000000; stroke-width:39; stroke-opacity:1; 
stroke-linecap:round; stroke-linejoin:round;">
<path d="M11709 10437
L11309 10437
" />
<path d="M11309 10437
L11309 9837
" />
<path d="M11309 9837
L11709 9837
" />
<path d="M12109 9837
L12509 9837
" />
<path d="M12509 9837
L12509 10437
" />
<path d="M12509 10437
L12109 10437
" />
</g>
<g style="fill:#000000; fill-opacity:0.0; 
stroke:#000000; stroke-width:59.0551; stroke-opacity:1; 
stroke-linecap:round; stroke-linejoin:round;">
<path d="M11122 8070
L11909 8070
" />
<path d="M11122 8464
L11909 8464
" />
<path d="M11515.7 7677.17 A393.701 393.701 0.0 0 0 11122 8070.87 " />
<path d="M11909.4 8070.87 A393.701 393.701 0.0 0 0 11515.7 7677.17 " />
</g>
<g style="fill:#000000; fill-opacity:0.0; 
stroke:#000000; stroke-width:43; stroke-opacity:1; 
stroke-linecap:round; stroke-linejoin:round;">
<path d="M11534 9686
L11469 9592
" />
<path d="M11422 9686
L11422 9489
L11497 9489
L11516 9498
L11525 9508
L11534 9526
L11534 9555
L11525 9573
L11516 9583
L11497 9592
L11422 9592
" />
<path d="M11722 9686
L11609 9686
" />
<path d="M11666 9686
L11666 9489
L11647 9517
L11628 9536
L11609 9545
" />
<path d="M12125 9686
L12012 9686
" />
<path d="M12069 9686
L12069 9489
L12050 9517
L12031 9536
L12012 9545
" />
<path d="M12247 9489
L12266 9489
L12284 9498
L12294 9508
L12303 9526
L12312 9564
L12312 9611
L12303 9648
L12294 9667
L12284 9677
L12266 9686
L12247 9686
L12228 9677
L12219 9667
L12209 9648
L12200 9611
L12200 9564
L12209 9526
L12219 9508
L12228 9498
L12247 9489
" />
<path d="M12434 9489
L12453 9489
L12472 9498
L12481 9508
L12491 9526
L12500 9564
L12500 9611
L12491 9648
L12481 9667
L12472 9677
L12453 9686
L12434 9686
L12416 9677
L12406 9667
L12397 9648
L12388 9611
L12388 9564
L12397 9526
L12406 9508
L12416 9498
L12434 9489
" />
</g>
<g style="fill:#000000; fill-opacity:0.0; 
stroke:#000000; stroke-width:59.0551; stroke-opacity:1; 
stroke-linecap:round; stroke-linejoin:round;">
<path d="M11079 7522
L11079 6931
L11220 6931
L11304 6960
L11361 7016
L11389 7072
L11417 7185
L11417 7269
L11389 7381
L11361 7438
L11304 7494
L11220 7522
L11079 7522
" />
<path d="M11979 7522
L11642 7522
" />
<path d="M11811 7522
L11811 6931
L11754 7016
L11698 7072
L11642 7100
" />
</g> 
</svg>
