G04 (created by PCBNEW (2013-may-18)-stable) date Вт 27 окт 2015 07:26:31*
%MOIN*%
G04 Gerber Fmt 3.4, Leading zero omitted, Abs format*
%FSLAX34Y34*%
G01*
G70*
G90*
G04 APERTURE LIST*
%ADD10C,0.00590551*%
%ADD11C,0.019685*%
G04 APERTURE END LIST*
G54D10*
G54D11*
X52455Y-45053D02*
X51038Y-45053D01*
X52455Y-45053D02*
X52455Y-45250D01*
X46550Y-45250D02*
X56943Y-45250D01*
X56943Y-45250D02*
X56943Y-49777D01*
X56943Y-49777D02*
X46550Y-49777D01*
X46550Y-49777D02*
X46550Y-45250D01*
G54D10*
X52090Y-44659D02*
X52090Y-44265D01*
X51940Y-44265D01*
X51903Y-44284D01*
X51884Y-44303D01*
X51865Y-44340D01*
X51865Y-44396D01*
X51884Y-44434D01*
X51903Y-44453D01*
X51940Y-44471D01*
X52090Y-44471D01*
X51490Y-44659D02*
X51715Y-44659D01*
X51603Y-44659D02*
X51603Y-44265D01*
X51640Y-44321D01*
X51678Y-44359D01*
X51715Y-44378D01*
X52812Y-45259D02*
X52812Y-44865D01*
X52624Y-45259D02*
X52624Y-44865D01*
X52531Y-44865D01*
X52474Y-44884D01*
X52437Y-44921D01*
X52418Y-44959D01*
X52399Y-45034D01*
X52399Y-45090D01*
X52418Y-45165D01*
X52437Y-45203D01*
X52474Y-45240D01*
X52531Y-45259D01*
X52624Y-45259D01*
X52006Y-45221D02*
X52024Y-45240D01*
X52081Y-45259D01*
X52118Y-45259D01*
X52174Y-45240D01*
X52212Y-45203D01*
X52231Y-45165D01*
X52249Y-45090D01*
X52249Y-45034D01*
X52231Y-44959D01*
X52212Y-44921D01*
X52174Y-44884D01*
X52118Y-44865D01*
X52081Y-44865D01*
X52024Y-44884D01*
X52006Y-44903D01*
X51837Y-45109D02*
X51537Y-45109D01*
X51143Y-45259D02*
X51368Y-45259D01*
X51256Y-45259D02*
X51256Y-44865D01*
X51293Y-44921D01*
X51331Y-44959D01*
X51368Y-44978D01*
X50806Y-44996D02*
X50806Y-45259D01*
X50900Y-44846D02*
X50993Y-45128D01*
X50750Y-45128D01*
X54584Y-45700D02*
X54565Y-45662D01*
X54565Y-45606D01*
X54584Y-45550D01*
X54621Y-45512D01*
X54659Y-45493D01*
X54734Y-45475D01*
X54790Y-45475D01*
X54865Y-45493D01*
X54903Y-45512D01*
X54940Y-45550D01*
X54959Y-45606D01*
X54959Y-45643D01*
X54940Y-45700D01*
X54921Y-45718D01*
X54790Y-45718D01*
X54790Y-45643D01*
X54959Y-45887D02*
X54565Y-45887D01*
X54959Y-46112D01*
X54565Y-46112D01*
X54959Y-46299D02*
X54565Y-46299D01*
X54565Y-46393D01*
X54584Y-46449D01*
X54621Y-46487D01*
X54659Y-46506D01*
X54734Y-46524D01*
X54790Y-46524D01*
X54865Y-46506D01*
X54903Y-46487D01*
X54940Y-46449D01*
X54959Y-46393D01*
X54959Y-46299D01*
X54565Y-48587D02*
X54565Y-48831D01*
X54715Y-48700D01*
X54715Y-48756D01*
X54734Y-48793D01*
X54753Y-48812D01*
X54790Y-48831D01*
X54884Y-48831D01*
X54921Y-48812D01*
X54940Y-48793D01*
X54959Y-48756D01*
X54959Y-48643D01*
X54940Y-48606D01*
X54921Y-48587D01*
X54921Y-49000D02*
X54940Y-49018D01*
X54959Y-49000D01*
X54940Y-48981D01*
X54921Y-49000D01*
X54959Y-49000D01*
X54565Y-49149D02*
X54565Y-49393D01*
X54715Y-49262D01*
X54715Y-49318D01*
X54734Y-49356D01*
X54753Y-49374D01*
X54790Y-49393D01*
X54884Y-49393D01*
X54921Y-49374D01*
X54940Y-49356D01*
X54959Y-49318D01*
X54959Y-49206D01*
X54940Y-49168D01*
X54921Y-49149D01*
X53959Y-45784D02*
X53771Y-45653D01*
X53959Y-45559D02*
X53565Y-45559D01*
X53565Y-45709D01*
X53584Y-45746D01*
X53603Y-45765D01*
X53640Y-45784D01*
X53696Y-45784D01*
X53734Y-45765D01*
X53753Y-45746D01*
X53771Y-45709D01*
X53771Y-45559D01*
X53940Y-45934D02*
X53959Y-45990D01*
X53959Y-46084D01*
X53940Y-46121D01*
X53921Y-46140D01*
X53884Y-46159D01*
X53846Y-46159D01*
X53809Y-46140D01*
X53790Y-46121D01*
X53771Y-46084D01*
X53753Y-46009D01*
X53734Y-45971D01*
X53715Y-45953D01*
X53678Y-45934D01*
X53640Y-45934D01*
X53603Y-45953D01*
X53584Y-45971D01*
X53565Y-46009D01*
X53565Y-46103D01*
X53584Y-46159D01*
X53565Y-46271D02*
X53565Y-46496D01*
X53959Y-46384D02*
X53565Y-46384D01*
X53959Y-48709D02*
X53565Y-48709D01*
X53565Y-48803D01*
X53584Y-48859D01*
X53621Y-48896D01*
X53659Y-48915D01*
X53734Y-48934D01*
X53790Y-48934D01*
X53865Y-48915D01*
X53903Y-48896D01*
X53940Y-48859D01*
X53959Y-48803D01*
X53959Y-48709D01*
X53696Y-49271D02*
X53959Y-49271D01*
X53546Y-49178D02*
X53828Y-49084D01*
X53828Y-49328D01*
X52959Y-45521D02*
X52565Y-45521D01*
X52565Y-45615D01*
X52584Y-45671D01*
X52621Y-45709D01*
X52659Y-45728D01*
X52734Y-45746D01*
X52790Y-45746D01*
X52865Y-45728D01*
X52903Y-45709D01*
X52940Y-45671D01*
X52959Y-45615D01*
X52959Y-45521D01*
X52959Y-46121D02*
X52959Y-45896D01*
X52959Y-46009D02*
X52565Y-46009D01*
X52621Y-45971D01*
X52659Y-45934D01*
X52678Y-45896D01*
X52565Y-46253D02*
X52565Y-46496D01*
X52715Y-46365D01*
X52715Y-46421D01*
X52734Y-46459D01*
X52753Y-46478D01*
X52790Y-46496D01*
X52884Y-46496D01*
X52921Y-46478D01*
X52940Y-46459D01*
X52959Y-46421D01*
X52959Y-46309D01*
X52940Y-46271D01*
X52921Y-46253D01*
X52959Y-48709D02*
X52565Y-48709D01*
X52565Y-48803D01*
X52584Y-48859D01*
X52621Y-48896D01*
X52659Y-48915D01*
X52734Y-48934D01*
X52790Y-48934D01*
X52865Y-48915D01*
X52903Y-48896D01*
X52940Y-48859D01*
X52959Y-48803D01*
X52959Y-48709D01*
X52565Y-49290D02*
X52565Y-49103D01*
X52753Y-49084D01*
X52734Y-49103D01*
X52715Y-49140D01*
X52715Y-49234D01*
X52734Y-49271D01*
X52753Y-49290D01*
X52790Y-49309D01*
X52884Y-49309D01*
X52921Y-49290D01*
X52940Y-49271D01*
X52959Y-49234D01*
X52959Y-49140D01*
X52940Y-49103D01*
X52921Y-49084D01*
X51959Y-48709D02*
X51565Y-48709D01*
X51565Y-48803D01*
X51584Y-48859D01*
X51621Y-48896D01*
X51659Y-48915D01*
X51734Y-48934D01*
X51790Y-48934D01*
X51865Y-48915D01*
X51903Y-48896D01*
X51940Y-48859D01*
X51959Y-48803D01*
X51959Y-48709D01*
X51603Y-49084D02*
X51584Y-49103D01*
X51565Y-49140D01*
X51565Y-49234D01*
X51584Y-49271D01*
X51603Y-49290D01*
X51640Y-49309D01*
X51678Y-49309D01*
X51734Y-49290D01*
X51959Y-49065D01*
X51959Y-49309D01*
X51959Y-45709D02*
X51565Y-45709D01*
X51565Y-45803D01*
X51584Y-45859D01*
X51621Y-45896D01*
X51659Y-45915D01*
X51734Y-45934D01*
X51790Y-45934D01*
X51865Y-45915D01*
X51903Y-45896D01*
X51940Y-45859D01*
X51959Y-45803D01*
X51959Y-45709D01*
X51565Y-46065D02*
X51565Y-46309D01*
X51715Y-46178D01*
X51715Y-46234D01*
X51734Y-46271D01*
X51753Y-46290D01*
X51790Y-46309D01*
X51884Y-46309D01*
X51921Y-46290D01*
X51940Y-46271D01*
X51959Y-46234D01*
X51959Y-46121D01*
X51940Y-46084D01*
X51921Y-46065D01*
X50846Y-48718D02*
X50846Y-48906D01*
X50959Y-48681D02*
X50565Y-48812D01*
X50959Y-48943D01*
X50959Y-49281D02*
X50959Y-49056D01*
X50959Y-49168D02*
X50565Y-49168D01*
X50621Y-49131D01*
X50659Y-49093D01*
X50678Y-49056D01*
X50959Y-45709D02*
X50565Y-45709D01*
X50565Y-45803D01*
X50584Y-45859D01*
X50621Y-45896D01*
X50659Y-45915D01*
X50734Y-45934D01*
X50790Y-45934D01*
X50865Y-45915D01*
X50903Y-45896D01*
X50940Y-45859D01*
X50959Y-45803D01*
X50959Y-45709D01*
X50959Y-46309D02*
X50959Y-46084D01*
X50959Y-46196D02*
X50565Y-46196D01*
X50621Y-46159D01*
X50659Y-46121D01*
X50678Y-46084D01*
X49846Y-45718D02*
X49846Y-45906D01*
X49959Y-45681D02*
X49565Y-45812D01*
X49959Y-45943D01*
X49565Y-46149D02*
X49565Y-46187D01*
X49584Y-46224D01*
X49603Y-46243D01*
X49640Y-46262D01*
X49715Y-46281D01*
X49809Y-46281D01*
X49884Y-46262D01*
X49921Y-46243D01*
X49940Y-46224D01*
X49959Y-46187D01*
X49959Y-46149D01*
X49940Y-46112D01*
X49921Y-46093D01*
X49884Y-46074D01*
X49809Y-46056D01*
X49715Y-46056D01*
X49640Y-46074D01*
X49603Y-46093D01*
X49584Y-46112D01*
X49565Y-46149D01*
X48959Y-45934D02*
X48771Y-45803D01*
X48959Y-45709D02*
X48565Y-45709D01*
X48565Y-45859D01*
X48584Y-45896D01*
X48603Y-45915D01*
X48640Y-45934D01*
X48696Y-45934D01*
X48734Y-45915D01*
X48753Y-45896D01*
X48771Y-45859D01*
X48771Y-45709D01*
X48565Y-46065D02*
X48959Y-46328D01*
X48565Y-46328D02*
X48959Y-46065D01*
X49565Y-48700D02*
X49565Y-48925D01*
X49959Y-48812D02*
X49565Y-48812D01*
X49565Y-49018D02*
X49959Y-49281D01*
X49565Y-49281D02*
X49959Y-49018D01*
X48565Y-48475D02*
X48959Y-48606D01*
X48565Y-48737D01*
X48921Y-49093D02*
X48940Y-49074D01*
X48959Y-49018D01*
X48959Y-48981D01*
X48940Y-48925D01*
X48903Y-48887D01*
X48865Y-48868D01*
X48790Y-48850D01*
X48734Y-48850D01*
X48659Y-48868D01*
X48621Y-48887D01*
X48584Y-48925D01*
X48565Y-48981D01*
X48565Y-49018D01*
X48584Y-49074D01*
X48603Y-49093D01*
X48921Y-49487D02*
X48940Y-49468D01*
X48959Y-49412D01*
X48959Y-49374D01*
X48940Y-49318D01*
X48903Y-49281D01*
X48865Y-49262D01*
X48790Y-49243D01*
X48734Y-49243D01*
X48659Y-49262D01*
X48621Y-49281D01*
X48584Y-49318D01*
X48565Y-49374D01*
X48565Y-49412D01*
X48584Y-49468D01*
X48603Y-49487D01*
M02*
