M48
;DRILL file {Pcbnew (2013-may-18)-stable} date Вт 27 окт 2015 07:27:33
;FORMAT={-:-/ absolute / metric / decimal}
FMAT,2
METRIC,TZ
T1C1.100
%
G90
G05
M71
T1
X119.38Y-124.46
X121.92Y-124.46
X123.952Y-119.38
X123.952Y-121.92
X124.46Y-124.46
X126.492Y-119.38
X126.492Y-121.92
X127.Y-115.57
X129.032Y-119.38
X129.032Y-121.92
X129.54Y-115.57
X131.572Y-119.38
X131.572Y-121.92
X132.08Y-115.57
X134.112Y-119.38
X134.112Y-121.92
X136.652Y-119.38
X136.652Y-121.92
X138.43Y-124.46
X139.192Y-119.38
X139.192Y-121.92
X140.97Y-124.46
X143.51Y-124.46
T0
M30
