G04 (created by PCBNEW (2013-may-18)-stable) date Вт 27 окт 2015 07:26:31*
%MOIN*%
G04 Gerber Fmt 3.4, Leading zero omitted, Abs format*
%FSLAX34Y34*%
G01*
G70*
G90*
G04 APERTURE LIST*
%ADD10C,0.00590551*%
%ADD11C,0.0629921*%
%ADD12C,0.019685*%
%ADD13C,0.0393701*%
G04 APERTURE END LIST*
G54D10*
G54D11*
X52800Y-47000D03*
X52800Y-48000D03*
X54800Y-47000D03*
X54800Y-48000D03*
X53800Y-47000D03*
X53800Y-48000D03*
X49800Y-48000D03*
X49800Y-47000D03*
X51800Y-47000D03*
X51800Y-48000D03*
X50800Y-48000D03*
X50800Y-47000D03*
X48800Y-48000D03*
X48800Y-47000D03*
X50000Y-45500D03*
X51000Y-45500D03*
X52000Y-45500D03*
X47000Y-49000D03*
X48000Y-49000D03*
X49000Y-49000D03*
X56500Y-49000D03*
X55500Y-49000D03*
X54500Y-49000D03*
G54D12*
X50800Y-47000D02*
X50800Y-46950D01*
X52000Y-45750D02*
X52000Y-45500D01*
X50800Y-46950D02*
X52000Y-45750D01*
X49000Y-49000D02*
X51250Y-49000D01*
X51250Y-49000D02*
X51800Y-48450D01*
X51800Y-48450D02*
X51800Y-48000D01*
X54500Y-49000D02*
X53250Y-49000D01*
X52800Y-48550D02*
X52800Y-48000D01*
X53250Y-49000D02*
X52800Y-48550D01*
G54D13*
X56500Y-49000D02*
X56500Y-46263D01*
X55905Y-45669D02*
X54419Y-45669D01*
X56500Y-46263D02*
X55905Y-45669D01*
X50000Y-45500D02*
X50000Y-44750D01*
X53000Y-44250D02*
X54000Y-45250D01*
X50500Y-44250D02*
X53000Y-44250D01*
X50000Y-44750D02*
X50500Y-44250D01*
X50000Y-45500D02*
X47500Y-45500D01*
X47000Y-46000D02*
X47000Y-49000D01*
X47500Y-45500D02*
X47000Y-46000D01*
X54800Y-47000D02*
X54800Y-46050D01*
X54800Y-46050D02*
X54419Y-45669D01*
X54419Y-45669D02*
X54000Y-45250D01*
X48800Y-48000D02*
X48000Y-48000D01*
X48000Y-48000D02*
X48050Y-48000D01*
X48050Y-48000D02*
X48000Y-48000D01*
X48000Y-49000D02*
X48000Y-48000D01*
X48000Y-48000D02*
X48000Y-46750D01*
X51000Y-45750D02*
X51000Y-45500D01*
X50500Y-46250D02*
X51000Y-45750D01*
X48500Y-46250D02*
X50500Y-46250D01*
X48000Y-46750D02*
X48500Y-46250D01*
X48500Y-49750D02*
X55000Y-49750D01*
X48000Y-49250D02*
X48500Y-49750D01*
X48000Y-49000D02*
X48000Y-49250D01*
X55500Y-49250D02*
X55500Y-49000D01*
X55000Y-49750D02*
X55500Y-49250D01*
X48000Y-49000D02*
X48000Y-48800D01*
M02*
