G04 (created by PCBNEW (2013-may-18)-stable) date Вт 27 окт 2015 07:26:31*
%MOIN*%
G04 Gerber Fmt 3.4, Leading zero omitted, Abs format*
%FSLAX34Y34*%
G01*
G70*
G90*
G04 APERTURE LIST*
%ADD10C,0.00590551*%
%ADD11C,0.011811*%
%ADD12C,0.00787402*%
%ADD13C,0.00393701*%
G04 APERTURE END LIST*
G54D10*
G54D11*
X50998Y-50479D02*
X50801Y-50479D01*
X50801Y-50789D02*
X50801Y-50198D01*
X51082Y-50198D01*
X51307Y-50789D02*
X51307Y-50395D01*
X51307Y-50507D02*
X51335Y-50451D01*
X51364Y-50423D01*
X51420Y-50395D01*
X51476Y-50395D01*
X51757Y-50789D02*
X51701Y-50760D01*
X51673Y-50732D01*
X51645Y-50676D01*
X51645Y-50507D01*
X51673Y-50451D01*
X51701Y-50423D01*
X51757Y-50395D01*
X51842Y-50395D01*
X51898Y-50423D01*
X51926Y-50451D01*
X51954Y-50507D01*
X51954Y-50676D01*
X51926Y-50732D01*
X51898Y-50760D01*
X51842Y-50789D01*
X51757Y-50789D01*
X52207Y-50395D02*
X52207Y-50789D01*
X52207Y-50451D02*
X52235Y-50423D01*
X52292Y-50395D01*
X52376Y-50395D01*
X52432Y-50423D01*
X52460Y-50479D01*
X52460Y-50789D01*
X52657Y-50395D02*
X52882Y-50395D01*
X52742Y-50198D02*
X52742Y-50704D01*
X52770Y-50760D01*
X52826Y-50789D01*
X52882Y-50789D01*
G54D12*
X49450Y-44759D02*
X49450Y-44365D01*
X49581Y-44646D01*
X49712Y-44365D01*
X49712Y-44759D01*
X50068Y-44759D02*
X50068Y-44553D01*
X50050Y-44515D01*
X50012Y-44496D01*
X49937Y-44496D01*
X49900Y-44515D01*
X50068Y-44740D02*
X50031Y-44759D01*
X49937Y-44759D01*
X49900Y-44740D01*
X49881Y-44703D01*
X49881Y-44665D01*
X49900Y-44628D01*
X49937Y-44609D01*
X50031Y-44609D01*
X50068Y-44590D01*
X50256Y-44496D02*
X50256Y-44759D01*
X50256Y-44534D02*
X50275Y-44515D01*
X50312Y-44496D01*
X50368Y-44496D01*
X50406Y-44515D01*
X50425Y-44553D01*
X50425Y-44759D01*
X50612Y-44759D02*
X50612Y-44496D01*
X50612Y-44365D02*
X50593Y-44384D01*
X50612Y-44403D01*
X50631Y-44384D01*
X50612Y-44365D01*
X50612Y-44403D01*
X50800Y-44496D02*
X50800Y-44890D01*
X50800Y-44515D02*
X50837Y-44496D01*
X50912Y-44496D01*
X50950Y-44515D01*
X50968Y-44534D01*
X50987Y-44571D01*
X50987Y-44684D01*
X50968Y-44721D01*
X50950Y-44740D01*
X50912Y-44759D01*
X50837Y-44759D01*
X50800Y-44740D01*
X51325Y-44496D02*
X51325Y-44759D01*
X51156Y-44496D02*
X51156Y-44703D01*
X51175Y-44740D01*
X51212Y-44759D01*
X51268Y-44759D01*
X51306Y-44740D01*
X51325Y-44721D01*
X51568Y-44759D02*
X51531Y-44740D01*
X51512Y-44703D01*
X51512Y-44365D01*
X51887Y-44759D02*
X51887Y-44553D01*
X51868Y-44515D01*
X51831Y-44496D01*
X51756Y-44496D01*
X51718Y-44515D01*
X51887Y-44740D02*
X51849Y-44759D01*
X51756Y-44759D01*
X51718Y-44740D01*
X51700Y-44703D01*
X51700Y-44665D01*
X51718Y-44628D01*
X51756Y-44609D01*
X51849Y-44609D01*
X51887Y-44590D01*
X52018Y-44496D02*
X52168Y-44496D01*
X52074Y-44365D02*
X52074Y-44703D01*
X52093Y-44740D01*
X52131Y-44759D01*
X52168Y-44759D01*
X52356Y-44759D02*
X52318Y-44740D01*
X52299Y-44721D01*
X52281Y-44684D01*
X52281Y-44571D01*
X52299Y-44534D01*
X52318Y-44515D01*
X52356Y-44496D01*
X52412Y-44496D01*
X52449Y-44515D01*
X52468Y-44534D01*
X52487Y-44571D01*
X52487Y-44684D01*
X52468Y-44721D01*
X52449Y-44740D01*
X52412Y-44759D01*
X52356Y-44759D01*
X52656Y-44759D02*
X52656Y-44496D01*
X52656Y-44571D02*
X52674Y-44534D01*
X52693Y-44515D01*
X52731Y-44496D01*
X52768Y-44496D01*
X53274Y-44365D02*
X53312Y-44365D01*
X53349Y-44384D01*
X53368Y-44403D01*
X53387Y-44440D01*
X53406Y-44515D01*
X53406Y-44609D01*
X53387Y-44684D01*
X53368Y-44721D01*
X53349Y-44740D01*
X53312Y-44759D01*
X53274Y-44759D01*
X53237Y-44740D01*
X53218Y-44721D01*
X53199Y-44684D01*
X53181Y-44609D01*
X53181Y-44515D01*
X53199Y-44440D01*
X53218Y-44403D01*
X53237Y-44384D01*
X53274Y-44365D01*
X53574Y-44721D02*
X53593Y-44740D01*
X53574Y-44759D01*
X53556Y-44740D01*
X53574Y-44721D01*
X53574Y-44759D01*
X53930Y-44496D02*
X53930Y-44759D01*
X53837Y-44346D02*
X53743Y-44628D01*
X53987Y-44628D01*
X49834Y-44190D02*
X49890Y-44209D01*
X49984Y-44209D01*
X50022Y-44190D01*
X50040Y-44171D01*
X50059Y-44134D01*
X50059Y-44096D01*
X50040Y-44059D01*
X50022Y-44040D01*
X49984Y-44021D01*
X49909Y-44003D01*
X49872Y-43984D01*
X49853Y-43965D01*
X49834Y-43928D01*
X49834Y-43890D01*
X49853Y-43853D01*
X49872Y-43834D01*
X49909Y-43815D01*
X50003Y-43815D01*
X50059Y-43834D01*
X50397Y-44190D02*
X50359Y-44209D01*
X50284Y-44209D01*
X50247Y-44190D01*
X50228Y-44171D01*
X50209Y-44134D01*
X50209Y-44021D01*
X50228Y-43984D01*
X50247Y-43965D01*
X50284Y-43946D01*
X50359Y-43946D01*
X50397Y-43965D01*
X50565Y-44209D02*
X50565Y-43946D01*
X50565Y-44021D02*
X50584Y-43984D01*
X50603Y-43965D01*
X50640Y-43946D01*
X50678Y-43946D01*
X50978Y-44209D02*
X50978Y-44003D01*
X50959Y-43965D01*
X50921Y-43946D01*
X50846Y-43946D01*
X50809Y-43965D01*
X50978Y-44190D02*
X50940Y-44209D01*
X50846Y-44209D01*
X50809Y-44190D01*
X50790Y-44153D01*
X50790Y-44115D01*
X50809Y-44078D01*
X50846Y-44059D01*
X50940Y-44059D01*
X50978Y-44040D01*
X51109Y-43946D02*
X51259Y-43946D01*
X51165Y-43815D02*
X51165Y-44153D01*
X51184Y-44190D01*
X51221Y-44209D01*
X51259Y-44209D01*
X51559Y-44190D02*
X51521Y-44209D01*
X51446Y-44209D01*
X51409Y-44190D01*
X51390Y-44171D01*
X51371Y-44134D01*
X51371Y-44021D01*
X51390Y-43984D01*
X51409Y-43965D01*
X51446Y-43946D01*
X51521Y-43946D01*
X51559Y-43965D01*
X51728Y-44209D02*
X51728Y-43815D01*
X51896Y-44209D02*
X51896Y-44003D01*
X51878Y-43965D01*
X51840Y-43946D01*
X51784Y-43946D01*
X51746Y-43965D01*
X51728Y-43984D01*
X52084Y-44209D02*
X52084Y-43815D01*
X52178Y-43815D01*
X52234Y-43834D01*
X52271Y-43871D01*
X52290Y-43909D01*
X52309Y-43984D01*
X52309Y-44040D01*
X52290Y-44115D01*
X52271Y-44153D01*
X52234Y-44190D01*
X52178Y-44209D01*
X52084Y-44209D01*
X52646Y-43946D02*
X52646Y-44209D01*
X52478Y-43946D02*
X52478Y-44153D01*
X52496Y-44190D01*
X52534Y-44209D01*
X52590Y-44209D01*
X52628Y-44190D01*
X52646Y-44171D01*
X52834Y-44209D02*
X52834Y-43946D01*
X52834Y-43815D02*
X52815Y-43834D01*
X52834Y-43853D01*
X52852Y-43834D01*
X52834Y-43815D01*
X52834Y-43853D01*
X53021Y-43946D02*
X53021Y-44209D01*
X53021Y-43984D02*
X53040Y-43965D01*
X53077Y-43946D01*
X53134Y-43946D01*
X53171Y-43965D01*
X53190Y-44003D01*
X53190Y-44209D01*
X53434Y-44209D02*
X53396Y-44190D01*
X53377Y-44171D01*
X53359Y-44134D01*
X53359Y-44021D01*
X53377Y-43984D01*
X53396Y-43965D01*
X53434Y-43946D01*
X53490Y-43946D01*
X53527Y-43965D01*
X53546Y-43984D01*
X53565Y-44021D01*
X53565Y-44134D01*
X53546Y-44171D01*
X53527Y-44190D01*
X53490Y-44209D01*
X53434Y-44209D01*
G54D13*
X49500Y-45000D02*
X52500Y-45000D01*
X52500Y-45000D02*
X52500Y-46000D01*
X52500Y-46000D02*
X49500Y-46000D01*
X49500Y-46000D02*
X49500Y-45000D01*
X46500Y-48500D02*
X49500Y-48500D01*
X49500Y-48500D02*
X49500Y-49500D01*
X49500Y-49500D02*
X46500Y-49500D01*
X46500Y-49500D02*
X46500Y-48500D01*
X57000Y-49500D02*
X54000Y-49500D01*
X54000Y-49500D02*
X54000Y-48500D01*
X54000Y-48500D02*
X57000Y-48500D01*
X57000Y-48500D02*
X57000Y-49500D01*
G54D10*
X51809Y-46459D02*
X51809Y-46065D01*
X51903Y-46065D01*
X51959Y-46084D01*
X51996Y-46121D01*
X52015Y-46159D01*
X52034Y-46234D01*
X52034Y-46290D01*
X52015Y-46365D01*
X51996Y-46403D01*
X51959Y-46440D01*
X51903Y-46459D01*
X51809Y-46459D01*
X52409Y-46459D02*
X52184Y-46459D01*
X52296Y-46459D02*
X52296Y-46065D01*
X52259Y-46121D01*
X52221Y-46159D01*
X52184Y-46178D01*
X49537Y-46440D02*
X49593Y-46459D01*
X49687Y-46459D01*
X49725Y-46440D01*
X49743Y-46421D01*
X49762Y-46384D01*
X49762Y-46346D01*
X49743Y-46309D01*
X49725Y-46290D01*
X49687Y-46271D01*
X49612Y-46253D01*
X49575Y-46234D01*
X49556Y-46215D01*
X49537Y-46178D01*
X49537Y-46140D01*
X49556Y-46103D01*
X49575Y-46084D01*
X49612Y-46065D01*
X49706Y-46065D01*
X49762Y-46084D01*
X49931Y-46253D02*
X50062Y-46253D01*
X50118Y-46459D02*
X49931Y-46459D01*
X49931Y-46065D01*
X50118Y-46065D01*
X50512Y-46459D02*
X50381Y-46271D01*
X50287Y-46459D02*
X50287Y-46065D01*
X50437Y-46065D01*
X50474Y-46084D01*
X50493Y-46103D01*
X50512Y-46140D01*
X50512Y-46196D01*
X50493Y-46234D01*
X50474Y-46253D01*
X50437Y-46271D01*
X50287Y-46271D01*
X50624Y-46065D02*
X50756Y-46459D01*
X50887Y-46065D01*
X51093Y-46065D02*
X51168Y-46065D01*
X51206Y-46084D01*
X51243Y-46121D01*
X51262Y-46196D01*
X51262Y-46328D01*
X51243Y-46403D01*
X51206Y-46440D01*
X51168Y-46459D01*
X51093Y-46459D01*
X51056Y-46440D01*
X51018Y-46403D01*
X50999Y-46328D01*
X50999Y-46196D01*
X51018Y-46121D01*
X51056Y-46084D01*
X51093Y-46065D01*
X48709Y-49959D02*
X48709Y-49565D01*
X48803Y-49565D01*
X48859Y-49584D01*
X48896Y-49621D01*
X48915Y-49659D01*
X48934Y-49734D01*
X48934Y-49790D01*
X48915Y-49865D01*
X48896Y-49903D01*
X48859Y-49940D01*
X48803Y-49959D01*
X48709Y-49959D01*
X49084Y-49603D02*
X49103Y-49584D01*
X49140Y-49565D01*
X49234Y-49565D01*
X49271Y-49584D01*
X49290Y-49603D01*
X49309Y-49640D01*
X49309Y-49678D01*
X49290Y-49734D01*
X49065Y-49959D01*
X49309Y-49959D01*
X46537Y-49940D02*
X46593Y-49959D01*
X46687Y-49959D01*
X46725Y-49940D01*
X46743Y-49921D01*
X46762Y-49884D01*
X46762Y-49846D01*
X46743Y-49809D01*
X46725Y-49790D01*
X46687Y-49771D01*
X46612Y-49753D01*
X46575Y-49734D01*
X46556Y-49715D01*
X46537Y-49678D01*
X46537Y-49640D01*
X46556Y-49603D01*
X46575Y-49584D01*
X46612Y-49565D01*
X46706Y-49565D01*
X46762Y-49584D01*
X46931Y-49753D02*
X47062Y-49753D01*
X47118Y-49959D02*
X46931Y-49959D01*
X46931Y-49565D01*
X47118Y-49565D01*
X47512Y-49959D02*
X47381Y-49771D01*
X47287Y-49959D02*
X47287Y-49565D01*
X47437Y-49565D01*
X47474Y-49584D01*
X47493Y-49603D01*
X47512Y-49640D01*
X47512Y-49696D01*
X47493Y-49734D01*
X47474Y-49753D01*
X47437Y-49771D01*
X47287Y-49771D01*
X47624Y-49565D02*
X47756Y-49959D01*
X47887Y-49565D01*
X48093Y-49565D02*
X48168Y-49565D01*
X48206Y-49584D01*
X48243Y-49621D01*
X48262Y-49696D01*
X48262Y-49828D01*
X48243Y-49903D01*
X48206Y-49940D01*
X48168Y-49959D01*
X48093Y-49959D01*
X48056Y-49940D01*
X48018Y-49903D01*
X47999Y-49828D01*
X47999Y-49696D01*
X48018Y-49621D01*
X48056Y-49584D01*
X48093Y-49565D01*
X56209Y-49959D02*
X56209Y-49565D01*
X56303Y-49565D01*
X56359Y-49584D01*
X56396Y-49621D01*
X56415Y-49659D01*
X56434Y-49734D01*
X56434Y-49790D01*
X56415Y-49865D01*
X56396Y-49903D01*
X56359Y-49940D01*
X56303Y-49959D01*
X56209Y-49959D01*
X56565Y-49565D02*
X56809Y-49565D01*
X56678Y-49715D01*
X56734Y-49715D01*
X56771Y-49734D01*
X56790Y-49753D01*
X56809Y-49790D01*
X56809Y-49884D01*
X56790Y-49921D01*
X56771Y-49940D01*
X56734Y-49959D01*
X56621Y-49959D01*
X56584Y-49940D01*
X56565Y-49921D01*
X54137Y-49940D02*
X54193Y-49959D01*
X54287Y-49959D01*
X54325Y-49940D01*
X54343Y-49921D01*
X54362Y-49884D01*
X54362Y-49846D01*
X54343Y-49809D01*
X54325Y-49790D01*
X54287Y-49771D01*
X54212Y-49753D01*
X54175Y-49734D01*
X54156Y-49715D01*
X54137Y-49678D01*
X54137Y-49640D01*
X54156Y-49603D01*
X54175Y-49584D01*
X54212Y-49565D01*
X54306Y-49565D01*
X54362Y-49584D01*
X54531Y-49753D02*
X54662Y-49753D01*
X54718Y-49959D02*
X54531Y-49959D01*
X54531Y-49565D01*
X54718Y-49565D01*
X55112Y-49959D02*
X54981Y-49771D01*
X54887Y-49959D02*
X54887Y-49565D01*
X55037Y-49565D01*
X55074Y-49584D01*
X55093Y-49603D01*
X55112Y-49640D01*
X55112Y-49696D01*
X55093Y-49734D01*
X55074Y-49753D01*
X55037Y-49771D01*
X54887Y-49771D01*
X55224Y-49565D02*
X55356Y-49959D01*
X55487Y-49565D01*
X55693Y-49565D02*
X55768Y-49565D01*
X55806Y-49584D01*
X55843Y-49621D01*
X55862Y-49696D01*
X55862Y-49828D01*
X55843Y-49903D01*
X55806Y-49940D01*
X55768Y-49959D01*
X55693Y-49959D01*
X55656Y-49940D01*
X55618Y-49903D01*
X55599Y-49828D01*
X55599Y-49696D01*
X55618Y-49621D01*
X55656Y-49584D01*
X55693Y-49565D01*
M02*
