<?xml version="1.0" standalone="no"?>
 <!DOCTYPE svg PUBLIC "-//W3C//DTD SVG 1.1//EN" 
 "http://www.w3.org/Graphics/SVG/1.1/DTD/svg11.dtd"> 
<svg xmlns="http://www.w3.org/2000/svg" version="1.1" 
    width="41.9989cm" height="29.7002cm" viewBox="0 0 165350 116930 ">
<title>SVG Picture created as TouchSensor-B_SilkS.svg date 2015/10/27 03:11:51 </title>
  <desc>Picture generated by PCBNEW </desc>
<g style="fill:#000000; fill-opacity:1;stroke:#000000; stroke-opacity:1;
stroke-linecap:round; stroke-linejoin:round; "
 transform="translate(0 0) scale(1 1)">
</g>
<g style="fill:#000000; fill-opacity:0.0; 
stroke:#000000; stroke-width:39.3701; stroke-opacity:1; 
stroke-linecap:round; stroke-linejoin:round;">
<path d="M16141 11811
L15944 11811
" />
<path d="M15944 11811
L15944 14566
" />
<path d="M15944 5905
L15944 8661
" />
<path d="M15944 8661
L16141 8661
" />
<path d="M7086 8661
L7283 8661
" />
<path d="M7283 8661
L7283 5905
" />
<path d="M7086 11811
L7283 11811
" />
<path d="M7283 11811
L7283 12598
" />
<path d="M17716.5 10236.2 A1574.8 1574.8 0.0 0 0 16141.7 8661.42 " />
<path d="M16141.7 11811 A1574.8 1574.8 0.0 0 0 17716.5 10236.2 " />
<path d="M7086.61 8661.42 A1574.8 1574.8 0.0 0 0 5511.81 10236.2 " />
<path d="M5511.81 10236.2 A1574.8 1574.8 0.0 0 0 7086.61 11811 " />
<circle cx="7086.61" cy="10236.2" r="590.551" /> 
<circle cx="16141.7" cy="10236.2" r="590.551" /> 
<path d="M7283 12598
L7283 12795
" />
<path d="M7283 12795
L9055 14566
" />
<path d="M9055 14566
L15944 14566
" />
<path d="M15944 5905
L7283 5905
" />
</g>
<g style="fill:#000000; fill-opacity:0.0; 
stroke:#000000; stroke-width:59.0551; stroke-opacity:1; 
stroke-linecap:round; stroke-linejoin:round;">
<path d="M14552 6618
L14552 6224
L14458 6224
L14402 6243
L14364 6280
L14345 6318
L14327 6393
L14327 6449
L14345 6524
L14364 6561
L14402 6599
L14458 6618
L14552 6618
" />
<path d="M14158 6618
L14158 6224
" />
<path d="M13764 6243
L13802 6224
L13858 6224
L13914 6243
L13952 6280
L13970 6318
L13989 6393
L13989 6449
L13970 6524
L13952 6561
L13914 6599
L13858 6618
L13820 6618
L13764 6599
L13745 6580
L13745 6449
L13820 6449
" />
<path d="M13577 6618
L13577 6224
" />
<path d="M13446 6224
L13221 6224
" />
<path d="M13333 6618
L13333 6224
" />
<path d="M13108 6505
L12921 6505
" />
<path d="M13146 6618
L13014 6224
L12883 6618
" />
<path d="M12564 6618
L12752 6618
L12752 6224
" />
<path d="M10111 6224
L9980 6618
L9849 6224
" />
<path d="M9492 6580
L9511 6599
L9567 6618
L9605 6618
L9661 6599
L9699 6561
L9717 6524
L9736 6449
L9736 6393
L9717 6318
L9699 6280
L9661 6243
L9605 6224
L9567 6224
L9511 6243
L9492 6261
" />
<path d="M9099 6580
L9117 6599
L9174 6618
L9211 6618
L9267 6599
L9305 6561
L9324 6524
L9342 6449
L9342 6393
L9324 6318
L9305 6280
L9267 6243
L9211 6224
L9174 6224
L9117 6243
L9099 6261
" />
<path d="M14617 14005
L14430 14005
" />
<path d="M14655 14118
L14523 13724
L14392 14118
" />
<path d="M14261 14118
L14261 13724
L14036 14118
L14036 13724
" />
<path d="M13867 14005
L13680 14005
" />
<path d="M13905 14118
L13774 13724
L13642 14118
" />
<path d="M13324 14118
L13511 14118
L13511 13724
" />
<path d="M13117 13724
L13042 13724
L13005 13743
L12967 13780
L12949 13855
L12949 13986
L12967 14061
L13005 14099
L13042 14118
L13117 14118
L13155 14099
L13192 14061
L13211 13986
L13211 13855
L13192 13780
L13155 13743
L13117 13724
" />
<path d="M12574 13743
L12611 13724
L12667 13724
L12724 13743
L12761 13780
L12780 13818
L12799 13893
L12799 13949
L12780 14024
L12761 14061
L12724 14099
L12667 14118
L12630 14118
L12574 14099
L12555 14080
L12555 13949
L12630 13949
" />
</g>
<g style="fill:#000000; fill-opacity:0.0; 
stroke:#000000; stroke-width:49.2126; stroke-opacity:1; 
stroke-linecap:round; stroke-linejoin:round;">
<path d="M9886 13743
L9924 13724
L9980 13724
L10036 13743
L10074 13780
L10092 13818
L10111 13893
L10111 13949
L10092 14024
L10074 14061
L10036 14099
L9980 14118
L9942 14118
L9886 14099
L9867 14080
L9867 13949
L9942 13949
" />
<path d="M9699 14118
L9699 13724
L9474 14118
L9474 13724
" />
<path d="M9286 14118
L9286 13724
L9192 13724
L9136 13743
L9099 13780
L9080 13818
L9061 13893
L9061 13949
L9080 14024
L9099 14061
L9136 14099
L9192 14118
L9286 14118
" />
</g> 
</svg>
