<?xml version="1.0" standalone="no"?>
 <!DOCTYPE svg PUBLIC "-//W3C//DTD SVG 1.1//EN" 
 "http://www.w3.org/Graphics/SVG/1.1/DTD/svg11.dtd"> 
<svg xmlns="http://www.w3.org/2000/svg" version="1.1" 
    width="41.9989cm" height="29.7002cm" viewBox="0 0 165350 116930 ">
<title>SVG Picture created as TouchSensor-Edge_Cuts.svg date 2015/10/27 03:11:51 </title>
  <desc>Picture generated by PCBNEW </desc>
<g style="fill:#000000; fill-opacity:1;stroke:#000000; stroke-opacity:1;
stroke-linecap:round; stroke-linejoin:round; "
 transform="translate(0 0) scale(1 1)">
</g>
<g style="fill:#000000; fill-opacity:0.0; 
stroke:#000000; stroke-width:59.0551; stroke-opacity:1; 
stroke-linecap:round; stroke-linejoin:round;">
<path d="M14370 28543
L14370 14566
" />
<path d="M8858 28543
L8858 14370
" />
<path d="M8464 32086
L14763 32086
" />
<path d="M8858 28543
L8464 28937
" />
<path d="M14370 28543
L14763 28937
" />
<path d="M14763.8 32086.6 A1574.8 1574.8 0.0 0 0 16338.6 30511.8 " />
<path d="M16338.6 30511.8 A1574.8 1574.8 0.0 0 0 14763.8 28937 " />
<path d="M6889.76 30511.8 A1574.8 1574.8 0.0 0 0 8464.57 32086.6 " />
<path d="M8464.57 28937 A1574.8 1574.8 0.0 0 0 6889.76 30511.8 " />
<path d="M8853 14356
L7278 12781
" />
<path d="M7278 11797
L7278 12781
" />
<path d="M7081 11797
L7278 11797
" />
<path d="M15940 14553
L14365 14553
" />
<path d="M15940 11797
L15940 14553
" />
<path d="M16176 11797
L15940 11797
" />
<path d="M15940 8647
L16137 8647
" />
<path d="M15940 5891
L15940 8647
" />
<path d="M7278 5891
L15940 5891
" />
<path d="M7278 8647
L7278 5891
" />
<path d="M7042 8647
L7278 8647
" />
<path d="M17711.8 10222.5 A1574.8 1574.8 0.0 0 0 16137 8647.72 " />
<path d="M16175.5 11797.3 A1575.29 1575.29 0.0 0 0 17711.8 10184 " />
<path d="M7043.4 8647.7 A1575.29 1575.29 0.0 0 0 5507.07 10261 " />
<path d="M5507.09 10222.5 A1574.8 1574.8 0.0 0 0 7081.89 11797.3 " />
</g> 
</svg>
