<?xml version="1.0" standalone="no"?>
 <!DOCTYPE svg PUBLIC "-//W3C//DTD SVG 1.1//EN" 
 "http://www.w3.org/Graphics/SVG/1.1/DTD/svg11.dtd"> 
<svg xmlns="http://www.w3.org/2000/svg" version="1.1" 
    width="41.9989cm" height="29.7002cm" viewBox="0 0 165350 116930 ">
<title>SVG Picture created as TouchSensor-F_Cu.svg date 2015/10/27 03:11:51 </title>
  <desc>Picture generated by PCBNEW </desc>
<g style="fill:#000000; fill-opacity:1;stroke:#000000; stroke-opacity:1;
stroke-linecap:round; stroke-linejoin:round; "
 transform="translate(0 0) scale(1 1)">
</g>
<g style="fill:#000000; fill-opacity:0.0; 
stroke:#000000; stroke-width:39.3701; stroke-opacity:1; 
stroke-linecap:round; stroke-linejoin:round;">
</g>
<g style="fill:#000000; fill-opacity:1.0; 
stroke:#000000; stroke-width:39.3701; stroke-opacity:1; 
stroke-linecap:round; stroke-linejoin:round;">
<circle cx="7086.61" cy="10236.2" r="590.551" /> 
<circle cx="16141.7" cy="10236.2" r="590.551" /> 
<polyline style="fill-rule:evenodd;"
points="10492,25807
10492,26397
9862,26397
9862,25807
10492,25807
" /> 
<polyline style="fill-rule:evenodd;"
points="11062,24232
11062,25177
10433,25177
10433,24232
11062,24232
" /> 
<polyline style="fill-rule:evenodd;"
points="12795,24232
12795,25177
12165,25177
12165,24232
12795,24232
" /> 
<polyline style="fill-rule:evenodd;"
points="13366,25807
13366,26397
12736,26397
12736,25807
13366,25807
" /> 
<circle cx="9645.67" cy="24212.6" r="275.591" /> 
<circle cx="13582.7" cy="24212.6" r="275.591" /> 
</g>
<g style="fill:#000000; fill-opacity:1.0; 
stroke:#000000; stroke-width:196.85; stroke-opacity:1; 
stroke-linecap:round; stroke-linejoin:round;">
<path d="M10748 24704
L10137 24704
" />
<path d="M10137 24704
L9645 24212
" />
<path d="M12480 24704
L13090 24704
" />
<path d="M13090 24704
L13582 24212
" />
<path d="M10177 26102
L10177 27893
" />
<path d="M13051 27893
L13051 26102
" />
<path d="M12992 27952
L13051 27893
" />
<path d="M10236 27952
L12992 27952
" />
<path d="M10177 27893
L10236 27952
" />
</g>
<g style="fill:#000000; fill-opacity:1.0; 
stroke:#000000; stroke-width:39.3701; stroke-opacity:1; 
stroke-linecap:round; stroke-linejoin:round;">
<polyline style="fill-rule:evenodd;"
points="15320,13933
14365,13933
14128,13980
13926,14114
13792,14315
13745,14553
13750,14576
13750,23326
13407,23326
13168,23425
10059,23425
9822,23326
9478,23326
9478,14370
9431,14132
9428,14128
9426,14119
9292,13917
7898,12524
7898,11867
8661,11105
8661,9367
7898,8604
7898,6511
15320,6511
15320,8614
14566,9367
14566,11105
15320,11858
15320,13933
" /> 
</g>
<g style="fill:#000000; fill-opacity:0.0; 
stroke:#000000; stroke-width:393.701; stroke-opacity:1; 
stroke-linecap:round; stroke-linejoin:round;">
<polyline fill="none;"
points="15320,13933
14365,13933
14128,13980
13926,14114
13792,14315
13745,14553
13750,14576
13750,23326
13407,23326
13168,23425
10059,23425
9822,23326
9478,23326
9478,14370
9431,14132
9428,14128
9426,14119
9292,13917
7898,12524
7898,11867
8661,11105
8661,9367
7898,8604
7898,6511
15320,6511
15320,8614
14566,9367
14566,11105
15320,11858
15320,13933
" /> 
</g>
<g style="fill:#000000; fill-opacity:1.0; 
stroke:#000000; stroke-width:39.3701; stroke-opacity:1; 
stroke-linecap:round; stroke-linejoin:round;">
<polyline style="fill-rule:evenodd;"
points="13820,28814
12992,29642
12992,31466
10236,31466
10236,29642
9408,28814
9431,28780
9431,28780
9478,28543
9478,28543
9478,26888
9508,26918
9725,27007
9990,27007
10137,26860
10137,26141
10129,26141
10129,26062
10137,26062
10137,26055
10216,26055
10216,26062
10224,26062
10224,26141
10216,26141
10216,26860
10364,27007
10628,27007
10845,26918
10872,26892
10929,27031
11156,27258
11452,27381
11774,27382
12070,27259
12297,27032
12356,26892
12382,26918
12599,27007
12864,27007
13011,26860
13011,26141
13003,26141
13003,26062
13011,26062
13011,26055
13090,26055
13090,26062
13098,26062
13098,26141
13090,26141
13090,26860
13238,27007
13502,27007
13719,26918
13750,26888
13750,28543
13797,28780
13820,28814
" /> 
</g>
<g style="fill:#000000; fill-opacity:0.0; 
stroke:#000000; stroke-width:393.701; stroke-opacity:1; 
stroke-linecap:round; stroke-linejoin:round;">
<polyline fill="none;"
points="13820,28814
12992,29642
12992,31466
10236,31466
10236,29642
9408,28814
9431,28780
9431,28780
9478,28543
9478,28543
9478,26888
9508,26918
9725,27007
9990,27007
10137,26860
10137,26141
10129,26141
10129,26062
10137,26062
10137,26055
10216,26055
10216,26062
10224,26062
10224,26141
10216,26141
10216,26860
10364,27007
10628,27007
10845,26918
10872,26892
10929,27031
11156,27258
11452,27381
11774,27382
12070,27259
12297,27032
12356,26892
12382,26918
12599,27007
12864,27007
13011,26860
13011,26141
13003,26141
13003,26062
13011,26062
13011,26055
13090,26055
13090,26062
13098,26062
13098,26141
13090,26141
13090,26860
13238,27007
13502,27007
13719,26918
13750,26888
13750,28543
13797,28780
13820,28814
" /> 
</g> 
</svg>
