<?xml version="1.0" standalone="no"?>
 <!DOCTYPE svg PUBLIC "-//W3C//DTD SVG 1.1//EN" 
 "http://www.w3.org/Graphics/SVG/1.1/DTD/svg11.dtd"> 
<svg xmlns="http://www.w3.org/2000/svg" version="1.1" 
    width="41.9989cm" height="29.7002cm" viewBox="0 0 165350 116930 ">
<title>SVG Picture created as TouchSensor-F_SilkS.svg date 2015/10/27 03:11:51 </title>
  <desc>Picture generated by PCBNEW </desc>
<g style="fill:#000000; fill-opacity:1;stroke:#000000; stroke-opacity:1;
stroke-linecap:round; stroke-linejoin:round; "
 transform="translate(0 0) scale(1 1)">
</g>
<g style="fill:#000000; fill-opacity:0.0; 
stroke:#000000; stroke-width:78.7402; stroke-opacity:1; 
stroke-linecap:round; stroke-linejoin:round;">
<path d="M10236 27854
L13188 27854
" />
<circle cx="8464.57" cy="30511.8" r="630.229" /> 
<circle cx="14763.8" cy="30511.8" r="630.229" /> 
</g>
<g style="fill:#000000; fill-opacity:0.0; 
stroke:#000000; stroke-width:118.11; stroke-opacity:1; 
stroke-linecap:round; stroke-linejoin:round;">
<path d="M12523 23068
L12523 22619
" />
<path d="M13310 22844
L12523 22844
" />
<path d="M13310 22244
L13273 22319
L13235 22356
L13160 22394
L12935 22394
L12860 22356
L12823 22319
L12785 22244
L12785 22131
L12823 22056
L12860 22019
L12935 21981
L13160 21981
L13235 22019
L13273 22056
L13310 22131
L13310 22244
" />
<path d="M12785 21306
L13310 21306
" />
<path d="M12785 21644
L13198 21644
L13273 21606
L13310 21531
L13310 21419
L13273 21344
L13235 21306
" />
<path d="M13273 20594
L13310 20669
L13310 20819
L13273 20894
L13235 20931
L13160 20969
L12935 20969
L12860 20931
L12823 20894
L12785 20819
L12785 20669
L12823 20594
" />
<path d="M13310 20256
L12523 20256
" />
<path d="M13310 19919
L12898 19919
L12823 19956
L12785 20031
L12785 20144
L12823 20219
L12860 20256
" />
<path d="M13273 18982
L13310 18869
L13310 18682
L13273 18607
L13235 18569
L13160 18532
L13085 18532
L13010 18569
L12973 18607
L12935 18682
L12898 18832
L12860 18907
L12823 18944
L12748 18982
L12673 18982
L12598 18944
L12560 18907
L12523 18832
L12523 18644
L12560 18532
" />
<path d="M13273 17894
L13310 17969
L13310 18119
L13273 18194
L13198 18232
L12898 18232
L12823 18194
L12785 18119
L12785 17969
L12823 17894
L12898 17857
L12973 17857
L13048 18232
" />
<path d="M12785 17519
L13310 17519
" />
<path d="M12860 17519
L12823 17482
L12785 17407
L12785 17294
L12823 17219
L12898 17182
L13310 17182
" />
<path d="M13273 16844
L13310 16769
L13310 16619
L13273 16544
L13198 16507
L13160 16507
L13085 16544
L13048 16619
L13048 16732
L13010 16807
L12935 16844
L12898 16844
L12823 16807
L12785 16732
L12785 16619
L12823 16544
" />
<path d="M13310 16057
L13273 16132
L13235 16169
L13160 16207
L12935 16207
L12860 16169
L12823 16132
L12785 16057
L12785 15944
L12823 15869
L12860 15832
L12935 15794
L13160 15794
L13235 15832
L13273 15869
L13310 15944
L13310 16057
" />
<path d="M13310 15457
L12785 15457
" />
<path d="M12935 15457
L12860 15419
L12823 15382
L12785 15307
L12785 15232
" />
<path d="M12523 14220
L12523 14145
L12560 14070
L12598 14032
L12673 13995
L12823 13957
L13010 13957
L13160 13995
L13235 14032
L13273 14070
L13310 14145
L13310 14220
L13273 14295
L13235 14332
L13160 14370
L13010 14407
L12823 14407
L12673 14370
L12598 14332
L12560 14295
L12523 14220
" />
<path d="M13235 13620
L13273 13582
L13310 13620
L13273 13657
L13235 13620
L13310 13620
" />
<path d="M12785 12907
L13310 12907
" />
<path d="M12485 13095
L13048 13282
L13048 12795
" />
<path d="M10714 23022
L10751 22909
L10751 22722
L10714 22647
L10676 22609
L10601 22572
L10526 22572
L10451 22609
L10414 22647
L10376 22722
L10339 22872
L10301 22947
L10264 22984
L10189 23022
L10114 23022
L10039 22984
L10001 22947
L9964 22872
L9964 22684
L10001 22572
" />
<path d="M10714 21897
L10751 21972
L10751 22122
L10714 22197
L10676 22234
L10601 22272
L10376 22272
L10301 22234
L10264 22197
L10226 22122
L10226 21972
L10264 21897
" />
<path d="M10751 21559
L10226 21559
" />
<path d="M10376 21559
L10301 21522
L10264 21484
L10226 21409
L10226 21334
" />
<path d="M10751 20734
L10339 20734
L10264 20772
L10226 20847
L10226 20997
L10264 21072
" />
<path d="M10714 20734
L10751 20809
L10751 20997
L10714 21072
L10639 21109
L10564 21109
L10489 21072
L10451 20997
L10451 20809
L10414 20734
" />
<path d="M10226 20472
L10226 20172
" />
<path d="M9964 20359
L10639 20359
L10714 20322
L10751 20247
L10751 20172
" />
<path d="M10714 19572
L10751 19647
L10751 19797
L10714 19872
L10676 19910
L10601 19947
L10376 19947
L10301 19910
L10264 19872
L10226 19797
L10226 19647
L10264 19572
" />
<path d="M10751 19235
L9964 19235
" />
<path d="M10751 18897
L10339 18897
L10264 18935
L10226 19010
L10226 19122
L10264 19197
L10301 19235
" />
<path d="M10751 18522
L9964 18522
L9964 18335
L10001 18222
L10076 18147
L10151 18110
L10301 18072
L10414 18072
L10564 18110
L10639 18147
L10714 18222
L10751 18335
L10751 18522
" />
<path d="M10226 17397
L10751 17397
" />
<path d="M10226 17735
L10639 17735
L10714 17697
L10751 17622
L10751 17510
L10714 17435
L10676 17397
" />
<path d="M10751 17022
L10226 17022
" />
<path d="M9964 17022
L10001 17060
L10039 17022
L10001 16985
L9964 17022
L10039 17022
" />
<path d="M10226 16647
L10751 16647
" />
<path d="M10301 16647
L10264 16610
L10226 16535
L10226 16422
L10264 16347
L10339 16310
L10751 16310
" />
<path d="M10751 15823
L10714 15898
L10676 15935
L10601 15973
L10376 15973
L10301 15935
L10264 15898
L10226 15823
L10226 15710
L10264 15635
L10301 15598
L10376 15560
L10601 15560
L10676 15598
L10714 15635
L10751 15710
L10751 15823
" />
</g>
<g style="fill:#000000; fill-opacity:0.0; 
stroke:#000000; stroke-width:59.0551; stroke-opacity:1; 
stroke-linecap:round; stroke-linejoin:round;">
</g> 
</svg>
