<?xml version="1.0" standalone="no"?>
 <!DOCTYPE svg PUBLIC "-//W3C//DTD SVG 1.1//EN" 
 "http://www.w3.org/Graphics/SVG/1.1/DTD/svg11.dtd"> 
<svg xmlns="http://www.w3.org/2000/svg" version="1.1" 
    width="41.9989cm" height="29.7002cm" viewBox="0 0 165350 116930 ">
<title>SVG Picture created as TouchSensor-Edge_Cuts.svg date 2015/10/13 20:07:05 </title>
  <desc>Picture generated by PCBNEW </desc>
<g style="fill:#000000; fill-opacity:1;stroke:#000000; stroke-opacity:1;
stroke-linecap:round; stroke-linejoin:round; "
 transform="translate(0 0) scale(1 1)">
</g>
<g style="fill:#000000; fill-opacity:0.0; 
stroke:#000000; stroke-width:59.0551; stroke-opacity:1; 
stroke-linecap:round; stroke-linejoin:round;">
<path d="M16090.6 11354.7 A1575.29 1575.29 0.0 0 0 17704 9818.41 " />
<path d="M8845 14110
L8845 13913
" />
<path d="M14357 14504
L14357 14110
" />
<path d="M14357 14504
L14357 27102
" />
<path d="M8845 27102
L8845 14110
" />
<path d="M8058 27890
L8845 27102
" />
<path d="M15144 27890
L14357 27102
" />
<path d="M15144 31433
L15144 27890
" />
<path d="M8058 31433
L8058 27890
" />
<path d="M14357 32220
L15144 31433
" />
<path d="M8845 32220
L8058 31433
" />
<path d="M8845 32220
L14357 32220
" />
<path d="M7270 12338
L8845 13913
" />
<path d="M7270 11354
L7270 12338
" />
<path d="M7113 11354
L7270 11354
" />
<path d="M15932 14110
L14357 14110
" />
<path d="M15932 11354
L15932 14110
" />
<path d="M16089 11354
L15932 11354
" />
<path d="M15932 8205
L16207 8205
" />
<path d="M15932 5449
L15932 8205
" />
<path d="M7270 5449
L15932 5449
" />
<path d="M7270 8205
L7270 5449
" />
<path d="M6995 8205
L7270 8205
" />
<path d="M17703.9 9859.69 A1576.77 1576.77 0.0 0 0 16208.9 8205.17 " />
<path d="M5499.19 9818.41 A1575.29 1575.29 0.0 0 0 7112.5 11354.7 " />
<path d="M6994.24 8205.17 A1576.77 1576.77 0.0 0 0 5499.26 9859.69 " />
</g> 
</svg>
