M48
;DRILL file {Pcbnew (2013-may-18)-stable} date Вт 27 окт 2015 07:17:42
;FORMAT={-:-/ absolute / metric / decimal}
FMAT,2
METRIC,TZ
T1C0.800
T2C1.000
T3C1.100
%
G90
G05
M71
T1
X116.995Y-61.085
X116.995Y-63.625
X116.995Y-66.165
X116.995Y-68.705
X116.995Y-71.245
X116.995Y-73.785
X116.995Y-76.325
X116.995Y-78.865
X116.995Y-81.405
X116.995Y-83.945
X116.995Y-86.485
X116.995Y-89.025
X116.995Y-91.565
X116.995Y-94.105
X116.995Y-96.645
X116.995Y-99.185
X116.995Y-101.725
X122.075Y-61.085
X122.075Y-63.625
X122.075Y-66.165
X122.075Y-68.705
X122.075Y-71.245
X122.075Y-73.785
X122.075Y-76.325
X122.075Y-78.865
X122.075Y-81.405
X122.075Y-83.945
X122.075Y-86.485
X122.075Y-89.025
X122.075Y-91.565
X122.075Y-94.105
X122.075Y-96.645
X122.075Y-99.185
X122.075Y-101.725
X134.525Y-70.58
X134.525Y-92.17
X137.065Y-70.58
X137.065Y-92.17
X170.275Y-69.12
X172.815Y-69.12
T2
X62.23Y-69.85
X82.296Y-109.22
X82.55Y-34.925
X83.82Y-73.66
X86.36Y-90.17
X86.995Y-69.85
X86.995Y-81.28
X87.63Y-99.06
X90.17Y-59.69
X91.44Y-121.285
X93.345Y-40.64
X93.345Y-111.125
X94.234Y-101.727
X95.885Y-81.28
X95.885Y-83.185
X95.885Y-103.505
X96.139Y-88.011
X99.06Y-97.155
X100.965Y-92.71
X100.965Y-95.25
X102.235Y-76.327
X102.235Y-103.505
X102.235Y-108.585
X107.95Y-58.42
X107.95Y-87.63
X108.585Y-104.14
X109.855Y-78.74
X111.76Y-50.8
X113.03Y-78.74
X113.665Y-41.91
X113.665Y-45.085
X113.665Y-113.665
X114.Y-117.
X114.Y-120.
X114.935Y-48.26
X116.84Y-58.42
X117.475Y-104.775
X120.015Y-104.775
X121.285Y-50.8
X126.619Y-76.2
X126.619Y-103.759
X127.Y-66.675
X128.27Y-87.63
X128.27Y-92.075
X130.Y-106.
X130.81Y-67.31
X130.81Y-72.39
X130.81Y-87.63
X131.445Y-69.85
X132.588Y-89.027
X132.715Y-98.425
X135.255Y-76.2
X135.255Y-86.36
X141.605Y-74.295
X141.605Y-88.265
X144.145Y-74.295
X144.145Y-88.265
X148.59Y-69.215
X150.495Y-52.705
X150.876Y-117.856
X153.035Y-42.545
X156.845Y-50.165
X156.845Y-113.03
X158.75Y-95.885
X161.29Y-45.72
X163.195Y-46.99
X165.735Y-72.39
X165.735Y-104.14
X166.37Y-121.92
X167.64Y-58.42
X168.91Y-77.47
X176.53Y-127.635
T3
X90.17Y-73.66
X90.17Y-76.2
X90.17Y-78.74
X90.17Y-81.28
X90.17Y-83.82
X90.17Y-86.36
X90.17Y-88.9
X92.71Y-73.66
X92.71Y-76.2
X92.71Y-78.74
X92.71Y-81.28
X92.71Y-83.82
X92.71Y-86.36
X92.71Y-88.9
T0
M30
