G04 (created by PCBNEW (2013-may-18)-stable) date Вт 27 окт 2015 00:10:55*
%MOIN*%
G04 Gerber Fmt 3.4, Leading zero omitted, Abs format*
%FSLAX34Y34*%
G01*
G70*
G90*
G04 APERTURE LIST*
%ADD10C,0.00393701*%
%ADD11C,0.00590551*%
%ADD12C,0.00492126*%
G04 APERTURE END LIST*
G54D10*
X7005Y-8570D02*
X7201Y-8570D01*
X7201Y-8570D02*
X7201Y-5814D01*
X7201Y-14475D02*
X7201Y-11720D01*
X7201Y-11720D02*
X7005Y-11720D01*
X16060Y-11720D02*
X15863Y-11720D01*
X15863Y-11720D02*
X15863Y-14475D01*
X16060Y-8570D02*
X15863Y-8570D01*
X15863Y-8570D02*
X15863Y-7783D01*
X7005Y-11720D02*
G75*
G02X5430Y-10145I0J1574D01*
G74*
G01*
X5430Y-10145D02*
G75*
G02X7005Y-8570I1574J0D01*
G74*
G01*
X17635Y-10145D02*
G75*
G02X16060Y-11720I-1574J0D01*
G74*
G01*
X16060Y-8570D02*
G75*
G02X17635Y-10145I0J-1574D01*
G74*
G01*
X16650Y-10145D02*
G75*
G03X16650Y-10145I-590J0D01*
G74*
G01*
X7595Y-10145D02*
G75*
G03X7595Y-10145I-590J0D01*
G74*
G01*
X15863Y-7783D02*
X15863Y-7586D01*
X15863Y-7586D02*
X14091Y-5814D01*
X14091Y-5814D02*
X7201Y-5814D01*
X7201Y-14475D02*
X15863Y-14475D01*
G54D11*
X10525Y-14082D02*
X10525Y-13688D01*
X10432Y-13688D01*
X10375Y-13707D01*
X10338Y-13744D01*
X10319Y-13782D01*
X10300Y-13857D01*
X10300Y-13913D01*
X10319Y-13988D01*
X10338Y-14025D01*
X10375Y-14063D01*
X10432Y-14082D01*
X10525Y-14082D01*
X10132Y-14082D02*
X10132Y-13688D01*
X9738Y-13707D02*
X9775Y-13688D01*
X9832Y-13688D01*
X9888Y-13707D01*
X9925Y-13744D01*
X9944Y-13782D01*
X9963Y-13857D01*
X9963Y-13913D01*
X9944Y-13988D01*
X9925Y-14025D01*
X9888Y-14063D01*
X9832Y-14082D01*
X9794Y-14082D01*
X9738Y-14063D01*
X9719Y-14044D01*
X9719Y-13913D01*
X9794Y-13913D01*
X9550Y-14082D02*
X9550Y-13688D01*
X9419Y-13688D02*
X9194Y-13688D01*
X9307Y-14082D02*
X9307Y-13688D01*
X9082Y-13969D02*
X8894Y-13969D01*
X9119Y-14082D02*
X8988Y-13688D01*
X8857Y-14082D01*
X8538Y-14082D02*
X8725Y-14082D01*
X8725Y-13688D01*
X14085Y-13688D02*
X13953Y-14082D01*
X13822Y-13688D01*
X13466Y-14044D02*
X13485Y-14063D01*
X13541Y-14082D01*
X13578Y-14082D01*
X13635Y-14063D01*
X13672Y-14025D01*
X13691Y-13988D01*
X13710Y-13913D01*
X13710Y-13857D01*
X13691Y-13782D01*
X13672Y-13744D01*
X13635Y-13707D01*
X13578Y-13688D01*
X13541Y-13688D01*
X13485Y-13707D01*
X13466Y-13725D01*
X13072Y-14044D02*
X13091Y-14063D01*
X13147Y-14082D01*
X13185Y-14082D01*
X13241Y-14063D01*
X13279Y-14025D01*
X13297Y-13988D01*
X13316Y-13913D01*
X13316Y-13857D01*
X13297Y-13782D01*
X13279Y-13744D01*
X13241Y-13707D01*
X13185Y-13688D01*
X13147Y-13688D01*
X13091Y-13707D01*
X13072Y-13725D01*
X10283Y-6542D02*
X10095Y-6542D01*
X10320Y-6655D02*
X10189Y-6261D01*
X10058Y-6655D01*
X9926Y-6655D02*
X9926Y-6261D01*
X9701Y-6655D01*
X9701Y-6261D01*
X9533Y-6542D02*
X9345Y-6542D01*
X9570Y-6655D02*
X9439Y-6261D01*
X9308Y-6655D01*
X8989Y-6655D02*
X9176Y-6655D01*
X9176Y-6261D01*
X8783Y-6261D02*
X8708Y-6261D01*
X8670Y-6280D01*
X8633Y-6317D01*
X8614Y-6392D01*
X8614Y-6524D01*
X8633Y-6599D01*
X8670Y-6636D01*
X8708Y-6655D01*
X8783Y-6655D01*
X8820Y-6636D01*
X8858Y-6599D01*
X8877Y-6524D01*
X8877Y-6392D01*
X8858Y-6317D01*
X8820Y-6280D01*
X8783Y-6261D01*
X8239Y-6280D02*
X8277Y-6261D01*
X8333Y-6261D01*
X8389Y-6280D01*
X8427Y-6317D01*
X8445Y-6355D01*
X8464Y-6430D01*
X8464Y-6486D01*
X8445Y-6561D01*
X8427Y-6599D01*
X8389Y-6636D01*
X8333Y-6655D01*
X8295Y-6655D01*
X8239Y-6636D01*
X8220Y-6617D01*
X8220Y-6486D01*
X8295Y-6486D01*
G54D12*
X13860Y-6207D02*
X13897Y-6188D01*
X13953Y-6188D01*
X14010Y-6207D01*
X14047Y-6244D01*
X14066Y-6282D01*
X14085Y-6357D01*
X14085Y-6413D01*
X14066Y-6488D01*
X14047Y-6525D01*
X14010Y-6563D01*
X13953Y-6582D01*
X13916Y-6582D01*
X13860Y-6563D01*
X13841Y-6544D01*
X13841Y-6413D01*
X13916Y-6413D01*
X13672Y-6582D02*
X13672Y-6188D01*
X13447Y-6582D01*
X13447Y-6188D01*
X13260Y-6582D02*
X13260Y-6188D01*
X13166Y-6188D01*
X13110Y-6207D01*
X13072Y-6244D01*
X13054Y-6282D01*
X13035Y-6357D01*
X13035Y-6413D01*
X13054Y-6488D01*
X13072Y-6525D01*
X13110Y-6563D01*
X13166Y-6582D01*
X13260Y-6582D01*
M02*
