G04 (created by PCBNEW (2013-may-18)-stable) date Вт 27 окт 2015 00:10:55*
%MOIN*%
G04 Gerber Fmt 3.4, Leading zero omitted, Abs format*
%FSLAX34Y34*%
G01*
G70*
G90*
G04 APERTURE LIST*
%ADD10C,0.00393701*%
%ADD11C,0.011811*%
%ADD12C,0.0039*%
%ADD13C,0.00590551*%
%ADD14C,0.0043*%
G04 APERTURE END LIST*
G54D10*
G54D11*
X8717Y-11431D02*
X8802Y-11459D01*
X8942Y-11459D01*
X8998Y-11431D01*
X9026Y-11403D01*
X9055Y-11347D01*
X9055Y-11290D01*
X9026Y-11234D01*
X8998Y-11206D01*
X8942Y-11178D01*
X8830Y-11150D01*
X8773Y-11122D01*
X8745Y-11093D01*
X8717Y-11037D01*
X8717Y-10981D01*
X8745Y-10925D01*
X8773Y-10897D01*
X8830Y-10868D01*
X8970Y-10868D01*
X9055Y-10897D01*
X9561Y-11431D02*
X9505Y-11459D01*
X9392Y-11459D01*
X9336Y-11431D01*
X9308Y-11403D01*
X9280Y-11347D01*
X9280Y-11178D01*
X9308Y-11122D01*
X9336Y-11093D01*
X9392Y-11065D01*
X9505Y-11065D01*
X9561Y-11093D01*
X9814Y-11459D02*
X9814Y-11065D01*
X9814Y-11178D02*
X9842Y-11122D01*
X9870Y-11093D01*
X9926Y-11065D01*
X9983Y-11065D01*
X10433Y-11459D02*
X10433Y-11150D01*
X10404Y-11093D01*
X10348Y-11065D01*
X10236Y-11065D01*
X10179Y-11093D01*
X10433Y-11431D02*
X10376Y-11459D01*
X10236Y-11459D01*
X10179Y-11431D01*
X10151Y-11375D01*
X10151Y-11318D01*
X10179Y-11262D01*
X10236Y-11234D01*
X10376Y-11234D01*
X10433Y-11206D01*
X10629Y-11065D02*
X10854Y-11065D01*
X10714Y-10868D02*
X10714Y-11375D01*
X10742Y-11431D01*
X10798Y-11459D01*
X10854Y-11459D01*
X11304Y-11431D02*
X11248Y-11459D01*
X11136Y-11459D01*
X11079Y-11431D01*
X11051Y-11403D01*
X11023Y-11347D01*
X11023Y-11178D01*
X11051Y-11122D01*
X11079Y-11093D01*
X11136Y-11065D01*
X11248Y-11065D01*
X11304Y-11093D01*
X11557Y-11459D02*
X11557Y-10868D01*
X11811Y-11459D02*
X11811Y-11150D01*
X11782Y-11093D01*
X11726Y-11065D01*
X11642Y-11065D01*
X11586Y-11093D01*
X11557Y-11122D01*
X12092Y-11459D02*
X12092Y-10868D01*
X12232Y-10868D01*
X12317Y-10897D01*
X12373Y-10953D01*
X12401Y-11009D01*
X12429Y-11122D01*
X12429Y-11206D01*
X12401Y-11318D01*
X12373Y-11375D01*
X12317Y-11431D01*
X12232Y-11459D01*
X12092Y-11459D01*
X12935Y-11065D02*
X12935Y-11459D01*
X12682Y-11065D02*
X12682Y-11375D01*
X12710Y-11431D01*
X12767Y-11459D01*
X12851Y-11459D01*
X12907Y-11431D01*
X12935Y-11403D01*
X13217Y-11459D02*
X13217Y-11065D01*
X13217Y-10868D02*
X13188Y-10897D01*
X13217Y-10925D01*
X13245Y-10897D01*
X13217Y-10868D01*
X13217Y-10925D01*
X13498Y-11065D02*
X13498Y-11459D01*
X13498Y-11122D02*
X13526Y-11093D01*
X13582Y-11065D01*
X13667Y-11065D01*
X13723Y-11093D01*
X13751Y-11150D01*
X13751Y-11459D01*
X14116Y-11459D02*
X14060Y-11431D01*
X14032Y-11403D01*
X14004Y-11347D01*
X14004Y-11178D01*
X14032Y-11122D01*
X14060Y-11093D01*
X14116Y-11065D01*
X14201Y-11065D01*
X14257Y-11093D01*
X14285Y-11122D01*
X14313Y-11178D01*
X14313Y-11347D01*
X14285Y-11403D01*
X14257Y-11431D01*
X14201Y-11459D01*
X14116Y-11459D01*
X10208Y-12542D02*
X9926Y-12542D01*
X9926Y-11951D01*
X10404Y-12232D02*
X10601Y-12232D01*
X10686Y-12542D02*
X10404Y-12542D01*
X10404Y-11951D01*
X10686Y-11951D01*
X10939Y-12542D02*
X10939Y-11951D01*
X11079Y-11951D01*
X11164Y-11979D01*
X11220Y-12035D01*
X11248Y-12092D01*
X11276Y-12204D01*
X11276Y-12289D01*
X11248Y-12401D01*
X11220Y-12457D01*
X11164Y-12514D01*
X11079Y-12542D01*
X10939Y-12542D01*
X12092Y-11951D02*
X12148Y-11951D01*
X12204Y-11979D01*
X12232Y-12007D01*
X12260Y-12064D01*
X12289Y-12176D01*
X12289Y-12317D01*
X12260Y-12429D01*
X12232Y-12485D01*
X12204Y-12514D01*
X12148Y-12542D01*
X12092Y-12542D01*
X12035Y-12514D01*
X12007Y-12485D01*
X11979Y-12429D01*
X11951Y-12317D01*
X11951Y-12176D01*
X11979Y-12064D01*
X12007Y-12007D01*
X12035Y-11979D01*
X12092Y-11951D01*
X12542Y-12485D02*
X12570Y-12514D01*
X12542Y-12542D01*
X12514Y-12514D01*
X12542Y-12485D01*
X12542Y-12542D01*
X13076Y-12148D02*
X13076Y-12542D01*
X12935Y-11923D02*
X12795Y-12345D01*
X13160Y-12345D01*
G54D12*
X11709Y-10437D02*
X11309Y-10437D01*
X11309Y-10437D02*
X11309Y-9837D01*
X11309Y-9837D02*
X11709Y-9837D01*
X12109Y-9837D02*
X12509Y-9837D01*
X12509Y-9837D02*
X12509Y-10437D01*
X12509Y-10437D02*
X12109Y-10437D01*
G54D13*
X11122Y-8070D02*
X11909Y-8070D01*
X11122Y-8464D02*
X11909Y-8464D01*
X11515Y-7677D02*
G75*
G03X11122Y-8070I0J-393D01*
G74*
G01*
X11909Y-8070D02*
G75*
G03X11515Y-7677I-393J0D01*
G74*
G01*
G54D14*
X11534Y-9686D02*
X11469Y-9592D01*
X11422Y-9686D02*
X11422Y-9489D01*
X11497Y-9489D01*
X11516Y-9498D01*
X11525Y-9508D01*
X11534Y-9526D01*
X11534Y-9555D01*
X11525Y-9573D01*
X11516Y-9583D01*
X11497Y-9592D01*
X11422Y-9592D01*
X11722Y-9686D02*
X11609Y-9686D01*
X11666Y-9686D02*
X11666Y-9489D01*
X11647Y-9517D01*
X11628Y-9536D01*
X11609Y-9545D01*
X12125Y-9686D02*
X12012Y-9686D01*
X12069Y-9686D02*
X12069Y-9489D01*
X12050Y-9517D01*
X12031Y-9536D01*
X12012Y-9545D01*
X12247Y-9489D02*
X12266Y-9489D01*
X12284Y-9498D01*
X12294Y-9508D01*
X12303Y-9526D01*
X12312Y-9564D01*
X12312Y-9611D01*
X12303Y-9648D01*
X12294Y-9667D01*
X12284Y-9677D01*
X12266Y-9686D01*
X12247Y-9686D01*
X12228Y-9677D01*
X12219Y-9667D01*
X12209Y-9648D01*
X12200Y-9611D01*
X12200Y-9564D01*
X12209Y-9526D01*
X12219Y-9508D01*
X12228Y-9498D01*
X12247Y-9489D01*
X12434Y-9489D02*
X12453Y-9489D01*
X12472Y-9498D01*
X12481Y-9508D01*
X12491Y-9526D01*
X12500Y-9564D01*
X12500Y-9611D01*
X12491Y-9648D01*
X12481Y-9667D01*
X12472Y-9677D01*
X12453Y-9686D01*
X12434Y-9686D01*
X12416Y-9677D01*
X12406Y-9667D01*
X12397Y-9648D01*
X12388Y-9611D01*
X12388Y-9564D01*
X12397Y-9526D01*
X12406Y-9508D01*
X12416Y-9498D01*
X12434Y-9489D01*
G54D13*
X11079Y-7522D02*
X11079Y-6931D01*
X11220Y-6931D01*
X11304Y-6960D01*
X11361Y-7016D01*
X11389Y-7072D01*
X11417Y-7185D01*
X11417Y-7269D01*
X11389Y-7381D01*
X11361Y-7438D01*
X11304Y-7494D01*
X11220Y-7522D01*
X11079Y-7522D01*
X11979Y-7522D02*
X11642Y-7522D01*
X11811Y-7522D02*
X11811Y-6931D01*
X11754Y-7016D01*
X11698Y-7072D01*
X11642Y-7100D01*
M02*
