G04 (created by PCBNEW (2013-may-18)-stable) date Вт 27 окт 2015 00:10:55*
%MOIN*%
G04 Gerber Fmt 3.4, Leading zero omitted, Abs format*
%FSLAX34Y34*%
G01*
G70*
G90*
G04 APERTURE LIST*
%ADD10C,0.00393701*%
%ADD11C,0.122047*%
%ADD12R,0.035X0.055*%
%ADD13R,0.0708661X0.0787402*%
%ADD14C,0.0590551*%
%ADD15C,0.019685*%
%ADD16C,0.0393701*%
G04 APERTURE END LIST*
G54D10*
G54D11*
X16060Y-10145D03*
X7005Y-10145D03*
G54D12*
X11534Y-10137D03*
X12284Y-10137D03*
G54D13*
X12303Y-8267D03*
X10728Y-8267D03*
G54D14*
X9547Y-10137D03*
X11515Y-9055D03*
G54D15*
X11534Y-10137D02*
X9547Y-10137D01*
X12303Y-8267D02*
X12303Y-10119D01*
X12303Y-10119D02*
X12284Y-10137D01*
X10728Y-8267D02*
X11515Y-9055D01*
G54D10*
G36*
X15243Y-13855D02*
X13248Y-13855D01*
X13248Y-8544D01*
X13248Y-7757D01*
X13158Y-7539D01*
X12992Y-7373D01*
X12775Y-7283D01*
X12540Y-7283D01*
X11831Y-7283D01*
X11614Y-7373D01*
X11515Y-7471D01*
X11417Y-7373D01*
X11200Y-7283D01*
X10965Y-7283D01*
X10257Y-7283D01*
X10039Y-7373D01*
X9873Y-7539D01*
X9783Y-7756D01*
X9783Y-7990D01*
X9783Y-8778D01*
X9873Y-8995D01*
X10039Y-9161D01*
X10256Y-9251D01*
X10490Y-9252D01*
X10638Y-9252D01*
X10719Y-9448D01*
X10111Y-9448D01*
X10049Y-9387D01*
X9724Y-9252D01*
X9371Y-9251D01*
X9046Y-9386D01*
X8796Y-9635D01*
X8661Y-9960D01*
X8661Y-10313D01*
X8795Y-10638D01*
X9044Y-10888D01*
X9370Y-11023D01*
X9722Y-11023D01*
X10048Y-10889D01*
X10110Y-10826D01*
X10938Y-10826D01*
X11024Y-10913D01*
X11241Y-11003D01*
X11476Y-11003D01*
X11826Y-11003D01*
X11909Y-10969D01*
X11991Y-11003D01*
X12226Y-11003D01*
X12576Y-11003D01*
X12793Y-10913D01*
X12959Y-10747D01*
X13049Y-10530D01*
X13050Y-10295D01*
X13050Y-9745D01*
X12992Y-9605D01*
X12992Y-9161D01*
X13157Y-8996D01*
X13247Y-8779D01*
X13248Y-8544D01*
X13248Y-13855D01*
X7822Y-13855D01*
X7822Y-11772D01*
X8579Y-11014D01*
X8579Y-9276D01*
X7822Y-8518D01*
X7822Y-6434D01*
X13834Y-6434D01*
X15243Y-7843D01*
X15243Y-8518D01*
X14485Y-9276D01*
X14485Y-11014D01*
X15243Y-11772D01*
X15243Y-13855D01*
X15243Y-13855D01*
G37*
G54D16*
X15243Y-13855D02*
X13248Y-13855D01*
X13248Y-8544D01*
X13248Y-7757D01*
X13158Y-7539D01*
X12992Y-7373D01*
X12775Y-7283D01*
X12540Y-7283D01*
X11831Y-7283D01*
X11614Y-7373D01*
X11515Y-7471D01*
X11417Y-7373D01*
X11200Y-7283D01*
X10965Y-7283D01*
X10257Y-7283D01*
X10039Y-7373D01*
X9873Y-7539D01*
X9783Y-7756D01*
X9783Y-7990D01*
X9783Y-8778D01*
X9873Y-8995D01*
X10039Y-9161D01*
X10256Y-9251D01*
X10490Y-9252D01*
X10638Y-9252D01*
X10719Y-9448D01*
X10111Y-9448D01*
X10049Y-9387D01*
X9724Y-9252D01*
X9371Y-9251D01*
X9046Y-9386D01*
X8796Y-9635D01*
X8661Y-9960D01*
X8661Y-10313D01*
X8795Y-10638D01*
X9044Y-10888D01*
X9370Y-11023D01*
X9722Y-11023D01*
X10048Y-10889D01*
X10110Y-10826D01*
X10938Y-10826D01*
X11024Y-10913D01*
X11241Y-11003D01*
X11476Y-11003D01*
X11826Y-11003D01*
X11909Y-10969D01*
X11991Y-11003D01*
X12226Y-11003D01*
X12576Y-11003D01*
X12793Y-10913D01*
X12959Y-10747D01*
X13049Y-10530D01*
X13050Y-10295D01*
X13050Y-9745D01*
X12992Y-9605D01*
X12992Y-9161D01*
X13157Y-8996D01*
X13247Y-8779D01*
X13248Y-8544D01*
X13248Y-13855D01*
X7822Y-13855D01*
X7822Y-11772D01*
X8579Y-11014D01*
X8579Y-9276D01*
X7822Y-8518D01*
X7822Y-6434D01*
X13834Y-6434D01*
X15243Y-7843D01*
X15243Y-8518D01*
X14485Y-9276D01*
X14485Y-11014D01*
X15243Y-11772D01*
X15243Y-13855D01*
M02*
