G04 (created by PCBNEW (2013-may-18)-stable) date Вт 27 окт 2015 07:22:52*
%MOIN*%
G04 Gerber Fmt 3.4, Leading zero omitted, Abs format*
%FSLAX34Y34*%
G01*
G70*
G90*
G04 APERTURE LIST*
%ADD10C,0.00590551*%
%ADD11C,0.122047*%
%ADD12C,0.0590551*%
%ADD13R,0.0787402X0.393701*%
G04 APERTURE END LIST*
G54D10*
G54D11*
X61200Y-51901D03*
G54D12*
X48200Y-39900D03*
X48200Y-38900D03*
X48200Y-42900D03*
X48200Y-43900D03*
X48200Y-41900D03*
X48200Y-40900D03*
X48200Y-47900D03*
X48200Y-48900D03*
X48200Y-50900D03*
X48200Y-49900D03*
X48200Y-45900D03*
X48200Y-46900D03*
X67200Y-43900D03*
X67200Y-44900D03*
X67200Y-46900D03*
X67200Y-45900D03*
X67200Y-49900D03*
X67200Y-50900D03*
X67200Y-48900D03*
X67200Y-47900D03*
X67200Y-39400D03*
X67200Y-40400D03*
X67200Y-42400D03*
X67200Y-41400D03*
X67200Y-37400D03*
X67200Y-38400D03*
X67200Y-36400D03*
X67200Y-35400D03*
G54D13*
X65700Y-55449D03*
X64700Y-55449D03*
X63700Y-55449D03*
X62700Y-55449D03*
X61700Y-55449D03*
X60700Y-55449D03*
X59700Y-55449D03*
X58700Y-55449D03*
X57700Y-55449D03*
X56700Y-55449D03*
X55700Y-55449D03*
X54700Y-55449D03*
X53700Y-55449D03*
X52700Y-55449D03*
X51700Y-55449D03*
X50700Y-55449D03*
X49700Y-55449D03*
G54D12*
X52649Y-42444D03*
X52649Y-39444D03*
X53649Y-42444D03*
X53649Y-39444D03*
G54D11*
X67200Y-31901D03*
X49200Y-31401D03*
M02*
