G04 (created by PCBNEW (2013-may-18)-stable) date Вт 27 окт 2015 07:22:52*
%MOIN*%
G04 Gerber Fmt 3.4, Leading zero omitted, Abs format*
%FSLAX34Y34*%
G01*
G70*
G90*
G04 APERTURE LIST*
%ADD10C,0.00590551*%
G04 APERTURE END LIST*
G54D10*
X58490Y-51708D02*
X58490Y-51315D01*
X58340Y-51315D01*
X58303Y-51334D01*
X58284Y-51352D01*
X58265Y-51390D01*
X58265Y-51446D01*
X58284Y-51483D01*
X58303Y-51502D01*
X58340Y-51521D01*
X58490Y-51521D01*
X57890Y-51708D02*
X58115Y-51708D01*
X58003Y-51708D02*
X58003Y-51315D01*
X58040Y-51371D01*
X58078Y-51408D01*
X58115Y-51427D01*
X57390Y-51690D02*
X57334Y-51708D01*
X57240Y-51708D01*
X57203Y-51690D01*
X57184Y-51671D01*
X57165Y-51633D01*
X57165Y-51596D01*
X57184Y-51558D01*
X57203Y-51540D01*
X57240Y-51521D01*
X57315Y-51502D01*
X57353Y-51483D01*
X57371Y-51465D01*
X57390Y-51427D01*
X57390Y-51390D01*
X57371Y-51352D01*
X57353Y-51334D01*
X57315Y-51315D01*
X57221Y-51315D01*
X57165Y-51334D01*
X56809Y-51708D02*
X56996Y-51708D01*
X56996Y-51315D01*
X56678Y-51558D02*
X56378Y-51558D01*
X56228Y-51315D02*
X55984Y-51315D01*
X56115Y-51465D01*
X56059Y-51465D01*
X56021Y-51483D01*
X56003Y-51502D01*
X55984Y-51540D01*
X55984Y-51633D01*
X56003Y-51671D01*
X56021Y-51690D01*
X56059Y-51708D01*
X56171Y-51708D01*
X56209Y-51690D01*
X56228Y-51671D01*
X55646Y-51446D02*
X55646Y-51708D01*
X55740Y-51296D02*
X55834Y-51577D01*
X55590Y-51577D01*
M02*
