M48
;DRILL file {Pcbnew (2013-may-18)-stable} date Вт 27 окт 2015 07:22:55
;FORMAT={-:-/ absolute / metric / decimal}
FMAT,2
METRIC,TZ
T1C1.000
%
G90
G05
M71
T1
X122.428Y-98.806
X122.428Y-101.346
X122.428Y-103.886
X122.428Y-106.426
X122.428Y-108.966
X122.428Y-111.506
X122.428Y-116.586
X122.428Y-119.126
X122.428Y-121.666
X122.428Y-124.206
X122.428Y-126.746
X122.428Y-129.286
X126.746Y-130.682
X133.73Y-100.19
X133.73Y-107.81
X133.858Y-105.156
X135.763Y-93.091
X136.27Y-100.19
X136.27Y-107.81
X137.033Y-119.761
X138.938Y-122.301
X139.065Y-93.218
X142.113Y-93.091
X145.606Y-113.03
X145.669Y-98.044
X154.178Y-81.915
X154.178Y-84.201
X154.813Y-95.631
X163.576Y-94.996
X163.576Y-97.536
X165.608Y-129.286
X168.021Y-126.237
X170.688Y-89.916
X170.688Y-92.456
X170.688Y-94.996
X170.688Y-97.536
X170.688Y-100.076
X170.688Y-102.616
X170.688Y-105.156
X170.688Y-107.696
X170.688Y-111.506
X170.688Y-114.046
X170.688Y-116.586
X170.688Y-119.126
X170.688Y-121.666
X170.688Y-124.206
X170.688Y-126.746
X170.688Y-129.286
T0
M30
