G04 (created by PCBNEW (2013-may-18)-stable) date Вт 27 окт 2015 07:22:52*
%MOIN*%
G04 Gerber Fmt 3.4, Leading zero omitted, Abs format*
%FSLAX34Y34*%
G01*
G70*
G90*
G04 APERTURE LIST*
%ADD10C,0.00590551*%
%ADD11C,0.00393701*%
G04 APERTURE END LIST*
G54D10*
G54D11*
X46695Y-31455D02*
X46695Y-31690D01*
X48165Y-29985D02*
X46695Y-31455D01*
X46695Y-33500D02*
X46695Y-31690D01*
X54065Y-29985D02*
X48165Y-29985D01*
X54780Y-30700D02*
X54065Y-29985D01*
X67845Y-30700D02*
X54780Y-30700D01*
X46700Y-52050D02*
X46700Y-33500D01*
X68700Y-31550D02*
X67850Y-30700D01*
X68700Y-33050D02*
X68700Y-31550D01*
X49200Y-58049D02*
X66200Y-58049D01*
X68700Y-52049D02*
X68700Y-33049D01*
X68200Y-52549D02*
X68700Y-52049D01*
X67200Y-52549D02*
X68200Y-52549D01*
X66700Y-53049D02*
X67200Y-52549D01*
X66700Y-57549D02*
X66700Y-53049D01*
X66200Y-58049D02*
X66700Y-57549D01*
X47200Y-52549D02*
X46700Y-52049D01*
X48200Y-52549D02*
X47200Y-52549D01*
X48700Y-53049D02*
X48200Y-52549D01*
X48700Y-57549D02*
X48700Y-53049D01*
X48700Y-57549D02*
X49200Y-58049D01*
M02*
