G04 (created by PCBNEW (2013-may-18)-stable) date Вт 27 окт 2015 07:22:52*
%MOIN*%
G04 Gerber Fmt 3.4, Leading zero omitted, Abs format*
%FSLAX34Y34*%
G01*
G70*
G90*
G04 APERTURE LIST*
%ADD10C,0.00590551*%
%ADD11R,0.0393701X0.0787402*%
%ADD12R,0.0787402X0.0393701*%
%ADD13R,0.035X0.055*%
%ADD14R,0.0709X0.0629*%
%ADD15R,0.0393701X0.0314961*%
G04 APERTURE END LIST*
G54D10*
G54D11*
X60012Y-32240D03*
X59422Y-32240D03*
X58831Y-32240D03*
X58241Y-32240D03*
X57650Y-32240D03*
X57060Y-32240D03*
X56469Y-32240D03*
X55879Y-32240D03*
X55288Y-32240D03*
X54698Y-32240D03*
X54107Y-32240D03*
X53516Y-32240D03*
X52926Y-32240D03*
G54D12*
X52040Y-32929D03*
X52040Y-33520D03*
X52040Y-34110D03*
X52040Y-34701D03*
X52040Y-35291D03*
X52040Y-35882D03*
X52040Y-36472D03*
X52040Y-37063D03*
G54D11*
X52926Y-37752D03*
X53516Y-37752D03*
X54107Y-37752D03*
X54698Y-37752D03*
X55288Y-37752D03*
X55879Y-37752D03*
X56469Y-37752D03*
X57060Y-37752D03*
X57650Y-37752D03*
X58241Y-37752D03*
X58831Y-37752D03*
X59422Y-37752D03*
X60012Y-37752D03*
G54D13*
X56575Y-42400D03*
X57325Y-42400D03*
X56575Y-39400D03*
X57325Y-39400D03*
X59825Y-40900D03*
X60575Y-40900D03*
G54D14*
X58950Y-39091D03*
X58950Y-40209D03*
X58950Y-42709D03*
X58950Y-41591D03*
G54D15*
X50812Y-35301D03*
X50812Y-36679D03*
X48253Y-36679D03*
X48253Y-35301D03*
M02*
