G04 (created by PCBNEW (2013-may-18)-stable) date Пн 26 окт 2015 23:44:09*
%MOIN*%
G04 Gerber Fmt 3.4, Leading zero omitted, Abs format*
%FSLAX34Y34*%
G01*
G70*
G90*
G04 APERTURE LIST*
%ADD10C,0.00393701*%
%ADD11C,0.122047*%
%ADD12R,0.0590551X0.0905512*%
%ADD13C,0.0590551*%
%ADD14C,0.019685*%
%ADD15C,0.0393701*%
G04 APERTURE END LIST*
G54D10*
G54D11*
X16060Y-10145D03*
X7005Y-10145D03*
G54D12*
X9015Y-9181D03*
X9015Y-11094D03*
X10015Y-9181D03*
X10015Y-11094D03*
X11015Y-9181D03*
X11015Y-11094D03*
X12015Y-9181D03*
X12015Y-11094D03*
X13015Y-11094D03*
X14015Y-11094D03*
X14015Y-9181D03*
X13015Y-9181D03*
G54D13*
X12992Y-10137D03*
X12007Y-10137D03*
X11023Y-10137D03*
X10039Y-10137D03*
G54D14*
X12992Y-10137D02*
X12992Y-11070D01*
X12992Y-11070D02*
X13015Y-11094D01*
X13015Y-10114D02*
X13015Y-9181D01*
X12992Y-10137D02*
X13015Y-10114D01*
X14015Y-9181D02*
X14015Y-11094D01*
X9015Y-9181D02*
X9015Y-11094D01*
X12007Y-10137D02*
X12007Y-11086D01*
X12007Y-11086D02*
X12015Y-11094D01*
X12015Y-9181D02*
X12015Y-10129D01*
X12015Y-10129D02*
X12007Y-10137D01*
X11023Y-10137D02*
X11023Y-11086D01*
X11023Y-11086D02*
X11015Y-11094D01*
X11015Y-9181D02*
X11015Y-10129D01*
X11015Y-10129D02*
X11023Y-10137D01*
X10039Y-10137D02*
X10039Y-11070D01*
X10039Y-11070D02*
X10015Y-11094D01*
X10015Y-10114D02*
X10015Y-9181D01*
X10039Y-10137D02*
X10015Y-10114D01*
G54D10*
G36*
X15243Y-8518D02*
X14901Y-8860D01*
X14901Y-8611D01*
X14811Y-8394D01*
X14645Y-8227D01*
X14429Y-8137D01*
X14194Y-8137D01*
X13603Y-8137D01*
X13515Y-8173D01*
X13429Y-8137D01*
X13194Y-8137D01*
X12603Y-8137D01*
X12515Y-8173D01*
X12429Y-8137D01*
X12194Y-8137D01*
X11603Y-8137D01*
X11515Y-8173D01*
X11429Y-8137D01*
X11194Y-8137D01*
X10603Y-8137D01*
X10515Y-8173D01*
X10429Y-8137D01*
X10194Y-8137D01*
X9603Y-8137D01*
X9515Y-8173D01*
X9429Y-8137D01*
X9194Y-8137D01*
X8603Y-8137D01*
X8386Y-8227D01*
X8220Y-8393D01*
X8130Y-8610D01*
X8129Y-8826D01*
X7822Y-8518D01*
X7822Y-6434D01*
X13834Y-6434D01*
X15243Y-7843D01*
X15243Y-8518D01*
X15243Y-8518D01*
G37*
G54D15*
X15243Y-8518D02*
X14901Y-8860D01*
X14901Y-8611D01*
X14811Y-8394D01*
X14645Y-8227D01*
X14429Y-8137D01*
X14194Y-8137D01*
X13603Y-8137D01*
X13515Y-8173D01*
X13429Y-8137D01*
X13194Y-8137D01*
X12603Y-8137D01*
X12515Y-8173D01*
X12429Y-8137D01*
X12194Y-8137D01*
X11603Y-8137D01*
X11515Y-8173D01*
X11429Y-8137D01*
X11194Y-8137D01*
X10603Y-8137D01*
X10515Y-8173D01*
X10429Y-8137D01*
X10194Y-8137D01*
X9603Y-8137D01*
X9515Y-8173D01*
X9429Y-8137D01*
X9194Y-8137D01*
X8603Y-8137D01*
X8386Y-8227D01*
X8220Y-8393D01*
X8130Y-8610D01*
X8129Y-8826D01*
X7822Y-8518D01*
X7822Y-6434D01*
X13834Y-6434D01*
X15243Y-7843D01*
X15243Y-8518D01*
G54D10*
G36*
X15243Y-13855D02*
X7822Y-13855D01*
X7822Y-11772D01*
X8129Y-11464D01*
X8129Y-11664D01*
X8219Y-11881D01*
X8385Y-12047D01*
X8602Y-12137D01*
X8837Y-12137D01*
X9427Y-12137D01*
X9515Y-12101D01*
X9602Y-12137D01*
X9837Y-12137D01*
X10427Y-12137D01*
X10515Y-12101D01*
X10602Y-12137D01*
X10837Y-12137D01*
X11427Y-12137D01*
X11515Y-12101D01*
X11602Y-12137D01*
X11837Y-12137D01*
X12427Y-12137D01*
X12515Y-12101D01*
X12602Y-12137D01*
X12837Y-12137D01*
X13427Y-12137D01*
X13515Y-12101D01*
X13602Y-12137D01*
X13837Y-12137D01*
X14427Y-12137D01*
X14645Y-12048D01*
X14811Y-11882D01*
X14901Y-11665D01*
X14901Y-11430D01*
X15243Y-11772D01*
X15243Y-13855D01*
X15243Y-13855D01*
G37*
G54D15*
X15243Y-13855D02*
X7822Y-13855D01*
X7822Y-11772D01*
X8129Y-11464D01*
X8129Y-11664D01*
X8219Y-11881D01*
X8385Y-12047D01*
X8602Y-12137D01*
X8837Y-12137D01*
X9427Y-12137D01*
X9515Y-12101D01*
X9602Y-12137D01*
X9837Y-12137D01*
X10427Y-12137D01*
X10515Y-12101D01*
X10602Y-12137D01*
X10837Y-12137D01*
X11427Y-12137D01*
X11515Y-12101D01*
X11602Y-12137D01*
X11837Y-12137D01*
X12427Y-12137D01*
X12515Y-12101D01*
X12602Y-12137D01*
X12837Y-12137D01*
X13427Y-12137D01*
X13515Y-12101D01*
X13602Y-12137D01*
X13837Y-12137D01*
X14427Y-12137D01*
X14645Y-12048D01*
X14811Y-11882D01*
X14901Y-11665D01*
X14901Y-11430D01*
X15243Y-11772D01*
X15243Y-13855D01*
M02*
