G04 (created by PCBNEW (2013-may-18)-stable) date Пн 26 окт 2015 23:44:09*
%MOIN*%
G04 Gerber Fmt 3.4, Leading zero omitted, Abs format*
%FSLAX34Y34*%
G01*
G70*
G90*
G04 APERTURE LIST*
%ADD10C,0.00393701*%
%ADD11C,0.011811*%
%ADD12C,0.00590551*%
G04 APERTURE END LIST*
G54D10*
G54D11*
X9912Y-12935D02*
X9912Y-13357D01*
X9884Y-13442D01*
X9828Y-13498D01*
X9744Y-13526D01*
X9687Y-13526D01*
X10447Y-13526D02*
X10447Y-13217D01*
X10419Y-13160D01*
X10362Y-13132D01*
X10250Y-13132D01*
X10194Y-13160D01*
X10447Y-13498D02*
X10390Y-13526D01*
X10250Y-13526D01*
X10194Y-13498D01*
X10165Y-13442D01*
X10165Y-13385D01*
X10194Y-13329D01*
X10250Y-13301D01*
X10390Y-13301D01*
X10447Y-13273D01*
X10981Y-13498D02*
X10925Y-13526D01*
X10812Y-13526D01*
X10756Y-13498D01*
X10728Y-13470D01*
X10700Y-13413D01*
X10700Y-13245D01*
X10728Y-13188D01*
X10756Y-13160D01*
X10812Y-13132D01*
X10925Y-13132D01*
X10981Y-13160D01*
X11234Y-13526D02*
X11234Y-12935D01*
X11290Y-13301D02*
X11459Y-13526D01*
X11459Y-13132D02*
X11234Y-13357D01*
X12275Y-12935D02*
X12331Y-12935D01*
X12387Y-12964D01*
X12415Y-12992D01*
X12443Y-13048D01*
X12471Y-13160D01*
X12471Y-13301D01*
X12443Y-13413D01*
X12415Y-13470D01*
X12387Y-13498D01*
X12331Y-13526D01*
X12275Y-13526D01*
X12218Y-13498D01*
X12190Y-13470D01*
X12162Y-13413D01*
X12134Y-13301D01*
X12134Y-13160D01*
X12162Y-13048D01*
X12190Y-12992D01*
X12218Y-12964D01*
X12275Y-12935D01*
X12724Y-13470D02*
X12753Y-13498D01*
X12724Y-13526D01*
X12696Y-13498D01*
X12724Y-13470D01*
X12724Y-13526D01*
X13259Y-13132D02*
X13259Y-13526D01*
X13118Y-12907D02*
X12978Y-13329D01*
X13343Y-13329D01*
X8619Y-12514D02*
X8703Y-12542D01*
X8844Y-12542D01*
X8900Y-12514D01*
X8928Y-12485D01*
X8956Y-12429D01*
X8956Y-12373D01*
X8928Y-12317D01*
X8900Y-12289D01*
X8844Y-12260D01*
X8731Y-12232D01*
X8675Y-12204D01*
X8647Y-12176D01*
X8619Y-12120D01*
X8619Y-12064D01*
X8647Y-12007D01*
X8675Y-11979D01*
X8731Y-11951D01*
X8872Y-11951D01*
X8956Y-11979D01*
X9462Y-12514D02*
X9406Y-12542D01*
X9294Y-12542D01*
X9237Y-12514D01*
X9209Y-12485D01*
X9181Y-12429D01*
X9181Y-12260D01*
X9209Y-12204D01*
X9237Y-12176D01*
X9294Y-12148D01*
X9406Y-12148D01*
X9462Y-12176D01*
X9715Y-12542D02*
X9715Y-12148D01*
X9715Y-12260D02*
X9744Y-12204D01*
X9772Y-12176D01*
X9828Y-12148D01*
X9884Y-12148D01*
X10334Y-12542D02*
X10334Y-12232D01*
X10306Y-12176D01*
X10250Y-12148D01*
X10137Y-12148D01*
X10081Y-12176D01*
X10334Y-12514D02*
X10278Y-12542D01*
X10137Y-12542D01*
X10081Y-12514D01*
X10053Y-12457D01*
X10053Y-12401D01*
X10081Y-12345D01*
X10137Y-12317D01*
X10278Y-12317D01*
X10334Y-12289D01*
X10531Y-12148D02*
X10756Y-12148D01*
X10615Y-11951D02*
X10615Y-12457D01*
X10643Y-12514D01*
X10700Y-12542D01*
X10756Y-12542D01*
X11206Y-12514D02*
X11150Y-12542D01*
X11037Y-12542D01*
X10981Y-12514D01*
X10953Y-12485D01*
X10925Y-12429D01*
X10925Y-12260D01*
X10953Y-12204D01*
X10981Y-12176D01*
X11037Y-12148D01*
X11150Y-12148D01*
X11206Y-12176D01*
X11459Y-12542D02*
X11459Y-11951D01*
X11712Y-12542D02*
X11712Y-12232D01*
X11684Y-12176D01*
X11628Y-12148D01*
X11543Y-12148D01*
X11487Y-12176D01*
X11459Y-12204D01*
X11993Y-12542D02*
X11993Y-11951D01*
X12134Y-11951D01*
X12218Y-11979D01*
X12275Y-12035D01*
X12303Y-12092D01*
X12331Y-12204D01*
X12331Y-12289D01*
X12303Y-12401D01*
X12275Y-12457D01*
X12218Y-12514D01*
X12134Y-12542D01*
X11993Y-12542D01*
X12837Y-12148D02*
X12837Y-12542D01*
X12584Y-12148D02*
X12584Y-12457D01*
X12612Y-12514D01*
X12668Y-12542D01*
X12753Y-12542D01*
X12809Y-12514D01*
X12837Y-12485D01*
X13118Y-12542D02*
X13118Y-12148D01*
X13118Y-11951D02*
X13090Y-11979D01*
X13118Y-12007D01*
X13146Y-11979D01*
X13118Y-11951D01*
X13118Y-12007D01*
X13399Y-12148D02*
X13399Y-12542D01*
X13399Y-12204D02*
X13428Y-12176D01*
X13484Y-12148D01*
X13568Y-12148D01*
X13624Y-12176D01*
X13652Y-12232D01*
X13652Y-12542D01*
X14018Y-12542D02*
X13962Y-12514D01*
X13934Y-12485D01*
X13906Y-12429D01*
X13906Y-12260D01*
X13934Y-12204D01*
X13962Y-12176D01*
X14018Y-12148D01*
X14102Y-12148D01*
X14159Y-12176D01*
X14187Y-12204D01*
X14215Y-12260D01*
X14215Y-12429D01*
X14187Y-12485D01*
X14159Y-12514D01*
X14102Y-12542D01*
X14018Y-12542D01*
G54D12*
X9415Y-9137D02*
X9615Y-9137D01*
X9415Y-11137D02*
X9615Y-11137D01*
X10415Y-9137D02*
X10615Y-9137D01*
X10415Y-11137D02*
X10615Y-11137D01*
X11415Y-9137D02*
X11615Y-9137D01*
X11415Y-11137D02*
X11615Y-11137D01*
X12415Y-9137D02*
X12615Y-9137D01*
X12415Y-11137D02*
X12615Y-11137D01*
X8515Y-11137D02*
X8615Y-11137D01*
X14515Y-11137D02*
X14415Y-11137D01*
X13415Y-11137D02*
X13615Y-11137D01*
X14515Y-9137D02*
X14415Y-9137D01*
X8515Y-9137D02*
X8615Y-9137D01*
X13415Y-9137D02*
X13615Y-9137D01*
X14515Y-9137D02*
X14515Y-11137D01*
X8515Y-9137D02*
X8515Y-11137D01*
X11079Y-5876D02*
X11079Y-5286D01*
X11304Y-5286D01*
X11361Y-5314D01*
X11389Y-5342D01*
X11417Y-5398D01*
X11417Y-5483D01*
X11389Y-5539D01*
X11361Y-5567D01*
X11304Y-5595D01*
X11079Y-5595D01*
X11979Y-5876D02*
X11642Y-5876D01*
X11811Y-5876D02*
X11811Y-5286D01*
X11754Y-5370D01*
X11698Y-5426D01*
X11642Y-5455D01*
X12692Y-8087D02*
X12664Y-8143D01*
X12664Y-8228D01*
X12692Y-8312D01*
X12748Y-8368D01*
X12804Y-8397D01*
X12917Y-8425D01*
X13001Y-8425D01*
X13114Y-8397D01*
X13170Y-8368D01*
X13226Y-8312D01*
X13254Y-8228D01*
X13254Y-8172D01*
X13226Y-8087D01*
X13198Y-8059D01*
X13001Y-8059D01*
X13001Y-8172D01*
X13254Y-7806D02*
X12664Y-7806D01*
X13254Y-7469D01*
X12664Y-7469D01*
X13254Y-7187D02*
X12664Y-7187D01*
X12664Y-7047D01*
X12692Y-6962D01*
X12748Y-6906D01*
X12804Y-6878D01*
X12917Y-6850D01*
X13001Y-6850D01*
X13114Y-6878D01*
X13170Y-6906D01*
X13226Y-6962D01*
X13254Y-7047D01*
X13254Y-7187D01*
X11664Y-8425D02*
X12254Y-8228D01*
X11664Y-8031D01*
X12198Y-7497D02*
X12226Y-7525D01*
X12254Y-7609D01*
X12254Y-7665D01*
X12226Y-7750D01*
X12170Y-7806D01*
X12114Y-7834D01*
X12001Y-7862D01*
X11917Y-7862D01*
X11804Y-7834D01*
X11748Y-7806D01*
X11692Y-7750D01*
X11664Y-7665D01*
X11664Y-7609D01*
X11692Y-7525D01*
X11720Y-7497D01*
X12198Y-6906D02*
X12226Y-6934D01*
X12254Y-7019D01*
X12254Y-7075D01*
X12226Y-7159D01*
X12170Y-7215D01*
X12114Y-7244D01*
X12001Y-7272D01*
X11917Y-7272D01*
X11804Y-7244D01*
X11748Y-7215D01*
X11692Y-7159D01*
X11664Y-7075D01*
X11664Y-7019D01*
X11692Y-6934D01*
X11720Y-6906D01*
X11254Y-8292D02*
X10664Y-8292D01*
X10664Y-8151D01*
X10692Y-8067D01*
X10748Y-8011D01*
X10804Y-7983D01*
X10917Y-7955D01*
X11001Y-7955D01*
X11114Y-7983D01*
X11170Y-8011D01*
X11226Y-8067D01*
X11254Y-8151D01*
X11254Y-8292D01*
X10086Y-8278D02*
X10086Y-7997D01*
X10254Y-8334D02*
X9664Y-8137D01*
X10254Y-7940D01*
M02*
