  0
SECTION
  2
HEADER
  9
$ACADVER
  1
AC1014
  9
$HANDSEED
  5
FFFF
  9
$MEASUREMENT
 70
     1
  0
ENDSEC
  0
SECTION
  2
TABLES
  0
TABLE
  2
VPORT
  5
8
330
0
100
AcDbSymbolTable
 70
     4
  0
VPORT
  5
2E
330
8
100
AcDbSymbolTableRecord
100
AcDbViewportTableRecord
  2
*ACTIVE
 70
     0
 10
0.0
 20
0.0
 11
1.0
 21
1.0
 12
210.0
 22
148.5
 13
0.0
 23
0.0
 14
10.0
 24
10.0
 15
10.0
 25
10.0
 16
0.0
 26
0.0
 36
1.0
 17
0.0
 27
0.0
 37
0.0
 40
341.0
 41
1.24
 42
50.0
 43
0.0
 44
0.0
 50
0.0
 51
0.0
 71
     0
 72
   100
 73
     1
 74
     3
 75
     0
 76
     0
 77
     0
 78
     0
  0
ENDTAB
  0
TABLE
  2
LTYPE
  5
5
330
0
100
AcDbSymbolTable
 70
     1
  0
LTYPE
  5
14
330
5
100
AcDbSymbolTableRecord
100
AcDbLinetypeTableRecord
  2
BYBLOCK
 70
     0
  3

 72
    65
 73
     0
 40
0.0
  0
LTYPE
  5
15
330
5
100
AcDbSymbolTableRecord
100
AcDbLinetypeTableRecord
  2
BYLAYER
 70
     0
  3

 72
    65
 73
     0
 40
0.0
  0
LTYPE
  5
16
330
5
100
AcDbSymbolTableRecord
100
AcDbLinetypeTableRecord
  2
CONTINUOUS
 70
     0
  3
Solid line
 72
    65
 73
     0
 40
0.0
  0
ENDTAB
  0
TABLE
  2
LAYER
  5
2
100
AcDbSymbolTable
 70
2
  0
LAYER
  5
50
100
AcDbSymbolTableRecord
100
AcDbLayerTableRecord
  2
0
 70
0
  6
CONTINUOUS
  0
LAYER
  5
51
100
AcDbSymbolTableRecord
100
AcDbLayerTableRecord
  2
Layer_1
 70
0
  6
CONTINUOUS
  0
ENDTAB
  0
TABLE
  2
STYLE
  5
3
330
0
100
AcDbSymbolTable
 70
     1
  0
STYLE
  5
11
330
3
100
AcDbSymbolTableRecord
100
AcDbTextStyleTableRecord
  2
STANDARD
 70
     0
 40
0.0
 41
1.0
 50
0.0
 71
     0
 42
2.5
  3
txt
  4

  0
ENDTAB
  0
TABLE
  2
VIEW
  5
6
330
0
100
AcDbSymbolTable
 70
     0
  0
ENDTAB
  0
TABLE
  2
UCS
  5
7
330
0
100
AcDbSymbolTable
 70
     0
  0
ENDTAB
  0
TABLE
  2
APPID
  5
9
330
0
100
AcDbSymbolTable
 70
     2
  0
APPID
  5
12
330
9
100
AcDbSymbolTableRecord
100
AcDbRegAppTableRecord
  2
ACAD
 70
     0
  0
ENDTAB
  0
TABLE
  2
DIMSTYLE
  5
A
330
0
100
AcDbSymbolTable
 70
     1
  0
DIMSTYLE
105
27
330
A
100
AcDbSymbolTableRecord
100
AcDbDimStyleTableRecord
  2
ISO-25
 70
     0
  3

  4

  5

  6

  7

 40
1.0
 41
2.5
 42
0.625
 43
3.75
 44
1.25
 45
0.0
 46
0.0
 47
0.0
 48
0.0
140
2.5
141
2.5
142
0.0
143
0.03937007874016
144
1.0
145
0.0
146
1.0
147
0.625
 71
     0
 72
     0
 73
     0
 74
     0
 75
     0
 76
     0
 77
     1
 78
     8
170
     0
171
     3
172
     1
173
     0
174
     0
175
     0
176
     0
177
     0
178
     0
270
     2
271
     2
272
     2
273
     2
274
     3
340
11
275
     0
280
     0
281
     0
282
     0
283
     0
284
     8
285
     0
286
     0
287
     3
288
     0
  0
ENDTAB
  0
TABLE
  2
BLOCK_RECORD
  5
1
330
0
100
AcDbSymbolTable
 70
     1
  0
BLOCK_RECORD
  5
1F
330
1
100
AcDbSymbolTableRecord
100
AcDbBlockTableRecord
  2
*MODEL_SPACE
  0
BLOCK_RECORD
  5
1B
330
1
100
AcDbSymbolTableRecord
100
AcDbBlockTableRecord
  2
*PAPER_SPACE
  0
ENDTAB
  0
ENDSEC
  0
SECTION
  2
BLOCKS
  0
BLOCK
  5
20
330
1F
100
AcDbEntity
  8
0
100
AcDbBlockBegin
  2
*MODEL_SPACE
 70
     0
 10
0.0
 20
0.0
 30
0.0
  3
*MODEL_SPACE
  1

  0
ENDBLK
  5
21
330
1F
100
AcDbEntity
  8
0
100
AcDbBlockEnd
  0
BLOCK
  5
1C
330
1B
100
AcDbEntity
 67
     1
  8
0
100
AcDbBlockBegin
  2
*PAPER_SPACE
  1

  0
ENDBLK
  5
1D
330
1B
100
AcDbEntity
 67
     1
  8
0
100
AcDbBlockEnd
  0
ENDSEC
  0
SECTION
  2
ENTITIES
  0
SPLINE
  5
100
100
AcDbEntity
  8
Layer_1
 62
7
100
AcDbSpline
 70
8
 71
3
 72
8
 73
4
 74
0
 40
0
 40
0
 40
0
 40
0
 40
1
 40
1
 40
1
 40
1
 10
389.764656
 20
16083.916160
 30
0.0
 10
382.654240
 20
16016.428960
 30
0.0
 10
384.576696
 20
15980.544160
 30
0.0
 10
323.419632
 20
15894.316160
 30
0.0
  0
LWPOLYLINE
  5
101
100
AcDbEntity
  8
Layer_1
 62
7
100
AcDbPolyline
 90
2
 70
1
 10
389.764656
 20
16083.924160
 30
0.0
 10
389.764656
 20
16083.916160
 30
0.0
  0
SPLINE
  5
102
100
AcDbEntity
  8
Layer_1
 62
7
100
AcDbSpline
 70
8
 71
3
 72
8
 73
4
 74
0
 40
0
 40
0
 40
0
 40
0
 40
1
 40
1
 40
1
 40
1
 10
323.414832
 20
15894.308160
 30
0.0
 10
320.496896
 20
15890.579360
 30
0.0
 10
318.907152
 20
15885.983360
 30
0.0
 10
318.897640
 20
15881.248160
 30
0.0
  0
SPLINE
  5
103
100
AcDbEntity
  8
Layer_1
 62
7
100
AcDbSpline
 70
8
 71
3
 72
8
 73
4
 74
0
 40
0
 40
0
 40
0
 40
0
 40
1
 40
1
 40
1
 40
1
 10
318.897640
 20
15881.248160
 30
0.0
 10
318.897064
 20
15869.505760
 30
0.0
 10
328.416264
 20
15859.986560
 30
0.0
 10
340.158584
 20
15859.987360
 30
0.0
  0
SPLINE
  5
104
100
AcDbEntity
  8
Layer_1
 62
7
100
AcDbSpline
 70
8
 71
3
 72
8
 73
4
 74
0
 40
0
 40
0
 40
0
 40
0
 40
1
 40
1
 40
1
 40
1
 10
340.158584
 20
15859.987360
 30
0.0
 10
345.589192
 20
15859.995360
 30
0.0
 10
350.811976
 20
15862.075360
 30
0.0
 10
354.755456
 20
15865.808960
 30
0.0
  0
LWPOLYLINE
  5
105
100
AcDbEntity
  8
Layer_1
 62
7
100
AcDbPolyline
 90
2
 70
1
 10
323.419632
 20
15894.316160
 30
0.0
 10
323.414832
 20
15894.308160
 30
0.0
  0
SPLINE
  5
106
100
AcDbEntity
  8
Layer_1
 62
7
100
AcDbSpline
 70
8
 71
3
 72
8
 73
4
 74
0
 40
0
 40
0
 40
0
 40
0
 40
1
 40
1
 40
1
 40
1
 10
354.892936
 20
15865.929760
 30
0.0
 10
354.961656
 20
15866.001760
 30
0.0
 10
355.029864
 20
15866.065760
 30
0.0
 10
355.097624
 20
15866.134560
 30
0.0
  0
LWPOLYLINE
  5
107
100
AcDbEntity
  8
Layer_1
 62
7
100
AcDbPolyline
 90
3
 70
1
 10
354.755456
 20
15865.808960
 30
0.0
 10
354.764816
 20
15865.800960
 30
0.0
 10
354.892936
 20
15865.929760
 30
0.0
  0
SPLINE
  5
108
100
AcDbEntity
  8
Layer_1
 62
7
100
AcDbSpline
 70
8
 71
3
 72
8
 73
4
 74
0
 40
0
 40
0
 40
0
 40
0
 40
1
 40
1
 40
1
 40
1
 10
411.611688
 20
15922.644960
 30
0.0
 10
411.657768
 20
15922.692960
 30
0.0
 10
411.703568
 20
15922.736160
 30
0.0
 10
411.749192
 20
15922.782560
 30
0.0
  0
LWPOLYLINE
  5
109
100
AcDbEntity
  8
Layer_1
 62
7
100
AcDbPolyline
 90
2
 70
1
 10
355.097624
 20
15866.134560
 30
0.0
 10
411.611688
 20
15922.644960
 30
0.0
  0
SPLINE
  5
10a
100
AcDbEntity
  8
Layer_1
 62
7
100
AcDbSpline
 70
8
 71
3
 72
8
 73
4
 74
0
 40
0
 40
0
 40
0
 40
0
 40
1
 40
1
 40
1
 40
1
 10
412.110104
 20
15923.170560
 30
0.0
 10
415.950856
 20
15927.128960
 30
0.0
 10
418.102856
 20
15932.424960
 30
0.0
 10
418.111664
 20
15937.940960
 30
0.0
  0
LWPOLYLINE
  5
10b
100
AcDbEntity
  8
Layer_1
 62
7
100
AcDbPolyline
 90
3
 70
1
 10
411.749192
 20
15922.782560
 30
0.0
 10
412.121064
 20
15923.154560
 30
0.0
 10
412.110104
 20
15923.170560
 30
0.0
  0
LWPOLYLINE
  5
10c
100
AcDbEntity
  8
Layer_1
 62
7
100
AcDbPolyline
 90
3
 70
1
 10
418.111664
 20
15937.940960
 30
0.0
 10
418.111664
 20
16083.925760
 30
0.0
 10
389.764656
 20
16083.924160
 30
0.0
  0
SPLINE
  5
10d
100
AcDbEntity
  8
Layer_1
 62
7
100
AcDbSpline
 70
8
 71
3
 72
8
 73
4
 74
0
 40
0
 40
0
 40
0
 40
0
 40
1
 40
1
 40
1
 40
1
 10
59.117872
 20
865.947312
 30
0.0
 10
59.089072
 20
861.272112
 30
0.0
 10
55.255632
 20
857.567312
 30
0.0
 10
50.580352
 20
857.566112
 30
0.0
  0
SPLINE
  5
10e
100
AcDbEntity
  8
Layer_1
 62
7
100
AcDbSpline
 70
8
 71
3
 72
8
 73
4
 74
0
 40
0
 40
0
 40
0
 40
0
 40
1
 40
1
 40
1
 40
1
 10
50.580352
 20
857.566112
 30
0.0
 10
50.150112
 20
857.566112
 30
0.0
 10
49.983952
 20
857.558112
 30
0.0
 10
49.331872
 20
857.566112
 30
0.0
  0
LWPOLYLINE
  5
10f
100
AcDbEntity
  8
Layer_1
 62
7
100
AcDbPolyline
 90
4
 70
0
 10
59.137472
 20
928.337552
 30
0.0
 10
59.125872
 20
865.909712
 30
0.0
 10
59.121872
 20
865.928512
 30
0.0
 10
59.117872
 20
865.947312
 30
0.0
  0
SPLINE
  5
110
100
AcDbEntity
  8
Layer_1
 62
7
100
AcDbSpline
 70
8
 71
3
 72
8
 73
4
 74
0
 40
0
 40
0
 40
0
 40
0
 40
1
 40
1
 40
1
 40
1
 10
352.485152
 20
857.578832
 30
0.0
 10
351.632912
 20
857.570832
 30
0.0
 10
351.571712
 20
857.570832
 30
0.0
 10
351.130512
 20
857.570832
 30
0.0
  0
SPLINE
  5
111
100
AcDbEntity
  8
Layer_1
 62
7
100
AcDbSpline
 70
8
 71
3
 72
8
 73
4
 74
0
 40
0
 40
0
 40
0
 40
0
 40
1
 40
1
 40
1
 40
1
 10
351.130512
 20
857.570832
 30
0.0
 10
346.434592
 20
857.571232
 30
0.0
 10
342.665312
 20
861.276432
 30
0.0
 10
342.664832
 20
865.972432
 30
0.0
  0
LWPOLYLINE
  5
112
100
AcDbEntity
  8
Layer_1
 62
7
100
AcDbPolyline
 90
75
 70
0
 10
49.331872
 20
857.566112
 30
0.0
 10
15.167872
 20
857.566112
 30
0.0
 10
13.842832
 20
857.416112
 30
0.0
 10
12.492832
 20
856.991072
 30
0.0
 10
11.217872
 20
856.341072
 30
0.0
 10
10.142832
 20
855.416112
 30
0.0
 10
9.292832
 20
854.366112
 30
0.0
 10
8.667872
 20
853.166112
 30
0.0
 10
8.242832
 20
851.816112
 30
0.0
 10
8.092832
 20
850.467632
 30
0.0
 10
8.092832
 20
850.467632
 30
0.0
 10
8.096032
 20
850.466832
 30
0.0
 10
8.096032
 20
805.318352
 30
0.0
 10
8.246032
 20
803.843392
 30
0.0
 10
8.721072
 20
802.418352
 30
0.0
 10
13.621072
 20
792.293392
 30
0.0
 10
19.071072
 20
782.443392
 30
0.0
 10
25.021072
 20
772.868352
 30
0.0
 10
31.471072
 20
763.668352
 30
0.0
 10
38.421072
 20
754.793392
 30
0.0
 10
45.796032
 20
746.293392
 30
0.0
 10
53.671072
 20
738.218352
 30
0.0
 10
61.871072
 20
730.643312
 30
0.0
 10
70.596032
 20
723.418352
 30
0.0
 10
79.596032
 20
716.668352
 30
0.0
 10
88.946032
 20
710.518352
 30
0.0
 10
98.671072
 20
704.768351
 30
0.0
 10
108.671072
 20
699.593311
 30
0.0
 10
118.921072
 20
694.918351
 30
0.0
 10
129.421072
 20
690.818351
 30
0.0
 10
140.046112
 20
687.268351
 30
0.0
 10
147.071072
 20
683.443311
 30
0.0
 10
154.296112
 20
680.118351
 30
0.0
 10
161.721072
 20
677.193311
 30
0.0
 10
169.321072
 20
674.868351
 30
0.0
 10
177.121072
 20
673.018351
 30
0.0
 10
184.971072
 20
671.668351
 30
0.0
 10
192.921072
 20
670.893311
 30
0.0
 10
200.846112
 20
670.618351
 30
0.0
 10
208.796112
 20
670.893311
 30
0.0
 10
216.721072
 20
671.668351
 30
0.0
 10
224.596112
 20
673.018351
 30
0.0
 10
232.396112
 20
674.868351
 30
0.0
 10
239.971072
 20
677.193311
 30
0.0
 10
247.421072
 20
680.118351
 30
0.0
 10
254.646112
 20
683.443311
 30
0.0
 10
261.671152
 20
687.268351
 30
0.0
 10
272.296112
 20
690.818351
 30
0.0
 10
282.771152
 20
694.918351
 30
0.0
 10
293.046112
 20
699.593311
 30
0.0
 10
303.046112
 20
704.768351
 30
0.0
 10
312.746112
 20
710.518352
 30
0.0
 10
322.096112
 20
716.668352
 30
0.0
 10
331.096112
 20
723.418352
 30
0.0
 10
339.821152
 20
730.643312
 30
0.0
 10
348.046112
 20
738.218352
 30
0.0
 10
355.921152
 20
746.293392
 30
0.0
 10
363.271152
 20
754.793392
 30
0.0
 10
370.221152
 20
763.668352
 30
0.0
 10
376.671152
 20
772.868352
 30
0.0
 10
382.621152
 20
782.443392
 30
0.0
 10
388.071152
 20
792.293392
 30
0.0
 10
392.971152
 20
802.418352
 30
0.0
 10
393.471152
 20
803.843392
 30
0.0
 10
393.621152
 20
805.318352
 30
0.0
 10
393.621152
 20
850.429232
 30
0.0
 10
393.471152
 20
851.779232
 30
0.0
 10
393.046112
 20
853.129232
 30
0.0
 10
392.396112
 20
854.329232
 30
0.0
 10
391.546112
 20
855.379232
 30
0.0
 10
390.421152
 20
856.304272
 30
0.0
 10
389.221152
 20
856.954272
 30
0.0
 10
387.871152
 20
857.379232
 30
0.0
 10
386.521152
 20
857.529232
 30
0.0
 10
352.485152
 20
857.578832
 30
0.0
  0
LWPOLYLINE
  5
113
100
AcDbEntity
  8
Layer_1
 62
7
100
AcDbPolyline
 90
4
 70
0
 10
342.664832
 20
865.972432
 30
0.0
 10
342.664832
 20
866.003632
 30
0.0
 10
342.664832
 20
866.034832
 30
0.0
 10
342.637952
 20
928.330352
 30
0.0
  0
LWPOLYLINE
  5
114
100
AcDbEntity
  8
Layer_1
 62
7
100
AcDbPolyline
 90
88
 70
0
 10
342.648432
 20
931.170888
 30
0.0
 10
342.632032
 20
992.246032
 30
0.0
 10
342.636032
 20
992.246032
 30
0.0
 10
342.640032
 20
992.246032
 30
0.0
 10
342.701792
 20
992.958512
 30
0.0
 10
342.763472
 20
993.670992
 30
0.0
 10
343.190032
 20
994.946032
 30
0.0
 10
343.840032
 20
996.220992
 30
0.0
 10
344.690032
 20
997.296032
 30
0.0
 10
345.813472
 20
998.146032
 30
0.0
 10
347.040032
 20
998.770992
 30
0.0
 10
348.363472
 20
999.196032
 30
0.0
 10
349.713472
 20
999.346032
 30
0.0
 10
375.513472
 20
999.346032
 30
0.0
 10
377.363472
 20
999.620992
 30
0.0
 10
379.140032
 20
1000.346032
 30
0.0
 10
380.540032
 20
1001.470992
 30
0.0
 10
381.690032
 20
1002.946032
 30
0.0
 10
382.390032
 20
1004.720992
 30
0.0
 10
382.613472
 20
1006.570992
 30
0.0
 10
382.313472
 20
1008.496032
 30
0.0
 10
381.540032
 20
1010.196032
 30
0.0
 10
375.163472
 20
1019.820992
 30
0.0
 10
368.363472
 20
1029.046032
 30
0.0
 10
360.990032
 20
1037.970992
 30
0.0
 10
353.113472
 20
1046.396032
 30
0.0
 10
344.913472
 20
1054.470992
 30
0.0
 10
336.190032
 20
1062.046032
 30
0.0
 10
327.113472
 20
1069.146032
 30
0.0
 10
317.613472
 20
1075.746032
 30
0.0
 10
307.840032
 20
1081.820992
 30
0.0
 10
297.713472
 20
1087.346032
 30
0.0
 10
287.290032
 20
1092.320992
 30
0.0
 10
276.663472
 20
1096.720992
 30
0.0
 10
265.740032
 20
1100.546032
 30
0.0
 10
254.690032
 20
1103.720992
 30
0.0
 10
243.413472
 20
1106.346032
 30
0.0
 10
232.090032
 20
1108.346032
 30
0.0
 10
228.690032
 20
1110.820992
 30
0.0
 10
225.063472
 20
1112.946032
 30
0.0
 10
221.313472
 20
1114.796032
 30
0.0
 10
217.413472
 20
1116.346032
 30
0.0
 10
213.363472
 20
1117.546032
 30
0.0
 10
209.263472
 20
1118.470992
 30
0.0
 10
205.090032
 20
1118.970992
 30
0.0
 10
200.913472
 20
1119.170992
 30
0.0
 10
196.713472
 20
1118.970992
 30
0.0
 10
192.540032
 20
1118.470992
 30
0.0
 10
188.440032
 20
1117.546032
 30
0.0
 10
184.390032
 20
1116.346032
 30
0.0
 10
180.490032
 20
1114.796032
 30
0.0
 10
176.740032
 20
1112.946032
 30
0.0
 10
173.113472
 20
1110.820992
 30
0.0
 10
169.713472
 20
1108.346032
 30
0.0
 10
158.390032
 20
1106.346032
 30
0.0
 10
147.113472
 20
1103.720992
 30
0.0
 10
136.063472
 20
1100.546032
 30
0.0
 10
125.140032
 20
1096.720992
 30
0.0
 10
114.513392
 20
1092.320992
 30
0.0
 10
104.090032
 20
1087.346032
 30
0.0
 10
93.963392
 20
1081.820992
 30
0.0
 10
84.188432
 20
1075.746032
 30
0.0
 10
74.688432
 20
1069.146032
 30
0.0
 10
65.613392
 20
1062.046032
 30
0.0
 10
56.913392
 20
1054.470992
 30
0.0
 10
48.688432
 20
1046.396032
 30
0.0
 10
40.813392
 20
1037.970992
 30
0.0
 10
33.513392
 20
1029.046032
 30
0.0
 10
26.638432
 20
1019.820992
 30
0.0
 10
20.263392
 20
1010.196032
 30
0.0
 10
19.488432
 20
1008.496032
 30
0.0
 10
19.188432
 20
1006.570992
 30
0.0
 10
19.413392
 20
1004.720992
 30
0.0
 10
20.113392
 20
1002.946032
 30
0.0
 10
21.263392
 20
1001.470992
 30
0.0
 10
22.738432
 20
1000.346032
 30
0.0
 10
24.438432
 20
999.620992
 30
0.0
 10
26.288432
 20
999.346032
 30
0.0
 10
52.088432
 20
999.346032
 30
0.0
 10
53.488432
 20
999.196032
 30
0.0
 10
54.763392
 20
998.770992
 30
0.0
 10
56.063392
 20
998.146032
 30
0.0
 10
57.113392
 20
997.296032
 30
0.0
 10
57.963392
 20
996.220992
 30
0.0
 10
58.613392
 20
994.946032
 30
0.0
 10
59.038432
 20
993.670992
 30
0.0
 10
59.149392
 20
992.406912
 30
0.0
 10
59.137792
 20
931.178408
 30
0.0
  0
LWPOLYLINE
  5
115
100
AcDbEntity
  8
Layer_1
 62
7
100
AcDbPolyline
 90
46
 70
0
 10
186.169232
 20
682.976431
 30
0.0
 10
189.499232
 20
680.850591
 30
0.0
 10
193.119232
 20
679.220591
 30
0.0
 10
197.019232
 20
678.299391
 30
0.0
 10
200.909232
 20
677.944991
 30
0.0
 10
204.879232
 20
678.299391
 30
0.0
 10
208.709232
 20
679.220591
 30
0.0
 10
212.389232
 20
680.850591
 30
0.0
 10
215.719232
 20
682.976431
 30
0.0
 10
215.719232
 20
682.976431
 30
0.0
 10
228.689232
 20
693.039471
 30
0.0
 10
228.689232
 20
693.039471
 30
0.0
 10
230.529232
 20
694.882031
 30
0.0
 10
231.949232
 20
697.078831
 30
0.0
 10
232.799232
 20
699.488351
 30
0.0
 10
233.089232
 20
702.039471
 30
0.0
 10
232.799232
 20
704.590671
 30
0.0
 10
231.949232
 20
707.000192
 30
0.0
 10
230.529232
 20
709.196992
 30
0.0
 10
228.689232
 20
710.968672
 30
0.0
 10
228.689232
 20
710.968672
 30
0.0
 10
215.719232
 20
721.102432
 30
0.0
 10
215.719232
 20
721.102432
 30
0.0
 10
212.389232
 20
723.228432
 30
0.0
 10
208.709232
 20
724.858352
 30
0.0
 10
204.879232
 20
725.779632
 30
0.0
 10
200.909232
 20
726.133952
 30
0.0
 10
197.019232
 20
725.779632
 30
0.0
 10
193.119232
 20
724.858352
 30
0.0
 10
189.499232
 20
723.228432
 30
0.0
 10
186.169232
 20
721.102432
 30
0.0
 10
186.169232
 20
721.102432
 30
0.0
 10
173.129232
 20
710.968672
 30
0.0
 10
173.129232
 20
710.968672
 30
0.0
 10
171.289232
 20
709.196992
 30
0.0
 10
169.939232
 20
707.000192
 30
0.0
 10
169.089232
 20
704.590671
 30
0.0
 10
168.739232
 20
702.039471
 30
0.0
 10
169.089232
 20
699.488351
 30
0.0
 10
169.939232
 20
697.078831
 30
0.0
 10
171.289232
 20
694.882031
 30
0.0
 10
173.129232
 20
693.039471
 30
0.0
 10
173.129232
 20
693.039471
 30
0.0
 10
186.169232
 20
682.976431
 30
0.0
 10
186.169232
 20
682.976431
 30
0.0
 10
186.169232
 20
682.976431
 30
0.0
  0
LWPOLYLINE
  5
116
100
AcDbEntity
  8
Layer_1
 62
7
100
AcDbPolyline
 90
46
 70
0
 10
186.200992
 20
1104.297072
 30
0.0
 10
173.160992
 20
1094.234032
 30
0.0
 10
173.160992
 20
1094.234032
 30
0.0
 10
171.320992
 20
1092.392032
 30
0.0
 10
169.970992
 20
1090.266032
 30
0.0
 10
169.120992
 20
1087.856032
 30
0.0
 10
168.770992
 20
1085.234032
 30
0.0
 10
169.120992
 20
1082.683072
 30
0.0
 10
169.970992
 20
1080.274032
 30
0.0
 10
171.320992
 20
1078.077072
 30
0.0
 10
173.160992
 20
1076.305072
 30
0.0
 10
173.160992
 20
1076.305072
 30
0.0
 10
186.200992
 20
1066.242032
 30
0.0
 10
186.200992
 20
1066.242032
 30
0.0
 10
189.530992
 20
1064.045072
 30
0.0
 10
193.150992
 20
1062.486032
 30
0.0
 10
197.050992
 20
1061.494032
 30
0.0
 10
200.940992
 20
1061.140032
 30
0.0
 10
204.910992
 20
1061.494032
 30
0.0
 10
208.740992
 20
1062.486032
 30
0.0
 10
212.420992
 20
1064.045072
 30
0.0
 10
215.750992
 20
1066.242032
 30
0.0
 10
215.750992
 20
1066.242032
 30
0.0
 10
228.720992
 20
1076.305072
 30
0.0
 10
228.720992
 20
1076.305072
 30
0.0
 10
230.560992
 20
1078.077072
 30
0.0
 10
231.980992
 20
1080.274032
 30
0.0
 10
232.830992
 20
1082.683072
 30
0.0
 10
233.120992
 20
1085.234032
 30
0.0
 10
232.830992
 20
1087.856032
 30
0.0
 10
231.980992
 20
1090.266032
 30
0.0
 10
230.560992
 20
1092.392032
 30
0.0
 10
228.720992
 20
1094.234032
 30
0.0
 10
228.720992
 20
1094.234032
 30
0.0
 10
215.750992
 20
1104.297072
 30
0.0
 10
215.750992
 20
1104.297072
 30
0.0
 10
212.420992
 20
1106.494032
 30
0.0
 10
208.740992
 20
1108.053072
 30
0.0
 10
204.910992
 20
1109.045072
 30
0.0
 10
200.940992
 20
1109.329072
 30
0.0
 10
197.050992
 20
1109.045072
 30
0.0
 10
193.150992
 20
1108.053072
 30
0.0
 10
189.530992
 20
1106.494032
 30
0.0
 10
186.200992
 20
1104.297072
 30
0.0
 10
186.200992
 20
1104.297072
 30
0.0
 10
186.200992
 20
1104.297072
 30
0.0
  0
LWPOLYLINE
  5
117
100
AcDbEntity
  8
Layer_1
 62
3
100
AcDbPolyline
 90
2
 70
0
 10
59.135624
 20
928.336632
 30
0.0
 10
59.135624
 20
931.171272
 30
0.0
  0
LWPOLYLINE
  5
118
100
AcDbEntity
  8
Layer_1
 62
3
100
AcDbPolyline
 90
2
 70
0
 10
342.644824
 20
928.329192
 30
0.0
 10
342.644824
 20
931.163832
 30
0.0
  0
LWPOLYLINE
  5
119
100
AcDbEntity
  8
Layer_1
 62
7
100
AcDbPolyline
 90
45
 70
1
 10
550.761824
 20
744.054384
 30
0.0
 10
550.971200
 20
741.430944
 30
0.0
 10
551.750888
 20
738.951256
 30
0.0
 10
552.891512
 20
736.612192
 30
0.0
 10
554.450888
 20
734.487192
 30
0.0
 10
556.361824
 20
732.787192
 30
0.0
 10
558.561824
 20
731.368448
 30
0.0
 10
560.971200
 20
730.448128
 30
0.0
 10
563.521200
 20
729.951256
 30
0.0
 10
563.521200
 20
727.045008
 30
0.0
 10
580.521192
 20
710.038758
 30
0.0
 10
593.060232
 20
710.038758
 30
0.0
 10
593.060232
 20
704.268446
 30
0.0
 10
604.322792
 20
704.268446
 30
0.0
 10
604.322792
 20
710.038758
 30
0.0
 10
631.550872
 20
710.038758
 30
0.0
 10
631.550872
 20
729.951256
 30
0.0
 10
634.100848
 20
730.448128
 30
0.0
 10
636.511824
 20
731.368448
 30
0.0
 10
638.711824
 20
732.787192
 30
0.0
 10
640.621184
 20
734.487192
 30
0.0
 10
642.182144
 20
736.612192
 30
0.0
 10
643.311824
 20
738.951256
 30
0.0
 10
644.091504
 20
741.430944
 30
0.0
 10
644.300864
 20
744.054384
 30
0.0
 10
644.091504
 20
746.604384
 30
0.0
 10
643.311824
 20
749.085632
 30
0.0
 10
642.182144
 20
751.423136
 30
0.0
 10
640.621184
 20
753.549696
 30
0.0
 10
638.711824
 20
755.321568
 30
0.0
 10
636.511824
 20
756.666880
 30
0.0
 10
634.100848
 20
757.660632
 30
0.0
 10
631.550872
 20
758.155944
 30
0.0
 10
631.550872
 20
778.070008
 30
0.0
 10
563.521200
 20
778.070008
 30
0.0
 10
563.521200
 20
758.155944
 30
0.0
 10
560.971200
 20
757.660632
 30
0.0
 10
558.561824
 20
756.666880
 30
0.0
 10
556.361824
 20
755.321568
 30
0.0
 10
554.450888
 20
753.549696
 30
0.0
 10
552.891512
 20
751.423136
 30
0.0
 10
551.750888
 20
749.085632
 30
0.0
 10
550.971200
 20
746.604384
 30
0.0
 10
550.761824
 20
744.054384
 30
0.0
 10
550.761824
 20
744.054384
 30
0.0
  0
LWPOLYLINE
  5
11a
100
AcDbEntity
  8
Layer_1
 62
7
100
AcDbPolyline
 90
45
 70
1
 10
449.835256
 20
806.377816
 30
0.0
 10
450.044632
 20
803.755944
 30
0.0
 10
450.824320
 20
801.276256
 30
0.0
 10
451.964944
 20
798.937192
 30
0.0
 10
453.524320
 20
796.810632
 30
0.0
 10
455.435256
 20
795.110632
 30
0.0
 10
457.635256
 20
793.691880
 30
0.0
 10
460.044632
 20
792.771568
 30
0.0
 10
462.594632
 20
792.276256
 30
0.0
 10
462.594632
 20
789.370008
 30
0.0
 10
479.594632
 20
772.362192
 30
0.0
 10
491.783696
 20
772.362192
 30
0.0
 10
491.783696
 20
766.795008
 30
0.0
 10
503.121200
 20
766.795008
 30
0.0
 10
503.121200
 20
772.362192
 30
0.0
 10
530.624320
 20
772.362192
 30
0.0
 10
530.624320
 20
792.276256
 30
0.0
 10
533.174320
 20
792.771568
 30
0.0
 10
535.585256
 20
793.691880
 30
0.0
 10
537.785256
 20
795.110632
 30
0.0
 10
539.694632
 20
796.810632
 30
0.0
 10
541.254008
 20
798.937192
 30
0.0
 10
542.385256
 20
801.276256
 30
0.0
 10
543.164944
 20
803.755944
 30
0.0
 10
543.374320
 20
806.377816
 30
0.0
 10
543.164944
 20
808.929384
 30
0.0
 10
542.385256
 20
811.409072
 30
0.0
 10
541.254008
 20
813.748128
 30
0.0
 10
539.694632
 20
815.873136
 30
0.0
 10
537.785256
 20
817.645008
 30
0.0
 10
535.585256
 20
818.991880
 30
0.0
 10
533.174320
 20
819.984072
 30
0.0
 10
530.624320
 20
820.480944
 30
0.0
 10
530.624320
 20
840.393448
 30
0.0
 10
462.594632
 20
840.393448
 30
0.0
 10
462.594632
 20
820.480944
 30
0.0
 10
460.044632
 20
819.984072
 30
0.0
 10
457.635256
 20
818.991880
 30
0.0
 10
455.435256
 20
817.645008
 30
0.0
 10
453.524320
 20
815.873136
 30
0.0
 10
451.964944
 20
813.748128
 30
0.0
 10
450.824320
 20
811.409072
 30
0.0
 10
450.044632
 20
808.929384
 30
0.0
 10
449.835256
 20
806.377816
 30
0.0
 10
449.835256
 20
806.377816
 30
0.0
  0
LWPOLYLINE
  5
11b
100
AcDbEntity
  8
Layer_1
 62
7
100
AcDbPolyline
 90
5
 70
1
 10
483.279464
 20
848.999816
 30
0.0
 10
483.279464
 20
860.338398
 30
0.0
 10
505.956630
 20
860.338398
 30
0.0
 10
505.956630
 20
848.999816
 30
0.0
 10
483.279464
 20
848.999816
 30
0.0
  0
LWPOLYLINE
  5
11c
100
AcDbEntity
  8
Layer_1
 62
7
100
AcDbPolyline
 90
5
 70
1
 10
687.373984
 20
848.999816
 30
0.0
 10
687.373984
 20
860.338398
 30
0.0
 10
710.051150
 20
860.338398
 30
0.0
 10
710.051150
 20
848.999816
 30
0.0
 10
687.373984
 20
848.999816
 30
0.0
  0
LWPOLYLINE
  5
11d
100
AcDbEntity
  8
Layer_1
 62
7
100
AcDbPolyline
 90
57
 70
1
 10
622.177432
 20
839.362192
 30
0.0
 10
633.518048
 20
839.362192
 30
0.0
 10
633.518048
 20
835.963760
 30
0.0
 10
653.358704
 20
835.963760
 30
0.0
 10
653.358704
 20
835.960560
 30
0.0
 10
664.366464
 20
835.960560
 30
0.0
 10
664.366464
 20
820.398056
 30
0.0
 10
661.816464
 20
819.902744
 30
0.0
 10
659.405584
 20
818.909000
 30
0.0
 10
657.205584
 20
817.563688
 30
0.0
 10
655.296224
 20
815.791808
 30
0.0
 10
653.736784
 20
813.665248
 30
0.0
 10
652.596224
 20
811.327744
 30
0.0
 10
651.816464
 20
808.846496
 30
0.0
 10
651.605584
 20
806.294936
 30
0.0
 10
651.816464
 20
803.673064
 30
0.0
 10
652.596224
 20
801.193376
 30
0.0
 10
653.736784
 20
798.854312
 30
0.0
 10
655.296224
 20
796.727744
 30
0.0
 10
657.205584
 20
795.027744
 30
0.0
 10
659.405584
 20
793.610560
 30
0.0
 10
661.816464
 20
792.688688
 30
0.0
 10
664.366464
 20
792.193376
 30
0.0
 10
664.366464
 20
789.287120
 30
0.0
 10
681.366464
 20
772.280872
 30
0.0
 10
693.329024
 20
772.280872
 30
0.0
 10
693.329024
 20
766.794936
 30
0.0
 10
704.668064
 20
766.794936
 30
0.0
 10
704.668064
 20
772.280872
 30
0.0
 10
732.396224
 20
772.280872
 30
0.0
 10
732.396224
 20
792.193376
 30
0.0
 10
734.946224
 20
792.688688
 30
0.0
 10
737.355584
 20
793.610560
 30
0.0
 10
739.555584
 20
795.027744
 30
0.0
 10
741.466464
 20
796.727744
 30
0.0
 10
743.025904
 20
798.854312
 30
0.0
 10
744.155584
 20
801.193376
 30
0.0
 10
744.936784
 20
803.673064
 30
0.0
 10
745.146224
 20
806.294936
 30
0.0
 10
744.936784
 20
808.846496
 30
0.0
 10
744.155584
 20
811.327744
 30
0.0
 10
743.025904
 20
813.665248
 30
0.0
 10
741.466464
 20
815.791808
 30
0.0
 10
739.555584
 20
817.563688
 30
0.0
 10
737.355584
 20
818.909000
 30
0.0
 10
734.946224
 20
819.902744
 30
0.0
 10
732.396224
 20
820.398056
 30
0.0
 10
732.396224
 20
840.312120
 30
0.0
 10
664.696224
 20
840.312120
 30
0.0
 10
664.696224
 20
847.299624
 30
0.0
 10
656.189904
 20
847.299624
 30
0.0
 10
656.189904
 20
865.446496
 30
0.0
 10
633.518048
 20
865.446496
 30
0.0
 10
633.518048
 20
850.701184
 30
0.0
 10
622.177432
 20
850.701184
 30
0.0
 10
622.177432
 20
839.362120
 30
0.0
 10
622.177432
 20
839.362192
 30
0.0
  0
LWPOLYLINE
  5
11e
100
AcDbEntity
  8
Layer_1
 62
7
100
AcDbPolyline
 90
5
 70
1
 10
560.415104
 20
788.456288
 30
0.0
 10
560.415104
 20
815.198094
 30
0.0
 10
635.042845
 20
815.198094
 30
0.0
 10
635.042845
 20
788.456288
 30
0.0
 10
560.415104
 20
788.456288
 30
0.0
  0
SPLINE
  5
11f
100
AcDbEntity
  8
Layer_1
 62
7
100
AcDbSpline
 70
8
 71
3
 72
8
 73
4
 74
0
 40
0
 40
0
 40
0
 40
0
 40
1
 40
1
 40
1
 40
1
 10
454.927328
 20
865.955912
 30
0.0
 10
454.898528
 20
861.280712
 30
0.0
 10
451.101056
 20
857.612712
 30
0.0
 10
446.425768
 20
857.611496
 30
0.0
  0
SPLINE
  5
120
100
AcDbEntity
  8
Layer_1
 62
7
100
AcDbSpline
 70
8
 71
3
 72
8
 73
4
 74
0
 40
0
 40
0
 40
0
 40
0
 40
1
 40
1
 40
1
 40
1
 10
446.425768
 20
857.611496
 30
0.0
 10
445.995528
 20
857.614696
 30
0.0
 10
445.141392
 20
857.612160
 30
0.0
 10
445.141392
 20
857.612160
 30
0.0
  0
LWPOLYLINE
  5
121
100
AcDbEntity
  8
Layer_1
 62
7
100
AcDbPolyline
 90
4
 70
0
 10
454.920448
 20
871.720672
 30
0.0
 10
454.935328
 20
865.955912
 30
0.0
 10
454.931328
 20
865.955912
 30
0.0
 10
454.927328
 20
865.955912
 30
0.0
  0
SPLINE
  5
122
100
AcDbEntity
  8
Layer_1
 62
7
100
AcDbSpline
 70
8
 71
3
 72
8
 73
4
 74
0
 40
0
 40
0
 40
0
 40
0
 40
1
 40
1
 40
1
 40
1
 10
748.218144
 20
857.473144
 30
0.0
 10
747.523584
 20
857.456664
 30
0.0
 10
747.324304
 20
857.465144
 30
0.0
 10
746.883104
 20
857.463544
 30
0.0
  0
SPLINE
  5
123
100
AcDbEntity
  8
Layer_1
 62
7
100
AcDbSpline
 70
8
 71
3
 72
8
 73
4
 74
0
 40
0
 40
0
 40
0
 40
0
 40
1
 40
1
 40
1
 40
1
 10
746.883104
 20
857.463544
 30
0.0
 10
742.187184
 20
857.463992
 30
0.0
 10
738.398304
 20
861.172488
 30
0.0
 10
738.397824
 20
865.868448
 30
0.0
  0
LWPOLYLINE
  5
124
100
AcDbEntity
  8
Layer_1
 62
7
100
AcDbPolyline
 90
73
 70
0
 10
445.141392
 20
857.612160
 30
0.0
 10
410.977328
 20
857.612160
 30
0.0
 10
409.652328
 20
857.462160
 30
0.0
 10
408.302328
 20
857.037160
 30
0.0
 10
407.027328
 20
856.387160
 30
0.0
 10
405.952328
 20
855.462160
 30
0.0
 10
405.102328
 20
854.412160
 30
0.0
 10
404.477328
 20
853.212160
 30
0.0
 10
404.052328
 20
851.862160
 30
0.0
 10
403.902448
 20
850.512192
 30
0.0
 10
403.905648
 20
805.362192
 30
0.0
 10
404.055648
 20
803.887192
 30
0.0
 10
404.530640
 20
802.462192
 30
0.0
 10
409.430640
 20
792.337192
 30
0.0
 10
414.880640
 20
782.487192
 30
0.0
 10
420.830640
 20
772.912192
 30
0.0
 10
427.280640
 20
763.712192
 30
0.0
 10
434.230640
 20
754.837192
 30
0.0
 10
441.605648
 20
746.337192
 30
0.0
 10
449.480640
 20
738.262192
 30
0.0
 10
457.680640
 20
730.687192
 30
0.0
 10
466.405648
 20
723.462192
 30
0.0
 10
475.405648
 20
716.712192
 30
0.0
 10
484.755648
 20
710.562190
 30
0.0
 10
494.480640
 20
704.812190
 30
0.0
 10
504.480640
 20
699.637190
 30
0.0
 10
514.730640
 20
694.962190
 30
0.0
 10
525.230640
 20
690.862190
 30
0.0
 10
535.855648
 20
687.312190
 30
0.0
 10
542.880640
 20
683.487190
 30
0.0
 10
550.105648
 20
680.162192
 30
0.0
 10
557.530640
 20
677.237192
 30
0.0
 10
565.130640
 20
674.912192
 30
0.0
 10
572.930640
 20
673.062192
 30
0.0
 10
580.780632
 20
671.712192
 30
0.0
 10
588.730632
 20
670.937192
 30
0.0
 10
596.655672
 20
670.662192
 30
0.0
 10
604.605672
 20
670.937192
 30
0.0
 10
612.530632
 20
671.712192
 30
0.0
 10
620.405672
 20
673.062192
 30
0.0
 10
628.205672
 20
674.912192
 30
0.0
 10
635.780624
 20
677.237192
 30
0.0
 10
643.230624
 20
680.162192
 30
0.0
 10
650.455664
 20
683.487190
 30
0.0
 10
657.480624
 20
687.312190
 30
0.0
 10
668.105664
 20
690.862190
 30
0.0
 10
678.580624
 20
694.962190
 30
0.0
 10
688.855664
 20
699.637190
 30
0.0
 10
698.855664
 20
704.812190
 30
0.0
 10
708.555664
 20
710.562190
 30
0.0
 10
717.905664
 20
716.712192
 30
0.0
 10
726.905664
 20
723.462192
 30
0.0
 10
735.630624
 20
730.687192
 30
0.0
 10
743.855664
 20
738.262192
 30
0.0
 10
751.730624
 20
746.337192
 30
0.0
 10
759.080624
 20
754.837192
 30
0.0
 10
766.030624
 20
763.712192
 30
0.0
 10
772.480624
 20
772.912192
 30
0.0
 10
778.430624
 20
782.487192
 30
0.0
 10
783.880624
 20
792.337192
 30
0.0
 10
788.780624
 20
802.462192
 30
0.0
 10
789.280624
 20
803.887192
 30
0.0
 10
789.430624
 20
805.362192
 30
0.0
 10
789.430624
 20
850.373144
 30
0.0
 10
789.280624
 20
851.723144
 30
0.0
 10
788.855664
 20
853.073144
 30
0.0
 10
788.205664
 20
854.273144
 30
0.0
 10
787.355664
 20
855.323144
 30
0.0
 10
786.230624
 20
856.248144
 30
0.0
 10
785.030624
 20
856.898144
 30
0.0
 10
783.680624
 20
857.323144
 30
0.0
 10
782.330624
 20
857.473144
 30
0.0
 10
748.218144
 20
857.473144
 30
0.0
  0
LWPOLYLINE
  5
125
100
AcDbEntity
  8
Layer_1
 62
7
100
AcDbPolyline
 90
4
 70
0
 10
738.397824
 20
865.868448
 30
0.0
 10
738.397824
 20
865.899648
 30
0.0
 10
738.397824
 20
865.930928
 30
0.0
 10
738.397824
 20
871.720344
 30
0.0
  0
LWPOLYLINE
  5
126
100
AcDbEntity
  8
Layer_1
 62
7
100
AcDbPolyline
 90
12
 70
0
 10
738.405824
 20
874.562088
 30
0.0
 10
738.397824
 20
880.232472
 30
0.0
 10
704.416544
 20
880.232472
 30
0.0
 10
704.416544
 20
894.405912
 30
0.0
 10
667.555664
 20
894.405912
 30
0.0
 10
667.555664
 20
868.904352
 30
0.0
 10
527.535328
 20
868.904352
 30
0.0
 10
527.535328
 20
894.405912
 30
0.0
 10
488.961896
 20
894.405912
 30
0.0
 10
488.961896
 20
880.252784
 30
0.0
 10
454.935328
 20
880.252784
 30
0.0
 10
454.920448
 20
874.562416
 30
0.0
  0
LWPOLYLINE
  5
127
100
AcDbEntity
  8
Layer_1
 62
3
100
AcDbPolyline
 90
2
 70
0
 10
454.907008
 20
871.724176
 30
0.0
 10
454.907008
 20
874.558816
 30
0.0
  0
LWPOLYLINE
  5
128
100
AcDbEntity
  8
Layer_1
 62
3
100
AcDbPolyline
 90
2
 70
0
 10
738.371584
 20
871.724176
 30
0.0
 10
738.371584
 20
874.558816
 30
0.0
  0
LWPOLYLINE
  5
129
100
AcDbEntity
  8
Layer_1
 62
7
100
AcDbPolyline
 90
5
 70
1
 10
527.573056
 20
1038.718720
 30
0.0
 10
527.573056
 20
1050.057302
 30
0.0
 10
533.242347
 20
1050.057302
 30
0.0
 10
533.242347
 20
1038.718720
 30
0.0
 10
527.573056
 20
1038.718720
 30
0.0
  0
LWPOLYLINE
  5
12a
100
AcDbEntity
  8
Layer_1
 62
7
100
AcDbPolyline
 90
5
 70
1
 10
625.796000
 20
1025.497680
 30
0.0
 10
625.796000
 20
1039.695109
 30
0.0
 10
637.158784
 20
1039.695109
 30
0.0
 10
637.158784
 20
1025.497680
 30
0.0
 10
625.796000
 20
1025.497680
 30
0.0
  0
LWPOLYLINE
  5
12b
100
AcDbEntity
  8
Layer_1
 62
7
100
AcDbPolyline
 90
5
 70
1
 10
649.966368
 20
1038.780152
 30
0.0
 10
649.966368
 20
1050.118734
 30
0.0
 10
655.635659
 20
1050.118734
 30
0.0
 10
655.635659
 20
1038.780152
 30
0.0
 10
649.966368
 20
1038.780152
 30
0.0
  0
SPLINE
  5
12c
100
AcDbEntity
  8
Layer_1
 62
7
100
AcDbSpline
 70
8
 71
3
 72
8
 73
4
 74
0
 40
0
 40
0
 40
0
 40
0
 40
1
 40
1
 40
1
 40
1
 10
449.475888
 20
977.794816
 30
0.0
 10
453.292056
 20
977.796416
 30
0.0
 10
454.349696
 20
977.796416
 30
0.0
 10
457.038392
 20
977.798016
 30
0.0
  0
LWPOLYLINE
  5
12d
100
AcDbEntity
  8
Layer_1
 62
7
100
AcDbPolyline
 90
2
 70
0
 10
449.425088
 20
985.593256
 30
0.0
 10
449.475888
 20
977.794816
 30
0.0
  0
SPLINE
  5
12e
100
AcDbEntity
  8
Layer_1
 62
7
100
AcDbSpline
 70
8
 71
3
 72
8
 73
4
 74
0
 40
0
 40
0
 40
0
 40
0
 40
1
 40
1
 40
1
 40
1
 10
560.904008
 20
970.062104
 30
0.0
 10
556.978048
 20
970.062104
 30
0.0
 10
553.816504
 20
973.222080
 30
0.0
 10
553.816504
 20
977.148040
 30
0.0
  0
LWPOLYLINE
  5
12f
100
AcDbEntity
  8
Layer_1
 62
7
100
AcDbPolyline
 90
55
 70
0
 10
457.038392
 20
977.798016
 30
0.0
 10
456.997752
 20
982.040200
 30
0.0
 10
456.997752
 20
1001.952704
 30
0.0
 10
454.447752
 20
1002.449576
 30
0.0
 10
452.038384
 20
1003.441760
 30
0.0
 10
449.838384
 20
1004.788640
 30
0.0
 10
447.929008
 20
1006.560512
 30
0.0
 10
446.368072
 20
1008.685512
 30
0.0
 10
445.238384
 20
1011.024576
 30
0.0
 10
444.458696
 20
1013.505824
 30
0.0
 10
444.247752
 20
1016.055824
 30
0.0
 10
444.458696
 20
1018.677704
 30
0.0
 10
445.238384
 20
1021.158952
 30
0.0
 10
446.368072
 20
1023.496448
 30
0.0
 10
447.929008
 20
1025.623016
 30
0.0
 10
449.838384
 20
1027.323016
 30
0.0
 10
452.038384
 20
1028.741760
 30
0.0
 10
454.447752
 20
1029.662080
 30
0.0
 10
456.997752
 20
1030.158952
 30
0.0
 10
456.997752
 20
1050.071448
 30
0.0
 10
508.029008
 20
1050.071448
 30
0.0
 10
525.029008
 20
1033.063640
 30
0.0
 10
525.029008
 20
1030.158952
 30
0.0
 10
527.579008
 20
1029.662080
 30
0.0
 10
529.988384
 20
1028.741760
 30
0.0
 10
532.188384
 20
1027.323016
 30
0.0
 10
534.097752
 20
1025.623016
 30
0.0
 10
535.658696
 20
1023.496448
 30
0.0
 10
536.797752
 20
1021.158952
 30
0.0
 10
537.579008
 20
1018.677704
 30
0.0
 10
537.788384
 20
1016.055824
 30
0.0
 10
537.579008
 20
1013.505824
 30
0.0
 10
536.797752
 20
1011.024576
 30
0.0
 10
535.658696
 20
1008.685512
 30
0.0
 10
534.097752
 20
1006.560512
 30
0.0
 10
532.188384
 20
1004.788640
 30
0.0
 10
529.988384
 20
1003.441760
 30
0.0
 10
527.579008
 20
1002.449576
 30
0.0
 10
525.029008
 20
1001.952704
 30
0.0
 10
525.029008
 20
982.040200
 30
0.0
 10
513.496192
 20
982.040200
 30
0.0
 10
513.496192
 20
962.112080
 30
0.0
 10
507.896192
 20
962.112080
 30
0.0
 10
507.896192
 20
958.032392
 30
0.0
 10
503.643064
 20
958.032392
 30
0.0
 10
503.643064
 20
962.112080
 30
0.0
 10
497.683696
 20
962.112080
 30
0.0
 10
497.683696
 20
975.301136
 30
0.0
 10
483.482128
 20
975.285536
 30
0.0
 10
483.482128
 20
949.529288
 30
0.0
 10
572.755536
 20
949.529288
 30
0.0
 10
572.755536
 20
962.557416
 30
0.0
 10
561.260256
 20
962.557416
 30
0.0
 10
561.260256
 20
970.062104
 30
0.0
 10
560.904008
 20
970.062104
 30
0.0
  0
SPLINE
  5
130
100
AcDbEntity
  8
Layer_1
 62
7
100
AcDbSpline
 70
8
 71
3
 72
8
 73
4
 74
0
 40
0
 40
0
 40
0
 40
0
 40
1
 40
1
 40
1
 40
1
 10
553.816504
 20
1011.163664
 30
0.0
 10
553.816504
 20
1013.418296
 30
0.0
 10
554.863256
 20
1015.416152
 30
0.0
 10
556.494632
 20
1016.712104
 30
0.0
  0
LWPOLYLINE
  5
131
100
AcDbEntity
  8
Layer_1
 62
7
100
AcDbPolyline
 90
2
 70
0
 10
553.816504
 20
977.148040
 30
0.0
 10
553.816504
 20
1011.163664
 30
0.0
  0
SPLINE
  5
132
100
AcDbEntity
  8
Layer_1
 62
7
100
AcDbSpline
 70
8
 71
3
 72
8
 73
4
 74
0
 40
0
 40
0
 40
0
 40
0
 40
1
 40
1
 40
1
 40
1
 10
623.266496
 20
1018.249600
 30
0.0
 10
627.192496
 20
1018.249600
 30
0.0
 10
630.352416
 20
1015.089624
 30
0.0
 10
630.352416
 20
1011.163664
 30
0.0
  0
LWPOLYLINE
  5
133
100
AcDbEntity
  8
Layer_1
 62
7
100
AcDbPolyline
 90
16
 70
0
 10
556.494632
 20
1016.712104
 30
0.0
 10
552.072752
 20
1021.474600
 30
0.0
 10
552.072752
 20
1048.121472
 30
0.0
 10
574.227456
 20
1048.121472
 30
0.0
 10
574.227456
 20
1056.063664
 30
0.0
 10
611.077456
 20
1056.063664
 30
0.0
 10
611.077456
 20
1048.063664
 30
0.0
 10
619.664976
 20
1048.063664
 30
0.0
 10
619.664976
 20
1040.913664
 30
0.0
 10
611.077456
 20
1040.913664
 30
0.0
 10
611.077456
 20
1033.991784
 30
0.0
 10
619.766496
 20
1033.991784
 30
0.0
 10
619.766496
 20
1026.841784
 30
0.0
 10
611.077456
 20
1026.841784
 30
0.0
 10
611.077456
 20
1018.249600
 30
0.0
 10
623.266496
 20
1018.249600
 30
0.0
  0
SPLINE
  5
134
100
AcDbEntity
  8
Layer_1
 62
7
100
AcDbSpline
 70
8
 71
3
 72
8
 73
4
 74
0
 40
0
 40
0
 40
0
 40
0
 40
1
 40
1
 40
1
 40
1
 10
630.352416
 20
977.148040
 30
0.0
 10
630.352416
 20
973.222080
 30
0.0
 10
627.192496
 20
970.062104
 30
0.0
 10
623.266496
 20
970.062104
 30
0.0
  0
LWPOLYLINE
  5
135
100
AcDbEntity
  8
Layer_1
 62
7
100
AcDbPolyline
 90
2
 70
0
 10
630.352416
 20
1011.163664
 30
0.0
 10
630.352416
 20
977.148040
 30
0.0
  0
SPLINE
  5
136
100
AcDbEntity
  8
Layer_1
 62
7
100
AcDbSpline
 70
8
 71
3
 72
8
 73
4
 74
0
 40
0
 40
0
 40
0
 40
0
 40
1
 40
1
 40
1
 40
1
 10
726.897568
 20
977.857416
 30
0.0
 10
729.146368
 20
977.857248
 30
0.0
 10
730.037968
 20
977.857840
 30
0.0
 10
732.850688
 20
977.857416
 30
0.0
  0
LWPOLYLINE
  5
137
100
AcDbEntity
  8
Layer_1
 62
7
100
AcDbPolyline
 90
54
 70
0
 10
623.266496
 20
970.062104
 30
0.0
 10
611.018096
 20
970.062104
 30
0.0
 10
611.018096
 20
949.529288
 30
0.0
 10
698.914928
 20
949.529288
 30
0.0
 10
698.914928
 20
975.290224
 30
0.0
 10
698.343008
 20
975.290224
 30
0.0
 10
686.224288
 20
975.290224
 30
0.0
 10
686.224288
 20
962.212104
 30
0.0
 10
680.624288
 20
962.212104
 30
0.0
 10
680.624288
 20
958.132416
 30
0.0
 10
676.371168
 20
958.132416
 30
0.0
 10
676.371168
 20
962.212104
 30
0.0
 10
670.411808
 20
962.212104
 30
0.0
 10
670.411808
 20
981.993352
 30
0.0
 10
658.839888
 20
981.993352
 30
0.0
 10
658.839888
 20
1001.905848
 30
0.0
 10
656.289888
 20
1002.402728
 30
0.0
 10
653.880528
 20
1003.394912
 30
0.0
 10
651.680528
 20
1004.741784
 30
0.0
 10
649.769568
 20
1006.513664
 30
0.0
 10
648.210208
 20
1008.638664
 30
0.0
 10
647.080528
 20
1010.977728
 30
0.0
 10
646.299248
 20
1013.457416
 30
0.0
 10
646.089888
 20
1016.008976
 30
0.0
 10
646.299248
 20
1018.630848
 30
0.0
 10
647.080528
 20
1021.110536
 30
0.0
 10
648.210208
 20
1023.449600
 30
0.0
 10
649.769568
 20
1025.576160
 30
0.0
 10
651.680528
 20
1027.276160
 30
0.0
 10
653.880528
 20
1028.694912
 30
0.0
 10
656.289888
 20
1029.615224
 30
0.0
 10
658.839888
 20
1030.110536
 30
0.0
 10
658.839888
 20
1050.024600
 30
0.0
 10
709.869568
 20
1050.024600
 30
0.0
 10
726.869568
 20
1033.016792
 30
0.0
 10
726.869568
 20
1030.110536
 30
0.0
 10
729.419568
 20
1029.615224
 30
0.0
 10
731.830528
 20
1028.694912
 30
0.0
 10
734.030528
 20
1027.276160
 30
0.0
 10
735.939888
 20
1025.576160
 30
0.0
 10
737.499248
 20
1023.449600
 30
0.0
 10
738.639888
 20
1021.110536
 30
0.0
 10
739.419568
 20
1018.630848
 30
0.0
 10
739.630528
 20
1016.008976
 30
0.0
 10
739.419568
 20
1013.457416
 30
0.0
 10
738.639888
 20
1010.977728
 30
0.0
 10
737.499248
 20
1008.638664
 30
0.0
 10
735.939888
 20
1006.513664
 30
0.0
 10
734.030528
 20
1004.741784
 30
0.0
 10
731.830528
 20
1003.394912
 30
0.0
 10
729.419568
 20
1002.402728
 30
0.0
 10
726.869568
 20
1001.905848
 30
0.0
 10
726.869568
 20
981.993352
 30
0.0
 10
726.897568
 20
977.857416
 30
0.0
  0
LWPOLYLINE
  5
138
100
AcDbEntity
  8
Layer_1
 62
7
100
AcDbPolyline
 90
2
 70
0
 10
732.850688
 20
977.857416
 30
0.0
 10
732.850688
 20
985.624600
 30
0.0
  0
LWPOLYLINE
  5
139
100
AcDbEntity
  8
Layer_1
 62
7
100
AcDbPolyline
 90
86
 70
0
 10
732.870688
 20
988.461080
 30
0.0
 10
732.850688
 20
993.391784
 30
0.0
 10
732.974128
 20
994.816792
 30
0.0
 10
733.400688
 20
996.091784
 30
0.0
 10
734.050688
 20
997.366792
 30
0.0
 10
734.900688
 20
998.441784
 30
0.0
 10
736.024128
 20
999.291784
 30
0.0
 10
737.250688
 20
999.916792
 30
0.0
 10
738.574128
 20
1000.341784
 30
0.0
 10
739.924128
 20
1000.491784
 30
0.0
 10
765.724128
 20
1000.491784
 30
0.0
 10
767.574128
 20
1000.766792
 30
0.0
 10
769.350688
 20
1001.491784
 30
0.0
 10
770.750688
 20
1002.616792
 30
0.0
 10
771.900688
 20
1004.091784
 30
0.0
 10
772.600688
 20
1005.866792
 30
0.0
 10
772.824128
 20
1007.716792
 30
0.0
 10
772.524128
 20
1009.641784
 30
0.0
 10
771.750688
 20
1011.341784
 30
0.0
 10
765.374128
 20
1020.966792
 30
0.0
 10
758.574128
 20
1030.191784
 30
0.0
 10
751.200688
 20
1039.116792
 30
0.0
 10
743.324128
 20
1047.541784
 30
0.0
 10
735.124128
 20
1055.616792
 30
0.0
 10
726.400688
 20
1063.191784
 30
0.0
 10
717.324128
 20
1070.291784
 30
0.0
 10
707.824128
 20
1076.891784
 30
0.0
 10
698.050688
 20
1082.966792
 30
0.0
 10
687.924128
 20
1088.491784
 30
0.0
 10
677.500688
 20
1093.466792
 30
0.0
 10
666.874128
 20
1097.866792
 30
0.0
 10
655.950688
 20
1101.691784
 30
0.0
 10
644.900688
 20
1104.866792
 30
0.0
 10
633.624176
 20
1107.491784
 30
0.0
 10
622.300736
 20
1109.491784
 30
0.0
 10
618.900736
 20
1111.966792
 30
0.0
 10
615.274176
 20
1114.091784
 30
0.0
 10
611.524176
 20
1115.941784
 30
0.0
 10
607.624176
 20
1117.491784
 30
0.0
 10
603.574176
 20
1118.691784
 30
0.0
 10
599.474176
 20
1119.616792
 30
0.0
 10
595.300736
 20
1120.116792
 30
0.0
 10
591.124176
 20
1120.316792
 30
0.0
 10
586.924176
 20
1120.116792
 30
0.0
 10
582.750736
 20
1119.616792
 30
0.0
 10
578.650736
 20
1118.691784
 30
0.0
 10
574.600736
 20
1117.491784
 30
0.0
 10
570.700736
 20
1115.941784
 30
0.0
 10
566.950720
 20
1114.091784
 30
0.0
 10
563.324160
 20
1111.966792
 30
0.0
 10
559.924160
 20
1109.491784
 30
0.0
 10
548.600720
 20
1107.491784
 30
0.0
 10
537.324160
 20
1104.866792
 30
0.0
 10
526.274160
 20
1101.691784
 30
0.0
 10
515.350720
 20
1097.866792
 30
0.0
 10
504.724160
 20
1093.466792
 30
0.0
 10
494.300720
 20
1088.491784
 30
0.0
 10
484.174160
 20
1082.966792
 30
0.0
 10
474.399160
 20
1076.891784
 30
0.0
 10
464.899160
 20
1070.291784
 30
0.0
 10
455.824160
 20
1063.191784
 30
0.0
 10
447.124160
 20
1055.616792
 30
0.0
 10
438.899160
 20
1047.541784
 30
0.0
 10
431.024160
 20
1039.116792
 30
0.0
 10
423.724160
 20
1030.191784
 30
0.0
 10
416.849160
 20
1020.966792
 30
0.0
 10
410.474160
 20
1011.341784
 30
0.0
 10
409.699160
 20
1009.641784
 30
0.0
 10
409.399160
 20
1007.716792
 30
0.0
 10
409.399328
 20
1007.716696
 30
0.0
 10
409.624328
 20
1005.866696
 30
0.0
 10
410.324328
 20
1004.091688
 30
0.0
 10
411.474328
 20
1002.616696
 30
0.0
 10
412.949328
 20
1001.491688
 30
0.0
 10
414.649328
 20
1000.766696
 30
0.0
 10
416.499328
 20
1000.491688
 30
0.0
 10
442.299328
 20
1000.491688
 30
0.0
 10
443.699328
 20
1000.341688
 30
0.0
 10
444.974328
 20
999.916696
 30
0.0
 10
446.274328
 20
999.291688
 30
0.0
 10
447.324328
 20
998.441688
 30
0.0
 10
448.174328
 20
997.366696
 30
0.0
 10
448.824328
 20
996.091688
 30
0.0
 10
449.249328
 20
994.816696
 30
0.0
 10
449.374328
 20
993.391688
 30
0.0
 10
449.425128
 20
988.420120
 30
0.0
  0
LWPOLYLINE
  5
13a
100
AcDbEntity
  8
Layer_1
 62
3
100
AcDbPolyline
 90
2
 70
0
 10
449.415240
 20
985.590144
 30
0.0
 10
449.415240
 20
988.424784
 30
0.0
  0
LWPOLYLINE
  5
13b
100
AcDbEntity
  8
Layer_1
 62
3
100
AcDbPolyline
 90
2
 70
0
 10
732.842608
 20
985.627336
 30
0.0
 10
732.842608
 20
988.461976
 30
0.0
  0
SPLINE
  5
13c
100
AcDbEntity
  8
Layer_1
 62
7
100
AcDbSpline
 70
8
 71
3
 72
8
 73
4
 74
0
 40
0
 40
0
 40
0
 40
0
 40
1
 40
1
 40
1
 40
1
 10
863.351104
 20
1104.758088
 30
0.0
 10
835.177920
 20
1104.593368
 30
0.0
 10
806.831464
 20
1104.593368
 30
0.0
 10
778.363584
 20
1104.758088
 30
0.0
  0
LWPOLYLINE
  5
13d
100
AcDbEntity
  8
Layer_1
 62
7
100
AcDbPolyline
 90
4
 70
0
 10
869.026064
 20
1066.505824
 30
0.0
 10
869.026064
 20
1084.923208
 30
0.0
 10
863.351104
 20
1084.923208
 30
0.0
 10
863.351104
 20
1104.758088
 30
0.0
  0
SPLINE
  5
13e
100
AcDbEntity
  8
Layer_1
 62
7
100
AcDbSpline
 70
8
 71
3
 72
8
 73
4
 74
0
 40
0
 40
0
 40
0
 40
0
 40
1
 40
1
 40
1
 40
1
 10
778.363584
 20
1022.607208
 30
0.0
 10
806.831464
 20
1022.389448
 30
0.0
 10
835.177920
 20
1022.389448
 30
0.0
 10
863.351104
 20
1022.607208
 30
0.0
  0
LWPOLYLINE
  5
13f
100
AcDbEntity
  8
Layer_1
 62
7
100
AcDbPolyline
 90
6
 70
0
 10
778.363584
 20
1104.758088
 30
0.0
 10
778.363584
 20
1084.884168
 30
0.0
 10
769.891664
 20
1084.884168
 30
0.0
 10
769.891664
 20
1042.480968
 30
0.0
 10
778.363584
 20
1042.480968
 30
0.0
 10
778.363584
 20
1022.607208
 30
0.0
  0
LWPOLYLINE
  5
140
100
AcDbEntity
  8
Layer_1
 62
7
100
AcDbPolyline
 90
4
 70
0
 10
863.351104
 20
1022.607208
 30
0.0
 10
863.351104
 20
1042.441928
 30
0.0
 10
869.026064
 20
1042.441928
 30
0.0
 10
869.026064
 20
1063.682568
 30
0.0
  0
LWPOLYLINE
  5
141
100
AcDbEntity
  8
Layer_1
 62
3
100
AcDbPolyline
 90
2
 70
0
 10
869.032512
 20
1063.678664
 30
0.0
 10
869.032512
 20
1066.513304
 30
0.0
  0
SPLINE
  5
142
100
AcDbEntity
  8
Layer_1
 62
7
100
AcDbSpline
 70
8
 71
3
 72
8
 73
4
 74
0
 40
0
 40
0
 40
0
 40
0
 40
1
 40
1
 40
1
 40
1
 10
980.960960
 20
1111.992632
 30
0.0
 10
952.442080
 20
1104.214408
 30
0.0
 10
924.111360
 20
1104.151848
 30
0.0
 10
895.973440
 20
1111.992632
 30
0.0
  0
LWPOLYLINE
  5
143
100
AcDbEntity
  8
Layer_1
 62
7
100
AcDbPolyline
 90
4
 70
0
 10
986.635920
 20
1065.295544
 30
0.0
 10
986.635920
 20
1083.653528
 30
0.0
 10
980.960960
 20
1083.653528
 30
0.0
 10
980.960960
 20
1111.992632
 30
0.0
  0
SPLINE
  5
144
100
AcDbEntity
  8
Layer_1
 62
7
100
AcDbSpline
 70
8
 71
3
 72
8
 73
4
 74
0
 40
0
 40
0
 40
0
 40
0
 40
1
 40
1
 40
1
 40
1
 10
895.973440
 20
1012.833208
 30
0.0
 10
924.111360
 20
1020.291528
 30
0.0
 10
952.442080
 20
1020.232088
 30
0.0
 10
980.960960
 20
1012.833208
 30
0.0
  0
LWPOLYLINE
  5
145
100
AcDbEntity
  8
Layer_1
 62
7
100
AcDbPolyline
 90
6
 70
0
 10
895.973440
 20
1111.992632
 30
0.0
 10
895.973440
 20
1083.614488
 30
0.0
 10
887.501520
 20
1083.614488
 30
0.0
 10
887.501520
 20
1041.211368
 30
0.0
 10
895.973440
 20
1041.211368
 30
0.0
 10
895.973440
 20
1012.833208
 30
0.0
  0
LWPOLYLINE
  5
146
100
AcDbEntity
  8
Layer_1
 62
7
100
AcDbPolyline
 90
4
 70
0
 10
980.960960
 20
1012.833208
 30
0.0
 10
980.960960
 20
1041.172328
 30
0.0
 10
986.635920
 20
1041.172328
 30
0.0
 10
986.635920
 20
1062.412928
 30
0.0
  0
LWPOLYLINE
  5
147
100
AcDbEntity
  8
Layer_1
 62
3
100
AcDbPolyline
 90
2
 70
0
 10
986.619568
 20
1062.398664
 30
0.0
 10
986.598528
 20
1065.296424
 30
0.0
  0
LWPOLYLINE
  5
148
100
AcDbEntity
  8
Layer_1
 62
7
100
AcDbPolyline
 90
58
 70
0
 10
959.747000
 20
772.410016
 30
0.0
 10
959.742200
 20
769.715616
 30
0.0
 10
959.742200
 20
769.715616
 30
0.0
 10
960.026120
 20
768.386896
 30
0.0
 10
960.783728
 20
767.368576
 30
0.0
 10
961.892336
 20
766.576896
 30
0.0
 10
963.189704
 20
766.317056
 30
0.0
 10
963.189704
 20
766.317056
 30
0.0
 10
973.333432
 20
766.303456
 30
0.0
 10
973.333432
 20
766.303456
 30
0.0
 10
974.601384
 20
766.617856
 30
0.0
 10
975.714536
 20
767.412896
 30
0.0
 10
976.473912
 20
768.452656
 30
0.0
 10
976.731976
 20
769.755376
 30
0.0
 10
976.731976
 20
769.755376
 30
0.0
 10
976.736776
 20
772.449856
 30
0.0
 10
976.736776
 20
772.449856
 30
0.0
 10
1060.499464
 20
772.651856
 30
0.0
 10
1060.499464
 20
772.651856
 30
0.0
 10
1060.485864
 20
783.994176
 30
0.0
 10
1060.485864
 20
783.994176
 30
0.0
 10
1040.645624
 20
783.964576
 30
0.0
 10
1040.645624
 20
783.964576
 30
0.0
 10
1040.539464
 20
831.127936
 30
0.0
 10
1040.539464
 20
831.127936
 30
0.0
 10
1049.093704
 20
831.107136
 30
0.0
 10
1049.093704
 20
831.107136
 30
0.0
 10
1049.057704
 20
845.090256
 30
0.0
 10
1049.057704
 20
845.090256
 30
0.0
 10
976.576560
 20
844.930016
 30
0.0
 10
976.612640
 20
847.686976
 30
0.0
 10
976.297304
 20
848.953136
 30
0.0
 10
975.571112
 20
850.034016
 30
0.0
 10
974.462496
 20
850.825696
 30
0.0
 10
973.165136
 20
851.085536
 30
0.0
 10
973.165136
 20
851.085536
 30
0.0
 10
962.990064
 20
851.036736
 30
0.0
 10
962.990064
 20
851.036736
 30
0.0
 10
961.658632
 20
850.754176
 30
0.0
 10
960.576896
 20
850.021776
 30
0.0
 10
959.880992
 20
848.950096
 30
0.0
 10
959.559448
 20
847.679216
 30
0.0
 10
959.586808
 20
844.890336
 30
0.0
 10
836.401288
 20
844.667616
 30
0.0
 10
836.401288
 20
844.667616
 30
0.0
 10
836.437928
 20
830.684016
 30
0.0
 10
836.437928
 20
830.684016
 30
0.0
 10
844.932352
 20
830.704016
 30
0.0
 10
844.932352
 20
830.704016
 30
0.0
 10
845.043000
 20
783.549616
 30
0.0
 10
845.043000
 20
783.549616
 30
0.0
 10
825.202704
 20
783.520016
 30
0.0
 10
825.202704
 20
783.520016
 30
0.0
 10
825.212624
 20
772.168336
 30
0.0
 10
825.212624
 20
772.168336
 30
0.0
 10
959.746720
 20
772.410256
 30
0.0
 10
959.746720
 20
772.410256
 30
0.0
 10
959.746720
 20
772.410256
 30
0.0
  0
SPLINE
  5
149
100
AcDbEntity
  8
Layer_1
 62
7
100
AcDbSpline
 70
8
 71
3
 72
8
 73
4
 74
0
 40
0
 40
0
 40
0
 40
0
 40
1
 40
1
 40
1
 40
1
 10
979.612744
 20
738.163936
 30
0.0
 10
981.210112
 20
738.163936
 30
0.0
 10
982.495552
 20
736.878496
 30
0.0
 10
982.495552
 20
735.281056
 30
0.0
  0
LWPOLYLINE
  5
14a
100
AcDbEntity
  8
Layer_1
 62
7
100
AcDbPolyline
 90
2
 70
0
 10
942.866648
 20
738.163936
 30
0.0
 10
979.612744
 20
738.163936
 30
0.0
  0
SPLINE
  5
14b
100
AcDbEntity
  8
Layer_1
 62
7
100
AcDbSpline
 70
8
 71
3
 72
8
 73
4
 74
0
 40
0
 40
0
 40
0
 40
0
 40
1
 40
1
 40
1
 40
1
 10
982.547072
 20
684.364736
 30
0.0
 10
982.549472
 20
684.041296
 30
0.0
 10
982.565552
 20
683.718096
 30
0.0
 10
982.595552
 20
683.396016
 30
0.0
  0
SPLINE
  5
14c
100
AcDbEntity
  8
Layer_1
 62
7
100
AcDbSpline
 70
8
 71
3
 72
8
 73
4
 74
0
 40
0
 40
0
 40
0
 40
0
 40
1
 40
1
 40
1
 40
1
 10
982.595552
 20
683.396016
 30
0.0
 10
982.613152
 20
683.188976
 30
0.0
 10
982.640432
 20
682.985696
 30
0.0
 10
982.668992
 20
682.781936
 30
0.0
  0
SPLINE
  5
14d
100
AcDbEntity
  8
Layer_1
 62
7
100
AcDbSpline
 70
8
 71
3
 72
8
 73
4
 74
0
 40
0
 40
0
 40
0
 40
0
 40
1
 40
1
 40
1
 40
1
 10
982.668992
 20
682.781936
 30
0.0
 10
982.690832
 20
682.615776
 30
0.0
 10
982.716352
 20
682.450096
 30
0.0
 10
982.745552
 20
682.285056
 30
0.0
  0
SPLINE
  5
14e
100
AcDbEntity
  8
Layer_1
 62
7
100
AcDbSpline
 70
8
 71
3
 72
8
 73
4
 74
0
 40
0
 40
0
 40
0
 40
0
 40
1
 40
1
 40
1
 40
1
 10
982.745552
 20
682.285056
 30
0.0
 10
982.786752
 20
682.063376
 30
0.0
 10
982.838536
 20
681.845776
 30
0.0
 10
982.892432
 20
681.628816
 30
0.0
  0
SPLINE
  5
14f
100
AcDbEntity
  8
Layer_1
 62
7
100
AcDbSpline
 70
8
 71
3
 72
8
 73
4
 74
0
 40
0
 40
0
 40
0
 40
0
 40
1
 40
1
 40
1
 40
1
 10
982.892432
 20
681.628816
 30
0.0
 10
982.926112
 20
681.486416
 30
0.0
 10
982.962592
 20
681.344736
 30
0.0
 10
983.001800
 20
681.203776
 30
0.0
  0
SPLINE
  5
150
100
AcDbEntity
  8
Layer_1
 62
7
100
AcDbSpline
 70
8
 71
3
 72
8
 73
4
 74
0
 40
0
 40
0
 40
0
 40
0
 40
1
 40
1
 40
1
 40
1
 10
983.001800
 20
681.203776
 30
0.0
 10
983.069480
 20
680.970416
 30
0.0
 10
983.149456
 20
680.743216
 30
0.0
 10
983.231488
 20
680.516336
 30
0.0
  0
SPLINE
  5
151
100
AcDbEntity
  8
Layer_1
 62
7
100
AcDbSpline
 70
8
 71
3
 72
8
 73
4
 74
0
 40
0
 40
0
 40
0
 40
0
 40
1
 40
1
 40
1
 40
1
 10
983.231488
 20
680.516336
 30
0.0
 10
983.274208
 20
680.393136
 30
0.0
 10
983.318968
 20
680.270736
 30
0.0
 10
983.365864
 20
680.149136
 30
0.0
  0
SPLINE
  5
152
100
AcDbEntity
  8
Layer_1
 62
7
100
AcDbSpline
 70
8
 71
3
 72
8
 73
4
 74
0
 40
0
 40
0
 40
0
 40
0
 40
1
 40
1
 40
1
 40
1
 10
983.365864
 20
680.149136
 30
0.0
 10
983.453968
 20
679.929616
 30
0.0
 10
983.552176
 20
679.716336
 30
0.0
 10
983.653368
 20
679.503776
 30
0.0
  0
SPLINE
  5
153
100
AcDbEntity
  8
Layer_1
 62
7
100
AcDbSpline
 70
8
 71
3
 72
8
 73
4
 74
0
 40
0
 40
0
 40
0
 40
0
 40
1
 40
1
 40
1
 40
1
 10
983.653368
 20
679.503776
 30
0.0
 10
983.713848
 20
679.372416
 30
0.0
 10
983.776928
 20
679.242176
 30
0.0
 10
983.842432
 20
679.113216
 30
0.0
  0
SPLINE
  5
154
100
AcDbEntity
  8
Layer_1
 62
7
100
AcDbSpline
 70
8
 71
3
 72
8
 73
4
 74
0
 40
0
 40
0
 40
0
 40
0
 40
1
 40
1
 40
1
 40
1
 10
983.842432
 20
679.113216
 30
0.0
 10
983.946688
 20
678.914256
 30
0.0
 10
984.061288
 20
678.722096
 30
0.0
 10
984.176800
 20
678.530416
 30
0.0
  0
SPLINE
  5
155
100
AcDbEntity
  8
Layer_1
 62
7
100
AcDbSpline
 70
8
 71
3
 72
8
 73
4
 74
0
 40
0
 40
0
 40
0
 40
0
 40
1
 40
1
 40
1
 40
1
 10
984.176800
 20
678.530416
 30
0.0
 10
984.250400
 20
678.403376
 30
0.0
 10
984.326456
 20
678.277856
 30
0.0
 10
984.404928
 20
678.153776
 30
0.0
  0
SPLINE
  5
156
100
AcDbEntity
  8
Layer_1
 62
7
100
AcDbSpline
 70
8
 71
3
 72
8
 73
4
 74
0
 40
0
 40
0
 40
0
 40
0
 40
1
 40
1
 40
1
 40
1
 10
984.404928
 20
678.153776
 30
0.0
 10
984.527560
 20
677.967056
 30
0.0
 10
984.660848
 20
677.788976
 30
0.0
 10
984.793992
 20
677.610096
 30
0.0
  0
SPLINE
  5
157
100
AcDbEntity
  8
Layer_1
 62
7
100
AcDbSpline
 70
8
 71
3
 72
8
 73
4
 74
0
 40
0
 40
0
 40
0
 40
0
 40
1
 40
1
 40
1
 40
1
 10
984.793992
 20
677.610096
 30
0.0
 10
984.883672
 20
677.485296
 30
0.0
 10
984.975880
 20
677.362336
 30
0.0
 10
985.070552
 20
677.241296
 30
0.0
  0
SPLINE
  5
158
100
AcDbEntity
  8
Layer_1
 62
7
100
AcDbSpline
 70
8
 71
3
 72
8
 73
4
 74
0
 40
0
 40
0
 40
0
 40
0
 40
1
 40
1
 40
1
 40
1
 10
985.070552
 20
677.241296
 30
0.0
 10
985.208144
 20
677.071296
 30
0.0
 10
985.356344
 20
676.910816
 30
0.0
 10
985.503368
 20
676.749136
 30
0.0
  0
SPLINE
  5
159
100
AcDbEntity
  8
Layer_1
 62
7
100
AcDbSpline
 70
8
 71
3
 72
8
 73
4
 74
0
 40
0
 40
0
 40
0
 40
0
 40
1
 40
1
 40
1
 40
1
 10
985.503368
 20
676.749136
 30
0.0
 10
985.601184
 20
676.636736
 30
0.0
 10
985.701200
 20
676.526336
 30
0.0
 10
985.803368
 20
676.417856
 30
0.0
  0
SPLINE
  5
15a
100
AcDbEntity
  8
Layer_1
 62
7
100
AcDbSpline
 70
8
 71
3
 72
8
 73
4
 74
0
 40
0
 40
0
 40
0
 40
0
 40
1
 40
1
 40
1
 40
1
 10
985.803368
 20
676.417856
 30
0.0
 10
985.951200
 20
676.267536
 30
0.0
 10
986.109896
 20
676.128576
 30
0.0
 10
986.265864
 20
675.986656
 30
0.0
  0
SPLINE
  5
15b
100
AcDbEntity
  8
Layer_1
 62
7
100
AcDbSpline
 70
8
 71
3
 72
8
 73
4
 74
0
 40
0
 40
0
 40
0
 40
0
 40
1
 40
1
 40
1
 40
1
 10
986.265864
 20
675.986656
 30
0.0
 10
986.387320
 20
675.871376
 30
0.0
 10
986.511304
 20
675.758896
 30
0.0
 10
986.637744
 20
675.649136
 30
0.0
  0
SPLINE
  5
15c
100
AcDbEntity
  8
Layer_1
 62
7
100
AcDbSpline
 70
8
 71
3
 72
8
 73
4
 74
0
 40
0
 40
0
 40
0
 40
0
 40
1
 40
1
 40
1
 40
1
 10
986.637744
 20
675.649136
 30
0.0
 10
986.814816
 20
675.501696
 30
0.0
 10
987.001784
 20
675.366976
 30
0.0
 10
987.187744
 20
675.230416
 30
0.0
  0
SPLINE
  5
15d
100
AcDbEntity
  8
Layer_1
 62
7
100
AcDbSpline
 70
8
 71
3
 72
8
 73
4
 74
0
 40
0
 40
0
 40
0
 40
0
 40
1
 40
1
 40
1
 40
1
 10
987.187744
 20
675.230416
 30
0.0
 10
987.292080
 20
675.149376
 30
0.0
 10
987.397824
 20
675.070176
 30
0.0
 10
987.504928
 20
674.992896
 30
0.0
  0
SPLINE
  5
15e
100
AcDbEntity
  8
Layer_1
 62
7
100
AcDbSpline
 70
8
 71
3
 72
8
 73
4
 74
0
 40
0
 40
0
 40
0
 40
0
 40
1
 40
1
 40
1
 40
1
 10
987.504928
 20
674.992896
 30
0.0
 10
987.798200
 20
674.792816
 30
0.0
 10
988.102168
 20
674.608976
 30
0.0
 10
988.414304
 20
674.436656
 30
0.0
  0
SPLINE
  5
15f
100
AcDbEntity
  8
Layer_1
 62
7
100
AcDbSpline
 70
8
 71
3
 72
8
 73
4
 74
0
 40
0
 40
0
 40
0
 40
0
 40
1
 40
1
 40
1
 40
1
 10
988.414304
 20
674.436656
 30
0.0
 10
988.426224
 20
674.428656
 30
0.0
 10
988.438224
 20
674.420656
 30
0.0
 10
988.450224
 20
674.413456
 30
0.0
  0
SPLINE
  5
160
100
AcDbEntity
  8
Layer_1
 62
7
100
AcDbSpline
 70
8
 71
3
 72
8
 73
4
 74
0
 40
0
 40
0
 40
0
 40
0
 40
1
 40
1
 40
1
 40
1
 10
988.450224
 20
674.413456
 30
0.0
 10
989.428136
 20
673.878256
 30
0.0
 10
990.494560
 20
673.484016
 30
0.0
 10
991.620536
 20
673.255616
 30
0.0
  0
SPLINE
  5
161
100
AcDbEntity
  8
Layer_1
 62
7
100
AcDbSpline
 70
8
 71
3
 72
8
 73
4
 74
0
 40
0
 40
0
 40
0
 40
0
 40
1
 40
1
 40
1
 40
1
 10
991.620536
 20
673.255616
 30
0.0
 10
991.815560
 20
673.221216
 30
0.0
 10
992.011464
 20
673.190816
 30
0.0
 10
992.208040
 20
673.166576
 30
0.0
  0
SPLINE
  5
162
100
AcDbEntity
  8
Layer_1
 62
7
100
AcDbSpline
 70
8
 71
3
 72
8
 73
4
 74
0
 40
0
 40
0
 40
0
 40
0
 40
1
 40
1
 40
1
 40
1
 10
992.208040
 20
673.166576
 30
0.0
 10
992.384360
 20
673.140176
 30
0.0
 10
992.557288
 20
673.104976
 30
0.0
 10
992.736160
 20
673.086576
 30
0.0
  0
SPLINE
  5
163
100
AcDbEntity
  8
Layer_1
 62
7
100
AcDbSpline
 70
8
 71
3
 72
8
 73
4
 74
0
 40
0
 40
0
 40
0
 40
0
 40
1
 40
1
 40
1
 40
1
 10
992.736160
 20
673.086576
 30
0.0
 10
993.117720
 20
673.047376
 30
0.0
 10
993.501032
 20
673.027376
 30
0.0
 10
993.884600
 20
673.027376
 30
0.0
  0
SPLINE
  5
164
100
AcDbEntity
  8
Layer_1
 62
7
100
AcDbSpline
 70
8
 71
3
 72
8
 73
4
 74
0
 40
0
 40
0
 40
0
 40
0
 40
1
 40
1
 40
1
 40
1
 10
993.884600
 20
673.027376
 30
0.0
 10
994.197048
 20
673.027376
 30
0.0
 10
994.509296
 20
673.043376
 30
0.0
 10
994.820536
 20
673.071376
 30
0.0
  0
SPLINE
  5
165
100
AcDbEntity
  8
Layer_1
 62
7
100
AcDbSpline
 70
8
 71
3
 72
8
 73
4
 74
0
 40
0
 40
0
 40
0
 40
0
 40
1
 40
1
 40
1
 40
1
 10
994.820536
 20
673.071376
 30
0.0
 10
994.935360
 20
673.081776
 30
0.0
 10
995.049560
 20
673.099376
 30
0.0
 10
995.164288
 20
673.113776
 30
0.0
  0
SPLINE
  5
166
100
AcDbEntity
  8
Layer_1
 62
7
100
AcDbSpline
 70
8
 71
3
 72
8
 73
4
 74
0
 40
0
 40
0
 40
0
 40
0
 40
1
 40
1
 40
1
 40
1
 10
995.164288
 20
673.113776
 30
0.0
 10
997.010576
 20
673.323696
 30
0.0
 10
998.776968
 20
673.984256
 30
0.0
 10
1000.308040
 20
675.037216
 30
0.0
  0
SPLINE
  5
167
100
AcDbEntity
  8
Layer_1
 62
7
100
AcDbSpline
 70
8
 71
3
 72
8
 73
4
 74
0
 40
0
 40
0
 40
0
 40
0
 40
1
 40
1
 40
1
 40
1
 10
1000.308040
 20
675.037216
 30
0.0
 10
1000.503512
 20
675.167856
 30
0.0
 10
1000.692280
 20
675.301856
 30
0.0
 10
1000.875224
 20
675.441856
 30
0.0
  0
SPLINE
  5
168
100
AcDbEntity
  8
Layer_1
 62
7
100
AcDbSpline
 70
8
 71
3
 72
8
 73
4
 74
0
 40
0
 40
0
 40
0
 40
0
 40
1
 40
1
 40
1
 40
1
 10
1000.875224
 20
675.441856
 30
0.0
 10
1000.910264
 20
675.469056
 30
0.0
 10
1000.945144
 20
675.497056
 30
0.0
 10
1000.979912
 20
675.524736
 30
0.0
  0
SPLINE
  5
169
100
AcDbEntity
  8
Layer_1
 62
7
100
AcDbSpline
 70
8
 71
3
 72
8
 73
4
 74
0
 40
0
 40
0
 40
0
 40
0
 40
1
 40
1
 40
1
 40
1
 10
1000.979912
 20
675.524736
 30
0.0
 10
1001.108920
 20
675.626096
 30
0.0
 10
1001.244040
 20
675.723696
 30
0.0
 10
1001.365848
 20
675.829376
 30
0.0
  0
LWPOLYLINE
  5
16a
100
AcDbEntity
  8
Layer_1
 62
7
100
AcDbPolyline
 90
3
 70
0
 10
982.495552
 20
735.281056
 30
0.0
 10
982.495552
 20
684.364736
 30
0.0
 10
982.547072
 20
684.364736
 30
0.0
  0
SPLINE
  5
16b
100
AcDbEntity
  8
Layer_1
 62
7
100
AcDbSpline
 70
8
 71
3
 72
8
 73
4
 74
0
 40
0
 40
0
 40
0
 40
0
 40
1
 40
1
 40
1
 40
1
 10
1001.689288
 20
676.149696
 30
0.0
 10
1002.869600
 20
677.095696
 30
0.0
 10
1004.652336
 20
680.006736
 30
0.0
 10
1004.868976
 20
681.612176
 30
0.0
  0
SPLINE
  5
16c
100
AcDbEntity
  8
Layer_1
 62
7
100
AcDbSpline
 70
8
 71
3
 72
8
 73
4
 74
0
 40
0
 40
0
 40
0
 40
0
 40
1
 40
1
 40
1
 40
1
 10
1004.868976
 20
681.612176
 30
0.0
 10
1016.236824
 20
720.998016
 30
0.0
 10
1028.842824
 20
739.654736
 30
0.0
 10
1070.378408
 20
749.540336
 30
0.0
  0
SPLINE
  5
16d
100
AcDbEntity
  8
Layer_1
 62
7
100
AcDbSpline
 70
8
 71
3
 72
8
 73
4
 74
0
 40
0
 40
0
 40
0
 40
0
 40
1
 40
1
 40
1
 40
1
 10
1070.378408
 20
749.540336
 30
0.0
 10
1073.775928
 20
749.605936
 30
0.0
 10
1076.935128
 20
750.680656
 30
0.0
 10
1079.794008
 20
753.035616
 30
0.0
  0
SPLINE
  5
16e
100
AcDbEntity
  8
Layer_1
 62
7
100
AcDbSpline
 70
8
 71
3
 72
8
 73
4
 74
0
 40
0
 40
0
 40
0
 40
0
 40
1
 40
1
 40
1
 40
1
 10
1079.794008
 20
753.035616
 30
0.0
 10
1083.392968
 20
756.177216
 30
0.0
 10
1085.338648
 20
761.915536
 30
0.0
 10
1084.316248
 20
766.488336
 30
0.0
  0
SPLINE
  5
16f
100
AcDbEntity
  8
Layer_1
 62
7
100
AcDbSpline
 70
8
 71
3
 72
8
 73
4
 74
0
 40
0
 40
0
 40
0
 40
0
 40
1
 40
1
 40
1
 40
1
 10
1084.316248
 20
766.488336
 30
0.0
 10
1077.187448
 20
803.561216
 30
0.0
 10
1076.690888
 20
835.128816
 30
0.0
 10
1084.240248
 20
872.201696
 30
0.0
  0
SPLINE
  5
170
100
AcDbEntity
  8
Layer_1
 62
7
100
AcDbSpline
 70
8
 71
3
 72
8
 73
4
 74
0
 40
0
 40
0
 40
0
 40
0
 40
1
 40
1
 40
1
 40
1
 10
1084.240248
 20
872.201696
 30
0.0
 10
1084.613528
 20
873.733936
 30
0.0
 10
1084.639528
 20
874.249696
 30
0.0
 10
1084.640648
 20
875.879376
 30
0.0
  0
SPLINE
  5
171
100
AcDbEntity
  8
Layer_1
 62
7
100
AcDbSpline
 70
8
 71
3
 72
8
 73
4
 74
0
 40
0
 40
0
 40
0
 40
0
 40
1
 40
1
 40
1
 40
1
 10
1084.640648
 20
875.879376
 30
0.0
 10
1084.547528
 20
880.219776
 30
0.0
 10
1083.005528
 20
883.347376
 30
0.0
 10
1079.840648
 20
886.579376
 30
0.0
  0
SPLINE
  5
172
100
AcDbEntity
  8
Layer_1
 62
7
100
AcDbSpline
 70
8
 71
3
 72
8
 73
4
 74
0
 40
0
 40
0
 40
0
 40
0
 40
1
 40
1
 40
1
 40
1
 10
1079.840648
 20
886.579376
 30
0.0
 10
1076.981768
 20
888.934336
 30
0.0
 10
1073.822568
 20
890.008656
 30
0.0
 10
1070.425048
 20
890.074736
 30
0.0
  0
SPLINE
  5
173
100
AcDbEntity
  8
Layer_1
 62
7
100
AcDbSpline
 70
8
 71
3
 72
8
 73
4
 74
0
 40
0
 40
0
 40
0
 40
0
 40
1
 40
1
 40
1
 40
1
 10
1070.425048
 20
890.074736
 30
0.0
 10
1019.849544
 20
899.484496
 30
0.0
 10
1011.072384
 20
953.636496
 30
0.0
 10
1004.915616
 20
993.296576
 30
0.0
  0
SPLINE
  5
174
100
AcDbEntity
  8
Layer_1
 62
7
100
AcDbSpline
 70
8
 71
3
 72
8
 73
4
 74
0
 40
0
 40
0
 40
0
 40
0
 40
1
 40
1
 40
1
 40
1
 10
1004.915616
 20
993.296576
 30
0.0
 10
1004.698976
 20
994.902016
 30
0.0
 10
1002.916240
 20
997.813056
 30
0.0
 10
1001.735928
 20
998.759056
 30
0.0
  0
LWPOLYLINE
  5
175
100
AcDbEntity
  8
Layer_1
 62
7
100
AcDbPolyline
 90
2
 70
0
 10
1001.365848
 20
675.829376
 30
0.0
 10
1001.689288
 20
676.149696
 30
0.0
  0
SPLINE
  5
176
100
AcDbEntity
  8
Layer_1
 62
7
100
AcDbSpline
 70
8
 71
3
 72
8
 73
4
 74
0
 40
0
 40
0
 40
0
 40
0
 40
1
 40
1
 40
1
 40
1
 10
1001.412496
 20
999.079376
 30
0.0
 10
1001.290688
 20
999.185056
 30
0.0
 10
1001.155560
 20
999.282656
 30
0.0
 10
1001.026552
 20
999.384096
 30
0.0
  0
SPLINE
  5
177
100
AcDbEntity
  8
Layer_1
 62
7
100
AcDbSpline
 70
8
 71
3
 72
8
 73
4
 74
0
 40
0
 40
0
 40
0
 40
0
 40
1
 40
1
 40
1
 40
1
 10
1001.026552
 20
999.384096
 30
0.0
 10
1000.991752
 20
999.412096
 30
0.0
 10
1000.956872
 20
999.439296
 30
0.0
 10
1000.921864
 20
999.466896
 30
0.0
  0
SPLINE
  5
178
100
AcDbEntity
  8
Layer_1
 62
7
100
AcDbSpline
 70
8
 71
3
 72
8
 73
4
 74
0
 40
0
 40
0
 40
0
 40
0
 40
1
 40
1
 40
1
 40
1
 10
1000.921864
 20
999.466896
 30
0.0
 10
1000.738920
 20
999.606896
 30
0.0
 10
1000.550152
 20
999.740896
 30
0.0
 10
1000.354680
 20
999.871536
 30
0.0
  0
SPLINE
  5
179
100
AcDbEntity
  8
Layer_1
 62
7
100
AcDbSpline
 70
8
 71
3
 72
8
 73
4
 74
0
 40
0
 40
0
 40
0
 40
0
 40
1
 40
1
 40
1
 40
1
 10
1000.354680
 20
999.871536
 30
0.0
 10
999.672816
 20
1000.340496
 30
0.0
 10
998.942720
 20
1000.727536
 30
0.0
 10
998.181240
 20
1001.035616
 30
0.0
  0
SPLINE
  5
17a
100
AcDbEntity
  8
Layer_1
 62
7
100
AcDbSpline
 70
8
 71
3
 72
8
 73
4
 74
0
 40
0
 40
0
 40
0
 40
0
 40
1
 40
1
 40
1
 40
1
 10
998.181240
 20
1001.035616
 30
0.0
 10
989.530560
 20
1005.185216
 30
0.0
 10
967.442272
 20
1007.936176
 30
0.0
 10
942.754680
 20
1007.938736
 30
0.0
  0
SPLINE
  5
17b
100
AcDbEntity
  8
Layer_1
 62
7
100
AcDbSpline
 70
8
 71
3
 72
8
 73
4
 74
0
 40
0
 40
0
 40
0
 40
0
 40
1
 40
1
 40
1
 40
1
 10
942.754680
 20
1007.938736
 30
0.0
 10
912.755816
 20
1007.930736
 30
0.0
 10
887.512760
 20
1003.905536
 30
0.0
 10
883.992184
 20
998.559056
 30
0.0
  0
SPLINE
  5
17c
100
AcDbEntity
  8
Layer_1
 62
7
100
AcDbSpline
 70
8
 71
3
 72
8
 73
4
 74
0
 40
0
 40
0
 40
0
 40
0
 40
1
 40
1
 40
1
 40
1
 10
883.992184
 20
998.559056
 30
0.0
 10
881.852808
 20
996.493696
 30
0.0
 10
881.157192
 20
994.525456
 30
0.0
 10
880.740616
 20
992.741856
 30
0.0
  0
SPLINE
  5
17d
100
AcDbEntity
  8
Layer_1
 62
7
100
AcDbSpline
 70
8
 71
3
 72
8
 73
4
 74
0
 40
0
 40
0
 40
0
 40
0
 40
1
 40
1
 40
1
 40
1
 10
880.740616
 20
992.741856
 30
0.0
 10
876.136816
 20
951.306416
 30
0.0
 10
864.651792
 20
898.390896
 30
0.0
 10
812.540616
 20
889.824736
 30
0.0
  0
SPLINE
  5
17e
100
AcDbEntity
  8
Layer_1
 62
7
100
AcDbSpline
 70
8
 71
3
 72
8
 73
4
 74
0
 40
0
 40
0
 40
0
 40
0
 40
1
 40
1
 40
1
 40
1
 10
812.540616
 20
889.824736
 30
0.0
 10
809.337400
 20
888.845856
 30
0.0
 10
808.818536
 20
888.702096
 30
0.0
 10
806.059368
 20
886.571536
 30
0.0
  0
SPLINE
  5
17f
100
AcDbEntity
  8
Layer_1
 62
7
100
AcDbSpline
 70
8
 71
3
 72
8
 73
4
 74
0
 40
0
 40
0
 40
0
 40
0
 40
1
 40
1
 40
1
 40
1
 10
806.059368
 20
886.571536
 30
0.0
 10
803.070464
 20
883.790176
 30
0.0
 10
801.781864
 20
881.555296
 30
0.0
 10
801.126048
 20
878.000736
 30
0.0
  0
SPLINE
  5
180
100
AcDbEntity
  8
Layer_1
 62
7
100
AcDbSpline
 70
8
 71
3
 72
8
 73
4
 74
0
 40
0
 40
0
 40
0
 40
0
 40
1
 40
1
 40
1
 40
1
 10
801.126048
 20
878.000736
 30
0.0
 10
800.995552
 20
877.442256
 30
0.0
 10
800.941912
 20
876.926896
 30
0.0
 10
800.947704
 20
876.371856
 30
0.0
  0
SPLINE
  5
181
100
AcDbEntity
  8
Layer_1
 62
7
100
AcDbSpline
 70
8
 71
3
 72
8
 73
4
 74
0
 40
0
 40
0
 40
0
 40
0
 40
1
 40
1
 40
1
 40
1
 10
800.947704
 20
876.371856
 30
0.0
 10
800.947704
 20
876.371856
 30
0.0
 10
800.931144
 20
875.258256
 30
0.0
 10
800.931864
 20
875.199296
 30
0.0
  0
SPLINE
  5
182
100
AcDbEntity
  8
Layer_1
 62
7
100
AcDbSpline
 70
8
 71
3
 72
8
 73
4
 74
0
 40
0
 40
0
 40
0
 40
0
 40
1
 40
1
 40
1
 40
1
 10
800.931864
 20
875.199296
 30
0.0
 10
800.954824
 20
874.107056
 30
0.0
 10
801.133432
 20
873.144496
 30
0.0
 10
801.357000
 20
872.219376
 30
0.0
  0
SPLINE
  5
183
100
AcDbEntity
  8
Layer_1
 62
7
100
AcDbSpline
 70
8
 71
3
 72
8
 73
4
 74
0
 40
0
 40
0
 40
0
 40
0
 40
1
 40
1
 40
1
 40
1
 10
801.357000
 20
872.219376
 30
0.0
 10
809.233752
 20
834.896416
 30
0.0
 10
809.209032
 20
804.139296
 30
0.0
 10
801.466984
 20
766.816336
 30
0.0
  0
SPLINE
  5
184
100
AcDbEntity
  8
Layer_1
 62
7
100
AcDbSpline
 70
8
 71
3
 72
8
 73
4
 74
0
 40
0
 40
0
 40
0
 40
0
 40
1
 40
1
 40
1
 40
1
 10
801.466984
 20
766.816336
 30
0.0
 10
801.216272
 20
765.630736
 30
0.0
 10
801.101216
 20
764.541936
 30
0.0
 10
801.129720
 20
763.735616
 30
0.0
  0
LWPOLYLINE
  5
185
100
AcDbEntity
  8
Layer_1
 62
7
100
AcDbPolyline
 90
2
 70
0
 10
1001.735928
 20
998.759056
 30
0.0
 10
1001.412496
 20
999.079376
 30
0.0
  0
SPLINE
  5
186
100
AcDbEntity
  8
Layer_1
 62
7
100
AcDbSpline
 70
8
 71
3
 72
8
 73
4
 74
0
 40
0
 40
0
 40
0
 40
0
 40
1
 40
1
 40
1
 40
1
 10
801.129960
 20
763.734816
 30
0.0
 10
801.133160
 20
759.632016
 30
0.0
 10
802.914328
 20
755.731936
 30
0.0
 10
806.012776
 20
753.042576
 30
0.0
  0
SPLINE
  5
187
100
AcDbEntity
  8
Layer_1
 62
7
100
AcDbSpline
 70
8
 71
3
 72
8
 73
4
 74
0
 40
0
 40
0
 40
0
 40
0
 40
1
 40
1
 40
1
 40
1
 10
806.012776
 20
753.042576
 30
0.0
 10
808.771944
 20
750.912016
 30
0.0
 10
809.292368
 20
750.768336
 30
0.0
 10
812.495584
 20
749.789456
 30
0.0
  0
SPLINE
  5
188
100
AcDbEntity
  8
Layer_1
 62
7
100
AcDbSpline
 70
8
 71
3
 72
8
 73
4
 74
0
 40
0
 40
0
 40
0
 40
0
 40
1
 40
1
 40
1
 40
1
 10
812.495584
 20
749.789456
 30
0.0
 10
854.090272
 20
740.566016
 30
0.0
 10
869.620744
 20
723.094016
 30
0.0
 10
880.744024
 20
682.066016
 30
0.0
  0
SPLINE
  5
189
100
AcDbEntity
  8
Layer_1
 62
7
100
AcDbSpline
 70
8
 71
3
 72
8
 73
4
 74
0
 40
0
 40
0
 40
0
 40
0
 40
1
 40
1
 40
1
 40
1
 10
880.744024
 20
682.066016
 30
0.0
 10
881.241808
 20
679.934816
 30
0.0
 10
882.109952
 20
677.541696
 30
0.0
 10
885.403400
 20
675.031616
 30
0.0
  0
SPLINE
  5
18a
100
AcDbEntity
  8
Layer_1
 62
7
100
AcDbSpline
 70
8
 71
3
 72
8
 73
4
 74
0
 40
0
 40
0
 40
0
 40
0
 40
1
 40
1
 40
1
 40
1
 10
885.403400
 20
675.031616
 30
0.0
 10
885.443320
 20
675.005216
 30
0.0
 10
885.483440
 20
674.979616
 30
0.0
 10
885.523712
 20
674.953216
 30
0.0
  0
SPLINE
  5
18b
100
AcDbEntity
  8
Layer_1
 62
7
100
AcDbSpline
 70
8
 71
3
 72
8
 73
4
 74
0
 40
0
 40
0
 40
0
 40
0
 40
1
 40
1
 40
1
 40
1
 10
885.523712
 20
674.953216
 30
0.0
 10
885.770800
 20
674.787776
 30
0.0
 10
886.029096
 20
674.628416
 30
0.0
 10
886.303400
 20
674.475136
 30
0.0
  0
SPLINE
  5
18c
100
AcDbEntity
  8
Layer_1
 62
7
100
AcDbSpline
 70
8
 71
3
 72
8
 73
4
 74
0
 40
0
 40
0
 40
0
 40
0
 40
1
 40
1
 40
1
 40
1
 10
886.303400
 20
674.475136
 30
0.0
 10
886.393880
 20
674.425536
 30
0.0
 10
886.485032
 20
674.376976
 30
0.0
 10
886.576832
 20
674.329856
 30
0.0
  0
SPLINE
  5
18d
100
AcDbEntity
  8
Layer_1
 62
7
100
AcDbSpline
 70
8
 71
3
 72
8
 73
4
 74
0
 40
0
 40
0
 40
0
 40
0
 40
1
 40
1
 40
1
 40
1
 10
886.576832
 20
674.329856
 30
0.0
 10
886.798512
 20
674.213776
 30
0.0
 10
887.025776
 20
674.103376
 30
0.0
 10
887.264336
 20
673.998576
 30
0.0
  0
SPLINE
  5
18e
100
AcDbEntity
  8
Layer_1
 62
7
100
AcDbSpline
 70
8
 71
3
 72
8
 73
4
 74
0
 40
0
 40
0
 40
0
 40
0
 40
1
 40
1
 40
1
 40
1
 10
887.264336
 20
673.998576
 30
0.0
 10
887.404816
 20
673.937776
 30
0.0
 10
887.546512
 20
673.880096
 30
0.0
 10
887.689336
 20
673.825136
 30
0.0
  0
SPLINE
  5
18f
100
AcDbEntity
  8
Layer_1
 62
7
100
AcDbSpline
 70
8
 71
3
 72
8
 73
4
 74
0
 40
0
 40
0
 40
0
 40
0
 40
1
 40
1
 40
1
 40
1
 10
887.689336
 20
673.825136
 30
0.0
 10
887.877456
 20
673.751536
 30
0.0
 10
888.066424
 20
673.679376
 30
0.0
 10
888.264336
 20
673.614176
 30
0.0
  0
SPLINE
  5
190
100
AcDbEntity
  8
Layer_1
 62
7
100
AcDbSpline
 70
8
 71
3
 72
8
 73
4
 74
0
 40
0
 40
0
 40
0
 40
0
 40
1
 40
1
 40
1
 40
1
 10
888.264336
 20
673.614176
 30
0.0
 10
888.482632
 20
673.542976
 30
0.0
 10
888.703048
 20
673.478336
 30
0.0
 10
888.925272
 20
673.420416
 30
0.0
  0
SPLINE
  5
191
100
AcDbEntity
  8
Layer_1
 62
7
100
AcDbSpline
 70
8
 71
3
 72
8
 73
4
 74
0
 40
0
 40
0
 40
0
 40
0
 40
1
 40
1
 40
1
 40
1
 10
888.925272
 20
673.420416
 30
0.0
 10
889.060240
 20
673.385216
 30
0.0
 10
889.192416
 20
673.346816
 30
0.0
 10
889.331520
 20
673.315776
 30
0.0
  0
SPLINE
  5
192
100
AcDbEntity
  8
Layer_1
 62
7
100
AcDbSpline
 70
8
 71
3
 72
8
 73
4
 74
0
 40
0
 40
0
 40
0
 40
0
 40
1
 40
1
 40
1
 40
1
 10
889.331520
 20
673.315776
 30
0.0
 10
889.667704
 20
673.240576
 30
0.0
 10
890.007120
 20
673.181536
 30
0.0
 10
890.348712
 20
673.137616
 30
0.0
  0
SPLINE
  5
193
100
AcDbEntity
  8
Layer_1
 62
7
100
AcDbSpline
 70
8
 71
3
 72
8
 73
4
 74
0
 40
0
 40
0
 40
0
 40
0
 40
1
 40
1
 40
1
 40
1
 10
890.348712
 20
673.137616
 30
0.0
 10
890.401592
 20
673.129616
 30
0.0
 10
890.451528
 20
673.119216
 30
0.0
 10
890.504960
 20
673.112816
 30
0.0
  0
SPLINE
  5
194
100
AcDbEntity
  8
Layer_1
 62
7
100
AcDbSpline
 70
8
 71
3
 72
8
 73
4
 74
0
 40
0
 40
0
 40
0
 40
0
 40
1
 40
1
 40
1
 40
1
 10
890.504960
 20
673.112816
 30
0.0
 10
890.947160
 20
673.058416
 30
0.0
 10
891.392200
 20
673.029296
 30
0.0
 10
891.837776
 20
673.026896
 30
0.0
  0
SPLINE
  5
195
100
AcDbEntity
  8
Layer_1
 62
7
100
AcDbSpline
 70
8
 71
3
 72
8
 73
4
 74
0
 40
0
 40
0
 40
0
 40
0
 40
1
 40
1
 40
1
 40
1
 10
891.837776
 20
673.026896
 30
0.0
 10
892.161232
 20
673.026896
 30
0.0
 10
892.484448
 20
673.045296
 30
0.0
 10
892.806520
 20
673.075696
 30
0.0
  0
SPLINE
  5
196
100
AcDbEntity
  8
Layer_1
 62
7
100
AcDbSpline
 70
8
 71
3
 72
8
 73
4
 74
0
 40
0
 40
0
 40
0
 40
0
 40
1
 40
1
 40
1
 40
1
 10
892.806520
 20
673.075696
 30
0.0
 10
893.012560
 20
673.093296
 30
0.0
 10
893.214712
 20
673.120496
 30
0.0
 10
893.417456
 20
673.149296
 30
0.0
  0
SPLINE
  5
197
100
AcDbEntity
  8
Layer_1
 62
7
100
AcDbSpline
 70
8
 71
3
 72
8
 73
4
 74
0
 40
0
 40
0
 40
0
 40
0
 40
1
 40
1
 40
1
 40
1
 10
893.417456
 20
673.149296
 30
0.0
 10
893.585720
 20
673.170896
 30
0.0
 10
893.753472
 20
673.196496
 30
0.0
 10
893.920584
 20
673.226096
 30
0.0
  0
SPLINE
  5
198
100
AcDbEntity
  8
Layer_1
 62
7
100
AcDbSpline
 70
8
 71
3
 72
8
 73
4
 74
0
 40
0
 40
0
 40
0
 40
0
 40
1
 40
1
 40
1
 40
1
 10
893.920584
 20
673.226096
 30
0.0
 10
894.140296
 20
673.266896
 30
0.0
 10
894.355520
 20
673.319616
 30
0.0
 10
894.570584
 20
673.372976
 30
0.0
  0
SPLINE
  5
199
100
AcDbEntity
  8
Layer_1
 62
7
100
AcDbSpline
 70
8
 71
3
 72
8
 73
4
 74
0
 40
0
 40
0
 40
0
 40
0
 40
1
 40
1
 40
1
 40
1
 10
894.570584
 20
673.372976
 30
0.0
 10
894.713992
 20
673.406576
 30
0.0
 10
894.856728
 20
673.443376
 30
0.0
 10
894.998712
 20
673.482336
 30
0.0
  0
SPLINE
  5
19a
100
AcDbEntity
  8
Layer_1
 62
7
100
AcDbSpline
 70
8
 71
3
 72
8
 73
4
 74
0
 40
0
 40
0
 40
0
 40
0
 40
1
 40
1
 40
1
 40
1
 10
894.998712
 20
673.482336
 30
0.0
 10
895.230784
 20
673.549536
 30
0.0
 10
895.457408
 20
673.628976
 30
0.0
 10
895.683088
 20
673.710496
 30
0.0
  0
SPLINE
  5
19b
100
AcDbEntity
  8
Layer_1
 62
7
100
AcDbSpline
 70
8
 71
3
 72
8
 73
4
 74
0
 40
0
 40
0
 40
0
 40
0
 40
1
 40
1
 40
1
 40
1
 10
895.683088
 20
673.710496
 30
0.0
 10
895.808352
 20
673.753696
 30
0.0
 10
895.932848
 20
673.798896
 30
0.0
 10
896.056520
 20
673.846416
 30
0.0
  0
SPLINE
  5
19c
100
AcDbEntity
  8
Layer_1
 62
7
100
AcDbSpline
 70
8
 71
3
 72
8
 73
4
 74
0
 40
0
 40
0
 40
0
 40
0
 40
1
 40
1
 40
1
 40
1
 10
896.056520
 20
673.846416
 30
0.0
 10
896.275536
 20
673.934336
 30
0.0
 10
896.488272
 20
674.032976
 30
0.0
 10
896.700272
 20
674.133936
 30
0.0
  0
SPLINE
  5
19d
100
AcDbEntity
  8
Layer_1
 62
7
100
AcDbSpline
 70
8
 71
3
 72
8
 73
4
 74
0
 40
0
 40
0
 40
0
 40
0
 40
1
 40
1
 40
1
 40
1
 10
896.700272
 20
674.133936
 30
0.0
 10
896.831672
 20
674.194736
 30
0.0
 10
896.961904
 20
674.257456
 30
0.0
 10
897.090896
 20
674.322976
 30
0.0
  0
SPLINE
  5
19e
100
AcDbEntity
  8
Layer_1
 62
7
100
AcDbSpline
 70
8
 71
3
 72
8
 73
4
 74
0
 40
0
 40
0
 40
0
 40
0
 40
1
 40
1
 40
1
 40
1
 10
897.090896
 20
674.322976
 30
0.0
 10
897.285248
 20
674.424816
 30
0.0
 10
897.472136
 20
674.536976
 30
0.0
 10
897.659648
 20
674.649536
 30
0.0
  0
SPLINE
  5
19f
100
AcDbEntity
  8
Layer_1
 62
7
100
AcDbSpline
 70
8
 71
3
 72
8
 73
4
 74
0
 40
0
 40
0
 40
0
 40
0
 40
1
 40
1
 40
1
 40
1
 10
897.659648
 20
674.649536
 30
0.0
 10
897.794104
 20
674.727936
 30
0.0
 10
897.926952
 20
674.808256
 30
0.0
 10
898.058088
 20
674.891696
 30
0.0
  0
SPLINE
  5
1a0
100
AcDbEntity
  8
Layer_1
 62
7
100
AcDbSpline
 70
8
 71
3
 72
8
 73
4
 74
0
 40
0
 40
0
 40
0
 40
0
 40
1
 40
1
 40
1
 40
1
 10
898.058088
 20
674.891696
 30
0.0
 10
898.235320
 20
675.008336
 30
0.0
 10
898.405160
 20
675.134416
 30
0.0
 10
898.575272
 20
675.260496
 30
0.0
  0
SPLINE
  5
1a1
100
AcDbEntity
  8
Layer_1
 62
7
100
AcDbSpline
 70
8
 71
3
 72
8
 73
4
 74
0
 40
0
 40
0
 40
0
 40
0
 40
1
 40
1
 40
1
 40
1
 10
898.575272
 20
675.260496
 30
0.0
 10
898.706496
 20
675.354576
 30
0.0
 10
898.835696
 20
675.451456
 30
0.0
 10
898.962776
 20
675.551056
 30
0.0
  0
SPLINE
  5
1a2
100
AcDbEntity
  8
Layer_1
 62
7
100
AcDbSpline
 70
8
 71
3
 72
8
 73
4
 74
0
 40
0
 40
0
 40
0
 40
0
 40
1
 40
1
 40
1
 40
1
 10
898.962776
 20
675.551056
 30
0.0
 10
899.124880
 20
675.682256
 30
0.0
 10
899.276976
 20
675.823856
 30
0.0
 10
899.431520
 20
675.963616
 30
0.0
  0
SPLINE
  5
1a3
100
AcDbEntity
  8
Layer_1
 62
7
100
AcDbSpline
 70
8
 71
3
 72
8
 73
4
 74
0
 40
0
 40
0
 40
0
 40
0
 40
1
 40
1
 40
1
 40
1
 10
899.431520
 20
675.963616
 30
0.0
 10
899.554176
 20
676.070336
 30
0.0
 10
899.674520
 20
676.179776
 30
0.0
 10
899.792464
 20
676.291696
 30
0.0
  0
SPLINE
  5
1a4
100
AcDbEntity
  8
Layer_1
 62
7
100
AcDbSpline
 70
8
 71
3
 72
8
 73
4
 74
0
 40
0
 40
0
 40
0
 40
0
 40
1
 40
1
 40
1
 40
1
 10
899.792464
 20
676.291696
 30
0.0
 10
899.969464
 20
676.466096
 30
0.0
 10
900.134984
 20
676.651376
 30
0.0
 10
900.300272
 20
676.837056
 30
0.0
  0
SPLINE
  5
1a5
100
AcDbEntity
  8
Layer_1
 62
7
100
AcDbSpline
 70
8
 71
3
 72
8
 73
4
 74
0
 40
0
 40
0
 40
0
 40
0
 40
1
 40
1
 40
1
 40
1
 10
900.300272
 20
676.837056
 30
0.0
 10
900.378672
 20
676.920736
 30
0.0
 10
900.455728
 20
677.005616
 30
0.0
 10
900.531520
 20
677.091696
 30
0.0
  0
SPLINE
  5
1a6
100
AcDbEntity
  8
Layer_1
 62
7
100
AcDbSpline
 70
8
 71
3
 72
8
 73
4
 74
0
 40
0
 40
0
 40
0
 40
0
 40
1
 40
1
 40
1
 40
1
 10
900.531520
 20
677.091696
 30
0.0
 10
900.714056
 20
677.309616
 30
0.0
 10
900.882712
 20
677.538496
 30
0.0
 10
901.048712
 20
677.769856
 30
0.0
  0
SPLINE
  5
1a7
100
AcDbEntity
  8
Layer_1
 62
7
100
AcDbSpline
 70
8
 71
3
 72
8
 73
4
 74
0
 40
0
 40
0
 40
0
 40
0
 40
1
 40
1
 40
1
 40
1
 10
901.048712
 20
677.769856
 30
0.0
 10
901.102712
 20
677.841056
 30
0.0
 10
901.155816
 20
677.912976
 30
0.0
 10
901.208088
 20
677.985456
 30
0.0
  0
SPLINE
  5
1a8
100
AcDbEntity
  8
Layer_1
 62
7
100
AcDbSpline
 70
8
 71
3
 72
8
 73
4
 74
0
 40
0
 40
0
 40
0
 40
0
 40
1
 40
1
 40
1
 40
1
 10
901.208088
 20
677.985456
 30
0.0
 10
902.245184
 20
679.505456
 30
0.0
 10
902.923360
 20
681.288896
 30
0.0
 10
903.117456
 20
683.216736
 30
0.0
  0
SPLINE
  5
1a9
100
AcDbEntity
  8
Layer_1
 62
7
100
AcDbSpline
 70
8
 71
3
 72
8
 73
4
 74
0
 40
0
 40
0
 40
0
 40
0
 40
1
 40
1
 40
1
 40
1
 10
903.117456
 20
683.216736
 30
0.0
 10
903.156656
 20
683.598256
 30
0.0
 10
903.176496
 20
683.981616
 30
0.0
 10
903.176816
 20
684.365136
 30
0.0
  0
LWPOLYLINE
  5
1aa
100
AcDbEntity
  8
Layer_1
 62
7
100
AcDbPolyline
 90
2
 70
0
 10
801.129720
 20
763.735616
 30
0.0
 10
801.129960
 20
763.734816
 30
0.0
  0
SPLINE
  5
1ab
100
AcDbEntity
  8
Layer_1
 62
7
100
AcDbSpline
 70
8
 71
3
 72
8
 73
4
 74
0
 40
0
 40
0
 40
0
 40
0
 40
1
 40
1
 40
1
 40
1
 10
903.236176
 20
735.281456
 30
0.0
 10
903.236176
 20
736.878896
 30
0.0
 10
904.523176
 20
738.164336
 30
0.0
 10
906.120552
 20
738.164336
 30
0.0
  0
LWPOLYLINE
  5
1ac
100
AcDbEntity
  8
Layer_1
 62
7
100
AcDbPolyline
 90
3
 70
0
 10
903.176816
 20
684.365136
 30
0.0
 10
903.236176
 20
684.365136
 30
0.0
 10
903.236176
 20
735.281456
 30
0.0
  0
LWPOLYLINE
  5
1ad
100
AcDbEntity
  8
Layer_1
 62
7
100
AcDbPolyline
 90
2
 70
0
 10
906.120552
 20
738.164336
 30
0.0
 10
940.337344
 20
738.164336
 30
0.0
  0
LWPOLYLINE
  5
1ae
100
AcDbEntity
  8
Layer_1
 62
7
100
AcDbPolyline
 90
5
 70
1
 10
905.506088
 20
877.827616
 30
0.0
 10
905.506088
 20
926.016590
 30
0.0
 10
982.041519
 20
926.016590
 30
0.0
 10
982.041519
 20
877.827616
 30
0.0
 10
905.506088
 20
877.827616
 30
0.0
  0
LWPOLYLINE
  5
1af
100
AcDbEntity
  8
Layer_1
 62
7
100
AcDbPolyline
 90
5
 70
1
 10
903.176504
 20
928.144216
 30
0.0
 10
903.176504
 20
947.986734
 30
0.0
 10
914.515086
 20
947.986734
 30
0.0
 10
914.515086
 20
928.144216
 30
0.0
 10
903.176504
 20
928.144216
 30
0.0
  0
LWPOLYLINE
  5
1b0
100
AcDbEntity
  8
Layer_1
 62
7
100
AcDbPolyline
 90
5
 70
1
 10
921.896768
 20
751.169296
 30
0.0
 10
921.896768
 20
759.673233
 30
0.0
 10
964.416452
 20
759.673233
 30
0.0
 10
964.416452
 20
751.169296
 30
0.0
 10
921.896768
 20
751.169296
 30
0.0
  0
LWPOLYLINE
  5
1b1
100
AcDbEntity
  8
Layer_1
 62
7
100
AcDbPolyline
 90
5
 70
1
 10
921.896768
 20
858.885816
 30
0.0
 10
921.896768
 20
867.389753
 30
0.0
 10
964.416452
 20
867.389753
 30
0.0
 10
964.416452
 20
858.885816
 30
0.0
 10
921.896768
 20
858.885816
 30
0.0
  0
SPLINE
  5
1b2
100
AcDbEntity
  8
Layer_1
 62
7
100
AcDbSpline
 70
8
 71
3
 72
8
 73
4
 74
0
 40
0
 40
0
 40
0
 40
0
 40
1
 40
1
 40
1
 40
1
 10
1140.535229
 20
1067.972576
 30
0.0
 10
1140.535229
 20
1064.965394
 30
0.0
 10
1141.729832
 20
1062.081379
 30
0.0
 10
1143.856238
 20
1059.954987
 30
0.0
  0
SPLINE
  5
1b3
100
AcDbEntity
  8
Layer_1
 62
7
100
AcDbSpline
 70
8
 71
3
 72
8
 73
4
 74
0
 40
0
 40
0
 40
0
 40
0
 40
1
 40
1
 40
1
 40
1
 10
1143.856238
 20
1059.954987
 30
0.0
 10
1145.982643
 20
1057.828595
 30
0.0
 10
1148.866666
 20
1056.634010
 30
0.0
 10
1151.873848
 20
1056.634029
 30
0.0
  0
SPLINE
  5
1b4
100
AcDbEntity
  8
Layer_1
 62
7
100
AcDbSpline
 70
8
 71
3
 72
8
 73
4
 74
0
 40
0
 40
0
 40
0
 40
0
 40
1
 40
1
 40
1
 40
1
 10
1151.873848
 20
1079.311340
 30
0.0
 10
1148.866628
 20
1079.311359
 30
0.0
 10
1145.982573
 20
1078.116744
 30
0.0
 10
1143.856161
 20
1075.990305
 30
0.0
  0
SPLINE
  5
1b5
100
AcDbEntity
  8
Layer_1
 62
7
100
AcDbSpline
 70
8
 71
3
 72
8
 73
4
 74
0
 40
0
 40
0
 40
0
 40
0
 40
1
 40
1
 40
1
 40
1
 10
1143.856161
 20
1075.990305
 30
0.0
 10
1141.729749
 20
1073.863866
 30
0.0
 10
1140.535171
 20
1070.979796
 30
0.0
 10
1140.535229
 20
1067.972576
 30
0.0
  0
SPLINE
  5
1b6
100
AcDbEntity
  8
Layer_1
 62
7
100
AcDbSpline
 70
8
 71
3
 72
8
 73
4
 74
0
 40
0
 40
0
 40
0
 40
0
 40
1
 40
1
 40
1
 40
1
 10
1217.070352
 20
1056.634029
 30
0.0
 10
1220.077521
 20
1056.634029
 30
0.0
 10
1222.961525
 20
1057.828622
 30
0.0
 10
1225.087915
 20
1059.955013
 30
0.0
  0
SPLINE
  5
1b7
100
AcDbEntity
  8
Layer_1
 62
7
100
AcDbSpline
 70
8
 71
3
 72
8
 73
4
 74
0
 40
0
 40
0
 40
0
 40
0
 40
1
 40
1
 40
1
 40
1
 10
1225.087915
 20
1059.955013
 30
0.0
 10
1227.214305
 20
1062.081403
 30
0.0
 10
1228.408899
 20
1064.965407
 30
0.0
 10
1228.408899
 20
1067.972576
 30
0.0
  0
SPLINE
  5
1b8
100
AcDbEntity
  8
Layer_1
 62
7
100
AcDbSpline
 70
8
 71
3
 72
8
 73
4
 74
0
 40
0
 40
0
 40
0
 40
0
 40
1
 40
1
 40
1
 40
1
 10
1228.408899
 20
1067.972576
 30
0.0
 10
1228.408956
 20
1070.979784
 30
0.0
 10
1227.214388
 20
1073.863843
 30
0.0
 10
1225.087992
 20
1075.990280
 30
0.0
  0
SPLINE
  5
1b9
100
AcDbEntity
  8
Layer_1
 62
7
100
AcDbSpline
 70
8
 71
3
 72
8
 73
4
 74
0
 40
0
 40
0
 40
0
 40
0
 40
1
 40
1
 40
1
 40
1
 10
1225.087992
 20
1075.990280
 30
0.0
 10
1222.961595
 20
1078.116717
 30
0.0
 10
1220.077559
 20
1079.311340
 30
0.0
 10
1217.070352
 20
1079.311340
 30
0.0
  0
LWPOLYLINE
  5
1ba
100
AcDbEntity
  8
Layer_1
 62
3
100
AcDbPolyline
 90
2
 70
0
 10
940.315832
 20
738.109056
 30
0.0
 10
942.904648
 20
738.146656
 30
0.0
  0
LWPOLYLINE
  5
1bb
100
AcDbEntity
  8
Layer_1
 62
7
100
AcDbPolyline
 90
2
 70
0
 10
1215.650513
 20
1056.634749
 30
0.0
 10
1217.068912
 20
1056.634749
 30
0.0
  0
LWPOLYLINE
  5
1bc
100
AcDbEntity
  8
Layer_1
 62
7
100
AcDbPolyline
 90
2
 70
0
 10
1215.650513
 20
1079.314724
 30
0.0
 10
1217.068912
 20
1079.314724
 30
0.0
  0
LWPOLYLINE
  5
1bd
100
AcDbEntity
  8
Layer_1
 62
7
100
AcDbPolyline
 90
2
 70
0
 10
1151.872984
 20
1056.634749
 30
0.0
 10
1153.284182
 20
1056.634749
 30
0.0
  0
LWPOLYLINE
  5
1be
100
AcDbEntity
  8
Layer_1
 62
7
100
AcDbPolyline
 90
2
 70
0
 10
1153.284182
 20
1079.314724
 30
0.0
 10
1151.872984
 20
1079.314724
 30
0.0
  0
SPLINE
  5
1bf
100
AcDbEntity
  8
Layer_1
 62
7
100
AcDbSpline
 70
8
 71
3
 72
8
 73
4
 74
0
 40
0
 40
0
 40
0
 40
0
 40
1
 40
1
 40
1
 40
1
 10
1184.507351
 20
1103.471253
 30
0.0
 10
1171.800019
 20
1103.036024
 30
0.0
 10
1160.896308
 20
1097.916100
 30
0.0
 10
1153.266504
 20
1083.000512
 30
0.0
  0
SPLINE
  5
1c0
100
AcDbEntity
  8
Layer_1
 62
7
100
AcDbSpline
 70
8
 71
3
 72
8
 73
4
 74
0
 40
0
 40
0
 40
0
 40
0
 40
1
 40
1
 40
1
 40
1
 10
1215.629799
 20
1082.518271
 30
0.0
 10
1209.313008
 20
1096.423224
 30
0.0
 10
1198.484760
 20
1102.755837
 30
0.0
 10
1184.631097
 20
1103.471253
 30
0.0
  0
LWPOLYLINE
  5
1c1
100
AcDbEntity
  8
Layer_1
 62
7
100
AcDbPolyline
 90
2
 70
0
 10
1153.284182
 20
1082.965156
 30
0.0
 10
1153.284182
 20
1079.314724
 30
0.0
  0
LWPOLYLINE
  5
1c2
100
AcDbEntity
  8
Layer_1
 62
7
100
AcDbPolyline
 90
2
 70
0
 10
1215.650513
 20
1079.314724
 30
0.0
 10
1215.632837
 20
1082.462205
 30
0.0
  0
LWPOLYLINE
  5
1c3
100
AcDbEntity
  8
Layer_1
 62
7
100
AcDbPolyline
 90
2
 70
0
 10
1215.650513
 20
1036.840855
 30
0.0
 10
1215.608436
 20
1045.314684
 30
0.0
  0
LWPOLYLINE
  5
1c4
100
AcDbEntity
  8
Layer_1
 62
7
100
AcDbPolyline
 90
2
 70
0
 10
1153.284182
 20
1036.798771
 30
0.0
 10
1181.621241
 20
1036.851806
 30
0.0
  0
LWPOLYLINE
  5
1c5
100
AcDbEntity
  8
Layer_1
 62
7
100
AcDbPolyline
 90
2
 70
0
 10
1181.665528
 20
1036.858531
 30
0.0
 10
1215.650513
 20
1036.798771
 30
0.0
  0
LWPOLYLINE
  5
1c6
100
AcDbEntity
  8
Layer_1
 62
7
100
AcDbPolyline
 90
2
 70
0
 10
1153.284182
 20
1036.798771
 30
0.0
 10
1153.284182
 20
1056.634749
 30
0.0
  0
LWPOLYLINE
  5
1c7
100
AcDbEntity
  8
Layer_1
 62
3
100
AcDbPolyline
 90
2
 70
0
 10
1215.630865
 20
1053.797103
 30
0.0
 10
1215.688065
 20
1045.212367
 30
0.0
  0
LWPOLYLINE
  5
1c8
100
AcDbEntity
  8
Layer_1
 62
7
100
AcDbPolyline
 90
2
 70
0
 10
1215.608425
 20
1053.707295
 30
0.0
 10
1215.608417
 20
1056.668383
 30
0.0
  0
LWPOLYLINE
  5
1c9
100
AcDbEntity
  8
Layer_1
 62
7
100
AcDbPolyline
 90
13
 70
0
 10
1175.470542
 20
1067.906655
 30
0.0
 10
1179.934558
 20
1060.111695
 30
0.0
 10
1179.934558
 20
1060.111695
 30
0.0
 10
1188.934558
 20
1060.111695
 30
0.0
 10
1188.934558
 20
1060.111695
 30
0.0
 10
1193.470550
 20
1067.906655
 30
0.0
 10
1193.470550
 20
1067.906655
 30
0.0
 10
1188.934558
 20
1075.701695
 30
0.0
 10
1188.934558
 20
1075.701695
 30
0.0
 10
1179.934558
 20
1075.701695
 30
0.0
 10
1179.934558
 20
1075.701695
 30
0.0
 10
1175.470542
 20
1067.906655
 30
0.0
 10
1175.470542
 20
1067.906655
 30
0.0
  0
LWPOLYLINE
  5
1ca
100
AcDbEntity
  8
Layer_1
 62
7
100
AcDbPolyline
 90
26
 70
0
 10
1177.628200
 20
957.070760
 30
0.0
 10
1169.079762
 20
957.045800
 30
0.0
 10
1169.079762
 20
974.053616
 30
0.0
 10
1160.576638
 20
974.053616
 30
0.0
 10
1160.576638
 20
959.880176
 30
0.0
 10
1152.071950
 20
959.880176
 30
0.0
 10
1152.071950
 20
942.872360
 30
0.0
 10
1166.245387
 20
942.872360
 30
0.0
 10
1166.245387
 20
934.367672
 30
0.0
 10
1152.071950
 20
934.367672
 30
0.0
 10
1152.071950
 20
914.525488
 30
0.0
 10
1160.576638
 20
914.525488
 30
0.0
 10
1160.576638
 20
897.517672
 30
0.0
 10
1205.929768
 20
897.517672
 30
0.0
 10
1205.929768
 20
914.525488
 30
0.0
 10
1214.434456
 20
914.525488
 30
0.0
 10
1214.434456
 20
934.367672
 30
0.0
 10
1200.261016
 20
934.367672
 30
0.0
 10
1200.261016
 20
942.872360
 30
0.0
 10
1214.434456
 20
942.872360
 30
0.0
 10
1214.434456
 20
959.880176
 30
0.0
 10
1205.929768
 20
959.880176
 30
0.0
 10
1205.929768
 20
974.053616
 30
0.0
 10
1197.426640
 20
974.053616
 30
0.0
 10
1197.426640
 20
957.045800
 30
0.0
 10
1186.078200
 20
957.020840
 30
0.0
  0
LWPOLYLINE
  5
1cb
100
AcDbEntity
  8
Layer_1
 62
3
100
AcDbPolyline
 90
2
 70
0
 10
1186.142400
 20
957.039144
 30
0.0
 10
1177.599600
 20
957.029384
 30
0.0
  0
SPLINE
  5
1cc
100
AcDbEntity
  8
Layer_1
 62
7
100
AcDbSpline
 70
8
 71
3
 72
8
 73
4
 74
0
 40
0
 40
0
 40
0
 40
0
 40
1
 40
1
 40
1
 40
1
 10
1238.686336
 20
866.390680
 30
0.0
 10
1245.731496
 20
866.390488
 30
0.0
 10
1251.442776
 20
872.101768
 30
0.0
 10
1251.442584
 20
879.146928
 30
0.0
  0
SPLINE
  5
1cd
100
AcDbEntity
  8
Layer_1
 62
7
100
AcDbSpline
 70
8
 71
3
 72
8
 73
4
 74
0
 40
0
 40
0
 40
0
 40
0
 40
1
 40
1
 40
1
 40
1
 10
1251.442584
 20
879.146928
 30
0.0
 10
1251.442776
 20
886.192088
 30
0.0
 10
1245.731496
 20
891.903368
 30
0.0
 10
1238.686336
 20
891.903176
 30
0.0
  0
LWPOLYLINE
  5
1ce
100
AcDbEntity
  8
Layer_1
 62
7
100
AcDbPolyline
 90
7
 70
0
 10
1220.261336
 20
840.873008
 30
0.0
 10
1220.261336
 20
852.217240
 30
0.0
 10
1211.756648
 20
852.217240
 30
0.0
 10
1211.756648
 20
866.390680
 30
0.0
 10
1220.261336
 20
866.390680
 30
0.0
 10
1223.095704
 20
866.390680
 30
0.0
 10
1238.686336
 20
866.390680
 30
0.0
  0
SPLINE
  5
1cf
100
AcDbEntity
  8
Layer_1
 62
7
100
AcDbSpline
 70
8
 71
3
 72
8
 73
4
 74
0
 40
0
 40
0
 40
0
 40
0
 40
1
 40
1
 40
1
 40
1
 10
1133.805084
 20
891.903176
 30
0.0
 10
1126.759923
 20
891.903368
 30
0.0
 10
1121.048645
 20
886.192088
 30
0.0
 10
1121.048834
 20
879.146928
 30
0.0
  0
SPLINE
  5
1d0
100
AcDbEntity
  8
Layer_1
 62
7
100
AcDbSpline
 70
8
 71
3
 72
8
 73
4
 74
0
 40
0
 40
0
 40
0
 40
0
 40
1
 40
1
 40
1
 40
1
 10
1121.048834
 20
879.146928
 30
0.0
 10
1121.048645
 20
872.101768
 30
0.0
 10
1126.759923
 20
866.390488
 30
0.0
 10
1133.805084
 20
866.390680
 30
0.0
  0
LWPOLYLINE
  5
1d1
100
AcDbEntity
  8
Layer_1
 62
7
100
AcDbPolyline
 90
2
 70
0
 10
1238.686336
 20
891.903176
 30
0.0
 10
1133.805084
 20
891.903176
 30
0.0
  0
LWPOLYLINE
  5
1d2
100
AcDbEntity
  8
Layer_1
 62
7
100
AcDbPolyline
 90
13
 70
0
 10
1133.805084
 20
866.390680
 30
0.0
 10
1155.064458
 20
866.390680
 30
0.0
 10
1157.898834
 20
866.390680
 30
0.0
 10
1166.403522
 20
866.390680
 30
0.0
 10
1166.403522
 20
852.217240
 30
0.0
 10
1157.898834
 20
852.217240
 30
0.0
 10
1157.898834
 20
823.871928
 30
0.0
 10
1172.072271
 20
823.871928
 30
0.0
 10
1172.072271
 20
832.375056
 30
0.0
 10
1206.087896
 20
832.375056
 30
0.0
 10
1206.087896
 20
823.871928
 30
0.0
 10
1220.261336
 20
823.871928
 30
0.0
 10
1220.225976
 20
832.317016
 30
0.0
  0
LWPOLYLINE
  5
1d3
100
AcDbEntity
  8
Layer_1
 62
3
100
AcDbPolyline
 90
2
 70
0
 10
1220.235160
 20
840.889728
 30
0.0
 10
1220.217320
 20
832.279968
 30
0.0
  0
SPLINE
  5
1d4
100
AcDbEntity
  8
Layer_1
 62
7
100
AcDbSpline
 70
8
 71
3
 72
8
 73
4
 74
0
 40
0
 40
0
 40
0
 40
0
 40
1
 40
1
 40
1
 40
1
 10
1248.442656
 20
781.302112
 30
0.0
 10
1250.478928
 20
781.302112
 30
0.0
 10
1252.357072
 20
782.400352
 30
0.0
 10
1253.362968
 20
784.170832
 30
0.0
  0
LWPOLYLINE
  5
1d5
100
AcDbEntity
  8
Layer_1
 62
7
100
AcDbPolyline
 90
2
 70
0
 10
1239.967376
 20
781.302112
 30
0.0
 10
1248.442656
 20
781.302112
 30
0.0
  0
SPLINE
  5
1d6
100
AcDbEntity
  8
Layer_1
 62
7
100
AcDbSpline
 70
8
 71
3
 72
8
 73
4
 74
0
 40
0
 40
0
 40
0
 40
0
 40
1
 40
1
 40
1
 40
1
 10
1253.362968
 20
784.141232
 30
0.0
 10
1253.385928
 20
784.192432
 30
0.0
 10
1253.410248
 20
784.241552
 30
0.0
 10
1253.433288
 20
784.292832
 30
0.0
  0
SPLINE
  5
1d7
100
AcDbEntity
  8
Layer_1
 62
7
100
AcDbSpline
 70
8
 71
3
 72
8
 73
4
 74
0
 40
0
 40
0
 40
0
 40
0
 40
1
 40
1
 40
1
 40
1
 10
1253.433288
 20
784.292832
 30
0.0
 10
1253.552304
 20
784.512272
 30
0.0
 10
1253.656696
 20
784.739312
 30
0.0
 10
1253.745784
 20
784.972512
 30
0.0
  0
SPLINE
  5
1d8
100
AcDbEntity
  8
Layer_1
 62
7
100
AcDbSpline
 70
8
 71
3
 72
8
 73
4
 74
0
 40
0
 40
0
 40
0
 40
0
 40
1
 40
1
 40
1
 40
1
 10
1253.745784
 20
784.972512
 30
0.0
 10
1256.545456
 20
791.125112
 30
0.0
 10
1259.617104
 20
796.629248
 30
0.0
 10
1266.152040
 20
802.389704
 30
0.0
  0
SPLINE
  5
1d9
100
AcDbEntity
  8
Layer_1
 62
7
100
AcDbSpline
 70
8
 71
3
 72
8
 73
4
 74
0
 40
0
 40
0
 40
0
 40
0
 40
1
 40
1
 40
1
 40
1
 10
1266.152040
 20
802.389704
 30
0.0
 10
1267.498248
 20
803.464136
 30
0.0
 10
1268.283008
 20
805.092296
 30
0.0
 10
1268.284848
 20
806.814704
 30
0.0
  0
LWPOLYLINE
  5
1da
100
AcDbEntity
  8
Layer_1
 62
7
100
AcDbPolyline
 90
2
 70
0
 10
1253.362968
 20
784.170832
 30
0.0
 10
1253.362968
 20
784.141232
 30
0.0
  0
SPLINE
  5
1db
100
AcDbEntity
  8
Layer_1
 62
7
100
AcDbSpline
 70
8
 71
3
 72
8
 73
4
 74
0
 40
0
 40
0
 40
0
 40
0
 40
1
 40
1
 40
1
 40
1
 10
1268.284848
 20
835.160016
 30
0.0
 10
1268.284728
 20
836.875976
 30
0.0
 10
1267.507416
 20
838.499552
 30
0.0
 10
1266.170792
 20
839.575640
 30
0.0
  0
SPLINE
  5
1dc
100
AcDbEntity
  8
Layer_1
 62
7
100
AcDbSpline
 70
8
 71
3
 72
8
 73
4
 74
0
 40
0
 40
0
 40
0
 40
0
 40
1
 40
1
 40
1
 40
1
 10
1266.170792
 20
839.575640
 30
0.0
 10
1260.526368
 20
844.154608
 30
0.0
 10
1257.084304
 20
848.944904
 30
0.0
 10
1253.444224
 20
854.830328
 30
0.0
  0
SPLINE
  5
1dd
100
AcDbEntity
  8
Layer_1
 62
7
100
AcDbSpline
 70
8
 71
3
 72
8
 73
4
 74
0
 40
0
 40
0
 40
0
 40
0
 40
1
 40
1
 40
1
 40
1
 10
1253.444224
 20
854.830328
 30
0.0
 10
1252.460784
 20
856.679992
 30
0.0
 10
1250.537512
 20
857.836600
 30
0.0
 10
1248.442664
 20
857.838144
 30
0.0
  0
LWPOLYLINE
  5
1de
100
AcDbEntity
  8
Layer_1
 62
7
100
AcDbPolyline
 90
2
 70
0
 10
1268.284848
 20
806.814704
 30
0.0
 10
1268.284848
 20
835.160016
 30
0.0
  0
LWPOLYLINE
  5
1df
100
AcDbEntity
  8
Layer_1
 62
7
100
AcDbPolyline
 90
13
 70
0
 10
1248.442664
 20
857.838144
 30
0.0
 10
1225.764536
 20
857.838144
 30
0.0
 10
1225.764528
 20
857.838056
 30
0.0
 10
1225.764528
 20
843.664616
 30
0.0
 10
1234.269216
 20
843.664616
 30
0.0
 10
1234.269216
 20
826.656800
 30
0.0
 10
1254.111408
 20
826.656800
 30
0.0
 10
1254.111408
 20
818.152112
 30
0.0
 10
1234.269216
 20
818.152112
 30
0.0
 10
1234.269216
 20
798.309928
 30
0.0
 10
1225.764528
 20
798.309928
 30
0.0
 10
1225.764528
 20
781.302112
 30
0.0
 10
1231.482096
 20
781.231712
 30
0.0
  0
LWPOLYLINE
  5
1e0
100
AcDbEntity
  8
Layer_1
 62
3
100
AcDbPolyline
 90
2
 70
0
 10
1240.000672
 20
781.291072
 30
0.0
 10
1231.457872
 20
781.281472
 30
0.0
  0
SPLINE
  5
1e1
100
AcDbEntity
  8
Layer_1
 62
7
100
AcDbSpline
 70
8
 71
3
 72
8
 73
4
 74
0
 40
0
 40
0
 40
0
 40
0
 40
1
 40
1
 40
1
 40
1
 10
1124.335720
 20
781.468592
 30
0.0
 10
1126.372000
 20
781.468592
 30
0.0
 10
1128.250144
 20
782.566832
 30
0.0
 10
1129.256032
 20
784.337312
 30
0.0
  0
LWPOLYLINE
  5
1e2
100
AcDbEntity
  8
Layer_1
 62
7
100
AcDbPolyline
 90
2
 70
0
 10
1115.846656
 20
781.468592
 30
0.0
 10
1124.335720
 20
781.468592
 30
0.0
  0
SPLINE
  5
1e3
100
AcDbEntity
  8
Layer_1
 62
7
100
AcDbSpline
 70
8
 71
3
 72
8
 73
4
 74
0
 40
0
 40
0
 40
0
 40
0
 40
1
 40
1
 40
1
 40
1
 10
1129.256032
 20
784.307712
 30
0.0
 10
1129.278992
 20
784.358912
 30
0.0
 10
1129.303312
 20
784.408032
 30
0.0
 10
1129.326352
 20
784.459312
 30
0.0
  0
SPLINE
  5
1e4
100
AcDbEntity
  8
Layer_1
 62
7
100
AcDbSpline
 70
8
 71
3
 72
8
 73
4
 74
0
 40
0
 40
0
 40
0
 40
0
 40
1
 40
1
 40
1
 40
1
 10
1129.326352
 20
784.459312
 30
0.0
 10
1129.445368
 20
784.678752
 30
0.0
 10
1129.549760
 20
784.905792
 30
0.0
 10
1129.638848
 20
785.138992
 30
0.0
  0
SPLINE
  5
1e5
100
AcDbEntity
  8
Layer_1
 62
7
100
AcDbSpline
 70
8
 71
3
 72
8
 73
4
 74
0
 40
0
 40
0
 40
0
 40
0
 40
1
 40
1
 40
1
 40
1
 10
1129.638848
 20
785.138992
 30
0.0
 10
1132.438520
 20
791.291568
 30
0.0
 10
1135.510168
 20
796.795704
 30
0.0
 10
1142.045104
 20
802.556160
 30
0.0
  0
SPLINE
  5
1e6
100
AcDbEntity
  8
Layer_1
 62
7
100
AcDbSpline
 70
8
 71
3
 72
8
 73
4
 74
0
 40
0
 40
0
 40
0
 40
0
 40
1
 40
1
 40
1
 40
1
 10
1142.045104
 20
802.556160
 30
0.0
 10
1143.391312
 20
803.630592
 30
0.0
 10
1144.176072
 20
805.258752
 30
0.0
 10
1144.177912
 20
806.981160
 30
0.0
  0
LWPOLYLINE
  5
1e7
100
AcDbEntity
  8
Layer_1
 62
7
100
AcDbPolyline
 90
2
 70
0
 10
1129.256032
 20
784.337312
 30
0.0
 10
1129.256032
 20
784.307712
 30
0.0
  0
SPLINE
  5
1e8
100
AcDbEntity
  8
Layer_1
 62
7
100
AcDbSpline
 70
8
 71
3
 72
8
 73
4
 74
0
 40
0
 40
0
 40
0
 40
0
 40
1
 40
1
 40
1
 40
1
 10
1144.177912
 20
835.326472
 30
0.0
 10
1144.177792
 20
837.042432
 30
0.0
 10
1143.400480
 20
838.666008
 30
0.0
 10
1142.063856
 20
839.742096
 30
0.0
  0
SPLINE
  5
1e9
100
AcDbEntity
  8
Layer_1
 62
7
100
AcDbSpline
 70
8
 71
3
 72
8
 73
4
 74
0
 40
0
 40
0
 40
0
 40
0
 40
1
 40
1
 40
1
 40
1
 10
1142.063856
 20
839.742096
 30
0.0
 10
1136.419432
 20
844.321064
 30
0.0
 10
1132.977368
 20
849.111360
 30
0.0
 10
1129.337288
 20
854.996784
 30
0.0
  0
SPLINE
  5
1ea
100
AcDbEntity
  8
Layer_1
 62
7
100
AcDbSpline
 70
8
 71
3
 72
8
 73
4
 74
0
 40
0
 40
0
 40
0
 40
0
 40
1
 40
1
 40
1
 40
1
 10
1129.337288
 20
854.996784
 30
0.0
 10
1128.353848
 20
856.846448
 30
0.0
 10
1126.430576
 20
858.003056
 30
0.0
 10
1124.335728
 20
858.004600
 30
0.0
  0
LWPOLYLINE
  5
1eb
100
AcDbEntity
  8
Layer_1
 62
7
100
AcDbPolyline
 90
2
 70
0
 10
1144.177912
 20
806.981160
 30
0.0
 10
1144.177912
 20
835.326472
 30
0.0
  0
LWPOLYLINE
  5
1ec
100
AcDbEntity
  8
Layer_1
 62
7
100
AcDbPolyline
 90
13
 70
0
 10
1124.335728
 20
858.004600
 30
0.0
 10
1101.657600
 20
858.004600
 30
0.0
 10
1101.657592
 20
858.004592
 30
0.0
 10
1101.657592
 20
843.831152
 30
0.0
 10
1110.162280
 20
843.831152
 30
0.0
 10
1110.162280
 20
826.823336
 30
0.0
 10
1130.004472
 20
826.823336
 30
0.0
 10
1130.004472
 20
818.318648
 30
0.0
 10
1110.162280
 20
818.318648
 30
0.0
 10
1110.162280
 20
798.476464
 30
0.0
 10
1101.657592
 20
798.476464
 30
0.0
 10
1101.657592
 20
781.468672
 30
0.0
 10
1107.346656
 20
781.493472
 30
0.0
  0
SPLINE
  5
1ed
100
AcDbEntity
  8
Layer_1
 62
7
100
AcDbSpline
 70
8
 71
3
 72
8
 73
4
 74
0
 40
0
 40
0
 40
0
 40
0
 40
1
 40
1
 40
1
 40
1
 10
1195.441320
 20
996.080184
 30
0.0
 10
1192.363496
 20
993.002368
 30
0.0
 10
1188.111528
 20
991.098696
 30
0.0
 10
1183.414936
 20
991.098696
 30
0.0
  0
SPLINE
  5
1ee
100
AcDbEntity
  8
Layer_1
 62
7
100
AcDbSpline
 70
8
 71
3
 72
8
 73
4
 74
0
 40
0
 40
0
 40
0
 40
0
 40
1
 40
1
 40
1
 40
1
 10
1183.414936
 20
991.098696
 30
0.0
 10
1174.021752
 20
991.098696
 30
0.0
 10
1166.407064
 20
998.713384
 30
0.0
 10
1166.407064
 20
1008.106568
 30
0.0
  0
SPLINE
  5
1ef
100
AcDbEntity
  8
Layer_1
 62
7
100
AcDbSpline
 70
8
 71
3
 72
8
 73
4
 74
0
 40
0
 40
0
 40
0
 40
0
 40
1
 40
1
 40
1
 40
1
 10
1166.407064
 20
1008.106568
 30
0.0
 10
1166.407064
 20
1017.499760
 30
0.0
 10
1174.021744
 20
1025.114448
 30
0.0
 10
1183.414936
 20
1025.114448
 30
0.0
  0
SPLINE
  5
1f0
100
AcDbEntity
  8
Layer_1
 62
7
100
AcDbSpline
 70
8
 71
3
 72
8
 73
4
 74
0
 40
0
 40
0
 40
0
 40
0
 40
1
 40
1
 40
1
 40
1
 10
1183.414936
 20
1025.114448
 30
0.0
 10
1192.808128
 20
1025.114448
 30
0.0
 10
1200.422808
 20
1017.499760
 30
0.0
 10
1200.422808
 20
1008.106568
 30
0.0
  0
SPLINE
  5
1f1
100
AcDbEntity
  8
Layer_1
 62
3
100
AcDbSpline
 70
8
 71
3
 72
8
 73
4
 74
0
 40
0
 40
0
 40
0
 40
0
 40
1
 40
1
 40
1
 40
1
 10
1200.418432
 20
1008.116504
 30
0.0
 10
1200.418432
 20
1003.419912
 30
0.0
 10
1198.519176
 20
999.220976
 30
0.0
 10
1195.441360
 20
996.143152
 30
0.0
  0
LWPOLYLINE
  5
1f2
100
AcDbEntity
  8
Layer_1
 62
3
100
AcDbPolyline
 90
2
 70
0
 10
1115.885905
 20
781.525792
 30
0.0
 10
1107.343105
 20
781.516192
 30
0.0
  0
ENDSEC
  0
SECTION
  2
OBJECTS
  0
DICTIONARY
  5
C
330
0
100
AcDbDictionary
  3
ACAD_GROUP
350
D
  3
ACAD_MLINESTYLE
350
17
  0
DICTIONARY
  5
D
330
C
100
AcDbDictionary
  0
DICTIONARY
  5
1A
330
C
100
AcDbDictionary
  0
DICTIONARY
  5
17
330
C
100
AcDbDictionary
  3
STANDARD
350
18
  0
DICTIONARY
  5
19
330
C
100
AcDbDictionary
  0
ENDSEC
  0
EOF
