G04 (created by PCBNEW (2013-may-18)-stable) date Вс 25 окт 2015 21:36:28*
%MOIN*%
G04 Gerber Fmt 3.4, Leading zero omitted, Abs format*
%FSLAX34Y34*%
G01*
G70*
G90*
G04 APERTURE LIST*
%ADD10C,0.00393701*%
%ADD11C,0.00590551*%
%ADD12C,0.00492126*%
G04 APERTURE END LIST*
G54D10*
X16137Y-11797D02*
X15940Y-11797D01*
X15940Y-11797D02*
X15940Y-14553D01*
X15940Y-5891D02*
X15940Y-8647D01*
X15940Y-8647D02*
X16137Y-8647D01*
X7081Y-8647D02*
X7278Y-8647D01*
X7278Y-8647D02*
X7278Y-5891D01*
X7081Y-11797D02*
X7278Y-11797D01*
X7278Y-11797D02*
X7278Y-12584D01*
X16137Y-8647D02*
G75*
G02X17711Y-10222I0J-1574D01*
G74*
G01*
X17711Y-10222D02*
G75*
G02X16137Y-11797I-1574J0D01*
G74*
G01*
X5507Y-10222D02*
G75*
G02X7081Y-8647I1574J0D01*
G74*
G01*
X7081Y-11797D02*
G75*
G02X5507Y-10222I0J1574D01*
G74*
G01*
X7672Y-10222D02*
G75*
G03X7672Y-10222I-590J0D01*
G74*
G01*
X16727Y-10222D02*
G75*
G03X16727Y-10222I-590J0D01*
G74*
G01*
X7278Y-12584D02*
X7278Y-12781D01*
X7278Y-12781D02*
X9050Y-14553D01*
X9050Y-14553D02*
X15940Y-14553D01*
X15940Y-5891D02*
X7278Y-5891D01*
G54D11*
X14547Y-6604D02*
X14547Y-6210D01*
X14453Y-6210D01*
X14397Y-6229D01*
X14359Y-6266D01*
X14341Y-6304D01*
X14322Y-6379D01*
X14322Y-6435D01*
X14341Y-6510D01*
X14359Y-6548D01*
X14397Y-6585D01*
X14453Y-6604D01*
X14547Y-6604D01*
X14153Y-6604D02*
X14153Y-6210D01*
X13759Y-6229D02*
X13797Y-6210D01*
X13853Y-6210D01*
X13909Y-6229D01*
X13947Y-6266D01*
X13966Y-6304D01*
X13984Y-6379D01*
X13984Y-6435D01*
X13966Y-6510D01*
X13947Y-6548D01*
X13909Y-6585D01*
X13853Y-6604D01*
X13816Y-6604D01*
X13759Y-6585D01*
X13741Y-6566D01*
X13741Y-6435D01*
X13816Y-6435D01*
X13572Y-6604D02*
X13572Y-6210D01*
X13441Y-6210D02*
X13216Y-6210D01*
X13328Y-6604D02*
X13328Y-6210D01*
X13103Y-6491D02*
X12916Y-6491D01*
X13141Y-6604D02*
X13010Y-6210D01*
X12878Y-6604D01*
X12560Y-6604D02*
X12747Y-6604D01*
X12747Y-6210D01*
X10106Y-6210D02*
X9975Y-6604D01*
X9844Y-6210D01*
X9488Y-6566D02*
X9506Y-6585D01*
X9563Y-6604D01*
X9600Y-6604D01*
X9656Y-6585D01*
X9694Y-6548D01*
X9713Y-6510D01*
X9731Y-6435D01*
X9731Y-6379D01*
X9713Y-6304D01*
X9694Y-6266D01*
X9656Y-6229D01*
X9600Y-6210D01*
X9563Y-6210D01*
X9506Y-6229D01*
X9488Y-6248D01*
X9094Y-6566D02*
X9113Y-6585D01*
X9169Y-6604D01*
X9206Y-6604D01*
X9263Y-6585D01*
X9300Y-6548D01*
X9319Y-6510D01*
X9338Y-6435D01*
X9338Y-6379D01*
X9319Y-6304D01*
X9300Y-6266D01*
X9263Y-6229D01*
X9206Y-6210D01*
X9169Y-6210D01*
X9113Y-6229D01*
X9094Y-6248D01*
X14613Y-13991D02*
X14425Y-13991D01*
X14650Y-14104D02*
X14519Y-13710D01*
X14388Y-14104D01*
X14256Y-14104D02*
X14256Y-13710D01*
X14031Y-14104D01*
X14031Y-13710D01*
X13863Y-13991D02*
X13675Y-13991D01*
X13900Y-14104D02*
X13769Y-13710D01*
X13638Y-14104D01*
X13319Y-14104D02*
X13506Y-14104D01*
X13506Y-13710D01*
X13113Y-13710D02*
X13038Y-13710D01*
X13000Y-13729D01*
X12963Y-13766D01*
X12944Y-13841D01*
X12944Y-13973D01*
X12963Y-14048D01*
X13000Y-14085D01*
X13038Y-14104D01*
X13113Y-14104D01*
X13150Y-14085D01*
X13188Y-14048D01*
X13206Y-13973D01*
X13206Y-13841D01*
X13188Y-13766D01*
X13150Y-13729D01*
X13113Y-13710D01*
X12569Y-13729D02*
X12607Y-13710D01*
X12663Y-13710D01*
X12719Y-13729D01*
X12756Y-13766D01*
X12775Y-13804D01*
X12794Y-13879D01*
X12794Y-13935D01*
X12775Y-14010D01*
X12756Y-14048D01*
X12719Y-14085D01*
X12663Y-14104D01*
X12625Y-14104D01*
X12569Y-14085D01*
X12550Y-14066D01*
X12550Y-13935D01*
X12625Y-13935D01*
G54D12*
X9881Y-13729D02*
X9919Y-13710D01*
X9975Y-13710D01*
X10031Y-13729D01*
X10069Y-13766D01*
X10088Y-13804D01*
X10106Y-13879D01*
X10106Y-13935D01*
X10088Y-14010D01*
X10069Y-14048D01*
X10031Y-14085D01*
X9975Y-14104D01*
X9938Y-14104D01*
X9881Y-14085D01*
X9863Y-14066D01*
X9863Y-13935D01*
X9938Y-13935D01*
X9694Y-14104D02*
X9694Y-13710D01*
X9469Y-14104D01*
X9469Y-13710D01*
X9281Y-14104D02*
X9281Y-13710D01*
X9188Y-13710D01*
X9131Y-13729D01*
X9094Y-13766D01*
X9075Y-13804D01*
X9056Y-13879D01*
X9056Y-13935D01*
X9075Y-14010D01*
X9094Y-14048D01*
X9131Y-14085D01*
X9188Y-14104D01*
X9281Y-14104D01*
M02*
