G04 (created by PCBNEW (2013-may-18)-stable) date Вс 25 окт 2015 21:36:28*
%MOIN*%
G04 Gerber Fmt 3.4, Leading zero omitted, Abs format*
%FSLAX34Y34*%
G01*
G70*
G90*
G04 APERTURE LIST*
%ADD10C,0.00393701*%
%ADD11C,0.122047*%
%ADD12R,0.055X0.035*%
%ADD13R,0.0393701X0.0629921*%
%ADD14R,0.0393701X0.0511811*%
%ADD15C,0.0590551*%
%ADD16C,0.019685*%
%ADD17C,0.0393701*%
G04 APERTURE END LIST*
G54D10*
G54D11*
X7081Y-10222D03*
X16137Y-10222D03*
G54D12*
X10925Y-27479D03*
X10925Y-28229D03*
X12401Y-28229D03*
X12401Y-27479D03*
G54D13*
X10925Y-31299D03*
X10925Y-29330D03*
G54D14*
X12401Y-31299D03*
X12401Y-29212D03*
G54D15*
X13582Y-28051D03*
X10925Y-26673D03*
X9645Y-28051D03*
X12401Y-26673D03*
G54D16*
X12401Y-28229D02*
X13404Y-28229D01*
X13404Y-28229D02*
X13582Y-28051D01*
X12401Y-29212D02*
X12421Y-29212D01*
X12401Y-29212D02*
X12401Y-28229D01*
X12401Y-31299D02*
X11811Y-31299D01*
X11436Y-27479D02*
X10925Y-27479D01*
X11614Y-27657D02*
X11436Y-27479D01*
X11614Y-30807D02*
X11614Y-27657D01*
X11614Y-31102D02*
X11614Y-30807D01*
X11811Y-31299D02*
X11614Y-31102D01*
X10925Y-26673D02*
X10925Y-27479D01*
X10925Y-31299D02*
X10334Y-31299D01*
X9645Y-30610D02*
X9645Y-28051D01*
X10334Y-31299D02*
X9645Y-30610D01*
X12401Y-26673D02*
X12401Y-27479D01*
X10925Y-29330D02*
X10925Y-28229D01*
G54D10*
G36*
X15320Y-13933D02*
X14365Y-13933D01*
X14128Y-13980D01*
X13926Y-14114D01*
X13792Y-14315D01*
X13745Y-14553D01*
X13750Y-14576D01*
X13750Y-25590D01*
X9478Y-25590D01*
X9478Y-14370D01*
X9431Y-14132D01*
X9428Y-14128D01*
X9426Y-14119D01*
X9292Y-13917D01*
X7898Y-12524D01*
X7898Y-11867D01*
X8661Y-11105D01*
X8661Y-9367D01*
X7898Y-8604D01*
X7898Y-6511D01*
X15320Y-6511D01*
X15320Y-8614D01*
X14566Y-9367D01*
X14566Y-11105D01*
X15320Y-11858D01*
X15320Y-13933D01*
X15320Y-13933D01*
G37*
G54D17*
X15320Y-13933D02*
X14365Y-13933D01*
X14128Y-13980D01*
X13926Y-14114D01*
X13792Y-14315D01*
X13745Y-14553D01*
X13750Y-14576D01*
X13750Y-25590D01*
X9478Y-25590D01*
X9478Y-14370D01*
X9431Y-14132D01*
X9428Y-14128D01*
X9426Y-14119D01*
X9292Y-13917D01*
X7898Y-12524D01*
X7898Y-11867D01*
X8661Y-11105D01*
X8661Y-9367D01*
X7898Y-8604D01*
X7898Y-6511D01*
X15320Y-6511D01*
X15320Y-8614D01*
X14566Y-9367D01*
X14566Y-11105D01*
X15320Y-11858D01*
X15320Y-13933D01*
M02*
