G04 (created by PCBNEW (2013-may-18)-stable) date Вс 25 окт 2015 21:36:28*
%MOIN*%
G04 Gerber Fmt 3.4, Leading zero omitted, Abs format*
%FSLAX34Y34*%
G01*
G70*
G90*
G04 APERTURE LIST*
%ADD10C,0.00393701*%
%ADD11C,0.00787402*%
%ADD12C,0.011811*%
%ADD13C,0.0039*%
%ADD14C,0.00590551*%
%ADD15C,0.0043*%
G04 APERTURE END LIST*
G54D10*
G54D11*
X9094Y-30511D02*
G75*
G03X9094Y-30511I-630J0D01*
G74*
G01*
X15394Y-30511D02*
G75*
G03X15394Y-30511I-630J0D01*
G74*
G01*
G54D12*
X13218Y-24624D02*
X13218Y-24999D01*
X12431Y-24999D01*
X13218Y-24362D02*
X12693Y-24362D01*
X12431Y-24362D02*
X12468Y-24399D01*
X12506Y-24362D01*
X12468Y-24324D01*
X12431Y-24362D01*
X12506Y-24362D01*
X12693Y-23987D02*
X13218Y-23987D01*
X12768Y-23987D02*
X12731Y-23949D01*
X12693Y-23874D01*
X12693Y-23762D01*
X12731Y-23687D01*
X12806Y-23649D01*
X13218Y-23649D01*
X13181Y-22974D02*
X13218Y-23049D01*
X13218Y-23199D01*
X13181Y-23274D01*
X13106Y-23312D01*
X12806Y-23312D01*
X12731Y-23274D01*
X12693Y-23199D01*
X12693Y-23049D01*
X12731Y-22974D01*
X12806Y-22937D01*
X12881Y-22937D01*
X12956Y-23312D01*
X13181Y-22037D02*
X13218Y-21924D01*
X13218Y-21737D01*
X13181Y-21662D01*
X13143Y-21625D01*
X13068Y-21587D01*
X12993Y-21587D01*
X12918Y-21625D01*
X12881Y-21662D01*
X12843Y-21737D01*
X12806Y-21887D01*
X12768Y-21962D01*
X12731Y-21999D01*
X12656Y-22037D01*
X12581Y-22037D01*
X12506Y-21999D01*
X12468Y-21962D01*
X12431Y-21887D01*
X12431Y-21700D01*
X12468Y-21587D01*
X13181Y-20950D02*
X13218Y-21025D01*
X13218Y-21175D01*
X13181Y-21250D01*
X13106Y-21287D01*
X12806Y-21287D01*
X12731Y-21250D01*
X12693Y-21175D01*
X12693Y-21025D01*
X12731Y-20950D01*
X12806Y-20912D01*
X12881Y-20912D01*
X12956Y-21287D01*
X12693Y-20575D02*
X13218Y-20575D01*
X12768Y-20575D02*
X12731Y-20537D01*
X12693Y-20462D01*
X12693Y-20350D01*
X12731Y-20275D01*
X12806Y-20237D01*
X13218Y-20237D01*
X13181Y-19900D02*
X13218Y-19825D01*
X13218Y-19675D01*
X13181Y-19600D01*
X13106Y-19562D01*
X13068Y-19562D01*
X12993Y-19600D01*
X12956Y-19675D01*
X12956Y-19787D01*
X12918Y-19862D01*
X12843Y-19900D01*
X12806Y-19900D01*
X12731Y-19862D01*
X12693Y-19787D01*
X12693Y-19675D01*
X12731Y-19600D01*
X13218Y-19112D02*
X13181Y-19187D01*
X13143Y-19225D01*
X13068Y-19262D01*
X12843Y-19262D01*
X12768Y-19225D01*
X12731Y-19187D01*
X12693Y-19112D01*
X12693Y-19000D01*
X12731Y-18925D01*
X12768Y-18887D01*
X12843Y-18850D01*
X13068Y-18850D01*
X13143Y-18887D01*
X13181Y-18925D01*
X13218Y-19000D01*
X13218Y-19112D01*
X13218Y-18512D02*
X12693Y-18512D01*
X12843Y-18512D02*
X12768Y-18475D01*
X12731Y-18437D01*
X12693Y-18362D01*
X12693Y-18287D01*
X12431Y-17275D02*
X12431Y-17200D01*
X12468Y-17125D01*
X12506Y-17088D01*
X12581Y-17050D01*
X12731Y-17013D01*
X12918Y-17013D01*
X13068Y-17050D01*
X13143Y-17088D01*
X13181Y-17125D01*
X13218Y-17200D01*
X13218Y-17275D01*
X13181Y-17350D01*
X13143Y-17388D01*
X13068Y-17425D01*
X12918Y-17463D01*
X12731Y-17463D01*
X12581Y-17425D01*
X12506Y-17388D01*
X12468Y-17350D01*
X12431Y-17275D01*
X13143Y-16675D02*
X13181Y-16638D01*
X13218Y-16675D01*
X13181Y-16713D01*
X13143Y-16675D01*
X13218Y-16675D01*
X12693Y-15963D02*
X13218Y-15963D01*
X12393Y-16150D02*
X12956Y-16338D01*
X12956Y-15850D01*
X10731Y-23943D02*
X10768Y-23830D01*
X10768Y-23643D01*
X10731Y-23568D01*
X10693Y-23531D01*
X10618Y-23493D01*
X10543Y-23493D01*
X10468Y-23531D01*
X10431Y-23568D01*
X10393Y-23643D01*
X10356Y-23793D01*
X10318Y-23868D01*
X10281Y-23905D01*
X10206Y-23943D01*
X10131Y-23943D01*
X10056Y-23905D01*
X10018Y-23868D01*
X9981Y-23793D01*
X9981Y-23606D01*
X10018Y-23493D01*
X10731Y-22818D02*
X10768Y-22893D01*
X10768Y-23043D01*
X10731Y-23118D01*
X10693Y-23156D01*
X10618Y-23193D01*
X10393Y-23193D01*
X10318Y-23156D01*
X10281Y-23118D01*
X10243Y-23043D01*
X10243Y-22893D01*
X10281Y-22818D01*
X10768Y-22481D02*
X10243Y-22481D01*
X10393Y-22481D02*
X10318Y-22443D01*
X10281Y-22406D01*
X10243Y-22331D01*
X10243Y-22256D01*
X10768Y-21656D02*
X10356Y-21656D01*
X10281Y-21693D01*
X10243Y-21768D01*
X10243Y-21918D01*
X10281Y-21993D01*
X10731Y-21656D02*
X10768Y-21731D01*
X10768Y-21918D01*
X10731Y-21993D01*
X10656Y-22031D01*
X10581Y-22031D01*
X10506Y-21993D01*
X10468Y-21918D01*
X10468Y-21731D01*
X10431Y-21656D01*
X10243Y-21393D02*
X10243Y-21093D01*
X9981Y-21281D02*
X10656Y-21281D01*
X10731Y-21243D01*
X10768Y-21168D01*
X10768Y-21093D01*
X10731Y-20493D02*
X10768Y-20568D01*
X10768Y-20718D01*
X10731Y-20793D01*
X10693Y-20831D01*
X10618Y-20868D01*
X10393Y-20868D01*
X10318Y-20831D01*
X10281Y-20793D01*
X10243Y-20718D01*
X10243Y-20568D01*
X10281Y-20493D01*
X10768Y-20156D02*
X9981Y-20156D01*
X10768Y-19818D02*
X10356Y-19818D01*
X10281Y-19856D01*
X10243Y-19931D01*
X10243Y-20043D01*
X10281Y-20118D01*
X10318Y-20156D01*
X10768Y-19444D02*
X9981Y-19444D01*
X9981Y-19256D01*
X10018Y-19144D01*
X10093Y-19069D01*
X10168Y-19031D01*
X10318Y-18994D01*
X10431Y-18994D01*
X10581Y-19031D01*
X10656Y-19069D01*
X10731Y-19144D01*
X10768Y-19256D01*
X10768Y-19444D01*
X10243Y-18319D02*
X10768Y-18319D01*
X10243Y-18656D02*
X10656Y-18656D01*
X10731Y-18619D01*
X10768Y-18544D01*
X10768Y-18431D01*
X10731Y-18356D01*
X10693Y-18319D01*
X10768Y-17944D02*
X10243Y-17944D01*
X9981Y-17944D02*
X10018Y-17981D01*
X10056Y-17944D01*
X10018Y-17906D01*
X9981Y-17944D01*
X10056Y-17944D01*
X10243Y-17569D02*
X10768Y-17569D01*
X10318Y-17569D02*
X10281Y-17531D01*
X10243Y-17456D01*
X10243Y-17344D01*
X10281Y-17269D01*
X10356Y-17231D01*
X10768Y-17231D01*
X10768Y-16744D02*
X10731Y-16819D01*
X10693Y-16856D01*
X10618Y-16894D01*
X10393Y-16894D01*
X10318Y-16856D01*
X10281Y-16819D01*
X10243Y-16744D01*
X10243Y-16631D01*
X10281Y-16556D01*
X10318Y-16519D01*
X10393Y-16481D01*
X10618Y-16481D01*
X10693Y-16519D01*
X10731Y-16556D01*
X10768Y-16631D01*
X10768Y-16744D01*
G54D13*
X10625Y-27654D02*
X10625Y-27254D01*
X10625Y-27254D02*
X11225Y-27254D01*
X11225Y-27254D02*
X11225Y-27654D01*
X11225Y-28054D02*
X11225Y-28454D01*
X11225Y-28454D02*
X10625Y-28454D01*
X10625Y-28454D02*
X10625Y-28054D01*
X12701Y-28054D02*
X12701Y-28454D01*
X12701Y-28454D02*
X12101Y-28454D01*
X12101Y-28454D02*
X12101Y-28054D01*
X12101Y-27654D02*
X12101Y-27254D01*
X12101Y-27254D02*
X12701Y-27254D01*
X12701Y-27254D02*
X12701Y-27654D01*
G54D14*
X10629Y-30807D02*
X10433Y-30610D01*
X11023Y-30807D02*
X11023Y-30905D01*
X10826Y-30807D02*
X10826Y-30905D01*
X11023Y-29724D02*
X11023Y-29822D01*
X10826Y-29822D02*
X10826Y-29724D01*
X10433Y-30807D02*
X10433Y-29822D01*
X10433Y-29822D02*
X11417Y-29822D01*
X11417Y-29822D02*
X11417Y-30807D01*
X11417Y-30807D02*
X10433Y-30807D01*
X12893Y-30314D02*
G75*
G03X12893Y-30314I-492J0D01*
G74*
G01*
X12500Y-29527D02*
X12500Y-29724D01*
X12303Y-29724D02*
X12303Y-29527D01*
X12500Y-30807D02*
X12500Y-31003D01*
X12303Y-31003D02*
X12303Y-30807D01*
X11909Y-30807D02*
X11909Y-29724D01*
X11909Y-29724D02*
X12893Y-29724D01*
X12893Y-29724D02*
X12893Y-30807D01*
X12893Y-30807D02*
X11909Y-30807D01*
G54D15*
X10512Y-28379D02*
X10418Y-28444D01*
X10512Y-28491D02*
X10315Y-28491D01*
X10315Y-28416D01*
X10325Y-28398D01*
X10334Y-28388D01*
X10353Y-28379D01*
X10381Y-28379D01*
X10400Y-28388D01*
X10409Y-28398D01*
X10418Y-28416D01*
X10418Y-28491D01*
X10512Y-28191D02*
X10512Y-28304D01*
X10512Y-28247D02*
X10315Y-28247D01*
X10343Y-28266D01*
X10362Y-28285D01*
X10372Y-28304D01*
X10512Y-27690D02*
X10512Y-27802D01*
X10512Y-27746D02*
X10315Y-27746D01*
X10343Y-27765D01*
X10362Y-27784D01*
X10372Y-27802D01*
X10315Y-27568D02*
X10315Y-27549D01*
X10325Y-27530D01*
X10334Y-27521D01*
X10353Y-27512D01*
X10390Y-27502D01*
X10437Y-27502D01*
X10475Y-27512D01*
X10494Y-27521D01*
X10503Y-27530D01*
X10512Y-27549D01*
X10512Y-27568D01*
X10503Y-27587D01*
X10494Y-27596D01*
X10475Y-27605D01*
X10437Y-27615D01*
X10390Y-27615D01*
X10353Y-27605D01*
X10334Y-27596D01*
X10325Y-27587D01*
X10315Y-27568D01*
X10315Y-27380D02*
X10315Y-27362D01*
X10325Y-27343D01*
X10334Y-27333D01*
X10353Y-27324D01*
X10390Y-27315D01*
X10437Y-27315D01*
X10475Y-27324D01*
X10494Y-27333D01*
X10503Y-27343D01*
X10512Y-27362D01*
X10512Y-27380D01*
X10503Y-27399D01*
X10494Y-27408D01*
X10475Y-27418D01*
X10437Y-27427D01*
X10390Y-27427D01*
X10353Y-27418D01*
X10334Y-27408D01*
X10325Y-27399D01*
X10315Y-27380D01*
X11890Y-28379D02*
X11796Y-28444D01*
X11890Y-28491D02*
X11693Y-28491D01*
X11693Y-28416D01*
X11703Y-28398D01*
X11712Y-28388D01*
X11731Y-28379D01*
X11759Y-28379D01*
X11778Y-28388D01*
X11787Y-28398D01*
X11796Y-28416D01*
X11796Y-28491D01*
X11693Y-28313D02*
X11693Y-28191D01*
X11768Y-28257D01*
X11768Y-28229D01*
X11778Y-28210D01*
X11787Y-28201D01*
X11806Y-28191D01*
X11853Y-28191D01*
X11872Y-28201D01*
X11881Y-28210D01*
X11890Y-28229D01*
X11890Y-28285D01*
X11881Y-28304D01*
X11872Y-28313D01*
X11890Y-27788D02*
X11890Y-27901D01*
X11890Y-27845D02*
X11693Y-27845D01*
X11721Y-27863D01*
X11740Y-27882D01*
X11750Y-27901D01*
X11693Y-27666D02*
X11693Y-27648D01*
X11703Y-27629D01*
X11712Y-27620D01*
X11731Y-27610D01*
X11768Y-27601D01*
X11815Y-27601D01*
X11853Y-27610D01*
X11872Y-27620D01*
X11881Y-27629D01*
X11890Y-27648D01*
X11890Y-27666D01*
X11881Y-27685D01*
X11872Y-27695D01*
X11853Y-27704D01*
X11815Y-27713D01*
X11768Y-27713D01*
X11731Y-27704D01*
X11712Y-27695D01*
X11703Y-27685D01*
X11693Y-27666D01*
X11693Y-27479D02*
X11693Y-27460D01*
X11703Y-27441D01*
X11712Y-27432D01*
X11731Y-27423D01*
X11768Y-27413D01*
X11815Y-27413D01*
X11853Y-27423D01*
X11872Y-27432D01*
X11881Y-27441D01*
X11890Y-27460D01*
X11890Y-27479D01*
X11881Y-27498D01*
X11872Y-27507D01*
X11853Y-27516D01*
X11815Y-27526D01*
X11768Y-27526D01*
X11731Y-27516D01*
X11712Y-27507D01*
X11703Y-27498D01*
X11693Y-27479D01*
X11890Y-27329D02*
X11693Y-27329D01*
X11890Y-27216D02*
X11778Y-27301D01*
X11693Y-27216D02*
X11806Y-27329D01*
G54D14*
X10278Y-30750D02*
X9687Y-30750D01*
X9687Y-30610D01*
X9715Y-30525D01*
X9772Y-30469D01*
X9828Y-30441D01*
X9940Y-30413D01*
X10025Y-30413D01*
X10137Y-30441D01*
X10194Y-30469D01*
X10250Y-30525D01*
X10278Y-30610D01*
X10278Y-30750D01*
X9744Y-30188D02*
X9715Y-30160D01*
X9687Y-30104D01*
X9687Y-29963D01*
X9715Y-29907D01*
X9744Y-29879D01*
X9800Y-29850D01*
X9856Y-29850D01*
X9940Y-29879D01*
X10278Y-30216D01*
X10278Y-29850D01*
X13624Y-30750D02*
X13034Y-30750D01*
X13034Y-30610D01*
X13062Y-30525D01*
X13118Y-30469D01*
X13174Y-30441D01*
X13287Y-30413D01*
X13371Y-30413D01*
X13484Y-30441D01*
X13540Y-30469D01*
X13596Y-30525D01*
X13624Y-30610D01*
X13624Y-30750D01*
X13624Y-29850D02*
X13624Y-30188D01*
X13624Y-30019D02*
X13034Y-30019D01*
X13118Y-30075D01*
X13174Y-30132D01*
X13203Y-30188D01*
M02*
