<?xml version="1.0" standalone="no"?>
 <!DOCTYPE svg PUBLIC "-//W3C//DTD SVG 1.1//EN" 
 "http://www.w3.org/Graphics/SVG/1.1/DTD/svg11.dtd"> 
<svg xmlns="http://www.w3.org/2000/svg" version="1.1" 
    width="41.9989cm" height="29.7002cm" viewBox="0 0 165350 116930 ">
<title>SVG Picture created as JackSensor-B_Cu.svg date 2015/10/26 23:44:06 </title>
  <desc>Picture generated by PCBNEW </desc>
<g style="fill:#000000; fill-opacity:1;stroke:#000000; stroke-opacity:1;
stroke-linecap:round; stroke-linejoin:round; "
 transform="translate(0 0) scale(1 1)">
</g>
<g style="fill:#000000; fill-opacity:0.0; 
stroke:#000000; stroke-width:39.3701; stroke-opacity:1; 
stroke-linecap:round; stroke-linejoin:round;">
</g>
<g style="fill:#000000; fill-opacity:1.0; 
stroke:#000000; stroke-width:39.3701; stroke-opacity:1; 
stroke-linecap:round; stroke-linejoin:round;">
<circle cx="13501.2" cy="12113.8" r="1358.27" /> 
<circle cx="9564.17" cy="12113.8" r="1358.27" /> 
<circle cx="13501.2" cy="8176.77" r="1358.27" /> 
<circle cx="9564.17" cy="8176.77" r="1358.27" /> 
<circle cx="16060.2" cy="10145.3" r="590.551" /> 
<circle cx="7005.12" cy="10145.3" r="590.551" /> 
<circle cx="12992.1" cy="10137.8" r="275.591" /> 
<circle cx="12007.9" cy="10137.8" r="275.591" /> 
<circle cx="11023.6" cy="10137.8" r="275.591" /> 
<circle cx="10039.4" cy="10137.8" r="275.591" /> 
</g>
<g style="fill:#000000; fill-opacity:1.0; 
stroke:#000000; stroke-width:196.85; stroke-opacity:1; 
stroke-linecap:round; stroke-linejoin:round;">
<path d="M13501 8176
L13501 9628
" />
<path d="M13501 9628
L12992 10137
" />
<path d="M13491 12113
L13501 12113
" />
<path d="M12007 10629
L13491 12113
" />
<path d="M12007 10137
L12007 10629
" />
<path d="M9564 12089
L9564 12113
" />
<path d="M11023 10629
L9564 12089
" />
<path d="M11023 10137
L11023 10629
" />
<path d="M9564 8176
L9564 9662
" />
<path d="M9564 9662
L10039 10137
" />
</g> 
</svg>
