<?xml version="1.0" standalone="no"?>
 <!DOCTYPE svg PUBLIC "-//W3C//DTD SVG 1.1//EN" 
 "http://www.w3.org/Graphics/SVG/1.1/DTD/svg11.dtd"> 
<svg xmlns="http://www.w3.org/2000/svg" version="1.1" 
    width="41.9989cm" height="29.7002cm" viewBox="0 0 165350 116930 ">
<title>SVG Picture created as JackSensor-Edge_Cuts.svg date 2015/10/26 23:44:06 </title>
  <desc>Picture generated by PCBNEW </desc>
<g style="fill:#000000; fill-opacity:1;stroke:#000000; stroke-opacity:1;
stroke-linecap:round; stroke-linejoin:round; "
 transform="translate(0 0) scale(1 1)">
</g>
<g style="fill:#000000; fill-opacity:0.0; 
stroke:#000000; stroke-width:59.0551; stroke-opacity:1; 
stroke-linecap:round; stroke-linejoin:round;">
<path d="M5430.31 10145.3 A1574.8 1574.8 0.0 0 0 7005.12 11720.1 " />
<path d="M7005.12 8570.47 A1574.8 1574.8 0.0 0 0 5430.31 10145.3 " />
<path d="M16060.2 11720.1 A1574.8 1574.8 0.0 0 0 17635 10145.3 " />
<path d="M17635 10145.3 A1574.8 1574.8 0.0 0 0 16060.2 8570.47 " />
<path d="M15863 11720
L16060 11720
" />
<path d="M15863 8570
L16060 8570
" />
<path d="M7005 11720
L7201 11720
" />
<path d="M7201 8570
L7005 8570
" />
<path d="M7201 5814
L7201 8570
" />
<path d="M14091 5814
L7201 5814
" />
<path d="M15863 7586
L14091 5814
" />
<path d="M15863 8570
L15863 7586
" />
<path d="M15863 14475
L15863 11720
" />
<path d="M7201 14475
L15863 14475
" />
<path d="M7201 14475
L7201 11720
" />
</g> 
</svg>
