<?xml version="1.0" standalone="no"?>
 <!DOCTYPE svg PUBLIC "-//W3C//DTD SVG 1.1//EN" 
 "http://www.w3.org/Graphics/SVG/1.1/DTD/svg11.dtd"> 
<svg xmlns="http://www.w3.org/2000/svg" version="1.1" 
    width="41.9989cm" height="29.7002cm" viewBox="0 0 165350 116930 ">
<title>SVG Picture created as JackSensor-F_Paste.svg date 2015/10/26 23:44:06 </title>
  <desc>Picture generated by PCBNEW </desc>
<g style="fill:#000000; fill-opacity:1;stroke:#000000; stroke-opacity:1;
stroke-linecap:round; stroke-linejoin:round; "
 transform="translate(0 0) scale(1 1)">
</g>
<g style="fill:#000000; fill-opacity:0.0; 
stroke:#000000; stroke-width:39.3701; stroke-opacity:1; 
stroke-linecap:round; stroke-linejoin:round;">
</g>
<g style="fill:#000000; fill-opacity:1.0; 
stroke:#000000; stroke-width:39.3701; stroke-opacity:1; 
stroke-linecap:round; stroke-linejoin:round;">
<polyline style="fill-rule:evenodd;"
points="8740,9614
8740,8748
9291,8748
9291,9614
8740,9614
" /> 
<polyline style="fill-rule:evenodd;"
points="8740,11527
8740,10661
9291,10661
9291,11527
8740,11527
" /> 
<polyline style="fill-rule:evenodd;"
points="9740,9614
9740,8748
10291,8748
10291,9614
9740,9614
" /> 
<polyline style="fill-rule:evenodd;"
points="9740,11527
9740,10661
10291,10661
10291,11527
9740,11527
" /> 
<polyline style="fill-rule:evenodd;"
points="10740,9614
10740,8748
11291,8748
11291,9614
10740,9614
" /> 
<polyline style="fill-rule:evenodd;"
points="10740,11527
10740,10661
11291,10661
11291,11527
10740,11527
" /> 
<polyline style="fill-rule:evenodd;"
points="11740,9614
11740,8748
12291,8748
12291,9614
11740,9614
" /> 
<polyline style="fill-rule:evenodd;"
points="11740,11527
11740,10661
12291,10661
12291,11527
11740,11527
" /> 
<polyline style="fill-rule:evenodd;"
points="12740,11527
12740,10661
13291,10661
13291,11527
12740,11527
" /> 
<polyline style="fill-rule:evenodd;"
points="13740,11527
13740,10661
14291,10661
14291,11527
13740,11527
" /> 
<polyline style="fill-rule:evenodd;"
points="13740,9614
13740,8748
14291,8748
14291,9614
13740,9614
" /> 
<polyline style="fill-rule:evenodd;"
points="12740,9614
12740,8748
13291,8748
13291,9614
12740,9614
" /> 
</g> 
</svg>
