<?xml version="1.0" standalone="no"?>
 <!DOCTYPE svg PUBLIC "-//W3C//DTD SVG 1.1//EN" 
 "http://www.w3.org/Graphics/SVG/1.1/DTD/svg11.dtd"> 
<svg xmlns="http://www.w3.org/2000/svg" version="1.1" 
    width="41.9989cm" height="29.7002cm" viewBox="0 0 165350 116930 ">
<title>SVG Picture created as JackSensor-F_SilkS.svg date 2015/10/26 23:44:06 </title>
  <desc>Picture generated by PCBNEW </desc>
<g style="fill:#000000; fill-opacity:1;stroke:#000000; stroke-opacity:1;
stroke-linecap:round; stroke-linejoin:round; "
 transform="translate(0 0) scale(1 1)">
</g>
<g style="fill:#000000; fill-opacity:0.0; 
stroke:#000000; stroke-width:118.11; stroke-opacity:1; 
stroke-linecap:round; stroke-linejoin:round;">
<path d="M9912 12935
L9912 13357
L9884 13442
L9828 13498
L9744 13526
L9687 13526
" />
<path d="M10447 13526
L10447 13217
L10419 13160
L10362 13132
L10250 13132
L10194 13160
" />
<path d="M10447 13498
L10390 13526
L10250 13526
L10194 13498
L10165 13442
L10165 13385
L10194 13329
L10250 13301
L10390 13301
L10447 13273
" />
<path d="M10981 13498
L10925 13526
L10812 13526
L10756 13498
L10728 13470
L10700 13413
L10700 13245
L10728 13188
L10756 13160
L10812 13132
L10925 13132
L10981 13160
" />
<path d="M11234 13526
L11234 12935
" />
<path d="M11290 13301
L11459 13526
" />
<path d="M11459 13132
L11234 13357
" />
<path d="M12275 12935
L12331 12935
L12387 12964
L12415 12992
L12443 13048
L12471 13160
L12471 13301
L12443 13413
L12415 13470
L12387 13498
L12331 13526
L12275 13526
L12218 13498
L12190 13470
L12162 13413
L12134 13301
L12134 13160
L12162 13048
L12190 12992
L12218 12964
L12275 12935
" />
<path d="M12724 13470
L12753 13498
L12724 13526
L12696 13498
L12724 13470
L12724 13526
" />
<path d="M13259 13132
L13259 13526
" />
<path d="M13118 12907
L12978 13329
L13343 13329
" />
<path d="M8619 12514
L8703 12542
L8844 12542
L8900 12514
L8928 12485
L8956 12429
L8956 12373
L8928 12317
L8900 12289
L8844 12260
L8731 12232
L8675 12204
L8647 12176
L8619 12120
L8619 12064
L8647 12007
L8675 11979
L8731 11951
L8872 11951
L8956 11979
" />
<path d="M9462 12514
L9406 12542
L9294 12542
L9237 12514
L9209 12485
L9181 12429
L9181 12260
L9209 12204
L9237 12176
L9294 12148
L9406 12148
L9462 12176
" />
<path d="M9715 12542
L9715 12148
" />
<path d="M9715 12260
L9744 12204
L9772 12176
L9828 12148
L9884 12148
" />
<path d="M10334 12542
L10334 12232
L10306 12176
L10250 12148
L10137 12148
L10081 12176
" />
<path d="M10334 12514
L10278 12542
L10137 12542
L10081 12514
L10053 12457
L10053 12401
L10081 12345
L10137 12317
L10278 12317
L10334 12289
" />
<path d="M10531 12148
L10756 12148
" />
<path d="M10615 11951
L10615 12457
L10643 12514
L10700 12542
L10756 12542
" />
<path d="M11206 12514
L11150 12542
L11037 12542
L10981 12514
L10953 12485
L10925 12429
L10925 12260
L10953 12204
L10981 12176
L11037 12148
L11150 12148
L11206 12176
" />
<path d="M11459 12542
L11459 11951
" />
<path d="M11712 12542
L11712 12232
L11684 12176
L11628 12148
L11543 12148
L11487 12176
L11459 12204
" />
<path d="M11993 12542
L11993 11951
L12134 11951
L12218 11979
L12275 12035
L12303 12092
L12331 12204
L12331 12289
L12303 12401
L12275 12457
L12218 12514
L12134 12542
L11993 12542
" />
<path d="M12837 12148
L12837 12542
" />
<path d="M12584 12148
L12584 12457
L12612 12514
L12668 12542
L12753 12542
L12809 12514
L12837 12485
" />
<path d="M13118 12542
L13118 12148
" />
<path d="M13118 11951
L13090 11979
L13118 12007
L13146 11979
L13118 11951
L13118 12007
" />
<path d="M13399 12148
L13399 12542
" />
<path d="M13399 12204
L13428 12176
L13484 12148
L13568 12148
L13624 12176
L13652 12232
L13652 12542
" />
<path d="M14018 12542
L13962 12514
L13934 12485
L13906 12429
L13906 12260
L13934 12204
L13962 12176
L14018 12148
L14102 12148
L14159 12176
L14187 12204
L14215 12260
L14215 12429
L14187 12485
L14159 12514
L14102 12542
L14018 12542
" />
</g>
<g style="fill:#000000; fill-opacity:0.0; 
stroke:#000000; stroke-width:59.0551; stroke-opacity:1; 
stroke-linecap:round; stroke-linejoin:round;">
<path d="M9415 9137
L9615 9137
" />
<path d="M9415 11137
L9615 11137
" />
<path d="M10415 9137
L10615 9137
" />
<path d="M10415 11137
L10615 11137
" />
<path d="M11415 9137
L11615 9137
" />
<path d="M11415 11137
L11615 11137
" />
<path d="M12415 9137
L12615 9137
" />
<path d="M12415 11137
L12615 11137
" />
<path d="M8515 11137
L8615 11137
" />
<path d="M14515 11137
L14415 11137
" />
<path d="M13415 11137
L13615 11137
" />
<path d="M14515 9137
L14415 9137
" />
<path d="M8515 9137
L8615 9137
" />
<path d="M13415 9137
L13615 9137
" />
<path d="M14515 9137
L14515 11137
" />
<path d="M8515 9137
L8515 11137
" />
<path d="M11079 5876
L11079 5286
L11304 5286
L11361 5314
L11389 5342
L11417 5398
L11417 5483
L11389 5539
L11361 5567
L11304 5595
L11079 5595
" />
<path d="M11979 5876
L11642 5876
" />
<path d="M11811 5876
L11811 5286
L11754 5370
L11698 5426
L11642 5455
" />
<path d="M12692 8087
L12664 8143
L12664 8228
L12692 8312
L12748 8368
L12804 8397
L12917 8425
L13001 8425
L13114 8397
L13170 8368
L13226 8312
L13254 8228
L13254 8172
L13226 8087
L13198 8059
L13001 8059
L13001 8172
" />
<path d="M13254 7806
L12664 7806
L13254 7469
L12664 7469
" />
<path d="M13254 7187
L12664 7187
L12664 7047
L12692 6962
L12748 6906
L12804 6878
L12917 6850
L13001 6850
L13114 6878
L13170 6906
L13226 6962
L13254 7047
L13254 7187
" />
<path d="M11664 8425
L12254 8228
L11664 8031
" />
<path d="M12198 7497
L12226 7525
L12254 7609
L12254 7665
L12226 7750
L12170 7806
L12114 7834
L12001 7862
L11917 7862
L11804 7834
L11748 7806
L11692 7750
L11664 7665
L11664 7609
L11692 7525
L11720 7497
" />
<path d="M12198 6906
L12226 6934
L12254 7019
L12254 7075
L12226 7159
L12170 7215
L12114 7244
L12001 7272
L11917 7272
L11804 7244
L11748 7215
L11692 7159
L11664 7075
L11664 7019
L11692 6934
L11720 6906
" />
<path d="M11254 8292
L10664 8292
L10664 8151
L10692 8067
L10748 8011
L10804 7983
L10917 7955
L11001 7955
L11114 7983
L11170 8011
L11226 8067
L11254 8151
L11254 8292
" />
<path d="M10086 8278
L10086 7997
" />
<path d="M10254 8334
L9664 8137
L10254 7940
" />
</g> 
</svg>
