<?xml version="1.0" standalone="no"?>
 <!DOCTYPE svg PUBLIC "-//W3C//DTD SVG 1.1//EN" 
 "http://www.w3.org/Graphics/SVG/1.1/DTD/svg11.dtd"> 
<svg xmlns="http://www.w3.org/2000/svg" version="1.1" 
    width="41.9989cm" height="29.7002cm" viewBox="0 0 165350 116930 ">
<title>SVG Picture created as LightSensor-B_Cu.svg date 2015/10/25 21:35:17 </title>
  <desc>Picture generated by PCBNEW </desc>
<g style="fill:#000000; fill-opacity:1;stroke:#000000; stroke-opacity:1;
stroke-linecap:round; stroke-linejoin:round; "
 transform="translate(0 0) scale(1 1)">
</g>
<g style="fill:#000000; fill-opacity:0.0; 
stroke:#000000; stroke-width:39.3701; stroke-opacity:1; 
stroke-linecap:round; stroke-linejoin:round;">
</g>
<g style="fill:#000000; fill-opacity:1.0; 
stroke:#000000; stroke-width:39.3701; stroke-opacity:1; 
stroke-linecap:round; stroke-linejoin:round;">
<circle cx="13501.2" cy="12113.8" r="1358.27" /> 
<circle cx="9564.17" cy="12113.8" r="1358.27" /> 
<circle cx="13501.2" cy="8176.77" r="1358.27" /> 
<circle cx="9564.17" cy="8176.77" r="1358.27" /> 
<circle cx="16060.2" cy="10145.3" r="590.551" /> 
<circle cx="7005.12" cy="10145.3" r="590.551" /> 
<circle cx="12303.1" cy="6692.91" r="255.906" /> 
<circle cx="11515.7" cy="6692.91" r="255.906" /> 
<circle cx="10728.3" cy="6692.91" r="255.906" /> 
</g>
<g style="fill:#000000; fill-opacity:1.0; 
stroke:#000000; stroke-width:196.85; stroke-opacity:1; 
stroke-linecap:round; stroke-linejoin:round;">
<path d="M13501 8176
L13501 7890
" />
<path d="M13501 7890
L12303 6692
" />
<path d="M11515 6692
L11515 10128
" />
<path d="M11515 10128
L13501 12113
" />
<path d="M9564 8176
L9564 7857
" />
<path d="M9564 8176
L9606 8176
" />
<path d="M9564 7857
L10728 6692
" />
</g> 
</svg>
