<?xml version="1.0" standalone="no"?>
 <!DOCTYPE svg PUBLIC "-//W3C//DTD SVG 1.1//EN" 
 "http://www.w3.org/Graphics/SVG/1.1/DTD/svg11.dtd"> 
<svg xmlns="http://www.w3.org/2000/svg" version="1.1" 
    width="41.9989cm" height="29.7002cm" viewBox="0 0 165350 116930 ">
<title>SVG Picture created as LightSensor-B_SilkS.svg date 2015/10/25 21:35:17 </title>
  <desc>Picture generated by PCBNEW </desc>
<g style="fill:#000000; fill-opacity:1;stroke:#000000; stroke-opacity:1;
stroke-linecap:round; stroke-linejoin:round; "
 transform="translate(0 0) scale(1 1)">
</g>
<g style="fill:#000000; fill-opacity:0.0; 
stroke:#000000; stroke-width:39.3701; stroke-opacity:1; 
stroke-linecap:round; stroke-linejoin:round;">
<path d="M7005 8570
L7201 8570
" />
<path d="M7201 8570
L7201 5814
" />
<path d="M7201 14475
L7201 11720
" />
<path d="M7201 11720
L7005 11720
" />
<path d="M16060 11720
L15863 11720
" />
<path d="M15863 11720
L15863 14475
" />
<path d="M16060 8570
L15863 8570
" />
<path d="M15863 8570
L15863 7783
" />
<path d="M5430.31 10145.3 A1574.8 1574.8 0.0 0 0 7005.12 11720.1 " />
<path d="M7005.12 8570.47 A1574.8 1574.8 0.0 0 0 5430.31 10145.3 " />
<path d="M16060.2 11720.1 A1574.8 1574.8 0.0 0 0 17635 10145.3 " />
<path d="M17635 10145.3 A1574.8 1574.8 0.0 0 0 16060.2 8570.47 " />
<circle cx="16060.2" cy="10145.3" r="590.551" /> 
<circle cx="7005.12" cy="10145.3" r="590.551" /> 
<path d="M15863 7783
L15863 7586
" />
<path d="M15863 7586
L14091 5814
" />
<path d="M14091 5814
L7201 5814
" />
<path d="M7201 14475
L15863 14475
" />
</g>
<g style="fill:#000000; fill-opacity:0.0; 
stroke:#000000; stroke-width:59.0551; stroke-opacity:1; 
stroke-linecap:round; stroke-linejoin:round;">
<path d="M10525 14082
L10525 13688
L10432 13688
L10375 13707
L10338 13744
L10319 13782
L10300 13857
L10300 13913
L10319 13988
L10338 14025
L10375 14063
L10432 14082
L10525 14082
" />
<path d="M10132 14082
L10132 13688
" />
<path d="M9738 13707
L9775 13688
L9832 13688
L9888 13707
L9925 13744
L9944 13782
L9963 13857
L9963 13913
L9944 13988
L9925 14025
L9888 14063
L9832 14082
L9794 14082
L9738 14063
L9719 14044
L9719 13913
L9794 13913
" />
<path d="M9550 14082
L9550 13688
" />
<path d="M9419 13688
L9194 13688
" />
<path d="M9307 14082
L9307 13688
" />
<path d="M9082 13969
L8894 13969
" />
<path d="M9119 14082
L8988 13688
L8857 14082
" />
<path d="M8538 14082
L8725 14082
L8725 13688
" />
<path d="M14085 13688
L13953 14082
L13822 13688
" />
<path d="M13466 14044
L13485 14063
L13541 14082
L13578 14082
L13635 14063
L13672 14025
L13691 13988
L13710 13913
L13710 13857
L13691 13782
L13672 13744
L13635 13707
L13578 13688
L13541 13688
L13485 13707
L13466 13725
" />
<path d="M13072 14044
L13091 14063
L13147 14082
L13185 14082
L13241 14063
L13279 14025
L13297 13988
L13316 13913
L13316 13857
L13297 13782
L13279 13744
L13241 13707
L13185 13688
L13147 13688
L13091 13707
L13072 13725
" />
<path d="M10283 6542
L10095 6542
" />
<path d="M10320 6655
L10189 6261
L10058 6655
" />
<path d="M9926 6655
L9926 6261
L9701 6655
L9701 6261
" />
<path d="M9533 6542
L9345 6542
" />
<path d="M9570 6655
L9439 6261
L9308 6655
" />
<path d="M8989 6655
L9176 6655
L9176 6261
" />
<path d="M8783 6261
L8708 6261
L8670 6280
L8633 6317
L8614 6392
L8614 6524
L8633 6599
L8670 6636
L8708 6655
L8783 6655
L8820 6636
L8858 6599
L8877 6524
L8877 6392
L8858 6317
L8820 6280
L8783 6261
" />
<path d="M8239 6280
L8277 6261
L8333 6261
L8389 6280
L8427 6317
L8445 6355
L8464 6430
L8464 6486
L8445 6561
L8427 6599
L8389 6636
L8333 6655
L8295 6655
L8239 6636
L8220 6617
L8220 6486
L8295 6486
" />
</g>
<g style="fill:#000000; fill-opacity:0.0; 
stroke:#000000; stroke-width:49.2126; stroke-opacity:1; 
stroke-linecap:round; stroke-linejoin:round;">
<path d="M13860 6207
L13897 6188
L13953 6188
L14010 6207
L14047 6244
L14066 6282
L14085 6357
L14085 6413
L14066 6488
L14047 6525
L14010 6563
L13953 6582
L13916 6582
L13860 6563
L13841 6544
L13841 6413
L13916 6413
" />
<path d="M13672 6582
L13672 6188
L13447 6582
L13447 6188
" />
<path d="M13260 6582
L13260 6188
L13166 6188
L13110 6207
L13072 6244
L13054 6282
L13035 6357
L13035 6413
L13054 6488
L13072 6525
L13110 6563
L13166 6582
L13260 6582
" />
</g> 
</svg>
