<?xml version="1.0" standalone="no"?>
 <!DOCTYPE svg PUBLIC "-//W3C//DTD SVG 1.1//EN" 
 "http://www.w3.org/Graphics/SVG/1.1/DTD/svg11.dtd"> 
<svg xmlns="http://www.w3.org/2000/svg" version="1.1" 
    width="41.9989cm" height="29.7002cm" viewBox="0 0 165350 116930 ">
<title>SVG Picture created as LightSensor-F_Cu.svg date 2015/10/25 21:35:17 </title>
  <desc>Picture generated by PCBNEW </desc>
<g style="fill:#000000; fill-opacity:1;stroke:#000000; stroke-opacity:1;
stroke-linecap:round; stroke-linejoin:round; "
 transform="translate(0 0) scale(1 1)">
</g>
<g style="fill:#000000; fill-opacity:0.0; 
stroke:#000000; stroke-width:39.3701; stroke-opacity:1; 
stroke-linecap:round; stroke-linejoin:round;">
</g>
<g style="fill:#000000; fill-opacity:1.0; 
stroke:#000000; stroke-width:39.3701; stroke-opacity:1; 
stroke-linecap:round; stroke-linejoin:round;">
<circle cx="16060.2" cy="10145.3" r="590.551" /> 
<circle cx="7005.12" cy="10145.3" r="590.551" /> 
<circle cx="12303.1" cy="6692.91" r="255.906" /> 
<circle cx="11515.7" cy="6692.91" r="255.906" /> 
<circle cx="10728.3" cy="6692.91" r="255.906" /> 
<polyline style="fill-rule:evenodd;"
points="15243,13855
7822,13855
7822,11772
8579,11014
8579,9276
7822,8518
7822,6434
9897,6434
9862,6519
9862,6864
9993,7182
10237,7426
10555,7558
10899,7559
11122,7467
11342,7558
11687,7559
11909,7467
12130,7558
12474,7559
12793,7427
13037,7184
13169,6865
13169,6521
13133,6434
13834,6434
15243,7843
15243,8518
14485,9276
14485,11014
15243,11772
15243,13855
" /> 
</g>
<g style="fill:#000000; fill-opacity:0.0; 
stroke:#000000; stroke-width:393.701; stroke-opacity:1; 
stroke-linecap:round; stroke-linejoin:round;">
<polyline fill="none;"
points="15243,13855
7822,13855
7822,11772
8579,11014
8579,9276
7822,8518
7822,6434
9897,6434
9862,6519
9862,6864
9993,7182
10237,7426
10555,7558
10899,7559
11122,7467
11342,7558
11687,7559
11909,7467
12130,7558
12474,7559
12793,7427
13037,7184
13169,6865
13169,6521
13133,6434
13834,6434
15243,7843
15243,8518
14485,9276
14485,11014
15243,11772
15243,13855
" /> 
</g> 
</svg>
