<?xml version="1.0" standalone="no"?>
 <!DOCTYPE svg PUBLIC "-//W3C//DTD SVG 1.1//EN" 
 "http://www.w3.org/Graphics/SVG/1.1/DTD/svg11.dtd"> 
<svg xmlns="http://www.w3.org/2000/svg" version="1.1" 
    width="41.9989cm" height="29.7002cm" viewBox="0 0 165350 116930 ">
<title>SVG Picture created as LightSensor-F_SilkS.svg date 2015/10/25 21:35:17 </title>
  <desc>Picture generated by PCBNEW </desc>
<g style="fill:#000000; fill-opacity:1;stroke:#000000; stroke-opacity:1;
stroke-linecap:round; stroke-linejoin:round; "
 transform="translate(0 0) scale(1 1)">
</g>
<g style="fill:#000000; fill-opacity:0.0; 
stroke:#000000; stroke-width:118.11; stroke-opacity:1; 
stroke-linecap:round; stroke-linejoin:round;">
<path d="M8436 12050
L8155 12050
L8155 11459
" />
<path d="M8633 12050
L8633 11656
" />
<path d="M8633 11459
L8605 11487
L8633 11515
L8661 11487
L8633 11459
L8633 11515
" />
<path d="M9167 11656
L9167 12134
L9139 12190
L9111 12218
L9055 12246
L8970 12246
L8914 12218
" />
<path d="M9167 12021
L9111 12050
L8998 12050
L8942 12021
L8914 11993
L8886 11937
L8886 11768
L8914 11712
L8942 11684
L8998 11656
L9111 11656
L9167 11684
" />
<path d="M9448 12050
L9448 11459
" />
<path d="M9701 12050
L9701 11740
L9673 11684
L9617 11656
L9533 11656
L9476 11684
L9448 11712
" />
<path d="M9898 11656
L10123 11656
" />
<path d="M9983 11459
L9983 11965
L10011 12021
L10067 12050
L10123 12050
" />
<path d="M10742 12021
L10826 12050
L10967 12050
L11023 12021
L11051 11993
L11079 11937
L11079 11881
L11051 11825
L11023 11796
L10967 11768
L10854 11740
L10798 11712
L10770 11684
L10742 11628
L10742 11571
L10770 11515
L10798 11487
L10854 11459
L10995 11459
L11079 11487
" />
<path d="M11557 12021
L11501 12050
L11389 12050
L11332 12021
L11304 11965
L11304 11740
L11332 11684
L11389 11656
L11501 11656
L11557 11684
L11586 11740
L11586 11796
L11304 11853
" />
<path d="M11839 11656
L11839 12050
" />
<path d="M11839 11712
L11867 11684
L11923 11656
L12007 11656
L12064 11684
L12092 11740
L12092 12050
" />
<path d="M12345 12021
L12401 12050
L12514 12050
L12570 12021
L12598 11965
L12598 11937
L12570 11881
L12514 11853
L12429 11853
L12373 11825
L12345 11768
L12345 11740
L12373 11684
L12429 11656
L12514 11656
L12570 11684
" />
<path d="M12935 12050
L12879 12021
L12851 11993
L12823 11937
L12823 11768
L12851 11712
L12879 11684
L12935 11656
L13020 11656
L13076 11684
L13104 11712
L13132 11768
L13132 11937
L13104 11993
L13076 12021
L13020 12050
L12935 12050
" />
<path d="M13385 12050
L13385 11656
" />
<path d="M13385 11768
L13413 11712
L13442 11684
L13498 11656
L13554 11656
" />
<path d="M13863 11459
L13920 11459
L13976 11487
L14004 11515
L14032 11571
L14060 11684
L14060 11825
L14032 11937
L14004 11993
L13976 12021
L13920 12050
L13863 12050
L13807 12021
L13779 11993
L13751 11937
L13723 11825
L13723 11684
L13751 11571
L13779 11515
L13807 11487
L13863 11459
" />
<path d="M14313 11993
L14341 12021
L14313 12050
L14285 12021
L14313 11993
L14313 12050
" />
<path d="M14848 11656
L14848 12050
" />
<path d="M14707 11431
L14566 11853
L14932 11853
" />
<path d="M8717 10348
L8802 10376
L8942 10376
L8998 10348
L9026 10320
L9055 10264
L9055 10208
L9026 10151
L8998 10123
L8942 10095
L8830 10067
L8773 10039
L8745 10011
L8717 9955
L8717 9898
L8745 9842
L8773 9814
L8830 9786
L8970 9786
L9055 9814
" />
<path d="M9561 10348
L9505 10376
L9392 10376
L9336 10348
L9308 10320
L9280 10264
L9280 10095
L9308 10039
L9336 10011
L9392 9983
L9505 9983
L9561 10011
" />
<path d="M9814 10376
L9814 9983
" />
<path d="M9814 10095
L9842 10039
L9870 10011
L9926 9983
L9983 9983
" />
<path d="M10433 10376
L10433 10067
L10404 10011
L10348 9983
L10236 9983
L10179 10011
" />
<path d="M10433 10348
L10376 10376
L10236 10376
L10179 10348
L10151 10292
L10151 10236
L10179 10179
L10236 10151
L10376 10151
L10433 10123
" />
<path d="M10629 9983
L10854 9983
" />
<path d="M10714 9786
L10714 10292
L10742 10348
L10798 10376
L10854 10376
" />
<path d="M11304 10348
L11248 10376
L11136 10376
L11079 10348
L11051 10320
L11023 10264
L11023 10095
L11051 10039
L11079 10011
L11136 9983
L11248 9983
L11304 10011
" />
<path d="M11557 10376
L11557 9786
" />
<path d="M11811 10376
L11811 10067
L11782 10011
L11726 9983
L11642 9983
L11586 10011
L11557 10039
" />
<path d="M12092 10376
L12092 9786
L12232 9786
L12317 9814
L12373 9870
L12401 9926
L12429 10039
L12429 10123
L12401 10236
L12373 10292
L12317 10348
L12232 10376
L12092 10376
" />
<path d="M12935 9983
L12935 10376
" />
<path d="M12682 9983
L12682 10292
L12710 10348
L12767 10376
L12851 10376
L12907 10348
L12935 10320
" />
<path d="M13217 10376
L13217 9983
" />
<path d="M13217 9786
L13188 9814
L13217 9842
L13245 9814
L13217 9786
L13217 9842
" />
<path d="M13498 9983
L13498 10376
" />
<path d="M13498 10039
L13526 10011
L13582 9983
L13667 9983
L13723 10011
L13751 10067
L13751 10376
" />
<path d="M14116 10376
L14060 10348
L14032 10320
L14004 10264
L14004 10095
L14032 10039
L14060 10011
L14116 9983
L14201 9983
L14257 10011
L14285 10039
L14313 10095
L14313 10264
L14285 10320
L14257 10348
L14201 10376
L14116 10376
" />
</g>
<g style="fill:#000000; fill-opacity:0.0; 
stroke:#000000; stroke-width:59.0551; stroke-opacity:1; 
stroke-linecap:round; stroke-linejoin:round;">
<path d="M12696 7086
L10334 7086
" />
<path d="M10334 7086
L10334 6496
" />
<path d="M10334 6496
L10531 6003
" />
<path d="M10531 6003
L12500 6003
" />
<path d="M12500 6003
L12696 6496
" />
<path d="M12696 6496
L12696 7086
" />
<path d="M10981 8408
L10981 7817
L11122 7817
L11206 7845
L11262 7902
L11290 7958
L11318 8070
L11318 8155
L11290 8267
L11262 8323
L11206 8380
L11122 8408
L10981 8408
" />
<path d="M11881 8408
L11543 8408
" />
<path d="M11712 8408
L11712 7817
L11656 7902
L11600 7958
L11543 7986
" />
<path d="M9983 7128
L10320 7128
" />
<path d="M10151 7719
L10151 7128
" />
<path d="M10489 7691
L10573 7719
L10714 7719
L10770 7691
L10798 7663
L10826 7606
L10826 7550
L10798 7494
L10770 7466
L10714 7438
L10601 7410
L10545 7381
L10517 7353
L10489 7297
L10489 7241
L10517 7185
L10545 7156
L10601 7128
L10742 7128
L10826 7156
" />
<path d="M11361 7719
L11079 7719
L11079 7128
" />
<path d="M11529 7185
L11557 7156
L11614 7128
L11754 7128
L11811 7156
L11839 7185
L11867 7241
L11867 7297
L11839 7381
L11501 7719
L11867 7719
" />
<path d="M12401 7128
L12120 7128
L12092 7410
L12120 7381
L12176 7353
L12317 7353
L12373 7381
L12401 7410
L12429 7466
L12429 7606
L12401 7663
L12373 7691
L12317 7719
L12176 7719
L12120 7691
L12092 7663
" />
<path d="M12626 7128
L13020 7128
L12767 7719
" />
</g> 
</svg>
