G04 (created by PCBNEW (2013-may-18)-stable) date Вс 25 окт 2015 21:35:21*
%MOIN*%
G04 Gerber Fmt 3.4, Leading zero omitted, Abs format*
%FSLAX34Y34*%
G01*
G70*
G90*
G04 APERTURE LIST*
%ADD10C,0.00393701*%
%ADD11C,0.011811*%
%ADD12C,0.00590551*%
G04 APERTURE END LIST*
G54D10*
G54D11*
X8436Y-12050D02*
X8155Y-12050D01*
X8155Y-11459D01*
X8633Y-12050D02*
X8633Y-11656D01*
X8633Y-11459D02*
X8605Y-11487D01*
X8633Y-11515D01*
X8661Y-11487D01*
X8633Y-11459D01*
X8633Y-11515D01*
X9167Y-11656D02*
X9167Y-12134D01*
X9139Y-12190D01*
X9111Y-12218D01*
X9055Y-12246D01*
X8970Y-12246D01*
X8914Y-12218D01*
X9167Y-12021D02*
X9111Y-12050D01*
X8998Y-12050D01*
X8942Y-12021D01*
X8914Y-11993D01*
X8886Y-11937D01*
X8886Y-11768D01*
X8914Y-11712D01*
X8942Y-11684D01*
X8998Y-11656D01*
X9111Y-11656D01*
X9167Y-11684D01*
X9448Y-12050D02*
X9448Y-11459D01*
X9701Y-12050D02*
X9701Y-11740D01*
X9673Y-11684D01*
X9617Y-11656D01*
X9533Y-11656D01*
X9476Y-11684D01*
X9448Y-11712D01*
X9898Y-11656D02*
X10123Y-11656D01*
X9983Y-11459D02*
X9983Y-11965D01*
X10011Y-12021D01*
X10067Y-12050D01*
X10123Y-12050D01*
X10742Y-12021D02*
X10826Y-12050D01*
X10967Y-12050D01*
X11023Y-12021D01*
X11051Y-11993D01*
X11079Y-11937D01*
X11079Y-11881D01*
X11051Y-11825D01*
X11023Y-11796D01*
X10967Y-11768D01*
X10854Y-11740D01*
X10798Y-11712D01*
X10770Y-11684D01*
X10742Y-11628D01*
X10742Y-11571D01*
X10770Y-11515D01*
X10798Y-11487D01*
X10854Y-11459D01*
X10995Y-11459D01*
X11079Y-11487D01*
X11557Y-12021D02*
X11501Y-12050D01*
X11389Y-12050D01*
X11332Y-12021D01*
X11304Y-11965D01*
X11304Y-11740D01*
X11332Y-11684D01*
X11389Y-11656D01*
X11501Y-11656D01*
X11557Y-11684D01*
X11586Y-11740D01*
X11586Y-11796D01*
X11304Y-11853D01*
X11839Y-11656D02*
X11839Y-12050D01*
X11839Y-11712D02*
X11867Y-11684D01*
X11923Y-11656D01*
X12007Y-11656D01*
X12064Y-11684D01*
X12092Y-11740D01*
X12092Y-12050D01*
X12345Y-12021D02*
X12401Y-12050D01*
X12514Y-12050D01*
X12570Y-12021D01*
X12598Y-11965D01*
X12598Y-11937D01*
X12570Y-11881D01*
X12514Y-11853D01*
X12429Y-11853D01*
X12373Y-11825D01*
X12345Y-11768D01*
X12345Y-11740D01*
X12373Y-11684D01*
X12429Y-11656D01*
X12514Y-11656D01*
X12570Y-11684D01*
X12935Y-12050D02*
X12879Y-12021D01*
X12851Y-11993D01*
X12823Y-11937D01*
X12823Y-11768D01*
X12851Y-11712D01*
X12879Y-11684D01*
X12935Y-11656D01*
X13020Y-11656D01*
X13076Y-11684D01*
X13104Y-11712D01*
X13132Y-11768D01*
X13132Y-11937D01*
X13104Y-11993D01*
X13076Y-12021D01*
X13020Y-12050D01*
X12935Y-12050D01*
X13385Y-12050D02*
X13385Y-11656D01*
X13385Y-11768D02*
X13413Y-11712D01*
X13442Y-11684D01*
X13498Y-11656D01*
X13554Y-11656D01*
X13863Y-11459D02*
X13920Y-11459D01*
X13976Y-11487D01*
X14004Y-11515D01*
X14032Y-11571D01*
X14060Y-11684D01*
X14060Y-11825D01*
X14032Y-11937D01*
X14004Y-11993D01*
X13976Y-12021D01*
X13920Y-12050D01*
X13863Y-12050D01*
X13807Y-12021D01*
X13779Y-11993D01*
X13751Y-11937D01*
X13723Y-11825D01*
X13723Y-11684D01*
X13751Y-11571D01*
X13779Y-11515D01*
X13807Y-11487D01*
X13863Y-11459D01*
X14313Y-11993D02*
X14341Y-12021D01*
X14313Y-12050D01*
X14285Y-12021D01*
X14313Y-11993D01*
X14313Y-12050D01*
X14848Y-11656D02*
X14848Y-12050D01*
X14707Y-11431D02*
X14566Y-11853D01*
X14932Y-11853D01*
X8717Y-10348D02*
X8802Y-10376D01*
X8942Y-10376D01*
X8998Y-10348D01*
X9026Y-10320D01*
X9055Y-10264D01*
X9055Y-10208D01*
X9026Y-10151D01*
X8998Y-10123D01*
X8942Y-10095D01*
X8830Y-10067D01*
X8773Y-10039D01*
X8745Y-10011D01*
X8717Y-9955D01*
X8717Y-9898D01*
X8745Y-9842D01*
X8773Y-9814D01*
X8830Y-9786D01*
X8970Y-9786D01*
X9055Y-9814D01*
X9561Y-10348D02*
X9505Y-10376D01*
X9392Y-10376D01*
X9336Y-10348D01*
X9308Y-10320D01*
X9280Y-10264D01*
X9280Y-10095D01*
X9308Y-10039D01*
X9336Y-10011D01*
X9392Y-9983D01*
X9505Y-9983D01*
X9561Y-10011D01*
X9814Y-10376D02*
X9814Y-9983D01*
X9814Y-10095D02*
X9842Y-10039D01*
X9870Y-10011D01*
X9926Y-9983D01*
X9983Y-9983D01*
X10433Y-10376D02*
X10433Y-10067D01*
X10404Y-10011D01*
X10348Y-9983D01*
X10236Y-9983D01*
X10179Y-10011D01*
X10433Y-10348D02*
X10376Y-10376D01*
X10236Y-10376D01*
X10179Y-10348D01*
X10151Y-10292D01*
X10151Y-10236D01*
X10179Y-10179D01*
X10236Y-10151D01*
X10376Y-10151D01*
X10433Y-10123D01*
X10629Y-9983D02*
X10854Y-9983D01*
X10714Y-9786D02*
X10714Y-10292D01*
X10742Y-10348D01*
X10798Y-10376D01*
X10854Y-10376D01*
X11304Y-10348D02*
X11248Y-10376D01*
X11136Y-10376D01*
X11079Y-10348D01*
X11051Y-10320D01*
X11023Y-10264D01*
X11023Y-10095D01*
X11051Y-10039D01*
X11079Y-10011D01*
X11136Y-9983D01*
X11248Y-9983D01*
X11304Y-10011D01*
X11557Y-10376D02*
X11557Y-9786D01*
X11811Y-10376D02*
X11811Y-10067D01*
X11782Y-10011D01*
X11726Y-9983D01*
X11642Y-9983D01*
X11586Y-10011D01*
X11557Y-10039D01*
X12092Y-10376D02*
X12092Y-9786D01*
X12232Y-9786D01*
X12317Y-9814D01*
X12373Y-9870D01*
X12401Y-9926D01*
X12429Y-10039D01*
X12429Y-10123D01*
X12401Y-10236D01*
X12373Y-10292D01*
X12317Y-10348D01*
X12232Y-10376D01*
X12092Y-10376D01*
X12935Y-9983D02*
X12935Y-10376D01*
X12682Y-9983D02*
X12682Y-10292D01*
X12710Y-10348D01*
X12767Y-10376D01*
X12851Y-10376D01*
X12907Y-10348D01*
X12935Y-10320D01*
X13217Y-10376D02*
X13217Y-9983D01*
X13217Y-9786D02*
X13188Y-9814D01*
X13217Y-9842D01*
X13245Y-9814D01*
X13217Y-9786D01*
X13217Y-9842D01*
X13498Y-9983D02*
X13498Y-10376D01*
X13498Y-10039D02*
X13526Y-10011D01*
X13582Y-9983D01*
X13667Y-9983D01*
X13723Y-10011D01*
X13751Y-10067D01*
X13751Y-10376D01*
X14116Y-10376D02*
X14060Y-10348D01*
X14032Y-10320D01*
X14004Y-10264D01*
X14004Y-10095D01*
X14032Y-10039D01*
X14060Y-10011D01*
X14116Y-9983D01*
X14201Y-9983D01*
X14257Y-10011D01*
X14285Y-10039D01*
X14313Y-10095D01*
X14313Y-10264D01*
X14285Y-10320D01*
X14257Y-10348D01*
X14201Y-10376D01*
X14116Y-10376D01*
G54D12*
X12696Y-7086D02*
X10334Y-7086D01*
X10334Y-7086D02*
X10334Y-6496D01*
X10334Y-6496D02*
X10531Y-6003D01*
X10531Y-6003D02*
X12500Y-6003D01*
X12500Y-6003D02*
X12696Y-6496D01*
X12696Y-6496D02*
X12696Y-7086D01*
X10981Y-8408D02*
X10981Y-7817D01*
X11122Y-7817D01*
X11206Y-7845D01*
X11262Y-7902D01*
X11290Y-7958D01*
X11318Y-8070D01*
X11318Y-8155D01*
X11290Y-8267D01*
X11262Y-8323D01*
X11206Y-8380D01*
X11122Y-8408D01*
X10981Y-8408D01*
X11881Y-8408D02*
X11543Y-8408D01*
X11712Y-8408D02*
X11712Y-7817D01*
X11656Y-7902D01*
X11600Y-7958D01*
X11543Y-7986D01*
X9983Y-7128D02*
X10320Y-7128D01*
X10151Y-7719D02*
X10151Y-7128D01*
X10489Y-7691D02*
X10573Y-7719D01*
X10714Y-7719D01*
X10770Y-7691D01*
X10798Y-7663D01*
X10826Y-7606D01*
X10826Y-7550D01*
X10798Y-7494D01*
X10770Y-7466D01*
X10714Y-7438D01*
X10601Y-7410D01*
X10545Y-7381D01*
X10517Y-7353D01*
X10489Y-7297D01*
X10489Y-7241D01*
X10517Y-7185D01*
X10545Y-7156D01*
X10601Y-7128D01*
X10742Y-7128D01*
X10826Y-7156D01*
X11361Y-7719D02*
X11079Y-7719D01*
X11079Y-7128D01*
X11529Y-7185D02*
X11557Y-7156D01*
X11614Y-7128D01*
X11754Y-7128D01*
X11811Y-7156D01*
X11839Y-7185D01*
X11867Y-7241D01*
X11867Y-7297D01*
X11839Y-7381D01*
X11501Y-7719D01*
X11867Y-7719D01*
X12401Y-7128D02*
X12120Y-7128D01*
X12092Y-7410D01*
X12120Y-7381D01*
X12176Y-7353D01*
X12317Y-7353D01*
X12373Y-7381D01*
X12401Y-7410D01*
X12429Y-7466D01*
X12429Y-7606D01*
X12401Y-7663D01*
X12373Y-7691D01*
X12317Y-7719D01*
X12176Y-7719D01*
X12120Y-7691D01*
X12092Y-7663D01*
X12626Y-7128D02*
X13020Y-7128D01*
X12767Y-7719D01*
M02*
