<?xml version="1.0" standalone="no"?>
 <!DOCTYPE svg PUBLIC "-//W3C//DTD SVG 1.1//EN" 
 "http://www.w3.org/Graphics/SVG/1.1/DTD/svg11.dtd"> 
<svg xmlns="http://www.w3.org/2000/svg" version="1.1" 
    width="41.9989cm" height="29.7002cm" viewBox="0 0 165350 116930 ">
<title>SVG Picture created as BlankModule-F_Mask.svg date 2015/11/04 01:25:03 </title>
  <desc>Picture generated by PCBNEW </desc>
<g style="fill:#000000; fill-opacity:1;stroke:#000000; stroke-opacity:1;
stroke-linecap:round; stroke-linejoin:round; "
 transform="translate(0 0) scale(1 1)">
</g>
<g style="fill:#000000; fill-opacity:0.0; 
stroke:#000000; stroke-width:39.3701; stroke-opacity:1; 
stroke-linecap:round; stroke-linejoin:round;">
</g>
<g style="fill:#000000; fill-opacity:1.0; 
stroke:#000000; stroke-width:39.3701; stroke-opacity:1; 
stroke-linecap:round; stroke-linejoin:round;">
<circle cx="16060.2" cy="10145.3" r="669.291" /> 
<circle cx="7005.12" cy="10145.3" r="669.291" /> 
<polyline style="fill-rule:evenodd;"
points="8661,9692
8661,8669
9370,8669
9370,9692
8661,9692
" /> 
<polyline style="fill-rule:evenodd;"
points="8661,11606
8661,10582
9370,10582
9370,11606
8661,11606
" /> 
<polyline style="fill-rule:evenodd;"
points="9661,9692
9661,8669
10370,8669
10370,9692
9661,9692
" /> 
<polyline style="fill-rule:evenodd;"
points="9661,11606
9661,10582
10370,10582
10370,11606
9661,11606
" /> 
<polyline style="fill-rule:evenodd;"
points="10661,9692
10661,8669
11370,8669
11370,9692
10661,9692
" /> 
<polyline style="fill-rule:evenodd;"
points="10661,11606
10661,10582
11370,10582
11370,11606
10661,11606
" /> 
<polyline style="fill-rule:evenodd;"
points="11661,9692
11661,8669
12370,8669
12370,9692
11661,9692
" /> 
<polyline style="fill-rule:evenodd;"
points="11661,11606
11661,10582
12370,10582
12370,11606
11661,11606
" /> 
<polyline style="fill-rule:evenodd;"
points="12661,11606
12661,10582
13370,10582
13370,11606
12661,11606
" /> 
<polyline style="fill-rule:evenodd;"
points="13661,11606
13661,10582
14370,10582
14370,11606
13661,11606
" /> 
<polyline style="fill-rule:evenodd;"
points="13661,9692
13661,8669
14370,8669
14370,9692
13661,9692
" /> 
<polyline style="fill-rule:evenodd;"
points="12661,9692
12661,8669
13370,8669
13370,9692
12661,9692
" /> 
</g> 
</svg>
