<?xml version="1.0" standalone="no"?>
 <!DOCTYPE svg PUBLIC "-//W3C//DTD SVG 1.1//EN" 
 "http://www.w3.org/Graphics/SVG/1.1/DTD/svg11.dtd"> 
<svg xmlns="http://www.w3.org/2000/svg" version="1.1" 
    width="41.9989cm" height="29.7002cm" viewBox="0 0 165350 116930 ">
<title>SVG Picture created as BlankModule-F_SilkS.svg date 2015/11/04 01:25:03 </title>
  <desc>Picture generated by PCBNEW </desc>
<g style="fill:#000000; fill-opacity:1;stroke:#000000; stroke-opacity:1;
stroke-linecap:round; stroke-linejoin:round; "
 transform="translate(0 0) scale(1 1)">
</g>
<g style="fill:#000000; fill-opacity:0.0; 
stroke:#000000; stroke-width:118.11; stroke-opacity:1; 
stroke-linecap:round; stroke-linejoin:round;">
<path d="M7930 13217
L8014 13245
L8042 13273
L8070 13329
L8070 13413
L8042 13470
L8014 13498
L7958 13526
L7733 13526
L7733 12935
L7930 12935
L7986 12964
L8014 12992
L8042 13048
L8042 13104
L8014 13160
L7986 13188
L7930 13217
L7733 13217
" />
<path d="M8408 13526
L8352 13498
L8323 13442
L8323 12935
" />
<path d="M8886 13526
L8886 13217
L8858 13160
L8802 13132
L8689 13132
L8633 13160
" />
<path d="M8886 13498
L8830 13526
L8689 13526
L8633 13498
L8605 13442
L8605 13385
L8633 13329
L8689 13301
L8830 13301
L8886 13273
" />
<path d="M9167 13132
L9167 13526
" />
<path d="M9167 13188
L9195 13160
L9251 13132
L9336 13132
L9392 13160
L9420 13217
L9420 13526
" />
<path d="M9701 13526
L9701 12935
" />
<path d="M9758 13301
L9926 13526
" />
<path d="M9926 13132
L9701 13357
" />
<path d="M10629 13526
L10629 12935
L10826 13357
L11023 12935
L11023 13526
" />
<path d="M11389 13526
L11332 13498
L11304 13470
L11276 13413
L11276 13245
L11304 13188
L11332 13160
L11389 13132
L11473 13132
L11529 13160
L11557 13188
L11586 13245
L11586 13413
L11557 13470
L11529 13498
L11473 13526
L11389 13526
" />
<path d="M12092 13526
L12092 12935
" />
<path d="M12092 13498
L12035 13526
L11923 13526
L11867 13498
L11839 13470
L11811 13413
L11811 13245
L11839 13188
L11867 13160
L11923 13132
L12035 13132
L12092 13160
" />
<path d="M12626 13132
L12626 13526
" />
<path d="M12373 13132
L12373 13442
L12401 13498
L12457 13526
L12542 13526
L12598 13498
L12626 13470
" />
<path d="M12992 13526
L12935 13498
L12907 13442
L12907 12935
" />
<path d="M13442 13498
L13385 13526
L13273 13526
L13217 13498
L13188 13442
L13188 13217
L13217 13160
L13273 13132
L13385 13132
L13442 13160
L13470 13217
L13470 13273
L13188 13329
" />
<path d="M14285 12935
L14341 12935
L14398 12964
L14426 12992
L14454 13048
L14482 13160
L14482 13301
L14454 13413
L14426 13470
L14398 13498
L14341 13526
L14285 13526
L14229 13498
L14201 13470
L14173 13413
L14145 13301
L14145 13160
L14173 13048
L14201 12992
L14229 12964
L14285 12935
" />
<path d="M14735 13470
L14763 13498
L14735 13526
L14707 13498
L14735 13470
L14735 13526
" />
<path d="M15269 13132
L15269 13526
" />
<path d="M15129 12907
L14988 13329
L15354 13329
" />
<path d="M8619 12514
L8703 12542
L8844 12542
L8900 12514
L8928 12485
L8956 12429
L8956 12373
L8928 12317
L8900 12289
L8844 12260
L8731 12232
L8675 12204
L8647 12176
L8619 12120
L8619 12064
L8647 12007
L8675 11979
L8731 11951
L8872 11951
L8956 11979
" />
<path d="M9462 12514
L9406 12542
L9294 12542
L9237 12514
L9209 12485
L9181 12429
L9181 12260
L9209 12204
L9237 12176
L9294 12148
L9406 12148
L9462 12176
" />
<path d="M9715 12542
L9715 12148
" />
<path d="M9715 12260
L9744 12204
L9772 12176
L9828 12148
L9884 12148
" />
<path d="M10334 12542
L10334 12232
L10306 12176
L10250 12148
L10137 12148
L10081 12176
" />
<path d="M10334 12514
L10278 12542
L10137 12542
L10081 12514
L10053 12457
L10053 12401
L10081 12345
L10137 12317
L10278 12317
L10334 12289
" />
<path d="M10531 12148
L10756 12148
" />
<path d="M10615 11951
L10615 12457
L10643 12514
L10700 12542
L10756 12542
" />
<path d="M11206 12514
L11150 12542
L11037 12542
L10981 12514
L10953 12485
L10925 12429
L10925 12260
L10953 12204
L10981 12176
L11037 12148
L11150 12148
L11206 12176
" />
<path d="M11459 12542
L11459 11951
" />
<path d="M11712 12542
L11712 12232
L11684 12176
L11628 12148
L11543 12148
L11487 12176
L11459 12204
" />
<path d="M11993 12542
L11993 11951
L12134 11951
L12218 11979
L12275 12035
L12303 12092
L12331 12204
L12331 12289
L12303 12401
L12275 12457
L12218 12514
L12134 12542
L11993 12542
" />
<path d="M12837 12148
L12837 12542
" />
<path d="M12584 12148
L12584 12457
L12612 12514
L12668 12542
L12753 12542
L12809 12514
L12837 12485
" />
<path d="M13118 12542
L13118 12148
" />
<path d="M13118 11951
L13090 11979
L13118 12007
L13146 11979
L13118 11951
L13118 12007
" />
<path d="M13399 12148
L13399 12542
" />
<path d="M13399 12204
L13428 12176
L13484 12148
L13568 12148
L13624 12176
L13652 12232
L13652 12542
" />
<path d="M14018 12542
L13962 12514
L13934 12485
L13906 12429
L13906 12260
L13934 12204
L13962 12176
L14018 12148
L14102 12148
L14159 12176
L14187 12204
L14215 12260
L14215 12429
L14187 12485
L14159 12514
L14102 12542
L14018 12542
" />
</g>
<g style="fill:#000000; fill-opacity:0.0; 
stroke:#000000; stroke-width:59.0551; stroke-opacity:1; 
stroke-linecap:round; stroke-linejoin:round;">
<path d="M9415 9137
L9615 9137
" />
<path d="M9415 11137
L9615 11137
" />
<path d="M10415 9137
L10615 9137
" />
<path d="M10415 11137
L10615 11137
" />
<path d="M11415 9137
L11615 9137
" />
<path d="M11415 11137
L11615 11137
" />
<path d="M12415 9137
L12615 9137
" />
<path d="M12415 11137
L12615 11137
" />
<path d="M8515 11137
L8615 11137
" />
<path d="M14515 11137
L14415 11137
" />
<path d="M13415 11137
L13615 11137
" />
<path d="M14515 9137
L14415 9137
" />
<path d="M8515 9137
L8615 9137
" />
<path d="M13415 9137
L13615 9137
" />
<path d="M14515 9137
L14515 11137
" />
<path d="M8515 9137
L8515 11137
" />
<path d="M12692 8087
L12664 8143
L12664 8228
L12692 8312
L12748 8368
L12804 8397
L12917 8425
L13001 8425
L13114 8397
L13170 8368
L13226 8312
L13254 8228
L13254 8172
L13226 8087
L13198 8059
L13001 8059
L13001 8172
" />
<path d="M13254 7806
L12664 7806
L13254 7469
L12664 7469
" />
<path d="M13254 7187
L12664 7187
L12664 7047
L12692 6962
L12748 6906
L12804 6878
L12917 6850
L13001 6850
L13114 6878
L13170 6906
L13226 6962
L13254 7047
L13254 7187
" />
<path d="M11664 8425
L12254 8228
L11664 8031
" />
<path d="M12198 7497
L12226 7525
L12254 7609
L12254 7665
L12226 7750
L12170 7806
L12114 7834
L12001 7862
L11917 7862
L11804 7834
L11748 7806
L11692 7750
L11664 7665
L11664 7609
L11692 7525
L11720 7497
" />
<path d="M12198 6906
L12226 6934
L12254 7019
L12254 7075
L12226 7159
L12170 7215
L12114 7244
L12001 7272
L11917 7272
L11804 7244
L11748 7215
L11692 7159
L11664 7075
L11664 7019
L11692 6934
L11720 6906
" />
<path d="M11254 8292
L10664 8292
L10664 8151
L10692 8067
L10748 8011
L10804 7983
L10917 7955
L11001 7955
L11114 7983
L11170 8011
L11226 8067
L11254 8151
L11254 8292
" />
<path d="M10086 8278
L10086 7997
" />
<path d="M10254 8334
L9664 8137
L10254 7940
" />
</g> 
</svg>
