<?xml version="1.0" standalone="no"?>
 <!DOCTYPE svg PUBLIC "-//W3C//DTD SVG 1.1//EN" 
 "http://www.w3.org/Graphics/SVG/1.1/DTD/svg11.dtd"> 
<svg xmlns="http://www.w3.org/2000/svg" version="1.1" 
    width="41.9989cm" height="29.7002cm" viewBox="0 0 165350 116930 ">
<title>SVG Picture created as BlankModule-F_Cu.svg date 2015/11/04 01:25:03 </title>
  <desc>Picture generated by PCBNEW </desc>
<g style="fill:#000000; fill-opacity:1;stroke:#000000; stroke-opacity:1;
stroke-linecap:round; stroke-linejoin:round; "
 transform="translate(0 0) scale(1 1)">
</g>
<g style="fill:#000000; fill-opacity:0.0; 
stroke:#000000; stroke-width:39.3701; stroke-opacity:1; 
stroke-linecap:round; stroke-linejoin:round;">
</g>
<g style="fill:#000000; fill-opacity:1.0; 
stroke:#000000; stroke-width:39.3701; stroke-opacity:1; 
stroke-linecap:round; stroke-linejoin:round;">
<circle cx="16060.2" cy="10145.3" r="590.551" /> 
<circle cx="7005.12" cy="10145.3" r="590.551" /> 
<polyline style="fill-rule:evenodd;"
points="8740,9614
8740,8748
9291,8748
9291,9614
8740,9614
" /> 
<polyline style="fill-rule:evenodd;"
points="8740,11527
8740,10661
9291,10661
9291,11527
8740,11527
" /> 
<polyline style="fill-rule:evenodd;"
points="9740,9614
9740,8748
10291,8748
10291,9614
9740,9614
" /> 
<polyline style="fill-rule:evenodd;"
points="9740,11527
9740,10661
10291,10661
10291,11527
9740,11527
" /> 
<polyline style="fill-rule:evenodd;"
points="10740,9614
10740,8748
11291,8748
11291,9614
10740,9614
" /> 
<polyline style="fill-rule:evenodd;"
points="10740,11527
10740,10661
11291,10661
11291,11527
10740,11527
" /> 
<polyline style="fill-rule:evenodd;"
points="11740,9614
11740,8748
12291,8748
12291,9614
11740,9614
" /> 
<polyline style="fill-rule:evenodd;"
points="11740,11527
11740,10661
12291,10661
12291,11527
11740,11527
" /> 
<polyline style="fill-rule:evenodd;"
points="12740,11527
12740,10661
13291,10661
13291,11527
12740,11527
" /> 
<polyline style="fill-rule:evenodd;"
points="13740,11527
13740,10661
14291,10661
14291,11527
13740,11527
" /> 
<polyline style="fill-rule:evenodd;"
points="13740,9614
13740,8748
14291,8748
14291,9614
13740,9614
" /> 
<polyline style="fill-rule:evenodd;"
points="12740,9614
12740,8748
13291,8748
13291,9614
12740,9614
" /> 
<circle cx="12992.1" cy="10137.8" r="275.591" /> 
<circle cx="12007.9" cy="10137.8" r="275.591" /> 
<circle cx="11023.6" cy="10137.8" r="275.591" /> 
<circle cx="10039.4" cy="10137.8" r="275.591" /> 
</g>
<g style="fill:#000000; fill-opacity:1.0; 
stroke:#000000; stroke-width:196.85; stroke-opacity:1; 
stroke-linecap:round; stroke-linejoin:round;">
<path d="M12992 10137
L12992 11070
" />
<path d="M12992 11070
L13015 11094
" />
<path d="M13015 10114
L13015 9181
" />
<path d="M12992 10137
L13015 10114
" />
<path d="M14015 9181
L14015 11094
" />
<path d="M9015 9181
L9015 11094
" />
<path d="M12007 10137
L12007 11086
" />
<path d="M12007 11086
L12015 11094
" />
<path d="M12015 9181
L12015 10129
" />
<path d="M12015 10129
L12007 10137
" />
<path d="M11023 10137
L11023 11086
" />
<path d="M11023 11086
L11015 11094
" />
<path d="M11015 9181
L11015 10129
" />
<path d="M11015 10129
L11023 10137
" />
<path d="M10039 10137
L10039 11070
" />
<path d="M10039 11070
L10015 11094
" />
<path d="M10015 10114
L10015 9181
" />
<path d="M10039 10137
L10015 10114
" />
</g>
<g style="fill:#000000; fill-opacity:1.0; 
stroke:#000000; stroke-width:39.3701; stroke-opacity:1; 
stroke-linecap:round; stroke-linejoin:round;">
<polyline style="fill-rule:evenodd;"
points="15243,8518
14901,8860
14901,8611
14811,8394
14645,8227
14429,8137
14194,8137
13603,8137
13515,8173
13429,8137
13194,8137
12603,8137
12515,8173
12429,8137
12194,8137
11603,8137
11515,8173
11429,8137
11194,8137
10603,8137
10515,8173
10429,8137
10194,8137
9603,8137
9515,8173
9429,8137
9194,8137
8603,8137
8386,8227
8220,8393
8130,8610
8129,8826
7822,8518
7822,6434
13834,6434
15243,7843
15243,8518
" /> 
</g>
<g style="fill:#000000; fill-opacity:0.0; 
stroke:#000000; stroke-width:393.701; stroke-opacity:1; 
stroke-linecap:round; stroke-linejoin:round;">
<polyline fill="none;"
points="15243,8518
14901,8860
14901,8611
14811,8394
14645,8227
14429,8137
14194,8137
13603,8137
13515,8173
13429,8137
13194,8137
12603,8137
12515,8173
12429,8137
12194,8137
11603,8137
11515,8173
11429,8137
11194,8137
10603,8137
10515,8173
10429,8137
10194,8137
9603,8137
9515,8173
9429,8137
9194,8137
8603,8137
8386,8227
8220,8393
8130,8610
8129,8826
7822,8518
7822,6434
13834,6434
15243,7843
15243,8518
" /> 
</g>
<g style="fill:#000000; fill-opacity:1.0; 
stroke:#000000; stroke-width:39.3701; stroke-opacity:1; 
stroke-linecap:round; stroke-linejoin:round;">
<polyline style="fill-rule:evenodd;"
points="15243,13855
7822,13855
7822,11772
8129,11464
8129,11664
8219,11881
8385,12047
8602,12137
8837,12137
9427,12137
9515,12101
9602,12137
9837,12137
10427,12137
10515,12101
10602,12137
10837,12137
11427,12137
11515,12101
11602,12137
11837,12137
12427,12137
12515,12101
12602,12137
12837,12137
13427,12137
13515,12101
13602,12137
13837,12137
14427,12137
14645,12048
14811,11882
14901,11665
14901,11430
15243,11772
15243,13855
" /> 
</g>
<g style="fill:#000000; fill-opacity:0.0; 
stroke:#000000; stroke-width:393.701; stroke-opacity:1; 
stroke-linecap:round; stroke-linejoin:round;">
<polyline fill="none;"
points="15243,13855
7822,13855
7822,11772
8129,11464
8129,11664
8219,11881
8385,12047
8602,12137
8837,12137
9427,12137
9515,12101
9602,12137
9837,12137
10427,12137
10515,12101
10602,12137
10837,12137
11427,12137
11515,12101
11602,12137
11837,12137
12427,12137
12515,12101
12602,12137
12837,12137
13427,12137
13515,12101
13602,12137
13837,12137
14427,12137
14645,12048
14811,11882
14901,11665
14901,11430
15243,11772
15243,13855
" /> 
</g> 
</svg>
