G04 (created by PCBNEW (2013-may-18)-stable) date Вт 27 окт 2015 03:11:57*
%MOIN*%
G04 Gerber Fmt 3.4, Leading zero omitted, Abs format*
%FSLAX34Y34*%
G01*
G70*
G90*
G04 APERTURE LIST*
%ADD10C,0.00393701*%
%ADD11C,0.122047*%
%ADD12R,0.0669291X0.0629921*%
%ADD13R,0.0669291X0.0984252*%
%ADD14C,0.0590551*%
%ADD15C,0.019685*%
%ADD16C,0.0393701*%
G04 APERTURE END LIST*
G54D10*
G54D11*
X7086Y-10236D03*
X16141Y-10236D03*
G54D12*
X10177Y-26102D03*
G54D13*
X10748Y-24704D03*
X12480Y-24704D03*
G54D12*
X13051Y-26102D03*
G54D14*
X9645Y-24212D03*
X13582Y-24212D03*
G54D15*
X10748Y-24704D02*
X10137Y-24704D01*
X10137Y-24704D02*
X9645Y-24212D01*
X12480Y-24704D02*
X13090Y-24704D01*
X13090Y-24704D02*
X13582Y-24212D01*
X10177Y-26102D02*
X10177Y-27893D01*
X13051Y-27893D02*
X13051Y-26102D01*
X12992Y-27952D02*
X13051Y-27893D01*
X10236Y-27952D02*
X12992Y-27952D01*
X10177Y-27893D02*
X10236Y-27952D01*
G54D10*
G36*
X15320Y-13933D02*
X14365Y-13933D01*
X14128Y-13980D01*
X13926Y-14114D01*
X13792Y-14315D01*
X13745Y-14553D01*
X13750Y-14576D01*
X13750Y-23326D01*
X13407Y-23326D01*
X13168Y-23425D01*
X10059Y-23425D01*
X9822Y-23326D01*
X9478Y-23326D01*
X9478Y-14370D01*
X9431Y-14132D01*
X9428Y-14128D01*
X9426Y-14119D01*
X9292Y-13917D01*
X7898Y-12524D01*
X7898Y-11867D01*
X8661Y-11105D01*
X8661Y-9367D01*
X7898Y-8604D01*
X7898Y-6511D01*
X15320Y-6511D01*
X15320Y-8614D01*
X14566Y-9367D01*
X14566Y-11105D01*
X15320Y-11858D01*
X15320Y-13933D01*
X15320Y-13933D01*
G37*
G54D16*
X15320Y-13933D02*
X14365Y-13933D01*
X14128Y-13980D01*
X13926Y-14114D01*
X13792Y-14315D01*
X13745Y-14553D01*
X13750Y-14576D01*
X13750Y-23326D01*
X13407Y-23326D01*
X13168Y-23425D01*
X10059Y-23425D01*
X9822Y-23326D01*
X9478Y-23326D01*
X9478Y-14370D01*
X9431Y-14132D01*
X9428Y-14128D01*
X9426Y-14119D01*
X9292Y-13917D01*
X7898Y-12524D01*
X7898Y-11867D01*
X8661Y-11105D01*
X8661Y-9367D01*
X7898Y-8604D01*
X7898Y-6511D01*
X15320Y-6511D01*
X15320Y-8614D01*
X14566Y-9367D01*
X14566Y-11105D01*
X15320Y-11858D01*
X15320Y-13933D01*
G54D10*
G36*
X13820Y-28814D02*
X12992Y-29642D01*
X12992Y-31466D01*
X10236Y-31466D01*
X10236Y-29642D01*
X9408Y-28814D01*
X9431Y-28780D01*
X9431Y-28780D01*
X9478Y-28543D01*
X9478Y-28543D01*
X9478Y-26888D01*
X9508Y-26918D01*
X9725Y-27007D01*
X9990Y-27007D01*
X10137Y-26860D01*
X10137Y-26141D01*
X10129Y-26141D01*
X10129Y-26062D01*
X10137Y-26062D01*
X10137Y-26055D01*
X10216Y-26055D01*
X10216Y-26062D01*
X10224Y-26062D01*
X10224Y-26141D01*
X10216Y-26141D01*
X10216Y-26860D01*
X10364Y-27007D01*
X10628Y-27007D01*
X10845Y-26918D01*
X10872Y-26892D01*
X10929Y-27031D01*
X11156Y-27258D01*
X11452Y-27381D01*
X11774Y-27382D01*
X12070Y-27259D01*
X12297Y-27032D01*
X12356Y-26892D01*
X12382Y-26918D01*
X12599Y-27007D01*
X12864Y-27007D01*
X13011Y-26860D01*
X13011Y-26141D01*
X13003Y-26141D01*
X13003Y-26062D01*
X13011Y-26062D01*
X13011Y-26055D01*
X13090Y-26055D01*
X13090Y-26062D01*
X13098Y-26062D01*
X13098Y-26141D01*
X13090Y-26141D01*
X13090Y-26860D01*
X13238Y-27007D01*
X13502Y-27007D01*
X13719Y-26918D01*
X13750Y-26888D01*
X13750Y-28543D01*
X13797Y-28780D01*
X13820Y-28814D01*
X13820Y-28814D01*
G37*
G54D16*
X13820Y-28814D02*
X12992Y-29642D01*
X12992Y-31466D01*
X10236Y-31466D01*
X10236Y-29642D01*
X9408Y-28814D01*
X9431Y-28780D01*
X9431Y-28780D01*
X9478Y-28543D01*
X9478Y-28543D01*
X9478Y-26888D01*
X9508Y-26918D01*
X9725Y-27007D01*
X9990Y-27007D01*
X10137Y-26860D01*
X10137Y-26141D01*
X10129Y-26141D01*
X10129Y-26062D01*
X10137Y-26062D01*
X10137Y-26055D01*
X10216Y-26055D01*
X10216Y-26062D01*
X10224Y-26062D01*
X10224Y-26141D01*
X10216Y-26141D01*
X10216Y-26860D01*
X10364Y-27007D01*
X10628Y-27007D01*
X10845Y-26918D01*
X10872Y-26892D01*
X10929Y-27031D01*
X11156Y-27258D01*
X11452Y-27381D01*
X11774Y-27382D01*
X12070Y-27259D01*
X12297Y-27032D01*
X12356Y-26892D01*
X12382Y-26918D01*
X12599Y-27007D01*
X12864Y-27007D01*
X13011Y-26860D01*
X13011Y-26141D01*
X13003Y-26141D01*
X13003Y-26062D01*
X13011Y-26062D01*
X13011Y-26055D01*
X13090Y-26055D01*
X13090Y-26062D01*
X13098Y-26062D01*
X13098Y-26141D01*
X13090Y-26141D01*
X13090Y-26860D01*
X13238Y-27007D01*
X13502Y-27007D01*
X13719Y-26918D01*
X13750Y-26888D01*
X13750Y-28543D01*
X13797Y-28780D01*
X13820Y-28814D01*
M02*
