<?xml version="1.0" standalone="no"?>
 <!DOCTYPE svg PUBLIC "-//W3C//DTD SVG 1.1//EN" 
 "http://www.w3.org/Graphics/SVG/1.1/DTD/svg11.dtd"> 
<svg xmlns="http://www.w3.org/2000/svg" version="1.1" 
    width="29.7002cm" height="21.0007cm" viewBox="0 0 116930 82680 ">
<title>SVG Picture created as RoboplatformDIY-B_Cu.svg date 2015/10/27 07:17:37 </title>
  <desc>Picture generated by PCBNEW </desc>
<g style="fill:#000000; fill-opacity:1;stroke:#000000; stroke-opacity:1;
stroke-linecap:round; stroke-linejoin:round; "
 transform="translate(0 0) scale(1 1)">
</g>
<g style="fill:#000000; fill-opacity:0.0; 
stroke:#000000; stroke-width:59.0551; stroke-opacity:1; 
stroke-linecap:round; stroke-linejoin:round;">
</g>
<g style="fill:#000000; fill-opacity:1.0; 
stroke:#000000; stroke-width:59.0551; stroke-opacity:1; 
stroke-linecap:round; stroke-linejoin:round;">
<circle cx="53962.6" cy="27787.4" r="285.433" /> 
<circle cx="52962.6" cy="27787.4" r="285.433" /> 
<circle cx="53962.6" cy="36287.4" r="285.433" /> 
<circle cx="52962.6" cy="36287.4" r="285.433" /> 
<polyline style="fill-rule:evenodd;"
points="53777,53789
53777,53297
54033,53297
54033,53789
53777,53789
" /> 
<polyline style="fill-rule:evenodd;"
points="52872,53789
52872,53297
53127,53297
53127,53789
52872,53789
" /> 
<polyline style="fill-rule:evenodd;"
points="52872,55246
52872,54753
53127,54753
53127,55246
52872,55246
" /> 
<polyline style="fill-rule:evenodd;"
points="53777,55246
53777,54753
54033,54753
54033,55246
53777,55246
" /> 
<polyline style="fill-rule:evenodd;"
points="53222,10210
53222,10702
52966,10702
52966,10210
53222,10210
" /> 
<polyline style="fill-rule:evenodd;"
points="54127,10210
54127,10702
53872,10702
53872,10210
54127,10210
" /> 
<polyline style="fill-rule:evenodd;"
points="54127,8753
54127,9246
53872,9246
53872,8753
54127,8753
" /> 
<polyline style="fill-rule:evenodd;"
points="53222,8753
53222,9246
52966,9246
52966,8753
53222,8753
" /> 
<circle cx="67037.4" cy="27212.6" r="285.433" /> 
<circle cx="68037.4" cy="27212.6" r="285.433" /> 
<circle cx="36500" cy="31000" r="285.433" /> 
<circle cx="35500" cy="31000" r="285.433" /> 
<circle cx="36500" cy="29000" r="285.433" /> 
<circle cx="35500" cy="29000" r="285.433" /> 
<circle cx="36500" cy="30000" r="285.433" /> 
<circle cx="35500" cy="30000" r="285.433" /> 
<circle cx="35500" cy="34000" r="285.433" /> 
<circle cx="36500" cy="34000" r="285.433" /> 
<circle cx="36500" cy="32000" r="285.433" /> 
<circle cx="35500" cy="32000" r="285.433" /> 
<circle cx="35500" cy="33000" r="285.433" /> 
<circle cx="36500" cy="33000" r="285.433" /> 
<circle cx="35500" cy="35000" r="285.433" /> 
<circle cx="36500" cy="35000" r="285.433" /> 
<circle cx="46061" cy="24049.2" r="246.063" /> 
<circle cx="46061" cy="25049.2" r="246.063" /> 
<circle cx="46061" cy="26049.2" r="246.063" /> 
<circle cx="46061" cy="27049.2" r="246.063" /> 
<circle cx="46061" cy="28049.2" r="246.063" /> 
<circle cx="46061" cy="29049.2" r="246.063" /> 
<circle cx="46061" cy="30049.2" r="246.063" /> 
<circle cx="46061" cy="31049.2" r="246.063" /> 
<circle cx="46061" cy="32049.2" r="246.063" /> 
<circle cx="46061" cy="33049.2" r="246.063" /> 
<circle cx="46061" cy="34049.2" r="246.063" /> 
<circle cx="46061" cy="35049.2" r="246.063" /> 
<circle cx="46061" cy="36049.2" r="246.063" /> 
<circle cx="46061" cy="37049.2" r="246.063" /> 
<circle cx="46061" cy="38049.2" r="246.063" /> 
<circle cx="46061" cy="39049.2" r="246.063" /> 
<circle cx="46061" cy="40049.2" r="246.063" /> 
<circle cx="48061" cy="40049.2" r="246.063" /> 
<circle cx="48061" cy="39049.2" r="246.063" /> 
<circle cx="48061" cy="38049.2" r="246.063" /> 
<circle cx="48061" cy="37049.2" r="246.063" /> 
<circle cx="48061" cy="36049.2" r="246.063" /> 
<circle cx="48061" cy="35049.2" r="246.063" /> 
<circle cx="48061" cy="34049.2" r="246.063" /> 
<circle cx="48061" cy="33049.2" r="246.063" /> 
<circle cx="48061" cy="32049.2" r="246.063" /> 
<circle cx="48061" cy="31049.2" r="246.063" /> 
<circle cx="48061" cy="30049.2" r="246.063" /> 
<circle cx="48061" cy="29049.2" r="246.063" /> 
<circle cx="48061" cy="28049.2" r="246.063" /> 
<circle cx="48061" cy="27049.2" r="246.063" /> 
<circle cx="48061" cy="26049.2" r="246.063" /> 
<circle cx="48061" cy="25049.2" r="246.063" /> 
<circle cx="48061" cy="24049.2" r="246.063" /> 
<circle cx="47250" cy="41250" r="265.748" /> 
<circle cx="39750" cy="37500" r="265.748" /> 
<circle cx="37750" cy="40750" r="265.748" /> 
<circle cx="36000" cy="47750" r="265.748" /> 
<circle cx="43250" cy="31000" r="265.748" /> 
<circle cx="34250" cy="32000" r="265.748" /> 
<circle cx="35500" cy="23500" r="265.748" /> 
<circle cx="34250" cy="27500" r="265.748" /> 
<circle cx="39750" cy="36500" r="265.748" /> 
<circle cx="46000" cy="23000" r="265.748" /> 
<circle cx="63500" cy="18000" r="265.748" /> 
<circle cx="59250" cy="20750" r="265.748" /> 
<circle cx="44500" cy="31000" r="265.748" /> 
<circle cx="37750" cy="32000" r="265.748" /> 
<circle cx="40250" cy="30050" r="265.748" /> 
<circle cx="46250" cy="41250" r="265.748" /> 
<circle cx="34000" cy="35500" r="265.748" /> 
<circle cx="34500" cy="39000" r="265.748" /> 
<circle cx="36750" cy="43750" r="265.748" /> 
<circle cx="50500" cy="34500" r="265.748" /> 
<circle cx="50500" cy="36250" r="265.748" /> 
<circle cx="24500" cy="27500" r="265.748" /> 
<circle cx="32400" cy="43000" r="265.748" /> 
<circle cx="37100" cy="40050" r="265.748" /> 
<circle cx="37850" cy="34650" r="265.748" /> 
<circle cx="66000" cy="23000" r="265.748" /> 
<circle cx="52250" cy="38750" r="265.748" /> 
<circle cx="42750" cy="41000" r="265.748" /> 
<circle cx="45250" cy="19000" r="265.748" /> 
<circle cx="69500" cy="50250" r="265.748" /> 
<circle cx="32500" cy="13750" r="265.748" /> 
<circle cx="62500" cy="37750" r="265.748" /> 
<circle cx="51750" cy="27500" r="265.748" /> 
<circle cx="44750" cy="44750" r="265.748" /> 
<circle cx="58500" cy="27250" r="265.748" /> 
<circle cx="56750" cy="34750" r="265.748" /> 
<circle cx="55750" cy="34750" r="265.748" /> 
<circle cx="56750" cy="29250" r="265.748" /> 
<circle cx="55750" cy="29250" r="265.748" /> 
<circle cx="66500" cy="30500" r="265.748" /> 
<circle cx="51500" cy="34500" r="265.748" /> 
<circle cx="44881.9" cy="46063" r="265.748" /> 
<circle cx="51500" cy="28500" r="265.748" /> 
<circle cx="44750" cy="17750" r="265.748" /> 
<circle cx="60250" cy="16750" r="265.748" /> 
<circle cx="59400" cy="46400" r="265.748" /> 
<circle cx="51181.1" cy="41732.3" r="265.748" /> 
<circle cx="44881.9" cy="47244.1" r="265.748" /> 
<circle cx="50000" cy="26250" r="265.748" /> 
<circle cx="61750" cy="19750" r="265.748" /> 
<circle cx="42500" cy="23000" r="265.748" /> 
<circle cx="44000" cy="20000" r="265.748" /> 
<circle cx="47750" cy="20000" r="265.748" /> 
<circle cx="42500" cy="34500" r="265.748" /> 
<circle cx="61750" cy="44500" r="265.748" /> 
<circle cx="40250" cy="42750" r="265.748" /> 
<circle cx="40250" cy="40750" r="265.748" /> 
<circle cx="44750" cy="16500" r="265.748" /> 
<circle cx="51500" cy="26500" r="265.748" /> 
<circle cx="39000" cy="38250" r="265.748" /> 
<circle cx="37750" cy="32750" r="265.748" /> 
<circle cx="53250" cy="34000" r="265.748" /> 
<circle cx="52200" cy="35050" r="265.748" /> 
<circle cx="65500" cy="48000" r="265.748" /> 
<circle cx="65250" cy="41000" r="265.748" /> 
<circle cx="49850" cy="30000" r="265.748" /> 
<circle cx="53250" cy="30000" r="265.748" /> 
<circle cx="49850" cy="40850" r="265.748" /> 
<circle cx="64250" cy="18500" r="265.748" /> 
<circle cx="65250" cy="28500" r="265.748" /> 
<circle cx="36750" cy="16000" r="265.748" /> 
<circle cx="33000" cy="29000" r="265.748" /> 
</g>
<g style="fill:#000000; fill-opacity:1.0; 
stroke:#000000; stroke-width:196.85; stroke-opacity:1; 
stroke-linecap:round; stroke-linejoin:round;">
<path d="M46799 25049
L47250 25500
" />
<path d="M47250 25500
L47250 28750
" />
<path d="M47250 28750
L47250 41250
" />
<path d="M46061 25049
L46799 25049
" />
<path d="M44500 22250
L42000 22250
" />
<path d="M40750 36500
L39750 37500
" />
<path d="M37750 40750
L36000 42500
" />
<path d="M36000 42500
L36000 43500
" />
<path d="M48500 22250
L44500 22250
" />
<path d="M48450 25049
L49000 24500
" />
<path d="M49000 24500
L49000 22750
" />
<path d="M49000 22750
L48500 22250
" />
<path d="M48061 25049
L48450 25049
" />
<path d="M36000 43500
L36000 47750
" />
<path d="M41500 35750
L40750 36500
" />
<path d="M41500 22750
L41500 35750
" />
<path d="M42000 22250
L41500 22750
" />
<path d="M43250 31000
L45300 33050
" />
<path d="M46060 33050
L46061 33049
" />
<path d="M45300 33050
L46060 33050
" />
<path d="M34250 24750
L35500 23500
" />
<path d="M34250 27500
L34250 24750
" />
<path d="M33250 33500
L33250 33000
" />
<path d="M39250 37000
L34500 37000
" />
<path d="M33750 36250
L34250 36750
" />
<path d="M33750 36250
L33250 35750
" />
<path d="M39750 36500
L39250 37000
" />
<path d="M34500 37000
L34250 36750
" />
<path d="M33250 35750
L33250 33500
" />
<path d="M34250 32000
L35500 32000
" />
<path d="M33250 33000
L34250 32000
" />
<path d="M46000 23000
L44500 24500
" />
<path d="M59250 20750
L61750 20750
" />
<path d="M63500 19000
L63500 18000
" />
<path d="M61750 20750
L63500 19000
" />
<path d="M44500 24500
L44500 31000
" />
<path d="M36500 32000
L37750 32000
" />
<path d="M35650 36400
L35250 36400
" />
<path d="M35050 34000
L34650 34400
" />
<path d="M34650 34400
L34650 34850
" />
<path d="M38750 35500
L37850 36400
" />
<path d="M40250 30050
L40250 30500
" />
<path d="M39000 35250
L38750 35500
" />
<path d="M39000 35250
L40250 34000
" />
<path d="M40250 34000
L40250 31250
" />
<path d="M40250 31250
L40250 30500
" />
<path d="M34650 35400
L34650 34850
" />
<path d="M37850 36400
L35650 36400
" />
<path d="M35050 34000
L35500 34000
" />
<path d="M34650 35800
L34650 35400
" />
<path d="M35250 36400
L34650 35800
" />
<path d="M46750 33750
L46750 30738
" />
<path d="M46250 41250
L46750 40750
" />
<path d="M46750 33750
L46750 40750
" />
<path d="M46750 30738
L46061 30049
" />
<path d="M35500 33000
L34750 33000
" />
<path d="M34500 39000
L34750 39250
" />
<path d="M34000 34500
L34000 35500
" />
<path d="M34000 33750
L34000 34500
" />
<path d="M34750 33000
L34000 33750
" />
<path d="M49250 38250
L49250 31238
" />
<path d="M43500 41750
L43500 40000
" />
<path d="M43500 42000
L43500 41750
" />
<path d="M44500 43000
L43500 42000
" />
<path d="M48000 43000
L45750 43000
" />
<path d="M45750 43000
L45250 43000
" />
<path d="M45250 43000
L44500 43000
" />
<path d="M40500 39250
L41000 39250
" />
<path d="M42750 39250
L41000 39250
" />
<path d="M43500 40000
L42750 39250
" />
<path d="M49250 41750
L48000 43000
" />
<path d="M49250 41750
L49250 38250
" />
<path d="M49250 31238
L48061 30049
" />
<path d="M36750 43000
L40500 39250
" />
<path d="M36750 43750
L36750 43000
" />
<path d="M40500 39250
L38000 39250
" />
<path d="M38000 39250
L34750 39250
" />
<path d="M34750 39250
L35000 39250
" />
<path d="M50500 36000
L50500 36250
" />
<path d="M50500 34500
L50500 36000
" />
<path d="M53000 53543
L53000 54050
" />
<path d="M53905 54455
L53905 55000
" />
<path d="M53700 54250
L53905 54455
" />
<path d="M53200 54250
L53700 54250
" />
<path d="M53000 54050
L53200 54250
" />
<path d="M53905 55000
L54300 55000
" />
<path d="M54500 50700
L55650 49550
" />
<path d="M54500 54800
L54500 50700
" />
<path d="M54300 55000
L54500 54800
" />
<path d="M53094 9000
L53094 9544
" />
<path d="M54000 9900
L54000 10456
" />
<path d="M53850 9750
L54000 9900
" />
<path d="M53300 9750
L53850 9750
" />
<path d="M53094 9544
L53300 9750
" />
<path d="M53094 9000
L52650 9000
" />
<path d="M52400 9250
L52400 13850
" />
<path d="M52650 9000
L52400 9250
" />
</g>
<g style="fill:#000000; fill-opacity:1.0; 
stroke:#000000; stroke-width:393.701; stroke-opacity:1; 
stroke-linecap:round; stroke-linejoin:round;">
<path d="M36500 35000
L37500 35000
" />
<path d="M37500 35000
L37850 34650
" />
</g>
<g style="fill:#000000; fill-opacity:1.0; 
stroke:#000000; stroke-width:196.85; stroke-opacity:1; 
stroke-linecap:round; stroke-linejoin:round;">
<path d="M52500 26750
L52500 25500
" />
<path d="M51750 27500
L52500 26750
" />
<path d="M55750 34750
L56750 34750
" />
<path d="M55750 29250
L56750 29250
" />
<path d="M43250 21250
L40250 21250
" />
<path d="M36500 34000
L37750 34000
" />
<path d="M48200 27049
L48061 27049
" />
<path d="M49000 21250
L45500 21250
" />
<path d="M50000 22250
L49000 21250
" />
<path d="M50000 25250
L50000 22250
" />
<path d="M48200 27049
L50000 25250
" />
<path d="M45500 21250
L43250 21250
" />
<path d="M38750 34000
L37750 34000
" />
<path d="M39250 33500
L38750 34000
" />
<path d="M39250 22250
L39250 25000
" />
<path d="M39250 25000
L39250 33500
" />
<path d="M40250 21250
L39250 22250
" />
<path d="M36350 35850
L35750 35850
" />
<path d="M37650 35850
L36350 35850
" />
<path d="M43500 21750
L40500 21750
" />
<path d="M44000 21750
L43500 21750
" />
<path d="M48061 26049
L48200 26049
" />
<path d="M48750 21750
L45000 21750
" />
<path d="M49500 22500
L48750 21750
" />
<path d="M49500 24750
L49500 22500
" />
<path d="M48200 26049
L49500 24750
" />
<path d="M45000 21750
L44000 21750
" />
<path d="M39000 34500
L38250 35250
" />
<path d="M39750 33750
L39000 34500
" />
<path d="M39750 22500
L39750 33750
" />
<path d="M40500 21750
L39750 22500
" />
<path d="M38250 35250
L37650 35850
" />
<path d="M35500 35600
L35500 35000
" />
<path d="M35750 35850
L35500 35600
" />
<path d="M49250 29250
L48261 29250
" />
<path d="M50000 29250
L53500 29250
" />
<path d="M54750 30500
L53500 29250
" />
<path d="M66500 30500
L54750 30500
" />
<path d="M50000 29250
L49250 29250
" />
<path d="M48261 29250
L48061 29049
" />
<path d="M51500 34500
L51500 40232
" />
<path d="M50852 40879
L51300 40432
" />
<path d="M51500 40232
L51300 40432
" />
<path d="M50841 40891
L50852 40879
" />
<path d="M45669 46062
L44881 46062
" />
<path d="M50841 40891
L45669 46062
" />
<path d="M50852 40879
L50841 40891
" />
<path d="M51000 25750
L51000 21750
" />
<path d="M51000 21750
L47000 17750
" />
<path d="M47000 17750
L44750 17750
" />
<path d="M50750 26000
L51000 25750
" />
<path d="M50750 27750
L50750 26000
" />
<path d="M51500 28500
L50750 27750
" />
<path d="M54700 14150
L54700 14700
" />
<path d="M55750 15750
L59250 15750
" />
<path d="M59250 15750
L60250 16750
" />
<path d="M54450 9000
L54700 9250
" />
<path d="M54700 9250
L54700 14150
" />
<path d="M54450 9000
L54000 9000
" />
<path d="M54700 14700
L55750 15750
" />
<path d="M53000 55000
L52600 55000
" />
<path d="M54750 46750
L59000 46750
" />
<path d="M53250 48250
L54750 46750
" />
<path d="M53250 52000
L53250 48250
" />
<path d="M52500 52750
L53250 52000
" />
<path d="M59000 46750
L59050 46750
" />
<path d="M59050 46750
L59400 46400
" />
<path d="M52350 52900
L52500 52750
" />
<path d="M52350 54750
L52350 52900
" />
<path d="M52600 55000
L52350 54750
" />
<path d="M51181 41732
L45669 47244
" />
<path d="M45669 47244
L44881 47244
" />
<path d="M50000 26250
L50000 26000
" />
<path d="M50000 26000
L50500 25500
" />
<path d="M49250 20750
L50500 22000
" />
<path d="M50500 22000
L50500 25500
" />
<path d="M40000 20750
L38750 22000
" />
<path d="M38750 22000
L38750 32000
" />
<path d="M37500 33500
L37000 33000
" />
<path d="M37000 33000
L36500 33000
" />
<path d="M38750 32000
L38750 33250
" />
<path d="M38500 33500
L37500 33500
" />
<path d="M38750 33250
L38500 33500
" />
<path d="M40000 20750
L49250 20750
" />
<path d="M61750 19750
L58250 16250
" />
<path d="M53094 11094
L53094 10456
" />
<path d="M53094 11094
L53250 11250
" />
<path d="M53250 11250
L54000 12000
" />
<path d="M54000 12000
L54000 14750
" />
<path d="M54000 14750
L55500 16250
" />
<path d="M58250 16250
L55500 16250
" />
<path d="M44000 20000
L47750 20000
" />
<path d="M42500 29000
L42500 32750
" />
<path d="M42500 29000
L42500 23000
" />
<path d="M42500 34500
L42500 32750
" />
<path d="M60250 47250
L61250 46250
" />
<path d="M55000 47250
L60250 47250
" />
<path d="M53905 48344
L55000 47250
" />
<path d="M53905 48344
L53905 53543
" />
<path d="M61750 45750
L61250 46250
" />
<path d="M61750 44500
L61750 45750
" />
<path d="M40250 40750
L40250 42750
" />
<path d="M46500 16500
L44750 16500
" />
<path d="M51500 21500
L46500 16500
" />
<path d="M51500 26500
L51500 21500
" />
<path d="M35500 30000
L33600 30000
" />
<path d="M38200 38750
L35500 38750
" />
<path d="M34350 37600
L33250 36500
" />
<path d="M41250 38750
L43000 38750
" />
<path d="M45500 42500
L44750 42500
" />
<path d="M48299 38049
L48061 38049
" />
<path d="M47750 42500
L45750 42500
" />
<path d="M48750 41500
L47750 42500
" />
<path d="M48750 38500
L48750 41500
" />
<path d="M48299 38049
L48750 38500
" />
<path d="M45750 42500
L45500 42500
" />
<path d="M44750 42500
L44000 41750
" />
<path d="M44000 41750
L44000 41500
" />
<path d="M33250 36500
L32750 36000
" />
<path d="M44000 39750
L44000 41500
" />
<path d="M43000 38750
L44000 39750
" />
<path d="M41250 38750
L38200 38750
" />
<path d="M35500 38750
L34350 37600
" />
<path d="M32750 36000
L32750 32750
" />
<path d="M32750 30850
L32750 32750
" />
<path d="M33600 30000
L32750 30850
" />
<path d="M36500 29000
L37700 29000
" />
<path d="M38350 32150
L38350 30850
" />
<path d="M44500 39500
L43250 38250
" />
<path d="M43250 38250
L41500 38250
" />
<path d="M44500 41500
L44500 41250
" />
<path d="M45000 42000
L44500 41500
" />
<path d="M48061 41438
L47500 42000
" />
<path d="M47500 42000
L45750 42000
" />
<path d="M48061 41438
L48061 40049
" />
<path d="M45750 42000
L45000 42000
" />
<path d="M44500 41250
L44500 39500
" />
<path d="M41500 38250
L39000 38250
" />
<path d="M37750 32750
L38350 32150
" />
<path d="M38350 29650
L38350 30850
" />
<path d="M37700 29000
L38350 29650
" />
<path d="M48061 39049
L48061 40049
" />
<path d="M52200 35050
L53250 34000
" />
</g>
<g style="fill:#000000; fill-opacity:1.0; 
stroke:#000000; stroke-width:393.701; stroke-opacity:1; 
stroke-linecap:round; stroke-linejoin:round;">
<path d="M65500 41750
L65500 41250
" />
<path d="M65500 48000
L65500 41750
" />
<path d="M65500 41250
L65250 41000
" />
</g>
<g style="fill:#000000; fill-opacity:1.0; 
stroke:#000000; stroke-width:196.85; stroke-opacity:1; 
stroke-linecap:round; stroke-linejoin:round;">
<path d="M49850 30000
L53250 30000
" />
<path d="M49850 40850
L49850 30000
" />
</g>
<g style="fill:#000000; fill-opacity:1.0; 
stroke:#000000; stroke-width:393.701; stroke-opacity:1; 
stroke-linecap:round; stroke-linejoin:round;">
<path d="M64750 19000
L64750 28000
" />
<path d="M64750 19000
L64250 18500
" />
<path d="M64750 28000
L65250 28500
" />
<path d="M36750 27000
L35500 28250
" />
<path d="M35500 28250
L35500 29000
" />
<path d="M36750 24000
L36750 27000
" />
<path d="M36750 16000
L36750 24000
" />
<path d="M33000 29000
L35500 29000
" />
</g>
<g style="fill:#000000; fill-opacity:1.0; 
stroke:#000000; stroke-width:59.0551; stroke-opacity:1; 
stroke-linecap:round; stroke-linejoin:round;">
<polyline style="fill-rule:evenodd;"
points="36561,35005
36505,35061
36500,35055
36494,35061
36438,35005
36444,35000
36438,34994
36494,34938
36500,34944
36505,34938
36561,34994
36555,35000
36561,35005
" /> 
</g>
<g style="fill:#000000; fill-opacity:0.0; 
stroke:#000000; stroke-width:393.701; stroke-opacity:1; 
stroke-linecap:round; stroke-linejoin:round;">
<polyline fill="none;"
points="36561,35005
36505,35061
36500,35055
36494,35061
36438,35005
36444,35000
36438,34994
36494,34938
36500,34944
36505,34938
36561,34994
36555,35000
36561,35005
" /> 
</g>
<g style="fill:#000000; fill-opacity:1.0; 
stroke:#000000; stroke-width:59.0551; stroke-opacity:1; 
stroke-linecap:round; stroke-linejoin:round;">
<polyline style="fill-rule:evenodd;"
points="37836,34688
37762,34762
37405,35119
37404,34816
37351,34688
37750,34688
37836,34688
" /> 
</g>
<g style="fill:#000000; fill-opacity:0.0; 
stroke:#000000; stroke-width:393.701; stroke-opacity:1; 
stroke-linecap:round; stroke-linejoin:round;">
<polyline fill="none;"
points="37836,34688
37762,34762
37405,35119
37404,34816
37351,34688
37750,34688
37836,34688
" /> 
</g>
<g style="fill:#000000; fill-opacity:1.0; 
stroke:#000000; stroke-width:59.0551; stroke-opacity:1; 
stroke-linecap:round; stroke-linejoin:round;">
<polyline style="fill-rule:evenodd;"
points="46122,24054
46066,24110
46061,24104
46055,24110
45999,24054
46005,24049
45999,24043
46055,23987
46061,23993
46066,23987
46122,24043
46116,24049
46122,24054
" /> 
</g>
<g style="fill:#000000; fill-opacity:0.0; 
stroke:#000000; stroke-width:393.701; stroke-opacity:1; 
stroke-linecap:round; stroke-linejoin:round;">
<polyline fill="none;"
points="46122,24054
46066,24110
46061,24104
46055,24110
45999,24054
46005,24049
45999,24043
46055,23987
46061,23993
46066,23987
46122,24043
46116,24049
46122,24054
" /> 
</g>
<g style="fill:#000000; fill-opacity:1.0; 
stroke:#000000; stroke-width:59.0551; stroke-opacity:1; 
stroke-linecap:round; stroke-linejoin:round;">
<polyline style="fill-rule:evenodd;"
points="70649,49353
69038,50964
68943,50964
68943,27389
68942,27029
68806,26702
68612,26692
68093,27212
68612,27732
68806,27722
68943,27389
68943,50964
68557,50964
68557,27788
68037,27268
68031,27273
67976,27218
67981,27212
67976,27207
68031,27151
68037,27156
68557,26637
68547,26443
68214,26306
67854,26307
67536,26439
67218,26307
66858,26306
66525,26444
66270,26698
66132,27031
66131,27391
66269,27724
66523,27979
66856,28117
67216,28118
67536,27985
67860,28118
68220,28117
68547,27981
68557,27788
68557,50964
67385,50964
67385,30324
67251,29998
67002,29749
66676,29614
66324,29614
65998,29748
65936,29811
59075,29811
59075,24565
58892,24123
58555,23785
58113,23602
57636,23602
57194,23784
56856,24122
56673,24563
56673,25040
56855,25482
57192,25820
57634,26003
58111,26004
58553,25821
58891,25484
59074,25043
59075,24565
59075,29811
55035,29811
53987,28762
53882,28692
54141,28693
54474,28555
54729,28301
54867,27968
54868,27608
54730,27275
54476,27020
54143,26882
53783,26881
53462,27014
53143,26882
52783,26881
52450,27019
52195,27273
52057,27606
52057,27804
52002,27749
51676,27614
51588,27614
51438,27464
51438,27385
51675,27385
52001,27251
52250,27002
52385,26676
52385,26324
52251,25998
52188,25936
52188,21500
52136,21236
51987,21012
50413,19439
50413,14329
50231,13887
49893,13549
49452,13366
48974,13365
48533,13548
48195,13885
48012,14327
48011,14804
48194,15246
48531,15584
48972,15767
49450,15767
49891,15585
50229,15248
50413,14806
50413,14329
50413,19439
46987,16012
46763,15863
46500,15811
45313,15811
45252,15749
44926,15614
44574,15614
44508,15641
44508,13935
44325,13493
43988,13155
43546,12972
43069,12972
42627,13154
42289,13492
42106,13933
42106,14411
42288,14852
42626,15190
43067,15373
43544,15374
43986,15191
44324,14854
44507,14413
44508,13935
44508,15641
44248,15748
43999,15997
43864,16323
43864,16675
43998,17001
44122,17124
43999,17247
43864,17573
43864,17925
43998,18251
44247,18500
44573,18635
44925,18635
45251,18501
45313,18438
46714,18438
47443,19168
47248,19248
47186,19311
44563,19311
44502,19249
44176,19114
43824,19114
43498,19248
43249,19497
43114,19823
43114,20061
40000,20061
39736,20113
39512,20262
38262,21512
38113,21736
38061,22000
38061,28428
37963,28363
37700,28311
37091,28311
37013,28232
36743,28120
37306,27556
37477,27301
37537,27000
37537,27000
37537,26999
37537,24000
37537,16413
37635,16176
37635,15824
37501,15498
37252,15249
36926,15114
36574,15114
36248,15248
35999,15497
35864,15823
35864,16175
35962,16414
35962,22732
35676,22614
35324,22614
34998,22748
34749,22997
34614,23323
34614,23411
33762,24262
33613,24486
33561,24750
33561,26936
33499,26997
33484,27033
33484,24565
33302,24123
32964,23785
32523,23602
32045,23602
31604,23784
31266,24122
31082,24563
31082,25040
31264,25482
31602,25820
32043,26003
32521,26004
32962,25821
33300,25484
33484,25043
33484,24565
33484,27033
33364,27323
33364,27675
33498,28001
33709,28212
33413,28212
33176,28114
32824,28114
32498,28248
32249,28497
32114,28823
32114,29175
32248,29501
32497,29750
32764,29861
32262,30362
32113,30586
32061,30850
32061,32750
32061,36000
32113,36263
32262,36487
32762,36987
33862,38087
33862,38087
34016,38241
33998,38248
33749,38497
33614,38823
33614,39175
33748,39501
33997,39750
34323,39885
34485,39885
34486,39886
34750,39938
35000,39938
37393,39938
37248,39998
36999,40247
36864,40573
36864,40661
35512,42012
35363,42236
35311,42500
35311,43500
35311,47186
35249,47247
35114,47573
35114,47925
35248,48251
35497,48500
35823,48635
36175,48635
36501,48501
36750,48252
36885,47926
36885,47574
36751,47248
36688,47186
36688,44635
36925,44635
37251,44501
37500,44252
37635,43926
37635,43574
37501,43248
37488,43235
39491,41233
39498,41251
39561,41313
39561,42186
39499,42247
39364,42573
39364,42925
39498,43251
39747,43500
40073,43635
40425,43635
40751,43501
41000,43252
41135,42926
41135,42574
41001,42248
40938,42186
40938,41313
41000,41252
41135,40926
41135,40574
41001,40248
40752,39999
40732,39991
40785,39938
41000,39938
42464,39938
42811,40285
42811,41750
42811,42000
42863,42263
43012,42487
44012,43487
44236,43636
44500,43688
45250,43688
45750,43688
47068,43688
45414,45343
45384,45312
45058,45177
44706,45177
44380,45311
44131,45560
43996,45886
43995,46238
44130,46564
44219,46653
44131,46741
43996,47067
43995,47419
44130,47745
44379,47994
44704,48129
45057,48130
45383,47995
45445,47933
45669,47933
45932,47880
46156,47731
51269,42618
51356,42618
51682,42483
51931,42234
52066,41909
52067,41556
51932,41231
51704,41002
51787,40919
51787,40919
51787,40919
51987,40719
52136,40495
52188,40232
52188,36786
52194,36799
52448,37054
52781,37192
53141,37193
53462,37060
53781,37192
54141,37193
54474,37055
54729,36801
54867,36468
54868,36108
54730,35775
54476,35520
54143,35382
53783,35381
53462,35514
53143,35382
53021,35381
53085,35226
53085,35138
53338,34885
53425,34885
53751,34751
54000,34502
54135,34176
54135,33824
54001,33498
53752,33249
53426,33114
53074,33114
52748,33248
52499,33497
52364,33823
52364,33911
52258,34016
52251,33998
52002,33749
51676,33614
51324,33614
50999,33748
50676,33614
50538,33614
50538,30688
52686,30688
52747,30750
53073,30885
53425,30885
53751,30751
53889,30613
54262,30987
54486,31136
54750,31188
65936,31188
65997,31250
66323,31385
66675,31385
67001,31251
67250,31002
67385,30676
67385,30324
67385,50964
66385,50964
66385,47824
66287,47585
66287,41750
66287,41250
66227,40948
66122,40790
66001,40498
65752,40249
65426,40114
65074,40114
64748,40248
64499,40497
64364,40823
64364,41175
64498,41501
64712,41715
64712,41750
64712,47586
64614,47823
64614,48175
64748,48501
64997,48750
65323,48885
65675,48885
66001,48751
66250,48502
66385,48176
66385,47824
66385,50964
59075,50964
59075,48974
58892,48533
58555,48195
58113,48012
57636,48011
57194,48194
56856,48531
56673,48972
56673,49450
56855,49891
57192,50229
57634,50413
58111,50413
58553,50231
58891,49893
59074,49452
59075,48974
59075,50964
55118,50964
54884,51011
54686,51143
54594,51281
54594,48629
55285,47938
60250,47938
60513,47886
60737,47737
61737,46737
62237,46237
62386,46013
62438,45750
62438,45063
62500,45002
62635,44676
62635,44324
62501,43998
62252,43749
61926,43614
61574,43614
61248,43748
60999,43997
60864,44323
60864,44675
60998,45001
61061,45063
61061,45464
60762,45762
60285,46239
60285,46224
60151,45898
59902,45649
59576,45514
59224,45514
59075,45575
59075,38738
58892,38297
58555,37958
58113,37775
57636,37775
57194,37957
56856,38295
56673,38736
56673,39214
56855,39655
57192,39993
57634,40176
58111,40177
58553,39994
58891,39657
59074,39216
59075,38738
59075,45575
58898,45648
58649,45897
58581,46061
54750,46061
54486,46113
54262,46262
54262,46262
52762,47762
52613,47986
52561,48250
52561,51377
52539,51377
52532,51341
52400,51143
52202,51011
51968,50964
50413,50964
50413,48974
50231,48533
49893,48195
49452,48012
48974,48011
48533,48194
48195,48531
48012,48972
48011,49450
48194,49891
48531,50229
48972,50413
49450,50413
49891,50231
50229,49893
50413,49452
50413,48974
50413,50964
44508,50964
44508,49368
44325,48926
43988,48588
43546,48405
43069,48405
42627,48587
42289,48925
42106,49366
42106,49844
42288,50285
42626,50623
43067,50806
43544,50807
43986,50624
44324,50287
44507,49846
44508,49368
44508,50964
33484,50964
33484,38738
33302,38297
32964,37958
32523,37775
32045,37775
31604,37957
31266,38295
31082,38736
31082,39214
31264,39655
31602,39993
32043,40176
32521,40177
32962,39994
33300,39657
33484,39216
33484,38738
33484,50964
32142,50964
23051,41873
23051,34840
23051,28541
22898,28172
22616,27889
22247,27736
21848,27736
21479,27888
21196,28170
21043,28539
21043,28938
21195,29308
21477,29590
21846,29743
22246,29744
22615,29591
22897,29309
23051,28940
23051,28541
23051,34840
22898,34471
22616,34188
22247,34035
21848,34035
21479,34187
21196,34469
21043,34838
21043,35238
21195,35607
21477,35889
21846,36043
22246,36043
22615,35890
22897,35608
23051,35239
23051,34840
23051,41873
20688,39511
20688,24268
32142,12814
51968,12814
52202,12768
52400,12636
52532,12438
52539,12401
53311,12401
53311,14750
53363,15013
53512,15237
55012,16737
55012,16737
55236,16886
55500,16938
57964,16938
60864,19838
60864,19925
60920,20061
59813,20061
59752,19999
59426,19864
59074,19864
58748,19998
58499,20247
58364,20573
58364,20925
58498,21251
58747,21500
59073,21635
59425,21635
59751,21501
59813,21438
61750,21438
62013,21386
62237,21237
63962,19511
63962,27999
63962,28000
64022,28301
64193,28556
64400,28764
64498,29001
64747,29250
65073,29385
65425,29385
65751,29251
66000,29002
66135,28676
66135,28324
66001,27998
65752,27749
65537,27660
65537,19000
65477,18698
65306,18443
65306,18443
65099,18235
65001,17998
64752,17749
64426,17614
64299,17614
64251,17498
64002,17249
63676,17114
63324,17114
62998,17248
62749,17497
62614,17823
62614,18175
62748,18501
62811,18563
62811,18714
62389,19136
62252,18999
61926,18864
61838,18864
60556,17581
60751,17501
61000,17252
61135,16926
61135,16574
61001,16248
60752,15999
60426,15864
60338,15864
59737,15262
59513,15113
59250,15061
58969,15061
59074,14806
59075,14329
58892,13887
58555,13549
58113,13366
57636,13365
57194,13548
56856,13885
56673,14327
56673,14804
56778,15061
56035,15061
55388,14414
55388,14150
55388,12814
69038,12814
70649,14425
70649,49353
" /> 
</g>
<g style="fill:#000000; fill-opacity:0.0; 
stroke:#000000; stroke-width:393.701; stroke-opacity:1; 
stroke-linecap:round; stroke-linejoin:round;">
<polyline fill="none;"
points="70649,49353
69038,50964
68943,50964
68943,27389
68942,27029
68806,26702
68612,26692
68093,27212
68612,27732
68806,27722
68943,27389
68943,50964
68557,50964
68557,27788
68037,27268
68031,27273
67976,27218
67981,27212
67976,27207
68031,27151
68037,27156
68557,26637
68547,26443
68214,26306
67854,26307
67536,26439
67218,26307
66858,26306
66525,26444
66270,26698
66132,27031
66131,27391
66269,27724
66523,27979
66856,28117
67216,28118
67536,27985
67860,28118
68220,28117
68547,27981
68557,27788
68557,50964
67385,50964
67385,30324
67251,29998
67002,29749
66676,29614
66324,29614
65998,29748
65936,29811
59075,29811
59075,24565
58892,24123
58555,23785
58113,23602
57636,23602
57194,23784
56856,24122
56673,24563
56673,25040
56855,25482
57192,25820
57634,26003
58111,26004
58553,25821
58891,25484
59074,25043
59075,24565
59075,29811
55035,29811
53987,28762
53882,28692
54141,28693
54474,28555
54729,28301
54867,27968
54868,27608
54730,27275
54476,27020
54143,26882
53783,26881
53462,27014
53143,26882
52783,26881
52450,27019
52195,27273
52057,27606
52057,27804
52002,27749
51676,27614
51588,27614
51438,27464
51438,27385
51675,27385
52001,27251
52250,27002
52385,26676
52385,26324
52251,25998
52188,25936
52188,21500
52136,21236
51987,21012
50413,19439
50413,14329
50231,13887
49893,13549
49452,13366
48974,13365
48533,13548
48195,13885
48012,14327
48011,14804
48194,15246
48531,15584
48972,15767
49450,15767
49891,15585
50229,15248
50413,14806
50413,14329
50413,19439
46987,16012
46763,15863
46500,15811
45313,15811
45252,15749
44926,15614
44574,15614
44508,15641
44508,13935
44325,13493
43988,13155
43546,12972
43069,12972
42627,13154
42289,13492
42106,13933
42106,14411
42288,14852
42626,15190
43067,15373
43544,15374
43986,15191
44324,14854
44507,14413
44508,13935
44508,15641
44248,15748
43999,15997
43864,16323
43864,16675
43998,17001
44122,17124
43999,17247
43864,17573
43864,17925
43998,18251
44247,18500
44573,18635
44925,18635
45251,18501
45313,18438
46714,18438
47443,19168
47248,19248
47186,19311
44563,19311
44502,19249
44176,19114
43824,19114
43498,19248
43249,19497
43114,19823
43114,20061
40000,20061
39736,20113
39512,20262
38262,21512
38113,21736
38061,22000
38061,28428
37963,28363
37700,28311
37091,28311
37013,28232
36743,28120
37306,27556
37477,27301
37537,27000
37537,27000
37537,26999
37537,24000
37537,16413
37635,16176
37635,15824
37501,15498
37252,15249
36926,15114
36574,15114
36248,15248
35999,15497
35864,15823
35864,16175
35962,16414
35962,22732
35676,22614
35324,22614
34998,22748
34749,22997
34614,23323
34614,23411
33762,24262
33613,24486
33561,24750
33561,26936
33499,26997
33484,27033
33484,24565
33302,24123
32964,23785
32523,23602
32045,23602
31604,23784
31266,24122
31082,24563
31082,25040
31264,25482
31602,25820
32043,26003
32521,26004
32962,25821
33300,25484
33484,25043
33484,24565
33484,27033
33364,27323
33364,27675
33498,28001
33709,28212
33413,28212
33176,28114
32824,28114
32498,28248
32249,28497
32114,28823
32114,29175
32248,29501
32497,29750
32764,29861
32262,30362
32113,30586
32061,30850
32061,32750
32061,36000
32113,36263
32262,36487
32762,36987
33862,38087
33862,38087
34016,38241
33998,38248
33749,38497
33614,38823
33614,39175
33748,39501
33997,39750
34323,39885
34485,39885
34486,39886
34750,39938
35000,39938
37393,39938
37248,39998
36999,40247
36864,40573
36864,40661
35512,42012
35363,42236
35311,42500
35311,43500
35311,47186
35249,47247
35114,47573
35114,47925
35248,48251
35497,48500
35823,48635
36175,48635
36501,48501
36750,48252
36885,47926
36885,47574
36751,47248
36688,47186
36688,44635
36925,44635
37251,44501
37500,44252
37635,43926
37635,43574
37501,43248
37488,43235
39491,41233
39498,41251
39561,41313
39561,42186
39499,42247
39364,42573
39364,42925
39498,43251
39747,43500
40073,43635
40425,43635
40751,43501
41000,43252
41135,42926
41135,42574
41001,42248
40938,42186
40938,41313
41000,41252
41135,40926
41135,40574
41001,40248
40752,39999
40732,39991
40785,39938
41000,39938
42464,39938
42811,40285
42811,41750
42811,42000
42863,42263
43012,42487
44012,43487
44236,43636
44500,43688
45250,43688
45750,43688
47068,43688
45414,45343
45384,45312
45058,45177
44706,45177
44380,45311
44131,45560
43996,45886
43995,46238
44130,46564
44219,46653
44131,46741
43996,47067
43995,47419
44130,47745
44379,47994
44704,48129
45057,48130
45383,47995
45445,47933
45669,47933
45932,47880
46156,47731
51269,42618
51356,42618
51682,42483
51931,42234
52066,41909
52067,41556
51932,41231
51704,41002
51787,40919
51787,40919
51787,40919
51987,40719
52136,40495
52188,40232
52188,36786
52194,36799
52448,37054
52781,37192
53141,37193
53462,37060
53781,37192
54141,37193
54474,37055
54729,36801
54867,36468
54868,36108
54730,35775
54476,35520
54143,35382
53783,35381
53462,35514
53143,35382
53021,35381
53085,35226
53085,35138
53338,34885
53425,34885
53751,34751
54000,34502
54135,34176
54135,33824
54001,33498
53752,33249
53426,33114
53074,33114
52748,33248
52499,33497
52364,33823
52364,33911
52258,34016
52251,33998
52002,33749
51676,33614
51324,33614
50999,33748
50676,33614
50538,33614
50538,30688
52686,30688
52747,30750
53073,30885
53425,30885
53751,30751
53889,30613
54262,30987
54486,31136
54750,31188
65936,31188
65997,31250
66323,31385
66675,31385
67001,31251
67250,31002
67385,30676
67385,30324
67385,50964
66385,50964
66385,47824
66287,47585
66287,41750
66287,41250
66227,40948
66122,40790
66001,40498
65752,40249
65426,40114
65074,40114
64748,40248
64499,40497
64364,40823
64364,41175
64498,41501
64712,41715
64712,41750
64712,47586
64614,47823
64614,48175
64748,48501
64997,48750
65323,48885
65675,48885
66001,48751
66250,48502
66385,48176
66385,47824
66385,50964
59075,50964
59075,48974
58892,48533
58555,48195
58113,48012
57636,48011
57194,48194
56856,48531
56673,48972
56673,49450
56855,49891
57192,50229
57634,50413
58111,50413
58553,50231
58891,49893
59074,49452
59075,48974
59075,50964
55118,50964
54884,51011
54686,51143
54594,51281
54594,48629
55285,47938
60250,47938
60513,47886
60737,47737
61737,46737
62237,46237
62386,46013
62438,45750
62438,45063
62500,45002
62635,44676
62635,44324
62501,43998
62252,43749
61926,43614
61574,43614
61248,43748
60999,43997
60864,44323
60864,44675
60998,45001
61061,45063
61061,45464
60762,45762
60285,46239
60285,46224
60151,45898
59902,45649
59576,45514
59224,45514
59075,45575
59075,38738
58892,38297
58555,37958
58113,37775
57636,37775
57194,37957
56856,38295
56673,38736
56673,39214
56855,39655
57192,39993
57634,40176
58111,40177
58553,39994
58891,39657
59074,39216
59075,38738
59075,45575
58898,45648
58649,45897
58581,46061
54750,46061
54486,46113
54262,46262
54262,46262
52762,47762
52613,47986
52561,48250
52561,51377
52539,51377
52532,51341
52400,51143
52202,51011
51968,50964
50413,50964
50413,48974
50231,48533
49893,48195
49452,48012
48974,48011
48533,48194
48195,48531
48012,48972
48011,49450
48194,49891
48531,50229
48972,50413
49450,50413
49891,50231
50229,49893
50413,49452
50413,48974
50413,50964
44508,50964
44508,49368
44325,48926
43988,48588
43546,48405
43069,48405
42627,48587
42289,48925
42106,49366
42106,49844
42288,50285
42626,50623
43067,50806
43544,50807
43986,50624
44324,50287
44507,49846
44508,49368
44508,50964
33484,50964
33484,38738
33302,38297
32964,37958
32523,37775
32045,37775
31604,37957
31266,38295
31082,38736
31082,39214
31264,39655
31602,39993
32043,40176
32521,40177
32962,39994
33300,39657
33484,39216
33484,38738
33484,50964
32142,50964
23051,41873
23051,34840
23051,28541
22898,28172
22616,27889
22247,27736
21848,27736
21479,27888
21196,28170
21043,28539
21043,28938
21195,29308
21477,29590
21846,29743
22246,29744
22615,29591
22897,29309
23051,28940
23051,28541
23051,34840
22898,34471
22616,34188
22247,34035
21848,34035
21479,34187
21196,34469
21043,34838
21043,35238
21195,35607
21477,35889
21846,36043
22246,36043
22615,35890
22897,35608
23051,35239
23051,34840
23051,41873
20688,39511
20688,24268
32142,12814
51968,12814
52202,12768
52400,12636
52532,12438
52539,12401
53311,12401
53311,14750
53363,15013
53512,15237
55012,16737
55012,16737
55236,16886
55500,16938
57964,16938
60864,19838
60864,19925
60920,20061
59813,20061
59752,19999
59426,19864
59074,19864
58748,19998
58499,20247
58364,20573
58364,20925
58498,21251
58747,21500
59073,21635
59425,21635
59751,21501
59813,21438
61750,21438
62013,21386
62237,21237
63962,19511
63962,27999
63962,28000
64022,28301
64193,28556
64400,28764
64498,29001
64747,29250
65073,29385
65425,29385
65751,29251
66000,29002
66135,28676
66135,28324
66001,27998
65752,27749
65537,27660
65537,19000
65477,18698
65306,18443
65306,18443
65099,18235
65001,17998
64752,17749
64426,17614
64299,17614
64251,17498
64002,17249
63676,17114
63324,17114
62998,17248
62749,17497
62614,17823
62614,18175
62748,18501
62811,18563
62811,18714
62389,19136
62252,18999
61926,18864
61838,18864
60556,17581
60751,17501
61000,17252
61135,16926
61135,16574
61001,16248
60752,15999
60426,15864
60338,15864
59737,15262
59513,15113
59250,15061
58969,15061
59074,14806
59075,14329
58892,13887
58555,13549
58113,13366
57636,13365
57194,13548
56856,13885
56673,14327
56673,14804
56778,15061
56035,15061
55388,14414
55388,14150
55388,12814
69038,12814
70649,14425
70649,49353
" /> 
</g> 
</svg>
