<?xml version="1.0" standalone="no"?>
 <!DOCTYPE svg PUBLIC "-//W3C//DTD SVG 1.1//EN" 
 "http://www.w3.org/Graphics/SVG/1.1/DTD/svg11.dtd"> 
<svg xmlns="http://www.w3.org/2000/svg" version="1.1" 
    width="29.7002cm" height="21.0007cm" viewBox="0 0 116930 82680 ">
<title>SVG Picture created as RoboplatformDIY-B_Mask.svg date 2015/10/27 07:17:37 </title>
  <desc>Picture generated by PCBNEW </desc>
<g style="fill:#000000; fill-opacity:1;stroke:#000000; stroke-opacity:1;
stroke-linecap:round; stroke-linejoin:round; "
 transform="translate(0 0) scale(1 1)">
</g>
<g style="fill:#000000; fill-opacity:0.0; 
stroke:#000000; stroke-width:59.0551; stroke-opacity:1; 
stroke-linecap:round; stroke-linejoin:round;">
</g>
<g style="fill:#000000; fill-opacity:1.0; 
stroke:#000000; stroke-width:59.0551; stroke-opacity:1; 
stroke-linecap:round; stroke-linejoin:round;">
<circle cx="57874" cy="14566.9" r="580.709" /> 
<circle cx="53962.6" cy="27787.4" r="324.803" /> 
<circle cx="52962.6" cy="27787.4" r="324.803" /> 
<circle cx="53962.6" cy="36287.4" r="324.803" /> 
<circle cx="52962.6" cy="36287.4" r="324.803" /> 
<polyline style="fill-rule:evenodd;"
points="53777,53789
53777,53297
54033,53297
54033,53789
53777,53789
" /> 
<polyline style="fill-rule:evenodd;"
points="52872,53789
52872,53297
53127,53297
53127,53789
52872,53789
" /> 
<polyline style="fill-rule:evenodd;"
points="52872,55246
52872,54753
53127,54753
53127,55246
52872,55246
" /> 
<polyline style="fill-rule:evenodd;"
points="53777,55246
53777,54753
54033,54753
54033,55246
53777,55246
" /> 
<polyline style="fill-rule:evenodd;"
points="53222,10210
53222,10702
52966,10702
52966,10210
53222,10210
" /> 
<polyline style="fill-rule:evenodd;"
points="54127,10210
54127,10702
53872,10702
53872,10210
54127,10210
" /> 
<polyline style="fill-rule:evenodd;"
points="54127,8753
54127,9246
53872,9246
53872,8753
54127,8753
" /> 
<polyline style="fill-rule:evenodd;"
points="53222,8753
53222,9246
52966,9246
52966,8753
53222,8753
" /> 
<circle cx="67037.4" cy="27212.6" r="324.803" /> 
<circle cx="68037.4" cy="27212.6" r="324.803" /> 
<circle cx="36500" cy="31000" r="285.433" /> 
<circle cx="35500" cy="31000" r="285.433" /> 
<circle cx="36500" cy="29000" r="285.433" /> 
<circle cx="35500" cy="29000" r="285.433" /> 
<circle cx="36500" cy="30000" r="285.433" /> 
<circle cx="35500" cy="30000" r="285.433" /> 
<circle cx="35500" cy="34000" r="285.433" /> 
<circle cx="36500" cy="34000" r="285.433" /> 
<circle cx="36500" cy="32000" r="285.433" /> 
<circle cx="35500" cy="32000" r="285.433" /> 
<circle cx="35500" cy="33000" r="285.433" /> 
<circle cx="36500" cy="33000" r="285.433" /> 
<circle cx="35500" cy="35000" r="285.433" /> 
<circle cx="36500" cy="35000" r="285.433" /> 
<circle cx="46061" cy="24049.2" r="246.063" /> 
<circle cx="46061" cy="25049.2" r="246.063" /> 
<circle cx="46061" cy="26049.2" r="246.063" /> 
<circle cx="46061" cy="27049.2" r="246.063" /> 
<circle cx="46061" cy="28049.2" r="246.063" /> 
<circle cx="46061" cy="29049.2" r="246.063" /> 
<circle cx="46061" cy="30049.2" r="246.063" /> 
<circle cx="46061" cy="31049.2" r="246.063" /> 
<circle cx="46061" cy="32049.2" r="246.063" /> 
<circle cx="46061" cy="33049.2" r="246.063" /> 
<circle cx="46061" cy="34049.2" r="246.063" /> 
<circle cx="46061" cy="35049.2" r="246.063" /> 
<circle cx="46061" cy="36049.2" r="246.063" /> 
<circle cx="46061" cy="37049.2" r="246.063" /> 
<circle cx="46061" cy="38049.2" r="246.063" /> 
<circle cx="46061" cy="39049.2" r="246.063" /> 
<circle cx="46061" cy="40049.2" r="246.063" /> 
<circle cx="48061" cy="40049.2" r="246.063" /> 
<circle cx="48061" cy="39049.2" r="246.063" /> 
<circle cx="48061" cy="38049.2" r="246.063" /> 
<circle cx="48061" cy="37049.2" r="246.063" /> 
<circle cx="48061" cy="36049.2" r="246.063" /> 
<circle cx="48061" cy="35049.2" r="246.063" /> 
<circle cx="48061" cy="34049.2" r="246.063" /> 
<circle cx="48061" cy="33049.2" r="246.063" /> 
<circle cx="48061" cy="32049.2" r="246.063" /> 
<circle cx="48061" cy="31049.2" r="246.063" /> 
<circle cx="48061" cy="30049.2" r="246.063" /> 
<circle cx="48061" cy="29049.2" r="246.063" /> 
<circle cx="48061" cy="28049.2" r="246.063" /> 
<circle cx="48061" cy="27049.2" r="246.063" /> 
<circle cx="48061" cy="26049.2" r="246.063" /> 
<circle cx="48061" cy="25049.2" r="246.063" /> 
<circle cx="48061" cy="24049.2" r="246.063" /> 
<circle cx="32283.5" cy="38976.4" r="580.709" /> 
<circle cx="57874" cy="38976.4" r="580.709" /> 
<circle cx="57874" cy="24803.1" r="580.709" /> 
<circle cx="43307.1" cy="49606.3" r="580.709" /> 
<circle cx="43307.1" cy="14173.2" r="580.709" /> 
<circle cx="49212.6" cy="49212.6" r="580.709" /> 
<circle cx="57874" cy="49212.6" r="580.709" /> 
<circle cx="49212.6" cy="14566.9" r="580.709" /> 
<circle cx="32283.5" cy="24803.1" r="580.709" /> 
<circle cx="22047.2" cy="28740.2" r="383.858" /> 
<circle cx="22047.2" cy="35039.4" r="383.858" /> 
</g> 
</svg>
