<?xml version="1.0" standalone="no"?>
 <!DOCTYPE svg PUBLIC "-//W3C//DTD SVG 1.1//EN" 
 "http://www.w3.org/Graphics/SVG/1.1/DTD/svg11.dtd"> 
<svg xmlns="http://www.w3.org/2000/svg" version="1.1" 
    width="29.7002cm" height="21.0007cm" viewBox="0 0 116930 82680 ">
<title>SVG Picture created as RoboplatformDIY-B_SilkS.svg date 2015/10/27 07:17:37 </title>
  <desc>Picture generated by PCBNEW </desc>
<g style="fill:#000000; fill-opacity:1;stroke:#000000; stroke-opacity:1;
stroke-linecap:round; stroke-linejoin:round; "
 transform="translate(0 0) scale(1 1)">
</g>
<g style="fill:#000000; fill-opacity:0.0; 
stroke:#000000; stroke-width:39.3701; stroke-opacity:1; 
stroke-linecap:round; stroke-linejoin:round;">
<path d="M54181 54803
L54181 53818
" />
<path d="M54181 53818
L52803 53818
" />
<path d="M52803 53818
L52803 54409
" />
<path d="M52803 54409
L53196 54803
" />
<path d="M53196 54803
L54181 54803
" />
<path d="M52818 9196
L52818 10181
" />
<path d="M52818 10181
L54196 10181
" />
<path d="M54196 10181
L54196 9590
" />
<path d="M54196 9590
L53803 9196
" />
<path d="M53803 9196
L52818 9196
" />
</g>
<g style="fill:#000000; fill-opacity:0.0; 
stroke:#000000; stroke-width:59.0551; stroke-opacity:1; 
stroke-linecap:round; stroke-linejoin:round;">
<path d="M53684 54371
L53684 53978
L53590 53978
L53534 53997
L53496 54034
L53478 54071
L53459 54146
L53459 54203
L53478 54278
L53496 54315
L53534 54353
L53590 54371
L53684 54371
" />
<path d="M53121 53978
L53196 53978
L53234 53997
L53253 54015
L53290 54071
L53309 54146
L53309 54296
L53290 54334
L53271 54353
L53234 54371
L53159 54371
L53121 54353
L53103 54334
L53084 54296
L53084 54203
L53103 54165
L53121 54146
L53159 54128
L53234 54128
L53271 54146
L53290 54165
L53309 54203
" />
<path d="M54859 52218
L54465 52218
" />
<path d="M54859 52443
L54634 52275
" />
<path d="M54465 52443
L54690 52218
" />
<path d="M54465 52556
L54465 52781
" />
<path d="M54859 52668
L54465 52668
" />
<path d="M54859 52912
L54465 52912
" />
<path d="M54859 53325
L54671 53193
" />
<path d="M54859 53100
L54465 53100
L54465 53250
L54484 53287
L54503 53306
L54540 53325
L54596 53325
L54634 53306
L54653 53287
L54671 53250
L54671 53100
" />
<path d="M54465 53568
L54465 53606
L54484 53643
L54503 53662
L54540 53681
L54615 53700
L54709 53700
L54784 53681
L54821 53662
L54840 53643
L54859 53606
L54859 53568
L54840 53531
L54821 53512
L54784 53493
L54709 53475
L54615 53475
L54540 53493
L54503 53512
L54484 53531
L54465 53568
" />
<path d="M54465 53831
L54465 54093
L54859 53924
" />
<path d="M54859 54449
L54859 54224
" />
<path d="M54859 54337
L54465 54337
L54521 54299
L54559 54262
L54578 54224
" />
<path d="M54859 54824
L54859 54599
" />
<path d="M54859 54712
L54465 54712
L54521 54674
L54559 54637
L54578 54599
" />
<path d="M54840 54974
L54859 55031
L54859 55124
L54840 55162
L54821 55181
L54784 55199
L54746 55199
L54709 55181
L54690 55162
L54671 55124
L54653 55049
L54634 55012
L54615 54993
L54578 54974
L54540 54974
L54503 54993
L54484 55012
L54465 55049
L54465 55143
L54484 55199
" />
<path d="M53896 9946
L53896 9553
L53803 9553
L53746 9571
L53709 9609
L53690 9646
L53671 9721
L53671 9778
L53690 9853
L53709 9890
L53746 9928
L53803 9946
L53896 9946
" />
<path d="M53540 9553
L53278 9553
L53446 9946
" />
<path d="M54959 8618
L54565 8618
" />
<path d="M54959 8843
L54734 8675
" />
<path d="M54565 8843
L54790 8618
" />
<path d="M54565 8956
L54565 9181
" />
<path d="M54959 9068
L54565 9068
" />
<path d="M54959 9312
L54565 9312
" />
<path d="M54959 9725
L54771 9593
" />
<path d="M54959 9500
L54565 9500
L54565 9650
L54584 9687
L54603 9706
L54640 9725
L54696 9725
L54734 9706
L54753 9687
L54771 9650
L54771 9500
" />
<path d="M54565 9968
L54565 10006
L54584 10043
L54603 10062
L54640 10081
L54715 10100
L54809 10100
L54884 10081
L54921 10062
L54940 10043
L54959 10006
L54959 9968
L54940 9931
L54921 9912
L54884 9893
L54809 9875
L54715 9875
L54640 9893
L54603 9912
L54584 9931
L54565 9968
" />
<path d="M54565 10231
L54565 10493
L54959 10324
" />
<path d="M54959 10849
L54959 10624
" />
<path d="M54959 10737
L54565 10737
L54621 10699
L54659 10662
L54678 10624
" />
<path d="M54959 11224
L54959 10999
" />
<path d="M54959 11112
L54565 11112
L54621 11074
L54659 11037
L54678 10999
" />
<path d="M54940 11374
L54959 11431
L54959 11524
L54940 11562
L54921 11581
L54884 11599
L54846 11599
L54809 11581
L54790 11562
L54771 11524
L54753 11449
L54734 11412
L54715 11393
L54678 11374
L54640 11374
L54603 11393
L54584 11412
L54565 11449
L54565 11543
L54584 11599
" />
</g> 
</svg>
