<?xml version="1.0" standalone="no"?>
 <!DOCTYPE svg PUBLIC "-//W3C//DTD SVG 1.1//EN" 
 "http://www.w3.org/Graphics/SVG/1.1/DTD/svg11.dtd"> 
<svg xmlns="http://www.w3.org/2000/svg" version="1.1" 
    width="29.7002cm" height="21.0007cm" viewBox="0 0 116930 82680 ">
<title>SVG Picture created as RoboplatformDIY-B_Paste.svg date 2015/10/27 07:17:37 </title>
  <desc>Picture generated by PCBNEW </desc>
<g style="fill:#000000; fill-opacity:1;stroke:#000000; stroke-opacity:1;
stroke-linecap:round; stroke-linejoin:round; "
 transform="translate(0 0) scale(1 1)">
</g>
<g style="fill:#000000; fill-opacity:0.0; 
stroke:#000000; stroke-width:59.0551; stroke-opacity:1; 
stroke-linecap:round; stroke-linejoin:round;">
</g>
<g style="fill:#000000; fill-opacity:1.0; 
stroke:#000000; stroke-width:59.0551; stroke-opacity:1; 
stroke-linecap:round; stroke-linejoin:round;">
<polyline style="fill-rule:evenodd;"
points="53777,53789
53777,53297
54033,53297
54033,53789
53777,53789
" /> 
<polyline style="fill-rule:evenodd;"
points="52872,53789
52872,53297
53127,53297
53127,53789
52872,53789
" /> 
<polyline style="fill-rule:evenodd;"
points="52872,55246
52872,54753
53127,54753
53127,55246
52872,55246
" /> 
<polyline style="fill-rule:evenodd;"
points="53777,55246
53777,54753
54033,54753
54033,55246
53777,55246
" /> 
<polyline style="fill-rule:evenodd;"
points="53222,10210
53222,10702
52966,10702
52966,10210
53222,10210
" /> 
<polyline style="fill-rule:evenodd;"
points="54127,10210
54127,10702
53872,10702
53872,10210
54127,10210
" /> 
<polyline style="fill-rule:evenodd;"
points="54127,8753
54127,9246
53872,9246
53872,8753
54127,8753
" /> 
<polyline style="fill-rule:evenodd;"
points="53222,8753
53222,9246
52966,9246
52966,8753
53222,8753
" /> 
</g> 
</svg>
