<?xml version="1.0" standalone="no"?>
 <!DOCTYPE svg PUBLIC "-//W3C//DTD SVG 1.1//EN" 
 "http://www.w3.org/Graphics/SVG/1.1/DTD/svg11.dtd"> 
<svg xmlns="http://www.w3.org/2000/svg" version="1.1" 
    width="29.7002cm" height="21.0007cm" viewBox="0 0 116930 82680 ">
<title>SVG Picture created as RoboplatformDIY-Edge_Cuts.svg date 2015/10/27 07:17:37 </title>
  <desc>Picture generated by PCBNEW </desc>
<g style="fill:#000000; fill-opacity:1;stroke:#000000; stroke-opacity:1;
stroke-linecap:round; stroke-linejoin:round; "
 transform="translate(0 0) scale(1 1)">
</g>
<g style="fill:#000000; fill-opacity:0.0; 
stroke:#000000; stroke-width:39.3701; stroke-opacity:1; 
stroke-linecap:round; stroke-linejoin:round;">
<path d="M51968 12204
L31889 12204
" />
<path d="M51968 8267
L51968 12204
" />
<path d="M55118 8267
L51968 8267
" />
<path d="M55118 12204
L55118 8267
" />
<path d="M69291 12204
L55118 12204
" />
<path d="M71259 14173
L69291 12204
" />
<path d="M71259 49606
L71259 14173
" />
<path d="M69291 51574
L71259 49606
" />
<path d="M55118 51574
L69291 51574
" />
<path d="M55118 55511
L55118 51574
" />
<path d="M51968 55511
L55118 55511
" />
<path d="M51968 51574
L51968 55511
" />
<path d="M31889 51574
L51968 51574
" />
<path d="M20078 39763
L31889 51574
" />
<path d="M20078 24015
L20078 39763
" />
<path d="M31889 12204
L20078 24015
" />
</g> 
</svg>
