<?xml version="1.0" standalone="no"?>
 <!DOCTYPE svg PUBLIC "-//W3C//DTD SVG 1.1//EN" 
 "http://www.w3.org/Graphics/SVG/1.1/DTD/svg11.dtd"> 
<svg xmlns="http://www.w3.org/2000/svg" version="1.1" 
    width="29.7002cm" height="21.0007cm" viewBox="0 0 116930 82680 ">
<title>SVG Picture created as RoboplatformDIY-F_SilkS.svg date 2015/10/27 07:17:37 </title>
  <desc>Picture generated by PCBNEW </desc>
<g style="fill:#000000; fill-opacity:1;stroke:#000000; stroke-opacity:1;
stroke-linecap:round; stroke-linejoin:round; "
 transform="translate(0 0) scale(1 1)">
</g>
<g style="fill:#000000; fill-opacity:0.0; 
stroke:#000000; stroke-width:118.11; stroke-opacity:1; 
stroke-linecap:round; stroke-linejoin:round;">
<path d="M41618 34461
L41243 34724
" />
<path d="M41618 34911
L40831 34911
L40831 34611
L40868 34536
L40906 34499
L40981 34461
L41093 34461
L41168 34499
L41206 34536
L41243 34611
L41243 34911
" />
<path d="M41618 34011
L41581 34086
L41543 34124
L41468 34161
L41243 34161
L41168 34124
L41131 34086
L41093 34011
L41093 33899
L41131 33824
L41168 33786
L41243 33749
L41468 33749
L41543 33786
L41581 33824
L41618 33899
L41618 34011
" />
<path d="M41618 33412
L40831 33412
" />
<path d="M41131 33412
L41093 33337
L41093 33187
L41131 33112
L41168 33074
L41243 33037
L41468 33037
L41543 33074
L41581 33112
L41618 33187
L41618 33337
L41581 33412
" />
<path d="M41618 32587
L41581 32662
L41543 32699
L41468 32737
L41243 32737
L41168 32699
L41131 32662
L41093 32587
L41093 32474
L41131 32399
L41168 32362
L41243 32324
L41468 32324
L41543 32362
L41581 32399
L41618 32474
L41618 32587
" />
<path d="M41093 31987
L41881 31987
" />
<path d="M41131 31987
L41093 31912
L41093 31762
L41131 31687
L41168 31649
L41243 31612
L41468 31612
L41543 31649
L41581 31687
L41618 31762
L41618 31912
L41581 31987
" />
<path d="M41618 31162
L41581 31237
L41506 31274
L40831 31274
" />
<path d="M41618 30524
L41206 30524
L41131 30562
L41093 30637
L41093 30787
L41131 30862
" />
<path d="M41581 30524
L41618 30599
L41618 30787
L41581 30862
L41506 30899
L41431 30899
L41356 30862
L41318 30787
L41318 30599
L41281 30524
" />
<path d="M41093 30262
L41093 29962
" />
<path d="M40831 30149
L41506 30149
L41581 30112
L41618 30037
L41618 29962
" />
<path d="M41093 29812
L41093 29512
" />
<path d="M41618 29699
L40943 29699
L40868 29662
L40831 29587
L40831 29512
" />
<path d="M41618 29137
L41581 29212
L41543 29250
L41468 29287
L41243 29287
L41168 29250
L41131 29212
L41093 29137
L41093 29025
L41131 28950
L41168 28912
L41243 28875
L41468 28875
L41543 28912
L41581 28950
L41618 29025
L41618 29137
" />
<path d="M41618 28537
L41093 28537
" />
<path d="M41243 28537
L41168 28500
L41131 28462
L41093 28387
L41093 28312
" />
<path d="M41618 28050
L41093 28050
" />
<path d="M41168 28050
L41131 28012
L41093 27937
L41093 27825
L41131 27750
L41206 27712
L41618 27712
" />
<path d="M41206 27712
L41131 27675
L41093 27600
L41093 27487
L41131 27412
L41206 27375
L41618 27375
" />
<path d="M41618 26662
L41206 26662
L41131 26700
L41093 26775
L41093 26925
L41131 27000
" />
<path d="M41581 26662
L41618 26737
L41618 26925
L41581 27000
L41506 27037
L41431 27037
L41356 27000
L41318 26925
L41318 26737
L41281 26662
" />
<path d="M40831 25538
L40831 25463
L40868 25388
L40906 25350
L40981 25313
L41131 25275
L41318 25275
L41468 25313
L41543 25350
L41581 25388
L41618 25463
L41618 25538
L41581 25612
L41543 25650
L41468 25687
L41318 25725
L41131 25725
L40981 25687
L40906 25650
L40868 25612
L40831 25538
" />
<path d="M41543 24938
L41581 24900
L41618 24938
L41581 24975
L41543 24938
L41618 24938
" />
<path d="M41093 24225
L41618 24225
" />
<path d="M40793 24413
L41356 24600
L41356 24113
" />
<path d="M39481 34830
L39518 34718
L39518 34530
L39481 34455
L39443 34418
L39368 34380
L39293 34380
L39218 34418
L39181 34455
L39143 34530
L39106 34680
L39068 34755
L39031 34793
L38956 34830
L38881 34830
L38806 34793
L38768 34755
L38731 34680
L38731 34493
L38768 34380
" />
<path d="M39481 33705
L39518 33780
L39518 33930
L39481 34005
L39443 34043
L39368 34080
L39143 34080
L39068 34043
L39031 34005
L38993 33930
L38993 33780
L39031 33705
" />
<path d="M39518 33368
L38993 33368
" />
<path d="M39143 33368
L39068 33330
L39031 33293
L38993 33218
L38993 33143
" />
<path d="M39518 32543
L39106 32543
L39031 32581
L38993 32656
L38993 32806
L39031 32881
" />
<path d="M39481 32543
L39518 32618
L39518 32806
L39481 32881
L39406 32918
L39331 32918
L39256 32881
L39218 32806
L39218 32618
L39181 32543
" />
<path d="M38993 32281
L38993 31981
" />
<path d="M38731 32168
L39406 32168
L39481 32131
L39518 32056
L39518 31981
" />
<path d="M39481 31381
L39518 31456
L39518 31606
L39481 31681
L39443 31718
L39368 31756
L39143 31756
L39068 31718
L39031 31681
L38993 31606
L38993 31456
L39031 31381
" />
<path d="M39518 31043
L38731 31043
" />
<path d="M39518 30706
L39106 30706
L39031 30743
L38993 30818
L38993 30931
L39031 31006
L39068 31043
" />
<path d="M39518 30331
L38731 30331
L38731 30143
L38768 30031
L38843 29956
L38918 29918
L39068 29881
L39181 29881
L39331 29918
L39406 29956
L39481 30031
L39518 30143
L39518 30331
" />
<path d="M38993 29206
L39518 29206
" />
<path d="M38993 29543
L39406 29543
L39481 29506
L39518 29431
L39518 29318
L39481 29243
L39443 29206
" />
<path d="M39518 28831
L38993 28831
" />
<path d="M38731 28831
L38768 28869
L38806 28831
L38768 28794
L38731 28831
L38806 28831
" />
<path d="M38993 28456
L39518 28456
" />
<path d="M39068 28456
L39031 28419
L38993 28344
L38993 28231
L39031 28156
L39106 28119
L39518 28119
" />
<path d="M39518 27631
L39481 27706
L39443 27744
L39368 27781
L39143 27781
L39068 27744
L39031 27706
L38993 27631
L38993 27519
L39031 27444
L39068 27406
L39143 27369
L39368 27369
L39443 27406
L39481 27444
L39518 27519
L39518 27631
" />
</g>
<g style="fill:#000000; fill-opacity:0.0; 
stroke:#000000; stroke-width:78.7402; stroke-opacity:1; 
stroke-linecap:round; stroke-linejoin:round;">
<path d="M54200 53700
L52700 53700
" />
<path d="M54200 54800
L54200 53700
" />
<path d="M53100 54800
L54200 54800
" />
<path d="M52700 53800
L52700 53700
" />
<path d="M52700 54400
L52700 53800
" />
<path d="M53100 54800
L52700 54400
" />
</g>
<g style="fill:#000000; fill-opacity:0.0; 
stroke:#000000; stroke-width:118.11; stroke-opacity:1; 
stroke-linecap:round; stroke-linejoin:round;">
<path d="M52803 14898
L52803 13914
L53131 14617
L53459 13914
L53459 14898
" />
<path d="M54443 14898
L53881 14898
" />
<path d="M54162 14898
L54162 13914
L54068 14054
L53974 14148
L53881 14195
" />
<path d="M52803 49698
L52803 48714
L53131 49417
L53459 48714
L53459 49698
" />
<path d="M53881 48807
L53928 48761
L54021 48714
L54256 48714
L54349 48761
L54396 48807
L54443 48901
L54443 48995
L54396 49135
L53834 49698
L54443 49698
" />
</g>
<g style="fill:#000000; fill-opacity:0.0; 
stroke:#000000; stroke-width:78.7402; stroke-opacity:1; 
stroke-linecap:round; stroke-linejoin:round;">
<path d="M52800 9200
L52900 9200
" />
<path d="M52800 10300
L52800 9200
" />
<path d="M54300 10300
L52800 10300
" />
<path d="M54300 9600
L54300 10300
" />
<path d="M53900 9200
L54300 9600
" />
<path d="M52900 9200
L53900 9200
" />
</g>
<g style="fill:#000000; fill-opacity:0.0; 
stroke:#000000; stroke-width:118.11; stroke-opacity:1; 
stroke-linecap:round; stroke-linejoin:round;">
<path d="M35834 45607
L35834 46357
L36584 46432
L36509 46357
L36434 46207
L36434 45832
L36509 45682
L36584 45607
L36734 45532
L37109 45532
L37259 45607
L37334 45682
L37409 45832
L37409 46207
L37334 46357
L37259 46432
" />
<path d="M65315 45780
L66365 45780
" />
<path d="M64715 46155
L65840 46530
L65840 45555
" />
<path d="M64751 18436
L64751 17461
L65351 17986
L65351 17761
L65426 17611
L65501 17536
L65651 17461
L66026 17461
L66176 17536
L66251 17611
L66326 17761
L66326 18211
L66251 18361
L66176 18436
" />
<path d="M35935 18420
L35860 18345
L35785 18195
L35785 17820
L35860 17670
L35935 17595
L36085 17520
L36235 17520
L36459 17595
L37359 18495
L37359 17520
" />
<path d="M28708 31585
L28708 32485
" />
<path d="M28708 32035
L27133 32035
L27358 32185
L27508 32335
L27583 32485
" />
</g>
<g style="fill:#000000; fill-opacity:0.0; 
stroke:#000000; stroke-width:78.7402; stroke-opacity:1; 
stroke-linecap:round; stroke-linejoin:round;">
<path d="M49938 32236
L49938 32708
" />
<path d="M49938 31291
L49938 31763
" />
<path d="M49939 32236.2 A236.22 236.22 0.0 0 0 50175.2 32000 " />
<path d="M50175.2 32000 A236.22 236.22 0.0 0 0 49939 31763.8 " />
<path d="M49938 31291
L53561 31291
" />
<path d="M53561 31291
L53561 32708
" />
<path d="M53561 32708
L49938 32708
" />
</g>
<g style="fill:#000000; fill-opacity:0.0; 
stroke:#000000; stroke-width:50; stroke-opacity:1; 
stroke-linecap:round; stroke-linejoin:round;">
<path d="M58750 33450
L58750 30550
" />
<path d="M53750 30550
L53750 33450
" />
<path d="M58750 33450
L53750 33450
" />
<path d="M53750 30550
L58750 30550
" />
<path d="M53750 31750
L54250 31750
" />
<path d="M54250 31750
L54250 32250
" />
<path d="M54250 32250
L53750 32250
" />
</g>
<g style="fill:#000000; fill-opacity:0.0; 
stroke:#000000; stroke-width:39; stroke-opacity:1; 
stroke-linecap:round; stroke-linejoin:round;">
<path d="M51800 37700
L51800 38100
" />
<path d="M51800 38100
L51200 38100
" />
<path d="M51200 38100
L51200 37700
" />
<path d="M51200 37300
L51200 36900
" />
<path d="M51200 36900
L51800 36900
" />
<path d="M51800 36900
L51800 37300
" />
<path d="M31800 46300
L31800 46700
" />
<path d="M31800 46700
L31200 46700
" />
<path d="M31200 46700
L31200 46300
" />
<path d="M31200 45900
L31200 45500
" />
<path d="M31200 45500
L31800 45500
" />
<path d="M31800 45500
L31800 45900
" />
<path d="M23100 32350
L23100 32750
" />
<path d="M23100 32750
L22500 32750
" />
<path d="M22500 32750
L22500 32350
" />
<path d="M22500 31950
L22500 31550
" />
<path d="M22500 31550
L23100 31550
" />
<path d="M23100 31550
L23100 31950
" />
<path d="M31800 18300
L31800 18700
" />
<path d="M31800 18700
L31200 18700
" />
<path d="M31200 18700
L31200 18300
" />
<path d="M31200 17900
L31200 17500
" />
<path d="M31200 17500
L31800 17500
" />
<path d="M31800 17500
L31800 17900
" />
<path d="M58800 28700
L58800 29100
" />
<path d="M58800 29100
L58200 29100
" />
<path d="M58200 29100
L58200 28700
" />
<path d="M58200 28300
L58200 27900
" />
<path d="M58200 27900
L58800 27900
" />
<path d="M58800 27900
L58800 28300
" />
<path d="M51050 28700
L51050 29100
" />
<path d="M51050 29100
L50450 29100
" />
<path d="M50450 29100
L50450 28700
" />
<path d="M50450 28300
L50450 27900
" />
<path d="M50450 27900
L51050 27900
" />
<path d="M51050 27900
L51050 28300
" />
<path d="M43507 18597
L43907 18597
" />
<path d="M43907 18597
L43907 19197
" />
<path d="M43907 19197
L43507 19197
" />
<path d="M43107 19197
L42707 19197
" />
<path d="M42707 19197
L42707 18597
" />
<path d="M42707 18597
L43107 18597
" />
<path d="M69700 23200
L70100 23200
" />
<path d="M70100 23200
L70100 23800
" />
<path d="M70100 23800
L69700 23800
" />
<path d="M69300 23800
L68900 23800
" />
<path d="M68900 23800
L68900 23200
" />
<path d="M68900 23200
L69300 23200
" />
<path d="M49700 37300
L49700 36900
" />
<path d="M49700 36900
L50300 36900
" />
<path d="M50300 36900
L50300 37300
" />
<path d="M50300 37700
L50300 38100
" />
<path d="M50300 38100
L49700 38100
" />
<path d="M49700 38100
L49700 37700
" />
<path d="M43507 44581
L43907 44581
" />
<path d="M43907 44581
L43907 45181
" />
<path d="M43907 45181
L43507 45181
" />
<path d="M43107 45181
L42707 45181
" />
<path d="M42707 45181
L42707 44581
" />
<path d="M42707 44581
L43107 44581
" />
<path d="M69300 40800
L68900 40800
" />
<path d="M68900 40800
L68900 40200
" />
<path d="M68900 40200
L69300 40200
" />
<path d="M69700 40200
L70100 40200
" />
<path d="M70100 40200
L70100 40800
" />
<path d="M70100 40800
L69700 40800
" />
<path d="M66950 37300
L66950 36900
" />
<path d="M66950 36900
L67550 36900
" />
<path d="M67550 36900
L67550 37300
" />
<path d="M67550 37700
L67550 38100
" />
<path d="M67550 38100
L66950 38100
" />
<path d="M66950 38100
L66950 37700
" />
<path d="M69800 27700
L69800 28100
" />
<path d="M69800 28100
L69200 28100
" />
<path d="M69200 28100
L69200 27700
" />
<path d="M69200 27300
L69200 26900
" />
<path d="M69200 26900
L69800 26900
" />
<path d="M69800 26900
L69800 27300
" />
</g>
<g style="fill:#000000; fill-opacity:0.0; 
stroke:#000000; stroke-width:196.85; stroke-opacity:1; 
stroke-linecap:round; stroke-linejoin:round;">
<path d="M54750 27000
L54750 28574
" />
<path d="M54750 28574
L52175 28574
" />
<path d="M52175 28574
L52175 27000
" />
<path d="M52175 27000
L54750 27000
" />
<path d="M54750 35500
L54750 37074
" />
<path d="M54750 37074
L52175 37074
" />
<path d="M52175 37074
L52175 35500
" />
<path d="M52175 35500
L54750 35500
" />
</g>
<g style="fill:#000000; fill-opacity:0.0; 
stroke:#000000; stroke-width:26; stroke-opacity:1; 
stroke-linecap:round; stroke-linejoin:round;">
<path d="M43346 16496
L43268 16496
" />
<path d="M43268 16496
L43268 16574
" />
<path d="M43346 16574
L43268 16574
" />
<path d="M43346 16496
L43346 16574
" />
<path d="M43130 16260
L42993 16260
" />
<path d="M42993 16260
L42993 16358
" />
<path d="M43130 16358
L42993 16358
" />
<path d="M43130 16260
L43130 16358
" />
<path d="M42993 16260
L42953 16260
" />
<path d="M42953 16260
L42953 16731
" />
<path d="M42993 16731
L42953 16731
" />
<path d="M42993 16260
L42993 16731
" />
<path d="M42993 16751
L42953 16751
" />
<path d="M42953 16751
L42953 16810
" />
<path d="M42993 16810
L42953 16810
" />
<path d="M42993 16751
L42993 16810
" />
<path d="M43661 16260
L43621 16260
" />
<path d="M43621 16260
L43621 16731
" />
<path d="M43661 16731
L43621 16731
" />
<path d="M43661 16260
L43661 16731
" />
<path d="M43661 16751
L43621 16751
" />
<path d="M43621 16751
L43621 16810
" />
<path d="M43661 16810
L43621 16810
" />
<path d="M43661 16751
L43661 16810
" />
<path d="M43130 16260
L43071 16260
" />
<path d="M43071 16260
L43071 16358
" />
<path d="M43130 16358
L43071 16358
" />
<path d="M43130 16260
L43130 16358
" />
</g>
<g style="fill:#000000; fill-opacity:0.0; 
stroke:#000000; stroke-width:40; stroke-opacity:1; 
stroke-linecap:round; stroke-linejoin:round;">
<path d="M42697 16240
L43917 16240
" />
<path d="M43917 16240
L43917 16830
" />
<path d="M43917 16830
L42697 16830
" />
<path d="M42697 16830
L42697 16240
" />
<path d="M43522.5 16338.8 A291.671 291.671 0.0 0 0 43091 16339.5 " />
<path d="M43522.8 16731.7 A291.671 291.671 0.0 0 0 43523.2 16339.5 " />
<path d="M43091.7 16732.1 A291.671 291.671 0.0 0 0 43523.2 16731.4 " />
<path d="M43091.4 16339.1 A291.671 291.671 0.0 0 0 43091 16731.4 " />
</g>
<g style="fill:#000000; fill-opacity:0.0; 
stroke:#000000; stroke-width:26; stroke-opacity:1; 
stroke-linecap:round; stroke-linejoin:round;">
<path d="M43346 17677
L43268 17677
" />
<path d="M43268 17677
L43268 17755
" />
<path d="M43346 17755
L43268 17755
" />
<path d="M43346 17677
L43346 17755
" />
<path d="M43130 17441
L42993 17441
" />
<path d="M42993 17441
L42993 17539
" />
<path d="M43130 17539
L42993 17539
" />
<path d="M43130 17441
L43130 17539
" />
<path d="M42993 17441
L42953 17441
" />
<path d="M42953 17441
L42953 17912
" />
<path d="M42993 17912
L42953 17912
" />
<path d="M42993 17441
L42993 17912
" />
<path d="M42993 17932
L42953 17932
" />
<path d="M42953 17932
L42953 17991
" />
<path d="M42993 17991
L42953 17991
" />
<path d="M42993 17932
L42993 17991
" />
<path d="M43661 17441
L43621 17441
" />
<path d="M43621 17441
L43621 17912
" />
<path d="M43661 17912
L43621 17912
" />
<path d="M43661 17441
L43661 17912
" />
<path d="M43661 17932
L43621 17932
" />
<path d="M43621 17932
L43621 17991
" />
<path d="M43661 17991
L43621 17991
" />
<path d="M43661 17932
L43661 17991
" />
<path d="M43130 17441
L43071 17441
" />
<path d="M43071 17441
L43071 17539
" />
<path d="M43130 17539
L43071 17539
" />
<path d="M43130 17441
L43130 17539
" />
</g>
<g style="fill:#000000; fill-opacity:0.0; 
stroke:#000000; stroke-width:40; stroke-opacity:1; 
stroke-linecap:round; stroke-linejoin:round;">
<path d="M42697 17421
L43917 17421
" />
<path d="M43917 17421
L43917 18011
" />
<path d="M43917 18011
L42697 18011
" />
<path d="M42697 18011
L42697 17421
" />
<path d="M43522.5 17519.9 A291.671 291.671 0.0 0 0 43091 17520.6 " />
<path d="M43522.8 17912.8 A291.671 291.671 0.0 0 0 43523.2 17520.6 " />
<path d="M43091.7 17913.2 A291.671 291.671 0.0 0 0 43523.2 17912.5 " />
<path d="M43091.4 17520.2 A291.671 291.671 0.0 0 0 43091 17912.5 " />
</g>
<g style="fill:#000000; fill-opacity:0.0; 
stroke:#000000; stroke-width:26; stroke-opacity:1; 
stroke-linecap:round; stroke-linejoin:round;">
<path d="M43346 47205
L43268 47205
" />
<path d="M43268 47205
L43268 47283
" />
<path d="M43346 47283
L43268 47283
" />
<path d="M43346 47205
L43346 47283
" />
<path d="M43130 46969
L42993 46969
" />
<path d="M42993 46969
L42993 47067
" />
<path d="M43130 47067
L42993 47067
" />
<path d="M43130 46969
L43130 47067
" />
<path d="M42993 46969
L42953 46969
" />
<path d="M42953 46969
L42953 47440
" />
<path d="M42993 47440
L42953 47440
" />
<path d="M42993 46969
L42993 47440
" />
<path d="M42993 47460
L42953 47460
" />
<path d="M42953 47460
L42953 47519
" />
<path d="M42993 47519
L42953 47519
" />
<path d="M42993 47460
L42993 47519
" />
<path d="M43661 46969
L43621 46969
" />
<path d="M43621 46969
L43621 47440
" />
<path d="M43661 47440
L43621 47440
" />
<path d="M43661 46969
L43661 47440
" />
<path d="M43661 47460
L43621 47460
" />
<path d="M43621 47460
L43621 47519
" />
<path d="M43661 47519
L43621 47519
" />
<path d="M43661 47460
L43661 47519
" />
<path d="M43130 46969
L43071 46969
" />
<path d="M43071 46969
L43071 47067
" />
<path d="M43130 47067
L43071 47067
" />
<path d="M43130 46969
L43130 47067
" />
</g>
<g style="fill:#000000; fill-opacity:0.0; 
stroke:#000000; stroke-width:40; stroke-opacity:1; 
stroke-linecap:round; stroke-linejoin:round;">
<path d="M42697 46949
L43917 46949
" />
<path d="M43917 46949
L43917 47539
" />
<path d="M43917 47539
L42697 47539
" />
<path d="M42697 47539
L42697 46949
" />
<path d="M43522.5 47047.4 A291.671 291.671 0.0 0 0 43091 47048.2 " />
<path d="M43522.8 47440.4 A291.671 291.671 0.0 0 0 43523.2 47048.2 " />
<path d="M43091.7 47440.8 A291.671 291.671 0.0 0 0 43523.2 47440 " />
<path d="M43091.4 47047.8 A291.671 291.671 0.0 0 0 43091 47440 " />
</g>
<g style="fill:#000000; fill-opacity:0.0; 
stroke:#000000; stroke-width:26; stroke-opacity:1; 
stroke-linecap:round; stroke-linejoin:round;">
<path d="M43346 46023
L43268 46023
" />
<path d="M43268 46023
L43268 46101
" />
<path d="M43346 46101
L43268 46101
" />
<path d="M43346 46023
L43346 46101
" />
<path d="M43130 45787
L42993 45787
" />
<path d="M42993 45787
L42993 45885
" />
<path d="M43130 45885
L42993 45885
" />
<path d="M43130 45787
L43130 45885
" />
<path d="M42993 45787
L42953 45787
" />
<path d="M42953 45787
L42953 46258
" />
<path d="M42993 46258
L42953 46258
" />
<path d="M42993 45787
L42993 46258
" />
<path d="M42993 46278
L42953 46278
" />
<path d="M42953 46278
L42953 46337
" />
<path d="M42993 46337
L42953 46337
" />
<path d="M42993 46278
L42993 46337
" />
<path d="M43661 45787
L43621 45787
" />
<path d="M43621 45787
L43621 46258
" />
<path d="M43661 46258
L43621 46258
" />
<path d="M43661 45787
L43661 46258
" />
<path d="M43661 46278
L43621 46278
" />
<path d="M43621 46278
L43621 46337
" />
<path d="M43661 46337
L43621 46337
" />
<path d="M43661 46278
L43661 46337
" />
<path d="M43130 45787
L43071 45787
" />
<path d="M43071 45787
L43071 45885
" />
<path d="M43130 45885
L43071 45885
" />
<path d="M43130 45787
L43130 45885
" />
</g>
<g style="fill:#000000; fill-opacity:0.0; 
stroke:#000000; stroke-width:40; stroke-opacity:1; 
stroke-linecap:round; stroke-linejoin:round;">
<path d="M42697 45767
L43917 45767
" />
<path d="M43917 45767
L43917 46357
" />
<path d="M43917 46357
L42697 46357
" />
<path d="M42697 46357
L42697 45767
" />
<path d="M43522.5 45866.3 A291.671 291.671 0.0 0 0 43091 45867.1 " />
<path d="M43522.8 46259.3 A291.671 291.671 0.0 0 0 43523.2 45867.1 " />
<path d="M43091.7 46259.7 A291.671 291.671 0.0 0 0 43523.2 46258.9 " />
<path d="M43091.4 45866.7 A291.671 291.671 0.0 0 0 43091 46258.9 " />
</g>
<g style="fill:#000000; fill-opacity:0.0; 
stroke:#000000; stroke-width:26; stroke-opacity:1; 
stroke-linecap:round; stroke-linejoin:round;">
<path d="M68479 37603
L68479 37525
" />
<path d="M68479 37525
L68401 37525
" />
<path d="M68401 37603
L68401 37525
" />
<path d="M68479 37603
L68401 37603
" />
<path d="M68715 37387
L68715 37250
" />
<path d="M68715 37250
L68617 37250
" />
<path d="M68617 37387
L68617 37250
" />
<path d="M68715 37387
L68617 37387
" />
<path d="M68715 37250
L68715 37210
" />
<path d="M68715 37210
L68244 37210
" />
<path d="M68244 37250
L68244 37210
" />
<path d="M68715 37250
L68244 37250
" />
<path d="M68224 37250
L68224 37210
" />
<path d="M68224 37210
L68165 37210
" />
<path d="M68165 37250
L68165 37210
" />
<path d="M68224 37250
L68165 37250
" />
<path d="M68715 37918
L68715 37878
" />
<path d="M68715 37878
L68244 37878
" />
<path d="M68244 37918
L68244 37878
" />
<path d="M68715 37918
L68244 37918
" />
<path d="M68224 37918
L68224 37878
" />
<path d="M68224 37878
L68165 37878
" />
<path d="M68165 37918
L68165 37878
" />
<path d="M68224 37918
L68165 37918
" />
<path d="M68715 37387
L68715 37328
" />
<path d="M68715 37328
L68617 37328
" />
<path d="M68617 37387
L68617 37328
" />
<path d="M68715 37387
L68617 37387
" />
</g>
<g style="fill:#000000; fill-opacity:0.0; 
stroke:#000000; stroke-width:40; stroke-opacity:1; 
stroke-linecap:round; stroke-linejoin:round;">
<path d="M68735 36954
L68735 38174
" />
<path d="M68735 38174
L68145 38174
" />
<path d="M68145 38174
L68145 36954
" />
<path d="M68145 36954
L68735 36954
" />
<path d="M68637.6 37780.3 A291.671 291.671 0.0 0 0 68636.9 37348.9 " />
<path d="M68244.6 37780.7 A291.671 291.671 0.0 0 0 68636.9 37781 " />
<path d="M68244.3 37349.6 A291.671 291.671 0.0 0 0 68245 37781 " />
<path d="M68637.2 37349.2 A291.671 291.671 0.0 0 0 68245 37348.9 " />
</g>
<g style="fill:#000000; fill-opacity:0.0; 
stroke:#000000; stroke-width:78.7402; stroke-opacity:1; 
stroke-linecap:round; stroke-linejoin:round;">
<path d="M40938 38736
L40938 39208
" />
<path d="M40938 37791
L40938 38263
" />
<path d="M40939 38736.2 A236.22 236.22 0.0 0 0 41175.2 38500 " />
<path d="M41175.2 38500 A236.22 236.22 0.0 0 0 40939 38263.8 " />
<path d="M40938 37791
L44561 37791
" />
<path d="M44561 37791
L44561 39208
" />
<path d="M44561 39208
L40938 39208
" />
</g>
<g style="fill:#000000; fill-opacity:0.0; 
stroke:#000000; stroke-width:39; stroke-opacity:1; 
stroke-linecap:round; stroke-linejoin:round;">
<path d="M59950 45800
L59950 45400
" />
<path d="M59950 45400
L60550 45400
" />
<path d="M60550 45400
L60550 45800
" />
<path d="M60550 46200
L60550 46600
" />
<path d="M60550 46600
L59950 46600
" />
<path d="M59950 46600
L59950 46200
" />
<path d="M60550 18200
L60550 18600
" />
<path d="M60550 18600
L59950 18600
" />
<path d="M59950 18600
L59950 18200
" />
<path d="M59950 17800
L59950 17400
" />
<path d="M59950 17400
L60550 17400
" />
<path d="M60550 17400
L60550 17800
" />
<path d="M41800 36300
L41400 36300
" />
<path d="M41400 36300
L41400 35700
" />
<path d="M41400 35700
L41800 35700
" />
<path d="M42200 35700
L42600 35700
" />
<path d="M42600 35700
L42600 36300
" />
<path d="M42600 36300
L42200 36300
" />
<path d="M41700 40450
L42100 40450
" />
<path d="M42100 40450
L42100 41050
" />
<path d="M42100 41050
L41700 41050
" />
<path d="M41300 41050
L40900 41050
" />
<path d="M40900 41050
L40900 40450
" />
<path d="M40900 40450
L41300 40450
" />
</g>
<g style="fill:#000000; fill-opacity:0.0; 
stroke:#000000; stroke-width:39.3701; stroke-opacity:1; 
stroke-linecap:round; stroke-linejoin:round;">
<path d="M65649 26881
L65649 37118
" />
<path d="M65649 37118
L59350 37118
" />
<path d="M59350 37118
L59350 26881
" />
<path d="M59350 26881
L65649 26881
" />
<path d="M65846 26685
L65846 37314
" />
<path d="M65846 37314
L59153 37314
" />
<path d="M59153 37314
L59153 26685
" />
<path d="M59153 26685
L65846 26685
" />
</g>
<g style="fill:#000000; fill-opacity:0.0; 
stroke:#000000; stroke-width:196.85; stroke-opacity:1; 
stroke-linecap:round; stroke-linejoin:round;">
<path d="M66000 29500
L66000 34618
" />
<path d="M66000 34618
L71118 34618
" />
<path d="M71118 34618
L71118 29500
" />
<path d="M71118 29500
L66000 29500
" />
</g>
<g style="fill:#000000; fill-opacity:0.0; 
stroke:#000000; stroke-width:39.3701; stroke-opacity:1; 
stroke-linecap:round; stroke-linejoin:round;">
<circle cx="59133.9" cy="19980.3" r="626.374" /> 
<path d="M58248 20866
L58248 19094
" />
<path d="M58248 19094
L60019 19094
" />
<path d="M60019 19094
L60019 20866
" />
<path d="M60019 20866
L58248 20866
" />
<circle cx="59133.9" cy="43980.3" r="626.374" /> 
<path d="M58248 44866
L58248 43094
" />
<path d="M58248 43094
L60019 43094
" />
<path d="M60019 43094
L60019 44866
" />
<path d="M60019 44866
L58248 44866
" />
</g>
<g style="fill:#000000; fill-opacity:0.0; 
stroke:#000000; stroke-width:196.85; stroke-opacity:1; 
stroke-linecap:round; stroke-linejoin:round;">
<path d="M67982 25440
L68848 25440
" />
<path d="M66643 25874
L66643 25007
" />
<path d="M66210 25440
L67076 25440
" />
<path d="M66250 28000
L66250 26425
" />
<path d="M66250 26425
L68824 26425
" />
<path d="M68824 26425
L68824 28000
" />
<path d="M68824 28000
L66250 28000
" />
<path d="M38446 31344
L38446 32761
" />
<path d="M38446 31344
L38250 31344
" />
<path d="M38250 37250
L38250 26856
" />
<path d="M38250 26856
L33722 26856
" />
<path d="M33722 26856
L33722 37250
" />
<path d="M33722 37250
L38250 37250
" />
<path d="M45250 22250
L45250 41848
" />
<path d="M45250 41848
L48872 41848
" />
<path d="M48872 41848
L48872 22250
" />
<path d="M48872 22250
L45250 22250
" />
<path d="M32460 36523
L32460 27468
" />
<path d="M32460 27468
L25374 27468
" />
<path d="M25374 27468
L23405 29437
" />
<path d="M23405 29437
L23405 36523
" />
<path d="M23405 36523
L32460 36523
" />
<path d="M61003 41484
L61003 50539
" />
<path d="M61003 50539
L68090 50539
" />
<path d="M68090 50539
L70059 48570
" />
<path d="M70059 48570
L70059 41484
" />
<path d="M70059 41484
L61003 41484
" />
<path d="M61003 13452
L61003 22507
" />
<path d="M61003 22507
L68090 22507
" />
<path d="M68090 22507
L70059 20539
" />
<path d="M70059 20539
L70059 13452
" />
<path d="M70059 13452
L61003 13452
" />
<path d="M41122 22507
L41122 13452
" />
<path d="M41122 13452
L34035 13452
" />
<path d="M34035 13452
L32066 15421
" />
<path d="M32066 15421
L32066 22507
" />
<path d="M32066 22507
L41122 22507
" />
<path d="M41122 50539
L41122 41484
" />
<path d="M41122 41484
L34035 41484
" />
<path d="M34035 41484
L32066 43452
" />
<path d="M32066 43452
L32066 50539
" />
<path d="M32066 50539
L41122 50539
" />
</g>
<g style="fill:#000000; fill-opacity:0.0; 
stroke:#000000; stroke-width:59.0551; stroke-opacity:1; 
stroke-linecap:round; stroke-linejoin:round;">
<path d="M56711 13626
L56711 13232
L56936 13626
L56936 13232
" />
<path d="M57124 13626
L57124 13232
L57274 13232
L57311 13251
L57330 13270
L57349 13307
L57349 13363
L57330 13401
L57311 13420
L57274 13438
L57124 13438
" />
<path d="M57517 13626
L57517 13232
" />
<path d="M57517 13420
L57742 13420
" />
<path d="M57742 13626
L57742 13232
" />
<path d="M58098 13626
L58098 13232
" />
<path d="M58098 13607
L58061 13626
L57986 13626
L57949 13607
L57930 13588
L57911 13551
L57911 13438
L57930 13401
L57949 13382
L57986 13363
L58061 13363
L58098 13382
" />
<path d="M58248 13232
L58492 13232
L58361 13382
L58417 13382
L58455 13401
L58473 13420
L58492 13457
L58492 13551
L58473 13588
L58455 13607
L58417 13626
L58305 13626
L58267 13607
L58248 13588
" />
<path d="M58680 13607
L58680 13626
L58661 13663
L58642 13682
" />
<path d="M59055 13626
L58830 13626
" />
<path d="M58942 13626
L58942 13232
L58905 13288
L58867 13326
L58830 13345
" />
<path d="M51450 31465
L51450 31784
L51468 31821
L51487 31840
L51525 31859
L51600 31859
L51637 31840
L51656 31821
L51675 31784
L51675 31465
" />
<path d="M52068 31859
L51843 31859
" />
<path d="M51956 31859
L51956 31465
L51918 31521
L51881 31559
L51843 31578
" />
<path d="M50456 32165
L50718 32165
L50550 32559
" />
<path d="M51037 32296
L51037 32559
" />
<path d="M50943 32146
L50850 32428
L51093 32428
" />
<path d="M51243 32559
L51243 32165
" />
<path d="M51243 32353
L51468 32353
" />
<path d="M51468 32559
L51468 32165
" />
<path d="M51881 32521
L51862 32540
L51806 32559
L51768 32559
L51712 32540
L51675 32503
L51656 32465
L51637 32390
L51637 32334
L51656 32259
L51675 32221
L51712 32184
L51768 32165
L51806 32165
L51862 32184
L51881 32203
" />
<path d="M52124 32165
L52162 32165
L52199 32184
L52218 32203
L52237 32240
L52256 32315
L52256 32409
L52237 32484
L52218 32521
L52199 32540
L52162 32559
L52124 32559
L52087 32540
L52068 32521
L52049 32484
L52031 32409
L52031 32315
L52049 32240
L52068 32203
L52087 32184
L52124 32165
" />
<path d="M52499 32165
L52537 32165
L52574 32184
L52593 32203
L52612 32240
L52631 32315
L52631 32409
L52612 32484
L52593 32521
L52574 32540
L52537 32559
L52499 32559
L52462 32540
L52443 32521
L52424 32484
L52406 32409
L52406 32315
L52424 32240
L52443 32203
L52462 32184
L52499 32165
" />
<path d="M52799 32559
L52799 32165
L52893 32165
L52949 32184
L52987 32221
L53006 32259
L53024 32334
L53024 32390
L53006 32465
L52987 32503
L52949 32540
L52893 32559
L52799 32559
" />
</g>
<g style="fill:#000000; fill-opacity:0.0; 
stroke:#000000; stroke-width:50; stroke-opacity:1; 
stroke-linecap:round; stroke-linejoin:round;">
<path d="M55792 31142
L55792 31628
L55821 31685
L55850 31714
L55907 31742
L56021 31742
L56078 31714
L56107 31685
L56135 31628
L56135 31142
" />
<path d="M56392 31200
L56421 31171
L56478 31142
L56621 31142
L56678 31171
L56707 31200
L56735 31257
L56735 31314
L56707 31400
L56364 31742
L56735 31742
" />
<path d="M55190 32742
L54952 32742
L54952 32142
" />
<path d="M55333 32200
L55357 32171
L55404 32142
L55523 32142
L55571 32171
L55595 32200
L55619 32257
L55619 32314
L55595 32400
L55309 32742
L55619 32742
" />
<path d="M55857 32742
L55952 32742
L56000 32714
L56023 32685
L56071 32600
L56095 32485
L56095 32257
L56071 32200
L56047 32171
L56000 32142
L55904 32142
L55857 32171
L55833 32200
L55809 32257
L55809 32400
L55833 32457
L55857 32485
L55904 32514
L56000 32514
L56047 32485
L56071 32457
L56095 32400
" />
<path d="M56261 32142
L56571 32142
L56404 32371
L56476 32371
L56523 32400
L56547 32428
L56571 32485
L56571 32628
L56547 32685
L56523 32714
L56476 32742
L56333 32742
L56285 32714
L56261 32685
" />
<path d="M56785 32742
L56785 32142
L56904 32142
L56976 32171
L57023 32228
L57047 32285
L57071 32400
L57071 32485
L57047 32600
L57023 32657
L56976 32714
L56904 32742
L56785 32742
" />
<path d="M57285 32742
L57285 32142
L57404 32142
L57476 32171
L57523 32228
L57547 32285
L57571 32400
L57571 32485
L57547 32600
L57523 32657
L57476 32714
L57404 32742
L57285 32742
" />
</g>
<g style="fill:#000000; fill-opacity:0.0; 
stroke:#000000; stroke-width:43; stroke-opacity:1; 
stroke-linecap:round; stroke-linejoin:round;">
<path d="M51079 37932
L50985 37998
" />
<path d="M51079 38045
L50882 38045
L50882 37970
L50892 37951
L50901 37942
L50920 37932
L50948 37932
L50967 37942
L50976 37951
L50985 37970
L50985 38045
" />
<path d="M50948 37763
L51079 37763
" />
<path d="M50873 37810
L51014 37857
L51014 37735
" />
<path d="M51079 37217
L51079 37329
" />
<path d="M51079 37273
L50882 37273
L50910 37292
L50929 37311
L50939 37329
" />
<path d="M50882 37095
L50882 37076
L50892 37057
L50901 37048
L50920 37039
L50957 37029
L51004 37029
L51042 37039
L51060 37048
L51070 37057
L51079 37076
L51079 37095
L51070 37114
L51060 37123
L51042 37132
L51004 37142
L50957 37142
L50920 37132
L50901 37123
L50892 37114
L50882 37095
" />
<path d="M51079 36945
L50882 36945
" />
<path d="M51004 36926
L51079 36870
" />
<path d="M50948 36870
L51023 36945
" />
<path d="M31079 46432
L30985 46498
" />
<path d="M31079 46545
L30882 46545
L30882 46470
L30892 46451
L30901 46442
L30920 46432
L30948 46432
L30967 46442
L30976 46451
L30985 46470
L30985 46545
" />
<path d="M30882 46367
L30882 46235
L31079 46320
" />
<path d="M31079 45911
L31079 46023
" />
<path d="M31079 45967
L30882 45967
L30910 45986
L30929 46004
L30939 46023
" />
<path d="M30882 45789
L30882 45770
L30892 45751
L30901 45742
L30920 45732
L30957 45723
L31004 45723
L31042 45732
L31060 45742
L31070 45751
L31079 45770
L31079 45789
L31070 45807
L31060 45817
L31042 45826
L31004 45836
L30957 45836
L30920 45826
L30901 45817
L30892 45807
L30882 45789
" />
<path d="M30882 45601
L30882 45582
L30892 45563
L30901 45554
L30920 45545
L30957 45535
L31004 45535
L31042 45545
L31060 45554
L31070 45563
L31079 45582
L31079 45601
L31070 45620
L31060 45629
L31042 45639
L31004 45648
L30957 45648
L30920 45639
L30901 45629
L30892 45620
L30882 45601
" />
<path d="M31079 45451
L30882 45451
" />
<path d="M31004 45432
L31079 45376
" />
<path d="M30948 45376
L31023 45451
" />
<path d="M22379 32482
L22285 32548
" />
<path d="M22379 32595
L22182 32595
L22182 32520
L22192 32501
L22201 32492
L22220 32482
L22248 32482
L22267 32492
L22276 32501
L22285 32520
L22285 32595
" />
<path d="M22182 32304
L22182 32398
L22276 32407
L22267 32398
L22257 32379
L22257 32332
L22267 32313
L22276 32304
L22295 32295
L22342 32295
L22360 32304
L22370 32313
L22379 32332
L22379 32379
L22370 32398
L22360 32407
" />
<path d="M22379 31961
L22379 32073
" />
<path d="M22379 32017
L22182 32017
L22210 32036
L22229 32054
L22239 32073
" />
<path d="M22182 31839
L22182 31820
L22192 31801
L22201 31792
L22220 31782
L22257 31773
L22304 31773
L22342 31782
L22360 31792
L22370 31801
L22379 31820
L22379 31839
L22370 31857
L22360 31867
L22342 31876
L22304 31886
L22257 31886
L22220 31876
L22201 31867
L22192 31857
L22182 31839
" />
<path d="M22182 31651
L22182 31632
L22192 31613
L22201 31604
L22220 31595
L22257 31585
L22304 31585
L22342 31595
L22360 31604
L22370 31613
L22379 31632
L22379 31651
L22370 31670
L22360 31679
L22342 31689
L22304 31698
L22257 31698
L22220 31689
L22201 31679
L22192 31670
L22182 31651
" />
<path d="M22379 31501
L22182 31501
" />
<path d="M22304 31482
L22379 31426
" />
<path d="M22248 31426
L22323 31501
" />
<path d="M31079 18482
L30985 18548
" />
<path d="M31079 18595
L30882 18595
L30882 18520
L30892 18501
L30901 18492
L30920 18482
L30948 18482
L30967 18492
L30976 18501
L30985 18520
L30985 18595
" />
<path d="M30882 18313
L30882 18351
L30892 18370
L30901 18379
L30929 18398
L30967 18407
L31042 18407
L31060 18398
L31070 18389
L31079 18370
L31079 18332
L31070 18313
L31060 18304
L31042 18295
L30995 18295
L30976 18304
L30967 18313
L30957 18332
L30957 18370
L30967 18389
L30976 18398
L30995 18407
" />
<path d="M31079 17861
L31079 17973
" />
<path d="M31079 17917
L30882 17917
L30910 17936
L30929 17954
L30939 17973
" />
<path d="M30882 17739
L30882 17720
L30892 17701
L30901 17692
L30920 17682
L30957 17673
L31004 17673
L31042 17682
L31060 17692
L31070 17701
L31079 17720
L31079 17739
L31070 17757
L31060 17767
L31042 17776
L31004 17786
L30957 17786
L30920 17776
L30901 17767
L30892 17757
L30882 17739
" />
<path d="M30882 17551
L30882 17532
L30892 17513
L30901 17504
L30920 17495
L30957 17485
L31004 17485
L31042 17495
L31060 17504
L31070 17513
L31079 17532
L31079 17551
L31070 17570
L31060 17579
L31042 17589
L31004 17598
L30957 17598
L30920 17589
L30901 17579
L30892 17570
L30882 17551
" />
<path d="M31079 17401
L30882 17401
" />
<path d="M31004 17382
L31079 17326
" />
<path d="M30948 17326
L31023 17401
" />
<path d="M58029 28932
L57935 28998
" />
<path d="M58029 29045
L57832 29045
L57832 28970
L57842 28951
L57851 28942
L57870 28932
L57898 28932
L57917 28942
L57926 28951
L57935 28970
L57935 29045
" />
<path d="M57917 28820
L57907 28839
L57898 28848
L57879 28857
L57870 28857
L57851 28848
L57842 28839
L57832 28820
L57832 28782
L57842 28763
L57851 28754
L57870 28745
L57879 28745
L57898 28754
L57907 28763
L57917 28782
L57917 28820
L57926 28839
L57935 28848
L57954 28857
L57992 28857
L58010 28848
L58020 28839
L58029 28820
L58029 28782
L58020 28763
L58010 28754
L57992 28745
L57954 28745
L57935 28754
L57926 28763
L57917 28782
" />
<path d="M58029 28267
L58029 28379
" />
<path d="M58029 28323
L57832 28323
L57860 28342
L57879 28361
L57889 28379
" />
<path d="M57832 28145
L57832 28126
L57842 28107
L57851 28098
L57870 28089
L57907 28079
L57954 28079
L57992 28089
L58010 28098
L58020 28107
L58029 28126
L58029 28145
L58020 28164
L58010 28173
L57992 28182
L57954 28192
L57907 28192
L57870 28182
L57851 28173
L57842 28164
L57832 28145
" />
<path d="M58029 27995
L57832 27995
" />
<path d="M57954 27976
L58029 27920
" />
<path d="M57898 27920
L57973 27995
" />
<path d="M50279 29026
L50185 29092
" />
<path d="M50279 29139
L50082 29139
L50082 29064
L50092 29045
L50101 29036
L50120 29026
L50148 29026
L50167 29036
L50176 29045
L50185 29064
L50185 29139
" />
<path d="M50279 28839
L50279 28951
" />
<path d="M50279 28895
L50082 28895
L50110 28914
L50129 28932
L50139 28951
" />
<path d="M50082 28773
L50082 28651
L50157 28717
L50157 28688
L50167 28670
L50176 28660
L50195 28651
L50242 28651
L50260 28660
L50270 28670
L50279 28688
L50279 28745
L50270 28763
L50260 28773
" />
<path d="M50279 28217
L50279 28329
" />
<path d="M50279 28273
L50082 28273
L50110 28292
L50129 28311
L50139 28329
" />
<path d="M50082 28095
L50082 28076
L50092 28057
L50101 28048
L50120 28039
L50157 28029
L50204 28029
L50242 28039
L50260 28048
L50270 28057
L50279 28076
L50279 28095
L50270 28114
L50260 28123
L50242 28132
L50204 28142
L50157 28142
L50120 28132
L50101 28123
L50092 28114
L50082 28095
" />
<path d="M50279 27945
L50082 27945
" />
<path d="M50204 27926
L50279 27870
" />
<path d="M50148 27870
L50223 27945
" />
<path d="M42773 18479
L42707 18385
" />
<path d="M42660 18479
L42660 18282
L42735 18282
L42754 18292
L42763 18301
L42773 18320
L42773 18348
L42763 18367
L42754 18376
L42735 18385
L42660 18385
" />
<path d="M42960 18479
L42848 18479
" />
<path d="M42904 18479
L42904 18282
L42885 18310
L42867 18329
L42848 18339
" />
<path d="M43082 18282
L43101 18282
L43120 18292
L43129 18301
L43139 18320
L43148 18357
L43148 18404
L43139 18442
L43129 18460
L43120 18470
L43101 18479
L43082 18479
L43064 18470
L43054 18460
L43045 18442
L43036 18404
L43036 18357
L43045 18320
L43054 18301
L43064 18292
L43082 18282
" />
<path d="M43576 18479
L43463 18479
" />
<path d="M43520 18479
L43520 18282
L43501 18310
L43482 18329
L43463 18339
" />
<path d="M43660 18479
L43660 18282
" />
<path d="M43679 18404
L43736 18479
" />
<path d="M43736 18348
L43660 18423
" />
<path d="M68973 23079
L68907 22985
" />
<path d="M68860 23079
L68860 22882
L68935 22882
L68954 22892
L68963 22901
L68973 22920
L68973 22948
L68963 22967
L68954 22976
L68935 22985
L68860 22985
" />
<path d="M69160 23079
L69048 23079
" />
<path d="M69104 23079
L69104 22882
L69085 22910
L69067 22929
L69048 22939
" />
<path d="M69348 23079
L69236 23079
" />
<path d="M69292 23079
L69292 22882
L69273 22910
L69254 22929
L69236 22939
" />
<path d="M69688 23079
L69576 23079
" />
<path d="M69632 23079
L69632 22882
L69613 22910
L69595 22929
L69576 22939
" />
<path d="M69810 22882
L69829 22882
L69848 22892
L69857 22901
L69867 22920
L69876 22957
L69876 23004
L69867 23042
L69857 23060
L69848 23070
L69829 23079
L69810 23079
L69792 23070
L69782 23060
L69773 23042
L69763 23004
L69763 22957
L69773 22920
L69782 22901
L69792 22892
L69810 22882
" />
<path d="M69998 22882
L70017 22882
L70036 22892
L70045 22901
L70054 22920
L70064 22957
L70064 23004
L70054 23042
L70045 23060
L70036 23070
L70017 23079
L69998 23079
L69979 23070
L69970 23060
L69960 23042
L69951 23004
L69951 22957
L69960 22920
L69970 22901
L69979 22892
L69998 22882
" />
<path d="M70148 23079
L70148 22882
" />
<path d="M70167 23004
L70223 23079
" />
<path d="M70223 22948
L70148 23023
" />
<path d="M50579 37932
L50485 37998
" />
<path d="M50579 38045
L50382 38045
L50382 37970
L50392 37951
L50401 37942
L50420 37932
L50448 37932
L50467 37942
L50476 37951
L50485 37970
L50485 38045
" />
<path d="M50401 37857
L50392 37848
L50382 37829
L50382 37782
L50392 37763
L50401 37754
L50420 37745
L50439 37745
L50467 37754
L50579 37867
L50579 37745
" />
<path d="M50579 37217
L50579 37329
" />
<path d="M50579 37273
L50382 37273
L50410 37292
L50429 37311
L50439 37329
" />
<path d="M50382 37095
L50382 37076
L50392 37057
L50401 37048
L50420 37039
L50457 37029
L50504 37029
L50542 37039
L50560 37048
L50570 37057
L50579 37076
L50579 37095
L50570 37114
L50560 37123
L50542 37132
L50504 37142
L50457 37142
L50420 37132
L50401 37123
L50392 37114
L50382 37095
" />
<path d="M50579 36945
L50382 36945
" />
<path d="M50504 36926
L50579 36870
" />
<path d="M50448 36870
L50523 36945
" />
<path d="M42967 44379
L42901 44285
" />
<path d="M42854 44379
L42854 44182
L42929 44182
L42948 44192
L42957 44201
L42967 44220
L42967 44248
L42957 44267
L42948 44276
L42929 44285
L42854 44285
" />
<path d="M43032 44182
L43154 44182
L43089 44257
L43117 44257
L43136 44267
L43145 44276
L43154 44295
L43154 44342
L43145 44360
L43136 44370
L43117 44379
L43060 44379
L43042 44370
L43032 44360
" />
<path d="M43576 44379
L43463 44379
" />
<path d="M43520 44379
L43520 44182
L43501 44210
L43482 44229
L43463 44239
" />
<path d="M43660 44379
L43660 44182
" />
<path d="M43679 44304
L43736 44379
" />
<path d="M43736 44248
L43660 44323
" />
<path d="M68973 40079
L68907 39985
" />
<path d="M68860 40079
L68860 39882
L68935 39882
L68954 39892
L68963 39901
L68973 39920
L68973 39948
L68963 39967
L68954 39976
L68935 39985
L68860 39985
" />
<path d="M69160 40079
L69048 40079
" />
<path d="M69104 40079
L69104 39882
L69085 39910
L69067 39929
L69048 39939
" />
<path d="M69236 39901
L69245 39892
L69264 39882
L69311 39882
L69329 39892
L69339 39901
L69348 39920
L69348 39939
L69339 39967
L69226 40079
L69348 40079
" />
<path d="M69688 40079
L69576 40079
" />
<path d="M69632 40079
L69632 39882
L69613 39910
L69595 39929
L69576 39939
" />
<path d="M69810 39882
L69829 39882
L69848 39892
L69857 39901
L69867 39920
L69876 39957
L69876 40004
L69867 40042
L69857 40060
L69848 40070
L69829 40079
L69810 40079
L69792 40070
L69782 40060
L69773 40042
L69763 40004
L69763 39957
L69773 39920
L69782 39901
L69792 39892
L69810 39882
" />
<path d="M69998 39882
L70017 39882
L70036 39892
L70045 39901
L70054 39920
L70064 39957
L70064 40004
L70054 40042
L70045 40060
L70036 40070
L70017 40079
L69998 40079
L69979 40070
L69970 40060
L69960 40042
L69951 40004
L69951 39957
L69960 39920
L69970 39901
L69979 39892
L69998 39882
" />
<path d="M70148 40079
L70148 39882
" />
<path d="M70167 40004
L70223 40079
" />
<path d="M70223 39948
L70148 40023
" />
<path d="M66779 37932
L66685 37998
" />
<path d="M66779 38045
L66582 38045
L66582 37970
L66592 37951
L66601 37942
L66620 37932
L66648 37932
L66667 37942
L66676 37951
L66685 37970
L66685 38045
" />
<path d="M66779 37839
L66779 37801
L66770 37782
L66760 37773
L66732 37754
L66695 37745
L66620 37745
L66601 37754
L66592 37763
L66582 37782
L66582 37820
L66592 37839
L66601 37848
L66620 37857
L66667 37857
L66685 37848
L66695 37839
L66704 37820
L66704 37782
L66695 37763
L66685 37754
L66667 37745
" />
<path d="M66779 37423
L66779 37536
" />
<path d="M66779 37479
L66582 37479
L66610 37498
L66629 37517
L66639 37536
" />
<path d="M66779 37339
L66582 37339
" />
<path d="M66704 37320
L66779 37263
" />
<path d="M66648 37263
L66723 37339
" />
<path d="M70079 27932
L69985 27998
" />
<path d="M70079 28045
L69882 28045
L69882 27970
L69892 27951
L69901 27942
L69920 27932
L69948 27932
L69967 27942
L69976 27951
L69985 27970
L69985 28045
" />
<path d="M70079 27745
L70079 27857
" />
<path d="M70079 27801
L69882 27801
L69910 27820
L69929 27839
L69939 27857
" />
<path d="M70079 27411
L70079 27523
" />
<path d="M70079 27467
L69882 27467
L69910 27486
L69929 27504
L69939 27523
" />
<path d="M69882 27289
L69882 27270
L69892 27251
L69901 27242
L69920 27232
L69957 27223
L70004 27223
L70042 27232
L70060 27242
L70070 27251
L70079 27270
L70079 27289
L70070 27307
L70060 27317
L70042 27326
L70004 27336
L69957 27336
L69920 27326
L69901 27317
L69892 27307
L69882 27289
" />
<path d="M69882 27101
L69882 27082
L69892 27063
L69901 27054
L69920 27045
L69957 27035
L70004 27035
L70042 27045
L70060 27054
L70070 27063
L70079 27082
L70079 27101
L70070 27120
L70060 27129
L70042 27139
L70004 27148
L69957 27148
L69920 27139
L69901 27129
L69892 27120
L69882 27101
" />
<path d="M70079 26951
L69882 26951
" />
<path d="M70004 26932
L70079 26876
" />
<path d="M69948 26876
L70023 26951
" />
</g>
<g style="fill:#000000; fill-opacity:0.0; 
stroke:#000000; stroke-width:59.0551; stroke-opacity:1; 
stroke-linecap:round; stroke-linejoin:round;">
<path d="M52209 26759
L52209 26365
L52340 26646
L52471 26365
L52471 26759
" />
<path d="M52734 26365
L52809 26365
L52846 26384
L52884 26421
L52903 26496
L52903 26628
L52884 26703
L52846 26740
L52809 26759
L52734 26759
L52696 26740
L52659 26703
L52640 26628
L52640 26496
L52659 26421
L52696 26384
L52734 26365
" />
<path d="M53015 26365
L53240 26365
" />
<path d="M53128 26759
L53128 26365
" />
<path d="M53446 26365
L53521 26365
L53559 26384
L53596 26421
L53615 26496
L53615 26628
L53596 26703
L53559 26740
L53521 26759
L53446 26759
L53409 26740
L53371 26703
L53353 26628
L53353 26496
L53371 26421
L53409 26384
L53446 26365
" />
<path d="M54009 26759
L53878 26571
" />
<path d="M53784 26759
L53784 26365
L53934 26365
L53971 26384
L53990 26403
L54009 26440
L54009 26496
L53990 26534
L53971 26553
L53934 26571
L53784 26571
" />
<path d="M52209 37659
L52209 37265
L52340 37546
L52471 37265
L52471 37659
" />
<path d="M52734 37265
L52809 37265
L52846 37284
L52884 37321
L52903 37396
L52903 37528
L52884 37603
L52846 37640
L52809 37659
L52734 37659
L52696 37640
L52659 37603
L52640 37528
L52640 37396
L52659 37321
L52696 37284
L52734 37265
" />
<path d="M53015 37265
L53240 37265
" />
<path d="M53128 37659
L53128 37265
" />
<path d="M53446 37265
L53521 37265
L53559 37284
L53596 37321
L53615 37396
L53615 37528
L53596 37603
L53559 37640
L53521 37659
L53446 37659
L53409 37640
L53371 37603
L53353 37528
L53353 37396
L53371 37321
L53409 37284
L53446 37265
" />
<path d="M54009 37659
L53878 37471
" />
<path d="M53784 37659
L53784 37265
L53934 37265
L53971 37284
L53990 37303
L54009 37340
L54009 37396
L53990 37434
L53971 37453
L53934 37471
L53784 37471
" />
</g>
<g style="fill:#000000; fill-opacity:0.0; 
stroke:#000000; stroke-width:35; stroke-opacity:1; 
stroke-linecap:round; stroke-linejoin:round;">
<path d="M43578 16121
L43578 15821
L43650 15821
L43692 15835
L43721 15864
L43735 15892
L43750 15950
L43750 15992
L43735 16050
L43721 16078
L43692 16107
L43650 16121
L43578 16121
" />
<path d="M44021 15821
L43878 15821
L43864 15964
L43878 15950
L43907 15935
L43978 15935
L44007 15950
L44021 15964
L44035 15992
L44035 16064
L44021 16092
L44007 16107
L43978 16121
L43907 16121
L43878 16107
L43864 16092
" />
<path d="M42807 16121
L42664 16121
L42664 15821
" />
<path d="M42907 15964
L43007 15964
" />
<path d="M43050 16121
L42907 16121
L42907 15821
L43050 15821
" />
<path d="M43178 16121
L43178 15821
L43250 15821
L43292 15835
L43321 15864
L43335 15892
L43350 15950
L43350 15992
L43335 16050
L43321 16078
L43292 16107
L43250 16121
L43178 16121
" />
<path d="M43578 17321
L43578 17021
L43650 17021
L43692 17035
L43721 17064
L43735 17092
L43750 17150
L43750 17192
L43735 17250
L43721 17278
L43692 17307
L43650 17321
L43578 17321
" />
<path d="M44007 17121
L44007 17321
" />
<path d="M43935 17007
L43864 17221
L44050 17221
" />
<path d="M42807 17321
L42664 17321
L42664 17021
" />
<path d="M42907 17164
L43007 17164
" />
<path d="M43050 17321
L42907 17321
L42907 17021
L43050 17021
" />
<path d="M43178 17321
L43178 17021
L43250 17021
L43292 17035
L43321 17064
L43335 17092
L43350 17150
L43350 17192
L43335 17250
L43321 17278
L43292 17307
L43250 17321
L43178 17321
" />
<path d="M43478 46821
L43478 46521
L43550 46521
L43592 46535
L43621 46564
L43635 46592
L43650 46650
L43650 46692
L43635 46750
L43621 46778
L43592 46807
L43550 46821
L43478 46821
" />
<path d="M43764 46550
L43778 46535
L43807 46521
L43878 46521
L43907 46535
L43921 46550
L43935 46578
L43935 46607
L43921 46650
L43750 46821
L43935 46821
" />
<path d="M42607 46821
L42464 46821
L42464 46521
" />
<path d="M42707 46664
L42807 46664
" />
<path d="M42850 46821
L42707 46821
L42707 46521
L42850 46521
" />
<path d="M42978 46821
L42978 46521
L43050 46521
L43092 46535
L43121 46564
L43135 46592
L43150 46650
L43150 46692
L43135 46750
L43121 46778
L43092 46807
L43050 46821
L42978 46821
" />
<path d="M43478 45621
L43478 45321
L43550 45321
L43592 45335
L43621 45364
L43635 45392
L43650 45450
L43650 45492
L43635 45550
L43621 45578
L43592 45607
L43550 45621
L43478 45621
" />
<path d="M43935 45621
L43764 45621
" />
<path d="M43850 45621
L43850 45321
L43821 45364
L43792 45392
L43764 45407
" />
<path d="M42607 45621
L42464 45621
L42464 45321
" />
<path d="M42707 45464
L42807 45464
" />
<path d="M42850 45621
L42707 45621
L42707 45321
L42850 45321
" />
<path d="M42978 45621
L42978 45321
L43050 45321
L43092 45335
L43121 45364
L43135 45392
L43150 45450
L43150 45492
L43135 45550
L43121 45578
L43092 45607
L43050 45621
L42978 45621
" />
<path d="M68021 37421
L67721 37421
L67721 37350
L67735 37307
L67764 37278
L67792 37264
L67850 37250
L67892 37250
L67950 37264
L67978 37278
L68007 37307
L68021 37350
L68021 37421
" />
<path d="M67721 37150
L67721 36964
L67835 37064
L67835 37021
L67850 36992
L67864 36978
L67892 36964
L67964 36964
L67992 36978
L68007 36992
L68021 37021
L68021 37107
L68007 37135
L67992 37150
" />
<path d="M68021 38192
L68021 38335
L67721 38335
" />
<path d="M67864 38092
L67864 37992
" />
<path d="M68021 37950
L68021 38092
L67721 38092
L67721 37950
" />
<path d="M68021 37821
L67721 37821
L67721 37750
L67735 37707
L67764 37678
L67792 37664
L67850 37650
L67892 37650
L67950 37664
L67978 37678
L68007 37707
L68021 37750
L68021 37821
" />
</g>
<g style="fill:#000000; fill-opacity:0.0; 
stroke:#000000; stroke-width:59.0551; stroke-opacity:1; 
stroke-linecap:round; stroke-linejoin:round;">
<path d="M42450 37965
L42450 38284
L42468 38321
L42487 38340
L42525 38359
L42600 38359
L42637 38340
L42656 38321
L42675 38284
L42675 37965
" />
<path d="M42824 37965
L43068 37965
L42937 38115
L42993 38115
L43031 38134
L43049 38153
L43068 38190
L43068 38284
L43049 38321
L43031 38340
L42993 38359
L42881 38359
L42843 38340
L42824 38321
" />
<path d="M40931 39040
L40987 39059
L41081 39059
L41118 39040
L41137 39021
L41156 38984
L41156 38946
L41137 38909
L41118 38890
L41081 38871
L41006 38853
L40968 38834
L40950 38815
L40931 38778
L40931 38740
L40950 38703
L40968 38684
L41006 38665
L41100 38665
L41156 38684
" />
<path d="M41325 39059
L41325 38665
L41550 39059
L41550 38665
" />
<path d="M41700 38665
L41962 38665
L41793 39059
" />
<path d="M42281 38796
L42281 39059
" />
<path d="M42187 38646
L42093 38928
L42337 38928
" />
<path d="M42487 39059
L42487 38665
" />
<path d="M42487 38853
L42712 38853
" />
<path d="M42712 39059
L42712 38665
" />
<path d="M43124 39021
L43106 39040
L43049 39059
L43012 39059
L42956 39040
L42918 39003
L42899 38965
L42881 38890
L42881 38834
L42899 38759
L42918 38721
L42956 38684
L43012 38665
L43049 38665
L43106 38684
L43124 38703
" />
<path d="M43237 38665
L43462 38665
" />
<path d="M43349 39059
L43349 38665
" />
<path d="M43799 39059
L43574 39059
" />
<path d="M43687 39059
L43687 38665
L43649 38721
L43612 38759
L43574 38778
" />
<path d="M44137 38796
L44137 39059
" />
<path d="M44043 38646
L43949 38928
L44193 38928
" />
<path d="M44343 39059
L44343 38665
L44437 38665
L44493 38684
L44531 38721
L44549 38759
L44568 38834
L44568 38890
L44549 38965
L44531 39003
L44493 39040
L44437 39059
L44343 39059
" />
</g>
<g style="fill:#000000; fill-opacity:0.0; 
stroke:#000000; stroke-width:43; stroke-opacity:1; 
stroke-linecap:round; stroke-linejoin:round;">
<path d="M59779 46326
L59685 46392
" />
<path d="M59779 46439
L59582 46439
L59582 46364
L59592 46345
L59601 46336
L59620 46326
L59648 46326
L59667 46336
L59676 46345
L59685 46364
L59685 46439
" />
<path d="M59779 46139
L59779 46251
" />
<path d="M59779 46195
L59582 46195
L59610 46214
L59629 46232
L59639 46251
" />
<path d="M59648 45970
L59779 45970
" />
<path d="M59573 46017
L59714 46063
L59714 45942
" />
<path d="M59601 45743
L59592 45734
L59582 45715
L59582 45668
L59592 45650
L59601 45640
L59620 45631
L59639 45631
L59667 45640
L59779 45753
L59779 45631
" />
<path d="M59582 45509
L59582 45490
L59592 45471
L59601 45462
L59620 45453
L59657 45443
L59704 45443
L59742 45453
L59760 45462
L59770 45471
L59779 45490
L59779 45509
L59770 45528
L59760 45537
L59742 45546
L59704 45556
L59657 45556
L59620 45546
L59601 45537
L59592 45528
L59582 45509
" />
<path d="M59582 45321
L59582 45303
L59592 45284
L59601 45274
L59620 45265
L59657 45256
L59704 45256
L59742 45265
L59760 45274
L59770 45284
L59779 45303
L59779 45321
L59770 45340
L59760 45349
L59742 45359
L59704 45368
L59657 45368
L59620 45359
L59601 45349
L59592 45340
L59582 45321
" />
<path d="M59879 18426
L59785 18492
" />
<path d="M59879 18539
L59682 18539
L59682 18464
L59692 18445
L59701 18436
L59720 18426
L59748 18426
L59767 18436
L59776 18445
L59785 18464
L59785 18539
" />
<path d="M59879 18239
L59879 18351
" />
<path d="M59879 18295
L59682 18295
L59710 18314
L59729 18332
L59739 18351
" />
<path d="M59682 18060
L59682 18154
L59776 18163
L59767 18154
L59757 18135
L59757 18088
L59767 18070
L59776 18060
L59795 18051
L59842 18051
L59860 18060
L59870 18070
L59879 18088
L59879 18135
L59870 18154
L59860 18163
" />
<path d="M59701 17743
L59692 17734
L59682 17715
L59682 17668
L59692 17650
L59701 17640
L59720 17631
L59739 17631
L59767 17640
L59879 17753
L59879 17631
" />
<path d="M59682 17509
L59682 17490
L59692 17471
L59701 17462
L59720 17453
L59757 17443
L59804 17443
L59842 17453
L59860 17462
L59870 17471
L59879 17490
L59879 17509
L59870 17528
L59860 17537
L59842 17546
L59804 17556
L59757 17556
L59720 17546
L59701 17537
L59692 17528
L59682 17509
" />
<path d="M59682 17321
L59682 17303
L59692 17284
L59701 17274
L59720 17265
L59757 17256
L59804 17256
L59842 17265
L59860 17274
L59870 17284
L59879 17303
L59879 17321
L59870 17340
L59860 17349
L59842 17359
L59804 17368
L59757 17368
L59720 17359
L59701 17349
L59692 17340
L59682 17321
" />
<path d="M41473 35579
L41407 35485
" />
<path d="M41360 35579
L41360 35382
L41435 35382
L41454 35392
L41463 35401
L41473 35420
L41473 35448
L41463 35467
L41454 35476
L41435 35485
L41360 35485
" />
<path d="M41660 35579
L41548 35579
" />
<path d="M41604 35579
L41604 35382
L41585 35410
L41567 35429
L41548 35439
" />
<path d="M41726 35382
L41857 35382
L41773 35579
" />
<path d="M42066 35382
L42198 35382
L42113 35579
" />
<path d="M42367 35382
L42273 35382
L42263 35476
L42273 35467
L42292 35457
L42339 35457
L42357 35467
L42367 35476
L42376 35495
L42376 35542
L42367 35560
L42357 35570
L42339 35579
L42292 35579
L42273 35570
L42263 35560
" />
<path d="M42498 35382
L42517 35382
L42536 35392
L42545 35401
L42554 35420
L42564 35457
L42564 35504
L42554 35542
L42545 35560
L42536 35570
L42517 35579
L42498 35579
L42479 35570
L42470 35560
L42460 35542
L42451 35504
L42451 35457
L42460 35420
L42470 35401
L42479 35392
L42498 35382
" />
<path d="M42648 35579
L42648 35382
" />
<path d="M42667 35504
L42723 35579
" />
<path d="M42723 35448
L42648 35523
" />
<path d="M40973 40279
L40907 40185
" />
<path d="M40860 40279
L40860 40082
L40935 40082
L40954 40092
L40963 40101
L40973 40120
L40973 40148
L40963 40167
L40954 40176
L40935 40185
L40860 40185
" />
<path d="M41160 40279
L41048 40279
" />
<path d="M41104 40279
L41104 40082
L41085 40110
L41067 40129
L41048 40139
" />
<path d="M41329 40082
L41292 40082
L41273 40092
L41264 40101
L41245 40129
L41236 40167
L41236 40242
L41245 40260
L41254 40270
L41273 40279
L41311 40279
L41329 40270
L41339 40260
L41348 40242
L41348 40195
L41339 40176
L41329 40167
L41311 40157
L41273 40157
L41254 40167
L41245 40176
L41236 40195
" />
<path d="M41566 40082
L41698 40082
L41613 40279
" />
<path d="M41867 40082
L41773 40082
L41763 40176
L41773 40167
L41792 40157
L41839 40157
L41857 40167
L41867 40176
L41876 40195
L41876 40242
L41867 40260
L41857 40270
L41839 40279
L41792 40279
L41773 40270
L41763 40260
" />
<path d="M41998 40082
L42017 40082
L42036 40092
L42045 40101
L42054 40120
L42064 40157
L42064 40204
L42054 40242
L42045 40260
L42036 40270
L42017 40279
L41998 40279
L41979 40270
L41970 40260
L41960 40242
L41951 40204
L41951 40157
L41960 40120
L41970 40101
L41979 40092
L41998 40082
" />
<path d="M42148 40279
L42148 40082
" />
<path d="M42167 40204
L42223 40279
" />
<path d="M42223 40148
L42148 40223
" />
</g>
<g style="fill:#000000; fill-opacity:0.0; 
stroke:#000000; stroke-width:59.0551; stroke-opacity:1; 
stroke-linecap:round; stroke-linejoin:round;">
<path d="M60297 32290
L59903 32290
" />
<path d="M60297 32065
L60072 32234
" />
<path d="M59903 32065
L60128 32290
" />
<path d="M60297 31690
L60297 31915
" />
<path d="M60297 31803
L59903 31803
L59959 31840
L59997 31878
L60015 31915
" />
<path d="M65021 32881
L64627 32881
" />
<path d="M65021 32656
L64796 32824
" />
<path d="M64627 32656
L64852 32881
" />
<path d="M65021 32262
L64834 32393
" />
<path d="M65021 32487
L64627 32487
L64627 32337
L64646 32299
L64665 32281
L64702 32262
L64759 32262
L64796 32281
L64815 32299
L64834 32337
L64834 32487
" />
<path d="M64627 32018
L64627 31943
L64646 31906
L64684 31868
L64759 31850
L64890 31850
L64965 31868
L65002 31906
L65021 31943
L65021 32018
L65002 32056
L64965 32093
L64890 32112
L64759 32112
L64684 32093
L64646 32056
L64627 32018
" />
<path d="M65021 31681
L64627 31681
L65021 31456
L64627 31456
" />
<path d="M64909 31287
L64909 31100
" />
<path d="M65021 31325
L64627 31193
L65021 31062
" />
<path d="M70353 32505
L70371 32449
L70371 32355
L70353 32317
L70334 32299
L70296 32280
L70259 32280
L70221 32299
L70203 32317
L70184 32355
L70165 32430
L70146 32467
L70128 32486
L70090 32505
L70053 32505
L70015 32486
L69997 32467
L69978 32430
L69978 32336
L69997 32280
" />
<path d="M69978 32149
L70371 32055
L70090 31980
L70371 31905
L69978 31811
" />
<path d="M70371 31455
L70371 31680
" />
<path d="M70371 31567
L69978 31567
L70034 31605
L70071 31642
L70090 31680
" />
<path d="M69487 33714
L69505 33658
L69505 33564
L69487 33526
L69468 33508
L69430 33489
L69393 33489
L69355 33508
L69337 33526
L69318 33564
L69299 33639
L69280 33676
L69262 33695
L69224 33714
L69187 33714
L69149 33695
L69130 33676
L69112 33639
L69112 33545
L69130 33489
" />
<path d="M69112 33358
L69505 33264
L69224 33189
L69505 33114
L69112 33020
" />
<path d="M69112 32927
L69112 32702
" />
<path d="M69505 32814
L69112 32814
" />
<path d="M69355 32570
L69355 32270
" />
<path d="M69280 32027
L69262 32064
L69243 32083
L69205 32102
L69187 32102
L69149 32083
L69130 32064
L69112 32027
L69112 31952
L69130 31914
L69149 31895
L69187 31877
L69205 31877
L69243 31895
L69262 31914
L69280 31952
L69280 32027
L69299 32064
L69318 32083
L69355 32102
L69430 32102
L69468 32083
L69487 32064
L69505 32027
L69505 31952
L69487 31914
L69468 31895
L69430 31877
L69355 31877
L69318 31895
L69299 31914
L69280 31952
" />
<path d="M69505 31502
L69505 31727
" />
<path d="M69505 31614
L69112 31614
L69168 31652
L69205 31689
L69224 31727
" />
<path d="M69355 31333
L69355 31033
" />
<path d="M69112 30883
L69112 30621
L69505 30789
" />
<path d="M57965 21359
L57834 21171
" />
<path d="M57740 21359
L57740 20965
L57890 20965
L57928 20984
L57946 21003
L57965 21040
L57965 21096
L57946 21134
L57928 21153
L57890 21171
L57740 21171
" />
<path d="M58078 20965
L58209 21359
L58340 20965
" />
<path d="M58453 21003
L58471 20984
L58509 20965
L58603 20965
L58640 20984
L58659 21003
L58678 21040
L58678 21078
L58659 21134
L58434 21359
L58678 21359
" />
<path d="M59746 20965
L59559 20965
L59540 21153
L59559 21134
L59596 21115
L59690 21115
L59728 21134
L59746 21153
L59765 21190
L59765 21284
L59746 21321
L59728 21340
L59690 21359
L59596 21359
L59559 21340
L59540 21321
" />
<path d="M60009 20965
L60046 20965
L60084 20984
L60103 21003
L60121 21040
L60140 21115
L60140 21209
L60121 21284
L60103 21321
L60084 21340
L60046 21359
L60009 21359
L59971 21340
L59953 21321
L59934 21284
L59915 21209
L59915 21115
L59934 21040
L59953 21003
L59971 20984
L60009 20965
" />
<path d="M60309 21359
L60309 20965
" />
<path d="M60346 21209
L60459 21359
" />
<path d="M60459 21096
L60309 21246
" />
<path d="M58465 42959
L58334 42771
" />
<path d="M58240 42959
L58240 42565
L58390 42565
L58428 42584
L58446 42603
L58465 42640
L58465 42696
L58446 42734
L58428 42753
L58390 42771
L58240 42771
" />
<path d="M58578 42565
L58709 42959
L58840 42565
" />
<path d="M59178 42959
L58953 42959
" />
<path d="M59065 42959
L59065 42565
L59028 42621
L58990 42659
L58953 42678
" />
<path d="M59646 42565
L59459 42565
L59440 42753
L59459 42734
L59496 42715
L59590 42715
L59628 42734
L59646 42753
L59665 42790
L59665 42884
L59646 42921
L59628 42940
L59590 42959
L59496 42959
L59459 42940
L59440 42921
" />
<path d="M59909 42565
L59946 42565
L59984 42584
L60003 42603
L60021 42640
L60040 42715
L60040 42809
L60021 42884
L60003 42921
L59984 42940
L59946 42959
L59909 42959
L59871 42940
L59853 42921
L59834 42884
L59815 42809
L59815 42715
L59834 42640
L59853 42603
L59871 42584
L59909 42565
" />
<path d="M60209 42959
L60209 42565
" />
<path d="M60246 42809
L60359 42959
" />
<path d="M60359 42696
L60209 42846
" />
<path d="M66990 26209
L66990 25815
L67140 25815
L67178 25834
L67196 25853
L67215 25890
L67215 25946
L67196 25984
L67178 26003
L67140 26021
L66990 26021
" />
<path d="M67459 25815
L67534 25815
L67571 25834
L67609 25871
L67628 25946
L67628 26078
L67609 26153
L67571 26190
L67534 26209
L67459 26209
L67421 26190
L67384 26153
L67365 26078
L67365 25946
L67384 25871
L67421 25834
L67459 25815
" />
<path d="M67759 25815
L67853 26209
L67928 25928
L68003 26209
L68096 25815
" />
<path d="M68246 26003
L68378 26003
" />
<path d="M68434 26209
L68246 26209
L68246 25815
L68434 25815
" />
<path d="M68828 26209
L68696 26021
" />
<path d="M68603 26209
L68603 25815
L68753 25815
L68790 25834
L68809 25853
L68828 25890
L68828 25946
L68809 25984
L68790 26003
L68753 26021
L68603 26021
" />
<path d="M34959 29890
L34565 29890
L34565 29740
L34584 29703
L34603 29684
L34640 29665
L34696 29665
L34734 29684
L34753 29703
L34771 29740
L34771 29890
" />
<path d="M34959 29290
L34959 29515
" />
<path d="M34959 29403
L34565 29403
L34621 29440
L34659 29478
L34678 29515
" />
<path d="M34959 33412
L34565 33412
" />
<path d="M34959 33224
L34565 33224
L34565 33131
L34584 33074
L34621 33037
L34659 33018
L34734 32999
L34790 32999
L34865 33018
L34903 33037
L34940 33074
L34959 33131
L34959 33224
" />
<path d="M34921 32606
L34940 32624
L34959 32681
L34959 32718
L34940 32774
L34903 32812
L34865 32831
L34790 32849
L34734 32849
L34659 32831
L34621 32812
L34584 32774
L34565 32718
L34565 32681
L34584 32624
L34603 32606
" />
<path d="M34809 32437
L34809 32137
" />
<path d="M34959 31743
L34959 31968
" />
<path d="M34959 31856
L34565 31856
L34621 31893
L34659 31931
L34678 31968
" />
<path d="M34696 31406
L34959 31406
" />
<path d="M34546 31500
L34828 31593
L34828 31350
" />
<path d="M47109 34040
L46715 34040
L46715 33890
L46734 33853
L46753 33834
L46790 33815
L46846 33815
L46884 33834
L46903 33853
L46921 33890
L46921 34040
" />
<path d="M46753 33665
L46734 33646
L46715 33609
L46715 33515
L46734 33478
L46753 33459
L46790 33440
L46828 33440
L46884 33459
L47109 33684
L47109 33440
" />
<path d="M47090 32240
L47109 32184
L47109 32090
L47090 32053
L47071 32034
L47034 32015
L46996 32015
L46959 32034
L46940 32053
L46921 32090
L46903 32165
L46884 32203
L46865 32221
L46828 32240
L46790 32240
L46753 32221
L46734 32203
L46715 32165
L46715 32071
L46734 32015
" />
<path d="M47109 31659
L47109 31846
L46715 31846
" />
<path d="M46959 31528
L46959 31228
" />
<path d="M46715 31078
L46715 30834
L46865 30965
L46865 30909
L46884 30871
L46903 30853
L46940 30834
L47034 30834
L47071 30853
L47090 30871
L47109 30909
L47109 31021
L47090 31059
L47071 31078
" />
<path d="M46846 30496
L47109 30496
" />
<path d="M46696 30590
L46978 30684
L46978 30440
" />
<path d="M44025 39915
L44156 40309
L44287 39915
" />
<path d="M44643 40271
L44624 40290
L44568 40309
L44531 40309
L44475 40290
L44437 40253
L44418 40215
L44400 40140
L44400 40084
L44418 40009
L44437 39971
L44475 39934
L44531 39915
L44568 39915
L44624 39934
L44643 39953
" />
<path d="M45037 40271
L45018 40290
L44962 40309
L44924 40309
L44868 40290
L44831 40253
L44812 40215
L44793 40140
L44793 40084
L44812 40009
L44831 39971
L44868 39934
L44924 39915
L44962 39915
L45018 39934
L45037 39953
" />
<path d="M44578 39003
L44709 39003
" />
<path d="M44765 39209
L44578 39209
L44578 38815
L44765 38815
" />
<path d="M45140 39209
L44915 39209
" />
<path d="M45028 39209
L45028 38815
L44990 38871
L44953 38909
L44915 38928
" />
<path d="M44578 38003
L44709 38003
" />
<path d="M44765 38209
L44578 38209
L44578 37815
L44765 37815
" />
<path d="M44915 37853
L44934 37834
L44971 37815
L45065 37815
L45103 37834
L45121 37853
L45140 37890
L45140 37928
L45121 37984
L44896 38209
L45140 38209
" />
<path d="M44459 33209
L44459 32815
L44553 32815
L44609 32834
L44646 32871
L44665 32909
L44684 32984
L44684 33040
L44665 33115
L44646 33153
L44609 33190
L44553 33209
L44459 33209
" />
<path d="M45059 33209
L44834 33209
" />
<path d="M44946 33209
L44946 32815
L44909 32871
L44871 32909
L44834 32928
" />
<path d="M44459 32209
L44459 31815
L44553 31815
L44609 31834
L44646 31871
L44665 31909
L44684 31984
L44684 32040
L44665 32115
L44646 32153
L44609 32190
L44553 32209
L44459 32209
" />
<path d="M44834 31853
L44853 31834
L44890 31815
L44984 31815
L45021 31834
L45040 31853
L45059 31890
L45059 31928
L45040 31984
L44815 32209
L45059 32209
" />
<path d="M44509 31159
L44509 30765
L44603 30765
L44659 30784
L44696 30821
L44715 30859
L44734 30934
L44734 30990
L44715 31065
L44696 31103
L44659 31140
L44603 31159
L44509 31159
" />
<path d="M44865 30765
L45109 30765
L44978 30915
L45034 30915
L45071 30934
L45090 30953
L45109 30990
L45109 31084
L45090 31121
L45071 31140
L45034 31159
L44921 31159
L44884 31140
L44865 31121
" />
<path d="M44459 30209
L44459 29815
L44553 29815
L44609 29834
L44646 29871
L44665 29909
L44684 29984
L44684 30040
L44665 30115
L44646 30153
L44609 30190
L44553 30209
L44459 30209
" />
<path d="M45021 29946
L45021 30209
" />
<path d="M44928 29796
L44834 30078
L45078 30078
" />
<path d="M44468 29096
L44656 29096
" />
<path d="M44431 29209
L44562 28815
L44693 29209
" />
<path d="M44899 28815
L44937 28815
L44974 28834
L44993 28853
L45012 28890
L45031 28965
L45031 29059
L45012 29134
L44993 29171
L44974 29190
L44937 29209
L44899 29209
L44862 29190
L44843 29171
L44824 29134
L44806 29059
L44806 28965
L44824 28890
L44843 28853
L44862 28834
L44899 28815
" />
<path d="M44468 28096
L44656 28096
" />
<path d="M44431 28209
L44562 27815
L44693 28209
" />
<path d="M45031 28209
L44806 28209
" />
<path d="M44918 28209
L44918 27815
L44881 27871
L44843 27909
L44806 27928
" />
<path d="M44468 27096
L44656 27096
" />
<path d="M44431 27209
L44562 26815
L44693 27209
" />
<path d="M44806 26853
L44824 26834
L44862 26815
L44956 26815
L44993 26834
L45012 26853
L45031 26890
L45031 26928
L45012 26984
L44787 27209
L45031 27209
" />
<path d="M44468 26096
L44656 26096
" />
<path d="M44431 26209
L44562 25815
L44693 26209
" />
<path d="M44787 25815
L45031 25815
L44899 25965
L44956 25965
L44993 25984
L45012 26003
L45031 26040
L45031 26134
L45012 26171
L44993 26190
L44956 26209
L44843 26209
L44806 26190
L44787 26171
" />
<path d="M44468 25096
L44656 25096
" />
<path d="M44431 25209
L44562 24815
L44693 25209
" />
<path d="M44993 24946
L44993 25209
" />
<path d="M44899 24796
L44806 25078
L45049 25078
" />
<path d="M49284 39209
L49153 39021
" />
<path d="M49059 39209
L49059 38815
L49209 38815
L49246 38834
L49265 38853
L49284 38890
L49284 38946
L49265 38984
L49246 39003
L49209 39021
L49059 39021
" />
<path d="M49415 38815
L49678 39209
" />
<path d="M49678 38815
L49415 39209
" />
<path d="M49050 37815
L49275 37815
" />
<path d="M49162 38209
L49162 37815
" />
<path d="M49368 37815
L49631 38209
" />
<path d="M49631 37815
L49368 38209
" />
<path d="M49078 37209
L49078 36815
L49171 36815
L49228 36834
L49265 36871
L49284 36909
L49303 36984
L49303 37040
L49284 37115
L49265 37153
L49228 37190
L49171 37209
L49078 37209
" />
<path d="M49453 37096
L49640 37096
" />
<path d="M49415 37209
L49546 36815
L49678 37209
" />
<path d="M49078 36209
L49078 35815
L49228 35815
L49265 35834
L49284 35853
L49303 35890
L49303 35946
L49284 35984
L49265 36003
L49228 36021
L49078 36021
" />
<path d="M49453 36096
L49640 36096
" />
<path d="M49415 36209
L49546 35815
L49678 36209
" />
<path d="M49050 35209
L49050 34815
L49200 34815
L49237 34834
L49256 34853
L49275 34890
L49275 34946
L49256 34984
L49237 35003
L49200 35021
L49050 35021
" />
<path d="M49574 35003
L49631 35021
L49649 35040
L49668 35078
L49668 35134
L49649 35171
L49631 35190
L49593 35209
L49443 35209
L49443 34815
L49574 34815
L49612 34834
L49631 34853
L49649 34890
L49649 34928
L49631 34965
L49612 34984
L49574 35003
L49443 35003
" />
<path d="M49050 34209
L49050 33815
L49143 33815
L49200 33834
L49237 33871
L49256 33909
L49275 33984
L49275 34040
L49256 34115
L49237 34153
L49200 34190
L49143 34209
L49050 34209
" />
<path d="M49574 34003
L49631 34021
L49649 34040
L49668 34078
L49668 34134
L49649 34171
L49631 34190
L49593 34209
L49443 34209
L49443 33815
L49574 33815
L49612 33834
L49631 33853
L49649 33890
L49649 33928
L49631 33965
L49612 33984
L49574 34003
L49443 34003
" />
<path d="M49071 31209
L49071 30815
L49165 30815
L49221 30834
L49259 30871
L49278 30909
L49296 30984
L49296 31040
L49278 31115
L49259 31153
L49221 31190
L49165 31209
L49071 31209
" />
<path d="M49671 31209
L49446 31209
" />
<path d="M49559 31209
L49559 30815
L49521 30871
L49484 30909
L49446 30928
" />
<path d="M49803 30815
L50046 30815
L49915 30965
L49971 30965
L50009 30984
L50028 31003
L50046 31040
L50046 31134
L50028 31171
L50009 31190
L49971 31209
L49859 31209
L49821 31190
L49803 31171
" />
<path d="M49009 30159
L49009 29765
L49103 29765
L49159 29784
L49196 29821
L49215 29859
L49234 29934
L49234 29990
L49215 30065
L49196 30103
L49159 30140
L49103 30159
L49009 30159
" />
<path d="M49590 29765
L49403 29765
L49384 29953
L49403 29934
L49440 29915
L49534 29915
L49571 29934
L49590 29953
L49609 29990
L49609 30084
L49590 30121
L49571 30140
L49534 30159
L49440 30159
L49403 30140
L49384 30121
" />
<path d="M49334 27309
L49203 27121
" />
<path d="M49109 27309
L49109 26915
L49259 26915
L49296 26934
L49315 26953
L49334 26990
L49334 27046
L49315 27084
L49296 27103
L49259 27121
L49109 27121
" />
<path d="M49484 27290
L49540 27309
L49634 27309
L49671 27290
L49690 27271
L49709 27234
L49709 27196
L49690 27159
L49671 27140
L49634 27121
L49559 27103
L49521 27084
L49503 27065
L49484 27028
L49484 26990
L49503 26953
L49521 26934
L49559 26915
L49653 26915
L49709 26934
" />
<path d="M49821 26915
L50046 26915
" />
<path d="M49934 27309
L49934 26915
" />
<path d="M49087 25565
L49331 25565
L49200 25715
L49256 25715
L49293 25734
L49312 25753
L49331 25790
L49331 25884
L49312 25921
L49293 25940
L49256 25959
L49143 25959
L49106 25940
L49087 25921
" />
<path d="M49500 25921
L49518 25940
L49500 25959
L49481 25940
L49500 25921
L49500 25959
" />
<path d="M49649 25565
L49893 25565
L49762 25715
L49818 25715
L49856 25734
L49874 25753
L49893 25790
L49893 25884
L49874 25921
L49856 25940
L49818 25959
L49706 25959
L49668 25940
L49649 25921
" />
<path d="M44250 23834
L44212 23815
L44156 23815
L44100 23834
L44062 23871
L44043 23909
L44025 23984
L44025 24040
L44043 24115
L44062 24153
L44100 24190
L44156 24209
L44193 24209
L44250 24190
L44268 24171
L44268 24040
L44193 24040
" />
<path d="M44437 24209
L44437 23815
L44662 24209
L44662 23815
" />
<path d="M44849 24209
L44849 23815
L44943 23815
L44999 23834
L45037 23871
L45056 23909
L45074 23984
L45074 24040
L45056 24115
L45037 24153
L44999 24190
L44943 24209
L44849 24209
" />
<path d="M49168 25096
L49356 25096
" />
<path d="M49131 25209
L49262 24815
L49393 25209
" />
<path d="M49712 24815
L49524 24815
L49506 25003
L49524 24984
L49562 24965
L49656 24965
L49693 24984
L49712 25003
L49731 25040
L49731 25134
L49712 25171
L49693 25190
L49656 25209
L49562 25209
L49524 25190
L49506 25171
" />
<path d="M49118 23915
L49250 24309
L49381 23915
" />
<path d="M49512 24309
L49512 23915
" />
<path d="M49699 24309
L49699 23915
L49924 24309
L49924 23915
" />
<path d="M24440 33087
L24459 33031
L24459 32937
L24440 32899
L24421 32881
L24384 32862
L24346 32862
L24309 32881
L24290 32899
L24271 32937
L24253 33012
L24234 33049
L24215 33068
L24178 33087
L24140 33087
L24103 33068
L24084 33049
L24065 33012
L24065 32918
L24084 32862
" />
<path d="M24253 32693
L24253 32562
" />
<path d="M24459 32506
L24459 32693
L24065 32693
L24065 32506
" />
<path d="M24459 32337
L24065 32337
L24459 32112
L24065 32112
" />
<path d="M24440 31943
L24459 31887
L24459 31793
L24440 31756
L24421 31737
L24384 31718
L24346 31718
L24309 31737
L24290 31756
L24271 31793
L24253 31868
L24234 31906
L24215 31925
L24178 31943
L24140 31943
L24103 31925
L24084 31906
L24065 31868
L24065 31775
L24084 31718
" />
<path d="M24065 31475
L24065 31400
L24084 31362
L24121 31325
L24196 31306
L24328 31306
L24403 31325
L24440 31362
L24459 31400
L24459 31475
L24440 31512
L24403 31550
L24328 31568
L24196 31568
L24121 31550
L24084 31512
L24065 31475
" />
<path d="M24459 30912
L24271 31043
" />
<path d="M24459 31137
L24065 31137
L24065 30987
L24084 30950
L24103 30931
L24140 30912
L24196 30912
L24234 30931
L24253 30950
L24271 30987
L24271 31137
" />
<path d="M69440 47187
L69459 47131
L69459 47037
L69440 46999
L69421 46981
L69384 46962
L69346 46962
L69309 46981
L69290 46999
L69271 47037
L69253 47112
L69234 47149
L69215 47168
L69178 47187
L69140 47187
L69103 47168
L69084 47149
L69065 47112
L69065 47018
L69084 46962
" />
<path d="M69253 46793
L69253 46662
" />
<path d="M69459 46606
L69459 46793
L69065 46793
L69065 46606
" />
<path d="M69459 46437
L69065 46437
L69459 46212
L69065 46212
" />
<path d="M69440 46043
L69459 45987
L69459 45893
L69440 45856
L69421 45837
L69384 45818
L69346 45818
L69309 45837
L69290 45856
L69271 45893
L69253 45968
L69234 46006
L69215 46025
L69178 46043
L69140 46043
L69103 46025
L69084 46006
L69065 45968
L69065 45875
L69084 45818
" />
<path d="M69065 45575
L69065 45500
L69084 45462
L69121 45425
L69196 45406
L69328 45406
L69403 45425
L69440 45462
L69459 45500
L69459 45575
L69440 45612
L69403 45650
L69328 45668
L69196 45668
L69121 45650
L69084 45612
L69065 45575
" />
<path d="M69459 45012
L69271 45143
" />
<path d="M69459 45237
L69065 45237
L69065 45087
L69084 45050
L69103 45031
L69140 45012
L69196 45012
L69234 45031
L69253 45050
L69271 45087
L69271 45237
" />
<path d="M69340 19087
L69359 19031
L69359 18937
L69340 18899
L69321 18881
L69284 18862
L69246 18862
L69209 18881
L69190 18899
L69171 18937
L69153 19012
L69134 19049
L69115 19068
L69078 19087
L69040 19087
L69003 19068
L68984 19049
L68965 19012
L68965 18918
L68984 18862
" />
<path d="M69153 18693
L69153 18562
" />
<path d="M69359 18506
L69359 18693
L68965 18693
L68965 18506
" />
<path d="M69359 18337
L68965 18337
L69359 18112
L68965 18112
" />
<path d="M69340 17943
L69359 17887
L69359 17793
L69340 17756
L69321 17737
L69284 17718
L69246 17718
L69209 17737
L69190 17756
L69171 17793
L69153 17868
L69134 17906
L69115 17925
L69078 17943
L69040 17943
L69003 17925
L68984 17906
L68965 17868
L68965 17775
L68984 17718
" />
<path d="M68965 17475
L68965 17400
L68984 17362
L69021 17325
L69096 17306
L69228 17306
L69303 17325
L69340 17362
L69359 17400
L69359 17475
L69340 17512
L69303 17550
L69228 17568
L69096 17568
L69021 17550
L68984 17512
L68965 17475
" />
<path d="M69359 16912
L69171 17043
" />
<path d="M69359 17137
L68965 17137
L68965 16987
L68984 16950
L69003 16931
L69040 16912
L69096 16912
L69134 16931
L69153 16950
L69171 16987
L69171 17137
" />
<path d="M33040 18987
L33059 18931
L33059 18837
L33040 18799
L33021 18781
L32984 18762
L32946 18762
L32909 18781
L32890 18799
L32871 18837
L32853 18912
L32834 18949
L32815 18968
L32778 18987
L32740 18987
L32703 18968
L32684 18949
L32665 18912
L32665 18818
L32684 18762
" />
<path d="M32853 18593
L32853 18462
" />
<path d="M33059 18406
L33059 18593
L32665 18593
L32665 18406
" />
<path d="M33059 18237
L32665 18237
L33059 18012
L32665 18012
" />
<path d="M33040 17843
L33059 17787
L33059 17693
L33040 17656
L33021 17637
L32984 17618
L32946 17618
L32909 17637
L32890 17656
L32871 17693
L32853 17768
L32834 17806
L32815 17825
L32778 17843
L32740 17843
L32703 17825
L32684 17806
L32665 17768
L32665 17675
L32684 17618
" />
<path d="M32665 17375
L32665 17300
L32684 17262
L32721 17225
L32796 17206
L32928 17206
L33003 17225
L33040 17262
L33059 17300
L33059 17375
L33040 17412
L33003 17450
L32928 17468
L32796 17468
L32721 17450
L32684 17412
L32665 17375
" />
<path d="M33059 16812
L32871 16943
" />
<path d="M33059 17037
L32665 17037
L32665 16887
L32684 16850
L32703 16831
L32740 16812
L32796 16812
L32834 16831
L32853 16850
L32871 16887
L32871 17037
" />
<path d="M32940 46987
L32959 46931
L32959 46837
L32940 46799
L32921 46781
L32884 46762
L32846 46762
L32809 46781
L32790 46799
L32771 46837
L32753 46912
L32734 46949
L32715 46968
L32678 46987
L32640 46987
L32603 46968
L32584 46949
L32565 46912
L32565 46818
L32584 46762
" />
<path d="M32753 46593
L32753 46462
" />
<path d="M32959 46406
L32959 46593
L32565 46593
L32565 46406
" />
<path d="M32959 46237
L32565 46237
L32959 46012
L32565 46012
" />
<path d="M32940 45843
L32959 45787
L32959 45693
L32940 45656
L32921 45637
L32884 45618
L32846 45618
L32809 45637
L32790 45656
L32771 45693
L32753 45768
L32734 45806
L32715 45825
L32678 45843
L32640 45843
L32603 45825
L32584 45806
L32565 45768
L32565 45675
L32584 45618
" />
<path d="M32565 45375
L32565 45300
L32584 45262
L32621 45225
L32696 45206
L32828 45206
L32903 45225
L32940 45262
L32959 45300
L32959 45375
L32940 45412
L32903 45450
L32828 45468
L32696 45468
L32621 45450
L32584 45412
L32565 45375
" />
<path d="M32959 44812
L32771 44943
" />
<path d="M32959 45037
L32565 45037
L32565 44887
L32584 44850
L32603 44831
L32640 44812
L32696 44812
L32734 44831
L32753 44850
L32771 44887
L32771 45037
" />
<path d="M31121 38035
L31121 37642
L31346 38035
L31346 37642
" />
<path d="M31533 38035
L31533 37642
L31683 37642
L31721 37660
L31739 37679
L31758 37717
L31758 37773
L31739 37810
L31721 37829
L31683 37848
L31533 37848
" />
<path d="M31927 38035
L31927 37642
" />
<path d="M31927 37829
L32152 37829
" />
<path d="M32152 38035
L32152 37642
" />
<path d="M32508 38035
L32508 37642
" />
<path d="M32508 38016
L32470 38035
L32395 38035
L32358 38016
L32339 37998
L32320 37960
L32320 37848
L32339 37810
L32358 37792
L32395 37773
L32470 37773
L32508 37792
" />
<path d="M32658 37642
L32902 37642
L32770 37792
L32827 37792
L32864 37810
L32883 37829
L32902 37867
L32902 37960
L32883 37998
L32864 38016
L32827 38035
L32714 38035
L32677 38016
L32658 37998
" />
<path d="M33089 38016
L33089 38035
L33070 38073
L33052 38091
" />
<path d="M33464 38035
L33239 38035
" />
<path d="M33352 38035
L33352 37642
L33314 37698
L33277 37735
L33239 37754
" />
<path d="M56711 38035
L56711 37642
L56936 38035
L56936 37642
" />
<path d="M57124 38035
L57124 37642
L57274 37642
L57311 37660
L57330 37679
L57349 37717
L57349 37773
L57330 37810
L57311 37829
L57274 37848
L57124 37848
" />
<path d="M57517 38035
L57517 37642
" />
<path d="M57517 37829
L57742 37829
" />
<path d="M57742 38035
L57742 37642
" />
<path d="M58098 38035
L58098 37642
" />
<path d="M58098 38016
L58061 38035
L57986 38035
L57949 38016
L57930 37998
L57911 37960
L57911 37848
L57930 37810
L57949 37792
L57986 37773
L58061 37773
L58098 37792
" />
<path d="M58248 37642
L58492 37642
L58361 37792
L58417 37792
L58455 37810
L58473 37829
L58492 37867
L58492 37960
L58473 37998
L58455 38016
L58417 38035
L58305 38035
L58267 38016
L58248 37998
" />
<path d="M58680 38016
L58680 38035
L58661 38073
L58642 38091
" />
<path d="M59055 38035
L58830 38035
" />
<path d="M58942 38035
L58942 37642
L58905 37698
L58867 37735
L58830 37754
" />
<path d="M56711 23862
L56711 23468
L56936 23862
L56936 23468
" />
<path d="M57124 23862
L57124 23468
L57274 23468
L57311 23487
L57330 23506
L57349 23543
L57349 23600
L57330 23637
L57311 23656
L57274 23675
L57124 23675
" />
<path d="M57517 23862
L57517 23468
" />
<path d="M57517 23656
L57742 23656
" />
<path d="M57742 23862
L57742 23468
" />
<path d="M58098 23862
L58098 23468
" />
<path d="M58098 23843
L58061 23862
L57986 23862
L57949 23843
L57930 23825
L57911 23787
L57911 23675
L57930 23637
L57949 23618
L57986 23600
L58061 23600
L58098 23618
" />
<path d="M58248 23468
L58492 23468
L58361 23618
L58417 23618
L58455 23637
L58473 23656
L58492 23693
L58492 23787
L58473 23825
L58455 23843
L58417 23862
L58305 23862
L58267 23843
L58248 23825
" />
<path d="M58680 23843
L58680 23862
L58661 23900
L58642 23918
" />
<path d="M59055 23862
L58830 23862
" />
<path d="M58942 23862
L58942 23468
L58905 23525
L58867 23562
L58830 23581
" />
<path d="M42144 48665
L42144 48271
L42369 48665
L42369 48271
" />
<path d="M42557 48665
L42557 48271
L42707 48271
L42744 48290
L42763 48309
L42782 48346
L42782 48403
L42763 48440
L42744 48459
L42707 48478
L42557 48478
" />
<path d="M42950 48665
L42950 48271
" />
<path d="M42950 48459
L43175 48459
" />
<path d="M43175 48665
L43175 48271
" />
<path d="M43532 48665
L43532 48271
" />
<path d="M43532 48646
L43494 48665
L43419 48665
L43382 48646
L43363 48628
L43344 48590
L43344 48478
L43363 48440
L43382 48421
L43419 48403
L43494 48403
L43532 48421
" />
<path d="M43682 48271
L43925 48271
L43794 48421
L43850 48421
L43888 48440
L43907 48459
L43925 48496
L43925 48590
L43907 48628
L43888 48646
L43850 48665
L43738 48665
L43700 48646
L43682 48628
" />
<path d="M44113 48646
L44113 48665
L44094 48703
L44075 48721
" />
<path d="M44488 48665
L44263 48665
" />
<path d="M44375 48665
L44375 48271
L44338 48328
L44300 48365
L44263 48384
" />
<path d="M42144 13232
L42144 12838
L42369 13232
L42369 12838
" />
<path d="M42557 13232
L42557 12838
L42707 12838
L42744 12857
L42763 12876
L42782 12913
L42782 12970
L42763 13007
L42744 13026
L42707 13045
L42557 13045
" />
<path d="M42950 13232
L42950 12838
" />
<path d="M42950 13026
L43175 13026
" />
<path d="M43175 13232
L43175 12838
" />
<path d="M43532 13232
L43532 12838
" />
<path d="M43532 13213
L43494 13232
L43419 13232
L43382 13213
L43363 13195
L43344 13157
L43344 13045
L43363 13007
L43382 12988
L43419 12970
L43494 12970
L43532 12988
" />
<path d="M43682 12838
L43925 12838
L43794 12988
L43850 12988
L43888 13007
L43907 13026
L43925 13063
L43925 13157
L43907 13195
L43888 13213
L43850 13232
L43738 13232
L43700 13213
L43682 13195
" />
<path d="M44113 13213
L44113 13232
L44094 13270
L44075 13288
" />
<path d="M44488 13232
L44263 13232
" />
<path d="M44375 13232
L44375 12838
L44338 12895
L44300 12932
L44263 12951
" />
<path d="M48050 48271
L48050 47878
L48275 48271
L48275 47878
" />
<path d="M48462 48271
L48462 47878
L48612 47878
L48650 47897
L48668 47915
L48687 47953
L48687 48009
L48668 48046
L48650 48065
L48612 48084
L48462 48084
" />
<path d="M48856 48271
L48856 47878
" />
<path d="M48856 48065
L49081 48065
" />
<path d="M49081 48271
L49081 47878
" />
<path d="M49437 48271
L49437 47878
" />
<path d="M49437 48253
L49400 48271
L49325 48271
L49287 48253
L49268 48234
L49250 48196
L49250 48084
L49268 48046
L49287 48028
L49325 48009
L49400 48009
L49437 48028
" />
<path d="M49587 47878
L49831 47878
L49700 48028
L49756 48028
L49793 48046
L49812 48065
L49831 48103
L49831 48196
L49812 48234
L49793 48253
L49756 48271
L49643 48271
L49606 48253
L49587 48234
" />
<path d="M50018 48253
L50018 48271
L50000 48309
L49981 48328
" />
<path d="M50393 48271
L50168 48271
" />
<path d="M50281 48271
L50281 47878
L50243 47934
L50206 47971
L50168 47990
" />
<path d="M56711 48271
L56711 47878
L56936 48271
L56936 47878
" />
<path d="M57124 48271
L57124 47878
L57274 47878
L57311 47897
L57330 47915
L57349 47953
L57349 48009
L57330 48046
L57311 48065
L57274 48084
L57124 48084
" />
<path d="M57517 48271
L57517 47878
" />
<path d="M57517 48065
L57742 48065
" />
<path d="M57742 48271
L57742 47878
" />
<path d="M58098 48271
L58098 47878
" />
<path d="M58098 48253
L58061 48271
L57986 48271
L57949 48253
L57930 48234
L57911 48196
L57911 48084
L57930 48046
L57949 48028
L57986 48009
L58061 48009
L58098 48028
" />
<path d="M58248 47878
L58492 47878
L58361 48028
L58417 48028
L58455 48046
L58473 48065
L58492 48103
L58492 48196
L58473 48234
L58455 48253
L58417 48271
L58305 48271
L58267 48253
L58248 48234
" />
<path d="M58680 48253
L58680 48271
L58661 48309
L58642 48328
" />
<path d="M59055 48271
L58830 48271
" />
<path d="M58942 48271
L58942 47878
L58905 47934
L58867 47971
L58830 47990
" />
<path d="M48050 13626
L48050 13232
L48275 13626
L48275 13232
" />
<path d="M48462 13626
L48462 13232
L48612 13232
L48650 13251
L48668 13270
L48687 13307
L48687 13363
L48668 13401
L48650 13420
L48612 13438
L48462 13438
" />
<path d="M48856 13626
L48856 13232
" />
<path d="M48856 13420
L49081 13420
" />
<path d="M49081 13626
L49081 13232
" />
<path d="M49437 13626
L49437 13232
" />
<path d="M49437 13607
L49400 13626
L49325 13626
L49287 13607
L49268 13588
L49250 13551
L49250 13438
L49268 13401
L49287 13382
L49325 13363
L49400 13363
L49437 13382
" />
<path d="M49587 13232
L49831 13232
L49700 13382
L49756 13382
L49793 13401
L49812 13420
L49831 13457
L49831 13551
L49812 13588
L49793 13607
L49756 13626
L49643 13626
L49606 13607
L49587 13588
" />
<path d="M50018 13607
L50018 13626
L50000 13663
L49981 13682
" />
<path d="M50393 13626
L50168 13626
" />
<path d="M50281 13626
L50281 13232
L50243 13288
L50206 13326
L50168 13345
" />
<path d="M31121 23862
L31121 23468
L31346 23862
L31346 23468
" />
<path d="M31533 23862
L31533 23468
L31683 23468
L31721 23487
L31739 23506
L31758 23543
L31758 23600
L31739 23637
L31721 23656
L31683 23675
L31533 23675
" />
<path d="M31927 23862
L31927 23468
" />
<path d="M31927 23656
L32152 23656
" />
<path d="M32152 23862
L32152 23468
" />
<path d="M32508 23862
L32508 23468
" />
<path d="M32508 23843
L32470 23862
L32395 23862
L32358 23843
L32339 23825
L32320 23787
L32320 23675
L32339 23637
L32358 23618
L32395 23600
L32470 23600
L32508 23618
" />
<path d="M32658 23468
L32902 23468
L32770 23618
L32827 23618
L32864 23637
L32883 23656
L32902 23693
L32902 23787
L32883 23825
L32864 23843
L32827 23862
L32714 23862
L32677 23843
L32658 23825
" />
<path d="M33089 23843
L33089 23862
L33070 23900
L33052 23918
" />
<path d="M33464 23862
L33239 23862
" />
<path d="M33352 23862
L33352 23468
L33314 23525
L33277 23562
L33239 23581
" />
<path d="M20884 27799
L20884 27405
L21109 27799
L21109 27405
" />
<path d="M21297 27799
L21297 27405
L21447 27405
L21484 27424
L21503 27443
L21522 27480
L21522 27537
L21503 27574
L21484 27593
L21447 27612
L21297 27612
" />
<path d="M21691 27799
L21691 27405
" />
<path d="M21691 27593
L21916 27593
" />
<path d="M21916 27799
L21916 27405
" />
<path d="M22272 27799
L22272 27405
" />
<path d="M22272 27780
L22234 27799
L22159 27799
L22122 27780
L22103 27762
L22084 27724
L22084 27612
L22103 27574
L22122 27555
L22159 27537
L22234 27537
L22272 27555
" />
<path d="M22422 27405
L22665 27405
L22534 27555
L22590 27555
L22628 27574
L22647 27593
L22665 27630
L22665 27724
L22647 27762
L22628 27780
L22590 27799
L22478 27799
L22440 27780
L22422 27762
" />
<path d="M22853 27780
L22853 27799
L22834 27837
L22815 27855
" />
<path d="M23228 27799
L23003 27799
" />
<path d="M23115 27799
L23115 27405
L23078 27462
L23040 27499
L23003 27518
" />
<path d="M20884 34098
L20884 33705
L21109 34098
L21109 33705
" />
<path d="M21297 34098
L21297 33705
L21447 33705
L21484 33723
L21503 33742
L21522 33780
L21522 33836
L21503 33873
L21484 33892
L21447 33911
L21297 33911
" />
<path d="M21691 34098
L21691 33705
" />
<path d="M21691 33892
L21916 33892
" />
<path d="M21916 34098
L21916 33705
" />
<path d="M22272 34098
L22272 33705
" />
<path d="M22272 34079
L22234 34098
L22159 34098
L22122 34079
L22103 34061
L22084 34023
L22084 33911
L22103 33873
L22122 33855
L22159 33836
L22234 33836
L22272 33855
" />
<path d="M22422 33705
L22665 33705
L22534 33855
L22590 33855
L22628 33873
L22647 33892
L22665 33929
L22665 34023
L22647 34061
L22628 34079
L22590 34098
L22478 34098
L22440 34079
L22422 34061
" />
<path d="M22853 34079
L22853 34098
L22834 34136
L22815 34154
" />
<path d="M23228 34098
L23003 34098
" />
<path d="M23115 34098
L23115 33705
L23078 33761
L23040 33798
L23003 33817
" />
</g> 
</svg>
