<?xml version="1.0" standalone="no"?>
 <!DOCTYPE svg PUBLIC "-//W3C//DTD SVG 1.1//EN" 
 "http://www.w3.org/Graphics/SVG/1.1/DTD/svg11.dtd"> 
<svg xmlns="http://www.w3.org/2000/svg" version="1.1" 
    width="29.7002cm" height="21.0007cm" viewBox="0 0 116930 82680 ">
<title>SVG Picture created as RoboplatformDIY-F_Cu.svg date 2015/10/27 07:17:37 </title>
  <desc>Picture generated by PCBNEW </desc>
<g style="fill:#000000; fill-opacity:1;stroke:#000000; stroke-opacity:1;
stroke-linecap:round; stroke-linejoin:round; "
 transform="translate(0 0) scale(1 1)">
</g>
<g style="fill:#000000; fill-opacity:0.0; 
stroke:#000000; stroke-width:59.0551; stroke-opacity:1; 
stroke-linecap:round; stroke-linejoin:round;">
</g>
<g style="fill:#000000; fill-opacity:1.0; 
stroke:#000000; stroke-width:59.0551; stroke-opacity:1; 
stroke-linecap:round; stroke-linejoin:round;">
<polyline style="fill-rule:evenodd;"
points="50185,33328
50185,32797
50362,32797
50362,33328
50185,33328
" /> 
<polyline style="fill-rule:evenodd;"
points="50677,33328
50677,32797
50854,32797
50854,33328
50677,33328
" /> 
<polyline style="fill-rule:evenodd;"
points="51161,33328
51161,32797
51338,32797
51338,33328
51161,33328
" /> 
<polyline style="fill-rule:evenodd;"
points="51661,33328
51661,32797
51838,32797
51838,33328
51661,33328
" /> 
<polyline style="fill-rule:evenodd;"
points="52153,33328
52153,32797
52330,32797
52330,33328
52153,33328
" /> 
<polyline style="fill-rule:evenodd;"
points="52645,33328
52645,32797
52822,32797
52822,33328
52645,33328
" /> 
<polyline style="fill-rule:evenodd;"
points="53137,33328
53137,32797
53314,32797
53314,33328
53137,33328
" /> 
<polyline style="fill-rule:evenodd;"
points="53137,31202
53137,30671
53314,30671
53314,31202
53137,31202
" /> 
<polyline style="fill-rule:evenodd;"
points="52645,31202
52645,30671
52822,30671
52822,31202
52645,31202
" /> 
<polyline style="fill-rule:evenodd;"
points="52153,31202
52153,30671
52330,30671
52330,31202
52153,31202
" /> 
<polyline style="fill-rule:evenodd;"
points="51661,31202
51661,30671
51838,30671
51838,31202
51661,31202
" /> 
<polyline style="fill-rule:evenodd;"
points="51169,31202
51169,30671
51346,30671
51346,31202
51169,31202
" /> 
<polyline style="fill-rule:evenodd;"
points="50677,31202
50677,30671
50854,30671
50854,31202
50677,31202
" /> 
<polyline style="fill-rule:evenodd;"
points="50185,31202
50185,30671
50362,30671
50362,31202
50185,31202
" /> 
<polyline style="fill-rule:evenodd;"
points="58429,30320
58429,29879
58570,29879
58570,30320
58429,30320
" /> 
<polyline style="fill-rule:evenodd;"
points="57929,30320
57929,29879
58070,29879
58070,30320
57929,30320
" /> 
<polyline style="fill-rule:evenodd;"
points="57429,30320
57429,29879
57570,29879
57570,30320
57429,30320
" /> 
<polyline style="fill-rule:evenodd;"
points="56929,30320
56929,29879
57070,29879
57070,30320
56929,30320
" /> 
<polyline style="fill-rule:evenodd;"
points="56429,30320
56429,29879
56570,29879
56570,30320
56429,30320
" /> 
<polyline style="fill-rule:evenodd;"
points="55929,30320
55929,29879
56070,29879
56070,30320
55929,30320
" /> 
<polyline style="fill-rule:evenodd;"
points="55429,30320
55429,29879
55570,29879
55570,30320
55429,30320
" /> 
<polyline style="fill-rule:evenodd;"
points="54929,30320
54929,29879
55070,29879
55070,30320
54929,30320
" /> 
<polyline style="fill-rule:evenodd;"
points="54429,30320
54429,29879
54570,29879
54570,30320
54429,30320
" /> 
<polyline style="fill-rule:evenodd;"
points="53929,30320
53929,29879
54070,29879
54070,30320
53929,30320
" /> 
<polyline style="fill-rule:evenodd;"
points="53929,34120
53929,33679
54070,33679
54070,34120
53929,34120
" /> 
<polyline style="fill-rule:evenodd;"
points="54429,34120
54429,33679
54570,33679
54570,34120
54429,34120
" /> 
<polyline style="fill-rule:evenodd;"
points="54929,34120
54929,33679
55070,33679
55070,34120
54929,34120
" /> 
<polyline style="fill-rule:evenodd;"
points="55429,34120
55429,33679
55570,33679
55570,34120
55429,34120
" /> 
<polyline style="fill-rule:evenodd;"
points="55929,34120
55929,33679
56070,33679
56070,34120
55929,34120
" /> 
<polyline style="fill-rule:evenodd;"
points="56429,34120
56429,33679
56570,33679
56570,34120
56429,34120
" /> 
<polyline style="fill-rule:evenodd;"
points="56929,34120
56929,33679
57070,33679
57070,34120
56929,34120
" /> 
<polyline style="fill-rule:evenodd;"
points="57429,34120
57429,33679
57570,33679
57570,34120
57429,34120
" /> 
<polyline style="fill-rule:evenodd;"
points="57929,34120
57929,33679
58070,33679
58070,34120
57929,34120
" /> 
<polyline style="fill-rule:evenodd;"
points="58429,34120
58429,33679
58570,33679
58570,34120
58429,34120
" /> 
<polyline style="fill-rule:evenodd;"
points="51745,38020
51254,38020
51254,37729
51745,37729
51745,38020
" /> 
<polyline style="fill-rule:evenodd;"
points="51745,37270
51254,37270
51254,36979
51745,36979
51745,37270
" /> 
<polyline style="fill-rule:evenodd;"
points="31745,46620
31254,46620
31254,46329
31745,46329
31745,46620
" /> 
<polyline style="fill-rule:evenodd;"
points="31745,45870
31254,45870
31254,45579
31745,45579
31745,45870
" /> 
<polyline style="fill-rule:evenodd;"
points="23045,32670
22554,32670
22554,32379
23045,32379
23045,32670
" /> 
<polyline style="fill-rule:evenodd;"
points="23045,31920
22554,31920
22554,31629
23045,31629
23045,31920
" /> 
<polyline style="fill-rule:evenodd;"
points="31745,18620
31254,18620
31254,18329
31745,18329
31745,18620
" /> 
<polyline style="fill-rule:evenodd;"
points="31745,17870
31254,17870
31254,17579
31745,17579
31745,17870
" /> 
<polyline style="fill-rule:evenodd;"
points="58745,29020
58254,29020
58254,28729
58745,28729
58745,29020
" /> 
<polyline style="fill-rule:evenodd;"
points="58745,28270
58254,28270
58254,27979
58745,27979
58745,28270
" /> 
<polyline style="fill-rule:evenodd;"
points="50995,29020
50504,29020
50504,28729
50995,28729
50995,29020
" /> 
<polyline style="fill-rule:evenodd;"
points="50995,28270
50504,28270
50504,27979
50995,27979
50995,28270
" /> 
<polyline style="fill-rule:evenodd;"
points="43827,18652
43827,19143
43536,19143
43536,18652
43827,18652
" /> 
<polyline style="fill-rule:evenodd;"
points="43077,18652
43077,19143
42786,19143
42786,18652
43077,18652
" /> 
<polyline style="fill-rule:evenodd;"
points="70020,23254
70020,23745
69729,23745
69729,23254
70020,23254
" /> 
<polyline style="fill-rule:evenodd;"
points="69270,23254
69270,23745
68979,23745
68979,23254
69270,23254
" /> 
<polyline style="fill-rule:evenodd;"
points="49754,36979
50245,36979
50245,37270
49754,37270
49754,36979
" /> 
<polyline style="fill-rule:evenodd;"
points="49754,37729
50245,37729
50245,38020
49754,38020
49754,37729
" /> 
<polyline style="fill-rule:evenodd;"
points="43827,44636
43827,45127
43536,45127
43536,44636
43827,44636
" /> 
<polyline style="fill-rule:evenodd;"
points="43077,44636
43077,45127
42786,45127
42786,44636
43077,44636
" /> 
<polyline style="fill-rule:evenodd;"
points="68979,40745
68979,40254
69270,40254
69270,40745
68979,40745
" /> 
<polyline style="fill-rule:evenodd;"
points="69729,40745
69729,40254
70020,40254
70020,40745
69729,40745
" /> 
<polyline style="fill-rule:evenodd;"
points="67004,36979
67495,36979
67495,37270
67004,37270
67004,36979
" /> 
<polyline style="fill-rule:evenodd;"
points="67004,37729
67495,37729
67495,38020
67004,38020
67004,37729
" /> 
<polyline style="fill-rule:evenodd;"
points="69745,28020
69254,28020
69254,27729
69745,27729
69745,28020
" /> 
<polyline style="fill-rule:evenodd;"
points="69745,27270
69254,27270
69254,26979
69745,26979
69745,27270
" /> 
<circle cx="53962.6" cy="27787.4" r="285.433" /> 
<circle cx="52962.6" cy="27787.4" r="285.433" /> 
<circle cx="53962.6" cy="36287.4" r="285.433" /> 
<circle cx="52962.6" cy="36287.4" r="285.433" /> 
<polyline style="fill-rule:evenodd;"
points="44151,16210
44151,16860
43581,16860
43581,16210
44151,16210
" /> 
<polyline style="fill-rule:evenodd;"
points="43033,16210
43033,16860
42463,16860
42463,16210
43033,16210
" /> 
<polyline style="fill-rule:evenodd;"
points="44151,17391
44151,18041
43581,18041
43581,17391
44151,17391
" /> 
<polyline style="fill-rule:evenodd;"
points="43033,17391
43033,18041
42463,18041
42463,17391
43033,17391
" /> 
<polyline style="fill-rule:evenodd;"
points="44151,46919
44151,47569
43581,47569
43581,46919
44151,46919
" /> 
<polyline style="fill-rule:evenodd;"
points="43033,46919
43033,47569
42463,47569
42463,46919
43033,46919
" /> 
<polyline style="fill-rule:evenodd;"
points="44151,45738
44151,46387
43581,46387
43581,45738
44151,45738
" /> 
<polyline style="fill-rule:evenodd;"
points="43033,45738
43033,46387
42463,46387
42463,45738
43033,45738
" /> 
<polyline style="fill-rule:evenodd;"
points="68765,38408
68115,38408
68115,37838
68765,37838
68765,38408
" /> 
<polyline style="fill-rule:evenodd;"
points="68765,37290
68115,37290
68115,36720
68765,36720
68765,37290
" /> 
<polyline style="fill-rule:evenodd;"
points="41185,39828
41185,39297
41362,39297
41362,39828
41185,39828
" /> 
<polyline style="fill-rule:evenodd;"
points="41677,39828
41677,39297
41854,39297
41854,39828
41677,39828
" /> 
<polyline style="fill-rule:evenodd;"
points="42161,39828
42161,39297
42338,39297
42338,39828
42161,39828
" /> 
<polyline style="fill-rule:evenodd;"
points="42661,39828
42661,39297
42838,39297
42838,39828
42661,39828
" /> 
<polyline style="fill-rule:evenodd;"
points="43153,39828
43153,39297
43330,39297
43330,39828
43153,39828
" /> 
<polyline style="fill-rule:evenodd;"
points="43645,39828
43645,39297
43822,39297
43822,39828
43645,39828
" /> 
<polyline style="fill-rule:evenodd;"
points="44137,39828
44137,39297
44314,39297
44314,39828
44137,39828
" /> 
<polyline style="fill-rule:evenodd;"
points="44137,37702
44137,37171
44314,37171
44314,37702
44137,37702
" /> 
<polyline style="fill-rule:evenodd;"
points="43645,37702
43645,37171
43822,37171
43822,37702
43645,37702
" /> 
<polyline style="fill-rule:evenodd;"
points="43153,37702
43153,37171
43330,37171
43330,37702
43153,37702
" /> 
<polyline style="fill-rule:evenodd;"
points="42661,37702
42661,37171
42838,37171
42838,37702
42661,37702
" /> 
<polyline style="fill-rule:evenodd;"
points="42169,37702
42169,37171
42346,37171
42346,37702
42169,37702
" /> 
<polyline style="fill-rule:evenodd;"
points="41677,37702
41677,37171
41854,37171
41854,37702
41677,37702
" /> 
<polyline style="fill-rule:evenodd;"
points="41185,37702
41185,37171
41362,37171
41362,37702
41185,37702
" /> 
<polyline style="fill-rule:evenodd;"
points="60004,45479
60495,45479
60495,45770
60004,45770
60004,45479
" /> 
<polyline style="fill-rule:evenodd;"
points="60004,46229
60495,46229
60495,46520
60004,46520
60004,46229
" /> 
<polyline style="fill-rule:evenodd;"
points="60495,18520
60004,18520
60004,18229
60495,18229
60495,18520
" /> 
<polyline style="fill-rule:evenodd;"
points="60495,17770
60004,17770
60004,17479
60495,17479
60495,17770
" /> 
<polyline style="fill-rule:evenodd;"
points="41479,36245
41479,35754
41770,35754
41770,36245
41479,36245
" /> 
<polyline style="fill-rule:evenodd;"
points="42229,36245
42229,35754
42520,35754
42520,36245
42229,36245
" /> 
<polyline style="fill-rule:evenodd;"
points="42020,40504
42020,40995
41729,40995
41729,40504
42020,40504
" /> 
<polyline style="fill-rule:evenodd;"
points="41270,40504
41270,40995
40979,40995
40979,40504
41270,40504
" /> 
<circle cx="62500" cy="29519.7" r="1938.98" /> 
<circle cx="62500" cy="34519.7" r="1938.98" /> 
<polyline style="fill-rule:evenodd;"
points="67309,29372
67309,28643
67840,28643
67840,29372
67309,29372
" /> 
<polyline style="fill-rule:evenodd;"
points="69277,29372
69277,28643
69809,28643
69809,29372
69277,29372
" /> 
<polyline style="fill-rule:evenodd;"
points="67309,35474
67309,34746
67840,34746
67840,35474
67309,35474
" /> 
<polyline style="fill-rule:evenodd;"
points="69277,35474
69277,34746
69809,34746
69809,35474
69277,35474
" /> 
<polyline style="fill-rule:evenodd;"
points="58297,20108
57805,20108
57805,19852
58297,19852
58297,20108
" /> 
<polyline style="fill-rule:evenodd;"
points="60472,20600
59980,20600
59980,20344
60472,20344
60472,20600
" /> 
<polyline style="fill-rule:evenodd;"
points="60472,19616
59980,19616
59980,19360
60472,19360
60472,19616
" /> 
<polyline style="fill-rule:evenodd;"
points="58297,44108
57805,44108
57805,43852
58297,43852
58297,44108
" /> 
<polyline style="fill-rule:evenodd;"
points="60472,44600
59980,44600
59980,44344
60472,44344
60472,44600
" /> 
<polyline style="fill-rule:evenodd;"
points="60472,43616
59980,43616
59980,43360
60472,43360
60472,43616
" /> 
<circle cx="67037.4" cy="27212.6" r="285.433" /> 
<circle cx="68037.4" cy="27212.6" r="285.433" /> 
<circle cx="36500" cy="31000" r="285.433" /> 
<circle cx="35500" cy="31000" r="285.433" /> 
<circle cx="36500" cy="29000" r="285.433" /> 
<circle cx="35500" cy="29000" r="285.433" /> 
<circle cx="36500" cy="30000" r="285.433" /> 
<circle cx="35500" cy="30000" r="285.433" /> 
<circle cx="35500" cy="34000" r="285.433" /> 
<circle cx="36500" cy="34000" r="285.433" /> 
<circle cx="36500" cy="32000" r="285.433" /> 
<circle cx="35500" cy="32000" r="285.433" /> 
<circle cx="35500" cy="33000" r="285.433" /> 
<circle cx="36500" cy="33000" r="285.433" /> 
<circle cx="35500" cy="35000" r="285.433" /> 
<circle cx="36500" cy="35000" r="285.433" /> 
<circle cx="46061" cy="24049.2" r="246.063" /> 
<circle cx="46061" cy="25049.2" r="246.063" /> 
<circle cx="46061" cy="26049.2" r="246.063" /> 
<circle cx="46061" cy="27049.2" r="246.063" /> 
<circle cx="46061" cy="28049.2" r="246.063" /> 
<circle cx="46061" cy="29049.2" r="246.063" /> 
<circle cx="46061" cy="30049.2" r="246.063" /> 
<circle cx="46061" cy="31049.2" r="246.063" /> 
<circle cx="46061" cy="32049.2" r="246.063" /> 
<circle cx="46061" cy="33049.2" r="246.063" /> 
<circle cx="46061" cy="34049.2" r="246.063" /> 
<circle cx="46061" cy="35049.2" r="246.063" /> 
<circle cx="46061" cy="36049.2" r="246.063" /> 
<circle cx="46061" cy="37049.2" r="246.063" /> 
<circle cx="46061" cy="38049.2" r="246.063" /> 
<circle cx="46061" cy="39049.2" r="246.063" /> 
<circle cx="46061" cy="40049.2" r="246.063" /> 
<circle cx="48061" cy="40049.2" r="246.063" /> 
<circle cx="48061" cy="39049.2" r="246.063" /> 
<circle cx="48061" cy="38049.2" r="246.063" /> 
<circle cx="48061" cy="37049.2" r="246.063" /> 
<circle cx="48061" cy="36049.2" r="246.063" /> 
<circle cx="48061" cy="35049.2" r="246.063" /> 
<circle cx="48061" cy="34049.2" r="246.063" /> 
<circle cx="48061" cy="33049.2" r="246.063" /> 
<circle cx="48061" cy="32049.2" r="246.063" /> 
<circle cx="48061" cy="31049.2" r="246.063" /> 
<circle cx="48061" cy="30049.2" r="246.063" /> 
<circle cx="48061" cy="29049.2" r="246.063" /> 
<circle cx="48061" cy="28049.2" r="246.063" /> 
<circle cx="48061" cy="27049.2" r="246.063" /> 
<circle cx="48061" cy="26049.2" r="246.063" /> 
<circle cx="48061" cy="25049.2" r="246.063" /> 
<circle cx="48061" cy="24049.2" r="246.063" /> 
<polyline style="fill-rule:evenodd;"
points="30856,34919
28946,34919
28946,33009
30856,33009
30856,34919
" /> 
<polyline style="fill-rule:evenodd;"
points="30856,30982
28946,30982
28946,29072
30856,29072
30856,30982
" /> 
<polyline style="fill-rule:evenodd;"
points="26919,34919
25009,34919
25009,33009
26919,33009
26919,34919
" /> 
<polyline style="fill-rule:evenodd;"
points="26919,30982
25009,30982
25009,29072
26919,29072
26919,30982
" /> 
<polyline style="fill-rule:evenodd;"
points="62608,43088
64517,43088
64517,44998
62608,44998
62608,43088
" /> 
<polyline style="fill-rule:evenodd;"
points="62608,47025
64517,47025
64517,48935
62608,48935
62608,47025
" /> 
<polyline style="fill-rule:evenodd;"
points="66545,43088
68454,43088
68454,44998
66545,44998
66545,43088
" /> 
<polyline style="fill-rule:evenodd;"
points="66545,47025
68454,47025
68454,48935
66545,48935
66545,47025
" /> 
<polyline style="fill-rule:evenodd;"
points="62608,15057
64517,15057
64517,16966
62608,16966
62608,15057
" /> 
<polyline style="fill-rule:evenodd;"
points="62608,18994
64517,18994
64517,20903
62608,20903
62608,18994
" /> 
<polyline style="fill-rule:evenodd;"
points="66545,15057
68454,15057
68454,16966
66545,16966
66545,15057
" /> 
<polyline style="fill-rule:evenodd;"
points="66545,18994
68454,18994
68454,20903
66545,20903
66545,18994
" /> 
<polyline style="fill-rule:evenodd;"
points="39517,20903
37608,20903
37608,18994
39517,18994
39517,20903
" /> 
<polyline style="fill-rule:evenodd;"
points="39517,16966
37608,16966
37608,15057
39517,15057
39517,16966
" /> 
<polyline style="fill-rule:evenodd;"
points="35580,20903
33671,20903
33671,18994
35580,18994
35580,20903
" /> 
<polyline style="fill-rule:evenodd;"
points="35580,16966
33671,16966
33671,15057
35580,15057
35580,16966
" /> 
<polyline style="fill-rule:evenodd;"
points="39517,48935
37608,48935
37608,47025
39517,47025
39517,48935
" /> 
<polyline style="fill-rule:evenodd;"
points="39517,44998
37608,44998
37608,43088
39517,43088
39517,44998
" /> 
<polyline style="fill-rule:evenodd;"
points="35580,48935
33671,48935
33671,47025
35580,47025
35580,48935
" /> 
<polyline style="fill-rule:evenodd;"
points="35580,44998
33671,44998
33671,43088
35580,43088
35580,44998
" /> 
<circle cx="47250" cy="41250" r="265.748" /> 
<circle cx="39750" cy="37500" r="265.748" /> 
<circle cx="37750" cy="40750" r="265.748" /> 
<circle cx="36000" cy="47750" r="265.748" /> 
<circle cx="43250" cy="31000" r="265.748" /> 
<circle cx="34250" cy="32000" r="265.748" /> 
<circle cx="35500" cy="23500" r="265.748" /> 
<circle cx="34250" cy="27500" r="265.748" /> 
<circle cx="39750" cy="36500" r="265.748" /> 
<circle cx="46000" cy="23000" r="265.748" /> 
<circle cx="63500" cy="18000" r="265.748" /> 
<circle cx="59250" cy="20750" r="265.748" /> 
<circle cx="44500" cy="31000" r="265.748" /> 
<circle cx="37750" cy="32000" r="265.748" /> 
<circle cx="40250" cy="30050" r="265.748" /> 
<circle cx="46250" cy="41250" r="265.748" /> 
<circle cx="34000" cy="35500" r="265.748" /> 
<circle cx="34500" cy="39000" r="265.748" /> 
<circle cx="36750" cy="43750" r="265.748" /> 
<circle cx="50500" cy="34500" r="265.748" /> 
<circle cx="50500" cy="36250" r="265.748" /> 
<circle cx="24500" cy="27500" r="265.748" /> 
<circle cx="32400" cy="43000" r="265.748" /> 
<circle cx="37100" cy="40050" r="265.748" /> 
<circle cx="37850" cy="34650" r="265.748" /> 
<circle cx="66000" cy="23000" r="265.748" /> 
<circle cx="52250" cy="38750" r="265.748" /> 
<circle cx="42750" cy="41000" r="265.748" /> 
<circle cx="45250" cy="19000" r="265.748" /> 
<circle cx="69500" cy="50250" r="265.748" /> 
<circle cx="32500" cy="13750" r="265.748" /> 
<circle cx="62500" cy="37750" r="265.748" /> 
<circle cx="51750" cy="27500" r="265.748" /> 
<circle cx="44750" cy="44750" r="265.748" /> 
<circle cx="58500" cy="27250" r="265.748" /> 
<circle cx="56750" cy="34750" r="265.748" /> 
<circle cx="55750" cy="34750" r="265.748" /> 
<circle cx="56750" cy="29250" r="265.748" /> 
<circle cx="55750" cy="29250" r="265.748" /> 
<circle cx="66500" cy="30500" r="265.748" /> 
<circle cx="51500" cy="34500" r="265.748" /> 
<circle cx="44881.9" cy="46063" r="265.748" /> 
<circle cx="51500" cy="28500" r="265.748" /> 
<circle cx="44750" cy="17750" r="265.748" /> 
<circle cx="60250" cy="16750" r="265.748" /> 
<circle cx="59400" cy="46400" r="265.748" /> 
<circle cx="51181.1" cy="41732.3" r="265.748" /> 
<circle cx="44881.9" cy="47244.1" r="265.748" /> 
<circle cx="50000" cy="26250" r="265.748" /> 
<circle cx="61750" cy="19750" r="265.748" /> 
<circle cx="42500" cy="23000" r="265.748" /> 
<circle cx="44000" cy="20000" r="265.748" /> 
<circle cx="47750" cy="20000" r="265.748" /> 
<circle cx="42500" cy="34500" r="265.748" /> 
<circle cx="61750" cy="44500" r="265.748" /> 
<circle cx="40250" cy="42750" r="265.748" /> 
<circle cx="40250" cy="40750" r="265.748" /> 
<circle cx="44750" cy="16500" r="265.748" /> 
<circle cx="51500" cy="26500" r="265.748" /> 
<circle cx="39000" cy="38250" r="265.748" /> 
<circle cx="37750" cy="32750" r="265.748" /> 
<circle cx="53250" cy="34000" r="265.748" /> 
<circle cx="52200" cy="35050" r="265.748" /> 
<circle cx="65500" cy="48000" r="265.748" /> 
<circle cx="65250" cy="41000" r="265.748" /> 
<circle cx="49850" cy="30000" r="265.748" /> 
<circle cx="53250" cy="30000" r="265.748" /> 
<circle cx="49850" cy="40850" r="265.748" /> 
<circle cx="64250" cy="18500" r="265.748" /> 
<circle cx="65250" cy="28500" r="265.748" /> 
<circle cx="36750" cy="16000" r="265.748" /> 
<circle cx="33000" cy="29000" r="265.748" /> 
</g>
<g style="fill:#000000; fill-opacity:1.0; 
stroke:#000000; stroke-width:196.85; stroke-opacity:1; 
stroke-linecap:round; stroke-linejoin:round;">
<path d="M22800 32525
L24525 32525
" />
<path d="M24525 32525
L25964 33964
" />
<path d="M44000 26750
L44761 26750
" />
<path d="M36000 26750
L43500 26750
" />
<path d="M43500 26750
L44000 26750
" />
<path d="M44761 26750
L46061 28049
" />
<path d="M34750 30750
L35000 31000
" />
<path d="M36000 26750
L34750 28000
" />
<path d="M34750 30500
L34750 30750
" />
<path d="M34750 30500
L34750 28000
" />
<path d="M35000 31000
L35500 31000
" />
<path d="M36000 26750
L29250 26750
" />
<path d="M29250 26750
L28500 27500
" />
<path d="M28000 31500
L25964 33535
" />
<path d="M25964 33535
L25964 33964
" />
<path d="M28500 27500
L28000 28000
" />
<path d="M28000 28000
L28000 31500
" />
<path d="M31500 18475
L33152 18475
" />
<path d="M33152 18475
L34625 19948
" />
<path d="M45250 26250
L45261 26250
" />
<path d="M45261 26250
L46061 27049
" />
<path d="M44250 26250
L45250 26250
" />
<path d="M44250 26250
L36750 26250
" />
<path d="M34750 24250
L36750 26250
" />
<path d="M34750 20072
L34625 19948
" />
<path d="M34750 24250
L34750 20072
" />
<path d="M46061 26049
L46061 26038
" />
<path d="M65000 21500
L65500 21000
" />
<path d="M65500 21000
L65500 18011
" />
<path d="M65500 18011
L65755 17755
" />
<path d="M58500 21000
L59000 21500
" />
<path d="M50500 21000
L58500 21000
" />
<path d="M50250 21000
L50500 21000
" />
<path d="M49000 21000
L47000 23000
" />
<path d="M50250 21000
L49000 21000
" />
<path d="M59000 21500
L65000 21500
" />
<path d="M47000 25100
L47000 23000
" />
<path d="M46061 26038
L47000 25100
" />
<path d="M65755 17755
L65750 17761
" />
<path d="M67500 16011
L65755 17755
" />
<path d="M65750 17761
L65755 17755
" />
<path d="M69875 23500
L69875 18386
" />
<path d="M69875 18386
L67500 16011
" />
<path d="M67500 42500
L67500 44043
" />
<path d="M69000 41000
L69100 40900
" />
<path d="M67500 42500
L69000 41000
" />
<path d="M48500 42500
L67125 42500
" />
<path d="M47250 41250
L48500 42500
" />
<path d="M67125 42500
L67500 42500
" />
<path d="M69100 40525
L69125 40500
" />
<path d="M69100 40900
L69100 40525
" />
<path d="M31600 46475
L33120 46475
" />
<path d="M33120 46475
L34625 47980
" />
<path d="M39750 37500
L39750 38750
" />
<path d="M39750 38750
L37750 40750
" />
<path d="M36000 47750
L34856 47750
" />
<path d="M34856 47750
L34625 47980
" />
<path d="M34625 47980
L34625 47374
" />
<path d="M37250 31000
L37250 31750
" />
<path d="M36750 35750
L37250 35250
" />
<path d="M37250 35250
L37250 33500
" />
<path d="M37250 32500
L37250 33500
" />
<path d="M35250 35750
L33464 33964
" />
<path d="M33464 33964
L29901 33964
" />
<path d="M35250 35750
L36750 35750
" />
<path d="M37250 32500
L37250 31750
" />
<path d="M38000 31000
L43250 31000
" />
<path d="M37500 31000
L37250 31000
" />
<path d="M37250 31000
L36500 31000
" />
<path d="M37500 31000
L38000 31000
" />
<path d="M38562 19948
L38000 20511
" />
<path d="M35500 23500
L38000 21000
" />
<path d="M38000 21000
L38000 20511
" />
<path d="M34250 27500
L34250 32000
" />
<path d="M46061 32049
L44200 32049
" />
<path d="M44200 32049
L39750 36500
" />
<path d="M46011 32000
L46061 32049
" />
<path d="M48500 20500
L46750 22250
" />
<path d="M46750 22250
L46000 23000
" />
<path d="M50000 20500
L48500 20500
" />
<path d="M50000 20500
L59000 20500
" />
<path d="M59000 20500
L59250 20750
" />
<path d="M63562 16011
L63562 17937
" />
<path d="M63500 18000
L63562 17937
" />
<path d="M44200 31300
L44500 31000
" />
<path d="M38750 32000
L37750 32000
" />
<path d="M43500 32000
L38750 32000
" />
<path d="M44200 31300
L43500 32000
" />
<path d="M44500 31000
L45250 31000
" />
<path d="M45250 31000
L45300 31000
" />
<path d="M45300 31000
L46011 31000
" />
<path d="M46011 31000
L46061 31049
" />
<path d="M40250 30049
L40250 30050
" />
<path d="M46061 30049
L40750 30049
" />
<path d="M40750 30049
L40700 30049
" />
<path d="M40700 30049
L40250 30049
" />
<path d="M63562 44043
L62519 43000
" />
<path d="M48750 43000
L61000 43000
" />
<path d="M61000 43000
L62519 43000
" />
<path d="M48000 43000
L48750 43000
" />
<path d="M48000 43000
L46250 41250
" />
<path d="M34000 35500
L34500 36000
" />
<path d="M34500 36000
L34500 39000
" />
<path d="M36750 46250
L36750 43750
" />
<path d="M36750 46250
L38480 47980
" />
<path d="M38562 47980
L38480 47980
" />
<path d="M50000 36450
L50200 36250
" />
<path d="M50000 37125
L50000 36450
" />
<path d="M50500 34250
L50500 34000
" />
<path d="M50500 34500
L50500 34250
" />
<path d="M50500 36250
L50200 36250
" />
<path d="M49924 37049
L48061 37049
" />
<path d="M46061 37049
L48061 37049
" />
<path d="M48061 37049
L47950 37049
" />
<path d="M50500 34000
L50750 33750
" />
<path d="M50750 33750
L50750 33078
" />
<path d="M50750 33078
L50765 33062
" />
<path d="M50273 33773
L50273 33062
" />
<path d="M50500 34000
L50273 33773
" />
<path d="M48061 37049
L48110 37000
" />
<path d="M51000 30031
L51000 29650
" />
<path d="M50750 29400
L50750 28875
" />
<path d="M51000 29650
L50750 29400
" />
<path d="M48061 34049
L48450 34049
" />
<path d="M50765 31334
L50765 30937
" />
<path d="M50500 31600
L50765 31334
" />
<path d="M49400 31600
L50500 31600
" />
<path d="M48800 32200
L49400 31600
" />
<path d="M48800 33700
L48800 32200
" />
<path d="M48450 34049
L48800 33700
" />
<path d="M46061 34049
L48061 34049
" />
<path d="M50765 28890
L50750 28875
" />
<path d="M50765 30937
L50765 30265
" />
<path d="M50765 30265
L51000 30031
" />
<path d="M51000 30031
L51031 30031
" />
<path d="M51031 30031
L51257 30257
" />
<path d="M51257 30257
L51257 30937
" />
<path d="M45000 38750
L45761 38750
" />
<path d="M41765 39034
L42050 38750
" />
<path d="M42050 38750
L45000 38750
" />
<path d="M41765 39562
L41765 39034
" />
<path d="M45761 38750
L46061 39049
" />
<path d="M46011 39000
L46061 39049
" />
<path d="M41875 40750
L41875 40275
" />
<path d="M41765 40165
L41765 39562
" />
<path d="M41875 40275
L41765 40165
" />
<path d="M45007 38242
L45868 38242
" />
<path d="M42257 37907
L42592 38242
" />
<path d="M42592 38242
L45007 38242
" />
<path d="M42257 37437
L42257 37907
" />
<path d="M45868 38242
L46061 38049
" />
<path d="M42257 37437
L42257 36842
" />
<path d="M42375 36725
L42375 36000
" />
<path d="M42257 36842
L42375 36725
" />
<path d="M46011 38000
L46061 38049
" />
<path d="M22800 31775
L24217 31775
" />
<path d="M24217 31775
L25964 30027
" />
</g>
<g style="fill:#000000; fill-opacity:1.0; 
stroke:#000000; stroke-width:393.701; stroke-opacity:1; 
stroke-linecap:round; stroke-linejoin:round;">
<path d="M25964 29964
L25964 30027
" />
<path d="M25964 29964
L24500 28500
" />
<path d="M24500 28500
L24500 27500
" />
</g>
<g style="fill:#000000; fill-opacity:1.0; 
stroke:#000000; stroke-width:196.85; stroke-opacity:1; 
stroke-linecap:round; stroke-linejoin:round;">
<path d="M31600 45725
L32944 45725
" />
<path d="M32944 45725
L34625 44043
" />
<path d="M31500 17725
L32912 17725
" />
<path d="M32912 17725
L34625 16011
" />
</g>
<g style="fill:#000000; fill-opacity:1.0; 
stroke:#000000; stroke-width:393.701; stroke-opacity:1; 
stroke-linecap:round; stroke-linejoin:round;">
<path d="M33443 44043
L32400 43000
" />
<path d="M33443 44043
L34625 44043
" />
<path d="M37850 39300
L37100 40050
" />
<path d="M37850 34650
L37850 39300
" />
</g>
<g style="fill:#000000; fill-opacity:1.0; 
stroke:#000000; stroke-width:196.85; stroke-opacity:1; 
stroke-linecap:round; stroke-linejoin:round;">
<path d="M69875 37025
L68459 37025
" />
<path d="M68459 37025
L68440 37005
" />
<path d="M69875 38440
L69875 37025
" />
<path d="M69875 40500
L69875 38440
" />
<path d="M70500 27500
L70000 27000
" />
<path d="M70500 35750
L70500 27500
" />
<path d="M69625 27000
L69500 27125
" />
<path d="M70000 27000
L69625 27000
" />
<path d="M70500 36400
L70500 35750
" />
<path d="M69875 37025
L70500 36400
" />
</g>
<g style="fill:#000000; fill-opacity:1.0; 
stroke:#000000; stroke-width:393.701; stroke-opacity:1; 
stroke-linecap:round; stroke-linejoin:round;">
<path d="M66700 23000
L68037 23000
" />
<path d="M66000 23000
L66700 23000
" />
<path d="M67950 23050
L68037 23050
" />
<path d="M67987 23050
L67950 23050
" />
<path d="M68037 23000
L67987 23050
" />
</g>
<g style="fill:#000000; fill-opacity:1.0; 
stroke:#000000; stroke-width:196.85; stroke-opacity:1; 
stroke-linecap:round; stroke-linejoin:round;">
<path d="M52250 38750
L52250 38150
" />
<path d="M51975 37875
L51500 37875
" />
<path d="M52250 38150
L51975 37875
" />
<path d="M50000 37875
L51500 37875
" />
<path d="M69125 23500
L68037 23500
" />
<path d="M44000 40500
L43500 41000
" />
<path d="M44226 39562
L44226 40273
" />
<path d="M44226 40273
L44000 40500
" />
<path d="M43500 41000
L42750 41000
" />
</g>
<g style="fill:#000000; fill-opacity:1.0; 
stroke:#000000; stroke-width:393.701; stroke-opacity:1; 
stroke-linecap:round; stroke-linejoin:round;">
<path d="M68037 25037
L68037 25162
" />
<path d="M46061 24049
L45749 24049
" />
</g>
<g style="fill:#000000; fill-opacity:1.0; 
stroke:#000000; stroke-width:196.85; stroke-opacity:1; 
stroke-linecap:round; stroke-linejoin:round;">
<path d="M45147 18897
L43682 18897
" />
<path d="M45147 18897
L45250 19000
" />
</g>
<g style="fill:#000000; fill-opacity:1.0; 
stroke:#000000; stroke-width:393.701; stroke-opacity:1; 
stroke-linecap:round; stroke-linejoin:round;">
<path d="M45250 23550
L45250 19000
" />
<path d="M45749 24049
L45250 23550
" />
</g>
<g style="fill:#000000; fill-opacity:1.0; 
stroke:#000000; stroke-width:196.85; stroke-opacity:1; 
stroke-linecap:round; stroke-linejoin:round;">
<path d="M53226 33062
L55062 33062
" />
<path d="M55500 33500
L55500 33900
" />
<path d="M55062 33062
L55500 33500
" />
</g>
<g style="fill:#000000; fill-opacity:1.0; 
stroke:#000000; stroke-width:393.701; stroke-opacity:1; 
stroke-linecap:round; stroke-linejoin:round;">
<path d="M46011 24000
L46061 24049
" />
</g>
<g style="fill:#000000; fill-opacity:1.0; 
stroke:#000000; stroke-width:196.85; stroke-opacity:1; 
stroke-linecap:round; stroke-linejoin:round;">
<path d="M69500 27125
L68125 27125
" />
<path d="M68125 27125
L68037 27212
" />
</g>
<g style="fill:#000000; fill-opacity:1.0; 
stroke:#000000; stroke-width:393.701; stroke-opacity:1; 
stroke-linecap:round; stroke-linejoin:round;">
<path d="M67500 47980
L67500 48250
" />
<path d="M67500 48250
L69500 50250
" />
<path d="M34625 16011
L34625 15875
" />
<path d="M34625 15875
L32500 13750
" />
<path d="M68037 27212
L68037 25200
" />
<path d="M68037 25200
L68037 24337
" />
<path d="M68037 24337
L68037 23500
" />
<path d="M68037 23500
L68037 23050
" />
<path d="M68037 23050
L68037 22750
" />
<path d="M68037 22750
L68037 22500
" />
<path d="M68037 22500
L68037 20486
" />
<path d="M68037 20486
L67500 19948
" />
</g>
<g style="fill:#000000; fill-opacity:1.0; 
stroke:#000000; stroke-width:196.85; stroke-opacity:1; 
stroke-linecap:round; stroke-linejoin:round;">
<path d="M69875 40500
L69875 45605
" />
<path d="M69875 45605
L67500 47980
" />
</g>
<g style="fill:#000000; fill-opacity:1.0; 
stroke:#000000; stroke-width:393.701; stroke-opacity:1; 
stroke-linecap:round; stroke-linejoin:round;">
<path d="M62500 34519
L62500 37750
" />
<path d="M34625 44043
L34625 43875
" />
</g>
<g style="fill:#000000; fill-opacity:1.0; 
stroke:#000000; stroke-width:196.85; stroke-opacity:1; 
stroke-linecap:round; stroke-linejoin:round;">
<path d="M50750 28125
L51125 28125
" />
<path d="M51125 28125
L51750 27500
" />
<path d="M43682 44881
L44618 44881
" />
<path d="M44618 44881
L44750 44750
" />
<path d="M58500 28125
L58500 27250
" />
<path d="M57000 33900
L57000 34500
" />
<path d="M57000 34500
L56750 34750
" />
<path d="M56500 34500
L56750 34750
" />
<path d="M56500 34500
L56500 33900
" />
<path d="M56000 33900
L56000 34500
" />
<path d="M55500 34500
L55750 34750
" />
<path d="M55500 34500
L55500 33900
" />
<path d="M56000 34500
L55750 34750
" />
<path d="M56500 30100
L56500 29500
" />
<path d="M56500 29500
L56750 29250
" />
<path d="M56000 30100
L56000 29500
" />
<path d="M56000 29500
L55750 29250
" />
<path d="M55500 30100
L55500 29500
" />
<path d="M57000 29500
L57000 30100
" />
<path d="M56750 29250
L57000 29500
" />
<path d="M55500 29500
L55750 29250
" />
</g>
<g style="fill:#000000; fill-opacity:1.0; 
stroke:#000000; stroke-width:393.701; stroke-opacity:1; 
stroke-linecap:round; stroke-linejoin:round;">
<path d="M68043 27230
L68051 27222
" />
<path d="M55000 34750
L55000 34500
" />
<path d="M55000 34750
L54500 35250
" />
</g>
<g style="fill:#000000; fill-opacity:1.0; 
stroke:#000000; stroke-width:196.85; stroke-opacity:1; 
stroke-linecap:round; stroke-linejoin:round;">
<path d="M55000 33900
L55000 34500
" />
</g>
<g style="fill:#000000; fill-opacity:1.0; 
stroke:#000000; stroke-width:393.701; stroke-opacity:1; 
stroke-linecap:round; stroke-linejoin:round;">
<path d="M52962 35787
L52962 36287
" />
<path d="M53500 35250
L52962 35787
" />
<path d="M54500 35250
L53500 35250
" />
</g>
<g style="fill:#000000; fill-opacity:1.0; 
stroke:#000000; stroke-width:196.85; stroke-opacity:1; 
stroke-linecap:round; stroke-linejoin:round;">
<path d="M67574 29425
L66500 30500
" />
<path d="M67574 29007
L67574 29425
" />
<path d="M36500 30000
L37450 29050
" />
<path d="M46060 29050
L46061 29049
" />
<path d="M37450 29050
L46060 29050
" />
<path d="M67574 29007
L67942 29007
" />
<path d="M69075 27875
L69500 27875
" />
<path d="M67942 29007
L69075 27875
" />
<path d="M46061 29049
L48061 29049
" />
</g>
<g style="fill:#000000; fill-opacity:1.0; 
stroke:#000000; stroke-width:393.701; stroke-opacity:1; 
stroke-linecap:round; stroke-linejoin:round;">
<path d="M57500 34500
L57500 35100
" />
</g>
<g style="fill:#000000; fill-opacity:1.0; 
stroke:#000000; stroke-width:196.85; stroke-opacity:1; 
stroke-linecap:round; stroke-linejoin:round;">
<path d="M57500 33900
L57500 34500
" />
</g>
<g style="fill:#000000; fill-opacity:1.0; 
stroke:#000000; stroke-width:393.701; stroke-opacity:1; 
stroke-linecap:round; stroke-linejoin:round;">
<path d="M56312 36287
L53962 36287
" />
<path d="M57500 35100
L56312 36287
" />
</g>
<g style="fill:#000000; fill-opacity:1.0; 
stroke:#000000; stroke-width:196.85; stroke-opacity:1; 
stroke-linecap:round; stroke-linejoin:round;">
<path d="M51500 34500
L51500 34000
" />
<path d="M43866 46062
L44881 46062
" />
<path d="M54000 34750
L52750 34750
" />
<path d="M54500 33900
L54500 34250
" />
<path d="M54500 34250
L54000 34750
" />
<path d="M52750 34750
L52000 34000
" />
<path d="M51750 33750
L51500 34000
" />
<path d="M51250 33750
L51250 33062
" />
<path d="M51500 34000
L51250 33750
" />
<path d="M51750 33062
L51750 33750
" />
<path d="M52242 33757
L52242 33062
" />
<path d="M52000 34000
L52242 33757
" />
<path d="M51750 33750
L52000 34000
" />
</g>
<g style="fill:#000000; fill-opacity:1.0; 
stroke:#000000; stroke-width:393.701; stroke-opacity:1; 
stroke-linecap:round; stroke-linejoin:round;">
<path d="M57500 29500
L57500 28500
" />
</g>
<g style="fill:#000000; fill-opacity:1.0; 
stroke:#000000; stroke-width:196.85; stroke-opacity:1; 
stroke-linecap:round; stroke-linejoin:round;">
<path d="M57500 30100
L57500 29500
" />
</g>
<g style="fill:#000000; fill-opacity:1.0; 
stroke:#000000; stroke-width:393.701; stroke-opacity:1; 
stroke-linecap:round; stroke-linejoin:round;">
<path d="M56787 27787
L53962 27787
" />
<path d="M57500 28500
L56787 27787
" />
<path d="M55000 29500
L55000 29200
" />
</g>
<g style="fill:#000000; fill-opacity:1.0; 
stroke:#000000; stroke-width:196.85; stroke-opacity:1; 
stroke-linecap:round; stroke-linejoin:round;">
<path d="M55000 30100
L55000 29500
" />
</g>
<g style="fill:#000000; fill-opacity:1.0; 
stroke:#000000; stroke-width:393.701; stroke-opacity:1; 
stroke-linecap:round; stroke-linejoin:round;">
<path d="M52962 28262
L52962 27787
" />
<path d="M53400 28700
L52962 28262
" />
<path d="M54500 28700
L53400 28700
" />
<path d="M55000 29200
L54500 28700
" />
</g>
<g style="fill:#000000; fill-opacity:1.0; 
stroke:#000000; stroke-width:196.85; stroke-opacity:1; 
stroke-linecap:round; stroke-linejoin:round;">
<path d="M52500 30000
L52500 29500
" />
<path d="M52500 29500
L52750 29250
" />
<path d="M52750 29250
L54200 29250
" />
<path d="M54500 30100
L54500 29550
" />
<path d="M54500 29550
L54200 29250
" />
<path d="M52500 29500
L52000 29000
" />
<path d="M51500 28500
L52000 29000
" />
<path d="M44750 17750
L44716 17716
" />
<path d="M44716 17716
L43866 17716
" />
<path d="M52250 30250
L52500 30000
" />
<path d="M52500 30000
L52734 30234
" />
<path d="M51750 30250
L52000 30000
" />
<path d="M51750 30937
L51750 30250
" />
<path d="M52250 30929
L52242 30937
" />
<path d="M52250 30250
L52250 30929
" />
<path d="M52000 30000
L52250 30250
" />
<path d="M52734 30250
L52734 30937
" />
<path d="M60250 17625
L60250 16750
" />
<path d="M59400 46400
L59425 46375
" />
<path d="M59425 46375
L60250 46375
" />
<path d="M53000 39913
L53000 39900
" />
<path d="M53000 39913
L51181 41732
" />
<path d="M43866 47244
L44881 47244
" />
<path d="M58000 36500
L58000 36750
" />
<path d="M58000 36500
L58000 33900
" />
<path d="M58000 36750
L56750 38000
" />
<path d="M54900 38000
L56750 38000
" />
<path d="M53000 39900
L54900 38000
" />
<path d="M52734 33062
L52734 32565
" />
<path d="M58000 32900
L58000 33900
" />
<path d="M57400 32300
L58000 32900
" />
<path d="M53000 32300
L57400 32300
" />
<path d="M52734 32565
L53000 32300
" />
<path d="M48061 31049
L48061 30938
" />
<path d="M50000 29000
L48750 30250
" />
<path d="M50000 28000
L50000 29000
" />
<path d="M50000 28000
L50000 26250
" />
<path d="M48250 30750
L48750 30250
" />
<path d="M48061 30938
L48250 30750
" />
<path d="M68440 38123
L67498 38123
" />
<path d="M67498 38123
L67250 37875
" />
<path d="M60226 19488
L61500 19500
" />
<path d="M61500 19500
L61750 19750
" />
<path d="M42000 35000
L42500 34500
" />
<path d="M41625 35375
L42000 35000
" />
<path d="M42500 23000
L42500 21500
" />
<path d="M42500 21500
L44000 20000
" />
<path d="M58051 19980
L47769 19980
" />
<path d="M47750 20000
L47769 19980
" />
<path d="M41625 35375
L41625 36000
" />
<path d="M41765 37437
L41765 36815
" />
<path d="M41765 36815
L41625 36675
" />
<path d="M41625 36675
L41625 36000
" />
<path d="M58051 19980
L58019 19980
" />
<path d="M58051 19980
L59019 19980
" />
<path d="M59019 19980
L59511 19488
" />
<path d="M59511 19488
L60226 19488
" />
<path d="M58051 43980
L58051 43500
" />
<path d="M58051 43500
L58050 43500
" />
<path d="M41125 40750
L41125 40225
" />
<path d="M41273 40076
L41273 39562
" />
<path d="M41125 40225
L41273 40076
" />
<path d="M57750 43500
L58050 43500
" />
<path d="M58050 43500
L60750 43500
" />
<path d="M61250 44000
L61750 44500
" />
<path d="M60750 43500
L61250 44000
" />
<path d="M57750 43500
L47250 43500
" />
<path d="M41125 40750
L40250 40750
" />
<path d="M46500 42750
L40250 42750
" />
<path d="M47250 43500
L46500 42750
" />
<path d="M42748 47244
L42748 46062
" />
<path d="M42748 46062
L42932 45878
" />
<path d="M42932 45878
L42932 44881
" />
<path d="M42748 16535
L42748 17716
" />
<path d="M42748 17716
L42932 17900
" />
<path d="M42932 17900
L42932 18897
" />
<path d="M42748 16535
L42748 16476
" />
<path d="M53226 30937
L57662 30937
" />
<path d="M58000 30600
L58000 30100
" />
<path d="M57662 30937
L58000 30600
" />
<path d="M58000 30100
L58000 27750
" />
<path d="M44714 16535
L43866 16535
" />
<path d="M44750 16500
L44714 16535
" />
<path d="M56750 26500
L51500 26500
" />
<path d="M58000 27750
L56750 26500
" />
<path d="M39000 34000
L39000 38250
" />
<path d="M37750 32750
L39000 34000
" />
<path d="M50000 35750
L48360 35750
" />
<path d="M51500 35750
L50000 35750
" />
<path d="M48360 35750
L48061 36049
" />
<path d="M52000 35250
L52200 35050
" />
<path d="M53750 33900
L53650 34000
" />
<path d="M53650 34000
L53250 34000
" />
<path d="M53750 33900
L54000 33900
" />
<path d="M46061 36049
L48061 36049
" />
<path d="M51500 37125
L51500 35750
" />
<path d="M51500 35750
L52000 35250
" />
<path d="M51750 35500
L52000 35250
" />
<path d="M48061 35049
L48550 35049
" />
<path d="M58500 30900
L58500 30100
" />
<path d="M57800 31600
L58500 30900
" />
<path d="M51200 31600
L57800 31600
" />
<path d="M50700 32100
L51200 31600
" />
<path d="M49700 32100
L50700 32100
" />
<path d="M49300 32500
L49700 32100
" />
<path d="M49300 34300
L49300 32500
" />
<path d="M48550 35049
L49300 34300
" />
<path d="M46061 35049
L48061 35049
" />
<path d="M58500 30100
L58500 28875
" />
</g>
<g style="fill:#000000; fill-opacity:1.0; 
stroke:#000000; stroke-width:393.701; stroke-opacity:1; 
stroke-linecap:round; stroke-linejoin:round;">
<path d="M36250 41750
L32150 41750
" />
<path d="M27950 35100
L27950 32850
" />
<path d="M27950 32850
L29901 30898
" />
<path d="M29901 30027
L29901 30898
" />
<path d="M36250 41750
L37650 41750
" />
<path d="M27950 37550
L27950 35100
" />
<path d="M32150 41750
L27950 37550
" />
<path d="M42000 15500
L39074 15500
" />
<path d="M42000 15500
L45500 15500
" />
<path d="M45500 15500
L45750 15750
" />
<path d="M59000 19000
L58750 19250
" />
<path d="M58750 19250
L49250 19250
" />
<path d="M49250 19250
L45750 15750
" />
<path d="M60250 19000
L59250 19000
" />
<path d="M59250 19000
L59000 19000
" />
<path d="M39074 15500
L38562 16011
" />
<path d="M65250 39250
L65250 40000
" />
<path d="M63562 47980
L65480 47980
" />
<path d="M65500 48000
L65480 47980
" />
<path d="M65250 39250
L65250 37250
" />
<path d="M65250 41000
L65250 40000
" />
</g>
<g style="fill:#000000; fill-opacity:1.0; 
stroke:#000000; stroke-width:196.85; stroke-opacity:1; 
stroke-linecap:round; stroke-linejoin:round;">
<path d="M50273 30937
L50273 30423
" />
<path d="M50273 30423
L49850 30000
" />
<path d="M53350 30100
L54000 30100
" />
<path d="M53350 30100
L53250 30000
" />
<path d="M46949 40049
L47750 40850
" />
<path d="M46061 40049
L46949 40049
" />
<path d="M47750 40850
L49850 40850
" />
<path d="M50273 30937
L50250 30913
" />
</g>
<g style="fill:#000000; fill-opacity:1.0; 
stroke:#000000; stroke-width:393.701; stroke-opacity:1; 
stroke-linecap:round; stroke-linejoin:round;">
<path d="M57250 44250
L47000 44250
" />
<path d="M57881 44881
L57250 44250
" />
<path d="M58000 44881
L57881 44881
" />
<path d="M39106 43500
L38562 44043
" />
<path d="M46250 43500
L39106 43500
" />
<path d="M47000 44250
L46250 43500
" />
</g>
<g style="fill:#000000; fill-opacity:1.0; 
stroke:#000000; stroke-width:196.85; stroke-opacity:1; 
stroke-linecap:round; stroke-linejoin:round;">
<path d="M41273 37437
L41273 38273
" />
<path d="M37652 41747
L37650 41750
" />
<path d="M37800 41747
L37652 41747
" />
<path d="M41273 38273
L37800 41747
" />
<path d="M60226 44858
L60226 45601
" />
<path d="M60226 45601
L60250 45625
" />
<path d="M69543 29007
L69023 29007
" />
<path d="M66535 31496
L65250 31496
" />
<path d="M69023 29007
L66535 31496
" />
</g>
<g style="fill:#000000; fill-opacity:1.0; 
stroke:#000000; stroke-width:393.701; stroke-opacity:1; 
stroke-linecap:round; stroke-linejoin:round;">
<path d="M46061 40049
L45200 40049
" />
<path d="M43500 41750
L44000 41250
" />
<path d="M45200 40049
L44000 41250
" />
<path d="M40500 41750
L39500 41750
" />
<path d="M42250 41750
L40500 41750
" />
<path d="M42250 41750
L43500 41750
" />
<path d="M37650 41750
L38750 41750
" />
<path d="M39500 41750
L38750 41750
" />
<path d="M63562 19187
L63562 19948
" />
<path d="M64250 18500
L63562 19187
" />
<path d="M65250 28500
L65250 31496
" />
<path d="M65250 31496
L65250 37250
" />
</g>
<g style="fill:#000000; fill-opacity:1.0; 
stroke:#000000; stroke-width:196.85; stroke-opacity:1; 
stroke-linecap:round; stroke-linejoin:round;">
<path d="M65250 37125
L65250 37250
" />
<path d="M67250 37125
L65250 37125
" />
<path d="M69543 29206
L69543 29007
" />
</g>
<g style="fill:#000000; fill-opacity:1.0; 
stroke:#000000; stroke-width:393.701; stroke-opacity:1; 
stroke-linecap:round; stroke-linejoin:round;">
<path d="M38562 16011
L36761 16011
" />
<path d="M36761 16011
L36750 16000
" />
<path d="M63562 47980
L63562 47937
" />
<path d="M31472 30027
L31972 30027
" />
<path d="M29901 30027
L31472 30027
" />
<path d="M31972 30027
L33000 29000
" />
</g>
<g style="fill:#000000; fill-opacity:1.0; 
stroke:#000000; stroke-width:196.85; stroke-opacity:1; 
stroke-linecap:round; stroke-linejoin:round;">
<path d="M60226 44858
L60226 44472
" />
<path d="M60250 44881
L60226 44858
" />
</g>
<g style="fill:#000000; fill-opacity:1.0; 
stroke:#000000; stroke-width:393.701; stroke-opacity:1; 
stroke-linecap:round; stroke-linejoin:round;">
<path d="M63562 47421
L63562 47980
" />
<path d="M61023 44881
L63562 47421
" />
<path d="M58000 44881
L61023 44881
" />
<path d="M57874 44881
L58000 44881
" />
</g>
<g style="fill:#000000; fill-opacity:1.0; 
stroke:#000000; stroke-width:196.85; stroke-opacity:1; 
stroke-linecap:round; stroke-linejoin:round;">
<path d="M60250 19000
L60250 18375
" />
</g>
<g style="fill:#000000; fill-opacity:1.0; 
stroke:#000000; stroke-width:393.701; stroke-opacity:1; 
stroke-linecap:round; stroke-linejoin:round;">
<path d="M62614 19000
L63562 19948
" />
<path d="M60250 19000
L62614 19000
" />
<path d="M63562 19948
L62948 19948
" />
<path d="M38562 16011
L38488 16011
" />
</g>
<g style="fill:#000000; fill-opacity:1.0; 
stroke:#000000; stroke-width:196.85; stroke-opacity:1; 
stroke-linecap:round; stroke-linejoin:round;">
<path d="M60226 20472
L63039 20472
" />
<path d="M63039 20472
L63562 19948
" />
</g>
<g style="fill:#000000; fill-opacity:1.0; 
stroke:#000000; stroke-width:393.701; stroke-opacity:1; 
stroke-linecap:round; stroke-linejoin:round;">
<path d="M58500 32700
L58500 33200
" />
<path d="M58500 32400
L58500 32700
" />
<path d="M58500 32400
L59500 31400
" />
</g>
<g style="fill:#000000; fill-opacity:1.0; 
stroke:#000000; stroke-width:196.85; stroke-opacity:1; 
stroke-linecap:round; stroke-linejoin:round;">
<path d="M58500 33900
L58500 33200
" />
</g>
<g style="fill:#000000; fill-opacity:1.0; 
stroke:#000000; stroke-width:393.701; stroke-opacity:1; 
stroke-linecap:round; stroke-linejoin:round;">
<path d="M59500 31400
L59500 29500
" />
<path d="M48250 23000
L48050 23200
" />
<path d="M59500 23000
L59500 29500
" />
<path d="M59519 29519
L59500 29500
" />
<path d="M58250 21750
L50360 21750
" />
<path d="M58250 21750
L59500 23000
" />
<path d="M49500 21750
L50360 21750
" />
<path d="M48250 23000
L49500 21750
" />
<path d="M48050 24038
L48061 24049
" />
<path d="M48050 23200
L48050 24038
" />
<path d="M67037 27212
L64807 27212
" />
<path d="M64807 27212
L62500 29519
" />
<path d="M59519 29519
L62500 29519
" />
</g> 
</svg>
