<?xml version="1.0" standalone="no"?>
 <!DOCTYPE svg PUBLIC "-//W3C//DTD SVG 1.1//EN" 
 "http://www.w3.org/Graphics/SVG/1.1/DTD/svg11.dtd"> 
<svg xmlns="http://www.w3.org/2000/svg" version="1.1" 
    width="29.7002cm" height="21.0007cm" viewBox="0 0 116930 82680 ">
<title>SVG Picture created as RoboplatformDIY-F_Mask.svg date 2015/10/27 07:17:37 </title>
  <desc>Picture generated by PCBNEW </desc>
<g style="fill:#000000; fill-opacity:1;stroke:#000000; stroke-opacity:1;
stroke-linecap:round; stroke-linejoin:round; "
 transform="translate(0 0) scale(1 1)">
</g>
<g style="fill:#000000; fill-opacity:0.0; 
stroke:#000000; stroke-width:59.0551; stroke-opacity:1; 
stroke-linecap:round; stroke-linejoin:round;">
</g>
<g style="fill:#000000; fill-opacity:1.0; 
stroke:#000000; stroke-width:59.0551; stroke-opacity:1; 
stroke-linecap:round; stroke-linejoin:round;">
<circle cx="57874" cy="14566.9" r="580.709" /> 
<polyline style="fill-rule:evenodd;"
points="50185,33328
50185,32797
50362,32797
50362,33328
50185,33328
" /> 
<polyline style="fill-rule:evenodd;"
points="50677,33328
50677,32797
50854,32797
50854,33328
50677,33328
" /> 
<polyline style="fill-rule:evenodd;"
points="51161,33328
51161,32797
51338,32797
51338,33328
51161,33328
" /> 
<polyline style="fill-rule:evenodd;"
points="51661,33328
51661,32797
51838,32797
51838,33328
51661,33328
" /> 
<polyline style="fill-rule:evenodd;"
points="52153,33328
52153,32797
52330,32797
52330,33328
52153,33328
" /> 
<polyline style="fill-rule:evenodd;"
points="52645,33328
52645,32797
52822,32797
52822,33328
52645,33328
" /> 
<polyline style="fill-rule:evenodd;"
points="53137,33328
53137,32797
53314,32797
53314,33328
53137,33328
" /> 
<polyline style="fill-rule:evenodd;"
points="53137,31202
53137,30671
53314,30671
53314,31202
53137,31202
" /> 
<polyline style="fill-rule:evenodd;"
points="52645,31202
52645,30671
52822,30671
52822,31202
52645,31202
" /> 
<polyline style="fill-rule:evenodd;"
points="52153,31202
52153,30671
52330,30671
52330,31202
52153,31202
" /> 
<polyline style="fill-rule:evenodd;"
points="51661,31202
51661,30671
51838,30671
51838,31202
51661,31202
" /> 
<polyline style="fill-rule:evenodd;"
points="51169,31202
51169,30671
51346,30671
51346,31202
51169,31202
" /> 
<polyline style="fill-rule:evenodd;"
points="50677,31202
50677,30671
50854,30671
50854,31202
50677,31202
" /> 
<polyline style="fill-rule:evenodd;"
points="50185,31202
50185,30671
50362,30671
50362,31202
50185,31202
" /> 
<polyline style="fill-rule:evenodd;"
points="58429,30320
58429,29879
58570,29879
58570,30320
58429,30320
" /> 
<polyline style="fill-rule:evenodd;"
points="57929,30320
57929,29879
58070,29879
58070,30320
57929,30320
" /> 
<polyline style="fill-rule:evenodd;"
points="57429,30320
57429,29879
57570,29879
57570,30320
57429,30320
" /> 
<polyline style="fill-rule:evenodd;"
points="56929,30320
56929,29879
57070,29879
57070,30320
56929,30320
" /> 
<polyline style="fill-rule:evenodd;"
points="56429,30320
56429,29879
56570,29879
56570,30320
56429,30320
" /> 
<polyline style="fill-rule:evenodd;"
points="55929,30320
55929,29879
56070,29879
56070,30320
55929,30320
" /> 
<polyline style="fill-rule:evenodd;"
points="55429,30320
55429,29879
55570,29879
55570,30320
55429,30320
" /> 
<polyline style="fill-rule:evenodd;"
points="54929,30320
54929,29879
55070,29879
55070,30320
54929,30320
" /> 
<polyline style="fill-rule:evenodd;"
points="54429,30320
54429,29879
54570,29879
54570,30320
54429,30320
" /> 
<polyline style="fill-rule:evenodd;"
points="53929,30320
53929,29879
54070,29879
54070,30320
53929,30320
" /> 
<polyline style="fill-rule:evenodd;"
points="53929,34120
53929,33679
54070,33679
54070,34120
53929,34120
" /> 
<polyline style="fill-rule:evenodd;"
points="54429,34120
54429,33679
54570,33679
54570,34120
54429,34120
" /> 
<polyline style="fill-rule:evenodd;"
points="54929,34120
54929,33679
55070,33679
55070,34120
54929,34120
" /> 
<polyline style="fill-rule:evenodd;"
points="55429,34120
55429,33679
55570,33679
55570,34120
55429,34120
" /> 
<polyline style="fill-rule:evenodd;"
points="55929,34120
55929,33679
56070,33679
56070,34120
55929,34120
" /> 
<polyline style="fill-rule:evenodd;"
points="56429,34120
56429,33679
56570,33679
56570,34120
56429,34120
" /> 
<polyline style="fill-rule:evenodd;"
points="56929,34120
56929,33679
57070,33679
57070,34120
56929,34120
" /> 
<polyline style="fill-rule:evenodd;"
points="57429,34120
57429,33679
57570,33679
57570,34120
57429,34120
" /> 
<polyline style="fill-rule:evenodd;"
points="57929,34120
57929,33679
58070,33679
58070,34120
57929,34120
" /> 
<polyline style="fill-rule:evenodd;"
points="58429,34120
58429,33679
58570,33679
58570,34120
58429,34120
" /> 
<polyline style="fill-rule:evenodd;"
points="51745,38020
51254,38020
51254,37729
51745,37729
51745,38020
" /> 
<polyline style="fill-rule:evenodd;"
points="51745,37270
51254,37270
51254,36979
51745,36979
51745,37270
" /> 
<polyline style="fill-rule:evenodd;"
points="31745,46620
31254,46620
31254,46329
31745,46329
31745,46620
" /> 
<polyline style="fill-rule:evenodd;"
points="31745,45870
31254,45870
31254,45579
31745,45579
31745,45870
" /> 
<polyline style="fill-rule:evenodd;"
points="23045,32670
22554,32670
22554,32379
23045,32379
23045,32670
" /> 
<polyline style="fill-rule:evenodd;"
points="23045,31920
22554,31920
22554,31629
23045,31629
23045,31920
" /> 
<polyline style="fill-rule:evenodd;"
points="31745,18620
31254,18620
31254,18329
31745,18329
31745,18620
" /> 
<polyline style="fill-rule:evenodd;"
points="31745,17870
31254,17870
31254,17579
31745,17579
31745,17870
" /> 
<polyline style="fill-rule:evenodd;"
points="58745,29020
58254,29020
58254,28729
58745,28729
58745,29020
" /> 
<polyline style="fill-rule:evenodd;"
points="58745,28270
58254,28270
58254,27979
58745,27979
58745,28270
" /> 
<polyline style="fill-rule:evenodd;"
points="50995,29020
50504,29020
50504,28729
50995,28729
50995,29020
" /> 
<polyline style="fill-rule:evenodd;"
points="50995,28270
50504,28270
50504,27979
50995,27979
50995,28270
" /> 
<polyline style="fill-rule:evenodd;"
points="43827,18652
43827,19143
43536,19143
43536,18652
43827,18652
" /> 
<polyline style="fill-rule:evenodd;"
points="43077,18652
43077,19143
42786,19143
42786,18652
43077,18652
" /> 
<polyline style="fill-rule:evenodd;"
points="70020,23254
70020,23745
69729,23745
69729,23254
70020,23254
" /> 
<polyline style="fill-rule:evenodd;"
points="69270,23254
69270,23745
68979,23745
68979,23254
69270,23254
" /> 
<polyline style="fill-rule:evenodd;"
points="49754,36979
50245,36979
50245,37270
49754,37270
49754,36979
" /> 
<polyline style="fill-rule:evenodd;"
points="49754,37729
50245,37729
50245,38020
49754,38020
49754,37729
" /> 
<polyline style="fill-rule:evenodd;"
points="43827,44636
43827,45127
43536,45127
43536,44636
43827,44636
" /> 
<polyline style="fill-rule:evenodd;"
points="43077,44636
43077,45127
42786,45127
42786,44636
43077,44636
" /> 
<polyline style="fill-rule:evenodd;"
points="68979,40745
68979,40254
69270,40254
69270,40745
68979,40745
" /> 
<polyline style="fill-rule:evenodd;"
points="69729,40745
69729,40254
70020,40254
70020,40745
69729,40745
" /> 
<polyline style="fill-rule:evenodd;"
points="67004,36979
67495,36979
67495,37270
67004,37270
67004,36979
" /> 
<polyline style="fill-rule:evenodd;"
points="67004,37729
67495,37729
67495,38020
67004,38020
67004,37729
" /> 
<polyline style="fill-rule:evenodd;"
points="69745,28020
69254,28020
69254,27729
69745,27729
69745,28020
" /> 
<polyline style="fill-rule:evenodd;"
points="69745,27270
69254,27270
69254,26979
69745,26979
69745,27270
" /> 
<circle cx="53962.6" cy="27787.4" r="324.803" /> 
<circle cx="52962.6" cy="27787.4" r="324.803" /> 
<circle cx="53962.6" cy="36287.4" r="324.803" /> 
<circle cx="52962.6" cy="36287.4" r="324.803" /> 
<polyline style="fill-rule:evenodd;"
points="44151,16210
44151,16860
43581,16860
43581,16210
44151,16210
" /> 
<polyline style="fill-rule:evenodd;"
points="43033,16210
43033,16860
42463,16860
42463,16210
43033,16210
" /> 
<polyline style="fill-rule:evenodd;"
points="44151,17391
44151,18041
43581,18041
43581,17391
44151,17391
" /> 
<polyline style="fill-rule:evenodd;"
points="43033,17391
43033,18041
42463,18041
42463,17391
43033,17391
" /> 
<polyline style="fill-rule:evenodd;"
points="44151,46919
44151,47569
43581,47569
43581,46919
44151,46919
" /> 
<polyline style="fill-rule:evenodd;"
points="43033,46919
43033,47569
42463,47569
42463,46919
43033,46919
" /> 
<polyline style="fill-rule:evenodd;"
points="44151,45738
44151,46387
43581,46387
43581,45738
44151,45738
" /> 
<polyline style="fill-rule:evenodd;"
points="43033,45738
43033,46387
42463,46387
42463,45738
43033,45738
" /> 
<polyline style="fill-rule:evenodd;"
points="68765,38408
68115,38408
68115,37838
68765,37838
68765,38408
" /> 
<polyline style="fill-rule:evenodd;"
points="68765,37290
68115,37290
68115,36720
68765,36720
68765,37290
" /> 
<polyline style="fill-rule:evenodd;"
points="41185,39828
41185,39297
41362,39297
41362,39828
41185,39828
" /> 
<polyline style="fill-rule:evenodd;"
points="41677,39828
41677,39297
41854,39297
41854,39828
41677,39828
" /> 
<polyline style="fill-rule:evenodd;"
points="42161,39828
42161,39297
42338,39297
42338,39828
42161,39828
" /> 
<polyline style="fill-rule:evenodd;"
points="42661,39828
42661,39297
42838,39297
42838,39828
42661,39828
" /> 
<polyline style="fill-rule:evenodd;"
points="43153,39828
43153,39297
43330,39297
43330,39828
43153,39828
" /> 
<polyline style="fill-rule:evenodd;"
points="43645,39828
43645,39297
43822,39297
43822,39828
43645,39828
" /> 
<polyline style="fill-rule:evenodd;"
points="44137,39828
44137,39297
44314,39297
44314,39828
44137,39828
" /> 
<polyline style="fill-rule:evenodd;"
points="44137,37702
44137,37171
44314,37171
44314,37702
44137,37702
" /> 
<polyline style="fill-rule:evenodd;"
points="43645,37702
43645,37171
43822,37171
43822,37702
43645,37702
" /> 
<polyline style="fill-rule:evenodd;"
points="43153,37702
43153,37171
43330,37171
43330,37702
43153,37702
" /> 
<polyline style="fill-rule:evenodd;"
points="42661,37702
42661,37171
42838,37171
42838,37702
42661,37702
" /> 
<polyline style="fill-rule:evenodd;"
points="42169,37702
42169,37171
42346,37171
42346,37702
42169,37702
" /> 
<polyline style="fill-rule:evenodd;"
points="41677,37702
41677,37171
41854,37171
41854,37702
41677,37702
" /> 
<polyline style="fill-rule:evenodd;"
points="41185,37702
41185,37171
41362,37171
41362,37702
41185,37702
" /> 
<polyline style="fill-rule:evenodd;"
points="60004,45479
60495,45479
60495,45770
60004,45770
60004,45479
" /> 
<polyline style="fill-rule:evenodd;"
points="60004,46229
60495,46229
60495,46520
60004,46520
60004,46229
" /> 
<polyline style="fill-rule:evenodd;"
points="60495,18520
60004,18520
60004,18229
60495,18229
60495,18520
" /> 
<polyline style="fill-rule:evenodd;"
points="60495,17770
60004,17770
60004,17479
60495,17479
60495,17770
" /> 
<polyline style="fill-rule:evenodd;"
points="41479,36245
41479,35754
41770,35754
41770,36245
41479,36245
" /> 
<polyline style="fill-rule:evenodd;"
points="42229,36245
42229,35754
42520,35754
42520,36245
42229,36245
" /> 
<polyline style="fill-rule:evenodd;"
points="42020,40504
42020,40995
41729,40995
41729,40504
42020,40504
" /> 
<polyline style="fill-rule:evenodd;"
points="41270,40504
41270,40995
40979,40995
40979,40504
41270,40504
" /> 
<circle cx="62500" cy="29519.7" r="1938.98" /> 
<circle cx="62500" cy="34519.7" r="1938.98" /> 
<polyline style="fill-rule:evenodd;"
points="67309,29372
67309,28643
67840,28643
67840,29372
67309,29372
" /> 
<polyline style="fill-rule:evenodd;"
points="69277,29372
69277,28643
69809,28643
69809,29372
69277,29372
" /> 
<polyline style="fill-rule:evenodd;"
points="67309,35474
67309,34746
67840,34746
67840,35474
67309,35474
" /> 
<polyline style="fill-rule:evenodd;"
points="69277,35474
69277,34746
69809,34746
69809,35474
69277,35474
" /> 
<polyline style="fill-rule:evenodd;"
points="58297,20108
57805,20108
57805,19852
58297,19852
58297,20108
" /> 
<polyline style="fill-rule:evenodd;"
points="60472,20600
59980,20600
59980,20344
60472,20344
60472,20600
" /> 
<polyline style="fill-rule:evenodd;"
points="60472,19616
59980,19616
59980,19360
60472,19360
60472,19616
" /> 
<polyline style="fill-rule:evenodd;"
points="58297,44108
57805,44108
57805,43852
58297,43852
58297,44108
" /> 
<polyline style="fill-rule:evenodd;"
points="60472,44600
59980,44600
59980,44344
60472,44344
60472,44600
" /> 
<polyline style="fill-rule:evenodd;"
points="60472,43616
59980,43616
59980,43360
60472,43360
60472,43616
" /> 
<circle cx="67037.4" cy="27212.6" r="324.803" /> 
<circle cx="68037.4" cy="27212.6" r="324.803" /> 
<circle cx="36500" cy="31000" r="285.433" /> 
<circle cx="35500" cy="31000" r="285.433" /> 
<circle cx="36500" cy="29000" r="285.433" /> 
<circle cx="35500" cy="29000" r="285.433" /> 
<circle cx="36500" cy="30000" r="285.433" /> 
<circle cx="35500" cy="30000" r="285.433" /> 
<circle cx="35500" cy="34000" r="285.433" /> 
<circle cx="36500" cy="34000" r="285.433" /> 
<circle cx="36500" cy="32000" r="285.433" /> 
<circle cx="35500" cy="32000" r="285.433" /> 
<circle cx="35500" cy="33000" r="285.433" /> 
<circle cx="36500" cy="33000" r="285.433" /> 
<circle cx="35500" cy="35000" r="285.433" /> 
<circle cx="36500" cy="35000" r="285.433" /> 
<circle cx="46061" cy="24049.2" r="246.063" /> 
<circle cx="46061" cy="25049.2" r="246.063" /> 
<circle cx="46061" cy="26049.2" r="246.063" /> 
<circle cx="46061" cy="27049.2" r="246.063" /> 
<circle cx="46061" cy="28049.2" r="246.063" /> 
<circle cx="46061" cy="29049.2" r="246.063" /> 
<circle cx="46061" cy="30049.2" r="246.063" /> 
<circle cx="46061" cy="31049.2" r="246.063" /> 
<circle cx="46061" cy="32049.2" r="246.063" /> 
<circle cx="46061" cy="33049.2" r="246.063" /> 
<circle cx="46061" cy="34049.2" r="246.063" /> 
<circle cx="46061" cy="35049.2" r="246.063" /> 
<circle cx="46061" cy="36049.2" r="246.063" /> 
<circle cx="46061" cy="37049.2" r="246.063" /> 
<circle cx="46061" cy="38049.2" r="246.063" /> 
<circle cx="46061" cy="39049.2" r="246.063" /> 
<circle cx="46061" cy="40049.2" r="246.063" /> 
<circle cx="48061" cy="40049.2" r="246.063" /> 
<circle cx="48061" cy="39049.2" r="246.063" /> 
<circle cx="48061" cy="38049.2" r="246.063" /> 
<circle cx="48061" cy="37049.2" r="246.063" /> 
<circle cx="48061" cy="36049.2" r="246.063" /> 
<circle cx="48061" cy="35049.2" r="246.063" /> 
<circle cx="48061" cy="34049.2" r="246.063" /> 
<circle cx="48061" cy="33049.2" r="246.063" /> 
<circle cx="48061" cy="32049.2" r="246.063" /> 
<circle cx="48061" cy="31049.2" r="246.063" /> 
<circle cx="48061" cy="30049.2" r="246.063" /> 
<circle cx="48061" cy="29049.2" r="246.063" /> 
<circle cx="48061" cy="28049.2" r="246.063" /> 
<circle cx="48061" cy="27049.2" r="246.063" /> 
<circle cx="48061" cy="26049.2" r="246.063" /> 
<circle cx="48061" cy="25049.2" r="246.063" /> 
<circle cx="48061" cy="24049.2" r="246.063" /> 
<polyline style="fill-rule:evenodd;"
points="30895,34958
28907,34958
28907,32970
30895,32970
30895,34958
" /> 
<polyline style="fill-rule:evenodd;"
points="30856,30982
28946,30982
28946,29072
30856,29072
30856,30982
" /> 
<polyline style="fill-rule:evenodd;"
points="26919,34919
25009,34919
25009,33009
26919,33009
26919,34919
" /> 
<polyline style="fill-rule:evenodd;"
points="26919,30982
25009,30982
25009,29072
26919,29072
26919,30982
" /> 
<polyline style="fill-rule:evenodd;"
points="62568,43049
64557,43049
64557,45037
62568,45037
62568,43049
" /> 
<polyline style="fill-rule:evenodd;"
points="62608,47025
64517,47025
64517,48935
62608,48935
62608,47025
" /> 
<polyline style="fill-rule:evenodd;"
points="66545,43088
68454,43088
68454,44998
66545,44998
66545,43088
" /> 
<polyline style="fill-rule:evenodd;"
points="66545,47025
68454,47025
68454,48935
66545,48935
66545,47025
" /> 
<polyline style="fill-rule:evenodd;"
points="62568,15017
64557,15017
64557,17005
62568,17005
62568,15017
" /> 
<polyline style="fill-rule:evenodd;"
points="62608,18994
64517,18994
64517,20903
62608,20903
62608,18994
" /> 
<polyline style="fill-rule:evenodd;"
points="66545,15057
68454,15057
68454,16966
66545,16966
66545,15057
" /> 
<polyline style="fill-rule:evenodd;"
points="66545,18994
68454,18994
68454,20903
66545,20903
66545,18994
" /> 
<polyline style="fill-rule:evenodd;"
points="39557,20942
37568,20942
37568,18954
39557,18954
39557,20942
" /> 
<polyline style="fill-rule:evenodd;"
points="39517,16966
37608,16966
37608,15057
39517,15057
39517,16966
" /> 
<polyline style="fill-rule:evenodd;"
points="35580,20903
33671,20903
33671,18994
35580,18994
35580,20903
" /> 
<polyline style="fill-rule:evenodd;"
points="35580,16966
33671,16966
33671,15057
35580,15057
35580,16966
" /> 
<polyline style="fill-rule:evenodd;"
points="39557,48974
37568,48974
37568,46986
39557,46986
39557,48974
" /> 
<polyline style="fill-rule:evenodd;"
points="39517,44998
37608,44998
37608,43088
39517,43088
39517,44998
" /> 
<polyline style="fill-rule:evenodd;"
points="35580,48935
33671,48935
33671,47025
35580,47025
35580,48935
" /> 
<polyline style="fill-rule:evenodd;"
points="35580,44998
33671,44998
33671,43088
35580,43088
35580,44998
" /> 
<circle cx="32283.5" cy="38976.4" r="580.709" /> 
<circle cx="57874" cy="38976.4" r="580.709" /> 
<circle cx="57874" cy="24803.1" r="580.709" /> 
<circle cx="43307.1" cy="49606.3" r="580.709" /> 
<circle cx="43307.1" cy="14173.2" r="580.709" /> 
<circle cx="49212.6" cy="49212.6" r="580.709" /> 
<circle cx="57874" cy="49212.6" r="580.709" /> 
<circle cx="49212.6" cy="14566.9" r="580.709" /> 
<circle cx="32283.5" cy="24803.1" r="580.709" /> 
<circle cx="22047.2" cy="28740.2" r="383.858" /> 
<circle cx="22047.2" cy="35039.4" r="383.858" /> 
</g> 
</svg>
