<?xml version="1.0" standalone="no"?>
 <!DOCTYPE svg PUBLIC "-//W3C//DTD SVG 1.1//EN" 
 "http://www.w3.org/Graphics/SVG/1.1/DTD/svg11.dtd"> 
<svg xmlns="http://www.w3.org/2000/svg" version="1.1" 
    width="41.9989cm" height="29.7002cm" viewBox="0 0 165350 116930 ">
<title>SVG Picture created as Cartridge-B_SilkS.svg date 2015/10/27 07:22:48 </title>
  <desc>Picture generated by PCBNEW </desc>
<g style="fill:#000000; fill-opacity:1;stroke:#000000; stroke-opacity:1;
stroke-linecap:round; stroke-linejoin:round; "
 transform="translate(0 0) scale(1 1)">
</g>
<g style="fill:#000000; fill-opacity:0.0; 
stroke:#000000; stroke-width:59.0551; stroke-opacity:1; 
stroke-linecap:round; stroke-linejoin:round;">
<path d="M58490 51708
L58490 51315
L58340 51315
L58303 51334
L58284 51352
L58265 51390
L58265 51446
L58284 51483
L58303 51502
L58340 51521
L58490 51521
" />
<path d="M57890 51708
L58115 51708
" />
<path d="M58003 51708
L58003 51315
L58040 51371
L58078 51408
L58115 51427
" />
<path d="M57390 51690
L57334 51708
L57240 51708
L57203 51690
L57184 51671
L57165 51633
L57165 51596
L57184 51558
L57203 51540
L57240 51521
L57315 51502
L57353 51483
L57371 51465
L57390 51427
L57390 51390
L57371 51352
L57353 51334
L57315 51315
L57221 51315
L57165 51334
" />
<path d="M56809 51708
L56996 51708
L56996 51315
" />
<path d="M56678 51558
L56378 51558
" />
<path d="M56228 51315
L55984 51315
L56115 51465
L56059 51465
L56021 51483
L56003 51502
L55984 51540
L55984 51633
L56003 51671
L56021 51690
L56059 51708
L56171 51708
L56209 51690
L56228 51671
" />
<path d="M55646 51446
L55646 51708
" />
<path d="M55740 51296
L55834 51577
L55590 51577
" />
</g> 
</svg>
