<?xml version="1.0" standalone="no"?>
 <!DOCTYPE svg PUBLIC "-//W3C//DTD SVG 1.1//EN" 
 "http://www.w3.org/Graphics/SVG/1.1/DTD/svg11.dtd"> 
<svg xmlns="http://www.w3.org/2000/svg" version="1.1" 
    width="41.9989cm" height="29.7002cm" viewBox="0 0 165350 116930 ">
<title>SVG Picture created as Cartridge-B_Cu.svg date 2015/10/27 07:22:48 </title>
  <desc>Picture generated by PCBNEW </desc>
<g style="fill:#000000; fill-opacity:1;stroke:#000000; stroke-opacity:1;
stroke-linecap:round; stroke-linejoin:round; "
 transform="translate(0 0) scale(1 1)">
</g>
<g style="fill:#000000; fill-opacity:0.0; 
stroke:#000000; stroke-width:59.0551; stroke-opacity:1; 
stroke-linecap:round; stroke-linejoin:round;">
</g>
<g style="fill:#000000; fill-opacity:1.0; 
stroke:#000000; stroke-width:59.0551; stroke-opacity:1; 
stroke-linecap:round; stroke-linejoin:round;">
<circle cx="48200" cy="39900" r="265.748" /> 
<circle cx="48200" cy="38900" r="265.748" /> 
<circle cx="48200" cy="42900" r="265.748" /> 
<circle cx="48200" cy="43900" r="265.748" /> 
<circle cx="48200" cy="41900" r="265.748" /> 
<circle cx="48200" cy="40900" r="265.748" /> 
<circle cx="48200" cy="47900" r="265.748" /> 
<circle cx="48200" cy="48900" r="265.748" /> 
<circle cx="48200" cy="50900" r="265.748" /> 
<circle cx="48200" cy="49900" r="265.748" /> 
<circle cx="48200" cy="45900" r="265.748" /> 
<circle cx="48200" cy="46900" r="265.748" /> 
<circle cx="67200" cy="43900" r="265.748" /> 
<circle cx="67200" cy="44900" r="265.748" /> 
<circle cx="67200" cy="46900" r="265.748" /> 
<circle cx="67200" cy="45900" r="265.748" /> 
<circle cx="67200" cy="49900" r="265.748" /> 
<circle cx="67200" cy="50900" r="265.748" /> 
<circle cx="67200" cy="48900" r="265.748" /> 
<circle cx="67200" cy="47900" r="265.748" /> 
<circle cx="67200" cy="39400" r="265.748" /> 
<circle cx="67200" cy="40400" r="265.748" /> 
<circle cx="67200" cy="42400" r="265.748" /> 
<circle cx="67200" cy="41400" r="265.748" /> 
<circle cx="67200" cy="37400" r="265.748" /> 
<circle cx="67200" cy="38400" r="265.748" /> 
<circle cx="67200" cy="36400" r="265.748" /> 
<circle cx="67200" cy="35400" r="265.748" /> 
<polyline style="fill-rule:evenodd;"
points="65335,57388
65335,53510
66064,53510
66064,57388
65335,57388
" /> 
<polyline style="fill-rule:evenodd;"
points="64335,57388
64335,53510
65064,53510
65064,57388
64335,57388
" /> 
<polyline style="fill-rule:evenodd;"
points="63335,57388
63335,53510
64064,53510
64064,57388
63335,57388
" /> 
<polyline style="fill-rule:evenodd;"
points="62335,57388
62335,53510
63064,53510
63064,57388
62335,57388
" /> 
<polyline style="fill-rule:evenodd;"
points="61335,57388
61335,53510
62064,53510
62064,57388
61335,57388
" /> 
<polyline style="fill-rule:evenodd;"
points="60335,57388
60335,53510
61064,53510
61064,57388
60335,57388
" /> 
<polyline style="fill-rule:evenodd;"
points="59335,57388
59335,53510
60064,53510
60064,57388
59335,57388
" /> 
<polyline style="fill-rule:evenodd;"
points="58335,57388
58335,53510
59064,53510
59064,57388
58335,57388
" /> 
<polyline style="fill-rule:evenodd;"
points="57335,57388
57335,53510
58064,53510
58064,57388
57335,57388
" /> 
<polyline style="fill-rule:evenodd;"
points="56335,57388
56335,53510
57064,53510
57064,57388
56335,57388
" /> 
<polyline style="fill-rule:evenodd;"
points="55335,57388
55335,53510
56064,53510
56064,57388
55335,57388
" /> 
<polyline style="fill-rule:evenodd;"
points="54335,57388
54335,53510
55064,53510
55064,57388
54335,57388
" /> 
<polyline style="fill-rule:evenodd;"
points="53335,57388
53335,53510
54064,53510
54064,57388
53335,57388
" /> 
<polyline style="fill-rule:evenodd;"
points="52335,57388
52335,53510
53064,53510
53064,57388
52335,57388
" /> 
<polyline style="fill-rule:evenodd;"
points="51335,57388
51335,53510
52064,53510
52064,57388
51335,57388
" /> 
<polyline style="fill-rule:evenodd;"
points="50335,57388
50335,53510
51064,53510
51064,57388
50335,57388
" /> 
<polyline style="fill-rule:evenodd;"
points="49335,57388
49335,53510
50064,53510
50064,57388
49335,57388
" /> 
<circle cx="52649.6" cy="42444.9" r="265.748" /> 
<circle cx="52649.6" cy="39444.9" r="265.748" /> 
<circle cx="53649.6" cy="42444.9" r="265.748" /> 
<circle cx="53649.6" cy="39444.9" r="265.748" /> 
<circle cx="57325" cy="44500" r="265.748" /> 
<circle cx="64400" cy="37400" r="265.748" /> 
<circle cx="54700" cy="48150" r="265.748" /> 
<circle cx="55950" cy="36650" r="265.748" /> 
<circle cx="53450" cy="36650" r="265.748" /> 
<circle cx="60950" cy="37650" r="265.748" /> 
<circle cx="57350" cy="38600" r="265.748" /> 
<circle cx="49900" cy="51449.6" r="265.748" /> 
<circle cx="64400" cy="38400" r="265.748" /> 
<circle cx="52700" cy="41400" r="265.748" /> 
<circle cx="54750" cy="36700" r="265.748" /> 
<circle cx="65200" cy="50900" r="265.748" /> 
<circle cx="53950" cy="47150" r="265.748" /> 
<circle cx="66150" cy="49699.6" r="265.748" /> 
<circle cx="60700" cy="32250" r="265.748" /> 
<circle cx="60700" cy="33150" r="265.748" /> 
</g>
<g style="fill:#000000; fill-opacity:1.0; 
stroke:#000000; stroke-width:196.85; stroke-opacity:1; 
stroke-linecap:round; stroke-linejoin:round;">
<path d="M52649 42444
L53649 42444
" />
<path d="M51700 43400
L52700 42400
" />
<path d="M51700 55449
L51700 43400
" />
<path d="M64400 37400
L64400 37425
" />
<path d="M64400 37425
L57325 44500
" />
<path d="M56700 50150
L56700 55449
" />
<path d="M54700 48150
L56700 50150
" />
<path d="M55950 36650
L55950 36660
" />
<path d="M53649 38960
L53649 39444
" />
<path d="M55950 36660
L53649 38960
" />
<path d="M53450 36650
L48200 41900
" />
<path d="M60950 37650
L58300 37650
" />
<path d="M58300 37650
L57350 38600
" />
<path d="M50700 52249
L50700 55449
" />
<path d="M49900 51449
L50700 52249
" />
<path d="M56450 46150
L53450 46150
" />
<path d="M53450 46150
L52950 46650
" />
<path d="M53700 48400
L52950 47650
" />
<path d="M53700 48400
L55700 50400
" />
<path d="M55700 55449
L55700 50400
" />
<path d="M52950 47650
L52950 46650
" />
<path d="M58450 44150
L56450 46150
" />
<path d="M55650 55399
L55700 55449
" />
<path d="M64200 38400
L64400 38400
" />
<path d="M64200 38400
L58450 44150
" />
<path d="M54750 42000
L54750 43050
" />
<path d="M52350 49900
L52700 50250
" />
<path d="M52700 55449
L52700 50250
" />
<path d="M53100 41400
L54150 41400
" />
<path d="M52700 41400
L53100 41400
" />
<path d="M54150 41400
L54750 42000
" />
<path d="M52350 45450
L52350 49900
" />
<path d="M54750 43050
L52350 45450
" />
<path d="M54750 36700
L52655 38795
" />
<path d="M52655 39439
L52649 39444
" />
<path d="M52655 38795
L52655 39439
" />
</g>
<g style="fill:#000000; fill-opacity:1.0; 
stroke:#000000; stroke-width:393.701; stroke-opacity:1; 
stroke-linecap:round; stroke-linejoin:round;">
<path d="M65200 50900
L62950 50900
" />
<path d="M62950 50900
L62450 50900
" />
<path d="M58700 47150
L53950 47150
" />
<path d="M62450 50900
L58700 47150
" />
<path d="M49700 52999
L49700 55449
" />
<path d="M49150 52449
L49700 52999
" />
<path d="M49150 44449
L49150 52449
" />
<path d="M48539 43839
L49150 44449
" />
<path d="M48216 43839
L48539 43839
" />
</g>
<g style="fill:#000000; fill-opacity:1.0; 
stroke:#000000; stroke-width:196.85; stroke-opacity:1; 
stroke-linecap:round; stroke-linejoin:round;">
<path d="M48216 43839
L48216 43882
" />
<path d="M48216 43882
L48216 43839
" />
<path d="M64700 53299
L64700 55449
" />
<path d="M67160 50839
L64700 53299
" />
<path d="M66150 33350
L65050 32250
" />
<path d="M66150 49699
L66150 33350
" />
<path d="M60700 32250
L64400 32250
" />
<path d="M65050 32250
L64400 32250
" />
<path d="M67216 50839
L67160 50839
" />
<path d="M65400 51699
L63700 53399
" />
<path d="M63700 53399
L63700 55449
" />
<path d="M65450 50150
L65450 33800
" />
<path d="M66074 50774
L65450 50150
" />
<path d="M66074 50774
L66074 51024
" />
<path d="M65450 33800
L64800 33150
" />
<path d="M66150 50949
L66074 51024
" />
<path d="M66074 51024
L65400 51699
" />
<path d="M64800 33150
L60700 33150
" />
<path d="M66400 50699
L66150 50949
" />
<path d="M67216 49839
L67216 49882
" />
<path d="M67216 49882
L66400 50699
" />
</g> 
</svg>
