<?xml version="1.0" standalone="no"?>
 <!DOCTYPE svg PUBLIC "-//W3C//DTD SVG 1.1//EN" 
 "http://www.w3.org/Graphics/SVG/1.1/DTD/svg11.dtd"> 
<svg xmlns="http://www.w3.org/2000/svg" version="1.1" 
    width="41.9989cm" height="29.7002cm" viewBox="0 0 165350 116930 ">
<title>SVG Picture created as Cartridge-B_Mask.svg date 2015/10/27 07:22:48 </title>
  <desc>Picture generated by PCBNEW </desc>
<g style="fill:#000000; fill-opacity:1;stroke:#000000; stroke-opacity:1;
stroke-linecap:round; stroke-linejoin:round; "
 transform="translate(0 0) scale(1 1)">
</g>
<g style="fill:#000000; fill-opacity:0.0; 
stroke:#000000; stroke-width:59.0551; stroke-opacity:1; 
stroke-linecap:round; stroke-linejoin:round;">
</g>
<g style="fill:#000000; fill-opacity:1.0; 
stroke:#000000; stroke-width:59.0551; stroke-opacity:1; 
stroke-linecap:round; stroke-linejoin:round;">
<circle cx="61200.8" cy="51901.6" r="580.709" /> 
<circle cx="48200" cy="39900" r="265.748" /> 
<circle cx="48200" cy="38900" r="265.748" /> 
<circle cx="48200" cy="42900" r="265.748" /> 
<circle cx="48200" cy="43900" r="265.748" /> 
<circle cx="48200" cy="41900" r="265.748" /> 
<circle cx="48200" cy="40900" r="265.748" /> 
<circle cx="48200" cy="47900" r="265.748" /> 
<circle cx="48200" cy="48900" r="265.748" /> 
<circle cx="48200" cy="50900" r="265.748" /> 
<circle cx="48200" cy="49900" r="265.748" /> 
<circle cx="48200" cy="45900" r="265.748" /> 
<circle cx="48200" cy="46900" r="265.748" /> 
<circle cx="67200" cy="43900" r="265.748" /> 
<circle cx="67200" cy="44900" r="265.748" /> 
<circle cx="67200" cy="46900" r="265.748" /> 
<circle cx="67200" cy="45900" r="265.748" /> 
<circle cx="67200" cy="49900" r="265.748" /> 
<circle cx="67200" cy="50900" r="265.748" /> 
<circle cx="67200" cy="48900" r="265.748" /> 
<circle cx="67200" cy="47900" r="265.748" /> 
<circle cx="67200" cy="39400" r="265.748" /> 
<circle cx="67200" cy="40400" r="265.748" /> 
<circle cx="67200" cy="42400" r="265.748" /> 
<circle cx="67200" cy="41400" r="265.748" /> 
<circle cx="67200" cy="37400" r="265.748" /> 
<circle cx="67200" cy="38400" r="265.748" /> 
<circle cx="67200" cy="36400" r="265.748" /> 
<circle cx="67200" cy="35400" r="265.748" /> 
<polyline style="fill-rule:evenodd;"
points="65335,57388
65335,53510
66064,53510
66064,57388
65335,57388
" /> 
<polyline style="fill-rule:evenodd;"
points="64335,57388
64335,53510
65064,53510
65064,57388
64335,57388
" /> 
<polyline style="fill-rule:evenodd;"
points="63335,57388
63335,53510
64064,53510
64064,57388
63335,57388
" /> 
<polyline style="fill-rule:evenodd;"
points="62335,57388
62335,53510
63064,53510
63064,57388
62335,57388
" /> 
<polyline style="fill-rule:evenodd;"
points="61335,57388
61335,53510
62064,53510
62064,57388
61335,57388
" /> 
<polyline style="fill-rule:evenodd;"
points="60335,57388
60335,53510
61064,53510
61064,57388
60335,57388
" /> 
<polyline style="fill-rule:evenodd;"
points="59335,57388
59335,53510
60064,53510
60064,57388
59335,57388
" /> 
<polyline style="fill-rule:evenodd;"
points="58335,57388
58335,53510
59064,53510
59064,57388
58335,57388
" /> 
<polyline style="fill-rule:evenodd;"
points="57335,57388
57335,53510
58064,53510
58064,57388
57335,57388
" /> 
<polyline style="fill-rule:evenodd;"
points="56335,57388
56335,53510
57064,53510
57064,57388
56335,57388
" /> 
<polyline style="fill-rule:evenodd;"
points="55335,57388
55335,53510
56064,53510
56064,57388
55335,57388
" /> 
<polyline style="fill-rule:evenodd;"
points="54335,57388
54335,53510
55064,53510
55064,57388
54335,57388
" /> 
<polyline style="fill-rule:evenodd;"
points="53335,57388
53335,53510
54064,53510
54064,57388
53335,57388
" /> 
<polyline style="fill-rule:evenodd;"
points="52335,57388
52335,53510
53064,53510
53064,57388
52335,57388
" /> 
<polyline style="fill-rule:evenodd;"
points="51335,57388
51335,53510
52064,53510
52064,57388
51335,57388
" /> 
<polyline style="fill-rule:evenodd;"
points="50335,57388
50335,53510
51064,53510
51064,57388
50335,57388
" /> 
<polyline style="fill-rule:evenodd;"
points="49335,57388
49335,53510
50064,53510
50064,57388
49335,57388
" /> 
<circle cx="52649.6" cy="42444.9" r="265.748" /> 
<circle cx="52649.6" cy="39444.9" r="265.748" /> 
<circle cx="53649.6" cy="42444.9" r="265.748" /> 
<circle cx="53649.6" cy="39444.9" r="265.748" /> 
<circle cx="67200.8" cy="31901.6" r="580.709" /> 
<circle cx="49200.8" cy="31401.6" r="580.709" /> 
</g> 
</svg>
