<?xml version="1.0" standalone="no"?>
 <!DOCTYPE svg PUBLIC "-//W3C//DTD SVG 1.1//EN" 
 "http://www.w3.org/Graphics/SVG/1.1/DTD/svg11.dtd"> 
<svg xmlns="http://www.w3.org/2000/svg" version="1.1" 
    width="41.9989cm" height="29.7002cm" viewBox="0 0 165350 116930 ">
<title>SVG Picture created as Cartridge-Edge_Cuts.svg date 2015/10/27 07:22:48 </title>
  <desc>Picture generated by PCBNEW </desc>
<g style="fill:#000000; fill-opacity:1;stroke:#000000; stroke-opacity:1;
stroke-linecap:round; stroke-linejoin:round; "
 transform="translate(0 0) scale(1 1)">
</g>
<g style="fill:#000000; fill-opacity:0.0; 
stroke:#000000; stroke-width:39.3701; stroke-opacity:1; 
stroke-linecap:round; stroke-linejoin:round;">
<path d="M46695 31455
L46695 31690
" />
<path d="M48165 29985
L46695 31455
" />
<path d="M46695 33500
L46695 31690
" />
<path d="M54065 29985
L48165 29985
" />
<path d="M54780 30700
L54065 29985
" />
<path d="M67845 30700
L54780 30700
" />
<path d="M46700 52050
L46700 33500
" />
<path d="M68700 31550
L67850 30700
" />
<path d="M68700 33050
L68700 31550
" />
<path d="M49200 58049
L66200 58049
" />
<path d="M68700 52049
L68700 33049
" />
<path d="M68200 52549
L68700 52049
" />
<path d="M67200 52549
L68200 52549
" />
<path d="M66700 53049
L67200 52549
" />
<path d="M66700 57549
L66700 53049
" />
<path d="M66200 58049
L66700 57549
" />
<path d="M47200 52549
L46700 52049
" />
<path d="M48200 52549
L47200 52549
" />
<path d="M48700 53049
L48200 52549
" />
<path d="M48700 57549
L48700 53049
" />
<path d="M48700 57549
L49200 58049
" />
</g> 
</svg>
