<?xml version="1.0" standalone="no"?>
 <!DOCTYPE svg PUBLIC "-//W3C//DTD SVG 1.1//EN" 
 "http://www.w3.org/Graphics/SVG/1.1/DTD/svg11.dtd"> 
<svg xmlns="http://www.w3.org/2000/svg" version="1.1" 
    width="41.9989cm" height="29.7002cm" viewBox="0 0 165350 116930 ">
<title>SVG Picture created as Cartridge-F_Cu.svg date 2015/10/27 07:22:48 </title>
  <desc>Picture generated by PCBNEW </desc>
<g style="fill:#000000; fill-opacity:1;stroke:#000000; stroke-opacity:1;
stroke-linecap:round; stroke-linejoin:round; "
 transform="translate(0 0) scale(1 1)">
</g>
<g style="fill:#000000; fill-opacity:0.0; 
stroke:#000000; stroke-width:59.0551; stroke-opacity:1; 
stroke-linecap:round; stroke-linejoin:round;">
</g>
<g style="fill:#000000; fill-opacity:1.0; 
stroke:#000000; stroke-width:59.0551; stroke-opacity:1; 
stroke-linecap:round; stroke-linejoin:round;">
<polyline style="fill-rule:evenodd;"
points="59845,31876
60180,31876
60180,32604
59845,32604
59845,31876
" /> 
<polyline style="fill-rule:evenodd;"
points="59255,31876
59589,31876
59589,32604
59255,32604
59255,31876
" /> 
<polyline style="fill-rule:evenodd;"
points="58664,31876
58999,31876
58999,32604
58664,32604
58664,31876
" /> 
<polyline style="fill-rule:evenodd;"
points="58074,31876
58408,31876
58408,32604
58074,32604
58074,31876
" /> 
<polyline style="fill-rule:evenodd;"
points="57483,31876
57818,31876
57818,32604
57483,32604
57483,31876
" /> 
<polyline style="fill-rule:evenodd;"
points="56892,31876
57227,31876
57227,32604
56892,32604
56892,31876
" /> 
<polyline style="fill-rule:evenodd;"
points="56302,31876
56637,31876
56637,32604
56302,32604
56302,31876
" /> 
<polyline style="fill-rule:evenodd;"
points="55711,31876
56046,31876
56046,32604
55711,32604
55711,31876
" /> 
<polyline style="fill-rule:evenodd;"
points="55121,31876
55455,31876
55455,32604
55121,32604
55121,31876
" /> 
<polyline style="fill-rule:evenodd;"
points="54530,31876
54865,31876
54865,32604
54530,32604
54530,31876
" /> 
<polyline style="fill-rule:evenodd;"
points="53940,31876
54274,31876
54274,32604
53940,32604
53940,31876
" /> 
<polyline style="fill-rule:evenodd;"
points="53349,31876
53684,31876
53684,32604
53349,32604
53349,31876
" /> 
<polyline style="fill-rule:evenodd;"
points="52759,31876
53093,31876
53093,32604
52759,32604
52759,31876
" /> 
<polyline style="fill-rule:evenodd;"
points="51676,33096
51676,32762
52404,32762
52404,33096
51676,33096
" /> 
<polyline style="fill-rule:evenodd;"
points="51676,33687
51676,33352
52404,33352
52404,33687
51676,33687
" /> 
<polyline style="fill-rule:evenodd;"
points="51676,34277
51676,33943
52404,33943
52404,34277
51676,34277
" /> 
<polyline style="fill-rule:evenodd;"
points="51676,34868
51676,34533
52404,34533
52404,34868
51676,34868
" /> 
<polyline style="fill-rule:evenodd;"
points="51676,35459
51676,35124
52404,35124
52404,35459
51676,35459
" /> 
<polyline style="fill-rule:evenodd;"
points="51676,36049
51676,35714
52404,35714
52404,36049
51676,36049
" /> 
<polyline style="fill-rule:evenodd;"
points="51676,36640
51676,36305
52404,36305
52404,36640
51676,36640
" /> 
<polyline style="fill-rule:evenodd;"
points="51676,37230
51676,36896
52404,36896
52404,37230
51676,37230
" /> 
<polyline style="fill-rule:evenodd;"
points="52759,37388
53093,37388
53093,38116
52759,38116
52759,37388
" /> 
<polyline style="fill-rule:evenodd;"
points="53349,37388
53684,37388
53684,38116
53349,38116
53349,37388
" /> 
<polyline style="fill-rule:evenodd;"
points="53940,37388
54274,37388
54274,38116
53940,38116
53940,37388
" /> 
<polyline style="fill-rule:evenodd;"
points="54530,37388
54865,37388
54865,38116
54530,38116
54530,37388
" /> 
<polyline style="fill-rule:evenodd;"
points="55121,37388
55455,37388
55455,38116
55121,38116
55121,37388
" /> 
<polyline style="fill-rule:evenodd;"
points="55711,37388
56046,37388
56046,38116
55711,38116
55711,37388
" /> 
<polyline style="fill-rule:evenodd;"
points="56302,37388
56637,37388
56637,38116
56302,38116
56302,37388
" /> 
<polyline style="fill-rule:evenodd;"
points="56892,37388
57227,37388
57227,38116
56892,38116
56892,37388
" /> 
<polyline style="fill-rule:evenodd;"
points="57483,37388
57818,37388
57818,38116
57483,38116
57483,37388
" /> 
<polyline style="fill-rule:evenodd;"
points="58074,37388
58408,37388
58408,38116
58074,38116
58074,37388
" /> 
<polyline style="fill-rule:evenodd;"
points="58664,37388
58999,37388
58999,38116
58664,38116
58664,37388
" /> 
<polyline style="fill-rule:evenodd;"
points="59255,37388
59589,37388
59589,38116
59255,38116
59255,37388
" /> 
<polyline style="fill-rule:evenodd;"
points="59845,37388
60180,37388
60180,38116
59845,38116
59845,37388
" /> 
<polyline style="fill-rule:evenodd;"
points="56429,42645
56429,42154
56720,42154
56720,42645
56429,42645
" /> 
<polyline style="fill-rule:evenodd;"
points="57179,42645
57179,42154
57470,42154
57470,42645
57179,42645
" /> 
<polyline style="fill-rule:evenodd;"
points="56429,39645
56429,39154
56720,39154
56720,39645
56429,39645
" /> 
<polyline style="fill-rule:evenodd;"
points="57179,39645
57179,39154
57470,39154
57470,39645
57179,39645
" /> 
<polyline style="fill-rule:evenodd;"
points="59679,41145
59679,40654
59970,40654
59970,41145
59679,41145
" /> 
<polyline style="fill-rule:evenodd;"
points="60429,41145
60429,40654
60720,40654
60720,41145
60429,41145
" /> 
<polyline style="fill-rule:evenodd;"
points="58625,38806
59274,38806
59274,39375
58625,39375
58625,38806
" /> 
<polyline style="fill-rule:evenodd;"
points="58625,39924
59274,39924
59274,40493
58625,40493
58625,39924
" /> 
<polyline style="fill-rule:evenodd;"
points="59274,42993
58625,42993
58625,42424
59274,42424
59274,42993
" /> 
<polyline style="fill-rule:evenodd;"
points="59274,41875
58625,41875
58625,41306
59274,41306
59274,41875
" /> 
<circle cx="48200" cy="39900" r="265.748" /> 
<circle cx="48200" cy="38900" r="265.748" /> 
<circle cx="48200" cy="42900" r="265.748" /> 
<circle cx="48200" cy="43900" r="265.748" /> 
<circle cx="48200" cy="41900" r="265.748" /> 
<circle cx="48200" cy="40900" r="265.748" /> 
<circle cx="48200" cy="47900" r="265.748" /> 
<circle cx="48200" cy="48900" r="265.748" /> 
<circle cx="48200" cy="50900" r="265.748" /> 
<circle cx="48200" cy="49900" r="265.748" /> 
<circle cx="48200" cy="45900" r="265.748" /> 
<circle cx="48200" cy="46900" r="265.748" /> 
<circle cx="67200" cy="43900" r="265.748" /> 
<circle cx="67200" cy="44900" r="265.748" /> 
<circle cx="67200" cy="46900" r="265.748" /> 
<circle cx="67200" cy="45900" r="265.748" /> 
<circle cx="67200" cy="49900" r="265.748" /> 
<circle cx="67200" cy="50900" r="265.748" /> 
<circle cx="67200" cy="48900" r="265.748" /> 
<circle cx="67200" cy="47900" r="265.748" /> 
<circle cx="67200" cy="39400" r="265.748" /> 
<circle cx="67200" cy="40400" r="265.748" /> 
<circle cx="67200" cy="42400" r="265.748" /> 
<circle cx="67200" cy="41400" r="265.748" /> 
<circle cx="67200" cy="37400" r="265.748" /> 
<circle cx="67200" cy="38400" r="265.748" /> 
<circle cx="67200" cy="36400" r="265.748" /> 
<circle cx="67200" cy="35400" r="265.748" /> 
<polyline style="fill-rule:evenodd;"
points="49335,57388
49335,53510
50064,53510
50064,57388
49335,57388
" /> 
<polyline style="fill-rule:evenodd;"
points="50335,57388
50335,53510
51064,53510
51064,57388
50335,57388
" /> 
<polyline style="fill-rule:evenodd;"
points="51335,57388
51335,53510
52064,53510
52064,57388
51335,57388
" /> 
<polyline style="fill-rule:evenodd;"
points="52335,57388
52335,53510
53064,53510
53064,57388
52335,57388
" /> 
<polyline style="fill-rule:evenodd;"
points="53335,57388
53335,53510
54064,53510
54064,57388
53335,57388
" /> 
<polyline style="fill-rule:evenodd;"
points="54335,57388
54335,53510
55064,53510
55064,57388
54335,57388
" /> 
<polyline style="fill-rule:evenodd;"
points="55335,57388
55335,53510
56064,53510
56064,57388
55335,57388
" /> 
<polyline style="fill-rule:evenodd;"
points="56335,57388
56335,53510
57064,53510
57064,57388
56335,57388
" /> 
<polyline style="fill-rule:evenodd;"
points="57335,57388
57335,53510
58064,53510
58064,57388
57335,57388
" /> 
<polyline style="fill-rule:evenodd;"
points="58335,57388
58335,53510
59064,53510
59064,57388
58335,57388
" /> 
<polyline style="fill-rule:evenodd;"
points="59335,57388
59335,53510
60064,53510
60064,57388
59335,57388
" /> 
<polyline style="fill-rule:evenodd;"
points="60335,57388
60335,53510
61064,53510
61064,57388
60335,57388
" /> 
<polyline style="fill-rule:evenodd;"
points="61335,57388
61335,53510
62064,53510
62064,57388
61335,57388
" /> 
<polyline style="fill-rule:evenodd;"
points="62335,57388
62335,53510
63064,53510
63064,57388
62335,57388
" /> 
<polyline style="fill-rule:evenodd;"
points="63335,57388
63335,53510
64064,53510
64064,57388
63335,57388
" /> 
<polyline style="fill-rule:evenodd;"
points="64335,57388
64335,53510
65064,53510
65064,57388
64335,57388
" /> 
<polyline style="fill-rule:evenodd;"
points="65335,57388
65335,53510
66064,53510
66064,57388
65335,57388
" /> 
<circle cx="52649.6" cy="42444.9" r="265.748" /> 
<circle cx="52649.6" cy="39444.9" r="265.748" /> 
<circle cx="53649.6" cy="42444.9" r="265.748" /> 
<circle cx="53649.6" cy="39444.9" r="265.748" /> 
<polyline style="fill-rule:evenodd;"
points="50644,35429
50644,35173
50979,35173
50979,35429
50644,35429
" /> 
<polyline style="fill-rule:evenodd;"
points="50644,36807
50644,36551
50979,36551
50979,36807
50644,36807
" /> 
<polyline style="fill-rule:evenodd;"
points="48085,36807
48085,36551
48420,36551
48420,36807
48085,36807
" /> 
<polyline style="fill-rule:evenodd;"
points="48085,35429
48085,35173
48420,35173
48420,35429
48085,35429
" /> 
<circle cx="57325" cy="44500" r="265.748" /> 
<circle cx="64400" cy="37400" r="265.748" /> 
<circle cx="54700" cy="48150" r="265.748" /> 
<circle cx="55950" cy="36650" r="265.748" /> 
<circle cx="53450" cy="36650" r="265.748" /> 
<circle cx="60950" cy="37650" r="265.748" /> 
<circle cx="57350" cy="38600" r="265.748" /> 
<circle cx="49900" cy="51449.6" r="265.748" /> 
<circle cx="64400" cy="38400" r="265.748" /> 
<circle cx="52700" cy="41400" r="265.748" /> 
<circle cx="54750" cy="36700" r="265.748" /> 
<circle cx="65200" cy="50900" r="265.748" /> 
<circle cx="53950" cy="47150" r="265.748" /> 
<circle cx="66150" cy="49699.6" r="265.748" /> 
<circle cx="60700" cy="32250" r="265.748" /> 
<circle cx="60700" cy="33150" r="265.748" /> 
</g>
<g style="fill:#000000; fill-opacity:1.0; 
stroke:#000000; stroke-width:196.85; stroke-opacity:1; 
stroke-linecap:round; stroke-linejoin:round;">
<path d="M52649 42444
L51244 42444
" />
<path d="M48700 39900
L51200 42400
" />
<path d="M48700 39900
L48200 39900
" />
<path d="M51244 42444
L51200 42400
" />
<path d="M67200 37400
L64400 37400
" />
<path d="M57325 42400
L57325 44500
" />
<path d="M57325 44500
L57325 44525
" />
<path d="M57325 44525
L54700 47150
" />
<path d="M57325 42400
L57325 42775
" />
<path d="M54700 47150
L54700 48150
" />
<path d="M53649 39444
L56530 39444
" />
<path d="M56530 39444
L56575 39400
" />
<path d="M55950 36650
L59450 36650
" />
<path d="M60012 37752
L60012 37212
" />
<path d="M59450 36650
L60012 37212
" />
<path d="M56575 42400
L56575 39400
" />
<path d="M48253 35301
L50812 35301
" />
<path d="M50812 35301
L50772 35262
" />
<path d="M50772 35262
L50772 32877
" />
<path d="M51409 32240
L52926 32240
" />
<path d="M50772 32877
L51409 32240
" />
<path d="M52926 37752
L52926 37173
" />
<path d="M52926 37173
L53036 37063
" />
<path d="M52040 37063
L53036 37063
" />
<path d="M53036 37063
L53450 36650
" />
<path d="M53200 33650
L53450 33900
" />
<path d="M53450 33900
L53450 36650
" />
<path d="M52926 32240
L52926 33376
" />
<path d="M53200 33650
L52926 33376
" />
<path d="M62725 37625
L62700 37650
" />
<path d="M62700 37650
L60950 37650
" />
<path d="M57325 38625
L57325 39400
" />
<path d="M57350 38600
L57325 38625
" />
<path d="M62725 37625
L62725 39125
" />
<path d="M60950 40900
L60575 40900
" />
<path d="M62725 39125
L60950 40900
" />
<path d="M60700 40775
L60575 40900
" />
<path d="M67200 36400
L63950 36400
" />
<path d="M63950 36400
L63450 36900
" />
<path d="M63450 36900
L62725 37625
" />
</g>
<g style="fill:#000000; fill-opacity:1.0; 
stroke:#000000; stroke-width:393.701; stroke-opacity:1; 
stroke-linecap:round; stroke-linejoin:round;">
<path d="M48216 42839
L48216 41839
" />
<path d="M48216 42839
L47510 42839
" />
<path d="M47510 42839
L47150 43199
" />
<path d="M47150 43199
L47150 51449
" />
<path d="M47150 51449
L47650 51949
" />
<path d="M47650 51949
L48900 51949
" />
<path d="M49700 52749
L49700 55449
" />
<path d="M48900 51949
L49700 52749
" />
</g>
<g style="fill:#000000; fill-opacity:1.0; 
stroke:#000000; stroke-width:196.85; stroke-opacity:1; 
stroke-linecap:round; stroke-linejoin:round;">
<path d="M49289 50839
L49900 51449
" />
<path d="M48216 50839
L49289 50839
" />
<path d="M56700 47649
L56700 55449
" />
<path d="M64010 40339
L56700 47649
" />
<path d="M67216 40339
L64010 40339
" />
<path d="M57700 47899
L57700 55449
" />
<path d="M64260 41339
L57700 47899
" />
<path d="M67216 41339
L64260 41339
" />
<path d="M67216 42339
L64510 42339
" />
<path d="M58700 48149
L58700 55449
" />
<path d="M64510 42339
L58700 48149
" />
<path d="M48216 45839
L51289 45839
" />
<path d="M54700 49249
L54700 55449
" />
<path d="M51289 45839
L54700 49249
" />
<path d="M67216 39339
L63760 39339
" />
<path d="M63760 39339
L55750 47349
" />
<path d="M55750 47349
L55700 47399
" />
<path d="M55700 47399
L55700 55449
" />
<path d="M48216 47839
L50289 47839
" />
<path d="M50289 47839
L52700 50249
" />
<path d="M52700 50249
L52700 55449
" />
<path d="M51700 50749
L51700 55449
" />
<path d="M49789 48839
L51700 50749
" />
<path d="M48216 48839
L49789 48839
" />
<path d="M48216 49839
L49539 49839
" />
<path d="M49539 49839
L50700 50999
" />
<path d="M50700 50999
L50700 55449
" />
<path d="M64400 38400
L67200 38400
" />
<path d="M59700 53049
L59700 55449
" />
<path d="M59450 52799
L59700 53049
" />
<path d="M59450 48879
L59450 52799
" />
<path d="M67216 43839
L64489 43839
" />
<path d="M64489 43839
L59450 48879
" />
<path d="M48253 36679
L50812 36679
" />
<path d="M51450 41400
L52700 41400
" />
<path d="M48950 38900
L51450 41400
" />
<path d="M48950 38900
L48200 38900
" />
<path d="M48200 38900
L48200 36673
" />
<path d="M60700 53049
L60700 55449
" />
<path d="M60200 52549
L60700 53049
" />
<path d="M60200 49549
L60200 52549
" />
<path d="M67216 44839
L64910 44839
" />
<path d="M64910 44839
L60200 49549
" />
<path d="M61700 53049
L61700 55449
" />
<path d="M62200 52549
L61700 53049
" />
<path d="M62200 49049
L62200 52549
" />
<path d="M65410 45839
L62200 49049
" />
<path d="M67216 45839
L65410 45839
" />
<path d="M59825 40900
L59641 40900
" />
<path d="M59641 40900
L58950 41591
" />
<path d="M59641 40900
L58950 40209
" />
<path d="M58241 37752
L58241 42441
" />
<path d="M58509 42709
L58950 42709
" />
<path d="M58241 42441
L58509 42709
" />
<path d="M54750 36700
L54750 34250
" />
<path d="M54750 34250
L54200 33700
" />
<path d="M53516 33016
L54200 33700
" />
<path d="M53516 32240
L53516 33016
" />
<path d="M53450 32307
L53516 32240
" />
<path d="M67216 48839
L66010 48839
" />
<path d="M66010 48839
L64650 50199
" />
<path d="M64650 55399
L64700 55449
" />
<path d="M64650 50199
L64650 55399
" />
<path d="M58831 37752
L58831 38972
" />
<path d="M58831 38972
L58950 39091
" />
<path d="M67216 47839
L65760 47839
" />
<path d="M65760 47839
L63700 49899
" />
<path d="M63700 49899
L63700 55449
" />
<path d="M65660 46839
L67216 46839
" />
<path d="M62700 55449
L62700 53299
" />
<path d="M62700 53049
L62700 53299
" />
<path d="M62950 52799
L62700 53049
" />
<path d="M62950 49549
L62950 52799
" />
<path d="M65660 46839
L62950 49549
" />
</g>
<g style="fill:#000000; fill-opacity:1.0; 
stroke:#000000; stroke-width:393.701; stroke-opacity:1; 
stroke-linecap:round; stroke-linejoin:round;">
<path d="M65700 51400
L65200 50900
" />
<path d="M65700 51400
L65700 55449
" />
<path d="M49200 42400
L49200 41650
" />
<path d="M49200 41650
L48450 40900
" />
<path d="M48200 40900
L48450 40900
" />
<path d="M53950 47150
L49200 42400
" />
</g>
<g style="fill:#000000; fill-opacity:1.0; 
stroke:#000000; stroke-width:196.85; stroke-opacity:1; 
stroke-linecap:round; stroke-linejoin:round;">
<path d="M48216 46839
L50789 46839
" />
<path d="M50789 46839
L53700 49749
" />
<path d="M53700 49749
L53700 55449
" />
<path d="M66150 50199
L66150 49699
" />
<path d="M67216 50839
L66789 50839
" />
<path d="M66789 50839
L66150 50199
" />
<path d="M60690 32240
L60700 32250
" />
<path d="M60690 32240
L60012 32240
" />
<path d="M60700 33150
L59700 33150
" />
<path d="M59700 33150
L59450 32900
" />
<path d="M59450 32900
L59450 32268
" />
<path d="M59422 32240
L59450 32268
" />
</g> 
</svg>
