<?xml version="1.0" standalone="no"?>
 <!DOCTYPE svg PUBLIC "-//W3C//DTD SVG 1.1//EN" 
 "http://www.w3.org/Graphics/SVG/1.1/DTD/svg11.dtd"> 
<svg xmlns="http://www.w3.org/2000/svg" version="1.1" 
    width="41.9989cm" height="29.7002cm" viewBox="0 0 165350 116930 ">
<title>SVG Picture created as Cartridge-F_Mask.svg date 2015/10/27 07:22:48 </title>
  <desc>Picture generated by PCBNEW </desc>
<g style="fill:#000000; fill-opacity:1;stroke:#000000; stroke-opacity:1;
stroke-linecap:round; stroke-linejoin:round; "
 transform="translate(0 0) scale(1 1)">
</g>
<g style="fill:#000000; fill-opacity:0.0; 
stroke:#000000; stroke-width:78.7402; stroke-opacity:1; 
stroke-linecap:round; stroke-linejoin:round;">
<circle cx="52150" cy="42199.6" r="50" /> 
</g>
<g style="fill:#000000; fill-opacity:0.0; 
stroke:#000000; stroke-width:59.0551; stroke-opacity:1; 
stroke-linecap:round; stroke-linejoin:round;">
</g>
<g style="fill:#000000; fill-opacity:1.0; 
stroke:#000000; stroke-width:59.0551; stroke-opacity:1; 
stroke-linecap:round; stroke-linejoin:round;">
<polyline style="fill-rule:evenodd;"
points="59845,31876
60180,31876
60180,32604
59845,32604
59845,31876
" /> 
<polyline style="fill-rule:evenodd;"
points="59255,31876
59589,31876
59589,32604
59255,32604
59255,31876
" /> 
<polyline style="fill-rule:evenodd;"
points="58664,31876
58999,31876
58999,32604
58664,32604
58664,31876
" /> 
<polyline style="fill-rule:evenodd;"
points="58074,31876
58408,31876
58408,32604
58074,32604
58074,31876
" /> 
<polyline style="fill-rule:evenodd;"
points="57483,31876
57818,31876
57818,32604
57483,32604
57483,31876
" /> 
<polyline style="fill-rule:evenodd;"
points="56892,31876
57227,31876
57227,32604
56892,32604
56892,31876
" /> 
<polyline style="fill-rule:evenodd;"
points="56302,31876
56637,31876
56637,32604
56302,32604
56302,31876
" /> 
<polyline style="fill-rule:evenodd;"
points="55711,31876
56046,31876
56046,32604
55711,32604
55711,31876
" /> 
<polyline style="fill-rule:evenodd;"
points="55121,31876
55455,31876
55455,32604
55121,32604
55121,31876
" /> 
<polyline style="fill-rule:evenodd;"
points="54530,31876
54865,31876
54865,32604
54530,32604
54530,31876
" /> 
<polyline style="fill-rule:evenodd;"
points="53940,31876
54274,31876
54274,32604
53940,32604
53940,31876
" /> 
<polyline style="fill-rule:evenodd;"
points="53349,31876
53684,31876
53684,32604
53349,32604
53349,31876
" /> 
<polyline style="fill-rule:evenodd;"
points="52759,31876
53093,31876
53093,32604
52759,32604
52759,31876
" /> 
<polyline style="fill-rule:evenodd;"
points="51676,33096
51676,32762
52404,32762
52404,33096
51676,33096
" /> 
<polyline style="fill-rule:evenodd;"
points="51676,33687
51676,33352
52404,33352
52404,33687
51676,33687
" /> 
<polyline style="fill-rule:evenodd;"
points="51676,34277
51676,33943
52404,33943
52404,34277
51676,34277
" /> 
<polyline style="fill-rule:evenodd;"
points="51676,34868
51676,34533
52404,34533
52404,34868
51676,34868
" /> 
<polyline style="fill-rule:evenodd;"
points="51676,35459
51676,35124
52404,35124
52404,35459
51676,35459
" /> 
<polyline style="fill-rule:evenodd;"
points="51676,36049
51676,35714
52404,35714
52404,36049
51676,36049
" /> 
<polyline style="fill-rule:evenodd;"
points="51676,36640
51676,36305
52404,36305
52404,36640
51676,36640
" /> 
<polyline style="fill-rule:evenodd;"
points="51676,37230
51676,36896
52404,36896
52404,37230
51676,37230
" /> 
<polyline style="fill-rule:evenodd;"
points="52759,37388
53093,37388
53093,38116
52759,38116
52759,37388
" /> 
<polyline style="fill-rule:evenodd;"
points="53349,37388
53684,37388
53684,38116
53349,38116
53349,37388
" /> 
<polyline style="fill-rule:evenodd;"
points="53940,37388
54274,37388
54274,38116
53940,38116
53940,37388
" /> 
<polyline style="fill-rule:evenodd;"
points="54530,37388
54865,37388
54865,38116
54530,38116
54530,37388
" /> 
<polyline style="fill-rule:evenodd;"
points="55121,37388
55455,37388
55455,38116
55121,38116
55121,37388
" /> 
<polyline style="fill-rule:evenodd;"
points="55711,37388
56046,37388
56046,38116
55711,38116
55711,37388
" /> 
<polyline style="fill-rule:evenodd;"
points="56302,37388
56637,37388
56637,38116
56302,38116
56302,37388
" /> 
<polyline style="fill-rule:evenodd;"
points="56892,37388
57227,37388
57227,38116
56892,38116
56892,37388
" /> 
<polyline style="fill-rule:evenodd;"
points="57483,37388
57818,37388
57818,38116
57483,38116
57483,37388
" /> 
<polyline style="fill-rule:evenodd;"
points="58074,37388
58408,37388
58408,38116
58074,38116
58074,37388
" /> 
<polyline style="fill-rule:evenodd;"
points="58664,37388
58999,37388
58999,38116
58664,38116
58664,37388
" /> 
<polyline style="fill-rule:evenodd;"
points="59255,37388
59589,37388
59589,38116
59255,38116
59255,37388
" /> 
<polyline style="fill-rule:evenodd;"
points="59845,37388
60180,37388
60180,38116
59845,38116
59845,37388
" /> 
<circle cx="61200.8" cy="51901.6" r="580.709" /> 
<polyline style="fill-rule:evenodd;"
points="56429,42645
56429,42154
56720,42154
56720,42645
56429,42645
" /> 
<polyline style="fill-rule:evenodd;"
points="57179,42645
57179,42154
57470,42154
57470,42645
57179,42645
" /> 
<polyline style="fill-rule:evenodd;"
points="56429,39645
56429,39154
56720,39154
56720,39645
56429,39645
" /> 
<polyline style="fill-rule:evenodd;"
points="57179,39645
57179,39154
57470,39154
57470,39645
57179,39645
" /> 
<polyline style="fill-rule:evenodd;"
points="59679,41145
59679,40654
59970,40654
59970,41145
59679,41145
" /> 
<polyline style="fill-rule:evenodd;"
points="60429,41145
60429,40654
60720,40654
60720,41145
60429,41145
" /> 
<polyline style="fill-rule:evenodd;"
points="58625,38806
59274,38806
59274,39375
58625,39375
58625,38806
" /> 
<polyline style="fill-rule:evenodd;"
points="58625,39924
59274,39924
59274,40493
58625,40493
58625,39924
" /> 
<polyline style="fill-rule:evenodd;"
points="59274,42993
58625,42993
58625,42424
59274,42424
59274,42993
" /> 
<polyline style="fill-rule:evenodd;"
points="59274,41875
58625,41875
58625,41306
59274,41306
59274,41875
" /> 
<circle cx="48200" cy="39900" r="265.748" /> 
<circle cx="48200" cy="38900" r="265.748" /> 
<circle cx="48200" cy="42900" r="265.748" /> 
<circle cx="48200" cy="43900" r="265.748" /> 
<circle cx="48200" cy="41900" r="265.748" /> 
<circle cx="48200" cy="40900" r="265.748" /> 
<circle cx="48200" cy="47900" r="265.748" /> 
<circle cx="48200" cy="48900" r="265.748" /> 
<circle cx="48200" cy="50900" r="265.748" /> 
<circle cx="48200" cy="49900" r="265.748" /> 
<circle cx="48200" cy="45900" r="265.748" /> 
<circle cx="48200" cy="46900" r="265.748" /> 
<circle cx="67200" cy="43900" r="265.748" /> 
<circle cx="67200" cy="44900" r="265.748" /> 
<circle cx="67200" cy="46900" r="265.748" /> 
<circle cx="67200" cy="45900" r="265.748" /> 
<circle cx="67200" cy="49900" r="265.748" /> 
<circle cx="67200" cy="50900" r="265.748" /> 
<circle cx="67200" cy="48900" r="265.748" /> 
<circle cx="67200" cy="47900" r="265.748" /> 
<circle cx="67200" cy="39400" r="265.748" /> 
<circle cx="67200" cy="40400" r="265.748" /> 
<circle cx="67200" cy="42400" r="265.748" /> 
<circle cx="67200" cy="41400" r="265.748" /> 
<circle cx="67200" cy="37400" r="265.748" /> 
<circle cx="67200" cy="38400" r="265.748" /> 
<circle cx="67200" cy="36400" r="265.748" /> 
<circle cx="67200" cy="35400" r="265.748" /> 
<polyline style="fill-rule:evenodd;"
points="49335,57388
49335,53510
50064,53510
50064,57388
49335,57388
" /> 
<polyline style="fill-rule:evenodd;"
points="50335,57388
50335,53510
51064,53510
51064,57388
50335,57388
" /> 
<polyline style="fill-rule:evenodd;"
points="51335,57388
51335,53510
52064,53510
52064,57388
51335,57388
" /> 
<polyline style="fill-rule:evenodd;"
points="52335,57388
52335,53510
53064,53510
53064,57388
52335,57388
" /> 
<polyline style="fill-rule:evenodd;"
points="53335,57388
53335,53510
54064,53510
54064,57388
53335,57388
" /> 
<polyline style="fill-rule:evenodd;"
points="54335,57388
54335,53510
55064,53510
55064,57388
54335,57388
" /> 
<polyline style="fill-rule:evenodd;"
points="55335,57388
55335,53510
56064,53510
56064,57388
55335,57388
" /> 
<polyline style="fill-rule:evenodd;"
points="56335,57388
56335,53510
57064,53510
57064,57388
56335,57388
" /> 
<polyline style="fill-rule:evenodd;"
points="57335,57388
57335,53510
58064,53510
58064,57388
57335,57388
" /> 
<polyline style="fill-rule:evenodd;"
points="58335,57388
58335,53510
59064,53510
59064,57388
58335,57388
" /> 
<polyline style="fill-rule:evenodd;"
points="59335,57388
59335,53510
60064,53510
60064,57388
59335,57388
" /> 
<polyline style="fill-rule:evenodd;"
points="60335,57388
60335,53510
61064,53510
61064,57388
60335,57388
" /> 
<polyline style="fill-rule:evenodd;"
points="61335,57388
61335,53510
62064,53510
62064,57388
61335,57388
" /> 
<polyline style="fill-rule:evenodd;"
points="62335,57388
62335,53510
63064,53510
63064,57388
62335,57388
" /> 
<polyline style="fill-rule:evenodd;"
points="63335,57388
63335,53510
64064,53510
64064,57388
63335,57388
" /> 
<polyline style="fill-rule:evenodd;"
points="64335,57388
64335,53510
65064,53510
65064,57388
64335,57388
" /> 
<polyline style="fill-rule:evenodd;"
points="65335,57388
65335,53510
66064,53510
66064,57388
65335,57388
" /> 
<circle cx="52649.6" cy="42444.9" r="265.748" /> 
<circle cx="52649.6" cy="39444.9" r="265.748" /> 
<circle cx="53649.6" cy="42444.9" r="265.748" /> 
<circle cx="53649.6" cy="39444.9" r="265.748" /> 
<circle cx="67200.8" cy="31901.6" r="580.709" /> 
<circle cx="49200.8" cy="31401.6" r="580.709" /> 
<polyline style="fill-rule:evenodd;"
points="50644,35429
50644,35173
50979,35173
50979,35429
50644,35429
" /> 
<polyline style="fill-rule:evenodd;"
points="50644,36807
50644,36551
50979,36551
50979,36807
50644,36807
" /> 
<polyline style="fill-rule:evenodd;"
points="48085,36807
48085,36551
48420,36551
48420,36807
48085,36807
" /> 
<polyline style="fill-rule:evenodd;"
points="48085,35429
48085,35173
48420,35173
48420,35429
48085,35429
" /> 
</g> 
</svg>
