<?xml version="1.0" standalone="no"?>
 <!DOCTYPE svg PUBLIC "-//W3C//DTD SVG 1.1//EN" 
 "http://www.w3.org/Graphics/SVG/1.1/DTD/svg11.dtd"> 
<svg xmlns="http://www.w3.org/2000/svg" version="1.1" 
    width="41.9989cm" height="29.7002cm" viewBox="0 0 165350 116930 ">
<title>SVG Picture created as Cartridge-F_SilkS.svg date 2015/10/27 07:22:48 </title>
  <desc>Picture generated by PCBNEW </desc>
<g style="fill:#000000; fill-opacity:1;stroke:#000000; stroke-opacity:1;
stroke-linecap:round; stroke-linejoin:round; "
 transform="translate(0 0) scale(1 1)">
</g>
<g style="fill:#000000; fill-opacity:0.0; 
stroke:#000000; stroke-width:78.7402; stroke-opacity:1; 
stroke-linecap:round; stroke-linejoin:round;">
<path d="M67031 31858
L67031 31866
" />
<path d="M67200 31318
L67208 31318
" />
</g>
<g style="fill:#000000; fill-opacity:0.0; 
stroke:#000000; stroke-width:118.11; stroke-opacity:1; 
stroke-linecap:round; stroke-linejoin:round;">
<path d="M50590 46147
L50703 46184
L50890 46184
L50965 46147
L51002 46109
L51040 46034
L51040 45959
L51002 45884
L50965 45847
L50890 45809
L50740 45772
L50665 45734
L50628 45697
L50590 45622
L50590 45547
L50628 45472
L50665 45434
L50740 45397
L50928 45397
L51040 45434
" />
<path d="M51715 46147
L51640 46184
L51490 46184
L51415 46147
L51377 46109
L51340 46034
L51340 45809
L51377 45734
L51415 45697
L51490 45659
L51640 45659
L51715 45697
" />
<path d="M52052 46184
L52052 45659
" />
<path d="M52052 45809
L52090 45734
L52127 45697
L52202 45659
L52277 45659
" />
<path d="M52877 46184
L52877 45772
L52840 45697
L52765 45659
L52615 45659
L52540 45697
" />
<path d="M52877 46147
L52802 46184
L52615 46184
L52540 46147
L52502 46072
L52502 45997
L52540 45922
L52615 45884
L52802 45884
L52877 45847
" />
<path d="M53140 45659
L53440 45659
" />
<path d="M53252 45397
L53252 46072
L53290 46147
L53365 46184
L53440 46184
" />
<path d="M54040 46147
L53965 46184
L53815 46184
L53740 46147
L53702 46109
L53665 46034
L53665 45809
L53702 45734
L53740 45697
L53815 45659
L53965 45659
L54040 45697
" />
<path d="M54377 46184
L54377 45397
" />
<path d="M54715 46184
L54715 45772
L54677 45697
L54602 45659
L54490 45659
L54415 45697
L54377 45734
" />
<path d="M55089 46184
L55089 45397
L55277 45397
L55389 45434
L55464 45509
L55502 45584
L55539 45734
L55539 45847
L55502 45997
L55464 46072
L55389 46147
L55277 46184
L55089 46184
" />
<path d="M56214 45659
L56214 46184
" />
<path d="M55877 45659
L55877 46072
L55914 46147
L55989 46184
L56102 46184
L56177 46147
L56214 46109
" />
<path d="M56589 46184
L56589 45659
" />
<path d="M56589 45397
L56552 45434
L56589 45472
L56627 45434
L56589 45397
L56589 45472
" />
<path d="M56964 45659
L56964 46184
" />
<path d="M56964 45734
L57002 45697
L57077 45659
L57189 45659
L57264 45697
L57302 45772
L57302 46184
" />
<path d="M57789 46184
L57714 46147
L57677 46109
L57639 46034
L57639 45809
L57677 45734
L57714 45697
L57789 45659
L57902 45659
L57977 45697
L58014 45734
L58052 45809
L58052 46034
L58014 46109
L57977 46147
L57902 46184
L57789 46184
" />
<path d="M58952 46147
L59064 46184
L59251 46184
L59326 46147
L59364 46109
L59401 46034
L59401 45959
L59364 45884
L59326 45847
L59251 45809
L59101 45772
L59026 45734
L58989 45697
L58952 45622
L58952 45547
L58989 45472
L59026 45434
L59101 45397
L59289 45397
L59401 45434
" />
<path d="M59739 46184
L59739 45397
" />
<path d="M60076 46184
L60076 45772
L60039 45697
L59964 45659
L59851 45659
L59776 45697
L59739 45734
" />
<path d="M60451 46184
L60451 45659
" />
<path d="M60451 45397
L60414 45434
L60451 45472
L60489 45434
L60451 45397
L60451 45472
" />
<path d="M61126 46147
L61051 46184
L60901 46184
L60826 46147
L60789 46072
L60789 45772
L60826 45697
L60901 45659
L61051 45659
L61126 45697
L61164 45772
L61164 45847
L60789 45922
" />
<path d="M61614 46184
L61539 46147
L61501 46072
L61501 45397
" />
<path d="M62251 46184
L62251 45397
" />
<path d="M62251 46147
L62176 46184
L62026 46184
L61951 46147
L61914 46109
L61876 46034
L61876 45809
L61914 45734
L61951 45697
L62026 45659
L62176 45659
L62251 45697
" />
<path d="M63376 45397
L63451 45397
L63526 45434
L63563 45472
L63601 45547
L63638 45697
L63638 45884
L63601 46034
L63563 46109
L63526 46147
L63451 46184
L63376 46184
L63301 46147
L63263 46109
L63226 46034
L63188 45884
L63188 45697
L63226 45547
L63263 45472
L63301 45434
L63376 45397
" />
<path d="M63976 46109
L64013 46147
L63976 46184
L63938 46147
L63976 46109
L63976 46184
" />
<path d="M64688 45659
L64688 46184
" />
<path d="M64501 45359
L64313 45922
L64801 45922
" />
<path d="M47620 34648
L47292 34179
" />
<path d="M47058 34648
L47058 33664
L47433 33664
L47526 33711
L47573 33757
L47620 33851
L47620 33992
L47573 34085
L47526 34132
L47433 34179
L47058 34179
" />
<path d="M48042 34132
L48370 34132
" />
<path d="M48511 34648
L48042 34648
L48042 33664
L48511 33664
" />
<path d="M48885 34601
L49026 34648
L49260 34648
L49354 34601
L49401 34554
L49448 34460
L49448 34367
L49401 34273
L49354 34226
L49260 34179
L49073 34132
L48979 34085
L48932 34039
L48885 33945
L48885 33851
L48932 33757
L48979 33711
L49073 33664
L49307 33664
L49448 33711
" />
<path d="M49870 34132
L50198 34132
" />
<path d="M50338 34648
L49870 34648
L49870 33664
L50338 33664
" />
<path d="M50620 33664
L51182 33664
" />
<path d="M50901 34648
L50901 33664
" />
<path d="M54640 41117
L55109 41117
" />
<path d="M54546 41398
L54875 40414
L55203 41398
" />
<path d="M55390 40414
L55953 40414
" />
<path d="M55671 41398
L55671 40414
" />
<path d="M50695 40882
L50835 40929
L50882 40976
L50929 41070
L50929 41210
L50882 41304
L50835 41351
L50742 41398
L50367 41398
L50367 40414
L50695 40414
L50789 40461
L50835 40507
L50882 40601
L50882 40695
L50835 40789
L50789 40835
L50695 40882
L50367 40882
" />
<path d="M51210 40414
L51773 40414
" />
<path d="M51492 41398
L51492 40414
" />
<path d="M59737 42360
L59822 42389
L59962 42389
L60018 42360
L60047 42332
L60075 42276
L60075 42220
L60047 42164
L60018 42135
L59962 42107
L59850 42079
L59793 42051
L59765 42023
L59737 41967
L59737 41910
L59765 41854
L59793 41826
L59850 41798
L59990 41798
L60075 41826
" />
<path d="M60243 41798
L60581 41798
" />
<path d="M60412 42389
L60412 41798
" />
<path d="M60750 42220
L61031 42220
" />
<path d="M60693 42389
L60890 41798
L61087 42389
" />
<path d="M61200 41798
L61537 41798
" />
<path d="M61368 42389
L61368 41798
" />
<path d="M61734 41798
L61734 42276
L61762 42332
L61790 42360
L61846 42389
L61959 42389
L62015 42360
L62043 42332
L62071 42276
L62071 41798
" />
<path d="M62324 42360
L62409 42389
L62549 42389
L62606 42360
L62634 42332
L62662 42276
L62662 42220
L62634 42164
L62606 42135
L62549 42107
L62437 42079
L62381 42051
L62352 42023
L62324 41967
L62324 41910
L62352 41854
L62381 41826
L62437 41798
L62577 41798
L62662 41826
" />
<path d="M59917 39832
L59889 39860
L59804 39889
L59748 39889
L59664 39860
L59608 39804
L59579 39748
L59551 39635
L59551 39551
L59579 39439
L59608 39382
L59664 39326
L59748 39298
L59804 39298
L59889 39326
L59917 39354
" />
<path d="M60282 39298
L60395 39298
L60451 39326
L60507 39382
L60536 39495
L60536 39692
L60507 39804
L60451 39860
L60395 39889
L60282 39889
L60226 39860
L60170 39804
L60142 39692
L60142 39495
L60170 39382
L60226 39326
L60282 39298
" />
<path d="M60789 39889
L60789 39298
L61126 39889
L61126 39298
" />
<path d="M61407 39889
L61407 39298
L61745 39889
L61745 39298
" />
<path d="M62026 39579
L62223 39579
" />
<path d="M62307 39889
L62026 39889
L62026 39298
L62307 39298
" />
<path d="M62898 39832
L62870 39860
L62785 39889
L62729 39889
L62645 39860
L62588 39804
L62560 39748
L62532 39635
L62532 39551
L62560 39439
L62588 39382
L62645 39326
L62729 39298
L62785 39298
L62870 39326
L62898 39354
" />
<path d="M63066 39298
L63404 39298
" />
<path d="M63235 39889
L63235 39298
" />
</g>
<g style="fill:#000000; fill-opacity:0.0; 
stroke:#000000; stroke-width:59.0551; stroke-opacity:1; 
stroke-linecap:round; stroke-linejoin:round;">
<path d="M51450 31650
L51450 38342
" />
<path d="M51450 38342
L63654 38342
" />
<path d="M63654 31650
L63654 38342
" />
<path d="M63654 31650
L51450 31650
" />
</g>
<g style="fill:#000000; fill-opacity:0.0; 
stroke:#000000; stroke-width:39; stroke-opacity:1; 
stroke-linecap:round; stroke-linejoin:round;">
<path d="M56750 42700
L56350 42700
" />
<path d="M56350 42700
L56350 42100
" />
<path d="M56350 42100
L56750 42100
" />
<path d="M57150 42100
L57550 42100
" />
<path d="M57550 42100
L57550 42700
" />
<path d="M57550 42700
L57150 42700
" />
<path d="M56750 39700
L56350 39700
" />
<path d="M56350 39700
L56350 39100
" />
<path d="M56350 39100
L56750 39100
" />
<path d="M57150 39100
L57550 39100
" />
<path d="M57550 39100
L57550 39700
" />
<path d="M57550 39700
L57150 39700
" />
<path d="M60000 41200
L59600 41200
" />
<path d="M59600 41200
L59600 40600
" />
<path d="M59600 40600
L60000 40600
" />
<path d="M60400 40600
L60800 40600
" />
<path d="M60800 40600
L60800 41200
" />
<path d="M60800 41200
L60400 41200
" />
</g>
<g style="fill:#000000; fill-opacity:0.0; 
stroke:#000000; stroke-width:26; stroke-opacity:1; 
stroke-linecap:round; stroke-linejoin:round;">
<path d="M58911 39611
L58911 39689
" />
<path d="M58911 39689
L58989 39689
" />
<path d="M58989 39611
L58989 39689
" />
<path d="M58911 39611
L58989 39611
" />
<path d="M58675 39827
L58675 39964
" />
<path d="M58675 39964
L58773 39964
" />
<path d="M58773 39827
L58773 39964
" />
<path d="M58675 39827
L58773 39827
" />
<path d="M58675 39964
L58675 40004
" />
<path d="M58675 40004
L59146 40004
" />
<path d="M59146 39964
L59146 40004
" />
<path d="M58675 39964
L59146 39964
" />
<path d="M59166 39964
L59166 40004
" />
<path d="M59166 40004
L59225 40004
" />
<path d="M59225 39964
L59225 40004
" />
<path d="M59166 39964
L59225 39964
" />
<path d="M58675 39296
L58675 39336
" />
<path d="M58675 39336
L59146 39336
" />
<path d="M59146 39296
L59146 39336
" />
<path d="M58675 39296
L59146 39296
" />
<path d="M59166 39296
L59166 39336
" />
<path d="M59166 39336
L59225 39336
" />
<path d="M59225 39296
L59225 39336
" />
<path d="M59166 39296
L59225 39296
" />
<path d="M58675 39827
L58675 39886
" />
<path d="M58675 39886
L58773 39886
" />
<path d="M58773 39827
L58773 39886
" />
<path d="M58675 39827
L58773 39827
" />
</g>
<g style="fill:#000000; fill-opacity:0.0; 
stroke:#000000; stroke-width:40; stroke-opacity:1; 
stroke-linecap:round; stroke-linejoin:round;">
<path d="M58655 40260
L58655 39040
" />
<path d="M58655 39040
L59245 39040
" />
<path d="M59245 39040
L59245 40260
" />
<path d="M59245 40260
L58655 40260
" />
<path d="M58753.3 39434.6 A291.671 291.671 0.0 0 0 58754.1 39866.1 " />
<path d="M59146.3 39434.3 A291.671 291.671 0.0 0 0 58754.1 39433.9 " />
<path d="M59146.7 39865.4 A291.671 291.671 0.0 0 0 59145.9 39433.9 " />
<path d="M58753.7 39865.7 A291.671 291.671 0.0 0 0 59145.9 39866.1 " />
</g>
<g style="fill:#000000; fill-opacity:0.0; 
stroke:#000000; stroke-width:26; stroke-opacity:1; 
stroke-linecap:round; stroke-linejoin:round;">
<path d="M58989 42189
L58989 42111
" />
<path d="M58989 42111
L58911 42111
" />
<path d="M58911 42189
L58911 42111
" />
<path d="M58989 42189
L58911 42189
" />
<path d="M59225 41973
L59225 41836
" />
<path d="M59225 41836
L59127 41836
" />
<path d="M59127 41973
L59127 41836
" />
<path d="M59225 41973
L59127 41973
" />
<path d="M59225 41836
L59225 41796
" />
<path d="M59225 41796
L58754 41796
" />
<path d="M58754 41836
L58754 41796
" />
<path d="M59225 41836
L58754 41836
" />
<path d="M58734 41836
L58734 41796
" />
<path d="M58734 41796
L58675 41796
" />
<path d="M58675 41836
L58675 41796
" />
<path d="M58734 41836
L58675 41836
" />
<path d="M59225 42504
L59225 42464
" />
<path d="M59225 42464
L58754 42464
" />
<path d="M58754 42504
L58754 42464
" />
<path d="M59225 42504
L58754 42504
" />
<path d="M58734 42504
L58734 42464
" />
<path d="M58734 42464
L58675 42464
" />
<path d="M58675 42504
L58675 42464
" />
<path d="M58734 42504
L58675 42504
" />
<path d="M59225 41973
L59225 41914
" />
<path d="M59225 41914
L59127 41914
" />
<path d="M59127 41973
L59127 41914
" />
<path d="M59225 41973
L59127 41973
" />
</g>
<g style="fill:#000000; fill-opacity:0.0; 
stroke:#000000; stroke-width:40; stroke-opacity:1; 
stroke-linecap:round; stroke-linejoin:round;">
<path d="M59245 41540
L59245 42760
" />
<path d="M59245 42760
L58655 42760
" />
<path d="M58655 42760
L58655 41540
" />
<path d="M58655 41540
L59245 41540
" />
<path d="M59146.7 42365.4 A291.671 291.671 0.0 0 0 59145.9 41933.9 " />
<path d="M58753.7 42365.7 A291.671 291.671 0.0 0 0 59145.9 42366.1 " />
<path d="M58753.3 41934.6 A291.671 291.671 0.0 0 0 58754.1 42366.1 " />
<path d="M59146.3 41934.3 A291.671 291.671 0.0 0 0 58754.1 41933.9 " />
</g>
<g style="fill:#000000; fill-opacity:0.0; 
stroke:#000000; stroke-width:59.0551; stroke-opacity:1; 
stroke-linecap:round; stroke-linejoin:round;">
<path d="M66700 42900
L67700 42900
" />
<path d="M67700 42900
L67700 34900
" />
<path d="M67700 34900
L66700 34900
" />
<path d="M66700 34900
L66700 42900
" />
<path d="M66700 51400
L67700 51400
" />
<path d="M67700 51400
L67700 43400
" />
<path d="M67700 43400
L66700 43400
" />
<path d="M66700 43400
L66700 51400
" />
<path d="M47700 44400
L48700 44400
" />
<path d="M48700 44400
L48700 38400
" />
<path d="M48700 38400
L47700 38400
" />
<path d="M47700 38400
L47700 44400
" />
<path d="M47700 51400
L48700 51400
" />
<path d="M48700 51400
L48700 45400
" />
<path d="M48700 45400
L47700 45400
" />
<path d="M47700 45400
L47700 51400
" />
<path d="M52165 38976
L54133 38976
" />
<path d="M54133 38976
L54133 42913
" />
<path d="M54133 42913
L52165 42913
" />
<path d="M52165 42913
L52165 38976
" />
<circle cx="49532.7" cy="35990.6" r="556.777" /> 
<path d="M48548 36974
L50516 36974
" />
<path d="M50516 36974
L50516 35006
" />
<path d="M50516 35006
L48548 35006
" />
<path d="M48548 35006
L48548 36974
" />
<path d="M57900 34765
L57900 35084
L57918 35121
L57937 35140
L57975 35159
L58050 35159
L58087 35140
L58106 35121
L58125 35084
L58125 34765
" />
<path d="M58518 35159
L58293 35159
" />
<path d="M58406 35159
L58406 34765
L58368 34821
L58331 34859
L58293 34878
" />
<path d="M57171 34409
L57171 34015
" />
<path d="M57171 34203
L57396 34203
" />
<path d="M57396 34409
L57396 34015
" />
<path d="M57809 34371
L57790 34390
L57734 34409
L57696 34409
L57640 34390
L57603 34353
L57584 34315
L57565 34240
L57565 34184
L57584 34109
L57603 34071
L57640 34034
L57696 34015
L57734 34015
L57790 34034
L57809 34053
" />
<path d="M57978 34259
L58278 34259
" />
<path d="M58540 34015
L58578 34015
L58615 34034
L58634 34053
L58653 34090
L58671 34165
L58671 34259
L58653 34334
L58634 34371
L58615 34390
L58578 34409
L58540 34409
L58503 34390
L58484 34371
L58465 34334
L58446 34259
L58446 34165
L58465 34090
L58484 34053
L58503 34034
L58540 34015
" />
<path d="M59028 34015
L58840 34015
L58821 34203
L58840 34184
L58878 34165
L58971 34165
L59009 34184
L59028 34203
L59046 34240
L59046 34334
L59028 34371
L59009 34390
L58971 34409
L58878 34409
L58840 34390
L58821 34371
" />
<path d="M60038 50960
L60038 50567
L60263 50960
L60263 50567
" />
<path d="M60450 50960
L60450 50567
L60600 50567
L60638 50585
L60657 50604
L60675 50642
L60675 50698
L60657 50735
L60638 50754
L60600 50773
L60450 50773
" />
<path d="M60844 50960
L60844 50567
" />
<path d="M60844 50754
L61069 50754
" />
<path d="M61069 50960
L61069 50567
" />
<path d="M61425 50960
L61425 50567
" />
<path d="M61425 50942
L61388 50960
L61313 50960
L61275 50942
L61257 50923
L61238 50885
L61238 50773
L61257 50735
L61275 50717
L61313 50698
L61388 50698
L61425 50717
" />
<path d="M61575 50567
L61819 50567
L61688 50717
L61744 50717
L61781 50735
L61800 50754
L61819 50792
L61819 50885
L61800 50923
L61781 50942
L61744 50960
L61631 50960
L61594 50942
L61575 50923
" />
<path d="M62006 50942
L62006 50960
L61988 50998
L61969 51017
" />
<path d="M62381 50960
L62156 50960
" />
<path d="M62269 50960
L62269 50567
L62231 50623
L62194 50660
L62156 50679
" />
</g>
<g style="fill:#000000; fill-opacity:0.0; 
stroke:#000000; stroke-width:43; stroke-opacity:1; 
stroke-linecap:round; stroke-linejoin:round;">
<path d="M56517 41979
L56451 41885
" />
<path d="M56404 41979
L56404 41782
L56479 41782
L56498 41792
L56507 41801
L56517 41820
L56517 41848
L56507 41867
L56498 41876
L56479 41885
L56404 41885
" />
<path d="M56704 41979
L56592 41979
" />
<path d="M56648 41979
L56648 41782
L56629 41810
L56610 41829
L56592 41839
" />
<path d="M57076 41782
L56982 41782
L56973 41876
L56982 41867
L57001 41857
L57048 41857
L57067 41867
L57076 41876
L57085 41895
L57085 41942
L57076 41960
L57067 41970
L57048 41979
L57001 41979
L56982 41970
L56973 41960
" />
<path d="M57170 41960
L57179 41970
L57170 41979
L57160 41970
L57170 41960
L57170 41979
" />
<path d="M57348 41782
L57310 41782
L57292 41792
L57282 41801
L57264 41829
L57254 41867
L57254 41942
L57264 41960
L57273 41970
L57292 41979
L57329 41979
L57348 41970
L57357 41960
L57367 41942
L57367 41895
L57357 41876
L57348 41867
L57329 41857
L57292 41857
L57273 41867
L57264 41876
L57254 41895
" />
<path d="M57451 41979
L57451 41782
" />
<path d="M57470 41904
L57526 41979
" />
<path d="M57526 41848
L57451 41923
" />
<path d="M56517 38979
L56451 38885
" />
<path d="M56404 38979
L56404 38782
L56479 38782
L56498 38792
L56507 38801
L56517 38820
L56517 38848
L56507 38867
L56498 38876
L56479 38885
L56404 38885
" />
<path d="M56592 38801
L56601 38792
L56620 38782
L56667 38782
L56686 38792
L56695 38801
L56704 38820
L56704 38839
L56695 38867
L56582 38979
L56704 38979
" />
<path d="M57132 38979
L57020 38979
" />
<path d="M57076 38979
L57076 38782
L57057 38810
L57038 38829
L57020 38839
" />
<path d="M57254 38782
L57273 38782
L57292 38792
L57301 38801
L57310 38820
L57320 38857
L57320 38904
L57310 38942
L57301 38960
L57292 38970
L57273 38979
L57254 38979
L57235 38970
L57226 38960
L57217 38942
L57207 38904
L57207 38857
L57217 38820
L57226 38801
L57235 38792
L57254 38782
" />
<path d="M57404 38979
L57404 38782
" />
<path d="M57423 38904
L57479 38979
" />
<path d="M57479 38848
L57404 38923
" />
<path d="M59817 40479
L59751 40385
" />
<path d="M59704 40479
L59704 40282
L59779 40282
L59798 40292
L59807 40301
L59817 40320
L59817 40348
L59807 40367
L59798 40376
L59779 40385
L59704 40385
" />
<path d="M59882 40282
L60004 40282
L59939 40357
L59967 40357
L59986 40367
L59995 40376
L60004 40395
L60004 40442
L59995 40460
L59986 40470
L59967 40479
L59910 40479
L59892 40470
L59882 40460
" />
<path d="M60526 40479
L60413 40479
" />
<path d="M60470 40479
L60470 40282
L60451 40310
L60432 40329
L60413 40339
" />
<path d="M60610 40479
L60610 40282
" />
<path d="M60629 40404
L60686 40479
" />
<path d="M60686 40348
L60610 40423
" />
</g>
<g style="fill:#000000; fill-opacity:0.0; 
stroke:#000000; stroke-width:35; stroke-opacity:1; 
stroke-linecap:round; stroke-linejoin:round;">
<path d="M58471 39421
L58171 39421
L58171 39350
L58185 39307
L58214 39278
L58242 39264
L58300 39250
L58342 39250
L58400 39264
L58428 39278
L58457 39307
L58471 39350
L58471 39421
" />
<path d="M58200 39135
L58185 39121
L58171 39092
L58171 39021
L58185 38992
L58200 38978
L58228 38964
L58257 38964
L58300 38978
L58471 39150
L58471 38964
" />
<path d="M58471 40392
L58471 40535
L58171 40535
" />
<path d="M58314 40292
L58314 40192
" />
<path d="M58471 40150
L58471 40292
L58171 40292
L58171 40150
" />
<path d="M58471 40021
L58171 40021
L58171 39950
L58185 39907
L58214 39878
L58242 39864
L58300 39850
L58342 39850
L58400 39864
L58428 39878
L58457 39907
L58471 39950
L58471 40021
" />
<path d="M58471 41821
L58171 41821
L58171 41750
L58185 41707
L58214 41678
L58242 41664
L58300 41650
L58342 41650
L58400 41664
L58428 41678
L58457 41707
L58471 41750
L58471 41821
" />
<path d="M58171 41550
L58171 41364
L58285 41464
L58285 41421
L58300 41392
L58314 41378
L58342 41364
L58414 41364
L58442 41378
L58457 41392
L58471 41421
L58471 41507
L58457 41535
L58442 41550
" />
<path d="M58471 42892
L58471 43035
L58171 43035
" />
<path d="M58314 42792
L58314 42692
" />
<path d="M58471 42650
L58471 42792
L58171 42792
L58171 42650
" />
<path d="M58471 42521
L58171 42521
L58171 42450
L58185 42407
L58214 42378
L58242 42364
L58300 42350
L58342 42350
L58400 42364
L58428 42378
L58457 42407
L58471 42450
L58471 42521
" />
</g>
<g style="fill:#000000; fill-opacity:0.0; 
stroke:#000000; stroke-width:59.0551; stroke-opacity:1; 
stroke-linecap:round; stroke-linejoin:round;">
<path d="M60009 31409
L60009 31015
L60103 31015
L60159 31034
L60196 31071
L60215 31109
L60234 31184
L60234 31240
L60215 31315
L60196 31353
L60159 31390
L60103 31409
L60009 31409
" />
<path d="M60609 31409
L60384 31409
" />
<path d="M60496 31409
L60496 31015
L60459 31071
L60421 31109
L60384 31128
" />
<path d="M55681 31296
L55868 31296
" />
<path d="M55644 31409
L55775 31015
L55906 31409
" />
<path d="M56262 31409
L56131 31221
" />
<path d="M56037 31409
L56037 31015
L56187 31015
L56225 31034
L56243 31053
L56262 31090
L56262 31146
L56243 31184
L56225 31203
L56187 31221
L56037 31221
" />
<path d="M56431 31409
L56431 31015
L56525 31015
L56581 31034
L56618 31071
L56637 31109
L56656 31184
L56656 31240
L56637 31315
L56618 31353
L56581 31390
L56525 31409
L56431 31409
" />
<path d="M56825 31015
L56825 31334
L56843 31371
L56862 31390
L56900 31409
L56975 31409
L57012 31390
L57031 31371
L57050 31334
L57050 31015
" />
<path d="M57237 31409
L57237 31015
" />
<path d="M57425 31409
L57425 31015
L57650 31409
L57650 31015
" />
<path d="M57912 31015
L57987 31015
L58024 31034
L58062 31071
L58081 31146
L58081 31278
L58062 31353
L58024 31390
L57987 31409
L57912 31409
L57874 31390
L57837 31353
L57818 31278
L57818 31146
L57837 31071
L57874 31034
L57912 31015
" />
<path d="M58156 31446
L58456 31446
" />
<path d="M58549 31015
L58549 31334
L58568 31371
L58587 31390
L58624 31409
L58699 31409
L58737 31390
L58756 31371
L58774 31334
L58774 31015
" />
<path d="M58962 31409
L58962 31015
L59187 31409
L59187 31015
" />
<path d="M59449 31015
L59524 31015
L59562 31034
L59599 31071
L59618 31146
L59618 31278
L59599 31353
L59562 31390
L59524 31409
L59449 31409
L59412 31390
L59374 31353
L59356 31278
L59356 31146
L59374 31071
L59412 31034
L59449 31015
" />
<path d="M65650 36184
L65612 36165
L65556 36165
L65500 36184
L65462 36221
L65443 36259
L65425 36334
L65425 36390
L65443 36465
L65462 36503
L65500 36540
L65556 36559
L65593 36559
L65650 36540
L65668 36521
L65668 36390
L65593 36390
" />
<path d="M65837 36559
L65837 36165
L66062 36559
L66062 36165
" />
<path d="M66249 36559
L66249 36165
L66343 36165
L66399 36184
L66437 36221
L66456 36259
L66474 36334
L66474 36390
L66456 36465
L66437 36503
L66399 36540
L66343 36559
L66249 36559
" />
<path d="M65471 37559
L65471 37165
L65565 37165
L65621 37184
L65659 37221
L65678 37259
L65696 37334
L65696 37390
L65678 37465
L65659 37503
L65621 37540
L65565 37559
L65471 37559
" />
<path d="M66071 37559
L65846 37559
" />
<path d="M65959 37559
L65959 37165
L65921 37221
L65884 37259
L65846 37278
" />
<path d="M66203 37165
L66446 37165
L66315 37315
L66371 37315
L66409 37334
L66428 37353
L66446 37390
L66446 37484
L66428 37521
L66409 37540
L66371 37559
L66259 37559
L66221 37540
L66203 37521
" />
<path d="M65909 38559
L65909 38165
L66003 38165
L66059 38184
L66096 38221
L66115 38259
L66134 38334
L66134 38390
L66115 38465
L66096 38503
L66059 38540
L66003 38559
L65909 38559
" />
<path d="M66490 38165
L66303 38165
L66284 38353
L66303 38334
L66340 38315
L66434 38315
L66471 38334
L66490 38353
L66509 38390
L66509 38484
L66490 38521
L66471 38540
L66434 38559
L66340 38559
L66303 38540
L66284 38521
" />
<path d="M65909 39559
L65909 39165
L66003 39165
L66059 39184
L66096 39221
L66115 39259
L66134 39334
L66134 39390
L66115 39465
L66096 39503
L66059 39540
L66003 39559
L65909 39559
" />
<path d="M66471 39296
L66471 39559
" />
<path d="M66378 39146
L66284 39428
L66528 39428
" />
<path d="M65909 40559
L65909 40165
L66003 40165
L66059 40184
L66096 40221
L66115 40259
L66134 40334
L66134 40390
L66115 40465
L66096 40503
L66059 40540
L66003 40559
L65909 40559
" />
<path d="M66265 40165
L66509 40165
L66378 40315
L66434 40315
L66471 40334
L66490 40353
L66509 40390
L66509 40484
L66490 40521
L66471 40540
L66434 40559
L66321 40559
L66284 40540
L66265 40521
" />
<path d="M65909 41559
L65909 41165
L66003 41165
L66059 41184
L66096 41221
L66115 41259
L66134 41334
L66134 41390
L66115 41465
L66096 41503
L66059 41540
L66003 41559
L65909 41559
" />
<path d="M66284 41203
L66303 41184
L66340 41165
L66434 41165
L66471 41184
L66490 41203
L66509 41240
L66509 41278
L66490 41334
L66265 41559
L66509 41559
" />
<path d="M65909 42559
L65909 42165
L66003 42165
L66059 42184
L66096 42221
L66115 42259
L66134 42334
L66134 42390
L66115 42465
L66096 42503
L66059 42540
L66003 42559
L65909 42559
" />
<path d="M66509 42559
L66284 42559
" />
<path d="M66396 42559
L66396 42165
L66359 42221
L66321 42259
L66284 42278
" />
<path d="M65928 47853
L66059 47853
" />
<path d="M66115 48059
L65928 48059
L65928 47665
L66115 47665
" />
<path d="M66265 47703
L66284 47684
L66321 47665
L66415 47665
L66453 47684
L66471 47703
L66490 47740
L66490 47778
L66471 47834
L66246 48059
L66490 48059
" />
<path d="M65928 48853
L66059 48853
" />
<path d="M66115 49059
L65928 49059
L65928 48665
L66115 48665
" />
<path d="M66490 49059
L66265 49059
" />
<path d="M66378 49059
L66378 48665
L66340 48721
L66303 48759
L66265 48778
" />
<path d="M65359 44059
L65359 43665
L65453 43665
L65509 43684
L65546 43721
L65565 43759
L65584 43834
L65584 43890
L65565 43965
L65546 44003
L65509 44040
L65453 44059
L65359 44059
" />
<path d="M65753 44059
L65753 43665
" />
<path d="M66165 44059
L66034 43871
" />
<path d="M65940 44059
L65940 43665
L66090 43665
L66128 43684
L66146 43703
L66165 43740
L66165 43796
L66146 43834
L66128 43853
L66090 43871
L65940 43871
" />
<path d="M66465 43853
L66521 43871
L66540 43890
L66559 43928
L66559 43984
L66540 44021
L66521 44040
L66484 44059
L66334 44059
L66334 43665
L66465 43665
L66503 43684
L66521 43703
L66540 43740
L66540 43778
L66521 43815
L66503 43834
L66465 43853
L66334 43853
" />
<path d="M64950 45059
L64950 44665
L65100 44665
L65137 44684
L65156 44703
L65175 44740
L65175 44796
L65156 44834
L65137 44853
L65100 44871
L64950 44871
" />
<path d="M65306 44665
L65400 45059
L65475 44778
L65550 45059
L65643 44665
" />
<path d="M65793 45059
L65793 44665
L65924 44946
L66056 44665
L66056 45059
" />
<path d="M66374 44853
L66431 44871
L66449 44890
L66468 44928
L66468 44984
L66449 45021
L66431 45040
L66393 45059
L66243 45059
L66243 44665
L66374 44665
L66412 44684
L66431 44703
L66449 44740
L66449 44778
L66431 44815
L66412 44834
L66374 44853
L66243 44853
" />
<path d="M64978 46059
L64978 45665
L65128 45665
L65165 45684
L65184 45703
L65203 45740
L65203 45796
L65184 45834
L65165 45853
L65128 45871
L64978 45871
" />
<path d="M65334 45665
L65428 46059
L65503 45778
L65578 46059
L65671 45665
" />
<path d="M65821 46059
L65821 45665
L65953 45946
L66084 45665
L66084 46059
" />
<path d="M66253 45946
L66440 45946
" />
<path d="M66215 46059
L66346 45665
L66478 46059
" />
<path d="M65387 47059
L65387 46665
L65481 46665
L65537 46684
L65575 46721
L65593 46759
L65612 46834
L65612 46890
L65593 46965
L65575 47003
L65537 47040
L65481 47059
L65387 47059
" />
<path d="M65781 47059
L65781 46665
" />
<path d="M66193 47059
L66062 46871
" />
<path d="M65968 47059
L65968 46665
L66118 46665
L66156 46684
L66174 46703
L66193 46740
L66193 46796
L66174 46834
L66156 46853
L66118 46871
L65968 46871
" />
<path d="M66343 46946
L66531 46946
" />
<path d="M66306 47059
L66437 46665
L66568 47059
" />
<path d="M65150 49665
L65375 49665
" />
<path d="M65262 50059
L65262 49665
" />
<path d="M65468 49665
L65731 50059
" />
<path d="M65731 49665
L65468 50059
" />
<path d="M66134 51059
L66003 50871
" />
<path d="M65909 51059
L65909 50665
L66059 50665
L66096 50684
L66115 50703
L66134 50740
L66134 50796
L66115 50834
L66096 50853
L66059 50871
L65909 50871
" />
<path d="M66265 50665
L66528 51059
" />
<path d="M66528 50665
L66265 51059
" />
<path d="M48984 39059
L48853 38871
" />
<path d="M48759 39059
L48759 38665
L48909 38665
L48946 38684
L48965 38703
L48984 38740
L48984 38796
L48965 38834
L48946 38853
L48909 38871
L48759 38871
" />
<path d="M49134 39040
L49190 39059
L49284 39059
L49321 39040
L49340 39021
L49359 38984
L49359 38946
L49340 38909
L49321 38890
L49284 38871
L49209 38853
L49171 38834
L49153 38815
L49134 38778
L49134 38740
L49153 38703
L49171 38684
L49209 38665
L49303 38665
L49359 38684
" />
<path d="M49471 38665
L49696 38665
" />
<path d="M49584 39059
L49584 38665
" />
<path d="M48787 39665
L49031 39665
L48900 39815
L48956 39815
L48993 39834
L49012 39853
L49031 39890
L49031 39984
L49012 40021
L48993 40040
L48956 40059
L48843 40059
L48806 40040
L48787 40021
" />
<path d="M49200 40021
L49218 40040
L49200 40059
L49181 40040
L49200 40021
L49200 40059
" />
<path d="M49349 39665
L49593 39665
L49462 39815
L49518 39815
L49556 39834
L49574 39853
L49593 39890
L49593 39984
L49574 40021
L49556 40040
L49518 40059
L49406 40059
L49368 40040
L49349 40021
" />
<path d="M49125 40665
L48937 40665
L48918 40853
L48937 40834
L48975 40815
L49068 40815
L49106 40834
L49125 40853
L49143 40890
L49143 40984
L49125 41021
L49106 41040
L49068 41059
L48975 41059
L48937 41040
L48918 41021
" />
<path d="M49256 40665
L49387 41059
L49518 40665
" />
<path d="M49050 41684
L49012 41665
L48956 41665
L48900 41684
L48862 41721
L48843 41759
L48825 41834
L48825 41890
L48843 41965
L48862 42003
L48900 42040
L48956 42059
L48993 42059
L49050 42040
L49068 42021
L49068 41890
L48993 41890
" />
<path d="M49237 42059
L49237 41665
L49462 42059
L49462 41665
" />
<path d="M49649 42059
L49649 41665
L49743 41665
L49799 41684
L49837 41721
L49856 41759
L49874 41834
L49874 41890
L49856 41965
L49837 42003
L49799 42040
L49743 42059
L49649 42059
" />
<path d="M49050 42684
L49012 42665
L48956 42665
L48900 42684
L48862 42721
L48843 42759
L48825 42834
L48825 42890
L48843 42965
L48862 43003
L48900 43040
L48956 43059
L48993 43059
L49050 43040
L49068 43021
L49068 42890
L48993 42890
" />
<path d="M49237 43059
L49237 42665
L49462 43059
L49462 42665
" />
<path d="M49649 43059
L49649 42665
L49743 42665
L49799 42684
L49837 42721
L49856 42759
L49874 42834
L49874 42890
L49856 42965
L49837 43003
L49799 43040
L49743 43059
L49649 43059
" />
<path d="M48818 43665
L48950 44059
L49081 43665
" />
<path d="M49212 44059
L49212 43665
" />
<path d="M49399 44059
L49399 43665
L49624 44059
L49624 43665
" />
<path d="M48918 45946
L49106 45946
" />
<path d="M48881 46059
L49012 45665
L49143 46059
" />
<path d="M49349 45665
L49387 45665
L49424 45684
L49443 45703
L49462 45740
L49481 45815
L49481 45909
L49462 45984
L49443 46021
L49424 46040
L49387 46059
L49349 46059
L49312 46040
L49293 46021
L49274 45984
L49256 45909
L49256 45815
L49274 45740
L49293 45703
L49312 45684
L49349 45665
" />
<path d="M48918 46946
L49106 46946
" />
<path d="M48881 47059
L49012 46665
L49143 47059
" />
<path d="M49481 47059
L49256 47059
" />
<path d="M49368 47059
L49368 46665
L49331 46721
L49293 46759
L49256 46778
" />
<path d="M48918 47946
L49106 47946
" />
<path d="M48881 48059
L49012 47665
L49143 48059
" />
<path d="M49256 47703
L49274 47684
L49312 47665
L49406 47665
L49443 47684
L49462 47703
L49481 47740
L49481 47778
L49462 47834
L49237 48059
L49481 48059
" />
<path d="M48918 48946
L49106 48946
" />
<path d="M48881 49059
L49012 48665
L49143 49059
" />
<path d="M49237 48665
L49481 48665
L49349 48815
L49406 48815
L49443 48834
L49462 48853
L49481 48890
L49481 48984
L49462 49021
L49443 49040
L49406 49059
L49293 49059
L49256 49040
L49237 49021
" />
<path d="M48918 49946
L49106 49946
" />
<path d="M48881 50059
L49012 49665
L49143 50059
" />
<path d="M49443 49796
L49443 50059
" />
<path d="M49349 49646
L49256 49928
L49499 49928
" />
<path d="M48918 50946
L49106 50946
" />
<path d="M48881 51059
L49012 50665
L49143 51059
" />
<path d="M49462 50665
L49274 50665
L49256 50853
L49274 50834
L49312 50815
L49406 50815
L49443 50834
L49462 50853
L49481 50890
L49481 50984
L49462 51021
L49443 51040
L49406 51059
L49312 51059
L49274 51040
L49256 51021
" />
<path d="M52624 43447
L52680 43466
L52774 43466
L52812 43447
L52830 43428
L52849 43391
L52849 43353
L52830 43316
L52812 43297
L52774 43278
L52699 43260
L52662 43241
L52643 43222
L52624 43185
L52624 43147
L52643 43110
L52662 43091
L52699 43072
L52793 43072
L52849 43091
" />
<path d="M52980 43072
L53074 43466
L53149 43185
L53224 43466
L53318 43072
" />
<path d="M53674 43466
L53449 43466
" />
<path d="M53562 43466
L53562 43072
L53524 43128
L53487 43166
L53449 43185
" />
<path d="M51087 44056
L51087 43663
L51181 43663
L51237 43682
L51274 43719
L51293 43757
L51312 43832
L51312 43888
L51293 43963
L51274 44000
L51237 44038
L51181 44056
L51087 44056
" />
<path d="M51462 44038
L51518 44056
L51612 44056
L51649 44038
L51668 44019
L51687 43982
L51687 43944
L51668 43907
L51649 43888
L51612 43869
L51537 43850
L51499 43832
L51481 43813
L51462 43775
L51462 43738
L51481 43700
L51499 43682
L51537 43663
L51631 43663
L51687 43682
" />
<path d="M52062 44056
L51837 44056
" />
<path d="M51949 44056
L51949 43663
L51912 43719
L51874 43757
L51837 43775
" />
<path d="M52305 43663
L52343 43663
L52380 43682
L52399 43700
L52418 43738
L52437 43813
L52437 43907
L52418 43982
L52399 44019
L52380 44038
L52343 44056
L52305 44056
L52268 44038
L52249 44019
L52230 43982
L52212 43907
L52212 43813
L52230 43738
L52249 43700
L52268 43682
L52305 43663
" />
<path d="M52774 43794
L52774 44056
" />
<path d="M52680 43644
L52587 43925
L52830 43925
" />
<path d="M53055 43663
L53093 43663
L53130 43682
L53149 43700
L53168 43738
L53187 43813
L53187 43907
L53168 43982
L53149 44019
L53130 44038
L53093 44056
L53055 44056
L53018 44038
L52999 44019
L52980 43982
L52962 43907
L52962 43813
L52980 43738
L52999 43700
L53018 43682
L53055 43663
" />
<path d="M53355 43907
L53655 43907
" />
<path d="M53918 43663
L53955 43663
L53993 43682
L54011 43700
L54030 43738
L54049 43813
L54049 43907
L54030 43982
L54011 44019
L53993 44038
L53955 44056
L53918 44056
L53880 44038
L53862 44019
L53843 43982
L53824 43907
L53824 43813
L53843 43738
L53862 43700
L53880 43682
L53918 43663
" />
<path d="M54199 43700
L54218 43682
L54255 43663
L54349 43663
L54386 43682
L54405 43700
L54424 43738
L54424 43775
L54405 43832
L54180 44056
L54424 44056
" />
<path d="M54818 44056
L54686 43869
" />
<path d="M54593 44056
L54593 43663
L54743 43663
L54780 43682
L54799 43700
L54818 43738
L54818 43794
L54799 43832
L54780 43850
L54743 43869
L54593 43869
" />
<path d="M54986 44056
L54986 43663
L55211 44056
L55211 43663
" />
<path d="M66037 33309
L66037 32915
L66262 33309
L66262 32915
" />
<path d="M66450 33309
L66450 32915
L66600 32915
L66637 32934
L66656 32953
L66675 32990
L66675 33046
L66656 33084
L66637 33103
L66600 33121
L66450 33121
" />
<path d="M66843 33309
L66843 32915
" />
<path d="M66843 33103
L67068 33103
" />
<path d="M67068 33309
L67068 32915
" />
<path d="M67424 33309
L67424 32915
" />
<path d="M67424 33290
L67387 33309
L67312 33309
L67274 33290
L67256 33271
L67237 33234
L67237 33121
L67256 33084
L67274 33065
L67312 33046
L67387 33046
L67424 33065
" />
<path d="M67574 32915
L67818 32915
L67687 33065
L67743 33065
L67781 33084
L67799 33103
L67818 33140
L67818 33234
L67799 33271
L67781 33290
L67743 33309
L67631 33309
L67593 33290
L67574 33271
" />
<path d="M68006 33290
L68006 33309
L67987 33346
L67968 33365
" />
<path d="M68381 33309
L68156 33309
" />
<path d="M68268 33309
L68268 32915
L68231 32971
L68193 33009
L68156 33028
" />
<path d="M48237 32759
L48237 32365
L48462 32759
L48462 32365
" />
<path d="M48650 32759
L48650 32365
L48800 32365
L48837 32384
L48856 32403
L48875 32440
L48875 32496
L48856 32534
L48837 32553
L48800 32571
L48650 32571
" />
<path d="M49043 32759
L49043 32365
" />
<path d="M49043 32553
L49268 32553
" />
<path d="M49268 32759
L49268 32365
" />
<path d="M49624 32759
L49624 32365
" />
<path d="M49624 32740
L49587 32759
L49512 32759
L49474 32740
L49456 32721
L49437 32684
L49437 32571
L49456 32534
L49474 32515
L49512 32496
L49587 32496
L49624 32515
" />
<path d="M49774 32365
L50018 32365
L49887 32515
L49943 32515
L49981 32534
L49999 32553
L50018 32590
L50018 32684
L49999 32721
L49981 32740
L49943 32759
L49831 32759
L49793 32740
L49774 32721
" />
<path d="M50206 32740
L50206 32759
L50187 32796
L50168 32815
" />
<path d="M50581 32759
L50356 32759
" />
<path d="M50468 32759
L50468 32365
L50431 32421
L50393 32459
L50356 32478
" />
<path d="M49075 37590
L49131 37609
L49225 37609
L49262 37590
L49281 37571
L49300 37534
L49300 37496
L49281 37459
L49262 37440
L49225 37421
L49150 37403
L49112 37384
L49093 37365
L49075 37328
L49075 37290
L49093 37253
L49112 37234
L49150 37215
L49243 37215
L49300 37234
" />
<path d="M49431 37215
L49525 37609
L49600 37328
L49674 37609
L49768 37215
" />
<path d="M49881 37215
L50124 37215
L49993 37365
L50049 37365
L50087 37384
L50106 37403
L50124 37440
L50124 37534
L50106 37571
L50087 37590
L50049 37609
L49937 37609
L49899 37590
L49881 37571
" />
<path d="M48054 37548
L48110 37567
L48204 37567
L48241 37548
L48260 37529
L48279 37492
L48279 37454
L48260 37417
L48241 37398
L48204 37379
L48129 37361
L48091 37342
L48073 37323
L48054 37286
L48054 37248
L48073 37211
L48091 37192
L48129 37173
L48223 37173
L48279 37192
" />
<path d="M48410 37173
L48504 37567
L48579 37286
L48654 37567
L48748 37173
" />
<path d="M48841 37173
L49066 37173
" />
<path d="M48954 37567
L48954 37173
" />
<path d="M49198 37417
L49497 37417
" />
<path d="M49741 37342
L49704 37323
L49685 37304
L49666 37267
L49666 37248
L49685 37211
L49704 37192
L49741 37173
L49816 37173
L49854 37192
L49872 37211
L49891 37248
L49891 37267
L49872 37304
L49854 37323
L49816 37342
L49741 37342
L49704 37361
L49685 37379
L49666 37417
L49666 37492
L49685 37529
L49704 37548
L49741 37567
L49816 37567
L49854 37548
L49872 37529
L49891 37492
L49891 37417
L49872 37379
L49854 37361
L49816 37342
" />
<path d="M50266 37567
L50041 37567
" />
<path d="M50154 37567
L50154 37173
L50116 37229
L50079 37267
L50041 37286
" />
<path d="M50435 37417
L50735 37417
" />
<path d="M50885 37173
L51147 37173
L50979 37567
" />
</g> 
</svg>
