<?xml version="1.0" standalone="no"?>
 <!DOCTYPE svg PUBLIC "-//W3C//DTD SVG 1.1//EN" 
 "http://www.w3.org/Graphics/SVG/1.1/DTD/svg11.dtd"> 
<svg xmlns="http://www.w3.org/2000/svg" version="1.1" 
    width="41.9989cm" height="29.7002cm" viewBox="0 0 165350 116930 ">
<title>SVG Picture created as Manipulator-B_SilkS.svg date 2015/10/27 07:26:27 </title>
  <desc>Picture generated by PCBNEW </desc>
<g style="fill:#000000; fill-opacity:1;stroke:#000000; stroke-opacity:1;
stroke-linecap:round; stroke-linejoin:round; "
 transform="translate(0 0) scale(1 1)">
</g>
<g style="fill:#000000; fill-opacity:0.0; 
stroke:#000000; stroke-width:196.85; stroke-opacity:1; 
stroke-linecap:round; stroke-linejoin:round;">
<path d="M52455 45053
L51038 45053
" />
<path d="M52455 45053
L52455 45250
" />
<path d="M46550 45250
L56943 45250
" />
<path d="M56943 45250
L56943 49777
" />
<path d="M56943 49777
L46550 49777
" />
<path d="M46550 49777
L46550 45250
" />
</g>
<g style="fill:#000000; fill-opacity:0.0; 
stroke:#000000; stroke-width:59.0551; stroke-opacity:1; 
stroke-linecap:round; stroke-linejoin:round;">
<path d="M52090 44659
L52090 44265
L51940 44265
L51903 44284
L51884 44303
L51865 44340
L51865 44396
L51884 44434
L51903 44453
L51940 44471
L52090 44471
" />
<path d="M51490 44659
L51715 44659
" />
<path d="M51603 44659
L51603 44265
L51640 44321
L51678 44359
L51715 44378
" />
<path d="M52812 45259
L52812 44865
" />
<path d="M52624 45259
L52624 44865
L52531 44865
L52474 44884
L52437 44921
L52418 44959
L52399 45034
L52399 45090
L52418 45165
L52437 45203
L52474 45240
L52531 45259
L52624 45259
" />
<path d="M52006 45221
L52024 45240
L52081 45259
L52118 45259
L52174 45240
L52212 45203
L52231 45165
L52249 45090
L52249 45034
L52231 44959
L52212 44921
L52174 44884
L52118 44865
L52081 44865
L52024 44884
L52006 44903
" />
<path d="M51837 45109
L51537 45109
" />
<path d="M51143 45259
L51368 45259
" />
<path d="M51256 45259
L51256 44865
L51293 44921
L51331 44959
L51368 44978
" />
<path d="M50806 44996
L50806 45259
" />
<path d="M50900 44846
L50993 45128
L50750 45128
" />
<path d="M54584 45700
L54565 45662
L54565 45606
L54584 45550
L54621 45512
L54659 45493
L54734 45475
L54790 45475
L54865 45493
L54903 45512
L54940 45550
L54959 45606
L54959 45643
L54940 45700
L54921 45718
L54790 45718
L54790 45643
" />
<path d="M54959 45887
L54565 45887
L54959 46112
L54565 46112
" />
<path d="M54959 46299
L54565 46299
L54565 46393
L54584 46449
L54621 46487
L54659 46506
L54734 46524
L54790 46524
L54865 46506
L54903 46487
L54940 46449
L54959 46393
L54959 46299
" />
<path d="M54565 48587
L54565 48831
L54715 48700
L54715 48756
L54734 48793
L54753 48812
L54790 48831
L54884 48831
L54921 48812
L54940 48793
L54959 48756
L54959 48643
L54940 48606
L54921 48587
" />
<path d="M54921 49000
L54940 49018
L54959 49000
L54940 48981
L54921 49000
L54959 49000
" />
<path d="M54565 49149
L54565 49393
L54715 49262
L54715 49318
L54734 49356
L54753 49374
L54790 49393
L54884 49393
L54921 49374
L54940 49356
L54959 49318
L54959 49206
L54940 49168
L54921 49149
" />
<path d="M53959 45784
L53771 45653
" />
<path d="M53959 45559
L53565 45559
L53565 45709
L53584 45746
L53603 45765
L53640 45784
L53696 45784
L53734 45765
L53753 45746
L53771 45709
L53771 45559
" />
<path d="M53940 45934
L53959 45990
L53959 46084
L53940 46121
L53921 46140
L53884 46159
L53846 46159
L53809 46140
L53790 46121
L53771 46084
L53753 46009
L53734 45971
L53715 45953
L53678 45934
L53640 45934
L53603 45953
L53584 45971
L53565 46009
L53565 46103
L53584 46159
" />
<path d="M53565 46271
L53565 46496
" />
<path d="M53959 46384
L53565 46384
" />
<path d="M53959 48709
L53565 48709
L53565 48803
L53584 48859
L53621 48896
L53659 48915
L53734 48934
L53790 48934
L53865 48915
L53903 48896
L53940 48859
L53959 48803
L53959 48709
" />
<path d="M53696 49271
L53959 49271
" />
<path d="M53546 49178
L53828 49084
L53828 49328
" />
<path d="M52959 45521
L52565 45521
L52565 45615
L52584 45671
L52621 45709
L52659 45728
L52734 45746
L52790 45746
L52865 45728
L52903 45709
L52940 45671
L52959 45615
L52959 45521
" />
<path d="M52959 46121
L52959 45896
" />
<path d="M52959 46009
L52565 46009
L52621 45971
L52659 45934
L52678 45896
" />
<path d="M52565 46253
L52565 46496
L52715 46365
L52715 46421
L52734 46459
L52753 46478
L52790 46496
L52884 46496
L52921 46478
L52940 46459
L52959 46421
L52959 46309
L52940 46271
L52921 46253
" />
<path d="M52959 48709
L52565 48709
L52565 48803
L52584 48859
L52621 48896
L52659 48915
L52734 48934
L52790 48934
L52865 48915
L52903 48896
L52940 48859
L52959 48803
L52959 48709
" />
<path d="M52565 49290
L52565 49103
L52753 49084
L52734 49103
L52715 49140
L52715 49234
L52734 49271
L52753 49290
L52790 49309
L52884 49309
L52921 49290
L52940 49271
L52959 49234
L52959 49140
L52940 49103
L52921 49084
" />
<path d="M51959 48709
L51565 48709
L51565 48803
L51584 48859
L51621 48896
L51659 48915
L51734 48934
L51790 48934
L51865 48915
L51903 48896
L51940 48859
L51959 48803
L51959 48709
" />
<path d="M51603 49084
L51584 49103
L51565 49140
L51565 49234
L51584 49271
L51603 49290
L51640 49309
L51678 49309
L51734 49290
L51959 49065
L51959 49309
" />
<path d="M51959 45709
L51565 45709
L51565 45803
L51584 45859
L51621 45896
L51659 45915
L51734 45934
L51790 45934
L51865 45915
L51903 45896
L51940 45859
L51959 45803
L51959 45709
" />
<path d="M51565 46065
L51565 46309
L51715 46178
L51715 46234
L51734 46271
L51753 46290
L51790 46309
L51884 46309
L51921 46290
L51940 46271
L51959 46234
L51959 46121
L51940 46084
L51921 46065
" />
<path d="M50846 48718
L50846 48906
" />
<path d="M50959 48681
L50565 48812
L50959 48943
" />
<path d="M50959 49281
L50959 49056
" />
<path d="M50959 49168
L50565 49168
L50621 49131
L50659 49093
L50678 49056
" />
<path d="M50959 45709
L50565 45709
L50565 45803
L50584 45859
L50621 45896
L50659 45915
L50734 45934
L50790 45934
L50865 45915
L50903 45896
L50940 45859
L50959 45803
L50959 45709
" />
<path d="M50959 46309
L50959 46084
" />
<path d="M50959 46196
L50565 46196
L50621 46159
L50659 46121
L50678 46084
" />
<path d="M49846 45718
L49846 45906
" />
<path d="M49959 45681
L49565 45812
L49959 45943
" />
<path d="M49565 46149
L49565 46187
L49584 46224
L49603 46243
L49640 46262
L49715 46281
L49809 46281
L49884 46262
L49921 46243
L49940 46224
L49959 46187
L49959 46149
L49940 46112
L49921 46093
L49884 46074
L49809 46056
L49715 46056
L49640 46074
L49603 46093
L49584 46112
L49565 46149
" />
<path d="M48959 45934
L48771 45803
" />
<path d="M48959 45709
L48565 45709
L48565 45859
L48584 45896
L48603 45915
L48640 45934
L48696 45934
L48734 45915
L48753 45896
L48771 45859
L48771 45709
" />
<path d="M48565 46065
L48959 46328
" />
<path d="M48565 46328
L48959 46065
" />
<path d="M49565 48700
L49565 48925
" />
<path d="M49959 48812
L49565 48812
" />
<path d="M49565 49018
L49959 49281
" />
<path d="M49565 49281
L49959 49018
" />
<path d="M48565 48475
L48959 48606
L48565 48737
" />
<path d="M48921 49093
L48940 49074
L48959 49018
L48959 48981
L48940 48925
L48903 48887
L48865 48868
L48790 48850
L48734 48850
L48659 48868
L48621 48887
L48584 48925
L48565 48981
L48565 49018
L48584 49074
L48603 49093
" />
<path d="M48921 49487
L48940 49468
L48959 49412
L48959 49374
L48940 49318
L48903 49281
L48865 49262
L48790 49243
L48734 49243
L48659 49262
L48621 49281
L48584 49318
L48565 49374
L48565 49412
L48584 49468
L48603 49487
" />
</g> 
</svg>
