<?xml version="1.0" standalone="no"?>
 <!DOCTYPE svg PUBLIC "-//W3C//DTD SVG 1.1//EN" 
 "http://www.w3.org/Graphics/SVG/1.1/DTD/svg11.dtd"> 
<svg xmlns="http://www.w3.org/2000/svg" version="1.1" 
    width="41.9989cm" height="29.7002cm" viewBox="0 0 165350 116930 ">
<title>SVG Picture created as Manipulator-B_Mask.svg date 2015/10/27 07:26:27 </title>
  <desc>Picture generated by PCBNEW </desc>
<g style="fill:#000000; fill-opacity:1;stroke:#000000; stroke-opacity:1;
stroke-linecap:round; stroke-linejoin:round; "
 transform="translate(0 0) scale(1 1)">
</g>
<g style="fill:#000000; fill-opacity:0.0; 
stroke:#000000; stroke-width:59.0551; stroke-opacity:1; 
stroke-linecap:round; stroke-linejoin:round;">
</g>
<g style="fill:#000000; fill-opacity:1.0; 
stroke:#000000; stroke-width:59.0551; stroke-opacity:1; 
stroke-linecap:round; stroke-linejoin:round;">
<circle cx="52800" cy="47000" r="285.433" /> 
<circle cx="52800" cy="48000" r="285.433" /> 
<circle cx="54800" cy="47000" r="285.433" /> 
<circle cx="54800" cy="48000" r="285.433" /> 
<circle cx="53800" cy="47000" r="285.433" /> 
<circle cx="53800" cy="48000" r="285.433" /> 
<circle cx="49800" cy="48000" r="285.433" /> 
<circle cx="49800" cy="47000" r="285.433" /> 
<circle cx="51800" cy="47000" r="285.433" /> 
<circle cx="51800" cy="48000" r="285.433" /> 
<circle cx="50800" cy="48000" r="285.433" /> 
<circle cx="50800" cy="47000" r="285.433" /> 
<circle cx="48800" cy="48000" r="285.433" /> 
<circle cx="48800" cy="47000" r="285.433" /> 
<circle cx="50000" cy="45500" r="285.433" /> 
<circle cx="51000" cy="45500" r="285.433" /> 
<circle cx="52000" cy="45500" r="285.433" /> 
<circle cx="47000" cy="49000" r="285.433" /> 
<circle cx="48000" cy="49000" r="285.433" /> 
<circle cx="49000" cy="49000" r="285.433" /> 
<circle cx="56500" cy="49000" r="285.433" /> 
<circle cx="55500" cy="49000" r="285.433" /> 
<circle cx="54500" cy="49000" r="285.433" /> 
</g> 
</svg>
