<?xml version="1.0" standalone="no"?>
 <!DOCTYPE svg PUBLIC "-//W3C//DTD SVG 1.1//EN" 
 "http://www.w3.org/Graphics/SVG/1.1/DTD/svg11.dtd"> 
<svg xmlns="http://www.w3.org/2000/svg" version="1.1" 
    width="41.9989cm" height="29.7002cm" viewBox="0 0 165350 116930 ">
<title>SVG Picture created as Manipulator-F_Cu.svg date 2015/10/27 07:26:27 </title>
  <desc>Picture generated by PCBNEW </desc>
<g style="fill:#000000; fill-opacity:1;stroke:#000000; stroke-opacity:1;
stroke-linecap:round; stroke-linejoin:round; "
 transform="translate(0 0) scale(1 1)">
</g>
<g style="fill:#000000; fill-opacity:0.0; 
stroke:#000000; stroke-width:59.0551; stroke-opacity:1; 
stroke-linecap:round; stroke-linejoin:round;">
</g>
<g style="fill:#000000; fill-opacity:1.0; 
stroke:#000000; stroke-width:59.0551; stroke-opacity:1; 
stroke-linecap:round; stroke-linejoin:round;">
<circle cx="52800" cy="47000" r="285.433" /> 
<circle cx="52800" cy="48000" r="285.433" /> 
<circle cx="54800" cy="47000" r="285.433" /> 
<circle cx="54800" cy="48000" r="285.433" /> 
<circle cx="53800" cy="47000" r="285.433" /> 
<circle cx="53800" cy="48000" r="285.433" /> 
<circle cx="49800" cy="48000" r="285.433" /> 
<circle cx="49800" cy="47000" r="285.433" /> 
<circle cx="51800" cy="47000" r="285.433" /> 
<circle cx="51800" cy="48000" r="285.433" /> 
<circle cx="50800" cy="48000" r="285.433" /> 
<circle cx="50800" cy="47000" r="285.433" /> 
<circle cx="48800" cy="48000" r="285.433" /> 
<circle cx="48800" cy="47000" r="285.433" /> 
<circle cx="50000" cy="45500" r="285.433" /> 
<circle cx="51000" cy="45500" r="285.433" /> 
<circle cx="52000" cy="45500" r="285.433" /> 
<circle cx="47000" cy="49000" r="285.433" /> 
<circle cx="48000" cy="49000" r="285.433" /> 
<circle cx="49000" cy="49000" r="285.433" /> 
<circle cx="56500" cy="49000" r="285.433" /> 
<circle cx="55500" cy="49000" r="285.433" /> 
<circle cx="54500" cy="49000" r="285.433" /> 
</g>
<g style="fill:#000000; fill-opacity:1.0; 
stroke:#000000; stroke-width:196.85; stroke-opacity:1; 
stroke-linecap:round; stroke-linejoin:round;">
<path d="M50800 47000
L50800 46950
" />
<path d="M52000 45750
L52000 45500
" />
<path d="M50800 46950
L52000 45750
" />
<path d="M49000 49000
L51250 49000
" />
<path d="M51250 49000
L51800 48450
" />
<path d="M51800 48450
L51800 48000
" />
<path d="M54500 49000
L53250 49000
" />
<path d="M52800 48550
L52800 48000
" />
<path d="M53250 49000
L52800 48550
" />
</g>
<g style="fill:#000000; fill-opacity:1.0; 
stroke:#000000; stroke-width:393.701; stroke-opacity:1; 
stroke-linecap:round; stroke-linejoin:round;">
<path d="M56500 49000
L56500 46263
" />
<path d="M55905 45669
L54419 45669
" />
<path d="M56500 46263
L55905 45669
" />
<path d="M50000 45500
L50000 44750
" />
<path d="M53000 44250
L54000 45250
" />
<path d="M50500 44250
L53000 44250
" />
<path d="M50000 44750
L50500 44250
" />
<path d="M50000 45500
L47500 45500
" />
<path d="M47000 46000
L47000 49000
" />
<path d="M47500 45500
L47000 46000
" />
<path d="M54800 47000
L54800 46050
" />
<path d="M54800 46050
L54419 45669
" />
<path d="M54419 45669
L54000 45250
" />
<path d="M48800 48000
L48000 48000
" />
<path d="M48000 48000
L48050 48000
" />
<path d="M48050 48000
L48000 48000
" />
<path d="M48000 49000
L48000 48000
" />
<path d="M48000 48000
L48000 46750
" />
<path d="M51000 45750
L51000 45500
" />
<path d="M50500 46250
L51000 45750
" />
<path d="M48500 46250
L50500 46250
" />
<path d="M48000 46750
L48500 46250
" />
<path d="M48500 49750
L55000 49750
" />
<path d="M48000 49250
L48500 49750
" />
<path d="M48000 49000
L48000 49250
" />
<path d="M55500 49250
L55500 49000
" />
<path d="M55000 49750
L55500 49250
" />
<path d="M48000 49000
L48000 48800
" />
</g> 
</svg>
