<?xml version="1.0" standalone="no"?>
 <!DOCTYPE svg PUBLIC "-//W3C//DTD SVG 1.1//EN" 
 "http://www.w3.org/Graphics/SVG/1.1/DTD/svg11.dtd"> 
<svg xmlns="http://www.w3.org/2000/svg" version="1.1" 
    width="41.9989cm" height="29.7002cm" viewBox="0 0 165350 116930 ">
<title>SVG Picture created as Manipulator-F_SilkS.svg date 2015/10/27 07:26:27 </title>
  <desc>Picture generated by PCBNEW </desc>
<g style="fill:#000000; fill-opacity:1;stroke:#000000; stroke-opacity:1;
stroke-linecap:round; stroke-linejoin:round; "
 transform="translate(0 0) scale(1 1)">
</g>
<g style="fill:#000000; fill-opacity:0.0; 
stroke:#000000; stroke-width:118.11; stroke-opacity:1; 
stroke-linecap:round; stroke-linejoin:round;">
<path d="M50998 50479
L50801 50479
" />
<path d="M50801 50789
L50801 50198
L51082 50198
" />
<path d="M51307 50789
L51307 50395
" />
<path d="M51307 50507
L51335 50451
L51364 50423
L51420 50395
L51476 50395
" />
<path d="M51757 50789
L51701 50760
L51673 50732
L51645 50676
L51645 50507
L51673 50451
L51701 50423
L51757 50395
L51842 50395
L51898 50423
L51926 50451
L51954 50507
L51954 50676
L51926 50732
L51898 50760
L51842 50789
L51757 50789
" />
<path d="M52207 50395
L52207 50789
" />
<path d="M52207 50451
L52235 50423
L52292 50395
L52376 50395
L52432 50423
L52460 50479
L52460 50789
" />
<path d="M52657 50395
L52882 50395
" />
<path d="M52742 50198
L52742 50704
L52770 50760
L52826 50789
L52882 50789
" />
</g>
<g style="fill:#000000; fill-opacity:0.0; 
stroke:#000000; stroke-width:78.7402; stroke-opacity:1; 
stroke-linecap:round; stroke-linejoin:round;">
<path d="M49450 44759
L49450 44365
L49581 44646
L49712 44365
L49712 44759
" />
<path d="M50068 44759
L50068 44553
L50050 44515
L50012 44496
L49937 44496
L49900 44515
" />
<path d="M50068 44740
L50031 44759
L49937 44759
L49900 44740
L49881 44703
L49881 44665
L49900 44628
L49937 44609
L50031 44609
L50068 44590
" />
<path d="M50256 44496
L50256 44759
" />
<path d="M50256 44534
L50275 44515
L50312 44496
L50368 44496
L50406 44515
L50425 44553
L50425 44759
" />
<path d="M50612 44759
L50612 44496
" />
<path d="M50612 44365
L50593 44384
L50612 44403
L50631 44384
L50612 44365
L50612 44403
" />
<path d="M50800 44496
L50800 44890
" />
<path d="M50800 44515
L50837 44496
L50912 44496
L50950 44515
L50968 44534
L50987 44571
L50987 44684
L50968 44721
L50950 44740
L50912 44759
L50837 44759
L50800 44740
" />
<path d="M51325 44496
L51325 44759
" />
<path d="M51156 44496
L51156 44703
L51175 44740
L51212 44759
L51268 44759
L51306 44740
L51325 44721
" />
<path d="M51568 44759
L51531 44740
L51512 44703
L51512 44365
" />
<path d="M51887 44759
L51887 44553
L51868 44515
L51831 44496
L51756 44496
L51718 44515
" />
<path d="M51887 44740
L51849 44759
L51756 44759
L51718 44740
L51700 44703
L51700 44665
L51718 44628
L51756 44609
L51849 44609
L51887 44590
" />
<path d="M52018 44496
L52168 44496
" />
<path d="M52074 44365
L52074 44703
L52093 44740
L52131 44759
L52168 44759
" />
<path d="M52356 44759
L52318 44740
L52299 44721
L52281 44684
L52281 44571
L52299 44534
L52318 44515
L52356 44496
L52412 44496
L52449 44515
L52468 44534
L52487 44571
L52487 44684
L52468 44721
L52449 44740
L52412 44759
L52356 44759
" />
<path d="M52656 44759
L52656 44496
" />
<path d="M52656 44571
L52674 44534
L52693 44515
L52731 44496
L52768 44496
" />
<path d="M53274 44365
L53312 44365
L53349 44384
L53368 44403
L53387 44440
L53406 44515
L53406 44609
L53387 44684
L53368 44721
L53349 44740
L53312 44759
L53274 44759
L53237 44740
L53218 44721
L53199 44684
L53181 44609
L53181 44515
L53199 44440
L53218 44403
L53237 44384
L53274 44365
" />
<path d="M53574 44721
L53593 44740
L53574 44759
L53556 44740
L53574 44721
L53574 44759
" />
<path d="M53930 44496
L53930 44759
" />
<path d="M53837 44346
L53743 44628
L53987 44628
" />
<path d="M49834 44190
L49890 44209
L49984 44209
L50022 44190
L50040 44171
L50059 44134
L50059 44096
L50040 44059
L50022 44040
L49984 44021
L49909 44003
L49872 43984
L49853 43965
L49834 43928
L49834 43890
L49853 43853
L49872 43834
L49909 43815
L50003 43815
L50059 43834
" />
<path d="M50397 44190
L50359 44209
L50284 44209
L50247 44190
L50228 44171
L50209 44134
L50209 44021
L50228 43984
L50247 43965
L50284 43946
L50359 43946
L50397 43965
" />
<path d="M50565 44209
L50565 43946
" />
<path d="M50565 44021
L50584 43984
L50603 43965
L50640 43946
L50678 43946
" />
<path d="M50978 44209
L50978 44003
L50959 43965
L50921 43946
L50846 43946
L50809 43965
" />
<path d="M50978 44190
L50940 44209
L50846 44209
L50809 44190
L50790 44153
L50790 44115
L50809 44078
L50846 44059
L50940 44059
L50978 44040
" />
<path d="M51109 43946
L51259 43946
" />
<path d="M51165 43815
L51165 44153
L51184 44190
L51221 44209
L51259 44209
" />
<path d="M51559 44190
L51521 44209
L51446 44209
L51409 44190
L51390 44171
L51371 44134
L51371 44021
L51390 43984
L51409 43965
L51446 43946
L51521 43946
L51559 43965
" />
<path d="M51728 44209
L51728 43815
" />
<path d="M51896 44209
L51896 44003
L51878 43965
L51840 43946
L51784 43946
L51746 43965
L51728 43984
" />
<path d="M52084 44209
L52084 43815
L52178 43815
L52234 43834
L52271 43871
L52290 43909
L52309 43984
L52309 44040
L52290 44115
L52271 44153
L52234 44190
L52178 44209
L52084 44209
" />
<path d="M52646 43946
L52646 44209
" />
<path d="M52478 43946
L52478 44153
L52496 44190
L52534 44209
L52590 44209
L52628 44190
L52646 44171
" />
<path d="M52834 44209
L52834 43946
" />
<path d="M52834 43815
L52815 43834
L52834 43853
L52852 43834
L52834 43815
L52834 43853
" />
<path d="M53021 43946
L53021 44209
" />
<path d="M53021 43984
L53040 43965
L53077 43946
L53134 43946
L53171 43965
L53190 44003
L53190 44209
" />
<path d="M53434 44209
L53396 44190
L53377 44171
L53359 44134
L53359 44021
L53377 43984
L53396 43965
L53434 43946
L53490 43946
L53527 43965
L53546 43984
L53565 44021
L53565 44134
L53546 44171
L53527 44190
L53490 44209
L53434 44209
" />
</g>
<g style="fill:#000000; fill-opacity:0.0; 
stroke:#000000; stroke-width:39.3701; stroke-opacity:1; 
stroke-linecap:round; stroke-linejoin:round;">
<path d="M49500 45000
L52500 45000
" />
<path d="M52500 45000
L52500 46000
" />
<path d="M52500 46000
L49500 46000
" />
<path d="M49500 46000
L49500 45000
" />
<path d="M46500 48500
L49500 48500
" />
<path d="M49500 48500
L49500 49500
" />
<path d="M49500 49500
L46500 49500
" />
<path d="M46500 49500
L46500 48500
" />
<path d="M57000 49500
L54000 49500
" />
<path d="M54000 49500
L54000 48500
" />
<path d="M54000 48500
L57000 48500
" />
<path d="M57000 48500
L57000 49500
" />
</g>
<g style="fill:#000000; fill-opacity:0.0; 
stroke:#000000; stroke-width:59.0551; stroke-opacity:1; 
stroke-linecap:round; stroke-linejoin:round;">
<path d="M51809 46459
L51809 46065
L51903 46065
L51959 46084
L51996 46121
L52015 46159
L52034 46234
L52034 46290
L52015 46365
L51996 46403
L51959 46440
L51903 46459
L51809 46459
" />
<path d="M52409 46459
L52184 46459
" />
<path d="M52296 46459
L52296 46065
L52259 46121
L52221 46159
L52184 46178
" />
<path d="M49537 46440
L49593 46459
L49687 46459
L49725 46440
L49743 46421
L49762 46384
L49762 46346
L49743 46309
L49725 46290
L49687 46271
L49612 46253
L49575 46234
L49556 46215
L49537 46178
L49537 46140
L49556 46103
L49575 46084
L49612 46065
L49706 46065
L49762 46084
" />
<path d="M49931 46253
L50062 46253
" />
<path d="M50118 46459
L49931 46459
L49931 46065
L50118 46065
" />
<path d="M50512 46459
L50381 46271
" />
<path d="M50287 46459
L50287 46065
L50437 46065
L50474 46084
L50493 46103
L50512 46140
L50512 46196
L50493 46234
L50474 46253
L50437 46271
L50287 46271
" />
<path d="M50624 46065
L50756 46459
L50887 46065
" />
<path d="M51093 46065
L51168 46065
L51206 46084
L51243 46121
L51262 46196
L51262 46328
L51243 46403
L51206 46440
L51168 46459
L51093 46459
L51056 46440
L51018 46403
L50999 46328
L50999 46196
L51018 46121
L51056 46084
L51093 46065
" />
<path d="M48709 49959
L48709 49565
L48803 49565
L48859 49584
L48896 49621
L48915 49659
L48934 49734
L48934 49790
L48915 49865
L48896 49903
L48859 49940
L48803 49959
L48709 49959
" />
<path d="M49084 49603
L49103 49584
L49140 49565
L49234 49565
L49271 49584
L49290 49603
L49309 49640
L49309 49678
L49290 49734
L49065 49959
L49309 49959
" />
<path d="M46537 49940
L46593 49959
L46687 49959
L46725 49940
L46743 49921
L46762 49884
L46762 49846
L46743 49809
L46725 49790
L46687 49771
L46612 49753
L46575 49734
L46556 49715
L46537 49678
L46537 49640
L46556 49603
L46575 49584
L46612 49565
L46706 49565
L46762 49584
" />
<path d="M46931 49753
L47062 49753
" />
<path d="M47118 49959
L46931 49959
L46931 49565
L47118 49565
" />
<path d="M47512 49959
L47381 49771
" />
<path d="M47287 49959
L47287 49565
L47437 49565
L47474 49584
L47493 49603
L47512 49640
L47512 49696
L47493 49734
L47474 49753
L47437 49771
L47287 49771
" />
<path d="M47624 49565
L47756 49959
L47887 49565
" />
<path d="M48093 49565
L48168 49565
L48206 49584
L48243 49621
L48262 49696
L48262 49828
L48243 49903
L48206 49940
L48168 49959
L48093 49959
L48056 49940
L48018 49903
L47999 49828
L47999 49696
L48018 49621
L48056 49584
L48093 49565
" />
<path d="M56209 49959
L56209 49565
L56303 49565
L56359 49584
L56396 49621
L56415 49659
L56434 49734
L56434 49790
L56415 49865
L56396 49903
L56359 49940
L56303 49959
L56209 49959
" />
<path d="M56565 49565
L56809 49565
L56678 49715
L56734 49715
L56771 49734
L56790 49753
L56809 49790
L56809 49884
L56790 49921
L56771 49940
L56734 49959
L56621 49959
L56584 49940
L56565 49921
" />
<path d="M54137 49940
L54193 49959
L54287 49959
L54325 49940
L54343 49921
L54362 49884
L54362 49846
L54343 49809
L54325 49790
L54287 49771
L54212 49753
L54175 49734
L54156 49715
L54137 49678
L54137 49640
L54156 49603
L54175 49584
L54212 49565
L54306 49565
L54362 49584
" />
<path d="M54531 49753
L54662 49753
" />
<path d="M54718 49959
L54531 49959
L54531 49565
L54718 49565
" />
<path d="M55112 49959
L54981 49771
" />
<path d="M54887 49959
L54887 49565
L55037 49565
L55074 49584
L55093 49603
L55112 49640
L55112 49696
L55093 49734
L55074 49753
L55037 49771
L54887 49771
" />
<path d="M55224 49565
L55356 49959
L55487 49565
" />
<path d="M55693 49565
L55768 49565
L55806 49584
L55843 49621
L55862 49696
L55862 49828
L55843 49903
L55806 49940
L55768 49959
L55693 49959
L55656 49940
L55618 49903
L55599 49828
L55599 49696
L55618 49621
L55656 49584
L55693 49565
" />
</g> 
</svg>
