G04 (created by PCBNEW (2013-may-18)-stable) date Вт 27 окт 2015 07:04:30*
%MOIN*%
G04 Gerber Fmt 3.4, Leading zero omitted, Abs format*
%FSLAX34Y34*%
G01*
G70*
G90*
G04 APERTURE LIST*
%ADD10C,0.00393701*%
%ADD11C,0.00590551*%
%ADD12C,0.00492126*%
G04 APERTURE END LIST*
G54D10*
X7005Y-15263D02*
X7201Y-15263D01*
X7201Y-15263D02*
X7201Y-12507D01*
X7201Y-21168D02*
X7201Y-18412D01*
X7201Y-18412D02*
X7005Y-18412D01*
X16060Y-18412D02*
X15863Y-18412D01*
X15863Y-18412D02*
X15863Y-21168D01*
X16060Y-15263D02*
X15863Y-15263D01*
X15863Y-15263D02*
X15863Y-14475D01*
X7005Y-18412D02*
G75*
G02X5430Y-16838I0J1574D01*
G74*
G01*
X5430Y-16838D02*
G75*
G02X7005Y-15263I1574J0D01*
G74*
G01*
X17635Y-16838D02*
G75*
G02X16060Y-18412I-1574J0D01*
G74*
G01*
X16060Y-15263D02*
G75*
G02X17635Y-16838I0J-1574D01*
G74*
G01*
X16650Y-16838D02*
G75*
G03X16650Y-16838I-590J0D01*
G74*
G01*
X7595Y-16838D02*
G75*
G03X7595Y-16838I-590J0D01*
G74*
G01*
X15863Y-14475D02*
X15863Y-14279D01*
X15863Y-14279D02*
X14091Y-12507D01*
X14091Y-12507D02*
X7201Y-12507D01*
X7201Y-21168D02*
X15863Y-21168D01*
G54D11*
X10525Y-20775D02*
X10525Y-20381D01*
X10432Y-20381D01*
X10375Y-20400D01*
X10338Y-20437D01*
X10319Y-20475D01*
X10300Y-20550D01*
X10300Y-20606D01*
X10319Y-20681D01*
X10338Y-20718D01*
X10375Y-20756D01*
X10432Y-20775D01*
X10525Y-20775D01*
X10132Y-20775D02*
X10132Y-20381D01*
X9738Y-20400D02*
X9775Y-20381D01*
X9832Y-20381D01*
X9888Y-20400D01*
X9925Y-20437D01*
X9944Y-20475D01*
X9963Y-20550D01*
X9963Y-20606D01*
X9944Y-20681D01*
X9925Y-20718D01*
X9888Y-20756D01*
X9832Y-20775D01*
X9794Y-20775D01*
X9738Y-20756D01*
X9719Y-20737D01*
X9719Y-20606D01*
X9794Y-20606D01*
X9550Y-20775D02*
X9550Y-20381D01*
X9419Y-20381D02*
X9194Y-20381D01*
X9307Y-20775D02*
X9307Y-20381D01*
X9082Y-20662D02*
X8894Y-20662D01*
X9119Y-20775D02*
X8988Y-20381D01*
X8857Y-20775D01*
X8538Y-20775D02*
X8725Y-20775D01*
X8725Y-20381D01*
X14085Y-20381D02*
X13953Y-20775D01*
X13822Y-20381D01*
X13466Y-20737D02*
X13485Y-20756D01*
X13541Y-20775D01*
X13578Y-20775D01*
X13635Y-20756D01*
X13672Y-20718D01*
X13691Y-20681D01*
X13710Y-20606D01*
X13710Y-20550D01*
X13691Y-20475D01*
X13672Y-20437D01*
X13635Y-20400D01*
X13578Y-20381D01*
X13541Y-20381D01*
X13485Y-20400D01*
X13466Y-20418D01*
X13072Y-20737D02*
X13091Y-20756D01*
X13147Y-20775D01*
X13185Y-20775D01*
X13241Y-20756D01*
X13279Y-20718D01*
X13297Y-20681D01*
X13316Y-20606D01*
X13316Y-20550D01*
X13297Y-20475D01*
X13279Y-20437D01*
X13241Y-20400D01*
X13185Y-20381D01*
X13147Y-20381D01*
X13091Y-20400D01*
X13072Y-20418D01*
X10531Y-13146D02*
X10343Y-13146D01*
X10568Y-13259D02*
X10437Y-12865D01*
X10306Y-13259D01*
X10174Y-13259D02*
X10174Y-12865D01*
X9949Y-13259D01*
X9949Y-12865D01*
X9781Y-13146D02*
X9593Y-13146D01*
X9818Y-13259D02*
X9687Y-12865D01*
X9556Y-13259D01*
X9237Y-13259D02*
X9425Y-13259D01*
X9425Y-12865D01*
X9031Y-12865D02*
X8956Y-12865D01*
X8918Y-12884D01*
X8881Y-12921D01*
X8862Y-12996D01*
X8862Y-13128D01*
X8881Y-13203D01*
X8918Y-13240D01*
X8956Y-13259D01*
X9031Y-13259D01*
X9068Y-13240D01*
X9106Y-13203D01*
X9125Y-13128D01*
X9125Y-12996D01*
X9106Y-12921D01*
X9068Y-12884D01*
X9031Y-12865D01*
X8487Y-12884D02*
X8525Y-12865D01*
X8581Y-12865D01*
X8637Y-12884D01*
X8675Y-12921D01*
X8693Y-12959D01*
X8712Y-13034D01*
X8712Y-13090D01*
X8693Y-13165D01*
X8675Y-13203D01*
X8637Y-13240D01*
X8581Y-13259D01*
X8543Y-13259D01*
X8487Y-13240D01*
X8468Y-13221D01*
X8468Y-13090D01*
X8543Y-13090D01*
G54D12*
X13860Y-12900D02*
X13897Y-12881D01*
X13953Y-12881D01*
X14010Y-12900D01*
X14047Y-12937D01*
X14066Y-12975D01*
X14085Y-13050D01*
X14085Y-13106D01*
X14066Y-13181D01*
X14047Y-13218D01*
X14010Y-13256D01*
X13953Y-13275D01*
X13916Y-13275D01*
X13860Y-13256D01*
X13841Y-13237D01*
X13841Y-13106D01*
X13916Y-13106D01*
X13672Y-13275D02*
X13672Y-12881D01*
X13447Y-13275D01*
X13447Y-12881D01*
X13260Y-13275D02*
X13260Y-12881D01*
X13166Y-12881D01*
X13110Y-12900D01*
X13072Y-12937D01*
X13054Y-12975D01*
X13035Y-13050D01*
X13035Y-13106D01*
X13054Y-13181D01*
X13072Y-13218D01*
X13110Y-13256D01*
X13166Y-13275D01*
X13260Y-13275D01*
M02*
