G04 (created by PCBNEW (2013-may-18)-stable) date Ср 04 ноя 2015 02:15:30*
%MOIN*%
G04 Gerber Fmt 3.4, Leading zero omitted, Abs format*
%FSLAX34Y34*%
G01*
G70*
G90*
G04 APERTURE LIST*
%ADD10C,0.00393701*%
%ADD11C,0.122047*%
%ADD12R,0.0590551X0.133858*%
%ADD13R,0.0551181X0.137795*%
%ADD14C,0.0590551*%
%ADD15C,0.019685*%
%ADD16C,0.0393701*%
G04 APERTURE END LIST*
G54D10*
G54D11*
X16060Y-16838D03*
X7005Y-16838D03*
G54D12*
X9842Y-17500D03*
G54D13*
X12303Y-19783D03*
X11515Y-19783D03*
X10728Y-19783D03*
G54D12*
X13188Y-17500D03*
G54D14*
X12007Y-17519D03*
X11318Y-18011D03*
X10728Y-17224D03*
G54D15*
X12303Y-19783D02*
X12303Y-17814D01*
X12303Y-17814D02*
X12007Y-17519D01*
X11515Y-19783D02*
X11515Y-18208D01*
X11515Y-18208D02*
X11318Y-18011D01*
X10728Y-19783D02*
X10728Y-17224D01*
G54D10*
G36*
X15243Y-20548D02*
X13169Y-20548D01*
X13169Y-20355D01*
X13169Y-18977D01*
X13079Y-18760D01*
X13079Y-18759D01*
X13601Y-18759D01*
X13818Y-18670D01*
X13984Y-18504D01*
X14074Y-18287D01*
X14074Y-18052D01*
X14074Y-16947D01*
X14074Y-16713D01*
X14074Y-16713D01*
X14074Y-16712D01*
X14029Y-16604D01*
X13985Y-16496D01*
X13984Y-16496D01*
X13984Y-16495D01*
X13901Y-16413D01*
X13819Y-16330D01*
X13818Y-16330D01*
X13818Y-16329D01*
X13710Y-16285D01*
X13602Y-16240D01*
X13601Y-16240D01*
X13601Y-16240D01*
X13447Y-16240D01*
X13367Y-16240D01*
X12776Y-16240D01*
X12559Y-16329D01*
X12393Y-16495D01*
X12313Y-16687D01*
X12184Y-16634D01*
X11832Y-16633D01*
X11506Y-16768D01*
X11500Y-16774D01*
X11479Y-16723D01*
X11230Y-16473D01*
X10905Y-16338D01*
X10552Y-16338D01*
X10501Y-16359D01*
X10472Y-16330D01*
X10472Y-16330D01*
X10471Y-16329D01*
X10363Y-16285D01*
X10255Y-16240D01*
X10255Y-16240D01*
X10254Y-16240D01*
X10100Y-16240D01*
X10020Y-16240D01*
X9430Y-16240D01*
X9213Y-16329D01*
X9046Y-16495D01*
X8956Y-16712D01*
X8956Y-16947D01*
X8956Y-18052D01*
X8956Y-18286D01*
X8956Y-18286D01*
X8956Y-18287D01*
X9001Y-18395D01*
X9046Y-18503D01*
X9046Y-18503D01*
X9046Y-18504D01*
X9129Y-18586D01*
X9212Y-18669D01*
X9212Y-18669D01*
X9213Y-18670D01*
X9321Y-18714D01*
X9429Y-18759D01*
X9429Y-18759D01*
X9430Y-18759D01*
X9584Y-18759D01*
X9664Y-18759D01*
X9952Y-18759D01*
X9862Y-18976D01*
X9862Y-19211D01*
X9862Y-20548D01*
X7822Y-20548D01*
X7822Y-18465D01*
X8579Y-17707D01*
X8579Y-15969D01*
X7822Y-15211D01*
X7822Y-13120D01*
X13843Y-13120D01*
X15229Y-14506D01*
X15229Y-15224D01*
X14485Y-15969D01*
X14485Y-17707D01*
X15243Y-18465D01*
X15243Y-20548D01*
X15243Y-20548D01*
G37*
G54D16*
X15243Y-20548D02*
X13169Y-20548D01*
X13169Y-20355D01*
X13169Y-18977D01*
X13079Y-18760D01*
X13079Y-18759D01*
X13601Y-18759D01*
X13818Y-18670D01*
X13984Y-18504D01*
X14074Y-18287D01*
X14074Y-18052D01*
X14074Y-16947D01*
X14074Y-16713D01*
X14074Y-16713D01*
X14074Y-16712D01*
X14029Y-16604D01*
X13985Y-16496D01*
X13984Y-16496D01*
X13984Y-16495D01*
X13901Y-16413D01*
X13819Y-16330D01*
X13818Y-16330D01*
X13818Y-16329D01*
X13710Y-16285D01*
X13602Y-16240D01*
X13601Y-16240D01*
X13601Y-16240D01*
X13447Y-16240D01*
X13367Y-16240D01*
X12776Y-16240D01*
X12559Y-16329D01*
X12393Y-16495D01*
X12313Y-16687D01*
X12184Y-16634D01*
X11832Y-16633D01*
X11506Y-16768D01*
X11500Y-16774D01*
X11479Y-16723D01*
X11230Y-16473D01*
X10905Y-16338D01*
X10552Y-16338D01*
X10501Y-16359D01*
X10472Y-16330D01*
X10472Y-16330D01*
X10471Y-16329D01*
X10363Y-16285D01*
X10255Y-16240D01*
X10255Y-16240D01*
X10254Y-16240D01*
X10100Y-16240D01*
X10020Y-16240D01*
X9430Y-16240D01*
X9213Y-16329D01*
X9046Y-16495D01*
X8956Y-16712D01*
X8956Y-16947D01*
X8956Y-18052D01*
X8956Y-18286D01*
X8956Y-18286D01*
X8956Y-18287D01*
X9001Y-18395D01*
X9046Y-18503D01*
X9046Y-18503D01*
X9046Y-18504D01*
X9129Y-18586D01*
X9212Y-18669D01*
X9212Y-18669D01*
X9213Y-18670D01*
X9321Y-18714D01*
X9429Y-18759D01*
X9429Y-18759D01*
X9430Y-18759D01*
X9584Y-18759D01*
X9664Y-18759D01*
X9952Y-18759D01*
X9862Y-18976D01*
X9862Y-19211D01*
X9862Y-20548D01*
X7822Y-20548D01*
X7822Y-18465D01*
X8579Y-17707D01*
X8579Y-15969D01*
X7822Y-15211D01*
X7822Y-13120D01*
X13843Y-13120D01*
X15229Y-14506D01*
X15229Y-15224D01*
X14485Y-15969D01*
X14485Y-17707D01*
X15243Y-18465D01*
X15243Y-20548D01*
M02*
