G04 (created by PCBNEW (2013-may-18)-stable) date Ср 04 ноя 2015 02:15:30*
%MOIN*%
G04 Gerber Fmt 3.4, Leading zero omitted, Abs format*
%FSLAX34Y34*%
G01*
G70*
G90*
G04 APERTURE LIST*
%ADD10C,0.00393701*%
%ADD11C,0.011811*%
%ADD12C,0.00590551*%
G04 APERTURE END LIST*
G54D10*
G54D11*
X8928Y-14412D02*
X8928Y-13821D01*
X9547Y-14412D02*
X9350Y-14131D01*
X9209Y-14412D02*
X9209Y-13821D01*
X9434Y-13821D01*
X9491Y-13849D01*
X9519Y-13877D01*
X9547Y-13934D01*
X9547Y-14018D01*
X9519Y-14074D01*
X9491Y-14102D01*
X9434Y-14131D01*
X9209Y-14131D01*
X10250Y-14412D02*
X10250Y-13821D01*
X10390Y-13821D01*
X10475Y-13849D01*
X10531Y-13906D01*
X10559Y-13962D01*
X10587Y-14074D01*
X10587Y-14159D01*
X10559Y-14271D01*
X10531Y-14327D01*
X10475Y-14384D01*
X10390Y-14412D01*
X10250Y-14412D01*
X10840Y-14412D02*
X10840Y-13821D01*
X11093Y-14384D02*
X11178Y-14412D01*
X11318Y-14412D01*
X11375Y-14384D01*
X11403Y-14356D01*
X11431Y-14299D01*
X11431Y-14243D01*
X11403Y-14187D01*
X11375Y-14159D01*
X11318Y-14131D01*
X11206Y-14102D01*
X11150Y-14074D01*
X11122Y-14046D01*
X11093Y-13990D01*
X11093Y-13934D01*
X11122Y-13877D01*
X11150Y-13849D01*
X11206Y-13821D01*
X11347Y-13821D01*
X11431Y-13849D01*
X11600Y-13821D02*
X11937Y-13821D01*
X11768Y-14412D02*
X11768Y-13821D01*
X12106Y-14243D02*
X12387Y-14243D01*
X12050Y-14412D02*
X12246Y-13821D01*
X12443Y-14412D01*
X12640Y-14412D02*
X12640Y-13821D01*
X12978Y-14412D01*
X12978Y-13821D01*
X13596Y-14356D02*
X13568Y-14384D01*
X13484Y-14412D01*
X13428Y-14412D01*
X13343Y-14384D01*
X13287Y-14327D01*
X13259Y-14271D01*
X13231Y-14159D01*
X13231Y-14074D01*
X13259Y-13962D01*
X13287Y-13906D01*
X13343Y-13849D01*
X13428Y-13821D01*
X13484Y-13821D01*
X13568Y-13849D01*
X13596Y-13877D01*
X13849Y-14102D02*
X14046Y-14102D01*
X14131Y-14412D02*
X13849Y-14412D01*
X13849Y-13821D01*
X14131Y-13821D01*
X8717Y-13399D02*
X8802Y-13428D01*
X8942Y-13428D01*
X8998Y-13399D01*
X9026Y-13371D01*
X9055Y-13315D01*
X9055Y-13259D01*
X9026Y-13203D01*
X8998Y-13174D01*
X8942Y-13146D01*
X8830Y-13118D01*
X8773Y-13090D01*
X8745Y-13062D01*
X8717Y-13006D01*
X8717Y-12949D01*
X8745Y-12893D01*
X8773Y-12865D01*
X8830Y-12837D01*
X8970Y-12837D01*
X9055Y-12865D01*
X9561Y-13399D02*
X9505Y-13428D01*
X9392Y-13428D01*
X9336Y-13399D01*
X9308Y-13371D01*
X9280Y-13315D01*
X9280Y-13146D01*
X9308Y-13090D01*
X9336Y-13062D01*
X9392Y-13034D01*
X9505Y-13034D01*
X9561Y-13062D01*
X9814Y-13428D02*
X9814Y-13034D01*
X9814Y-13146D02*
X9842Y-13090D01*
X9870Y-13062D01*
X9926Y-13034D01*
X9983Y-13034D01*
X10433Y-13428D02*
X10433Y-13118D01*
X10404Y-13062D01*
X10348Y-13034D01*
X10236Y-13034D01*
X10179Y-13062D01*
X10433Y-13399D02*
X10376Y-13428D01*
X10236Y-13428D01*
X10179Y-13399D01*
X10151Y-13343D01*
X10151Y-13287D01*
X10179Y-13231D01*
X10236Y-13203D01*
X10376Y-13203D01*
X10433Y-13174D01*
X10629Y-13034D02*
X10854Y-13034D01*
X10714Y-12837D02*
X10714Y-13343D01*
X10742Y-13399D01*
X10798Y-13428D01*
X10854Y-13428D01*
X11304Y-13399D02*
X11248Y-13428D01*
X11136Y-13428D01*
X11079Y-13399D01*
X11051Y-13371D01*
X11023Y-13315D01*
X11023Y-13146D01*
X11051Y-13090D01*
X11079Y-13062D01*
X11136Y-13034D01*
X11248Y-13034D01*
X11304Y-13062D01*
X11557Y-13428D02*
X11557Y-12837D01*
X11811Y-13428D02*
X11811Y-13118D01*
X11782Y-13062D01*
X11726Y-13034D01*
X11642Y-13034D01*
X11586Y-13062D01*
X11557Y-13090D01*
X12092Y-13428D02*
X12092Y-12837D01*
X12232Y-12837D01*
X12317Y-12865D01*
X12373Y-12921D01*
X12401Y-12978D01*
X12429Y-13090D01*
X12429Y-13174D01*
X12401Y-13287D01*
X12373Y-13343D01*
X12317Y-13399D01*
X12232Y-13428D01*
X12092Y-13428D01*
X12935Y-13034D02*
X12935Y-13428D01*
X12682Y-13034D02*
X12682Y-13343D01*
X12710Y-13399D01*
X12767Y-13428D01*
X12851Y-13428D01*
X12907Y-13399D01*
X12935Y-13371D01*
X13217Y-13428D02*
X13217Y-13034D01*
X13217Y-12837D02*
X13188Y-12865D01*
X13217Y-12893D01*
X13245Y-12865D01*
X13217Y-12837D01*
X13217Y-12893D01*
X13498Y-13034D02*
X13498Y-13428D01*
X13498Y-13090D02*
X13526Y-13062D01*
X13582Y-13034D01*
X13667Y-13034D01*
X13723Y-13062D01*
X13751Y-13118D01*
X13751Y-13428D01*
X14116Y-13428D02*
X14060Y-13399D01*
X14032Y-13371D01*
X14004Y-13315D01*
X14004Y-13146D01*
X14032Y-13090D01*
X14060Y-13062D01*
X14116Y-13034D01*
X14201Y-13034D01*
X14257Y-13062D01*
X14285Y-13090D01*
X14313Y-13146D01*
X14313Y-13315D01*
X14285Y-13371D01*
X14257Y-13399D01*
X14201Y-13428D01*
X14116Y-13428D01*
X8731Y-15466D02*
X8816Y-15494D01*
X8956Y-15494D01*
X9012Y-15466D01*
X9041Y-15438D01*
X9069Y-15382D01*
X9069Y-15326D01*
X9041Y-15269D01*
X9012Y-15241D01*
X8956Y-15213D01*
X8844Y-15185D01*
X8787Y-15157D01*
X8759Y-15129D01*
X8731Y-15073D01*
X8731Y-15016D01*
X8759Y-14960D01*
X8787Y-14932D01*
X8844Y-14904D01*
X8984Y-14904D01*
X9069Y-14932D01*
X9322Y-15185D02*
X9519Y-15185D01*
X9603Y-15494D02*
X9322Y-15494D01*
X9322Y-14904D01*
X9603Y-14904D01*
X9856Y-15494D02*
X9856Y-14904D01*
X10194Y-15494D01*
X10194Y-14904D01*
X10447Y-15466D02*
X10531Y-15494D01*
X10672Y-15494D01*
X10728Y-15466D01*
X10756Y-15438D01*
X10784Y-15382D01*
X10784Y-15326D01*
X10756Y-15269D01*
X10728Y-15241D01*
X10672Y-15213D01*
X10559Y-15185D01*
X10503Y-15157D01*
X10475Y-15129D01*
X10447Y-15073D01*
X10447Y-15016D01*
X10475Y-14960D01*
X10503Y-14932D01*
X10559Y-14904D01*
X10700Y-14904D01*
X10784Y-14932D01*
X11150Y-14904D02*
X11262Y-14904D01*
X11318Y-14932D01*
X11375Y-14988D01*
X11403Y-15101D01*
X11403Y-15298D01*
X11375Y-15410D01*
X11318Y-15466D01*
X11262Y-15494D01*
X11150Y-15494D01*
X11093Y-15466D01*
X11037Y-15410D01*
X11009Y-15298D01*
X11009Y-15101D01*
X11037Y-14988D01*
X11093Y-14932D01*
X11150Y-14904D01*
X11993Y-15494D02*
X11796Y-15213D01*
X11656Y-15494D02*
X11656Y-14904D01*
X11881Y-14904D01*
X11937Y-14932D01*
X11965Y-14960D01*
X11993Y-15016D01*
X11993Y-15101D01*
X11965Y-15157D01*
X11937Y-15185D01*
X11881Y-15213D01*
X11656Y-15213D01*
X13259Y-14904D02*
X13315Y-14904D01*
X13371Y-14932D01*
X13399Y-14960D01*
X13428Y-15016D01*
X13456Y-15129D01*
X13456Y-15269D01*
X13428Y-15382D01*
X13399Y-15438D01*
X13371Y-15466D01*
X13315Y-15494D01*
X13259Y-15494D01*
X13203Y-15466D01*
X13174Y-15438D01*
X13146Y-15382D01*
X13118Y-15269D01*
X13118Y-15129D01*
X13146Y-15016D01*
X13174Y-14960D01*
X13203Y-14932D01*
X13259Y-14904D01*
X13709Y-15438D02*
X13737Y-15466D01*
X13709Y-15494D01*
X13681Y-15466D01*
X13709Y-15438D01*
X13709Y-15494D01*
X14243Y-15101D02*
X14243Y-15494D01*
X14102Y-14876D02*
X13962Y-15298D01*
X14327Y-15298D01*
G54D12*
M02*
