G04 (created by PCBNEW (2013-may-18)-stable) date Вт 27 окт 2015 07:04:30*
%MOIN*%
G04 Gerber Fmt 3.4, Leading zero omitted, Abs format*
%FSLAX34Y34*%
G01*
G70*
G90*
G04 APERTURE LIST*
%ADD10C,0.00393701*%
%ADD11C,0.122047*%
%ADD12R,0.0551181X0.11811*%
%ADD13C,0.0590551*%
%ADD14C,0.019685*%
%ADD15C,0.0393701*%
G04 APERTURE END LIST*
G54D10*
G54D11*
X16060Y-16838D03*
X7005Y-16838D03*
G54D12*
X12303Y-18700D03*
X11515Y-18700D03*
X10728Y-18700D03*
G54D13*
X10728Y-17027D03*
X11515Y-17027D03*
X12303Y-16338D03*
G54D14*
X10728Y-18700D02*
X10728Y-17027D01*
X11515Y-18700D02*
X11515Y-17027D01*
X12303Y-18700D02*
X12303Y-16338D01*
G54D10*
G36*
X15243Y-20548D02*
X13189Y-20548D01*
X13189Y-16163D01*
X13054Y-15837D01*
X12805Y-15588D01*
X12480Y-15452D01*
X12127Y-15452D01*
X11802Y-15587D01*
X11552Y-15836D01*
X11425Y-16141D01*
X11340Y-16141D01*
X11121Y-16231D01*
X10905Y-16141D01*
X10552Y-16141D01*
X10227Y-16276D01*
X9977Y-16525D01*
X9842Y-16850D01*
X9842Y-17202D01*
X9976Y-17528D01*
X10039Y-17591D01*
X10039Y-17688D01*
X9952Y-17775D01*
X9862Y-17992D01*
X9862Y-18227D01*
X9862Y-19408D01*
X9951Y-19625D01*
X10117Y-19791D01*
X10334Y-19881D01*
X10569Y-19881D01*
X11120Y-19881D01*
X11121Y-19881D01*
X11122Y-19881D01*
X11357Y-19881D01*
X11908Y-19881D01*
X11909Y-19881D01*
X11909Y-19881D01*
X12144Y-19881D01*
X12695Y-19881D01*
X12912Y-19792D01*
X13079Y-19626D01*
X13169Y-19409D01*
X13169Y-19174D01*
X13169Y-17993D01*
X13079Y-17776D01*
X12992Y-17688D01*
X12992Y-16902D01*
X13053Y-16841D01*
X13188Y-16515D01*
X13189Y-16163D01*
X13189Y-20548D01*
X7822Y-20548D01*
X7822Y-18465D01*
X8579Y-17707D01*
X8579Y-15969D01*
X7822Y-15211D01*
X7822Y-13120D01*
X13843Y-13120D01*
X15229Y-14506D01*
X15229Y-15224D01*
X14485Y-15969D01*
X14485Y-17707D01*
X15243Y-18465D01*
X15243Y-20548D01*
X15243Y-20548D01*
G37*
G54D15*
X15243Y-20548D02*
X13189Y-20548D01*
X13189Y-16163D01*
X13054Y-15837D01*
X12805Y-15588D01*
X12480Y-15452D01*
X12127Y-15452D01*
X11802Y-15587D01*
X11552Y-15836D01*
X11425Y-16141D01*
X11340Y-16141D01*
X11121Y-16231D01*
X10905Y-16141D01*
X10552Y-16141D01*
X10227Y-16276D01*
X9977Y-16525D01*
X9842Y-16850D01*
X9842Y-17202D01*
X9976Y-17528D01*
X10039Y-17591D01*
X10039Y-17688D01*
X9952Y-17775D01*
X9862Y-17992D01*
X9862Y-18227D01*
X9862Y-19408D01*
X9951Y-19625D01*
X10117Y-19791D01*
X10334Y-19881D01*
X10569Y-19881D01*
X11120Y-19881D01*
X11121Y-19881D01*
X11122Y-19881D01*
X11357Y-19881D01*
X11908Y-19881D01*
X11909Y-19881D01*
X11909Y-19881D01*
X12144Y-19881D01*
X12695Y-19881D01*
X12912Y-19792D01*
X13079Y-19626D01*
X13169Y-19409D01*
X13169Y-19174D01*
X13169Y-17993D01*
X13079Y-17776D01*
X12992Y-17688D01*
X12992Y-16902D01*
X13053Y-16841D01*
X13188Y-16515D01*
X13189Y-16163D01*
X13189Y-20548D01*
X7822Y-20548D01*
X7822Y-18465D01*
X8579Y-17707D01*
X8579Y-15969D01*
X7822Y-15211D01*
X7822Y-13120D01*
X13843Y-13120D01*
X15229Y-14506D01*
X15229Y-15224D01*
X14485Y-15969D01*
X14485Y-17707D01*
X15243Y-18465D01*
X15243Y-20548D01*
M02*
