<?xml version="1.0" standalone="no"?>
 <!DOCTYPE svg PUBLIC "-//W3C//DTD SVG 1.1//EN" 
 "http://www.w3.org/Graphics/SVG/1.1/DTD/svg11.dtd"> 
<svg xmlns="http://www.w3.org/2000/svg" version="1.1" 
    width="41.9989cm" height="29.7002cm" viewBox="0 0 165350 116930 ">
<title>SVG Picture created as LineSensor-B_Cu.svg date 2015/10/25 21:36:22 </title>
  <desc>Picture generated by PCBNEW </desc>
<g style="fill:#000000; fill-opacity:1;stroke:#000000; stroke-opacity:1;
stroke-linecap:round; stroke-linejoin:round; "
 transform="translate(0 0) scale(1 1)">
</g>
<g style="fill:#000000; fill-opacity:0.0; 
stroke:#000000; stroke-width:39.3701; stroke-opacity:1; 
stroke-linecap:round; stroke-linejoin:round;">
</g>
<g style="fill:#000000; fill-opacity:1.0; 
stroke:#000000; stroke-width:39.3701; stroke-opacity:1; 
stroke-linecap:round; stroke-linejoin:round;">
<circle cx="9640.94" cy="8254.02" r="1358.27" /> 
<circle cx="13578" cy="8254.02" r="1358.27" /> 
<circle cx="9640.94" cy="12191" r="1358.27" /> 
<circle cx="13578" cy="12191" r="1358.27" /> 
<circle cx="7081.89" cy="10222.5" r="590.551" /> 
<circle cx="16137" cy="10222.5" r="590.551" /> 
<circle cx="13582.7" cy="28051.2" r="275.591" /> 
<circle cx="10925.2" cy="26673.2" r="275.591" /> 
<circle cx="9645.67" cy="28051.2" r="275.591" /> 
<circle cx="12401.6" cy="26673.2" r="275.591" /> 
</g>
<g style="fill:#000000; fill-opacity:1.0; 
stroke:#000000; stroke-width:196.85; stroke-opacity:1; 
stroke-linecap:round; stroke-linejoin:round;">
<path d="M13577 28051
L13577 21259
" />
<path d="M13582 28051
L13577 28051
" />
<path d="M13577 21259
L13577 12191
" />
<path d="M13577 21246
L13577 21259
" />
<path d="M9640 8254
L9640 8262
" />
<path d="M11614 25984
L10925 26673
" />
<path d="M11614 10236
L11614 25984
" />
<path d="M9640 8262
L11614 10236
" />
<path d="M12401 26673
L11023 28051
" />
<path d="M9640 12191
L9645 28051
" />
<path d="M11023 28051
L9645 28051
" />
</g> 
</svg>
