<?xml version="1.0" standalone="no"?>
 <!DOCTYPE svg PUBLIC "-//W3C//DTD SVG 1.1//EN" 
 "http://www.w3.org/Graphics/SVG/1.1/DTD/svg11.dtd"> 
<svg xmlns="http://www.w3.org/2000/svg" version="1.1" 
    width="41.9989cm" height="29.7002cm" viewBox="0 0 165350 116930 ">
<title>SVG Picture created as LineSensor-B_SilkS.svg date 2015/10/25 21:36:22 </title>
  <desc>Picture generated by PCBNEW </desc>
<g style="fill:#000000; fill-opacity:1;stroke:#000000; stroke-opacity:1;
stroke-linecap:round; stroke-linejoin:round; "
 transform="translate(0 0) scale(1 1)">
</g>
<g style="fill:#000000; fill-opacity:0.0; 
stroke:#000000; stroke-width:39.3701; stroke-opacity:1; 
stroke-linecap:round; stroke-linejoin:round;">
<path d="M16137 11797
L15940 11797
" />
<path d="M15940 11797
L15940 14553
" />
<path d="M15940 5891
L15940 8647
" />
<path d="M15940 8647
L16137 8647
" />
<path d="M7081 8647
L7278 8647
" />
<path d="M7278 8647
L7278 5891
" />
<path d="M7081 11797
L7278 11797
" />
<path d="M7278 11797
L7278 12584
" />
<path d="M17711.8 10222.5 A1574.8 1574.8 0.0 0 0 16137 8647.72 " />
<path d="M16137 11797.3 A1574.8 1574.8 0.0 0 0 17711.8 10222.5 " />
<path d="M7081.89 8647.72 A1574.8 1574.8 0.0 0 0 5507.09 10222.5 " />
<path d="M5507.09 10222.5 A1574.8 1574.8 0.0 0 0 7081.89 11797.3 " />
<circle cx="7081.89" cy="10222.5" r="590.551" /> 
<circle cx="16137" cy="10222.5" r="590.551" /> 
<path d="M7278 12584
L7278 12781
" />
<path d="M7278 12781
L9050 14553
" />
<path d="M9050 14553
L15940 14553
" />
<path d="M15940 5891
L7278 5891
" />
</g>
<g style="fill:#000000; fill-opacity:0.0; 
stroke:#000000; stroke-width:59.0551; stroke-opacity:1; 
stroke-linecap:round; stroke-linejoin:round;">
<path d="M14547 6604
L14547 6210
L14453 6210
L14397 6229
L14359 6266
L14341 6304
L14322 6379
L14322 6435
L14341 6510
L14359 6548
L14397 6585
L14453 6604
L14547 6604
" />
<path d="M14153 6604
L14153 6210
" />
<path d="M13759 6229
L13797 6210
L13853 6210
L13909 6229
L13947 6266
L13966 6304
L13984 6379
L13984 6435
L13966 6510
L13947 6548
L13909 6585
L13853 6604
L13816 6604
L13759 6585
L13741 6566
L13741 6435
L13816 6435
" />
<path d="M13572 6604
L13572 6210
" />
<path d="M13441 6210
L13216 6210
" />
<path d="M13328 6604
L13328 6210
" />
<path d="M13103 6491
L12916 6491
" />
<path d="M13141 6604
L13010 6210
L12878 6604
" />
<path d="M12560 6604
L12747 6604
L12747 6210
" />
<path d="M10106 6210
L9975 6604
L9844 6210
" />
<path d="M9488 6566
L9506 6585
L9563 6604
L9600 6604
L9656 6585
L9694 6548
L9713 6510
L9731 6435
L9731 6379
L9713 6304
L9694 6266
L9656 6229
L9600 6210
L9563 6210
L9506 6229
L9488 6248
" />
<path d="M9094 6566
L9113 6585
L9169 6604
L9206 6604
L9263 6585
L9300 6548
L9319 6510
L9338 6435
L9338 6379
L9319 6304
L9300 6266
L9263 6229
L9206 6210
L9169 6210
L9113 6229
L9094 6248
" />
<path d="M14613 13991
L14425 13991
" />
<path d="M14650 14104
L14519 13710
L14388 14104
" />
<path d="M14256 14104
L14256 13710
L14031 14104
L14031 13710
" />
<path d="M13863 13991
L13675 13991
" />
<path d="M13900 14104
L13769 13710
L13638 14104
" />
<path d="M13319 14104
L13506 14104
L13506 13710
" />
<path d="M13113 13710
L13038 13710
L13000 13729
L12963 13766
L12944 13841
L12944 13973
L12963 14048
L13000 14085
L13038 14104
L13113 14104
L13150 14085
L13188 14048
L13206 13973
L13206 13841
L13188 13766
L13150 13729
L13113 13710
" />
<path d="M12569 13729
L12607 13710
L12663 13710
L12719 13729
L12756 13766
L12775 13804
L12794 13879
L12794 13935
L12775 14010
L12756 14048
L12719 14085
L12663 14104
L12625 14104
L12569 14085
L12550 14066
L12550 13935
L12625 13935
" />
</g>
<g style="fill:#000000; fill-opacity:0.0; 
stroke:#000000; stroke-width:49.2126; stroke-opacity:1; 
stroke-linecap:round; stroke-linejoin:round;">
<path d="M9881 13729
L9919 13710
L9975 13710
L10031 13729
L10069 13766
L10088 13804
L10106 13879
L10106 13935
L10088 14010
L10069 14048
L10031 14085
L9975 14104
L9938 14104
L9881 14085
L9863 14066
L9863 13935
L9938 13935
" />
<path d="M9694 14104
L9694 13710
L9469 14104
L9469 13710
" />
<path d="M9281 14104
L9281 13710
L9188 13710
L9131 13729
L9094 13766
L9075 13804
L9056 13879
L9056 13935
L9075 14010
L9094 14048
L9131 14085
L9188 14104
L9281 14104
" />
</g> 
</svg>
