<?xml version="1.0" standalone="no"?>
 <!DOCTYPE svg PUBLIC "-//W3C//DTD SVG 1.1//EN" 
 "http://www.w3.org/Graphics/SVG/1.1/DTD/svg11.dtd"> 
<svg xmlns="http://www.w3.org/2000/svg" version="1.1" 
    width="41.9989cm" height="29.7002cm" viewBox="0 0 165350 116930 ">
<title>SVG Picture created as LineSensor-F_SilkS.svg date 2015/10/25 21:36:22 </title>
  <desc>Picture generated by PCBNEW </desc>
<g style="fill:#000000; fill-opacity:1;stroke:#000000; stroke-opacity:1;
stroke-linecap:round; stroke-linejoin:round; "
 transform="translate(0 0) scale(1 1)">
</g>
<g style="fill:#000000; fill-opacity:0.0; 
stroke:#000000; stroke-width:78.7402; stroke-opacity:1; 
stroke-linecap:round; stroke-linejoin:round;">
<circle cx="8464.57" cy="30511.8" r="630.229" /> 
<circle cx="14763.8" cy="30511.8" r="630.229" /> 
</g>
<g style="fill:#000000; fill-opacity:0.0; 
stroke:#000000; stroke-width:118.11; stroke-opacity:1; 
stroke-linecap:round; stroke-linejoin:round;">
<path d="M13218 24624
L13218 24999
L12431 24999
" />
<path d="M13218 24362
L12693 24362
" />
<path d="M12431 24362
L12468 24399
L12506 24362
L12468 24324
L12431 24362
L12506 24362
" />
<path d="M12693 23987
L13218 23987
" />
<path d="M12768 23987
L12731 23949
L12693 23874
L12693 23762
L12731 23687
L12806 23649
L13218 23649
" />
<path d="M13181 22974
L13218 23049
L13218 23199
L13181 23274
L13106 23312
L12806 23312
L12731 23274
L12693 23199
L12693 23049
L12731 22974
L12806 22937
L12881 22937
L12956 23312
" />
<path d="M13181 22037
L13218 21924
L13218 21737
L13181 21662
L13143 21625
L13068 21587
L12993 21587
L12918 21625
L12881 21662
L12843 21737
L12806 21887
L12768 21962
L12731 21999
L12656 22037
L12581 22037
L12506 21999
L12468 21962
L12431 21887
L12431 21700
L12468 21587
" />
<path d="M13181 20950
L13218 21025
L13218 21175
L13181 21250
L13106 21287
L12806 21287
L12731 21250
L12693 21175
L12693 21025
L12731 20950
L12806 20912
L12881 20912
L12956 21287
" />
<path d="M12693 20575
L13218 20575
" />
<path d="M12768 20575
L12731 20537
L12693 20462
L12693 20350
L12731 20275
L12806 20237
L13218 20237
" />
<path d="M13181 19900
L13218 19825
L13218 19675
L13181 19600
L13106 19562
L13068 19562
L12993 19600
L12956 19675
L12956 19787
L12918 19862
L12843 19900
L12806 19900
L12731 19862
L12693 19787
L12693 19675
L12731 19600
" />
<path d="M13218 19112
L13181 19187
L13143 19225
L13068 19262
L12843 19262
L12768 19225
L12731 19187
L12693 19112
L12693 19000
L12731 18925
L12768 18887
L12843 18850
L13068 18850
L13143 18887
L13181 18925
L13218 19000
L13218 19112
" />
<path d="M13218 18512
L12693 18512
" />
<path d="M12843 18512
L12768 18475
L12731 18437
L12693 18362
L12693 18287
" />
<path d="M12431 17275
L12431 17200
L12468 17125
L12506 17088
L12581 17050
L12731 17013
L12918 17013
L13068 17050
L13143 17088
L13181 17125
L13218 17200
L13218 17275
L13181 17350
L13143 17388
L13068 17425
L12918 17463
L12731 17463
L12581 17425
L12506 17388
L12468 17350
L12431 17275
" />
<path d="M13143 16675
L13181 16638
L13218 16675
L13181 16713
L13143 16675
L13218 16675
" />
<path d="M12693 15963
L13218 15963
" />
<path d="M12393 16150
L12956 16338
L12956 15850
" />
<path d="M10731 23943
L10768 23830
L10768 23643
L10731 23568
L10693 23531
L10618 23493
L10543 23493
L10468 23531
L10431 23568
L10393 23643
L10356 23793
L10318 23868
L10281 23905
L10206 23943
L10131 23943
L10056 23905
L10018 23868
L9981 23793
L9981 23606
L10018 23493
" />
<path d="M10731 22818
L10768 22893
L10768 23043
L10731 23118
L10693 23156
L10618 23193
L10393 23193
L10318 23156
L10281 23118
L10243 23043
L10243 22893
L10281 22818
" />
<path d="M10768 22481
L10243 22481
" />
<path d="M10393 22481
L10318 22443
L10281 22406
L10243 22331
L10243 22256
" />
<path d="M10768 21656
L10356 21656
L10281 21693
L10243 21768
L10243 21918
L10281 21993
" />
<path d="M10731 21656
L10768 21731
L10768 21918
L10731 21993
L10656 22031
L10581 22031
L10506 21993
L10468 21918
L10468 21731
L10431 21656
" />
<path d="M10243 21393
L10243 21093
" />
<path d="M9981 21281
L10656 21281
L10731 21243
L10768 21168
L10768 21093
" />
<path d="M10731 20493
L10768 20568
L10768 20718
L10731 20793
L10693 20831
L10618 20868
L10393 20868
L10318 20831
L10281 20793
L10243 20718
L10243 20568
L10281 20493
" />
<path d="M10768 20156
L9981 20156
" />
<path d="M10768 19818
L10356 19818
L10281 19856
L10243 19931
L10243 20043
L10281 20118
L10318 20156
" />
<path d="M10768 19444
L9981 19444
L9981 19256
L10018 19144
L10093 19069
L10168 19031
L10318 18994
L10431 18994
L10581 19031
L10656 19069
L10731 19144
L10768 19256
L10768 19444
" />
<path d="M10243 18319
L10768 18319
" />
<path d="M10243 18656
L10656 18656
L10731 18619
L10768 18544
L10768 18431
L10731 18356
L10693 18319
" />
<path d="M10768 17944
L10243 17944
" />
<path d="M9981 17944
L10018 17981
L10056 17944
L10018 17906
L9981 17944
L10056 17944
" />
<path d="M10243 17569
L10768 17569
" />
<path d="M10318 17569
L10281 17531
L10243 17456
L10243 17344
L10281 17269
L10356 17231
L10768 17231
" />
<path d="M10768 16744
L10731 16819
L10693 16856
L10618 16894
L10393 16894
L10318 16856
L10281 16819
L10243 16744
L10243 16631
L10281 16556
L10318 16519
L10393 16481
L10618 16481
L10693 16519
L10731 16556
L10768 16631
L10768 16744
" />
</g>
<g style="fill:#000000; fill-opacity:0.0; 
stroke:#000000; stroke-width:39; stroke-opacity:1; 
stroke-linecap:round; stroke-linejoin:round;">
<path d="M10625 27654
L10625 27254
" />
<path d="M10625 27254
L11225 27254
" />
<path d="M11225 27254
L11225 27654
" />
<path d="M11225 28054
L11225 28454
" />
<path d="M11225 28454
L10625 28454
" />
<path d="M10625 28454
L10625 28054
" />
<path d="M12701 28054
L12701 28454
" />
<path d="M12701 28454
L12101 28454
" />
<path d="M12101 28454
L12101 28054
" />
<path d="M12101 27654
L12101 27254
" />
<path d="M12101 27254
L12701 27254
" />
<path d="M12701 27254
L12701 27654
" />
</g>
<g style="fill:#000000; fill-opacity:0.0; 
stroke:#000000; stroke-width:59.0551; stroke-opacity:1; 
stroke-linecap:round; stroke-linejoin:round;">
<path d="M10629 30807
L10433 30610
" />
<path d="M11023 30807
L11023 30905
" />
<path d="M10826 30807
L10826 30905
" />
<path d="M11023 29724
L11023 29822
" />
<path d="M10826 29822
L10826 29724
" />
<path d="M10433 30807
L10433 29822
" />
<path d="M10433 29822
L11417 29822
" />
<path d="M11417 29822
L11417 30807
" />
<path d="M11417 30807
L10433 30807
" />
<circle cx="12401.6" cy="30315" r="492.126" /> 
<path d="M12500 29527
L12500 29724
" />
<path d="M12303 29724
L12303 29527
" />
<path d="M12500 30807
L12500 31003
" />
<path d="M12303 31003
L12303 30807
" />
<path d="M11909 30807
L11909 29724
" />
<path d="M11909 29724
L12893 29724
" />
<path d="M12893 29724
L12893 30807
" />
<path d="M12893 30807
L11909 30807
" />
</g>
<g style="fill:#000000; fill-opacity:0.0; 
stroke:#000000; stroke-width:43; stroke-opacity:1; 
stroke-linecap:round; stroke-linejoin:round;">
<path d="M10512 28379
L10418 28444
" />
<path d="M10512 28491
L10315 28491
L10315 28416
L10325 28398
L10334 28388
L10353 28379
L10381 28379
L10400 28388
L10409 28398
L10418 28416
L10418 28491
" />
<path d="M10512 28191
L10512 28304
" />
<path d="M10512 28247
L10315 28247
L10343 28266
L10362 28285
L10372 28304
" />
<path d="M10512 27690
L10512 27802
" />
<path d="M10512 27746
L10315 27746
L10343 27765
L10362 27784
L10372 27802
" />
<path d="M10315 27568
L10315 27549
L10325 27530
L10334 27521
L10353 27512
L10390 27502
L10437 27502
L10475 27512
L10494 27521
L10503 27530
L10512 27549
L10512 27568
L10503 27587
L10494 27596
L10475 27605
L10437 27615
L10390 27615
L10353 27605
L10334 27596
L10325 27587
L10315 27568
" />
<path d="M10315 27380
L10315 27362
L10325 27343
L10334 27333
L10353 27324
L10390 27315
L10437 27315
L10475 27324
L10494 27333
L10503 27343
L10512 27362
L10512 27380
L10503 27399
L10494 27408
L10475 27418
L10437 27427
L10390 27427
L10353 27418
L10334 27408
L10325 27399
L10315 27380
" />
<path d="M11890 28379
L11796 28444
" />
<path d="M11890 28491
L11693 28491
L11693 28416
L11703 28398
L11712 28388
L11731 28379
L11759 28379
L11778 28388
L11787 28398
L11796 28416
L11796 28491
" />
<path d="M11693 28313
L11693 28191
L11768 28257
L11768 28229
L11778 28210
L11787 28201
L11806 28191
L11853 28191
L11872 28201
L11881 28210
L11890 28229
L11890 28285
L11881 28304
L11872 28313
" />
<path d="M11890 27788
L11890 27901
" />
<path d="M11890 27845
L11693 27845
L11721 27863
L11740 27882
L11750 27901
" />
<path d="M11693 27666
L11693 27648
L11703 27629
L11712 27620
L11731 27610
L11768 27601
L11815 27601
L11853 27610
L11872 27620
L11881 27629
L11890 27648
L11890 27666
L11881 27685
L11872 27695
L11853 27704
L11815 27713
L11768 27713
L11731 27704
L11712 27695
L11703 27685
L11693 27666
" />
<path d="M11693 27479
L11693 27460
L11703 27441
L11712 27432
L11731 27423
L11768 27413
L11815 27413
L11853 27423
L11872 27432
L11881 27441
L11890 27460
L11890 27479
L11881 27498
L11872 27507
L11853 27516
L11815 27526
L11768 27526
L11731 27516
L11712 27507
L11703 27498
L11693 27479
" />
<path d="M11890 27329
L11693 27329
" />
<path d="M11890 27216
L11778 27301
" />
<path d="M11693 27216
L11806 27329
" />
</g>
<g style="fill:#000000; fill-opacity:0.0; 
stroke:#000000; stroke-width:59.0551; stroke-opacity:1; 
stroke-linecap:round; stroke-linejoin:round;">
<path d="M10278 30750
L9687 30750
L9687 30610
L9715 30525
L9772 30469
L9828 30441
L9940 30413
L10025 30413
L10137 30441
L10194 30469
L10250 30525
L10278 30610
L10278 30750
" />
<path d="M9744 30188
L9715 30160
L9687 30104
L9687 29963
L9715 29907
L9744 29879
L9800 29850
L9856 29850
L9940 29879
L10278 30216
L10278 29850
" />
<path d="M13624 30750
L13034 30750
L13034 30610
L13062 30525
L13118 30469
L13174 30441
L13287 30413
L13371 30413
L13484 30441
L13540 30469
L13596 30525
L13624 30610
L13624 30750
" />
<path d="M13624 29850
L13624 30188
" />
<path d="M13624 30019
L13034 30019
L13118 30075
L13174 30132
L13203 30188
" />
</g> 
</svg>
