<?xml version="1.0" standalone="no"?>
 <!DOCTYPE svg PUBLIC "-//W3C//DTD SVG 1.1//EN" 
 "http://www.w3.org/Graphics/SVG/1.1/DTD/svg11.dtd"> 
<svg xmlns="http://www.w3.org/2000/svg" version="1.1" 
    width="41.9989cm" height="29.7002cm" viewBox="0 0 165350 116930 ">
<title>SVG Picture created as LineSensor-F_Mask.svg date 2015/10/25 21:36:22 </title>
  <desc>Picture generated by PCBNEW </desc>
<g style="fill:#000000; fill-opacity:1;stroke:#000000; stroke-opacity:1;
stroke-linecap:round; stroke-linejoin:round; "
 transform="translate(0 0) scale(1 1)">
</g>
<g style="fill:#000000; fill-opacity:0.0; 
stroke:#000000; stroke-width:39.3701; stroke-opacity:1; 
stroke-linecap:round; stroke-linejoin:round;">
</g>
<g style="fill:#000000; fill-opacity:1.0; 
stroke:#000000; stroke-width:39.3701; stroke-opacity:1; 
stroke-linecap:round; stroke-linejoin:round;">
<circle cx="7081.89" cy="10222.5" r="669.291" /> 
<circle cx="16137" cy="10222.5" r="669.291" /> 
<polyline style="fill-rule:evenodd;"
points="10591,27245
11259,27245
11259,27713
10591,27713
10591,27245
" /> 
<polyline style="fill-rule:evenodd;"
points="10591,27995
11259,27995
11259,28463
10591,28463
10591,27995
" /> 
<polyline style="fill-rule:evenodd;"
points="12735,28463
12067,28463
12067,27995
12735,27995
12735,28463
" /> 
<polyline style="fill-rule:evenodd;"
points="12735,27713
12067,27713
12067,27245
12735,27245
12735,27713
" /> 
<polyline style="fill-rule:evenodd;"
points="11181,31673
10669,31673
10669,30925
11181,30925
11181,31673
" /> 
<polyline style="fill-rule:evenodd;"
points="11181,29704
10669,29704
10669,28956
11181,28956
11181,29704
" /> 
<circle cx="10925.2" cy="30315" r="472.441" /> 
<polyline style="fill-rule:evenodd;"
points="12657,31614
12145,31614
12145,30984
12657,30984
12657,31614
" /> 
<polyline style="fill-rule:evenodd;"
points="12657,29527
12145,29527
12145,28897
12657,28897
12657,29527
" /> 
<circle cx="12401.6" cy="30315" r="472.441" /> 
</g> 
</svg>
