<?xml version="1.0" standalone="no"?>
 <!DOCTYPE svg PUBLIC "-//W3C//DTD SVG 1.1//EN" 
 "http://www.w3.org/Graphics/SVG/1.1/DTD/svg11.dtd"> 
<svg xmlns="http://www.w3.org/2000/svg" version="1.1" 
    width="41.9989cm" height="29.7002cm" viewBox="0 0 165350 116930 ">
<title>SVG Picture created as LineSensor-F_Cu.svg date 2015/10/25 21:36:22 </title>
  <desc>Picture generated by PCBNEW </desc>
<g style="fill:#000000; fill-opacity:1;stroke:#000000; stroke-opacity:1;
stroke-linecap:round; stroke-linejoin:round; "
 transform="translate(0 0) scale(1 1)">
</g>
<g style="fill:#000000; fill-opacity:0.0; 
stroke:#000000; stroke-width:39.3701; stroke-opacity:1; 
stroke-linecap:round; stroke-linejoin:round;">
</g>
<g style="fill:#000000; fill-opacity:1.0; 
stroke:#000000; stroke-width:39.3701; stroke-opacity:1; 
stroke-linecap:round; stroke-linejoin:round;">
<circle cx="7081.89" cy="10222.5" r="590.551" /> 
<circle cx="16137" cy="10222.5" r="590.551" /> 
<polyline style="fill-rule:evenodd;"
points="10669,27324
11180,27324
11180,27634
10669,27634
10669,27324
" /> 
<polyline style="fill-rule:evenodd;"
points="10669,28074
11180,28074
11180,28384
10669,28384
10669,28074
" /> 
<polyline style="fill-rule:evenodd;"
points="12656,28384
12146,28384
12146,28074
12656,28074
12656,28384
" /> 
<polyline style="fill-rule:evenodd;"
points="12656,27634
12146,27634
12146,27324
12656,27324
12656,27634
" /> 
<polyline style="fill-rule:evenodd;"
points="11102,31594
10748,31594
10748,31003
11102,31003
11102,31594
" /> 
<polyline style="fill-rule:evenodd;"
points="11102,29625
10748,29625
10748,29035
11102,29035
11102,29625
" /> 
<polyline style="fill-rule:evenodd;"
points="12578,31535
12224,31535
12224,31062
12578,31062
12578,31535
" /> 
<polyline style="fill-rule:evenodd;"
points="12578,29448
12224,29448
12224,28976
12578,28976
12578,29448
" /> 
<circle cx="13582.7" cy="28051.2" r="275.591" /> 
<circle cx="10925.2" cy="26673.2" r="275.591" /> 
<circle cx="9645.67" cy="28051.2" r="275.591" /> 
<circle cx="12401.6" cy="26673.2" r="275.591" /> 
</g>
<g style="fill:#000000; fill-opacity:1.0; 
stroke:#000000; stroke-width:196.85; stroke-opacity:1; 
stroke-linecap:round; stroke-linejoin:round;">
<path d="M12401 28229
L13404 28229
" />
<path d="M13404 28229
L13582 28051
" />
<path d="M12401 29212
L12421 29212
" />
<path d="M12401 29212
L12401 28229
" />
<path d="M12401 31299
L11811 31299
" />
<path d="M11436 27479
L10925 27479
" />
<path d="M11614 27657
L11436 27479
" />
<path d="M11614 30807
L11614 27657
" />
<path d="M11614 31102
L11614 30807
" />
<path d="M11811 31299
L11614 31102
" />
<path d="M10925 26673
L10925 27479
" />
<path d="M10925 31299
L10334 31299
" />
<path d="M9645 30610
L9645 28051
" />
<path d="M10334 31299
L9645 30610
" />
<path d="M12401 26673
L12401 27479
" />
<path d="M10925 29330
L10925 28229
" />
</g>
<g style="fill:#000000; fill-opacity:1.0; 
stroke:#000000; stroke-width:39.3701; stroke-opacity:1; 
stroke-linecap:round; stroke-linejoin:round;">
<polyline style="fill-rule:evenodd;"
points="15320,13933
14365,13933
14128,13980
13926,14114
13792,14315
13745,14553
13750,14576
13750,25590
9478,25590
9478,14370
9431,14132
9428,14128
9426,14119
9292,13917
7898,12524
7898,11867
8661,11105
8661,9367
7898,8604
7898,6511
15320,6511
15320,8614
14566,9367
14566,11105
15320,11858
15320,13933
" /> 
</g>
<g style="fill:#000000; fill-opacity:0.0; 
stroke:#000000; stroke-width:393.701; stroke-opacity:1; 
stroke-linecap:round; stroke-linejoin:round;">
<polyline fill="none;"
points="15320,13933
14365,13933
14128,13980
13926,14114
13792,14315
13745,14553
13750,14576
13750,25590
9478,25590
9478,14370
9431,14132
9428,14128
9426,14119
9292,13917
7898,12524
7898,11867
8661,11105
8661,9367
7898,8604
7898,6511
15320,6511
15320,8614
14566,9367
14566,11105
15320,11858
15320,13933
" /> 
</g> 
</svg>
