<?xml version="1.0" standalone="no"?>
 <!DOCTYPE svg PUBLIC "-//W3C//DTD SVG 1.1//EN" 
 "http://www.w3.org/Graphics/SVG/1.1/DTD/svg11.dtd"> 
<svg xmlns="http://www.w3.org/2000/svg" version="1.1" 
    width="41.9989cm" height="29.7002cm" viewBox="0 0 165350 116930 ">
<title>SVG Picture created as IRDistanceSensor-B_SilkS.svg date 2015/11/04 02:15:25 </title>
  <desc>Picture generated by PCBNEW </desc>
<g style="fill:#000000; fill-opacity:1;stroke:#000000; stroke-opacity:1;
stroke-linecap:round; stroke-linejoin:round; "
 transform="translate(0 0) scale(1 1)">
</g>
<g style="fill:#000000; fill-opacity:0.0; 
stroke:#000000; stroke-width:39.3701; stroke-opacity:1; 
stroke-linecap:round; stroke-linejoin:round;">
<path d="M7005 15263
L7201 15263
" />
<path d="M7201 15263
L7201 12507
" />
<path d="M7201 21168
L7201 18412
" />
<path d="M7201 18412
L7005 18412
" />
<path d="M16060 18412
L15863 18412
" />
<path d="M15863 18412
L15863 21168
" />
<path d="M16060 15263
L15863 15263
" />
<path d="M15863 15263
L15863 14475
" />
<path d="M5430.31 16838.2 A1574.8 1574.8 0.0 0 0 7005.12 18413 " />
<path d="M7005.12 15263.4 A1574.8 1574.8 0.0 0 0 5430.31 16838.2 " />
<path d="M16060.2 18413 A1574.8 1574.8 0.0 0 0 17635 16838.2 " />
<path d="M17635 16838.2 A1574.8 1574.8 0.0 0 0 16060.2 15263.4 " />
<circle cx="16060.2" cy="16838.2" r="590.551" /> 
<circle cx="7005.12" cy="16838.2" r="590.551" /> 
<path d="M15863 14475
L15863 14279
" />
<path d="M15863 14279
L14091 12507
" />
<path d="M14091 12507
L7201 12507
" />
<path d="M7201 21168
L15863 21168
" />
</g>
<g style="fill:#000000; fill-opacity:0.0; 
stroke:#000000; stroke-width:59.0551; stroke-opacity:1; 
stroke-linecap:round; stroke-linejoin:round;">
<path d="M10525 20775
L10525 20381
L10432 20381
L10375 20400
L10338 20437
L10319 20475
L10300 20550
L10300 20606
L10319 20681
L10338 20718
L10375 20756
L10432 20775
L10525 20775
" />
<path d="M10132 20775
L10132 20381
" />
<path d="M9738 20400
L9775 20381
L9832 20381
L9888 20400
L9925 20437
L9944 20475
L9963 20550
L9963 20606
L9944 20681
L9925 20718
L9888 20756
L9832 20775
L9794 20775
L9738 20756
L9719 20737
L9719 20606
L9794 20606
" />
<path d="M9550 20775
L9550 20381
" />
<path d="M9419 20381
L9194 20381
" />
<path d="M9307 20775
L9307 20381
" />
<path d="M9082 20662
L8894 20662
" />
<path d="M9119 20775
L8988 20381
L8857 20775
" />
<path d="M8538 20775
L8725 20775
L8725 20381
" />
<path d="M14085 20381
L13953 20775
L13822 20381
" />
<path d="M13466 20737
L13485 20756
L13541 20775
L13578 20775
L13635 20756
L13672 20718
L13691 20681
L13710 20606
L13710 20550
L13691 20475
L13672 20437
L13635 20400
L13578 20381
L13541 20381
L13485 20400
L13466 20418
" />
<path d="M13072 20737
L13091 20756
L13147 20775
L13185 20775
L13241 20756
L13279 20718
L13297 20681
L13316 20606
L13316 20550
L13297 20475
L13279 20437
L13241 20400
L13185 20381
L13147 20381
L13091 20400
L13072 20418
" />
<path d="M10531 13146
L10343 13146
" />
<path d="M10568 13259
L10437 12865
L10306 13259
" />
<path d="M10174 13259
L10174 12865
L9949 13259
L9949 12865
" />
<path d="M9781 13146
L9593 13146
" />
<path d="M9818 13259
L9687 12865
L9556 13259
" />
<path d="M9237 13259
L9425 13259
L9425 12865
" />
<path d="M9031 12865
L8956 12865
L8918 12884
L8881 12921
L8862 12996
L8862 13128
L8881 13203
L8918 13240
L8956 13259
L9031 13259
L9068 13240
L9106 13203
L9125 13128
L9125 12996
L9106 12921
L9068 12884
L9031 12865
" />
<path d="M8487 12884
L8525 12865
L8581 12865
L8637 12884
L8675 12921
L8693 12959
L8712 13034
L8712 13090
L8693 13165
L8675 13203
L8637 13240
L8581 13259
L8543 13259
L8487 13240
L8468 13221
L8468 13090
L8543 13090
" />
</g>
<g style="fill:#000000; fill-opacity:0.0; 
stroke:#000000; stroke-width:49.2126; stroke-opacity:1; 
stroke-linecap:round; stroke-linejoin:round;">
<path d="M13860 12900
L13897 12881
L13953 12881
L14010 12900
L14047 12937
L14066 12975
L14085 13050
L14085 13106
L14066 13181
L14047 13218
L14010 13256
L13953 13275
L13916 13275
L13860 13256
L13841 13237
L13841 13106
L13916 13106
" />
<path d="M13672 13275
L13672 12881
L13447 13275
L13447 12881
" />
<path d="M13260 13275
L13260 12881
L13166 12881
L13110 12900
L13072 12937
L13054 12975
L13035 13050
L13035 13106
L13054 13181
L13072 13218
L13110 13256
L13166 13275
L13260 13275
" />
</g> 
</svg>
