<?xml version="1.0" standalone="no"?>
 <!DOCTYPE svg PUBLIC "-//W3C//DTD SVG 1.1//EN" 
 "http://www.w3.org/Graphics/SVG/1.1/DTD/svg11.dtd"> 
<svg xmlns="http://www.w3.org/2000/svg" version="1.1" 
    width="41.9989cm" height="29.7002cm" viewBox="0 0 165350 116930 ">
<title>SVG Picture created as IRDistanceSensor-B_Cu.svg date 2015/10/27 07:04:25 </title>
  <desc>Picture generated by PCBNEW </desc>
<g style="fill:#000000; fill-opacity:1;stroke:#000000; stroke-opacity:1;
stroke-linecap:round; stroke-linejoin:round; "
 transform="translate(0 0) scale(1 1)">
</g>
<g style="fill:#000000; fill-opacity:0.0; 
stroke:#000000; stroke-width:39.3701; stroke-opacity:1; 
stroke-linecap:round; stroke-linejoin:round;">
</g>
<g style="fill:#000000; fill-opacity:1.0; 
stroke:#000000; stroke-width:39.3701; stroke-opacity:1; 
stroke-linecap:round; stroke-linejoin:round;">
<circle cx="13501.2" cy="18806.7" r="1358.27" /> 
<circle cx="9564.17" cy="18806.7" r="1358.27" /> 
<circle cx="13501.2" cy="14869.7" r="1358.27" /> 
<circle cx="9564.17" cy="14869.7" r="1358.27" /> 
<circle cx="16060.2" cy="16838.2" r="590.551" /> 
<circle cx="7005.12" cy="16838.2" r="590.551" /> 
<circle cx="10728.3" cy="17027.6" r="275.591" /> 
<circle cx="11515.7" cy="17027.6" r="275.591" /> 
<circle cx="12303.1" cy="16338.6" r="275.591" /> 
</g>
<g style="fill:#000000; fill-opacity:1.0; 
stroke:#000000; stroke-width:196.85; stroke-opacity:1; 
stroke-linecap:round; stroke-linejoin:round;">
<path d="M13493 18799
L13501 18806
" />
<path d="M11811 18799
L13493 18799
" />
<path d="M10728 17716
L11811 18799
" />
<path d="M10728 17027
L10728 17716
" />
<path d="M13501 16715
L13501 14869
" />
<path d="M13090 17125
L13501 16715
" />
<path d="M11614 17125
L13090 17125
" />
<path d="M11515 17027
L11614 17125
" />
<path d="M9564 14879
L9564 14869
" />
<path d="M11023 16338
L9564 14879
" />
<path d="M12303 16338
L11023 16338
" />
</g> 
</svg>
