<?xml version="1.0" standalone="no"?>
 <!DOCTYPE svg PUBLIC "-//W3C//DTD SVG 1.1//EN" 
 "http://www.w3.org/Graphics/SVG/1.1/DTD/svg11.dtd"> 
<svg xmlns="http://www.w3.org/2000/svg" version="1.1" 
    width="41.9989cm" height="29.7002cm" viewBox="0 0 165350 116930 ">
<title>SVG Picture created as IRDistanceSensor-B_Cu.svg date 2015/11/04 02:15:25 </title>
  <desc>Picture generated by PCBNEW </desc>
<g style="fill:#000000; fill-opacity:1;stroke:#000000; stroke-opacity:1;
stroke-linecap:round; stroke-linejoin:round; "
 transform="translate(0 0) scale(1 1)">
</g>
<g style="fill:#000000; fill-opacity:0.0; 
stroke:#000000; stroke-width:39.3701; stroke-opacity:1; 
stroke-linecap:round; stroke-linejoin:round;">
</g>
<g style="fill:#000000; fill-opacity:1.0; 
stroke:#000000; stroke-width:39.3701; stroke-opacity:1; 
stroke-linecap:round; stroke-linejoin:round;">
<circle cx="13501.2" cy="18806.7" r="1358.27" /> 
<circle cx="9564.17" cy="18806.7" r="1358.27" /> 
<circle cx="13501.2" cy="14869.7" r="1358.27" /> 
<circle cx="9564.17" cy="14869.7" r="1358.27" /> 
<circle cx="16060.2" cy="16838.2" r="590.551" /> 
<circle cx="7005.12" cy="16838.2" r="590.551" /> 
<circle cx="12007.9" cy="17519.7" r="275.591" /> 
<circle cx="11318.9" cy="18011.8" r="275.591" /> 
<circle cx="10728.3" cy="17224.4" r="275.591" /> 
</g>
<g style="fill:#000000; fill-opacity:1.0; 
stroke:#000000; stroke-width:196.85; stroke-opacity:1; 
stroke-linecap:round; stroke-linejoin:round;">
<path d="M13294 18806
L13501 18806
" />
<path d="M12007 17519
L13294 18806
" />
<path d="M13476 14869
L13501 14869
" />
<path d="M11318 17027
L13476 14869
" />
<path d="M11318 18011
L11318 17027
" />
<path d="M9564 14879
L9564 14869
" />
<path d="M10728 16043
L9564 14879
" />
<path d="M10728 17224
L10728 16043
" />
</g> 
</svg>
