<?xml version="1.0" standalone="no"?>
 <!DOCTYPE svg PUBLIC "-//W3C//DTD SVG 1.1//EN" 
 "http://www.w3.org/Graphics/SVG/1.1/DTD/svg11.dtd"> 
<svg xmlns="http://www.w3.org/2000/svg" version="1.1" 
    width="41.9989cm" height="29.7002cm" viewBox="0 0 165350 116930 ">
<title>SVG Picture created as IRDistanceSensor-Edge_Cuts.svg date 2015/10/27 07:04:25 </title>
  <desc>Picture generated by PCBNEW </desc>
<g style="fill:#000000; fill-opacity:1;stroke:#000000; stroke-opacity:1;
stroke-linecap:round; stroke-linejoin:round; "
 transform="translate(0 0) scale(1 1)">
</g>
<g style="fill:#000000; fill-opacity:0.0; 
stroke:#000000; stroke-width:59.0551; stroke-opacity:1; 
stroke-linecap:round; stroke-linejoin:round;">
<path d="M15850 15250
L15850 14250
" />
<path d="M14100 12500
L7200 12500
" />
<path d="M15850 14250
L14100 12500
" />
<path d="M5430.31 16838.2 A1574.8 1574.8 0.0 0 0 7005.12 18413 " />
<path d="M7005.12 15263.4 A1574.8 1574.8 0.0 0 0 5430.31 16838.2 " />
<path d="M16060.2 18413 A1574.8 1574.8 0.0 0 0 17635 16838.2 " />
<path d="M17635 16838.2 A1574.8 1574.8 0.0 0 0 16060.2 15263.4 " />
<path d="M15863 18412
L16060 18412
" />
<path d="M15863 15263
L16060 15263
" />
<path d="M7005 18412
L7201 18412
" />
<path d="M7201 15263
L7005 15263
" />
<path d="M7201 12507
L7201 15263
" />
<path d="M15863 21168
L15863 18412
" />
<path d="M7201 21168
L15863 21168
" />
<path d="M7201 21168
L7201 18412
" />
</g> 
</svg>
