<?xml version="1.0" standalone="no"?>
 <!DOCTYPE svg PUBLIC "-//W3C//DTD SVG 1.1//EN" 
 "http://www.w3.org/Graphics/SVG/1.1/DTD/svg11.dtd"> 
<svg xmlns="http://www.w3.org/2000/svg" version="1.1" 
    width="41.9989cm" height="29.7002cm" viewBox="0 0 165350 116930 ">
<title>SVG Picture created as IRDistanceSensor-F_Cu.svg date 2015/10/27 07:04:25 </title>
  <desc>Picture generated by PCBNEW </desc>
<g style="fill:#000000; fill-opacity:1;stroke:#000000; stroke-opacity:1;
stroke-linecap:round; stroke-linejoin:round; "
 transform="translate(0 0) scale(1 1)">
</g>
<g style="fill:#000000; fill-opacity:0.0; 
stroke:#000000; stroke-width:39.3701; stroke-opacity:1; 
stroke-linecap:round; stroke-linejoin:round;">
</g>
<g style="fill:#000000; fill-opacity:1.0; 
stroke:#000000; stroke-width:39.3701; stroke-opacity:1; 
stroke-linecap:round; stroke-linejoin:round;">
<circle cx="16060.2" cy="16838.2" r="590.551" /> 
<circle cx="7005.12" cy="16838.2" r="590.551" /> 
<polyline style="fill-rule:evenodd;"
points="12047,19271
12047,18129
12559,18129
12559,19271
12047,19271
" /> 
<polyline style="fill-rule:evenodd;"
points="11259,19271
11259,18129
11771,18129
11771,19271
11259,19271
" /> 
<polyline style="fill-rule:evenodd;"
points="10472,19271
10472,18129
10984,18129
10984,19271
10472,19271
" /> 
<circle cx="10728.3" cy="17027.6" r="275.591" /> 
<circle cx="11515.7" cy="17027.6" r="275.591" /> 
<circle cx="12303.1" cy="16338.6" r="275.591" /> 
</g>
<g style="fill:#000000; fill-opacity:1.0; 
stroke:#000000; stroke-width:196.85; stroke-opacity:1; 
stroke-linecap:round; stroke-linejoin:round;">
<path d="M10728 18700
L10728 17027
" />
<path d="M11515 18700
L11515 17027
" />
<path d="M12303 18700
L12303 16338
" />
</g>
<g style="fill:#000000; fill-opacity:1.0; 
stroke:#000000; stroke-width:39.3701; stroke-opacity:1; 
stroke-linecap:round; stroke-linejoin:round;">
<polyline style="fill-rule:evenodd;"
points="15243,20548
13189,20548
13189,16163
13054,15837
12805,15588
12480,15452
12127,15452
11802,15587
11552,15836
11425,16141
11340,16141
11121,16231
10905,16141
10552,16141
10227,16276
9977,16525
9842,16850
9842,17202
9976,17528
10039,17591
10039,17688
9952,17775
9862,17992
9862,18227
9862,19408
9951,19625
10117,19791
10334,19881
10569,19881
11120,19881
11121,19881
11122,19881
11357,19881
11908,19881
11909,19881
11909,19881
12144,19881
12695,19881
12912,19792
13079,19626
13169,19409
13169,19174
13169,17993
13079,17776
12992,17688
12992,16902
13053,16841
13188,16515
13189,16163
13189,20548
7822,20548
7822,18465
8579,17707
8579,15969
7822,15211
7822,13120
13843,13120
15229,14506
15229,15224
14485,15969
14485,17707
15243,18465
15243,20548
" /> 
</g>
<g style="fill:#000000; fill-opacity:0.0; 
stroke:#000000; stroke-width:393.701; stroke-opacity:1; 
stroke-linecap:round; stroke-linejoin:round;">
<polyline fill="none;"
points="15243,20548
13189,20548
13189,16163
13054,15837
12805,15588
12480,15452
12127,15452
11802,15587
11552,15836
11425,16141
11340,16141
11121,16231
10905,16141
10552,16141
10227,16276
9977,16525
9842,16850
9842,17202
9976,17528
10039,17591
10039,17688
9952,17775
9862,17992
9862,18227
9862,19408
9951,19625
10117,19791
10334,19881
10569,19881
11120,19881
11121,19881
11122,19881
11357,19881
11908,19881
11909,19881
11909,19881
12144,19881
12695,19881
12912,19792
13079,19626
13169,19409
13169,19174
13169,17993
13079,17776
12992,17688
12992,16902
13053,16841
13188,16515
13189,16163
13189,20548
7822,20548
7822,18465
8579,17707
8579,15969
7822,15211
7822,13120
13843,13120
15229,14506
15229,15224
14485,15969
14485,17707
15243,18465
15243,20548
" /> 
</g> 
</svg>
