<?xml version="1.0" standalone="no"?>
 <!DOCTYPE svg PUBLIC "-//W3C//DTD SVG 1.1//EN" 
 "http://www.w3.org/Graphics/SVG/1.1/DTD/svg11.dtd"> 
<svg xmlns="http://www.w3.org/2000/svg" version="1.1" 
    width="41.9989cm" height="29.7002cm" viewBox="0 0 165350 116930 ">
<title>SVG Picture created as IRDistanceSensor-F_Cu.svg date 2015/11/04 02:15:25 </title>
  <desc>Picture generated by PCBNEW </desc>
<g style="fill:#000000; fill-opacity:1;stroke:#000000; stroke-opacity:1;
stroke-linecap:round; stroke-linejoin:round; "
 transform="translate(0 0) scale(1 1)">
</g>
<g style="fill:#000000; fill-opacity:0.0; 
stroke:#000000; stroke-width:39.3701; stroke-opacity:1; 
stroke-linecap:round; stroke-linejoin:round;">
</g>
<g style="fill:#000000; fill-opacity:1.0; 
stroke:#000000; stroke-width:39.3701; stroke-opacity:1; 
stroke-linecap:round; stroke-linejoin:round;">
<circle cx="16060.2" cy="16838.2" r="590.551" /> 
<circle cx="7005.12" cy="16838.2" r="590.551" /> 
<polyline style="fill-rule:evenodd;"
points="9566,18149
9566,16850
10118,16850
10118,18149
9566,18149
" /> 
<polyline style="fill-rule:evenodd;"
points="12047,20452
12047,19114
12559,19114
12559,20452
12047,20452
" /> 
<polyline style="fill-rule:evenodd;"
points="11259,20452
11259,19114
11771,19114
11771,20452
11259,20452
" /> 
<polyline style="fill-rule:evenodd;"
points="10472,20452
10472,19114
10984,19114
10984,20452
10472,20452
" /> 
<polyline style="fill-rule:evenodd;"
points="12913,18149
12913,16850
13464,16850
13464,18149
12913,18149
" /> 
<circle cx="12007.9" cy="17519.7" r="275.591" /> 
<circle cx="11318.9" cy="18011.8" r="275.591" /> 
<circle cx="10728.3" cy="17224.4" r="275.591" /> 
</g>
<g style="fill:#000000; fill-opacity:1.0; 
stroke:#000000; stroke-width:196.85; stroke-opacity:1; 
stroke-linecap:round; stroke-linejoin:round;">
<path d="M12303 19783
L12303 17814
" />
<path d="M12303 17814
L12007 17519
" />
<path d="M11515 19783
L11515 18208
" />
<path d="M11515 18208
L11318 18011
" />
<path d="M10728 19783
L10728 17224
" />
</g>
<g style="fill:#000000; fill-opacity:1.0; 
stroke:#000000; stroke-width:39.3701; stroke-opacity:1; 
stroke-linecap:round; stroke-linejoin:round;">
<polyline style="fill-rule:evenodd;"
points="15243,20548
13169,20548
13169,20355
13169,18977
13079,18760
13079,18759
13601,18759
13818,18670
13984,18504
14074,18287
14074,18052
14074,16947
14074,16713
14074,16713
14074,16712
14029,16604
13985,16496
13984,16496
13984,16495
13901,16413
13819,16330
13818,16330
13818,16329
13710,16285
13602,16240
13601,16240
13601,16240
13447,16240
13367,16240
12776,16240
12559,16329
12393,16495
12313,16687
12184,16634
11832,16633
11506,16768
11500,16774
11479,16723
11230,16473
10905,16338
10552,16338
10501,16359
10472,16330
10472,16330
10471,16329
10363,16285
10255,16240
10255,16240
10254,16240
10100,16240
10020,16240
9430,16240
9213,16329
9046,16495
8956,16712
8956,16947
8956,18052
8956,18286
8956,18286
8956,18287
9001,18395
9046,18503
9046,18503
9046,18504
9129,18586
9212,18669
9212,18669
9213,18670
9321,18714
9429,18759
9429,18759
9430,18759
9584,18759
9664,18759
9952,18759
9862,18976
9862,19211
9862,20548
7822,20548
7822,18465
8579,17707
8579,15969
7822,15211
7822,13120
13843,13120
15229,14506
15229,15224
14485,15969
14485,17707
15243,18465
15243,20548
" /> 
</g>
<g style="fill:#000000; fill-opacity:0.0; 
stroke:#000000; stroke-width:393.701; stroke-opacity:1; 
stroke-linecap:round; stroke-linejoin:round;">
<polyline fill="none;"
points="15243,20548
13169,20548
13169,20355
13169,18977
13079,18760
13079,18759
13601,18759
13818,18670
13984,18504
14074,18287
14074,18052
14074,16947
14074,16713
14074,16713
14074,16712
14029,16604
13985,16496
13984,16496
13984,16495
13901,16413
13819,16330
13818,16330
13818,16329
13710,16285
13602,16240
13601,16240
13601,16240
13447,16240
13367,16240
12776,16240
12559,16329
12393,16495
12313,16687
12184,16634
11832,16633
11506,16768
11500,16774
11479,16723
11230,16473
10905,16338
10552,16338
10501,16359
10472,16330
10472,16330
10471,16329
10363,16285
10255,16240
10255,16240
10254,16240
10100,16240
10020,16240
9430,16240
9213,16329
9046,16495
8956,16712
8956,16947
8956,18052
8956,18286
8956,18286
8956,18287
9001,18395
9046,18503
9046,18503
9046,18504
9129,18586
9212,18669
9212,18669
9213,18670
9321,18714
9429,18759
9429,18759
9430,18759
9584,18759
9664,18759
9952,18759
9862,18976
9862,19211
9862,20548
7822,20548
7822,18465
8579,17707
8579,15969
7822,15211
7822,13120
13843,13120
15229,14506
15229,15224
14485,15969
14485,17707
15243,18465
15243,20548
" /> 
</g> 
</svg>
