<?xml version="1.0" standalone="no"?>
 <!DOCTYPE svg PUBLIC "-//W3C//DTD SVG 1.1//EN" 
 "http://www.w3.org/Graphics/SVG/1.1/DTD/svg11.dtd"> 
<svg xmlns="http://www.w3.org/2000/svg" version="1.1" 
    width="41.9989cm" height="29.7002cm" viewBox="0 0 165350 116930 ">
<title>SVG Picture created as IRDistanceSensor-F_SilkS.svg date 2015/11/04 02:15:25 </title>
  <desc>Picture generated by PCBNEW </desc>
<g style="fill:#000000; fill-opacity:1;stroke:#000000; stroke-opacity:1;
stroke-linecap:round; stroke-linejoin:round; "
 transform="translate(0 0) scale(1 1)">
</g>
<g style="fill:#000000; fill-opacity:0.0; 
stroke:#000000; stroke-width:118.11; stroke-opacity:1; 
stroke-linecap:round; stroke-linejoin:round;">
<path d="M8928 14412
L8928 13821
" />
<path d="M9547 14412
L9350 14131
" />
<path d="M9209 14412
L9209 13821
L9434 13821
L9491 13849
L9519 13877
L9547 13934
L9547 14018
L9519 14074
L9491 14102
L9434 14131
L9209 14131
" />
<path d="M10250 14412
L10250 13821
L10390 13821
L10475 13849
L10531 13906
L10559 13962
L10587 14074
L10587 14159
L10559 14271
L10531 14327
L10475 14384
L10390 14412
L10250 14412
" />
<path d="M10840 14412
L10840 13821
" />
<path d="M11093 14384
L11178 14412
L11318 14412
L11375 14384
L11403 14356
L11431 14299
L11431 14243
L11403 14187
L11375 14159
L11318 14131
L11206 14102
L11150 14074
L11122 14046
L11093 13990
L11093 13934
L11122 13877
L11150 13849
L11206 13821
L11347 13821
L11431 13849
" />
<path d="M11600 13821
L11937 13821
" />
<path d="M11768 14412
L11768 13821
" />
<path d="M12106 14243
L12387 14243
" />
<path d="M12050 14412
L12246 13821
L12443 14412
" />
<path d="M12640 14412
L12640 13821
L12978 14412
L12978 13821
" />
<path d="M13596 14356
L13568 14384
L13484 14412
L13428 14412
L13343 14384
L13287 14327
L13259 14271
L13231 14159
L13231 14074
L13259 13962
L13287 13906
L13343 13849
L13428 13821
L13484 13821
L13568 13849
L13596 13877
" />
<path d="M13849 14102
L14046 14102
" />
<path d="M14131 14412
L13849 14412
L13849 13821
L14131 13821
" />
<path d="M8717 13399
L8802 13428
L8942 13428
L8998 13399
L9026 13371
L9055 13315
L9055 13259
L9026 13203
L8998 13174
L8942 13146
L8830 13118
L8773 13090
L8745 13062
L8717 13006
L8717 12949
L8745 12893
L8773 12865
L8830 12837
L8970 12837
L9055 12865
" />
<path d="M9561 13399
L9505 13428
L9392 13428
L9336 13399
L9308 13371
L9280 13315
L9280 13146
L9308 13090
L9336 13062
L9392 13034
L9505 13034
L9561 13062
" />
<path d="M9814 13428
L9814 13034
" />
<path d="M9814 13146
L9842 13090
L9870 13062
L9926 13034
L9983 13034
" />
<path d="M10433 13428
L10433 13118
L10404 13062
L10348 13034
L10236 13034
L10179 13062
" />
<path d="M10433 13399
L10376 13428
L10236 13428
L10179 13399
L10151 13343
L10151 13287
L10179 13231
L10236 13203
L10376 13203
L10433 13174
" />
<path d="M10629 13034
L10854 13034
" />
<path d="M10714 12837
L10714 13343
L10742 13399
L10798 13428
L10854 13428
" />
<path d="M11304 13399
L11248 13428
L11136 13428
L11079 13399
L11051 13371
L11023 13315
L11023 13146
L11051 13090
L11079 13062
L11136 13034
L11248 13034
L11304 13062
" />
<path d="M11557 13428
L11557 12837
" />
<path d="M11811 13428
L11811 13118
L11782 13062
L11726 13034
L11642 13034
L11586 13062
L11557 13090
" />
<path d="M12092 13428
L12092 12837
L12232 12837
L12317 12865
L12373 12921
L12401 12978
L12429 13090
L12429 13174
L12401 13287
L12373 13343
L12317 13399
L12232 13428
L12092 13428
" />
<path d="M12935 13034
L12935 13428
" />
<path d="M12682 13034
L12682 13343
L12710 13399
L12767 13428
L12851 13428
L12907 13399
L12935 13371
" />
<path d="M13217 13428
L13217 13034
" />
<path d="M13217 12837
L13188 12865
L13217 12893
L13245 12865
L13217 12837
L13217 12893
" />
<path d="M13498 13034
L13498 13428
" />
<path d="M13498 13090
L13526 13062
L13582 13034
L13667 13034
L13723 13062
L13751 13118
L13751 13428
" />
<path d="M14116 13428
L14060 13399
L14032 13371
L14004 13315
L14004 13146
L14032 13090
L14060 13062
L14116 13034
L14201 13034
L14257 13062
L14285 13090
L14313 13146
L14313 13315
L14285 13371
L14257 13399
L14201 13428
L14116 13428
" />
<path d="M8731 15466
L8816 15494
L8956 15494
L9012 15466
L9041 15438
L9069 15382
L9069 15326
L9041 15269
L9012 15241
L8956 15213
L8844 15185
L8787 15157
L8759 15129
L8731 15073
L8731 15016
L8759 14960
L8787 14932
L8844 14904
L8984 14904
L9069 14932
" />
<path d="M9322 15185
L9519 15185
" />
<path d="M9603 15494
L9322 15494
L9322 14904
L9603 14904
" />
<path d="M9856 15494
L9856 14904
L10194 15494
L10194 14904
" />
<path d="M10447 15466
L10531 15494
L10672 15494
L10728 15466
L10756 15438
L10784 15382
L10784 15326
L10756 15269
L10728 15241
L10672 15213
L10559 15185
L10503 15157
L10475 15129
L10447 15073
L10447 15016
L10475 14960
L10503 14932
L10559 14904
L10700 14904
L10784 14932
" />
<path d="M11150 14904
L11262 14904
L11318 14932
L11375 14988
L11403 15101
L11403 15298
L11375 15410
L11318 15466
L11262 15494
L11150 15494
L11093 15466
L11037 15410
L11009 15298
L11009 15101
L11037 14988
L11093 14932
L11150 14904
" />
<path d="M11993 15494
L11796 15213
" />
<path d="M11656 15494
L11656 14904
L11881 14904
L11937 14932
L11965 14960
L11993 15016
L11993 15101
L11965 15157
L11937 15185
L11881 15213
L11656 15213
" />
<path d="M13259 14904
L13315 14904
L13371 14932
L13399 14960
L13428 15016
L13456 15129
L13456 15269
L13428 15382
L13399 15438
L13371 15466
L13315 15494
L13259 15494
L13203 15466
L13174 15438
L13146 15382
L13118 15269
L13118 15129
L13146 15016
L13174 14960
L13203 14932
L13259 14904
" />
<path d="M13709 15438
L13737 15466
L13709 15494
L13681 15466
L13709 15438
L13709 15494
" />
<path d="M14243 15101
L14243 15494
" />
<path d="M14102 14876
L13962 15298
L14327 15298
" />
</g>
<g style="fill:#000000; fill-opacity:0.0; 
stroke:#000000; stroke-width:59.0551; stroke-opacity:1; 
stroke-linecap:round; stroke-linejoin:round;">
</g> 
</svg>
